# Generated by Visualization Toolkit
v -205.7931365966797 -114.8211441040039 449.72650146484375
v -203.6627960205078 -116.0921401977539 449.5102233886719
v -204.1242218017578 -118.0685043334961 448.9262390136719
v -206.5153045654297 -116.51548767089844 449.46856689453125
v -200.78318786621094 -120.14066314697266 449.0793762207031
v -201.4830322265625 -117.33317565917969 449.75128173828125
v -198.87271118164062 -120.39910125732422 449.6385192871094
v -202.27276611328125 -119.85758209228516 448.79962158203125
v -204.18014526367188 -119.54531860351562 448.8030090332031
v -207.44635009765625 -118.11315155029297 449.69927978515625
v -205.92401123046875 -120.74989318847656 449.3505859375
v -197.8382568359375 -122.80805969238281 449.49029541015625
v -202.08827209472656 -121.74604034423828 448.84197998046875
v -198.26434326171875 -123.83311462402344 449.5473937988281
v -201.91937255859375 -123.75912475585938 449.49359130859375
v -205.21958923339844 -123.23681640625 450.05926513671875
v -199.3431396484375 -124.7047119140625 449.9521789550781
v -210.63671875 -104.39846801757812 452.1239013671875
v -208.48680114746094 -107.05135345458984 451.75921630859375
v -209.85272216796875 -107.6806411743164 451.31256103515625
v -210.95213317871094 -107.80496978759766 451.3426513671875
v -211.80543518066406 -103.21653747558594 452.693115234375
v -212.31968688964844 -107.25835418701172 451.8692321777344
v -212.90122985839844 -106.72295379638672 452.54742431640625
v -207.93316650390625 -109.97604370117188 451.24053955078125
v -207.1512451171875 -108.7239761352539 451.89178466796875
v -212.0300750732422 -109.75138092041016 451.51214599609375
v -204.7948760986328 -111.74446105957031 451.67059326171875
v -206.3216552734375 -112.65636444091797 450.7601623535156
v -207.76528930664062 -112.93391418457031 450.67279052734375
v -209.63973999023438 -112.43421173095703 450.8841857910156
v -204.7090606689453 -113.01620483398438 450.9150085449219
v -201.25735473632812 -115.27751922607422 451.620849609375
v -208.12632751464844 -114.63519287109375 450.3669128417969
v -211.0756378173828 -115.6651840209961 451.0830383300781
v -200.62025451660156 -116.9202880859375 450.5693359375
v -196.3297119140625 -119.22611236572266 451.9302978515625
v -213.29869079589844 -116.95272827148438 451.8892822265625
v -196.73362731933594 -119.97282409667969 451.0676574707031
v -207.7853240966797 -120.14157104492188 449.9250183105469
v -213.5303955078125 -119.52394104003906 452.291015625
v -195.47576904296875 -121.23320007324219 451.18817138671875
v -209.33445739746094 -122.04988098144531 451.0320129394531
v -195.7480926513672 -123.37559509277344 450.7306213378906
v -192.12350463867188 -123.07706451416016 451.9889831542969
v -208.8997039794922 -123.17964935302734 451.4533996582031
v -193.1644744873047 -124.68876647949219 451.6910705566406
v -196.8595733642578 -125.01598358154297 450.9439392089844
v -200.48577880859375 -125.28145599365234 450.5434875488281
v -203.1256561279297 -125.36470794677734 451.0537109375
v -207.42723083496094 -124.1349105834961 451.5832824707031
v -197.56515502929688 -126.05928802490234 451.7375793457031
v -192.99391174316406 -125.447021484375 452.1593017578125
v -201.66651916503906 -126.34452056884766 452.1932373046875
v -208.2671356201172 -105.79843139648438 453.5221252441406
v -209.6833953857422 -104.0781021118164 452.82635498046875
v -211.0912322998047 -101.98287963867188 453.5545654296875
v -211.6685028076172 -101.54803466796875 453.5347900390625
v -212.5124053955078 -105.10104370117188 453.1302795410156
v -207.4435272216797 -107.22026824951172 452.6443176269531
v -213.82513427734375 -108.03766632080078 453.57891845703125
v -205.91107177734375 -108.47425842285156 453.9118347167969
v -205.20111083984375 -109.49293518066406 453.278564453125
v -204.8256378173828 -110.893798828125 452.30072021484375
v -213.8172149658203 -112.05597686767578 452.2151184082031
v -214.26795959472656 -110.87334442138672 452.6699523925781
v -214.76914978027344 -109.72822570800781 454.1673278808594
v -215.51817321777344 -112.309326171875 453.7727355957031
v -204.30946350097656 -111.01065063476562 453.7253723144531
v -203.2213134765625 -112.6694564819336 452.7712097167969
v -204.10983276367188 -111.7065200805664 454.7020263671875
v -202.0246124267578 -113.7343521118164 454.0217590332031
v -216.28172302246094 -115.39073181152344 453.8761901855469
v -201.19740295410156 -114.64842224121094 452.7745361328125
v -199.5696563720703 -115.6600341796875 453.69610595703125
v -215.09742736816406 -116.96166229248047 452.84747314453125
v -197.64053344726562 -117.45658111572266 452.8511962890625
v -198.03057861328125 -116.79216003417969 454.5533752441406
v -195.0848846435547 -118.54041290283203 454.20196533203125
v -216.5463104248047 -118.68302917480469 454.40142822265625
v -217.04299926757812 -118.610107421875 455.1462097167969
v -216.8177032470703 -114.97565460205078 454.9922790527344
v -194.8111114501953 -119.07086181640625 453.2298889160156
v -190.952392578125 -120.0553970336914 454.0567932128906
v -215.3147430419922 -119.87480926513672 453.57806396484375
v -181.67529296875 -121.10525512695312 453.796142578125
v -181.49827575683594 -120.1904067993164 454.478759765625
v -179.88609313964844 -121.32703399658203 453.8301696777344
v -187.13768005371094 -121.29533386230469 453.3277282714844
v -184.30685424804688 -120.4876480102539 454.43218994140625
v -188.00506591796875 -120.4996109008789 454.220947265625
v -192.176513671875 -120.47784423828125 453.04852294921875
v -213.43789672851562 -121.39155578613281 452.77642822265625
v -184.66339111328125 -122.32677459716797 453.11309814453125
v -191.50070190429688 -121.88104248046875 452.42681884765625
v -212.8514404296875 -122.63794708251953 453.0466003417969
v -214.42208862304688 -122.77864074707031 454.4425964355469
v -215.30845642089844 -122.0648193359375 455.0118408203125
v -183.5379180908203 -123.60653686523438 453.3970642089844
v -181.21092224121094 -123.08275604248047 453.9694519042969
v -188.75257873535156 -123.60291290283203 452.5871887207031
v -211.01052856445312 -124.46399688720703 453.5822448730469
v -183.5222930908203 -124.99488830566406 454.2160949707031
v -184.96469116210938 -124.8027572631836 453.5953674316406
v -191.0692138671875 -124.62293243408203 452.51507568359375
v -206.86558532714844 -125.35198974609375 452.8523864746094
v -211.46444702148438 -124.92207336425781 454.9042663574219
v -213.44747924804688 -123.7969741821289 455.1350402832031
v -186.58021545410156 -126.09856414794922 454.18841552734375
v -192.0770721435547 -126.05664825439453 453.3006896972656
v -195.1422576904297 -126.74236297607422 453.2554626464844
v -199.27525329589844 -126.77400207519531 452.984130859375
v -206.1364288330078 -126.6586685180664 454.8023376464844
v -207.41786193847656 -125.921142578125 454.46563720703125
v -191.43826293945312 -126.78378295898438 454.61846923828125
v -187.3273468017578 -126.72830963134766 455.0308532714844
v -194.9937286376953 -127.15753936767578 454.4561462402344
v -201.5860137939453 -127.02847290039062 454.3128967285156
v -209.80633544921875 -104.91738891601562 454.1685791015625
v -211.88510131835938 -104.45620727539062 453.7777099609375
v -208.06809997558594 -106.59922790527344 454.247802734375
v -210.7229461669922 -106.50663757324219 454.8757629394531
v -208.60598754882812 -107.87944030761719 455.4502258300781
v -212.1654815673828 -107.09557342529297 454.76416015625
v -213.1531982421875 -107.11939239501953 454.0026550292969
v -206.43795776367188 -109.72046661376953 455.7073059082031
v -209.4268341064453 -108.67630767822266 456.05157470703125
v -212.610595703125 -109.24164581298828 455.9471130371094
v -214.0125732421875 -110.07779693603516 455.64996337890625
v -215.11317443847656 -112.3823013305664 456.0063171386719
v -204.5124053955078 -112.09264373779297 455.5562744140625
v -201.4158477783203 -114.67140197753906 454.87652587890625
v -215.82528686523438 -112.74752044677734 455.074951171875
v -197.7235107421875 -117.63729095458984 455.6454162597656
v -195.52499389648438 -118.4333724975586 455.1601867675781
v -217.01953125 -117.36451721191406 456.068115234375
v -179.12930297851562 -119.18233489990234 455.843017578125
v -177.56451416015625 -118.72181701660156 455.5534973144531
v -179.20550537109375 -119.41068267822266 455.131103515625
v -176.9638671875 -118.8351058959961 455.11297607421875
v -181.63079833984375 -119.54393768310547 455.6401672363281
v -190.71945190429688 -119.96569061279297 455.0976257324219
v -177.4766845703125 -119.57656860351562 454.67388916015625
v -178.2937469482422 -119.94793701171875 454.6512145996094
v -183.3687744140625 -120.11006164550781 455.5750732421875
v -187.4698028564453 -120.35313415527344 455.4269714355469
v -216.30682373046875 -120.10836029052734 455.4806823730469
v -216.60488891601562 -118.8482894897461 456.4318542480469
v -215.4568634033203 -122.17359924316406 456.0073547363281
v -180.5659942626953 -122.87036895751953 454.8045349121094
v -214.0397491455078 -123.53713989257812 455.8821105957031
v -182.69308471679688 -124.97715759277344 455.7077331542969
v -182.8245086669922 -125.07051086425781 456.9640197753906
v -211.5022430419922 -124.74043273925781 456.3843078613281
v -185.0398406982422 -126.57537841796875 455.96368408203125
v -207.77133178710938 -125.91617584228516 455.8543395996094
v -186.74655151367188 -126.94512939453125 456.2984619140625
v -196.0436553955078 -127.27369689941406 455.74200439453125
v -203.02349853515625 -126.99905395507812 455.5968017578125
v -205.6878662109375 -126.69920349121094 456.23675537109375
v -210.4931182861328 -111.50181579589844 457.38653564453125
v -208.19515991210938 -111.42528533935547 457.14459228515625
v -205.92347717285156 -112.25167083740234 456.61444091796875
v -213.7976531982422 -112.24330139160156 456.9008483886719
v -202.35096740722656 -114.79663848876953 455.8302001953125
v -206.99598693847656 -113.8016128540039 457.6330261230469
v -211.86106872558594 -113.54783630371094 458.34869384765625
v -203.4544677734375 -115.86748504638672 456.9526672363281
v -209.14779663085938 -114.202392578125 458.3199462890625
v -214.42933654785156 -114.4325180053711 457.956787109375
v -215.3794708251953 -115.06460571289062 457.56732177734375
v -216.39541625976562 -115.00953674316406 456.1756591796875
v -199.73765563964844 -116.95985412597656 456.0740661621094
v -216.18991088867188 -117.2475357055664 457.2343444824219
v -200.775390625 -117.77313995361328 456.96234130859375
v -205.38392639160156 -117.81195831298828 458.13262939453125
v -191.25177001953125 -120.27478790283203 456.37677001953125
v -195.28863525390625 -119.18424987792969 456.32440185546875
v -196.7425537109375 -119.855712890625 457.2637634277344
v -201.1666717529297 -119.24734497070312 457.6890869140625
v -181.52813720703125 -120.8707046508789 457.0481262207031
v -182.77511596679688 -120.39214324951172 456.7229919433594
v -188.2926025390625 -120.73869323730469 456.7357482910156
v -191.57601928710938 -121.1281509399414 457.4165954589844
v -203.18353271484375 -120.05632781982422 458.240234375
v -215.34278869628906 -121.81477355957031 456.78399658203125
v -179.81845092773438 -121.6839599609375 455.5728454589844
v -180.4936065673828 -121.42694091796875 456.5676574707031
v -182.89944458007812 -122.57209014892578 457.958740234375
v -184.26197814941406 -121.35243225097656 457.64788818359375
v -188.44544982910156 -121.47075653076172 457.7751159667969
v -197.07972717285156 -121.42526245117188 458.1836853027344
v -182.86732482910156 -124.63308715820312 457.6100769042969
v -192.00160217285156 -122.43275451660156 458.1810302734375
v -213.67172241210938 -123.3800048828125 456.8885192871094
v -209.10084533691406 -125.19332885742188 456.84368896484375
v -211.8267059326172 -123.59784698486328 457.7705078125
v -185.1184844970703 -126.49419403076172 457.3238220214844
v -203.3542022705078 -126.61543273925781 456.9219970703125
v -204.13510131835938 -125.84050750732422 457.8346252441406
v -206.2738037109375 -125.69623565673828 457.3221435546875
v -188.1015167236328 -126.78338623046875 457.1852111816406
v -192.1554412841797 -126.80487060546875 457.00390625
v -198.0680694580078 -126.84983825683594 457.0937194824219
v -210.9341583251953 -116.09123992919922 458.8863830566406
v -212.11888122558594 -117.52654266357422 459.00152587890625
v -214.69317626953125 -116.26361846923828 458.2696533203125
v -207.27613830566406 -119.1585464477539 458.7462158203125
v -208.522705078125 -120.56661224365234 458.99566650390625
v -213.15414428710938 -119.58448028564453 458.7362060546875
v -214.91558837890625 -119.2029037475586 457.9176025390625
v -203.95870971679688 -121.55791473388672 458.6163024902344
v -209.72767639160156 -121.6920394897461 458.9165954589844
v -186.42079162597656 -122.59727478027344 458.44366455078125
v -197.02554321289062 -122.84699249267578 458.6407165527344
v -205.71237182617188 -122.45683288574219 458.75396728515625
v -211.86570739746094 -121.91598510742188 458.53692626953125
v -213.64610290527344 -122.14734649658203 457.7936706542969
v -184.67959594726562 -124.01937103271484 458.4812927246094
v -187.357177734375 -123.7730712890625 458.69732666015625
v -191.56590270996094 -123.62841033935547 458.5031433105469
v -196.2178497314453 -124.03783416748047 458.7522888183594
v -203.15342712402344 -123.55574798583984 458.75537109375
v -207.67042541503906 -123.50064086914062 458.51641845703125
v -184.70687866210938 -125.39124298095703 458.091552734375
v -187.16595458984375 -125.04653930664062 458.5607604980469
v -192.00132751464844 -124.96221923828125 458.40948486328125
v -196.9479522705078 -125.2020492553711 458.5959777832031
v -203.708740234375 -124.81130981445312 458.4743347167969
v -207.92010498046875 -124.47406768798828 457.96612548828125
v -187.4213409423828 -126.06011962890625 458.06292724609375
v -196.7474365234375 -126.19156646728516 457.9479675292969
vn -0.02013462968170643 0.34105241298675537 -0.939828634262085
vn 0.21469950675964355 0.33793967962265015 -0.9163520336151123
vn -0.0038963593542575836 0.17644865810871124 -0.9843022227287292
vn -0.2317335605621338 0.13125531375408173 -0.963883638381958
vn 0.24130794405937195 0.17522582411766052 -0.9544980525970459
vn 0.37794575095176697 0.4125094413757324 -0.8288503885269165
vn 0.41216039657592773 0.33443063497543335 -0.8475139737129211
vn 0.11844610422849655 0.11314110457897186 -0.9864935874938965
vn -0.14712335169315338 -0.009823400527238846 -0.989069402217865
vn -0.3135546147823334 -0.008820255286991596 -0.949529230594635
vn -0.2751312255859375 -0.19680678844451904 -0.9410472512245178
vn 0.34429237246513367 0.03837119787931442 -0.9380781054496765
vn -0.01603068970143795 -0.1590384840965271 -0.9871422648429871
vn 0.21647799015045166 -0.3631006181240082 -0.906253457069397
vn -0.10818213224411011 -0.4915604293346405 -0.8640977740287781
vn -0.26573777198791504 -0.459322452545166 -0.8475885987281799
vn 0.07992176711559296 -0.6333112716674805 -0.7697592973709106
vn 0.06893596053123474 0.3564182221889496 -0.9317799806594849
vn 0.4180915355682373 0.3586823344230652 -0.8345935940742493
vn 0.0767962783575058 0.18066219985485077 -0.9805424809455872
vn -0.18070662021636963 0.13881583511829376 -0.9736915826797485
vn -0.6129085421562195 0.3322829306125641 -0.7168899774551392
vn -0.45485860109329224 0.17089124023914337 -0.8740136027336121
vn -0.8246124386787415 0.29390043020248413 -0.48336002230644226
vn 0.14916104078292847 0.2069648653268814 -0.9669108390808105
vn 0.46210214495658875 0.38684502243995667 -0.7980054020881653
vn -0.32475757598876953 0.046222787350416183 -0.9446671605110168
vn 0.5001828670501709 0.5046513080596924 -0.7036648988723755
vn 0.1170792430639267 0.34371814131736755 -0.9317458271980286
vn -0.01799924485385418 0.1838981956243515 -0.9827805161476135
vn -0.11103619635105133 0.09775113314390182 -0.9889973402023315
vn 0.34048864245414734 0.508648157119751 -0.7907872796058655
vn 0.5683183670043945 0.6309823393821716 -0.52808678150177
vn -0.17492303252220154 0.2073325514793396 -0.9625046849250793
vn -0.29824623465538025 0.06050579622387886 -0.952569305896759
vn 0.48632046580314636 0.5221399664878845 -0.7006157040596008
vn 0.4803084135055542 0.6003820896148682 -0.639410138130188
vn -0.3964685797691345 -0.02751893177628517 -0.9176357984542847
vn 0.48979902267456055 0.45779189467430115 -0.7419727444648743
vn -0.3621584475040436 -0.1292981654405594 -0.9231052398681641
vn -0.4610866606235504 -0.1765531748533249 -0.869613766670227
vn 0.4215640425682068 0.3217509388923645 -0.8477972149848938
vn -0.37238186597824097 -0.3287365138530731 -0.8679078221321106
vn 0.3916715085506439 -0.11587061733007431 -0.9127800464630127
vn 0.2829238176345825 0.03978491201996803 -0.9583169221878052
vn -0.3447379469871521 -0.5281157493591309 -0.7760473489761353
vn 0.27614888548851013 -0.34174031019210815 -0.8983069658279419
vn 0.2629210650920868 -0.5415459275245667 -0.7984989285469055
vn -0.05008973553776741 -0.7433161735534668 -0.6670623421669006
vn -0.20886549353599548 -0.7403097748756409 -0.6389966011047363
vn -0.3082578480243683 -0.6543750762939453 -0.6904856562614441
vn 0.10258428752422333 -0.7630090117454529 -0.6381956934928894
vn 0.25152090191841125 -0.6442288160324097 -0.7222925424575806
vn -0.07991486042737961 -0.8880752921104431 -0.45269840955734253
vn 0.7489762306213379 0.6281645894050598 0.21081732213497162
vn 0.6057918667793274 0.5538750290870667 -0.5711731910705566
vn 0.4189249277114868 0.5636541843414307 0.7118960022926331
vn -0.33522677421569824 0.8199612498283386 -0.46398991346359253
vn -0.9369609355926514 0.3388565182685852 0.08532600104808807
vn 0.6924223899841309 0.5487625598907471 -0.46841326355934143
vn -0.8967934846878052 0.4418943524360657 -0.02215437963604927
vn 0.7513627409934998 0.6212907433509827 0.22237782180309296
vn 0.8207487463951111 0.5546870827674866 -0.13672471046447754
vn 0.6997947096824646 0.5104107856750488 -0.4997681677341461
vn -0.5163576006889343 0.056803543120622635 -0.8544871211051941
vn -0.6791300773620605 0.1574573665857315 -0.716930627822876
vn -0.890811026096344 0.4385000169277191 0.11905228346586227
vn -0.8755677342414856 0.2770416736602783 -0.39576399326324463
vn 0.8470264077186584 0.5306874513626099 -0.03028472140431404
vn 0.7369459271430969 0.6375333070755005 -0.2246374785900116
vn 0.7567988634109497 0.5805674195289612 0.3003280460834503
vn 0.6748042106628418 0.7357562780380249 0.0574628971517086
vn -0.7649875283241272 0.06417455524206161 -0.6408398747444153
vn 0.6283297538757324 0.7331947088241577 -0.260052353143692
vn 0.6118456721305847 0.7908216714859009 -0.015683740377426147
vn -0.5787144899368286 -0.0657428726553917 -0.8128760457038879
vn 0.5535081624984741 0.7558107376098633 -0.3498270809650421
vn 0.5324094891548157 0.8339008092880249 0.1454288810491562
vn 0.4166457951068878 0.8963106870651245 -0.151767760515213
vn -0.7800520658493042 -0.24746134877204895 -0.5747014284133911
vn -0.9673206806182861 -0.17794615030288696 -0.18062633275985718
vn -0.9699934720993042 0.2321915477514267 -0.07210986316204071
vn 0.3958721160888672 0.7665178179740906 -0.5057031512260437
vn 0.24521438777446747 0.8739214539527893 -0.4196799099445343
vn -0.6386882662773132 -0.2868070602416992 -0.7140160799026489
vn 0.03983377292752266 0.5470792055130005 -0.8361325263977051
vn -0.06939401477575302 0.7460119128227234 -0.6623071432113647
vn 0.3575952351093292 -0.009570930153131485 -0.9338276386260986
vn 0.10125907510519028 0.653946578502655 -0.7497336268424988
vn -0.022638583555817604 0.880702793598175 -0.47312796115875244
vn 0.09947261214256287 0.9356332421302795 -0.3386676609516144
vn 0.28395313024520874 0.6292155385017395 -0.7235042452812195
vn -0.5155760049819946 -0.3383217453956604 -0.7872228622436523
vn 0.11459023505449295 0.18884848058223724 -0.9752976298332214
vn 0.20412111282348633 0.326111376285553 -0.9230309128761292
vn -0.43334195017814636 -0.5263538360595703 -0.7315506935119629
vn -0.6151742339134216 -0.603003203868866 -0.507885754108429
vn -0.7886062860488892 -0.5086514949798584 -0.3455049395561218
vn 0.22953279316425323 -0.2957545816898346 -0.9272777438163757
vn 0.5374642610549927 -0.605857253074646 -0.5865740776062012
vn 0.1533936709165573 -0.10670692473649979 -0.9823868870735168
vn -0.37570011615753174 -0.7653393745422363 -0.5225945115089417
vn 0.3912295401096344 -0.6936786770820618 -0.6047722101211548
vn 0.1943352073431015 -0.4615032970905304 -0.8655914664268494
vn 0.24381202459335327 -0.40611109137535095 -0.8806982636451721
vn -0.28475677967071533 -0.8168134093284607 -0.5017263293266296
vn -0.36447739601135254 -0.920464277267456 -0.14107373356819153
vn -0.513010561466217 -0.8322334885597229 -0.21025638282299042
vn 0.17231352627277374 -0.7463176250457764 -0.6428982019424438
vn 0.1898651421070099 -0.786514401435852 -0.5876617431640625
vn 0.12598983943462372 -0.8747155070304871 -0.4679736793041229
vn -0.002589675597846508 -0.9323199391365051 -0.36162519454956055
vn -0.2532823085784912 -0.940045177936554 -0.22839276492595673
vn -0.3264596462249756 -0.9019925594329834 -0.2825483977794647
vn 0.07519599050283432 -0.9365148544311523 -0.34246957302093506
vn 0.1262277513742447 -0.9242528676986694 -0.3603099584579468
vn 0.07213374972343445 -0.9636297821998596 -0.2573217451572418
vn -0.056911736726760864 -0.9836193919181824 -0.17103777825832367
vn 0.37454286217689514 0.46022629737854004 0.8049282431602478
vn -0.5053346157073975 0.2771831750869751 0.8171942234039307
vn 0.5259751081466675 0.5769924521446228 0.6248440146446228
vn -0.10064878314733505 0.409029483795166 0.9069535732269287
vn 0.24228160083293915 0.48288047313690186 0.84150230884552
vn -0.4169764220714569 0.45423296093940735 0.7872757911682129
vn -0.7395032644271851 0.4666525721549988 0.4851498305797577
vn 0.5023118257522583 0.48688074946403503 0.7145838141441345
vn 0.0855901762843132 0.4555094242095947 0.8861069679260254
vn -0.2909993529319763 0.4636600911617279 0.8368624448776245
vn -0.5827949047088623 0.4652310311794281 0.6662658452987671
vn -0.7027266025543213 0.42270031571388245 0.5722759962081909
vn 0.5781639814376831 0.4959947168827057 0.6478546261787415
vn 0.5640152096748352 0.6859040856361389 0.4598069489002228
vn -0.8945496678352356 0.3950076103210449 0.20916511118412018
vn 0.3722701370716095 0.717069149017334 0.5892594456672668
vn 0.36004701256752014 0.8720604777336121 0.33147650957107544
vn -0.9336682558059692 0.04182330518960953 0.35568881034851074
vn -0.14617876708507538 0.9191446900367737 0.36579346656799316
vn 0.1315847486257553 0.7488371133804321 0.6495602130889893
vn -0.16447898745536804 0.8204166889190674 -0.5475976467132568
vn 0.876857578754425 -0.4009941816329956 0.2651878297328949
vn -0.21803076565265656 0.9716325998306274 -0.09161153435707092
vn 0.20785321295261383 0.9751187562942505 0.07707539945840836
vn 0.26081737875938416 -0.6190634965896606 0.7407662868499756
vn 0.6979984641075134 -0.2508876919746399 -0.6707112789154053
vn -0.14639872312545776 0.9889659881591797 -0.02266388013958931
vn 0.0215426255017519 0.9997665882110596 -0.001673792372457683
vn -0.9138290882110596 -0.40408486127853394 -0.04039730131626129
vn -0.8467234969139099 -0.24456340074539185 0.47249141335487366
vn -0.826310932636261 -0.5567492246627808 0.08509141951799393
vn 0.743425726890564 -0.656836211681366 -0.12603341042995453
vn -0.6187160611152649 -0.7830479145050049 0.06345435976982117
vn 0.6058087944984436 -0.7762320041656494 -0.174526646733284
vn 0.6351993083953857 -0.7221643924713135 0.2738620638847351
vn -0.36707791686058044 -0.8848561644554138 0.2868506610393524
vn 0.3776034414768219 -0.9059638381004333 -0.1914295256137848
vn -0.3251223862171173 -0.9280341267585754 0.18179157376289368
vn 0.08181492984294891 -0.9962158799171448 0.029331061989068985
vn 0.011792977340519428 -0.997206449508667 0.07375800609588623
vn -0.06349380314350128 -0.9913399815559387 0.11495022475719452
vn -0.21498721837997437 -0.909765362739563 0.35511624813079834
vn -0.02432519756257534 0.4293135106563568 0.9028279185295105
vn 0.20798654854297638 0.38396984338760376 0.8996158838272095
vn 0.4190932512283325 0.38279080390930176 0.823305606842041
vn -0.4598645865917206 0.4434416592121124 0.7693400979042053
vn 0.4746023118495941 0.5116374492645264 0.7162261605262756
vn 0.30125105381011963 0.2898973822593689 0.9084092974662781
vn -0.1138797402381897 0.32496529817581177 0.9388445019721985
vn 0.32581499218940735 0.37829458713531494 0.8664513230323792
vn 0.17030654847621918 0.23823867738246918 0.9561579823493958
vn -0.40664398670196533 0.3533053398132324 0.8425058722496033
vn -0.6373369097709656 0.3181905746459961 0.7018237709999084
vn -0.8281803727149963 0.3045366704463959 0.4705047309398651
vn 0.3551568388938904 0.5828900933265686 0.7308233976364136
vn -0.7208311557769775 0.029283272102475166 0.692491888999939
vn 0.2434409111738205 0.45623978972435 0.8559099435806274
vn 0.22229941189289093 0.2325419783592224 0.9468407034873962
vn 0.17468862235546112 0.8530709147453308 0.49168485403060913
vn 0.23095005750656128 0.7489368915557861 0.6210923790931702
vn 0.19065214693546295 0.5635826587677002 0.8037577271461487
vn 0.17339590191841125 0.3687630295753479 0.9132074117660522
vn 0.17845207452774048 0.3973522186279297 0.9001477956771851
vn -0.08807635307312012 0.8042288422584534 0.5877572298049927
vn 0.010783416219055653 0.8881570100784302 0.45941364765167236
vn 0.07991354912519455 0.6512073278427124 0.7546806335449219
vn 0.13027800619602203 0.23913267254829407 0.9622074365615845
vn -0.726026713848114 -0.45096248388290405 0.5191513895988464
vn 0.7599349021911621 -0.580070972442627 0.29328611493110657
vn 0.5683003664016724 -0.22034861147403717 0.792768120765686
vn 0.3092145025730133 0.13223254680633545 0.9417542219161987
vn 0.04618014767765999 0.5936644673347473 0.8033865690231323
vn -0.008317655883729458 0.643721878528595 0.7652143836021423
vn 0.08724222332239151 0.38253793120384216 0.9198117256164551
vn 0.5660735964775085 -0.37737372517585754 0.7329050898551941
vn 0.02251530811190605 0.3522177040576935 0.9356472492218018
vn -0.49252089858055115 -0.6820664405822754 0.54056316614151
vn -0.23351183533668518 -0.8109453916549683 0.5365070700645447
vn -0.25000065565109253 -0.5708020925521851 0.7821027636528015
vn 0.26980194449424744 -0.8548768758773804 0.44316190481185913
vn -0.07341684401035309 -0.8958275318145752 0.4382956027984619
vn -0.11048261821269989 -0.674879789352417 0.7296100854873657
vn -0.24369877576828003 -0.7163013815879822 0.6538527011871338
vn 0.025458648800849915 -0.8956113457679749 0.44410839676856995
vn 0.003342899726703763 -0.8969828486442566 0.44205281138420105
vn -0.02859862893819809 -0.8888096809387207 0.45738324522972107
vn 0.05283490568399429 0.13452358543872833 0.9895008206367493
vn -0.11055423319339752 0.04723551496863365 0.9927470088005066
vn -0.40113532543182373 0.08241277933120728 0.9123039841651917
vn 0.14803384244441986 0.14042164385318756 0.9789626598358154
vn 0.05381183698773384 0.012698843143880367 0.9984703660011292
vn -0.295893132686615 -0.13646696507930756 0.9454227089881897
vn -0.5549687743186951 -0.17071187496185303 0.8141665458679199
vn 0.07117251306772232 0.1325269341468811 0.9886208176612854
vn -0.07766477018594742 -0.20088928937911987 0.9765304327011108
vn 0.037297360599040985 0.3160959482192993 0.9479938745498657
vn 0.04244814068078995 0.18752628564834595 0.9813419580459595
vn 0.01675845868885517 -0.07230890542268753 0.9972414970397949
vn -0.23297660052776337 -0.31566259264945984 0.919825553894043
vn -0.4324103593826294 -0.3705313801765442 0.8220266699790955
vn 0.20017223060131073 -0.0773114562034607 0.9767057299613953
vn 0.009342390112578869 0.023477915674448013 0.9996806979179382
vn -0.006849699188023806 0.12385345250368118 0.9922769069671631
vn 0.035635512322187424 0.022785168141126633 0.9991050958633423
vn -0.013442889787256718 -0.05735350772738457 0.9982634782791138
vn -0.09347855299711227 -0.3091324269771576 0.9464136958122253
vn 0.2861911356449127 -0.5104645490646362 0.8108764886856079
vn 0.05072859674692154 -0.27896955609321594 0.9589591026306152
vn 0.005854176357388496 -0.24959783256053925 0.9683319330215454
vn -0.00329196872189641 -0.35750019550323486 0.9339072704315186
vn -0.11045785993337631 -0.41014450788497925 0.905306875705719
vn -0.1749662160873413 -0.5916961431503296 0.7869450449943542
vn 0.03364841639995575 -0.6180804967880249 0.7853944301605225
vn -0.0024481548462063074 -0.6518821120262146 0.7583163380622864
f 1//1 2//2 3//3
f 1//1 3//3 4//4
f 5//5 6//6 7//7
f 6//6 5//5 2//2
f 2//2 5//5 8//8
f 3//3 2//2 8//8
f 4//4 3//3 9//9
f 9//9 10//10 4//4
f 3//3 8//8 9//9
f 11//11 10//10 9//9
f 7//7 12//12 5//5
f 5//5 12//12 13//13
f 8//8 5//5 13//13
f 9//9 8//8 13//13
f 13//13 11//11 9//9
f 13//13 12//12 14//14
f 15//15 13//13 14//14
f 16//16 13//13 15//15
f 11//11 13//13 16//16
f 15//15 14//14 17//17
f 18//18 19//19 20//20
f 18//18 20//20 21//21
f 22//22 18//18 23//23
f 23//23 18//18 21//21
f 23//23 24//24 22//22
f 25//25 19//19 26//26
f 19//19 25//25 20//20
f 27//27 23//23 21//21
f 26//26 28//28 29//29
f 26//26 29//29 25//25
f 25//25 29//29 30//30
f 20//20 25//25 31//31
f 31//31 25//25 30//30
f 21//21 20//20 31//31
f 28//28 32//32 29//29
f 31//31 27//27 21//21
f 32//32 28//28 33//33
f 1//1 29//29 32//32
f 1//1 34//34 29//29
f 34//34 30//30 29//29
f 31//31 30//30 34//34
f 35//35 27//27 31//31
f 32//32 33//33 36//36
f 32//32 36//36 6//6
f 32//32 6//6 2//2
f 1//1 32//32 2//2
f 1//1 4//4 34//34
f 35//35 34//34 4//4
f 31//31 34//34 35//35
f 36//36 33//33 37//37
f 35//35 4//4 10//10
f 10//10 38//38 35//35
f 36//36 37//37 39//39
f 36//36 39//39 7//7
f 36//36 7//7 6//6
f 40//40 38//38 10//10
f 10//10 11//11 40//40
f 41//41 38//38 40//40
f 7//7 42//42 12//12
f 7//7 39//39 42//42
f 11//11 43//43 40//40
f 41//41 40//40 43//43
f 44//44 42//42 45//45
f 12//12 44//44 14//14
f 12//12 42//42 44//44
f 16//16 43//43 11//11
f 46//46 43//43 16//16
f 44//44 47//47 48//48
f 14//14 44//44 48//48
f 48//48 17//17 14//14
f 17//17 49//49 15//15
f 49//49 50//50 15//15
f 16//16 15//15 50//50
f 16//16 50//50 51//51
f 46//46 16//16 51//51
f 52//52 47//47 53//53
f 48//48 47//47 52//52
f 17//17 48//48 52//52
f 49//49 17//17 52//52
f 54//54 49//49 52//52
f 50//50 49//49 54//54
f 55//55 56//56 57//57
f 18//18 58//58 56//56
f 58//58 57//57 56//56
f 22//22 58//58 18//18
f 58//58 22//22 59//59
f 60//60 56//56 55//55
f 19//19 56//56 60//60
f 18//18 56//56 19//19
f 59//59 22//22 24//24
f 59//59 24//24 61//61
f 55//55 62//62 60//60
f 60//60 26//26 19//19
f 62//62 63//63 60//60
f 60//60 63//63 64//64
f 60//60 64//64 26//26
f 23//23 27//27 65//65
f 24//24 23//23 66//66
f 66//66 23//23 65//65
f 67//67 61//61 24//24
f 67//67 24//24 68//68
f 68//68 24//24 66//66
f 69//69 64//64 63//63
f 26//26 64//64 28//28
f 70//70 71//71 72//72
f 69//69 71//71 70//70
f 64//64 69//69 70//70
f 64//64 70//70 28//28
f 65//65 27//27 38//38
f 68//68 66//66 73//73
f 73//73 66//66 65//65
f 74//74 72//72 75//75
f 70//70 72//72 74//74
f 70//70 74//74 33//33
f 70//70 33//33 28//28
f 27//27 35//35 38//38
f 65//65 38//38 76//76
f 73//73 65//65 76//76
f 77//77 78//78 79//79
f 75//75 78//78 77//77
f 33//33 77//77 37//37
f 33//33 74//74 77//77
f 74//74 75//75 77//77
f 73//73 76//76 80//80
f 81//81 82//82 73//73
f 80//80 81//81 73//73
f 83//83 79//79 84//84
f 77//77 79//79 83//83
f 77//77 83//83 37//37
f 76//76 38//38 41//41
f 85//85 76//76 41//41
f 85//85 80//80 76//76
f 86//86 87//87 88//88
f 86//86 89//89 90//90
f 87//87 86//86 90//90
f 90//90 89//89 91//91
f 89//89 92//92 84//84
f 91//91 89//89 84//84
f 84//84 92//92 83//83
f 37//37 83//83 92//92
f 85//85 41//41 93//93
f 89//89 86//86 94//94
f 94//94 86//86 88//88
f 95//95 89//89 94//94
f 92//92 89//89 95//95
f 42//42 92//92 95//95
f 37//37 92//92 42//42
f 39//39 37//37 42//42
f 43//43 93//93 41//41
f 43//43 96//96 93//93
f 85//85 93//93 97//97
f 97//97 93//93 96//96
f 98//98 80//80 85//85
f 97//97 98//98 85//85
f 94//94 88//88 99//99
f 99//99 88//88 100//100
f 101//101 94//94 99//99
f 95//95 94//94 101//101
f 45//45 95//95 101//101
f 42//42 95//95 45//45
f 46//46 96//96 43//43
f 46//46 51//51 96//96
f 51//51 102//102 96//96
f 97//97 96//96 102//102
f 103//103 99//99 100//100
f 103//103 104//104 99//99
f 101//101 99//99 104//104
f 105//105 101//101 104//104
f 45//45 101//101 105//105
f 47//47 105//105 53//53
f 47//47 45//45 105//105
f 44//44 45//45 47//47
f 50//50 106//106 51//51
f 106//106 102//102 51//51
f 107//107 108//108 102//102
f 97//97 102//102 108//108
f 109//109 104//104 103//103
f 104//104 109//109 105//105
f 110//110 105//105 109//109
f 53//53 105//105 110//110
f 53//53 111//111 52//52
f 110//110 111//111 53//53
f 111//111 112//112 52//52
f 52//52 112//112 54//54
f 54//54 113//113 50//50
f 113//113 114//114 106//106
f 113//113 106//106 50//50
f 102//102 106//106 114//114
f 107//107 102//102 114//114
f 115//115 109//109 116//116
f 110//110 109//109 115//115
f 117//117 110//110 115//115
f 111//111 110//110 117//117
f 112//112 111//111 117//117
f 118//118 112//112 117//117
f 54//54 112//112 118//118
f 113//113 54//54 118//118
f 57//57 119//119 55//55
f 58//58 120//120 57//57
f 58//58 59//59 120//120
f 55//55 119//119 121//121
f 57//57 122//122 119//119
f 120//120 122//122 57//57
f 119//119 123//123 121//121
f 122//122 123//123 119//119
f 120//120 124//124 122//122
f 59//59 125//125 120//120
f 120//120 125//125 124//124
f 59//59 61//61 125//125
f 62//62 55//55 121//121
f 62//62 121//121 126//126
f 126//126 121//121 123//123
f 122//122 127//127 123//123
f 122//122 124//124 128//128
f 62//62 71//71 63//63
f 71//71 62//62 126//126
f 128//128 124//124 129//129
f 124//124 125//125 129//129
f 61//61 67//67 125//125
f 125//125 67//67 129//129
f 63//63 71//71 69//69
f 129//129 67//67 130//130
f 71//71 131//131 132//132
f 72//72 71//71 132//132
f 126//126 131//131 71//71
f 67//67 133//133 130//130
f 133//133 67//67 68//68
f 75//75 72//72 132//132
f 82//82 133//133 68//68
f 132//132 78//78 75//75
f 68//68 73//73 82//82
f 78//78 134//134 135//135
f 79//79 78//78 135//135
f 132//132 134//134 78//78
f 82//82 81//81 136//136
f 137//137 138//138 139//139
f 139//139 138//138 140//140
f 139//139 141//141 137//137
f 79//79 135//135 142//142
f 84//84 79//79 142//142
f 140//140 144//144 143//143
f 144//144 139//139 140//140
f 87//87 144//144 88//88
f 87//87 139//139 144//144
f 141//141 139//139 87//87
f 141//141 87//87 145//145
f 87//87 90//90 145//145
f 91//91 146//146 90//90
f 90//90 146//146 145//145
f 84//84 142//142 91//91
f 91//91 142//142 146//146
f 81//81 147//147 148//148
f 81//81 80//80 147//147
f 80//80 98//98 147//147
f 147//147 98//98 149//149
f 88//88 144//144 150//150
f 100//100 88//88 150//150
f 98//98 151//151 149//149
f 97//97 151//151 98//98
f 152//152 150//150 153//153
f 100//100 150//150 152//152
f 152//152 103//103 100//100
f 108//108 107//107 154//154
f 108//108 154//154 151//151
f 151//151 97//97 108//108
f 155//155 103//103 152//152
f 103//103 155//155 109//109
f 109//109 155//155 116//116
f 113//113 156//156 114//114
f 107//107 114//114 156//156
f 116//116 155//155 157//157
f 115//115 116//116 157//157
f 117//117 115//115 158//158
f 115//115 157//157 158//158
f 118//118 117//117 158//158
f 118//118 158//158 159//159
f 113//113 118//118 159//159
f 113//113 159//159 160//160
f 127//127 122//122 161//161
f 122//122 128//128 161//161
f 123//123 162//162 126//126
f 123//123 127//127 162//162
f 126//126 162//162 163//163
f 161//161 162//162 127//127
f 128//128 129//129 164//164
f 129//129 130//130 164//164
f 131//131 165//165 132//132
f 165//165 131//131 163//163
f 131//131 126//126 163//163
f 162//162 166//166 163//163
f 167//167 162//162 161//161
f 161//161 128//128 167//167
f 164//164 167//167 128//128
f 163//163 168//168 165//165
f 166//166 168//168 163//163
f 162//162 169//169 166//166
f 167//167 169//169 162//162
f 164//164 170//170 167//167
f 170//170 164//164 171//171
f 164//164 130//130 171//171
f 133//133 82//82 172//172
f 133//133 172//172 130//130
f 130//130 172//172 171//171
f 132//132 165//165 173//173
f 173//173 165//165 168//168
f 171//171 172//172 174//174
f 82//82 136//136 172//172
f 134//134 132//132 173//173
f 168//168 175//175 173//173
f 176//176 168//168 166//166
f 136//136 174//174 172//172
f 135//135 177//177 142//142
f 177//177 135//135 178//178
f 135//135 134//134 178//178
f 178//178 134//134 179//179
f 173//173 179//179 134//134
f 175//175 179//179 173//173
f 168//168 180//180 175//175
f 176//176 180//180 168//168
f 148//148 174//174 136//136
f 136//136 81//81 148//148
f 181//181 138//138 137//137
f 141//141 145//145 182//182
f 141//141 182//182 137//137
f 137//137 182//182 181//181
f 145//145 146//146 183//183
f 182//182 145//145 183//183
f 146//146 142//142 183//183
f 183//183 142//142 177//177
f 178//178 184//184 177//177
f 179//179 184//184 178//178
f 175//175 180//180 179//179
f 176//176 185//185 180//180
f 147//147 186//186 148//148
f 144//144 140//140 187//187
f 138//138 188//188 140//140
f 188//188 187//187 140//140
f 189//189 188//188 181//181
f 188//188 138//138 181//181
f 190//190 181//181 182//182
f 183//183 190//190 182//182
f 191//191 190//190 183//183
f 177//177 184//184 183//183
f 184//184 191//191 183//183
f 192//192 184//184 179//179
f 180//180 192//192 179//179
f 185//185 192//192 180//180
f 149//149 186//186 147//147
f 144//144 187//187 150//150
f 193//193 188//188 189//189
f 187//187 188//188 193//193
f 184//184 194//194 191//191
f 192//192 194//194 184//184
f 149//149 151//151 186//186
f 151//151 195//195 186//186
f 187//187 153//153 150//150
f 187//187 193//193 153//153
f 154//154 196//196 197//197
f 151//151 154//154 195//195
f 154//154 197//197 195//195
f 155//155 152//152 153//153
f 198//198 155//155 153//153
f 160//160 199//199 200//200
f 200//200 201//201 160//160
f 160//160 156//156 113//113
f 160//160 201//201 156//156
f 156//156 201//201 196//196
f 196//196 154//154 156//156
f 107//107 156//156 154//154
f 157//157 155//155 198//198
f 157//157 198//198 202//202
f 157//157 202//202 203//203
f 158//158 157//157 203//203
f 158//158 203//203 204//204
f 159//159 158//158 204//204
f 159//159 204//204 199//199
f 199//199 160//160 159//159
f 167//167 205//205 169//169
f 167//167 206//206 205//205
f 170//170 207//207 167//167
f 207//207 206//206 167//167
f 170//170 171//171 207//207
f 171//171 174//174 207//207
f 169//169 208//208 176//176
f 166//166 169//169 176//176
f 205//205 208//208 169//169
f 205//205 209//209 208//208
f 206//206 209//209 205//205
f 207//207 210//210 206//206
f 211//211 210//210 207//207
f 174//174 148//148 211//211
f 207//207 174//174 211//211
f 185//185 176//176 208//208
f 185//185 208//208 212//212
f 212//212 208//208 209//209
f 206//206 213//213 209//209
f 210//210 213//213 206//206
f 148//148 186//186 211//211
f 181//181 190//190 189//189
f 189//189 190//190 214//214
f 190//190 191//191 214//214
f 191//191 194//194 214//214
f 192//192 185//185 212//212
f 215//215 192//192 212//212
f 209//209 216//216 212//212
f 213//213 216//216 209//209
f 210//210 217//217 213//213
f 218//218 217//217 210//210
f 186//186 218//218 211//211
f 211//211 218//218 210//210
f 219//219 193//193 189//189
f 214//214 219//219 189//189
f 220//220 219//219 214//214
f 194//194 221//221 214//214
f 214//214 221//221 220//220
f 221//221 194//194 222//222
f 194//194 192//192 215//215
f 194//194 215//215 222//222
f 223//223 222//222 215//215
f 212//212 223//223 215//215
f 216//216 223//223 212//212
f 224//224 223//223 216//216
f 213//213 224//224 216//216
f 217//217 197//197 213//213
f 197//197 224//224 213//213
f 218//218 197//197 217//217
f 186//186 195//195 218//218
f 219//219 225//225 193//193
f 220//220 226//226 219//219
f 226//226 225//225 219//219
f 221//221 227//227 220//220
f 227//227 226//226 220//220
f 222//222 227//227 221//221
f 228//228 227//227 222//222
f 223//223 228//228 222//222
f 229//229 228//228 223//223
f 224//224 229//229 223//223
f 230//230 229//229 224//224
f 197//197 196//196 230//230
f 197//197 230//230 224//224
f 218//218 195//195 197//197
f 225//225 153//153 193//193
f 198//198 153//153 225//225
f 226//226 231//231 225//225
f 231//231 198//198 225//225
f 227//227 231//231 226//226
f 232//232 231//231 227//227
f 228//228 232//232 227//227
f 229//229 200//200 228//228
f 200//200 232//232 228//228
f 201//201 200//200 229//229
f 230//230 201//201 229//229
f 196//196 201//201 230//230
f 202//202 198//198 231//231
f 203//203 202//202 231//231
f 232//232 203//203 231//231
f 204//204 203//203 232//232
f 200//200 204//204 232//232
f 199//199 204//204 200//200
