# Generated by Visualization Toolkit
v 36.293304443359375 -151.48495483398438 467.2377624511719
v 39.695587158203125 -151.08326721191406 465.8761901855469
v 37.9405517578125 -153.35299682617188 465.021484375
v 39.79508972167969 -155.2809600830078 465.7914733886719
v 41.76747131347656 -151.0498809814453 468.33013916015625
v 36.13525390625 -153.0928497314453 466.6113586425781
v 42.549224853515625 -153.9508514404297 470.0419616699219
v 36.19917297363281 -156.25404357910156 468.1758117675781
v 38.56437683105469 -158.60411071777344 470.3617248535156
v 39.561187744140625 -150.00186157226562 471.4224548339844
v 42.17877197265625 -152.57028198242188 473.8354187011719
v 33.98182678222656 -155.9782257080078 475.7025451660156
v 36.246063232421875 -159.17771911621094 472.9203186035156
v 38.58372497558594 -160.3535614013672 476.6794738769531
v 17.616500854492188 -179.67581176757812 471.4591369628906
v 14.01611328125 -179.3323516845703 475.0596008300781
v 17.836517333984375 -177.71566772460938 472.4964904785156
v 40.17266845703125 -152.03001403808594 476.1977844238281
v 36.49688720703125 -152.13174438476562 475.4983215332031
v 41.832916259765625 -155.12673950195312 474.6703796386719
v 14.8206787109375 -177.56915283203125 478.03497314453125
v 19.69818115234375 -180.82122802734375 474.15576171875
v 14.313705444335938 -182.22103881835938 473.84503173828125
v 15.163681030273438 -184.0614471435547 474.1610107421875
v 18.2734375 -183.1705780029297 474.3010559082031
v 3.840789794921875 -183.6356201171875 474.3810119628906
v 5.4196319580078125 -181.62913513183594 473.1809997558594
v 7.83026123046875 -184.7654571533203 473.3597717285156
v 39.917266845703125 -158.98341369628906 477.7044372558594
v 17.059173583984375 -177.4124298095703 478.68035888671875
v 19.52947998046875 -178.77651977539062 475.82373046875
v 6.317108154296875 -176.15745544433594 477.28167724609375
v 0.8040924072265625 -176.56063842773438 477.3258056640625
v 1.1669158935546875 -179.48336791992188 475.79193115234375
v 11.937286376953125 -180.78494262695312 474.7475891113281
v -0.4354248046875 -181.5365447998047 478.2642517089844
v 11.232086181640625 -184.263916015625 474.1661376953125
v 1.9982757568359375 -184.44845581054688 476.4917297363281
v 14.176773071289062 -186.30369567871094 475.81683349609375
v 15.648773193359375 -186.22470092773438 477.6700744628906
v 6.660247802734375 -186.47564697265625 475.4083251953125
v 9.404922485351562 -188.56759643554688 478.88067626953125
v 37.99168395996094 -154.05552673339844 479.2521057128906
v 39.669586181640625 -156.57972717285156 479.2186279296875
v 38.463134765625 -163.18777465820312 479.13946533203125
v 37.73310852050781 -160.46922302246094 479.21856689453125
v 10.067611694335938 -175.44635009765625 480.80645751953125
v -1.5577239990234375 -177.81602478027344 479.65399169921875
v 19.926162719726562 -181.01629638671875 481.9062805175781
v 18.930557250976562 -183.62644958496094 480.1734313964844
v 4.941192626953125 -186.76351928710938 478.84820556640625
v 37.60235595703125 -156.50901794433594 479.8594970703125
v 1.8708343505859375 -174.4840087890625 480.5934143066406
v 14.31842041015625 -186.70616149902344 482.4956970214844
v 1.5108642578125 -184.68162536621094 481.4744567871094
v 0.919219970703125 -172.2781219482422 488.5854797363281
v -1.6515655517578125 -175.1008758544922 481.8413391113281
v 17.941802978515625 -178.18162536621094 485.2259521484375
v 14.03515625 -176.18385314941406 483.18817138671875
v -2.226165771484375 -178.1077423095703 484.1664123535156
v 7.25128173828125 -174.28314208984375 487.2586669921875
v 0.1379241943359375 -182.0073699951172 486.2540283203125
v 18.14166259765625 -181.84225463867188 485.3811340332031
v 7.660858154296875 -187.28273010253906 483.2042236328125
v 3.985443115234375 -184.89866638183594 485.48431396484375
v -1.09063720703125 -172.8590850830078 489.5469970703125
v -1.957977294921875 -174.871826171875 487.78778076171875
v 12.12078857421875 -176.8731689453125 488.29290771484375
v 14.197311401367188 -184.98655700683594 485.5679931640625
v 8.828399658203125 -184.81344604492188 487.2474060058594
v 8.504257202148438 -175.3278350830078 490.23199462890625
v -0.36126708984375 -177.7510528564453 490.35302734375
v 15.659912109375 -179.8116912841797 487.64794921875
v 12.803802490234375 -181.70509338378906 488.6258850097656
v 3.9737548828125 -170.9122772216797 494.875244140625
v 1.5190277099609375 -169.73306274414062 493.0298767089844
v 8.941146850585938 -178.08920288085938 491.2863464355469
v 1.9843292236328125 -179.23023986816406 491.4320373535156
v 5.2042694091796875 -178.7815704345703 492.46795654296875
v 5.896392822265625 -173.30792236328125 492.5657043457031
v -0.448486328125 -171.35140991210938 494.0344543457031
v -1.544036865234375 -168.01217651367188 495.5230712890625
v -1.82989501953125 -165.2821044921875 494.7196350097656
v -0.6761322021484375 -169.19859313964844 493.66754150390625
v 5.447113037109375 -174.2924346923828 494.2936096191406
v 2.032806396484375 -171.78614807128906 496.1109924316406
v -0.2193756103515625 -164.24331665039062 497.617919921875
v 2.45184326171875 -168.46803283691406 497.5895080566406
v -0.5167236328125 -167.1217803955078 497.7334899902344
v -0.08587646484375 -153.47422790527344 509.98272705078125
v -0.08587646484375 -153.47422790527344 509.98272705078125
v -0.08587646484375 -153.47422790527344 509.98272705078125
v -0.08587646484375 -153.47422790527344 509.98272705078125
v -0.08587646484375 -153.47422790527344 509.98272705078125
v -0.08587646484375 -153.47422790527344 509.9827575683594
v -7.615264892578125 -145.94483947753906 527.0493774414062
v -7.6152801513671875 -145.94483947753906 527.0493774414062
v -7.615264892578125 -145.94483947753906 527.0493774414062
v -7.6152801513671875 -145.94483947753906 527.0493774414062
v -7.615264892578125 -145.94483947753906 527.0493774414062
v -9.121139526367188 -144.43896484375 528.0532836914062
v -9.121139526367188 -144.43896484375 528.0532836914062
v -9.12115478515625 -144.43896484375 528.0532836914062
v -9.12115478515625 -144.43896484375 528.0532836914062
v -7.615264892578125 -145.94483947753906 527.0493774414062
v -7.615264892578125 -145.94483947753906 527.0493774414062
v -7.6152801513671875 -145.94483947753906 527.0493774414062
v -9.121139526367188 -144.43896484375 528.0532836914062
v -7.6152801513671875 -145.94483947753906 527.0493774414062
v -9.121139526367188 -144.43896484375 528.0532836914062
v -7.615264892578125 -145.94483947753906 527.0493774414062
vn -0.6678454875946045 0.6675160527229309 -0.32924893498420715
vn 0.21627767384052277 0.6728915572166443 -0.7074185609817505
vn -0.37139275670051575 -0.004550416488200426 -0.9284647107124329
vn 0.4666631817817688 -0.42565101385116577 -0.775272011756897
vn 0.8292843103408813 0.47776535153388977 -0.2898756265640259
vn -0.8619306683540344 0.0009523870539851487 -0.5070253014564514
vn 0.9244312644004822 -0.3505205512046814 -0.15020719170570374
vn -0.6112849712371826 -0.5646274089813232 -0.5545508861541748
vn 0.201010063290596 -0.8843264579772949 -0.4213807284832001
vn 0.1040877178311348 0.9893024563789368 0.10220823436975479
vn 0.868702232837677 0.415386825799942 0.2698337137699127
vn -0.9821783304214478 0.024829136207699776 0.1863040328025818
vn -0.5143658518791199 -0.8243399858474731 -0.23641367256641388
vn 0.24538040161132812 -0.9033243060112 -0.3518434166908264
vn -0.007905473001301289 -0.1167815774679184 -0.9931261539459229
vn -0.5337955355644226 0.5603114366531372 -0.6333351731300354
vn 0.2330990582704544 0.860958993434906 -0.45212218165397644
vn 0.4980776906013489 0.6448484063148499 0.5797320604324341
vn -0.49039843678474426 0.8022170662879944 0.3405247926712036
vn 0.9342789649963379 -0.07199709117412567 0.34919801354408264
vn -0.11913339048624039 0.8969873189926147 -0.4257006347179413
vn 0.9400744438171387 -0.11576391756534576 -0.32071617245674133
vn -0.30262964963912964 0.06778955459594727 -0.9506944417953491
vn 0.017041681334376335 -0.48725995421409607 -0.8730906844139099
vn 0.5494236946105957 -0.6670319437980652 -0.5031918287277222
vn -0.5333712697029114 -0.3536088168621063 -0.7684242725372314
vn -0.16529956459999084 0.249171182513237 -0.954248309135437
vn 0.02989138476550579 -0.4247060716152191 -0.9048377275466919
vn 0.9202477335929871 -0.38820692896842957 0.04939126595854759
vn 0.3000810742378235 0.9487981200218201 -0.09865890443325043
vn 0.8166930079460144 0.5755588412284851 -0.04176817089319229
vn 0.08218429982662201 0.7811334133148193 -0.6189316511154175
vn -0.4034167230129242 0.6081280708312988 -0.6836923360824585
vn -0.6630282402038574 0.06393978744745255 -0.7458587288856506
vn -0.02276366576552391 0.4422382712364197 -0.8966087102890015
vn -0.8788581490516663 -0.35073286294937134 -0.32341131567955017
vn 0.05945282801985741 -0.16868449747562408 -0.9838754534721375
vn -0.6341310739517212 -0.6684054732322693 -0.3887311816215515
vn 0.23589803278446198 -0.7366222143173218 -0.6338294744491577
vn 0.4921552240848541 -0.8616359233856201 -0.12396296858787537
vn -0.3035089373588562 -0.7993894219398499 -0.5185160636901855
vn 0.03174879029393196 -0.9824239015579224 -0.18394368886947632
vn -0.1549282968044281 0.5483944416046143 0.8217425346374512
vn 0.6243420839309692 0.05136575549840927 0.7794604897499084
vn 0.5999908447265625 -0.6380779147148132 0.4825635850429535
vn -0.6206302046775818 -0.5410001277923584 0.5675711631774902
vn 0.1842300146818161 0.9522567391395569 -0.24344703555107117
vn -0.898947536945343 0.0955527275800705 -0.42750805616378784
vn 0.9829332232475281 -0.042705148458480835 0.17893727123737335
vn 0.7784820795059204 -0.6236719489097595 0.07070412486791611
vn -0.4413275420665741 -0.8943438529968262 -0.07334266602993011
vn -0.2660616338253021 0.056308045983314514 0.9623100161552429
vn -0.08074230700731277 0.925270676612854 -0.37061429023742676
vn 0.3762262165546417 -0.8695417046546936 0.3199235498905182
vn -0.6259830594062805 -0.7750641703605652 0.08614393323659897
vn 0.03353680297732353 0.9506867527961731 -0.30833426117897034
vn -0.7406536340713501 0.6082352995872498 -0.2854504883289337
vn 0.6930270791053772 0.6068602204322815 0.3891453444957733
vn 0.3344014286994934 0.9391252398490906 0.07886429876089096
vn -0.9788246750831604 -0.1997089833021164 0.04492864012718201
vn 0.455245703458786 0.890274703502655 0.012741086073219776
vn -0.733519434928894 -0.60990309715271 0.2999458611011505
vn 0.7033125162124634 -0.40155351161956787 0.5866057872772217
vn -0.20371316373348236 -0.9235440492630005 0.3249112665653229
vn -0.37025362253189087 -0.8082901835441589 0.4577983617782593
vn -0.7241091132164001 0.6460608243942261 -0.2413947582244873
vn -0.9878026247024536 0.11176183819770813 0.10842201858758926
vn 0.4923093616962433 0.7027497887611389 0.5135895013809204
vn 0.35291650891304016 -0.6970149278640747 0.6241955757141113
vn 0.016464119777083397 -0.7595833539962769 0.6502016186714172
vn 0.6856236457824707 0.6083048582077026 0.3998568058013916
vn -0.8107689619064331 -0.37966540455818176 0.4455423355102539
vn 0.5568689703941345 0.0952419713139534 0.8251218199729919
vn 0.35547131299972534 -0.42610809206962585 0.8319087028503418
vn 0.7814490795135498 0.617938220500946 -0.0865437462925911
vn 0.22844073176383972 0.6999955177307129 -0.6766248345375061
vn 0.5395225882530212 0.053080007433891296 0.8402963280677795
vn -0.4136935770511627 -0.603695809841156 0.6814756989479065
vn 0.12676593661308289 -0.49017006158828735 0.8623594045639038
vn 0.797632098197937 0.5467709898948669 0.2546063959598541
vn -0.8882309198379517 -0.264365017414093 0.3757087290287018
vn -0.9724541306495667 -0.21921947598457336 0.07922018319368362
vn -0.8924142718315125 0.28394031524658203 -0.3506775498390198
vn -0.8187422752380371 0.13682042062282562 -0.5576210618019104
vn 0.6916574239730835 0.048797156661748886 0.7205753326416016
vn -0.2100362777709961 -0.47306451201438904 0.855625331401825
vn 0.5331808924674988 0.8251568078994751 0.18664003908634186
vn 0.5289791822433472 0.035946909338235855 0.8478732109069824
vn -0.6140449643135071 -0.23614811897277832 0.7531154155731201
vn 0 -0 0
vn 0 -0 0
vn 0 -0 0
vn 0 -0 0
vn 0 -0 0
vn 0 -0 0
vn 0 -0 0
vn 0 -0 0
vn 0 -0 0
vn 0 -0 0
vn 0 -0 0
vn 0 -0 0
vn 0 -0 0
vn 0 -0 0
vn 0 -0 0
vn 0 -0 0
vn 0 -0 0
vn 0 -0 0
vn 0 -0 0
vn 0 -0 0
vn 0 -0 0
vn 0 -0 0
f 1//1 2//2 3//3
f 4//4 2//2 5//5
f 3//3 2//2 4//4
f 6//6 1//1 3//3
f 5//5 7//7 4//4
f 6//6 3//3 8//8
f 3//3 4//4 8//8
f 8//8 4//4 9//9
f 2//2 10//10 5//5
f 10//10 2//2 1//1
f 5//5 11//11 7//7
f 11//11 5//5 10//10
f 1//1 6//6 12//12
f 6//6 8//8 12//12
f 4//4 7//7 9//9
f 9//9 13//13 8//8
f 8//8 13//13 12//12
f 13//13 9//9 14//14
f 15//15 16//16 17//17
f 10//10 18//18 11//11
f 1//1 19//19 10//10
f 1//1 12//12 19//19
f 7//7 11//11 20//20
f 14//14 9//9 7//7
f 21//21 17//17 16//16
f 17//17 22//22 15//15
f 16//16 15//15 23//23
f 15//15 24//24 23//23
f 25//25 15//15 22//22
f 25//25 24//24 15//15
f 26//26 27//27 28//28
f 7//7 20//20 29//29
f 29//29 14//14 7//7
f 30//30 17//17 21//21
f 17//17 31//31 22//22
f 32//32 27//27 33//33
f 27//27 34//34 33//33
f 32//32 35//35 27//27
f 16//16 23//23 35//35
f 27//27 35//35 28//28
f 26//26 34//34 27//27
f 26//26 36//36 34//34
f 35//35 23//23 37//37
f 37//37 23//23 24//24
f 28//28 35//35 37//37
f 36//36 26//26 38//38
f 39//39 25//25 40//40
f 25//25 39//39 24//24
f 37//37 24//24 39//39
f 37//37 39//39 28//28
f 26//26 28//28 41//41
f 26//26 41//41 38//38
f 28//28 39//39 42//42
f 41//41 28//28 42//42
f 18//18 10//10 19//19
f 43//43 18//18 19//19
f 18//18 44//44 20//20
f 11//11 18//18 20//20
f 44//44 18//18 43//43
f 19//19 12//12 43//43
f 14//14 29//29 45//45
f 45//45 46//46 14//14
f 46//46 13//13 14//14
f 46//46 12//12 13//13
f 47//47 21//21 32//32
f 34//34 48//48 33//33
f 31//31 17//17 30//30
f 35//35 21//21 16//16
f 32//32 21//21 35//35
f 36//36 48//48 34//34
f 22//22 49//49 50//50
f 25//25 22//22 50//50
f 25//25 50//50 40//40
f 41//41 51//51 38//38
f 39//39 40//40 42//42
f 41//41 42//42 51//51
f 43//43 12//12 52//52
f 44//44 29//29 20//20
f 52//52 12//12 46//46
f 29//29 44//44 45//45
f 33//33 53//53 32//32
f 30//30 21//21 47//47
f 22//22 31//31 49//49
f 54//54 40//40 50//50
f 55//55 38//38 51//51
f 42//42 40//40 54//54
f 44//44 43//43 52//52
f 52//52 46//46 44//44
f 46//46 45//45 44//44
f 53//53 56//56 47//47
f 53//53 33//33 57//57
f 56//56 53//53 57//57
f 47//47 32//32 53//53
f 58//58 30//30 59//59
f 47//47 59//59 30//30
f 33//33 48//48 57//57
f 30//30 58//58 31//31
f 48//48 60//60 57//57
f 58//58 49//49 31//31
f 48//48 36//36 60//60
f 38//38 55//55 36//36
f 47//47 61//61 59//59
f 60//60 36//36 62//62
f 49//49 63//63 50//50
f 62//62 36//36 55//55
f 50//50 63//63 54//54
f 64//64 55//55 51//51
f 65//65 55//55 64//64
f 42//42 54//54 64//64
f 51//51 42//42 64//64
f 47//47 56//56 61//61
f 56//56 57//57 66//66
f 67//67 66//66 57//57
f 59//59 68//68 58//58
f 57//57 60//60 67//67
f 58//58 63//63 49//49
f 54//54 63//63 69//69
f 62//62 55//55 65//65
f 54//54 70//70 64//64
f 69//69 70//70 54//54
f 70//70 65//65 64//64
f 61//61 68//68 59//59
f 68//68 61//61 71//71
f 60//60 72//72 67//67
f 63//63 58//58 73//73
f 68//68 73//73 58//58
f 60//60 62//62 72//72
f 74//74 63//63 73//73
f 69//69 63//63 74//74
f 69//69 74//74 70//70
f 56//56 75//75 61//61
f 76//76 56//56 66//66
f 77//77 73//73 68//68
f 77//77 74//74 73//73
f 72//72 62//62 78//78
f 62//62 65//65 78//78
f 79//79 70//70 74//74
f 65//65 70//70 78//78
f 61//61 80//80 71//71
f 80//80 61//61 75//75
f 66//66 67//67 81//81
f 81//81 67//67 72//72
f 68//68 71//71 77//77
f 79//79 74//74 77//77
f 78//78 70//70 79//79
f 82//82 83//83 84//84
f 84//84 83//83 76//76
f 84//84 76//76 66//66
f 84//84 66//66 81//81
f 56//56 76//76 75//75
f 78//78 81//81 72//72
f 85//85 77//77 71//71
f 80//80 85//85 71//71
f 85//85 79//79 77//77
f 78//78 79//79 86//86
f 83//83 87//87 76//76
f 87//87 88//88 75//75
f 76//76 87//87 75//75
f 84//84 81//81 82//82
f 85//85 80//80 75//75
f 81//81 86//86 89//89
f 86//86 79//79 85//85
f 81//81 78//78 86//86
f 87//87 83//83 89//89
f 82//82 89//89 83//83
f 88//88 89//89 86//86
f 82//82 81//81 89//89
f 75//75 88//88 85//85
f 85//85 88//88 86//86
f 89//89 88//88 87//87
f 90//90 91//91 92//92
f 91//91 90//90 93//93
f 90//90 92//92 94//94
f 93//93 90//90 94//94
f 91//91 95//95 92//92
f 91//91 93//93 95//95
f 92//92 95//95 94//94
f 93//93 94//94 95//95
f 96//96 97//97 98//98
f 97//97 96//96 99//99
f 96//96 98//98 100//100
f 99//99 96//96 100//100
f 101//101 102//102 103//103
f 102//102 101//101 104//104
f 97//97 105//105 106//106
f 98//98 97//97 106//106
f 105//105 97//97 99//99
f 105//105 99//99 107//107
f 108//108 101//101 103//103
f 104//104 101//101 108//108
f 98//98 106//106 109//109
f 100//100 98//98 109//109
f 107//107 99//99 100//100
f 109//109 107//107 100//100
f 102//102 110//110 103//103
f 102//102 104//104 110//110
f 105//105 111//111 106//106
f 108//108 103//103 110//110
f 107//107 111//111 105//105
f 104//104 108//108 110//110
f 106//106 111//111 109//109
f 107//107 109//109 111//111
