# Generated by Visualization Toolkit
v -260.2522888183594 -259.7693786621094 346.74420166015625
v -259.8709716796875 -254.63726806640625 348.1615905761719
v -258.0205383300781 -258.325927734375 347.4482421875
v -263.83599853515625 -257.8147277832031 346.8793640136719
v -260.6280822753906 -260.918212890625 346.66461181640625
v -263.33538818359375 -260.5614013671875 346.9083557128906
v -265.15216064453125 -258.3765563964844 347.0787658691406
v -258.0440979003906 -261.740966796875 347.1378479003906
v -261.3189392089844 -262.2225646972656 347.07745361328125
v -258.6798095703125 -262.7019958496094 347.3502197265625
v -254.0476531982422 -253.0243377685547 349.0302734375
v -257.1097717285156 -253.04876708984375 348.7806701660156
v -256.6075744628906 -252.1158905029297 349.5422058105469
v -260.67327880859375 -252.76596069335938 349.2221374511719
v -252.8750457763672 -254.03933715820312 349.0877990722656
v -254.90423583984375 -254.62583923339844 348.1148986816406
v -263.28070068359375 -254.6661834716797 348.22564697265625
v -267.9603576660156 -253.808837890625 349.5803527832031
v -268.35845947265625 -254.87205505371094 348.69976806640625
v -269.4757385253906 -254.62257385253906 349.2367858886719
v -252.2247772216797 -257.0689392089844 349.4690246582031
v -253.8309326171875 -255.99029541015625 348.2488098144531
v -256.28497314453125 -257.43035888671875 347.4573059082031
v -267.360595703125 -255.8609161376953 348.2239685058594
v -265.0357360839844 -256.0279541015625 347.78228759765625
v -268.7537841796875 -256.456787109375 348.8526611328125
v -269.8044128417969 -254.65931701660156 349.7290344238281
v -253.4609832763672 -257.52392578125 348.714111328125
v -266.0882873535156 -257.5469665527344 347.7210388183594
v -269.7513122558594 -257.3367614746094 350.1014099121094
v -254.52932739257812 -261.0888671875 349.1759033203125
v -256.0897216796875 -260.0473937988281 347.9658203125
v -267.82391357421875 -258.8263244628906 349.055419921875
v -265.4036865234375 -260.7905578613281 348.2001647949219
v -267.8565673828125 -260.1887512207031 350.0561828613281
v -263.341064453125 -262.6307373046875 348.1343994140625
v -265.25830078125 -263.1100769042969 349.713134765625
v -266.6241455078125 -261.9804382324219 350.05059814453125
v -256.4979553222656 -263.6704406738281 349.13232421875
v -260.02398681640625 -264.73468017578125 348.83807373046875
v -261.56378173828125 -264.4176025390625 348.87445068359375
v -257.5196838378906 -264.9960632324219 349.94110107421875
v -258.4609680175781 -264.4254455566406 348.801513671875
v -263.4373779296875 -264.68780517578125 350.1815490722656
v -259.8238220214844 -265.5829162597656 350.3924560546875
v -252.72947692871094 -252.40249633789062 350.76995849609375
v -254.27357482910156 -251.02230834960938 351.2709045410156
v -250.89227294921875 -253.08432006835938 351.34576416015625
v -255.9313201904297 -250.6118621826172 351.2691650390625
v -262.176513671875 -251.03570556640625 351.2315368652344
v -267.2615051269531 -252.30226135253906 350.9565734863281
v -266.35968017578125 -251.22854614257812 351.41021728515625
v -251.7886962890625 -254.00428771972656 350.33465576171875
v -250.8538360595703 -255.2724151611328 350.87603759765625
v -268.45501708984375 -252.5717315673828 351.89617919921875
v -269.9549865722656 -254.5562286376953 351.14996337890625
v -270.1826171875 -256.32720947265625 351.52362060546875
v -250.08799743652344 -255.99002075195312 351.6666564941406
v -249.92657470703125 -257.2381896972656 352.35906982421875
v -252.1487274169922 -259.34332275390625 350.686279296875
v -268.90936279296875 -259.38909912109375 351.03411865234375
v -252.3704376220703 -260.5386657714844 351.7663879394531
v -267.8273620605469 -261.66796875 351.74322509765625
v -253.98434448242188 -262.2456970214844 352.6803283691406
v -256.0610656738281 -263.8562316894531 350.8921813964844
v -265.4750061035156 -263.84027099609375 350.861572265625
v -266.4017639160156 -263.439453125 351.81829833984375
v -257.53497314453125 -265.1146545410156 351.8750305175781
v -260.7168273925781 -265.3315124511719 349.870849609375
v -259.2245178222656 -265.7413635253906 351.9219055175781
v -263.23565673828125 -265.8443298339844 352.7346496582031
v -264.8020935058594 -265.0915832519531 352.1629638671875
v -251.92984008789062 -245.01318359375 353.3663330078125
v -253.7993927001953 -245.83795166015625 352.82464599609375
v -256.5216369628906 -244.3520050048828 353.46319580078125
v -258.4967956542969 -245.84548950195312 352.74652099609375
v -259.2225036621094 -245.12872314453125 353.13641357421875
v -249.62890625 -248.5050506591797 352.61602783203125
v -250.26406860351562 -246.21151733398438 353.31256103515625
v -248.42190551757812 -247.6683807373047 353.46197509765625
v -251.63461303710938 -247.45223999023438 352.6222229003906
v -253.93740844726562 -248.250732421875 352.32916259765625
v -260.9833984375 -248.11996459960938 352.4060363769531
v -261.2537536621094 -247.00717163085938 352.7155456542969
v -262.22576904296875 -246.0965576171875 353.5688781738281
v -264.9393005371094 -247.69680786132812 352.4683837890625
v -265.27398681640625 -247.0632781982422 353.0927429199219
v -266.4679870605469 -247.76925659179688 353.86309814453125
v -265.3984680175781 -246.76194763183594 354.41119384765625
v -266.80108642578125 -249.62466430664062 352.6056213378906
v -247.8752899169922 -251.36056518554688 352.5318603515625
v -247.04815673828125 -250.5297088623047 353.1778564453125
v -251.99081420898438 -250.28970336914062 351.9737854003906
v -255.29855346679688 -249.494140625 351.9880676269531
v -265.0197448730469 -250.0046844482422 351.7635803222656
v -267.47900390625 -249.67269897460938 353.9690856933594
v -246.40078735351562 -251.87493896484375 353.9594421386719
v -268.3255615234375 -251.15931701660156 354.196533203125
v -247.08445739746094 -253.8468475341797 353.3868408203125
v -249.62591552734375 -253.30859375 351.79638671875
v -269.1794128417969 -253.1337432861328 354.18817138671875
v -247.7794647216797 -255.52597045898438 353.7853088378906
v -269.9380798339844 -254.75843811035156 353.4855041503906
v -270.0870361328125 -257.0213317871094 353.2752990722656
v -248.225341796875 -256.8279724121094 354.6339111328125
v -269.669677734375 -259.0379943847656 352.53326416015625
v -249.7025909423828 -258.8645935058594 354.5395812988281
v -251.60093688964844 -260.610595703125 353.668212890625
v -268.9169616699219 -260.30621337890625 353.2001953125
v -269.4624328613281 -259.0744934082031 354.623046875
v -255.9585723876953 -263.71929931640625 353.85107421875
v -267.7218933105469 -262.35137939453125 353.3480529785156
v -257.1462707519531 -264.3505554199219 354.72503662109375
v -266.1228942871094 -264.1667175292969 353.84100341796875
v -261.955322265625 -266.031005859375 354.0416259765625
v -264.9691467285156 -265.4311828613281 354.6789855957031
v -251.35055541992188 -242.82373046875 356.37066650390625
v -253.45306396484375 -243.7672882080078 354.31591796875
v -253.64959716796875 -242.00856018066406 356.64276123046875
v -260.1455078125 -244.6223602294922 353.9403076171875
v -258.6706848144531 -241.98672485351562 356.88226318359375
v -261.4229736328125 -244.693115234375 354.6105041503906
v -260.5913391113281 -242.7444610595703 356.65203857421875
v -261.9284973144531 -244.0203857421875 356.0693054199219
v -249.7578125 -245.2942352294922 354.5431213378906
v -262.6355895996094 -244.98126220703125 356.08392333984375
v -247.7899932861328 -247.25132751464844 354.5022277832031
v -263.05609130859375 -245.75906372070312 354.7598571777344
v -265.7659912109375 -247.14736938476562 355.3790588378906
v -267.71978759765625 -250.24252319335938 355.924560546875
v -245.80813598632812 -248.20484924316406 356.39996337890625
v -244.90997314453125 -250.52781677246094 356.25689697265625
v -244.65603637695312 -252.60687255859375 356.5540466308594
v -268.8624572753906 -252.64837646484375 355.5947265625
v -269.59332275390625 -255.05345153808594 355.117919921875
v -269.653076171875 -257.2583923339844 355.1734619140625
v -268.9908142089844 -256.0637512207031 356.7673645019531
v -250.08993530273438 -259.4956359863281 355.6183776855469
v -251.17393493652344 -260.4621887207031 356.62078857421875
v -268.3603515625 -261.6521301269531 355.30633544921875
v -252.77792358398438 -261.4552307128906 354.92156982421875
v -266.47119140625 -263.7320861816406 356.0142822265625
v -258.9764099121094 -264.81634521484375 357.0189514160156
v -261.0185546875 -265.41326904296875 357.54046630859375
v -263.4205627441406 -265.7379150390625 355.7300720214844
v -256.4778137207031 -241.2350616455078 357.3898010253906
v -252.43553161621094 -240.59991455078125 357.5895690917969
v -249.74085998535156 -243.13323974609375 356.97412109375
v -250.43470764160156 -241.34144592285156 357.6027526855469
v -247.59317016601562 -243.6865692138672 357.6134948730469
v -260.0345458984375 -242.05111694335938 357.66033935546875
v -261.1689453125 -242.97264099121094 357.5924987792969
v -262.65570068359375 -245.07542419433594 357.3752746582031
v -246.71885681152344 -246.02207946777344 356.99090576171875
v -244.90443420410156 -246.94189453125 357.6336364746094
v -247.90530395507812 -245.88327026367188 355.98907470703125
v -263.8537292480469 -246.12648010253906 356.4002990722656
v -266.2893371582031 -248.2889862060547 356.96502685546875
v -244.034423828125 -249.38467407226562 357.4263610839844
v -267.2514953613281 -250.4857940673828 357.18780517578125
v -243.163818359375 -251.36839294433594 357.8127136230469
v -268.4448547363281 -252.92056274414062 356.9283447265625
v -245.1912841796875 -254.108154296875 356.5736999511719
v -244.29510498046875 -254.3070831298828 358.2506408691406
v -244.8074951171875 -255.338134765625 359.3920593261719
v -246.95834350585938 -256.8974304199219 358.2777404785156
v -268.6622619628906 -258.94342041015625 357.2741394042969
v -248.56423950195312 -257.9724426269531 359.20526123046875
v -268.2904968261719 -261.1120300292969 357.0525817871094
v -254.1253204345703 -261.8250732421875 358.789794921875
v -266.8699035644531 -262.8104553222656 357.27984619140625
v -256.3296813964844 -263.54443359375 359.2793884277344
v -264.8965148925781 -264.963623046875 356.5606384277344
v -250.73611450195312 -238.27098083496094 358.5842590332031
v -248.66285705566406 -237.2908935546875 359.59442138671875
v -247.04010009765625 -238.2310333251953 359.4388427734375
v -252.9722442626953 -237.0125274658203 359.320068359375
v -256.4270935058594 -238.33326721191406 358.52069091796875
v -255.2591552734375 -236.54100036621094 360.0223388671875
v -257.5927429199219 -238.0264129638672 359.1192321777344
v -247.81607055664062 -239.7800750732422 358.5966796875
v -245.3917694091797 -239.67034912109375 359.4151916503906
v -257.7198181152344 -240.45596313476562 357.83819580078125
v -258.69989013671875 -238.76736450195312 359.4226989746094
v -244.9423065185547 -242.30859375 358.74853515625
v -258.9734191894531 -240.76123046875 358.3756408691406
v -260.09234619140625 -242.18185424804688 359.5696716308594
v -259.1451110839844 -239.2790069580078 360.1526184082031
v -243.7832794189453 -241.07835388183594 359.7643737792969
v -242.0859375 -244.3431854248047 359.59661865234375
v -261.4072570800781 -243.8664093017578 358.9220886230469
v -241.88356018066406 -248.5514373779297 358.5404052734375
v -260.97515869140625 -245.48403930664062 359.87384033203125
v -262.19134521484375 -245.31918334960938 358.5278625488281
v -240.97702026367188 -247.4043426513672 359.38043212890625
v -262.28668212890625 -246.95913696289062 358.947265625
v -261.4175109863281 -249.01324462890625 359.44000244140625
v -263.5137023925781 -246.7715606689453 358.03472900390625
v -240.43919372558594 -249.8465118408203 359.78387451171875
v -262.28961181640625 -249.50289916992188 359.0564270019531
v -263.9756164550781 -248.83750915527344 358.62957763671875
v -266.0042724609375 -248.97984313964844 357.8412780761719
v -241.2726593017578 -250.88589477539062 358.938720703125
v -241.0008544921875 -252.5599822998047 359.6471252441406
v -266.350830078125 -253.8912353515625 358.74127197265625
v -267.24700927734375 -252.42587280273438 358.05133056640625
v -243.03060913085938 -252.8456573486328 358.3119812011719
v -263.49029541015625 -252.32518005371094 359.2582702636719
v -241.69158935546875 -253.4555206298828 360.1635437011719
v -242.99720764160156 -254.673828125 361.21630859375
v -266.74896240234375 -256.2288513183594 359.31097412109375
v -267.84222412109375 -257.0090637207031 358.54486083984375
v -267.5849914550781 -259.07354736328125 359.1169128417969
v -250.97044372558594 -259.5757751464844 360.37677001953125
v -252.6206817626953 -260.65386962890625 360.4207763671875
v -266.63873291015625 -261.1643981933594 359.5517883300781
v -265.00579833984375 -262.94500732421875 359.7131042480469
v -259.8197021484375 -264.640869140625 358.99847412109375
v -262.1150207519531 -264.91168212890625 358.9452819824219
v -263.4433898925781 -264.5156555175781 358.9627990722656
v -245.78089904785156 -236.13258361816406 362.27490234375
v -249.4423828125 -236.37643432617188 360.3692321777344
v -251.56138610839844 -236.08749389648438 360.4339294433594
v -253.5115203857422 -235.52488708496094 361.63446044921875
v -255.97909545898438 -236.12841796875 361.1434326171875
v -256.7452087402344 -236.48385620117188 361.50787353515625
v -257.8294372558594 -237.5946044921875 362.0890197753906
v -242.82086181640625 -238.5178985595703 362.27978515625
v -258.6629333496094 -239.3427734375 361.824951171875
v -259.38177490234375 -240.431396484375 361.02227783203125
v -240.93243408203125 -241.18211364746094 362.4529724121094
v -259.9164123535156 -243.885009765625 361.1791076660156
v -239.48072814941406 -243.77078247070312 363.1778869628906
v -258.6988830566406 -243.7543487548828 363.07611083984375
v -258.96392822265625 -247.73704528808594 362.49981689453125
v -239.09182739257812 -247.52691650390625 361.93572998046875
v -260.5077819824219 -249.2403106689453 360.5239562988281
v -238.4995574951172 -248.8065185546875 362.5755920410156
v -238.7565155029297 -250.46615600585938 362.417724609375
v -262.4651794433594 -252.52734375 360.2599182128906
v -239.44619750976562 -252.5023956298828 362.3613586425781
v -245.71226501464844 -256.4314270019531 361.6809997558594
v -265.50482177734375 -256.9312438964844 360.6265563964844
v -249.49496459960938 -258.0094299316406 361.28338623046875
v -265.7073974609375 -258.6669616699219 361.2030944824219
v -261.9825134277344 -256.8676452636719 363.8176574707031
v -266.0355224609375 -260.4591064453125 360.5063781738281
v -254.28916931152344 -260.81597900390625 362.6496276855469
v -255.69793701171875 -261.8781433105469 361.4737854003906
v -263.9931945800781 -262.2055358886719 361.4929504394531
v -257.7403869628906 -263.3854675292969 361.3020935058594
v -259.25738525390625 -263.5405578613281 361.5856628417969
v -260.9486083984375 -263.2629089355469 362.0173034667969
v -262.47015380859375 -262.86962890625 361.96282958984375
v -247.49354553222656 -233.60104370117188 364.4358825683594
v -250.07664489746094 -233.49388122558594 364.1961669921875
v -251.29794311523438 -234.1020965576172 363.48760986328125
v -241.94674682617188 -235.4708709716797 365.01080322265625
v -241.9333038330078 -237.51148986816406 363.3800354003906
v -253.75897216796875 -235.1458740234375 362.8063659667969
v -255.6293487548828 -235.89027404785156 362.94793701171875
v -256.56787109375 -236.6414794921875 363.75347900390625
v -238.95533752441406 -239.25537109375 364.4828796386719
v -257.45867919921875 -237.7323760986328 363.5123291015625
v -258.37603759765625 -240.7967987060547 363.0910949707031
v -259.0873107910156 -241.3386993408203 362.2236328125
v -237.9593505859375 -246.6057586669922 363.5504455566406
v -258.16412353515625 -248.5142059326172 363.40692138671875
v -259.2332458496094 -249.95916748046875 362.705078125
v -260.21356201171875 -252.8858184814453 363.2675476074219
v -239.96600341796875 -253.7520294189453 363.2440490722656
v -261.79254150390625 -255.46372985839844 363.24761962890625
v -244.1681671142578 -256.11541748046875 363.8585205078125
v -246.65216064453125 -256.73687744140625 363.4743957519531
v -249.28184509277344 -257.6700744628906 362.6320495605469
v -251.7109375 -259.2742919921875 362.87542724609375
v -263.24603271484375 -258.89276123046875 363.27276611328125
v -254.06936645507812 -259.9547424316406 363.97314453125
v -263.8860168457031 -260.4696044921875 362.5328063964844
v -262.0847473144531 -259.6764221191406 364.0242919921875
v -262.0680847167969 -261.2837219238281 363.5769958496094
v -255.41941833496094 -260.9557189941406 363.0568542480469
v -257.25152587890625 -261.7299499511719 363.0198974609375
v -260.2707824707031 -262.3131408691406 363.59637451171875
v -245.5415802001953 -232.49996948242188 367.1402893066406
v -244.0910186767578 -233.7316436767578 365.5527648925781
v -249.40306091308594 -232.8356475830078 365.7188720703125
v -251.64181518554688 -233.11383056640625 365.6268615722656
v -252.80142211914062 -234.20208740234375 364.8909912109375
v -239.1519317626953 -236.53817749023438 366.697509765625
v -239.1850128173828 -237.27972412109375 365.3267822265625
v -254.865966796875 -235.72332763671875 364.73834228515625
v -253.90016174316406 -235.14828491210938 366.22186279296875
v -255.26318359375 -236.83079528808594 365.8192138671875
v -256.81689453125 -238.4451141357422 364.7099609375
v -254.93939208984375 -238.2227325439453 366.4892272949219
v -238.1237335205078 -238.1068878173828 365.9078674316406
v -236.95252990722656 -241.82232666015625 365.41241455078125
v -257.0179748535156 -241.70504760742188 364.4363098144531
v -255.23936462402344 -243.36117553710938 365.32122802734375
v -236.5752716064453 -246.3550567626953 364.765380859375
v -235.75100708007812 -244.95169067382812 365.94171142578125
v -254.06080627441406 -245.68568420410156 365.6124572753906
v -255.7918701171875 -247.01510620117188 364.74725341796875
v -257.1829833984375 -247.04364013671875 364.1097412109375
v -235.93406677246094 -247.69082641601562 365.75958251953125
v -236.84652709960938 -248.91905212402344 364.54718017578125
v -254.74301147460938 -249.525634765625 364.84686279296875
v -252.59056091308594 -250.4078826904297 365.30242919921875
v -236.4200897216797 -250.99508666992188 365.91351318359375
v -256.6246032714844 -250.29530334472656 364.4754638671875
v -257.7994079589844 -250.08558654785156 364.0513000488281
v -252.89688110351562 -252.2906036376953 364.75115966796875
v -253.91201782226562 -253.12843322753906 364.3946533203125
v -256.91241455078125 -252.30718994140625 364.4438781738281
v -237.52243041992188 -252.82888793945312 365.599365234375
v -259.3419189453125 -253.26712036132812 364.0544738769531
v -237.67442321777344 -253.78579711914062 366.491455078125
v -239.00840759277344 -254.5277557373047 365.8829040527344
v -251.23623657226562 -255.44091796875 365.06103515625
v -254.8379364013672 -254.43824768066406 364.3115539550781
v -259.1310729980469 -255.51766967773438 364.5039367675781
v -241.04588317871094 -255.64678955078125 366.4467468261719
v -242.61517333984375 -256.3230285644531 366.6656188964844
v -247.90174865722656 -256.6711730957031 364.40447998046875
v -245.50741577148438 -256.43658447265625 365.4971923828125
v -246.2980194091797 -255.81968688964844 366.8247375488281
v -247.95993041992188 -255.48812866210938 366.2088623046875
v -249.21055603027344 -256.1515808105469 365.29296875
v -250.75830078125 -256.7221374511719 364.81011962890625
v -254.22154235839844 -258.4419250488281 364.620361328125
v -256.788818359375 -258.8459777832031 364.5113830566406
v -260.6539001464844 -256.5630187988281 364.3380126953125
v -250.3710174560547 -257.68359375 364.00799560546875
v -260.256103515625 -259.62738037109375 364.5144348144531
v -256.896240234375 -260.3546447753906 364.0797424316406
v -260.2730712890625 -261.1180725097656 364.1712341308594
v -243.17259216308594 -233.6023406982422 366.6831970214844
v -248.65577697753906 -232.2513427734375 367.7057800292969
v -252.80577087402344 -233.9198455810547 367.5539245605469
v -253.25521850585938 -234.92562866210938 368.9209899902344
v -254.06114196777344 -236.5775146484375 367.7630615234375
v -237.583251953125 -237.27252197265625 368.8232421875
v -236.36676025390625 -240.30474853515625 367.2281799316406
v -236.18507385253906 -241.87745666503906 366.3718566894531
v -254.30213928222656 -240.51515197753906 366.8244323730469
v -253.75303649902344 -243.2139129638672 366.5771179199219
v -250.5612030029297 -246.0711212158203 368.89501953125
v -252.0203399658203 -242.48973083496094 369.1212463378906
v -234.95652770996094 -245.9109649658203 367.6409606933594
v -251.90272521972656 -249.80189514160156 366.044677734375
v -234.83151245117188 -247.5269012451172 368.8836975097656
v -249.6844482421875 -250.90342712402344 367.9658508300781
v -250.19932556152344 -253.59996032714844 365.96441650390625
v -247.19476318359375 -252.44595336914062 369.49053955078125
v -237.7703094482422 -254.5792694091797 368.16717529296875
v -248.8445587158203 -254.2544403076172 366.6239929199219
v -240.24610900878906 -255.5825958251953 369.1392822265625
v -244.88003540039062 -254.69642639160156 369.6573791503906
v -243.04373168945312 -256.29656982421875 368.3977355957031
v -246.6470184326172 -231.4172821044922 370.75628662109375
v -246.5057830810547 -231.69178771972656 368.9633483886719
v -248.794677734375 -231.71351623535156 369.6032409667969
v -242.09573364257812 -233.4067840576172 369.473876953125
v -243.89474487304688 -231.86431884765625 371.1285705566406
v -249.88204956054688 -232.4632110595703 369.3195495605469
v -251.3319549560547 -233.5063934326172 369.7274169921875
v -253.12277221679688 -236.15771484375 369.58929443359375
v -236.2889404296875 -239.1513671875 369.08416748046875
v -252.8787384033203 -238.45089721679688 369.69403076171875
v -234.73048400878906 -241.41824340820312 370.1684875488281
v -234.75079345703125 -242.3827362060547 368.95574951171875
v -250.88404846191406 -243.15748596191406 369.7618713378906
v -234.1708984375 -243.87222290039062 370.5392150878906
v -248.0951690673828 -250.24928283691406 369.7205505371094
v -248.9915313720703 -247.09036254882812 369.7871398925781
v -235.35423278808594 -250.94493103027344 371.15576171875
v -236.30433654785156 -253.37945556640625 370.9326171875
v -237.8592529296875 -254.9853973388672 370.565673828125
v -243.5430908203125 -256.0124816894531 369.1963195800781
v -240.8822479248047 -255.22412109375 370.6716613769531
v -243.9134521484375 -231.68765258789062 372.6569519042969
v -247.79019165039062 -231.77963256835938 371.88995361328125
v -242.8074951171875 -232.50328063964844 372.08380126953125
v -240.77191162109375 -233.7982177734375 371.7161560058594
v -249.6992645263672 -233.95030212402344 372.0382385253906
v -238.4570770263672 -235.17759704589844 372.2976379394531
v -251.56138610839844 -234.65545654296875 370.485107421875
v -251.7807159423828 -237.40936279296875 370.7146301269531
v -249.2902069091797 -236.22610473632812 372.11541748046875
v -237.33969116210938 -236.38485717773438 372.2390441894531
v -250.55459594726562 -238.12648010253906 371.1067810058594
v -235.56655883789062 -239.58697509765625 371.6194152832031
v -234.71282958984375 -241.00509643554688 372.4963684082031
v -246.72149658203125 -242.7974395751953 371.6249084472656
v -248.10520935058594 -240.4188690185547 371.442138671875
v -249.4291229248047 -244.6404266357422 370.0587463378906
v -245.2801971435547 -247.97023010253906 371.96173095703125
v -234.0074920654297 -246.67791748046875 372.143310546875
v -234.64134216308594 -249.96414184570312 372.7579650878906
v -244.65933227539062 -252.65577697753906 370.93377685546875
v -241.43032836914062 -254.07815551757812 372.0794372558594
v -241.656982421875 -252.92327880859375 372.643310546875
v -236.6776885986328 -254.0482635498047 372.6030578613281
v -242.4635772705078 -254.61199951171875 370.9846496582031
v -238.83753967285156 -255.10269165039062 371.5214538574219
v -244.86856079101562 -231.5522003173828 373.0820007324219
v -245.634033203125 -231.79986572265625 373.6314392089844
v -242.19386291503906 -233.09986877441406 374.6956481933594
v -240.7945098876953 -233.6856689453125 373.5075378417969
v -243.93017578125 -232.1683349609375 373.96533203125
v -246.96311950683594 -232.55897521972656 373.54229736328125
v -248.14886474609375 -233.6833953857422 373.1094055175781
v -248.26339721679688 -235.23526000976562 372.9994812011719
v -238.6608123779297 -235.01141357421875 374.2667236328125
v -246.13124084472656 -240.4696807861328 372.63555908203125
v -236.4268035888672 -237.8787384033203 373.8905029296875
v -235.3049774169922 -240.22813415527344 373.6440734863281
v -234.5552978515625 -242.36898803710938 374.5773620605469
v -233.9907989501953 -244.07716369628906 372.9295959472656
v -243.5198211669922 -246.51539611816406 373.5943603515625
v -234.03627014160156 -247.70010375976562 374.2314758300781
v -234.6470184326172 -250.2597198486328 374.38519287109375
v -243.62423706054688 -250.28123474121094 372.4780578613281
v -239.9480438232422 -253.30760192871094 373.826171875
v -239.92921447753906 -254.34767150878906 372.6824035644531
v -238.7269744873047 -254.49375915527344 373.46051025390625
v -237.51918029785156 -254.6388397216797 372.939697265625
v -243.41722106933594 -232.98724365234375 375.71875
v -245.31764221191406 -232.7027587890625 374.8907165527344
v -245.94204711914062 -233.60635375976562 375.2297058105469
v -239.6974334716797 -234.76577758789062 375.2671813964844
v -245.4327392578125 -234.51174926757812 375.81939697265625
v -238.32861328125 -236.42657470703125 375.74249267578125
v -237.45120239257812 -236.5890350341797 374.6684875488281
v -245.3038787841797 -236.45443725585938 375.38043212890625
v -236.52732849121094 -238.5759735107422 375.2029113769531
v -243.64224243164062 -240.40087890625 375.2073974609375
v -235.70448303222656 -241.01922607421875 375.446044921875
v -243.41273498535156 -243.200439453125 374.4273681640625
v -241.62660217285156 -244.98483276367188 375.1839599609375
v -235.26138305664062 -243.5299530029297 375.9375305175781
v -234.2857666015625 -246.7071075439453 375.2742614746094
v -234.57003784179688 -249.32350158691406 375.582275390625
v -239.45111083984375 -250.4186248779297 375.77392578125
v -239.05455017089844 -251.35107421875 375.69622802734375
v -236.55162048339844 -252.31268310546875 375.6343078613281
v -235.62266540527344 -251.66651916503906 375.1571044921875
v -237.96255493164062 -252.34353637695312 375.5952453613281
v -242.43663024902344 -234.00709533691406 376.03302001953125
v -244.07627868652344 -233.36422729492188 376.1270446777344
v -240.33224487304688 -235.83653259277344 376.3183288574219
v -243.55921936035156 -234.69139099121094 376.4459228515625
v -242.27198791503906 -236.78314208984375 376.6763610839844
v -241.2542266845703 -237.0076446533203 376.7481689453125
v -243.72683715820312 -236.48280334472656 376.30157470703125
v -237.3845977783203 -239.2612762451172 376.22711181640625
v -239.4186248779297 -238.07257080078125 376.6315612792969
v -239.4385986328125 -239.96080017089844 376.76617431640625
v -238.1699981689453 -240.64244079589844 376.681640625
v -240.70118713378906 -239.69491577148438 376.6315612792969
v -242.30943298339844 -239.3224639892578 376.2293395996094
v -236.31773376464844 -242.6376495361328 376.3801574707031
v -238.15187072753906 -243.94277954101562 376.634033203125
v -239.70553588867188 -244.65391540527344 376.1227111816406
v -236.62550354003906 -244.60635375976562 376.6694641113281
v -235.06109619140625 -247.17861938476562 376.27197265625
v -235.17576599121094 -249.8915252685547 376.1647644042969
v -236.3151092529297 -249.48617553710938 376.69427490234375
v -237.4227752685547 -249.81143188476562 376.6215515136719
vn 0.1358688920736313 0.13622532784938812 -0.9813166856765747
vn 0.004481947515159845 0.3315005898475647 -0.9434443712234497
vn 0.15070921182632446 0.08047085255384445 -0.9852975010871887
vn -0.071698397397995 0.19766166806221008 -0.9776447415351868
vn 0.016928013414144516 -0.1328529268503189 -0.9909911751747131
vn -0.2727428078651428 -0.27133527398109436 -0.923032283782959
vn -0.410970538854599 -0.02520384080708027 -0.9113001823425293
vn 0.3434612452983856 -0.1665816754102707 -0.9242753982543945
vn -0.14506007730960846 -0.4825904965400696 -0.8637499809265137
vn 0.17015738785266876 -0.4866349399089813 -0.8568739295005798
vn 0.2690202593803406 0.5924851894378662 -0.759334921836853
vn 0.0005657565197907388 0.5185167789459229 -0.8550673127174377
vn 0.03602529317140579 0.7060586214065552 -0.7072365283966064
vn -0.07691669464111328 0.6086699962615967 -0.7896865010261536
vn 0.5780203938484192 0.2959001362323761 -0.7604837417602539
vn 0.17052726447582245 0.2918701767921448 -0.9411334991455078
vn -0.08349969238042831 0.4805610477924347 -0.872977077960968
vn -0.2642199695110321 0.7312219738960266 -0.6288896799087524
vn -0.2633092999458313 0.36246615648269653 -0.8940283060073853
vn -0.5588233470916748 0.41123539209365845 -0.7201402187347412
vn 0.673175036907196 -0.149945929646492 -0.7241212725639343
vn 0.4402729868888855 -0.016206324100494385 -0.8977177143096924
vn 0.13333268463611603 0.03237294405698776 -0.990542471408844
vn -0.25218772888183594 0.19573484361171722 -0.9476757049560547
vn -0.2045609951019287 0.3224784731864929 -0.9242090582847595
vn -0.5713372826576233 -0.12705034017562866 -0.8108218312263489
vn -0.8496474623680115 0.33731377124786377 -0.40536242723464966
vn 0.507501482963562 -0.20434430241584778 -0.8370696902275085
vn -0.40888914465904236 0.02433723397552967 -0.9122594594955444
vn -0.8404228687286377 -0.29628127813339233 -0.45376965403556824
vn 0.6077187061309814 -0.3666234314441681 -0.7044609785079956
vn 0.3771197497844696 -0.14615260064601898 -0.9145601391792297
vn -0.622942328453064 -0.3300885260105133 -0.7092139720916748
vn -0.5299439430236816 -0.42534923553466797 -0.7336467504501343
vn -0.7045460939407349 -0.45443055033683777 -0.5450758337974548
vn -0.38040855526924133 -0.5568224787712097 -0.7384024262428284
vn -0.5075299739837646 -0.5913193225860596 -0.6267015933990479
vn -0.662395179271698 -0.5386306047439575 -0.5206819772720337
vn 0.5570583939552307 -0.5952150225639343 -0.5791416168212891
vn -0.007457357831299305 -0.7449594140052795 -0.6670681238174438
vn -0.24786028265953064 -0.7003223896026611 -0.6694130897521973
vn 0.4161688983440399 -0.8595602512359619 -0.2965796887874603
vn 0.22312229871749878 -0.7323031425476074 -0.6433883905410767
vn -0.36067670583724976 -0.7703971862792969 -0.5257381200790405
vn 0.06012396514415741 -0.9461206793785095 -0.318183571100235
vn 0.49637746810913086 0.5978829264640808 -0.629400908946991
vn 0.23746584355831146 0.6047401428222656 -0.7601969242095947
vn 0.4194968044757843 0.3710189163684845 -0.828472912311554
vn 0.05508950352668762 0.6374495029449463 -0.7685202360153198
vn -0.06786295026540756 0.594088613986969 -0.8015318512916565
vn -0.3353583812713623 0.6539970636367798 -0.6781022548675537
vn -0.28976908326148987 0.5006587505340576 -0.8157050609588623
vn 0.62040114402771 0.3612770736217499 -0.6961188316345215
vn 0.6480047702789307 0.1024569720029831 -0.7547134757041931
vn -0.7006773948669434 0.604618489742279 -0.3787976801395416
vn -0.91832435131073 0.3918127417564392 -0.056241728365421295
vn -0.9969329833984375 -0.031561389565467834 -0.07161320745944977
vn 0.6791827082633972 -0.18353170156478882 -0.7106525301933289
vn 0.7377545237541199 -0.35844847559928894 -0.5720428824424744
vn 0.7300336360931396 -0.42563265562057495 -0.5346847176551819
vn -0.7862008810043335 -0.49108096957206726 -0.37513694167137146
vn 0.7068269848823547 -0.6172882914543152 -0.34547188878059387
vn -0.7867547869682312 -0.5356448292732239 -0.30675971508026123
vn 0.616637647151947 -0.78195720911026 -0.09110969305038452
vn 0.6442323923110962 -0.7609829306602478 -0.07661402970552444
vn -0.6005684733390808 -0.6923754215240479 -0.3999171853065491
vn -0.6945973634719849 -0.6637048721313477 -0.27754366397857666
vn 0.49985411763191223 -0.863502025604248 0.06715774536132812
vn -0.1541297882795334 -0.8772438764572144 -0.45462870597839355
vn 0.2424643188714981 -0.9700694680213928 0.013279466889798641
vn -0.20775693655014038 -0.9607938528060913 -0.18360914289951324
vn -0.5269794464111328 -0.8015257120132446 -0.28257620334625244
vn 0.2290731519460678 0.5678278207778931 -0.7906308174133301
vn 0.05524629354476929 0.32010623812675476 -0.9457694292068481
vn -0.021752292290329933 0.6597983241081238 -0.7511278986930847
vn -0.03960282355546951 0.30889782309532166 -0.9502703547477722
vn -0.18038107454776764 0.5449486970901489 -0.8188368082046509
vn 0.23675145208835602 0.25408193469047546 -0.9377585649490356
vn 0.34033435583114624 0.4528147280216217 -0.824094295501709
vn 0.5041376352310181 0.42305293679237366 -0.7529087066650391
vn 0.10903867334127426 0.2546082139015198 -0.9608773589134216
vn 0.021850092336535454 0.20761755108833313 -0.9779660701751709
vn -0.011792927049100399 0.25834304094314575 -0.9659813046455383
vn -0.11502307653427124 0.4080300033092499 -0.905693769454956
vn -0.2801756262779236 0.7188263535499573 -0.6362313628196716
vn -0.1759302020072937 0.4525754153728485 -0.8741991519927979
vn -0.4570869505405426 0.7106792330741882 -0.534795880317688
vn -0.7832514643669128 0.5976830124855042 -0.17114968597888947
vn -0.4781285226345062 0.8689113259315491 -0.12800894677639008
vn -0.5745178461074829 0.467067152261734 -0.6721439957618713
vn 0.5001429319381714 0.07919533550739288 -0.8623138070106506
vn 0.7075983285903931 0.23517227172851562 -0.6663321852684021
vn 0.16376808285713196 0.2871473729610443 -0.9437830448150635
vn 0.0375155508518219 0.37748995423316956 -0.9252534508705139
vn -0.11274626851081848 0.3726366460323334 -0.9211027026176453
vn -0.8563892245292664 0.4808734655380249 -0.18803785741329193
vn 0.7711246609687805 -0.031745545566082 -0.6358923316001892
vn -0.8989742398262024 0.43583905696868896 -0.0434701181948185
vn 0.7002274990081787 -0.21644580364227295 -0.6803180575370789
vn 0.412100613117218 0.08983911573886871 -0.9066984057426453
vn -0.9125432372093201 0.40751275420188904 0.034615516662597656
vn 0.7233681082725525 -0.44978877902030945 -0.523859441280365
vn -0.9731006622314453 0.1951393187046051 0.12245689332485199
vn -0.9881633520126343 -0.07688656449317932 0.1327465921640396
vn 0.7359038591384888 -0.5618106126785278 -0.37790799140930176
vn -0.9214867353439331 -0.37723714113235474 -0.09248951077461243
vn 0.7374352216720581 -0.6221866607666016 -0.2628175616264343
vn 0.6413457989692688 -0.7536662817001343 -0.1437452882528305
vn -0.8617897033691406 -0.4955786168575287 -0.10826034098863602
vn -0.9410334229469299 -0.2985512614250183 0.15913285315036774
vn 0.5494067668914795 -0.8351044654846191 0.027435893192887306
vn -0.7849984765052795 -0.6111240386962891 -0.10151313990354538
vn 0.49956437945365906 -0.861260175704956 0.0930933952331543
vn -0.7059629559516907 -0.698428750038147 -0.11753134429454803
vn 0.0074160778895020485 -0.999849259853363 0.01570168510079384
vn -0.5213375091552734 -0.8526990413665771 0.03334233537316322
vn 0.3206023573875427 0.637514591217041 -0.7005636096000671
vn 0.13935211300849915 0.7587706446647644 -0.6362767219543457
vn 0.03295072913169861 0.7000319957733154 -0.7133509516716003
vn -0.2571023106575012 0.7295135855674744 -0.6338046193122864
vn -0.1952221840620041 0.7309039235115051 -0.6539632081985474
vn -0.49679020047187805 0.701270341873169 -0.511292040348053
vn -0.4414615035057068 0.7911798357963562 -0.4232568144798279
vn -0.7146469950675964 0.657731294631958 -0.23805324733257294
vn 0.5169734954833984 0.6363660097122192 -0.5725178122520447
vn -0.706587016582489 0.6837553381919861 -0.18224570155143738
vn 0.6650350093841553 0.5113499164581299 -0.5442883968353271
vn -0.5014410018920898 0.81187504529953 -0.2990248501300812
vn -0.7031974196434021 0.6930138468742371 0.15888774394989014
vn -0.8669014573097229 0.4580085873603821 0.19674868881702423
vn 0.6555270552635193 0.38921716809272766 -0.6471432447433472
vn 0.7453116178512573 0.14349301159381866 -0.6510916948318481
vn 0.7620342373847961 -0.14097677171230316 -0.6320043206214905
vn -0.9218932390213013 0.33461764454841614 0.19530463218688965
vn -0.9489009976387024 0.15079344809055328 0.27721524238586426
vn -0.9519997835159302 -0.06367415189743042 0.29940295219421387
vn -0.884792685508728 0.049695536494255066 0.463327556848526
vn 0.6671664714813232 -0.7432997822761536 -0.04893297702074051
vn 0.5722558498382568 -0.8172122836112976 0.06846471130847931
vn -0.8694976568222046 -0.48302608728408813 0.10324573516845703
vn 0.563789427280426 -0.8252259492874146 0.03381873294711113
vn -0.7215214371681213 -0.6809476017951965 0.12536805868148804
vn 0.34555816650390625 -0.9233352541923523 0.1674565225839615
vn 0.1447458118200302 -0.9627600312232971 0.22834573686122894
vn -0.19481445848941803 -0.9591572284698486 0.2050969898700714
vn -0.03749830275774002 0.4966870844364166 -0.8671192526817322
vn 0.05918169021606445 0.4561523199081421 -0.8879317045211792
vn 0.4132974147796631 0.47307485342025757 -0.7780652642250061
vn 0.24489648640155792 0.38595789670944214 -0.8894167542457581
vn 0.32677748799324036 0.3202823996543884 -0.8891769647598267
vn -0.5702362060546875 0.7815660238265991 -0.2529529929161072
vn -0.7355222105979919 0.6772990822792053 0.016524076461791992
vn -0.7966762185096741 0.5633498430252075 0.21896126866340637
vn 0.5023117065429688 0.4411797821521759 -0.7436688542366028
vn 0.4421975314617157 0.29315185546875 -0.8476576209068298
vn 0.5785974860191345 0.5755876302719116 -0.577861487865448
vn -0.6198905110359192 0.7669377326965332 0.16595891118049622
vn -0.702560305595398 0.5780085325241089 0.41510868072509766
vn 0.5612769722938538 0.19781191647052765 -0.8036409020423889
vn -0.7742862105369568 0.3497914969921112 0.5273772478103638
vn 0.6061578989028931 -0.03954751417040825 -0.7943605780601501
vn -0.8377554416656494 0.23908384144306183 0.49092239141464233
vn 0.7496845722198486 -0.4111941456794739 -0.5185484290122986
vn 0.6657413840293884 -0.6170262098312378 -0.4196036159992218
vn 0.6217359900474548 -0.7446033358573914 -0.24292048811912537
vn 0.6553228497505188 -0.7436535358428955 -0.1324063092470169
vn -0.9160504937171936 -0.1268930584192276 0.3804597556591034
vn 0.5702160000801086 -0.8151299357414246 0.10206331312656403
vn -0.8532538414001465 -0.3672698438167572 0.3702305853366852
vn 0.5181382298469543 -0.8305520415306091 0.2042454183101654
vn -0.6975515484809875 -0.6243687272071838 0.3515473008155823
vn 0.4781985580921173 -0.8539819121360779 0.20503920316696167
vn -0.51509690284729 -0.7902727127075195 0.3318798243999481
vn 0.11334144324064255 0.4336508810520172 -0.893924355506897
vn 0.19725735485553741 0.6497581005096436 -0.7341007590293884
vn 0.33691921830177307 0.5183826684951782 -0.785980224609375
vn 0.024532711133360863 0.6708387732505798 -0.741197407245636
vn -0.09855373203754425 0.5020824074745178 -0.8591859340667725
vn -0.20654694736003876 0.7881685495376587 -0.5797661542892456
vn -0.40635353326797485 0.6661573052406311 -0.6253888607025146
vn 0.23912803828716278 0.30497586727142334 -0.9218500852584839
vn 0.42004528641700745 0.39634475111961365 -0.8163779377937317
vn -0.30106988549232483 0.49389520287513733 -0.8157355189323425
vn -0.7533577680587769 0.5793396234512329 -0.31115537881851196
vn 0.3653593361377716 0.25554898381233215 -0.8951018452644348
vn -0.6202999949455261 0.5899673700332642 -0.5168815851211548
vn -0.8837006688117981 0.4637863039970398 0.06305129081010818
vn -0.8745601177215576 0.47878220677375793 0.07689081877470016
vn 0.550512969493866 0.3656841814517975 -0.7504735589027405
vn 0.5960402488708496 0.28720536828041077 -0.7498326897621155
vn -0.8175824284553528 0.3674444556236267 0.443332314491272
vn 0.5053879022598267 0.12586621940135956 -0.8536632061004639
vn -0.760189414024353 0.07582373172044754 0.645261824131012
vn -0.7307031154632568 0.3134162425994873 0.6065008640289307
vn 0.7090772986412048 0.1867632418870926 -0.6799477338790894
vn -0.5120360255241394 0.1432746797800064 0.8469306230545044
vn -0.6061559915542603 0.17092491686344147 0.7767623066902161
vn -0.6028839945793152 0.48603010177612305 0.6326971054077148
vn 0.7760080099105835 -0.016717109829187393 -0.6305015087127686
vn -0.33123496174812317 0.13298630714416504 0.9341295957565308
vn -0.3484066426753998 0.205495223402977 0.9145406484603882
vn -0.5611293911933899 0.36231422424316406 0.744219183921814
vn 0.6238789558410645 -0.11407269537448883 -0.7731510400772095
vn 0.7168770432472229 -0.37852486968040466 -0.5854965448379517
vn -0.3859861195087433 0.20426546037197113 0.8996056914329529
vn -0.5619980692863464 0.2173892855644226 0.7980602383613586
vn 0.6283398270606995 -0.39122888445854187 -0.6724053621292114
vn -0.47763293981552124 0.33633953332901 0.8116295337677002
vn 0.5698504447937012 -0.6917872428894043 -0.44350990653038025
vn 0.4954248368740082 -0.8154906630516052 -0.2992144525051117
vn -0.5648345947265625 0.31853821873664856 0.7612459659576416
vn -0.7323538064956665 0.13823410868644714 0.6667452454566956
vn -0.8011241555213928 -0.11301559209823608 0.5877309441566467
vn 0.5839858651161194 -0.7806304097175598 0.22265839576721191
vn 0.49437597393989563 -0.8403596878051758 0.2222340852022171
vn -0.7129882574081421 -0.4115632474422455 0.5676825046539307
vn -0.5855545997619629 -0.6095460057258606 0.5343964695930481
vn 0.206976518034935 -0.9298536777496338 0.30419212579727173
vn -0.09228147566318512 -0.9009004235267639 0.4241020679473877
vn -0.374872624874115 -0.8035033345222473 0.46244239807128906
vn 0.365940123796463 0.63663649559021 -0.6788091063499451
vn 0.17708484828472137 0.736191987991333 -0.653194010257721
vn -0.0027549194637686014 0.8126378655433655 -0.5827625393867493
vn -0.19499097764492035 0.9043781757354736 -0.379577100276947
vn -0.3541073203086853 0.8879148960113525 -0.29362425208091736
vn -0.5853986144065857 0.7922868728637695 -0.17201723158359528
vn -0.8122106790542603 0.566506028175354 0.13922931253910065
vn 0.5156817436218262 0.46469345688819885 -0.7198141813278198
vn -0.8575566411018372 0.39983975887298584 0.32361215353012085
vn -0.9236431121826172 0.2535945773124695 0.2873556613922119
vn 0.64461350440979 0.3018609583377838 -0.7023912072181702
vn -0.8699761629104614 0.16849130392074585 0.46341365575790405
vn 0.6870426535606384 0.23528483510017395 -0.6874688863754272
vn -0.7477604746818542 0.027843305841088295 0.6633844971656799
vn -0.7795728445053101 0.046910595148801804 0.624552309513092
vn 0.7821540236473083 0.15773779153823853 -0.602788507938385
vn -0.7669793367385864 0.21415412425994873 0.6048808097839355
vn 0.7955254912376404 0.021755477413535118 -0.6055294871330261
vn 0.810204267501831 -0.1682348996400833 -0.5614857077598572
vn -0.6550110578536987 0.40854889154434204 0.6356480717658997
vn 0.7441007494926453 -0.47261843085289 -0.47217151522636414
vn 0.4329107403755188 -0.8994526863098145 -0.05977676436305046
vn -0.6009421348571777 0.3960476219654083 0.6942729353904724
vn 0.47665512561798096 -0.8612290620803833 0.17630809545516968
vn -0.6794718503952026 0.09817127138376236 0.7271041870117188
vn -0.5405635833740234 0.2390468865633011 0.8066273331642151
vn -0.679755687713623 -0.29982540011405945 0.6693556308746338
vn 0.38850879669189453 -0.8465292453765869 0.36393576860427856
vn 0.45049986243247986 -0.7928718328475952 0.41037076711654663
vn -0.5440196990966797 -0.5464082360267639 0.6367736458778381
vn 0.33099988102912903 -0.8257583975791931 0.4566860795021057
vn 0.11632563173770905 -0.8569437265396118 0.5021111965179443
vn -0.12203802168369293 -0.840843915939331 0.5273407101631165
vn -0.3726777732372284 -0.6852403283119202 0.6257451176643372
vn 0.1272805780172348 0.8408713936805725 -0.5260559916496277
vn -0.04602476581931114 0.8797246813774109 -0.47325077652931213
vn -0.24178220331668854 0.8685449957847595 -0.4326326251029968
vn 0.46683692932128906 0.6746206879615784 -0.5717957019805908
vn 0.4576078951358795 0.482353538274765 -0.7469472289085388
vn -0.3906233608722687 0.8976321220397949 -0.20413224399089813
vn -0.4245899021625519 0.9050052762031555 -0.026247713714838028
vn -0.6845049858093262 0.6526322364807129 0.3248447775840759
vn 0.590100884437561 0.29726067185401917 -0.7506111860275269
vn -0.8272709250450134 0.35854339599609375 0.4325152039527893
vn -0.7940146327018738 0.13306383788585663 0.593156635761261
vn -0.8582812547683716 0.16936880350112915 0.4844248592853546
vn 0.6934521198272705 0.13514861464500427 -0.7077140212059021
vn -0.6815402507781982 0.07444576174020767 0.7279840707778931
vn -0.7187613844871521 0.23137181997299194 0.6556288599967957
vn -0.6579665541648865 0.35554587841033936 0.663827657699585
vn 0.5659014582633972 -0.7140265107154846 -0.4122155010700226
vn -0.5777277946472168 0.3817867338657379 0.7214357256889343
vn 0.31375211477279663 -0.9302517771720886 -0.19024024903774261
vn 0.2408292591571808 -0.9602953791618347 0.1408335566520691
vn 0.38735172152519226 -0.8813024759292603 0.270674467086792
vn 0.5178243517875671 -0.7886033058166504 0.331606388092041
vn -0.5985509157180786 0.011038877069950104 0.8010087013244629
vn 0.274137020111084 -0.6576833128929138 0.7016420960426331
vn -0.6016182899475098 -0.2774326503276825 0.7490571737289429
vn -0.41296425461769104 -0.09422659128904343 0.9058597683906555
vn -0.41953015327453613 -0.4159542918205261 0.8068311810493469
vn 0.25815555453300476 -0.7910576462745667 0.5546021461486816
vn 0.3012818396091461 -0.7239677309989929 0.6205642819404602
vn -0.030280377715826035 -0.6779440641403198 0.7344896793365479
vn 0.18253234028816223 0.9127007126808167 -0.3655945360660553
vn 0.3202968239784241 0.7688865065574646 -0.5533747673034668
vn -0.006588200107216835 0.9368821978569031 -0.34958311915397644
vn -0.3317718803882599 0.9154258370399475 -0.22786609828472137
vn -0.5643987059593201 0.8118135333061218 -0.1497093141078949
vn 0.6161149740219116 0.715356707572937 -0.32964715361595154
vn 0.58157879114151 0.5515041351318359 -0.5980045199394226
vn -0.5959882140159607 0.78671795129776 0.16085034608840942
vn -0.7843347191810608 0.5944496393203735 0.1773376762866974
vn -0.7680545449256897 0.40436434745788574 0.4965699017047882
vn -0.7387070059776306 0.1891854852437973 0.6469318866729736
vn -0.7774283289909363 -0.0156847070902586 0.628775954246521
vn 0.7444688677787781 0.46547698974609375 -0.4786410629749298
vn 0.6922335028648376 0.23838233947753906 -0.6811656355857849
vn -0.6222506165504456 -0.03140577673912048 0.7821879386901855
vn -0.5510475635528564 -0.12726545333862305 0.8247121572494507
vn 0.7380280494689941 0.0518106073141098 -0.6727780103683472
vn 0.8447595834732056 0.09721577167510986 -0.5262417197227478
vn -0.4803961515426636 -0.17460444569587708 0.8594956994056702
vn -0.3538742959499359 -0.04077395424246788 0.9344038367271423
vn -0.5361163020133972 0.006426481995731592 0.8441197276115417
vn 0.8853148221969604 -0.09441958367824554 -0.4553050696849823
vn 0.7844963669776917 -0.06112441048026085 -0.6171137094497681
vn -0.21867822110652924 -0.11616277694702148 0.9688581228256226
vn -0.45377492904663086 -0.20650313794612885 0.8668590784072876
vn 0.8743057250976562 -0.2984914779663086 -0.3827432096004486
vn -0.23901142179965973 0.02906072698533535 0.9705818295478821
vn -0.5310831069946289 0.16373488306999207 0.8313493132591248
vn -0.31861793994903564 -0.15690641105175018 0.9348064064979553
vn -0.14585302770137787 -0.05254513397812843 0.9879099130630493
vn -0.07410445064306259 0.003215565113350749 0.9972453117370605
vn 0.7431107759475708 -0.49864640831947327 -0.44624900817871094
vn -0.37295183539390564 0.20238803327083588 0.9055087566375732
vn 0.739035964012146 -0.5825008749961853 -0.3384060561656952
vn 0.48545098304748535 -0.8033425807952881 -0.34493210911750793
vn -0.2655596137046814 -0.16188712418079376 0.9504055380821228
vn -0.034975871443748474 0.017306765541434288 0.9992383122444153
vn -0.11419708281755447 0.07954598218202591 0.9902684092521667
vn 0.3794615566730499 -0.8966052532196045 -0.2282719761133194
vn 0.22010080516338348 -0.9723996520042419 -0.07742512971162796
vn 0.05637988820672035 -0.9040752053260803 0.4236382842063904
vn 0.011408495716750622 -0.9939445853233337 0.10928871482610703
vn -0.3167746067047119 -0.8406538367271423 0.4392664432525635
vn -0.31039145588874817 -0.7274073362350464 0.6119931936264038
vn -0.1621726006269455 -0.5559403300285339 0.8152486681938171
vn 0.059549879282712936 -0.41095420718193054 0.9097090363502502
vn -0.02165130525827408 -0.15299837291240692 0.9879893064498901
vn 0.025697989389300346 -0.09917603433132172 0.9947380423545837
vn -0.32662123441696167 0.16631567478179932 0.9304072856903076
vn 0.3140313923358917 -0.7417622804641724 0.592598557472229
vn -0.11984406411647797 -0.07626092433929443 0.9898594617843628
vn 0.138974130153656 -0.497739315032959 0.8561201691627502
vn -0.08795154839754105 -0.3111005425453186 0.9462985992431641
vn 0.46450093388557434 0.8137058019638062 -0.34945914149284363
vn -0.15554364025592804 0.9522212743759155 -0.262832373380661
vn -0.6515087485313416 0.7523024678230286 0.09786414355039597
vn -0.7991360425949097 0.4407842457294464 0.40876758098602295
vn -0.8837165236473083 0.2388492077589035 0.40248754620552063
vn 0.7606362700462341 0.5893900394439697 -0.2721247971057892
vn 0.8183727264404297 0.40932410955429077 -0.4033854603767395
vn 0.8235890865325928 0.3072590231895447 -0.47675254940986633
vn -0.7573975324630737 -0.18519319593906403 0.6261409521102905
vn -0.6785738468170166 -0.2419567108154297 0.693537712097168
vn -0.6325128674507141 -0.25901317596435547 0.729958713054657
vn -0.6997368931770325 -0.2661037743091583 0.6629911065101624
vn 0.9432448744773865 -0.029095463454723358 -0.33082103729248047
vn -0.6515491008758545 -0.26456600427627563 0.7109771966934204
vn 0.9532943964004517 -0.18191352486610413 -0.2411166876554489
vn -0.6715694665908813 -0.3101848363876343 0.6728891730308533
vn -0.5439478754997253 -0.3492867946624756 0.7629675269126892
vn -0.5641797780990601 -0.41322988271713257 0.7148022055625916
vn 0.6206566691398621 -0.7607507109642029 -0.18985171616077423
vn -0.5088319778442383 -0.5099982619285583 0.6935357451438904
vn 0.20630726218223572 -0.9747217297554016 0.08576150983572006
vn -0.46204811334609985 -0.5946876406669617 0.6579196453094482
vn 0.059544067829847336 -0.9783957600593567 0.19798049330711365
vn 0.013994880020618439 0.9995409846305847 -0.026869872584939003
vn 0.0639905035495758 0.9658730626106262 -0.2509870231151581
vn -0.3017735183238983 0.9511747360229492 -0.06480297446250916
vn 0.5450043678283691 0.812964677810669 -0.20508240163326263
vn 0.3807472288608551 0.906492292881012 -0.18249176442623138
vn -0.49252039194107056 0.8668792843818665 0.0770978033542633
vn -0.6154400706291199 0.6716268062591553 0.41249364614486694
vn -0.7770954370498657 0.10125428438186646 0.6211846470832825
vn 0.8351051807403564 0.4984982907772064 -0.2325914055109024
vn -0.720794677734375 -0.16240353882312775 0.6738547682762146
vn 0.9132616519927979 0.3555726408958435 -0.19879956543445587
vn 0.9203572273254395 0.19663724303245544 -0.33804798126220703
vn -0.5018534660339355 -0.2452876716852188 0.8294438719749451
vn 0.9833422303199768 0.05452176555991173 -0.1733940839767456
vn -0.5641427636146545 -0.24659155309200287 0.7879946827888489
vn -0.5211678147315979 -0.1601833999156952 0.8382871747016907
vn 0.9216459393501282 -0.351352721452713 -0.16468161344528198
vn 0.8696713447570801 -0.4728163778781891 -0.14183244109153748
vn 0.40507689118385315 -0.914210855960846 -0.01145597267895937
vn -0.24942205846309662 -0.8432119488716125 0.476216584444046
vn -0.09187319874763489 -0.8878999948501587 0.45076945424079895
vn 0.37650033831596375 0.9232410192489624 0.07663930207490921
vn -0.45819857716560364 0.7990220785140991 0.3893813192844391
vn 0.5403811931610107 0.8413819670677185 0.008042817004024982
vn 0.5250594615936279 0.8445640802383423 -0.10499580204486847
vn -0.6177826523780823 0.2344159334897995 0.7505956888198853
vn 0.6190305352210999 0.7731629014015198 -0.13791422545909882
vn -0.6519206166267395 0.31400400400161743 0.6902180910110474
vn -0.5407238006591797 -0.07217399030923843 0.8380982875823975
vn -0.4723324179649353 -0.18679559230804443 0.86139976978302
vn 0.8050644993782043 0.5900117754936218 -0.06129666417837143
vn -0.3764747083187103 -0.2153577208518982 0.9010482430458069
vn 0.8680596947669983 0.4928719699382782 -0.059579212218523026
vn 0.9238371849060059 0.3805555999279022 0.041259974241256714
vn -0.5203792452812195 -0.15811240673065186 0.8391697406768799
vn -0.419236958026886 -0.22522875666618347 0.8794955611228943
vn -0.4313715398311615 -0.20858202874660492 0.8777312636375427
vn -0.5489294528961182 -0.18316663801670074 0.8155528903007507
vn 0.9873762726783752 -0.12061601877212524 -0.10266357660293579
vn 0.943278968334198 -0.3032824695110321 -0.13507260382175446
vn -0.48851078748703003 -0.37205079197883606 0.789262592792511
vn -0.38725388050079346 -0.6205100417137146 0.6819103956222534
vn -0.5007941722869873 -0.45674771070480347 0.7352460026741028
vn 0.7401543259620667 -0.6644698977470398 0.1032053530216217
vn -0.3278200626373291 -0.6343797445297241 0.7000688910484314
vn -0.006275443825870752 -0.9685595631599426 0.2487027645111084
vn 0.03760209679603577 0.9690395593643188 0.2440253496170044
vn -0.18345977365970612 0.8410526514053345 0.5088939666748047
vn 0.44871625304222107 0.83815598487854 0.31007808446884155
vn 0.5028312802314758 0.8613728284835815 0.07209502160549164
vn 0.26935359835624695 0.8864927291870117 0.37627020478248596
vn -0.5378724932670593 0.5820289850234985 0.6098650693893433
vn -0.6565016508102417 0.257464200258255 0.7090259194374084
vn -0.6225408315658569 -0.1478085070848465 0.7685022354125977
vn 0.6457898020744324 0.7323065996170044 0.21606166660785675
vn -0.6082791090011597 -0.24735182523727417 0.754197359085083
vn 0.8677312135696411 0.4790545105934143 0.13247379660606384
vn 0.8779800534248352 0.4283026456832886 0.21379414200782776
vn 0.896937906742096 0.27026084065437317 0.3499451279640198
vn 0.9915732145309448 0.12036342918872833 0.04790966212749481
vn -0.5998831987380981 -0.17271651327610016 0.781222939491272
vn 0.9899677038192749 -0.09869106113910675 0.1011139303445816
vn 0.9201058149337769 -0.3861105740070343 0.06575749814510345
vn -0.5750901103019714 -0.30087149143218994 0.7607547044754028
vn -0.4945737421512604 -0.5392484664916992 0.6816214919090271
vn -0.37525251507759094 -0.7451435327529907 0.551313579082489
vn -0.16624045372009277 -0.8059237003326416 0.568199872970581
vn 0.3431904911994934 -0.8897960186004639 0.3008047044277191
vn 0.1956394612789154 0.7971134781837463 0.5712576508522034
vn -0.24913358688354492 0.7520454525947571 0.6102132201194763
vn -0.5492807030677795 0.39775657653808594 0.7349016666412354
vn 0.46235138177871704 0.7167556881904602 0.5220081806182861
vn -0.5355510115623474 0.0017994703957810998 0.8445009589195251
vn 0.5404835343360901 0.4621398150920868 0.7030678987503052
vn 0.7718744874000549 0.5635547041893005 0.29430583119392395
vn -0.6045686602592468 -0.26353901624679565 0.7516940236091614
vn 0.7774758338928223 0.3888951539993286 0.4942589998245239
vn -0.5685091614723206 -0.25699442625045776 0.7815057635307312
vn 0.7227307558059692 0.3066934645175934 0.6193540692329407
vn -0.6198222637176514 -0.2161562591791153 0.7543851137161255
vn -0.5022367835044861 -0.1828816533088684 0.8451701402664185
vn 0.6382483243942261 0.15667633712291718 0.7537184953689575
vn 0.9023597836494446 0.05246574059128761 0.4277781546115875
vn 0.8851453065872192 -0.18114684522151947 0.4286065995693207
vn -0.4878545105457306 -0.1727578192949295 0.8556593060493469
vn -0.4345167577266693 -0.36454394459724426 0.8235914707183838
vn 0.32586991786956787 -0.5997295379638672 0.730844259262085
vn 0.7651707530021667 -0.5334814786911011 0.3604319989681244
vn -0.20615923404693604 -0.5191178917884827 0.8294667601585388
vn 0.3106357753276825 0.5244292616844177 0.7927669286727905
vn -0.1586737483739853 0.4617938995361328 0.8726792931556702
vn 0.2209203839302063 0.3448345959186554 0.9122956395149231
vn -0.08104658126831055 0.13608767092227936 0.9873761534690857
vn -0.11081176996231079 0.024906285107135773 0.9935293197631836
vn -0.027834653854370117 0.05094042047858238 0.9983137249946594
vn -0.3871592879295349 -0.16458331048488617 0.9072045683860779
vn 0.4220691919326782 0.22250038385391235 0.878835141658783
vn 0.17669382691383362 0.14339689910411835 0.973764181137085
vn -0.0024590271059423685 0.016175279393792152 0.9998661875724792
vn 0.17330828309059143 0.08197881281375885 0.9814498424530029
vn -0.14430110156536102 -0.06826593726873398 0.987176239490509
vn -0.32484009861946106 -0.18141750991344452 0.9282060861587524
vn 0.3532031178474426 0.13798467814922333 0.9253149628639221
vn -0.057750701904296875 -0.008239696733653545 0.9982970356941223
vn -0.3098852038383484 -0.11404480785131454 0.9439094662666321
vn 0.1814507693052292 0.05597388371825218 0.9818058013916016
vn 0.5803043246269226 0.0178188718855381 0.814204752445221
vn 0.661715567111969 -0.33389967679977417 0.6712998747825623
vn 0.1959245353937149 -0.15289685130119324 0.9686259031295776
vn -0.16164830327033997 -0.17704613506793976 0.9708369970321655
f 1//1 2//2 3//3
f 1//1 4//4 2//2
f 4//4 1//1 5//5
f 6//6 4//4 5//5
f 6//6 7//7 4//4
f 5//5 1//1 8//8
f 9//9 6//6 5//5
f 5//5 8//8 10//10
f 9//9 5//5 10//10
f 11//11 12//12 13//13
f 13//13 12//12 14//14
f 11//11 15//15 16//16
f 12//12 11//11 16//16
f 2//2 12//12 16//16
f 14//14 12//12 2//2
f 17//17 14//14 2//2
f 18//18 14//14 17//17
f 17//17 19//19 18//18
f 18//18 19//19 20//20
f 21//21 22//22 15//15
f 16//16 15//15 22//22
f 23//23 16//16 22//22
f 2//2 16//16 23//23
f 17//17 2//2 4//4
f 19//19 17//17 24//24
f 24//24 17//17 25//25
f 20//20 19//19 26//26
f 26//26 19//19 24//24
f 20//20 26//26 27//27
f 28//28 22//22 21//21
f 3//3 2//2 23//23
f 25//25 17//17 4//4
f 7//7 25//25 4//4
f 7//7 29//29 25//25
f 29//29 24//24 25//25
f 26//26 24//24 29//29
f 27//27 26//26 30//30
f 21//21 31//31 28//28
f 23//23 22//22 32//32
f 22//22 28//28 32//32
f 32//32 3//3 23//23
f 7//7 33//33 29//29
f 33//33 26//26 29//29
f 30//30 26//26 33//33
f 32//32 28//28 31//31
f 8//8 3//3 32//32
f 1//1 3//3 8//8
f 33//33 7//7 34//34
f 34//34 35//35 33//33
f 32//32 31//31 8//8
f 9//9 36//36 6//6
f 6//6 34//34 7//7
f 6//6 36//36 34//34
f 36//36 37//37 34//34
f 38//38 34//34 37//37
f 35//35 34//34 38//38
f 31//31 39//39 8//8
f 8//8 39//39 10//10
f 10//10 40//40 9//9
f 40//40 41//41 9//9
f 36//36 9//9 41//41
f 39//39 42//42 43//43
f 39//39 43//43 10//10
f 43//43 40//40 10//10
f 36//36 41//41 44//44
f 37//37 36//36 44//44
f 43//43 42//42 45//45
f 40//40 43//43 45//45
f 46//46 47//47 48//48
f 47//47 13//13 49//49
f 49//49 13//13 50//50
f 50//50 51//51 52//52
f 11//11 47//47 46//46
f 13//13 47//47 11//11
f 50//50 13//13 14//14
f 14//14 18//18 50//50
f 51//51 50//50 18//18
f 53//53 46//46 48//48
f 54//54 53//53 48//48
f 15//15 46//46 53//53
f 11//11 46//46 15//15
f 18//18 20//20 27//27
f 18//18 27//27 55//55
f 18//18 55//55 51//51
f 15//15 54//54 21//21
f 53//53 54//54 15//15
f 56//56 27//27 57//57
f 21//21 54//54 58//58
f 59//59 21//21 58//58
f 30//30 57//57 27//27
f 21//21 59//59 60//60
f 21//21 60//60 31//31
f 33//33 35//35 61//61
f 30//30 33//33 61//61
f 62//62 31//31 60//60
f 31//31 62//62 39//39
f 35//35 38//38 63//63
f 61//61 35//35 63//63
f 62//62 64//64 65//65
f 39//39 62//62 65//65
f 38//38 37//37 66//66
f 38//38 66//66 67//67
f 63//63 38//38 67//67
f 42//42 65//65 68//68
f 39//39 65//65 42//42
f 41//41 40//40 69//69
f 41//41 69//69 44//44
f 37//37 44//44 66//66
f 42//42 68//68 70//70
f 42//42 70//70 45//45
f 69//69 40//40 45//45
f 71//71 69//69 45//45
f 44//44 69//69 71//71
f 72//72 44//44 71//71
f 73//73 74//74 75//75
f 74//74 76//76 75//75
f 75//75 76//76 77//77
f 78//78 79//79 80//80
f 78//78 81//81 79//79
f 73//73 79//79 81//81
f 73//73 81//81 74//74
f 74//74 81//81 82//82
f 76//76 74//74 82//82
f 83//83 76//76 82//82
f 77//77 76//76 84//84
f 84//84 76//76 83//83
f 77//77 84//84 85//85
f 84//84 86//86 85//85
f 85//85 86//86 87//87
f 86//86 84//84 83//83
f 88//88 89//89 87//87
f 88//88 87//87 90//90
f 90//90 87//87 86//86
f 91//91 78//78 80//80
f 92//92 91//91 80//80
f 93//93 81//81 78//78
f 82//82 81//81 94//94
f 94//94 81//81 93//93
f 83//83 82//82 94//94
f 95//95 83//83 94//94
f 86//86 83//83 95//95
f 90//90 86//86 95//95
f 96//96 88//88 90//90
f 91//91 92//92 97//97
f 47//47 93//93 48//48
f 94//94 93//93 47//47
f 49//49 94//94 47//47
f 50//50 94//94 49//49
f 95//95 94//94 50//50
f 52//52 95//95 50//50
f 52//52 90//90 95//95
f 96//96 90//90 55//55
f 55//55 90//90 52//52
f 96//96 55//55 98//98
f 99//99 91//91 97//97
f 78//78 91//91 100//100
f 48//48 93//93 100//100
f 93//93 78//78 100//100
f 55//55 52//52 51//51
f 98//98 55//55 101//101
f 100//100 91//91 99//99
f 48//48 100//100 54//54
f 55//55 56//56 101//101
f 27//27 56//56 55//55
f 100//100 99//99 58//58
f 58//58 99//99 102//102
f 100//100 58//58 54//54
f 56//56 57//57 103//103
f 103//103 57//57 104//104
f 102//102 105//105 59//59
f 102//102 59//59 58//58
f 59//59 105//105 60//60
f 30//30 61//61 106//106
f 30//30 106//106 57//57
f 57//57 106//106 104//104
f 107//107 108//108 62//62
f 107//107 62//62 105//105
f 105//105 62//62 60//60
f 106//106 109//109 110//110
f 106//106 61//61 109//109
f 62//62 108//108 64//64
f 63//63 109//109 61//61
f 111//111 65//65 64//64
f 63//63 67//67 112//112
f 109//109 63//63 112//112
f 68//68 65//65 113//113
f 65//65 111//111 113//113
f 66//66 44//44 72//72
f 66//66 72//72 114//114
f 66//66 114//114 67//67
f 112//112 67//67 114//114
f 71//71 45//45 115//115
f 45//45 70//70 115//115
f 116//116 72//72 71//71
f 117//117 73//73 118//118
f 118//118 75//75 119//119
f 75//75 120//120 121//121
f 120//120 122//122 123//123
f 121//121 120//120 123//123
f 123//123 122//122 124//124
f 117//117 125//125 73//73
f 75//75 118//118 73//73
f 120//120 75//75 77//77
f 124//124 122//122 126//126
f 125//125 127//127 80//80
f 125//125 80//80 79//79
f 73//73 125//125 79//79
f 85//85 120//120 77//77
f 122//122 120//120 85//85
f 122//122 128//128 126//126
f 122//122 85//85 128//128
f 87//87 89//89 85//85
f 85//85 89//89 128//128
f 88//88 129//129 89//89
f 130//130 129//129 88//88
f 92//92 127//127 131//131
f 132//132 92//92 131//131
f 127//127 92//92 80//80
f 88//88 96//96 130//130
f 92//92 132//132 97//97
f 96//96 98//98 130//130
f 133//133 97//97 132//132
f 133//133 99//99 97//97
f 98//98 101//101 134//134
f 103//103 101//101 56//56
f 103//103 135//135 101//101
f 135//135 134//134 101//101
f 103//103 104//104 135//135
f 136//136 137//137 135//135
f 135//135 104//104 136//136
f 104//104 106//106 110//110
f 136//136 104//104 110//110
f 107//107 138//138 108//108
f 138//138 139//139 108//108
f 109//109 140//140 110//110
f 108//108 139//139 141//141
f 108//108 141//141 64//64
f 64//64 141//141 111//111
f 112//112 142//142 140//140
f 109//109 112//112 140//140
f 68//68 113//113 143//143
f 116//116 114//114 72//72
f 116//116 142//142 114//114
f 142//142 112//112 114//114
f 68//68 143//143 70//70
f 143//143 144//144 70//70
f 70//70 144//144 115//115
f 71//71 115//115 145//145
f 145//145 116//116 71//71
f 119//119 146//146 147//147
f 148//148 149//149 150//150
f 148//148 117//117 149//149
f 147//147 149//149 117//117
f 147//147 117//117 119//119
f 121//121 146//146 119//119
f 121//121 123//123 151//151
f 119//119 117//117 118//118
f 75//75 121//121 119//119
f 123//123 124//124 152//152
f 152//152 124//124 153//153
f 154//154 150//150 155//155
f 150//150 154//154 148//148
f 148//148 154//154 156//156
f 125//125 117//117 156//156
f 117//117 148//148 156//156
f 124//124 126//126 153//153
f 125//125 156//156 127//127
f 126//126 157//157 153//153
f 128//128 157//157 126//126
f 129//129 158//158 157//157
f 129//129 157//157 89//89
f 89//89 157//157 128//128
f 131//131 154//154 155//155
f 159//159 131//131 155//155
f 127//127 156//156 131//131
f 156//156 154//154 131//131
f 129//129 130//130 158//158
f 132//132 131//131 159//159
f 158//158 130//130 160//160
f 159//159 161//161 132//132
f 98//98 134//134 130//130
f 132//132 161//161 133//133
f 130//130 162//162 160//160
f 162//162 130//130 134//134
f 133//133 163//163 99//99
f 134//134 135//135 162//162
f 105//105 164//164 165//165
f 102//102 164//164 105//105
f 102//102 163//163 164//164
f 102//102 99//99 163//163
f 135//135 137//137 162//162
f 105//105 165//165 166//166
f 105//105 166//166 107//107
f 137//137 136//136 167//167
f 107//107 166//166 138//138
f 136//136 110//110 167//167
f 138//138 168//168 139//139
f 110//110 140//140 167//167
f 167//167 140//140 169//169
f 141//141 139//139 170//170
f 140//140 171//171 169//169
f 172//172 111//111 141//141
f 142//142 171//171 140//140
f 111//111 172//172 113//113
f 113//113 172//172 143//143
f 171//171 142//142 173//173
f 173//173 142//142 116//116
f 115//115 144//144 145//145
f 173//173 116//116 145//145
f 174//174 175//175 176//176
f 175//175 174//174 177//177
f 174//174 178//178 177//177
f 177//177 178//178 179//179
f 179//179 178//178 180//180
f 181//181 176//176 182//182
f 176//176 181//181 174//174
f 178//178 174//174 147//147
f 180//180 178//178 183//183
f 184//184 180//180 183//183
f 182//182 185//185 181//181
f 174//174 181//181 149//149
f 147//147 174//174 149//149
f 146//146 178//178 147//147
f 183//183 178//178 146//146
f 184//184 183//183 186//186
f 187//187 188//188 184//184
f 186//186 187//187 184//184
f 185//185 189//189 190//190
f 182//182 189//189 185//185
f 149//149 181//181 150//150
f 121//121 183//183 146//146
f 186//186 183//183 121//121
f 186//186 121//121 151//151
f 186//186 151//151 187//187
f 187//187 151//151 152//152
f 151//151 123//123 152//152
f 181//181 185//185 150//150
f 152//152 191//191 187//187
f 152//152 153//153 191//191
f 190//190 192//192 185//185
f 150//150 185//185 155//155
f 193//193 191//191 194//194
f 191//191 153//153 194//194
f 195//195 192//192 190//190
f 185//185 192//192 155//155
f 196//196 193//193 194//194
f 197//197 193//193 196//196
f 153//153 157//157 198//198
f 153//153 198//198 194//194
f 194//194 198//198 196//196
f 157//157 158//158 198//198
f 192//192 195//195 199//199
f 155//155 192//192 159//159
f 200//200 197//197 196//196
f 198//198 201//201 196//196
f 201//201 200//200 196//196
f 158//158 202//202 198//198
f 198//198 202//202 201//201
f 203//203 192//192 199//199
f 158//158 160//160 202//202
f 204//204 203//203 199//199
f 192//192 203//203 161//161
f 159//159 192//192 161//161
f 201//201 205//205 200//200
f 202//202 206//206 201//201
f 206//206 205//205 201//201
f 202//202 160//160 206//206
f 204//204 207//207 203//203
f 203//203 207//207 161//161
f 161//161 207//207 133//133
f 133//133 207//207 163//163
f 208//208 200//200 205//205
f 160//160 162//162 206//206
f 207//207 204//204 209//209
f 209//209 210//210 164//164
f 209//209 164//164 207//207
f 207//207 164//164 163//163
f 208//208 205//205 211//211
f 206//206 212//212 205//205
f 206//206 162//162 212//212
f 164//164 210//210 165//165
f 212//212 211//211 205//205
f 162//162 137//137 212//212
f 137//137 167//167 212//212
f 138//138 166//166 168//168
f 212//212 167//167 213//213
f 139//139 214//214 215//215
f 139//139 168//168 214//214
f 216//216 213//213 169//169
f 213//213 167//167 169//169
f 139//139 215//215 170//170
f 169//169 171//171 216//216
f 170//170 172//172 141//141
f 216//216 171//171 217//217
f 143//143 172//172 218//218
f 144//144 143//143 218//218
f 218//218 219//219 144//144
f 217//217 173//173 220//220
f 171//171 173//173 217//217
f 145//145 144//144 219//219
f 220//220 145//145 219//219
f 173//173 145//145 220//220
f 221//221 175//175 222//222
f 223//223 179//179 224//224
f 224//224 179//179 225//225
f 175//175 221//221 176//176
f 177//177 222//222 175//175
f 223//223 222//222 177//177
f 179//179 223//223 177//177
f 225//225 179//179 226//226
f 179//179 180//180 226//226
f 226//226 180//180 184//184
f 227//227 226//226 184//184
f 228//228 182//182 176//176
f 188//188 229//229 184//184
f 229//229 227//227 184//184
f 228//228 189//189 182//182
f 188//188 230//230 229//229
f 230//230 188//188 187//187
f 190//190 189//189 231//231
f 230//230 187//187 232//232
f 191//191 232//232 187//187
f 195//195 190//190 233//233
f 193//193 232//232 191//191
f 234//234 232//232 193//193
f 235//235 234//234 193//193
f 195//195 236//236 199//199
f 237//237 235//235 193//193
f 193//193 197//197 237//237
f 238//238 199//199 236//236
f 238//238 239//239 199//199
f 200//200 208//208 197//197
f 199//199 239//239 204//204
f 237//237 197//197 240//240
f 197//197 208//208 240//240
f 204//204 241//241 209//209
f 166//166 165//165 242//242
f 165//165 210//210 242//242
f 240//240 208//208 243//243
f 208//208 211//211 243//243
f 242//242 168//168 166//166
f 244//244 168//168 242//242
f 168//168 244//244 214//214
f 243//243 245//245 246//246
f 243//243 211//211 245//245
f 212//212 213//213 245//245
f 211//211 212//212 245//245
f 213//213 216//216 247//247
f 245//245 213//213 247//247
f 215//215 248//248 170//170
f 170//170 248//248 249//249
f 247//247 217//217 250//250
f 247//247 216//216 217//217
f 170//170 249//249 172//172
f 251//251 172//172 249//249
f 172//172 251//251 218//218
f 218//218 251//251 252//252
f 253//253 254//254 219//219
f 253//253 219//219 252//252
f 252//252 219//219 218//218
f 220//220 219//219 254//254
f 250//250 220//220 254//254
f 217//217 220//220 250//250
f 255//255 223//223 256//256
f 256//256 223//223 257//257
f 221//221 258//258 259//259
f 223//223 255//255 222//222
f 224//224 257//257 223//223
f 260//260 257//257 224//224
f 225//225 261//261 224//224
f 224//224 261//261 260//260
f 261//261 225//225 226//226
f 262//262 261//261 226//226
f 259//259 228//228 221//221
f 176//176 221//221 228//228
f 226//226 227//227 262//262
f 259//259 263//263 228//228
f 227//227 229//229 264//264
f 264//264 229//229 265//265
f 231//231 228//228 263//263
f 189//189 228//228 231//231
f 266//266 229//229 230//230
f 266//266 265//265 229//229
f 234//234 265//265 266//266
f 230//230 232//232 266//266
f 231//231 233//233 190//190
f 266//266 232//232 234//234
f 236//236 233//233 267//267
f 233//233 236//236 195//195
f 235//235 268//268 234//234
f 236//236 267//267 238//238
f 269//269 268//268 235//235
f 235//235 237//237 269//269
f 237//237 270//270 269//269
f 237//237 240//240 270//270
f 239//239 241//241 204//204
f 241//241 271//271 209//209
f 210//210 209//209 271//271
f 272//272 270//270 240//240
f 273//273 242//242 210//210
f 240//240 243//243 272//272
f 274//274 244//244 242//242
f 275//275 244//244 274//274
f 272//272 243//243 246//246
f 275//275 276//276 244//244
f 276//276 214//214 244//244
f 246//246 245//245 277//277
f 215//215 214//214 276//276
f 276//276 248//248 215//215
f 278//278 248//248 276//276
f 279//279 280//280 277//277
f 281//281 280//280 279//279
f 245//245 279//279 277//277
f 245//245 247//247 279//279
f 249//249 248//248 282//282
f 251//251 249//249 283//283
f 249//249 282//282 283//283
f 254//254 284//284 281//281
f 281//281 279//279 254//254
f 279//279 250//250 254//254
f 247//247 250//250 279//279
f 251//251 283//283 252//252
f 252//252 283//283 284//284
f 253//253 252//252 284//284
f 254//254 253//253 284//284
f 255//255 285//285 286//286
f 285//285 255//255 287//287
f 255//255 256//256 287//287
f 287//287 256//256 288//288
f 288//288 256//256 257//257
f 288//288 257//257 289//289
f 257//257 260//260 289//289
f 258//258 290//290 291//291
f 221//221 286//286 258//258
f 222//222 286//286 221//221
f 255//255 286//286 222//222
f 289//289 292//292 293//293
f 260//260 292//292 289//289
f 262//262 294//294 292//292
f 262//262 292//292 261//261
f 261//261 292//292 260//260
f 258//258 291//291 259//259
f 295//295 294//294 262//262
f 296//296 294//294 295//295
f 262//262 227//227 264//264
f 262//262 264//264 295//295
f 263//263 297//297 298//298
f 297//297 263//263 291//291
f 259//259 291//291 263//263
f 264//264 265//265 295//295
f 299//299 296//296 295//295
f 300//300 296//296 299//299
f 233//233 263//263 298//298
f 263//263 233//233 231//231
f 265//265 234//234 299//299
f 295//295 265//265 299//299
f 301//301 298//298 302//302
f 233//233 298//298 267//267
f 267//267 298//298 301//301
f 303//303 300//300 304//304
f 299//299 305//305 300//300
f 305//305 304//304 300//300
f 234//234 268//268 305//305
f 299//299 234//234 305//305
f 306//306 301//301 302//302
f 307//307 301//301 306//306
f 238//238 267//267 307//307
f 267//267 301//301 307//307
f 308//308 303//303 304//304
f 309//309 303//303 308//308
f 310//310 307//307 306//306
f 238//238 307//307 239//239
f 304//304 311//311 308//308
f 305//305 312//312 304//304
f 312//312 311//311 304//304
f 305//305 268//268 312//312
f 239//239 310//310 241//241
f 307//307 310//310 239//239
f 309//309 308//308 313//313
f 308//308 314//314 313//313
f 311//311 315//315 308//308
f 315//315 314//314 308//308
f 268//268 269//269 312//312
f 269//269 270//270 312//312
f 310//310 316//316 241//241
f 312//312 317//317 311//311
f 317//317 315//315 311//311
f 312//312 270//270 317//317
f 271//271 318//318 319//319
f 271//271 316//316 318//318
f 271//271 241//241 316//316
f 313//313 320//320 309//309
f 320//320 313//313 314//314
f 315//315 321//321 314//314
f 317//317 322//322 315//315
f 270//270 272//272 317//317
f 323//323 271//271 319//319
f 271//271 323//323 210//210
f 323//323 273//273 210//210
f 324//324 273//273 323//323
f 325//325 326//326 327//327
f 325//325 328//328 329//329
f 327//327 328//328 325//325
f 329//329 320//320 330//330
f 314//314 331//331 320//320
f 321//321 331//331 314//314
f 315//315 332//332 321//321
f 322//322 332//332 315//315
f 317//317 333//333 322//322
f 272//272 246//246 333//333
f 317//317 272//272 333//333
f 242//242 273//273 326//326
f 273//273 324//324 326//326
f 326//326 325//325 274//274
f 326//326 274//274 242//242
f 275//275 274//274 325//325
f 330//330 334//334 329//329
f 334//334 325//325 329//329
f 331//331 330//330 320//320
f 332//332 331//331 321//321
f 334//334 275//275 325//325
f 276//276 275//275 334//334
f 331//331 278//278 330//330
f 278//278 334//334 330//330
f 322//322 335//335 332//332
f 333//333 335//335 322//322
f 246//246 280//280 333//333
f 280//280 335//335 333//333
f 246//246 277//277 280//280
f 278//278 276//276 334//334
f 332//332 336//336 331//331
f 336//336 278//278 331//331
f 335//335 337//337 332//332
f 337//337 336//336 332//332
f 282//282 248//248 278//278
f 336//336 282//282 278//278
f 283//283 282//282 336//336
f 284//284 283//283 336//336
f 337//337 284//284 336//336
f 281//281 284//284 337//337
f 281//281 337//337 280//280
f 280//280 337//337 335//335
f 286//286 285//285 338//338
f 287//287 339//339 285//285
f 287//287 288//288 339//339
f 338//338 258//258 286//286
f 289//289 340//340 288//288
f 340//340 289//289 293//293
f 341//341 340//340 293//293
f 338//338 290//290 258//258
f 294//294 293//293 292//292
f 294//294 342//342 293//293
f 342//342 341//341 293//293
f 290//290 343//343 297//297
f 290//290 297//297 291//291
f 342//342 294//294 296//296
f 298//298 297//297 344//344
f 345//345 298//298 344//344
f 296//296 300//300 346//346
f 346//346 300//300 347//347
f 298//298 345//345 302//302
f 347//347 300//300 303//303
f 348//348 349//349 347//347
f 302//302 350//350 306//306
f 303//303 351//351 347//347
f 350//350 352//352 306//306
f 351//351 348//348 347//347
f 353//353 348//348 351//351
f 303//303 309//309 351//351
f 306//306 352//352 310//310
f 310//310 318//318 316//316
f 354//354 353//353 351//351
f 355//355 353//353 354//354
f 309//309 354//354 351//351
f 356//356 319//319 318//318
f 355//355 354//354 357//357
f 309//309 320//320 354//354
f 319//319 356//356 323//323
f 324//324 323//323 358//358
f 357//357 328//328 359//359
f 359//359 328//328 327//327
f 329//329 328//328 357//357
f 354//354 329//329 357//357
f 320//320 329//329 354//354
f 360//360 326//326 324//324
f 361//361 362//362 363//363
f 364//364 338//338 365//365
f 338//338 285//285 365//365
f 339//339 362//362 285//285
f 363//363 362//362 339//339
f 363//363 339//339 366//366
f 288//288 366//366 339//339
f 366//366 288//288 340//340
f 367//367 366//366 340//340
f 338//338 364//364 290//290
f 341//341 367//367 340//340
f 368//368 341//341 342//342
f 296//296 368//368 342//342
f 369//369 344//344 343//343
f 344//344 297//297 343//343
f 296//296 370//370 368//368
f 296//296 346//346 370//370
f 344//344 369//369 371//371
f 372//372 345//345 371//371
f 345//345 344//344 371//371
f 346//346 347//347 349//349
f 370//370 346//346 349//349
f 345//345 372//372 302//302
f 349//349 348//348 373//373
f 350//350 372//372 374//374
f 372//372 350//350 302//302
f 352//352 350//350 374//374
f 375//375 376//376 348//348
f 353//353 375//375 348//348
f 353//353 355//355 375//375
f 310//310 377//377 378//378
f 378//378 318//318 310//310
f 356//356 318//318 378//378
f 359//359 355//355 357//357
f 356//356 379//379 323//323
f 323//323 379//379 358//358
f 380//380 327//327 326//326
f 380//380 359//359 327//327
f 358//358 381//381 360//360
f 324//324 358//358 360//360
f 326//326 360//360 380//380
f 365//365 362//362 361//361
f 382//382 365//365 361//361
f 363//363 383//383 361//361
f 364//364 384//384 385//385
f 384//384 364//364 365//365
f 362//362 365//365 285//285
f 367//367 386//386 383//383
f 366//366 367//367 383//383
f 366//366 383//383 363//363
f 387//387 290//290 364//364
f 387//387 364//364 385//385
f 386//386 367//367 388//388
f 367//367 341//341 388//388
f 389//389 386//386 388//388
f 390//390 386//386 389//389
f 341//341 368//368 388//388
f 388//388 368//368 389//389
f 343//343 387//387 391//391
f 290//290 387//387 343//343
f 390//390 389//389 392//392
f 368//368 370//370 389//389
f 391//391 369//369 343//343
f 393//393 369//369 391//391
f 371//371 393//393 394//394
f 371//371 369//369 393//393
f 389//389 373//373 392//392
f 389//389 370//370 373//373
f 372//372 371//371 374//374
f 395//395 396//396 397//397
f 392//392 397//397 396//396
f 370//370 349//349 373//373
f 373//373 348//348 397//397
f 373//373 397//397 392//392
f 398//398 395//395 376//376
f 397//397 376//376 395//395
f 374//374 399//399 352//352
f 348//348 376//376 397//397
f 375//375 398//398 376//376
f 352//352 399//399 400//400
f 400//400 377//377 352//352
f 377//377 310//310 352//352
f 375//375 401//401 398//398
f 401//401 402//402 403//403
f 375//375 355//355 401//401
f 404//404 356//356 378//378
f 402//402 401//401 405//405
f 401//401 359//359 405//405
f 355//355 359//359 401//401
f 356//356 404//404 379//379
f 358//358 379//379 406//406
f 358//358 406//406 381//381
f 381//381 405//405 380//380
f 381//381 402//402 405//405
f 359//359 380//380 405//405
f 381//381 380//380 360//360
f 407//407 382//382 361//361
f 383//383 408//408 407//407
f 383//383 407//407 361//361
f 384//384 409//409 410//410
f 385//385 384//384 410//410
f 382//382 384//384 365//365
f 382//382 411//411 384//384
f 411//411 409//409 384//384
f 407//407 411//411 382//382
f 383//383 412//412 408//408
f 383//383 413//413 412//412
f 383//383 386//386 413//413
f 385//385 410//410 387//387
f 413//413 386//386 414//414
f 415//415 391//391 387//387
f 386//386 390//390 414//414
f 414//414 390//390 416//416
f 393//393 417//417 418//418
f 417//417 393//393 391//391
f 392//392 396//396 390//390
f 394//394 393//393 418//418
f 396//396 416//416 390//390
f 394//394 419//419 420//420
f 394//394 420//420 371//371
f 371//371 420//420 374//374
f 418//418 419//419 394//394
f 416//416 396//396 395//395
f 421//421 416//416 395//395
f 374//374 420//420 399//399
f 398//398 421//421 395//395
f 420//420 422//422 399//399
f 400//400 399//399 423//423
f 423//423 399//399 422//422
f 398//398 401//401 424//424
f 400//400 423//423 377//377
f 377//377 423//423 378//378
f 423//423 404//404 378//378
f 424//424 403//403 425//425
f 401//401 403//403 424//424
f 425//425 426//426 427//427
f 425//425 403//403 426//426
f 403//403 402//402 426//426
f 379//379 404//404 428//428
f 427//427 426//426 406//406
f 427//427 406//406 428//428
f 428//428 406//406 379//379
f 381//381 406//406 426//426
f 402//402 381//381 426//426
f 411//411 429//429 409//409
f 408//408 411//411 407//407
f 408//408 430//430 411//411
f 430//430 429//429 411//411
f 412//412 431//431 430//430
f 412//412 430//430 408//408
f 412//412 413//413 431//431
f 410//410 415//415 387//387
f 432//432 415//415 410//410
f 432//432 410//410 409//409
f 413//413 414//414 433//433
f 431//431 413//413 433//433
f 415//415 434//434 435//435
f 391//391 415//415 435//435
f 432//432 434//434 415//415
f 433//433 414//414 436//436
f 391//391 435//435 417//417
f 435//435 437//437 417//417
f 414//414 416//416 436//436
f 418//418 417//417 437//437
f 436//436 416//416 438//438
f 437//437 439//439 418//418
f 416//416 440//440 438//438
f 419//419 418//418 439//439
f 438//438 440//440 441//441
f 439//439 442//442 419//419
f 416//416 421//421 440//440
f 419//419 443//443 420//420
f 440//440 421//421 441//441
f 420//420 443//443 422//422
f 443//443 444//444 422//422
f 421//421 445//445 441//441
f 422//422 444//444 423//423
f 424//424 445//445 421//421
f 421//421 398//398 424//424
f 424//424 446//446 445//445
f 447//447 404//404 448//448
f 448//448 404//404 423//423
f 446//446 425//425 449//449
f 424//424 425//425 446//446
f 428//428 404//404 447//447
f 428//428 447//447 427//427
f 427//427 447//447 449//449
f 425//425 427//427 449//449
f 429//429 450//450 409//409
f 450//450 429//429 451//451
f 429//429 430//430 451//451
f 430//430 431//431 451//451
f 432//432 409//409 450//450
f 432//432 450//450 452//452
f 452//452 450//450 453//453
f 451//451 453//453 450//450
f 433//433 453//453 451//451
f 431//431 433//433 451//451
f 434//434 432//432 452//452
f 453//453 454//454 452//452
f 454//454 455//455 452//452
f 456//456 454//454 453//453
f 433//433 436//436 456//456
f 453//453 433//433 456//456
f 434//434 457//457 437//437
f 435//435 434//434 437//437
f 452//452 458//458 434//434
f 458//458 457//457 434//434
f 455//455 458//458 452//452
f 458//458 459//459 457//457
f 459//459 460//460 457//457
f 455//455 461//461 458//458
f 461//461 459//459 458//458
f 454//454 462//462 455//455
f 462//462 461//461 455//455
f 438//438 462//462 456//456
f 456//456 462//462 454//454
f 436//436 438//438 456//456
f 457//457 463//463 439//439
f 437//437 457//457 439//439
f 460//460 463//463 457//457
f 459//459 464//464 460//460
f 461//461 465//465 459//459
f 465//465 464//464 459//459
f 441//441 465//465 462//462
f 462//462 465//465 461//461
f 438//438 441//441 462//462
f 442//442 439//439 463//463
f 442//442 463//463 466//466
f 460//460 464//464 463//463
f 464//464 466//466 463//463
f 442//442 467//467 443//443
f 419//419 442//442 443//443
f 466//466 467//467 442//442
f 441//441 445//445 465//465
f 467//467 468//468 444//444
f 443//443 467//467 444//444
f 466//466 469//469 467//467
f 469//469 468//468 467//467
f 464//464 470//470 466//466
f 470//470 469//469 466//466
f 465//465 470//470 464//464
f 465//465 445//445 470//470
f 444//444 468//468 423//423
f 448//448 423//423 468//468
f 448//448 468//468 447//447
f 447//447 468//468 469//469
f 470//470 447//447 469//469
f 446//446 470//470 445//445
f 470//470 449//449 447//447
f 446//446 449//449 470//470
