# Generated by Visualization Toolkit
v -120.60778045654297 -273.48919677734375 466.749755859375
v -119.61163330078125 -272.95458984375 466.1129455566406
v -121.6858139038086 -273.8005065917969 466.5433044433594
v -124.0820541381836 -274.4280700683594 466.2518005371094
v -127.20328521728516 -274.5628356933594 466.12750244140625
v -121.15524291992188 -274.3592529296875 466.89215087890625
v -125.37030029296875 -275.2615051269531 466.0091247558594
v -129.37608337402344 -275.5874328613281 465.7317199707031
v -129.3953094482422 -274.8846130371094 466.6520080566406
v -132.97116088867188 -275.40216064453125 465.1241149902344
v -131.3587646484375 -274.9702453613281 466.06402587890625
v -133.13560485839844 -274.6175537109375 465.4306640625
v -135.4181671142578 -275.00360107421875 466.3042907714844
v -136.21678161621094 -275.5580139160156 465.65106201171875
v -139.28521728515625 -275.4909973144531 466.2881774902344
v -141.29946899414062 -276.0919494628906 465.996826171875
v -141.81044006347656 -275.9184265136719 466.423583984375
v -125.65579986572266 -275.891845703125 466.3660583496094
v -128.97108459472656 -276.3911437988281 465.80389404296875
v -132.7569122314453 -276.32342529296875 465.27288818359375
v -135.5867919921875 -276.3357238769531 465.4989929199219
v -139.6676025390625 -276.8243103027344 465.9198303222656
v -129.40863037109375 -277.0749816894531 466.0268859863281
v -132.26931762695312 -277.283203125 465.7494201660156
v -119.94812774658203 -274.2922058105469 467.4391174316406
v -123.48579406738281 -274.2266845703125 467.60345458984375
v -125.59589385986328 -274.25054931640625 467.2528991699219
v -128.62100219726562 -274.9145202636719 467.8206787109375
v -131.87738037109375 -274.99664306640625 467.1662292480469
v -135.01734924316406 -275.02655029296875 467.1307373046875
v -140.4380340576172 -275.5716247558594 467.1436462402344
v -125.32125854492188 -276.7190246582031 467.3573913574219
v -127.57646942138672 -277.1949157714844 466.8350830078125
v -142.97434997558594 -277.37353515625 467.67218017578125
v -143.80593872070312 -277.0946960449219 468.39532470703125
v -126.190673828125 -277.57012939453125 468.2206726074219
v -128.0729217529297 -278.4246826171875 468.09454345703125
v -130.34799194335938 -278.70989990234375 467.3213195800781
v -131.58523559570312 -278.4638977050781 466.7945861816406
v -135.91429138183594 -278.2681579589844 466.7945251464844
v -139.98468017578125 -278.1476745605469 467.05621337890625
v -142.03643798828125 -278.02020263671875 467.6474914550781
v -130.26687622070312 -279.3261413574219 468.4830322265625
v -132.13299560546875 -279.07623291015625 467.6910095214844
v -138.7957763671875 -279.1793212890625 468.0340576171875
v -123.22728729248047 -275.3898010253906 468.8841857910156
v -124.79330444335938 -275.5048828125 469.2467346191406
v -123.18024444580078 -276.0815124511719 469.005615234375
v -126.07197570800781 -275.10211181640625 468.8307189941406
v -131.140869140625 -275.42205810546875 468.6795349121094
v -136.4070281982422 -275.63983154296875 468.85400390625
v -140.48240661621094 -275.8336181640625 468.4770812988281
v -143.15989685058594 -276.50634765625 468.617919921875
v -123.13262939453125 -276.2320251464844 468.4640808105469
v -129.2422637939453 -276.1044006347656 470.4472351074219
v -140.37303161621094 -276.2966613769531 469.8442687988281
v -144.5263671875 -277.3709411621094 470.9448547363281
v -145.12437438964844 -277.2574768066406 469.50555419921875
v -126.01480102539062 -278.1246337890625 469.9044494628906
v -124.95478057861328 -277.2535400390625 469.43341064453125
v -125.5591812133789 -277.87371826171875 471.3429260253906
v -127.83875274658203 -279.08380126953125 469.6524963378906
v -144.86575317382812 -278.4634094238281 469.75787353515625
v -145.4381103515625 -277.8611145019531 470.38720703125
v -126.39710235595703 -279.0111083984375 471.390380859375
v -129.77798461914062 -280.0695495605469 470.6575927734375
v -134.21347045898438 -280.3569641113281 470.17437744140625
v -137.80996704101562 -279.8942565917969 469.0792236328125
v -142.6262664794922 -279.90179443359375 469.760009765625
v -143.82015991210938 -278.98907470703125 469.3699035644531
v -124.8075180053711 -276.7089538574219 470.0276794433594
v -125.93474578857422 -276.7333068847656 470.79937744140625
v -127.95567321777344 -276.8586730957031 471.6900634765625
v -139.61447143554688 -277.0809631347656 471.68914794921875
v -144.90716552734375 -278.21038818359375 473.71697998046875
v -125.03280639648438 -278.4583435058594 473.6159362792969
v -126.5150375366211 -277.6778564453125 472.6274108886719
v -125.16292572021484 -278.80621337890625 472.9804992675781
v -130.34193420410156 -277.9139099121094 473.635009765625
v -135.53564453125 -277.86322021484375 473.1910400390625
v -143.9384307861328 -278.3886413574219 474.24359130859375
v -146.68539428710938 -279.06707763671875 471.0643615722656
v -146.66946411132812 -278.2919616699219 471.9984130859375
v -149.54579162597656 -279.3355407714844 472.3040466308594
v -124.77603149414062 -279.4185791015625 474.18218994140625
v -126.9737319946289 -279.8184814453125 472.4522705078125
v -139.2431640625 -280.5946960449219 470.4420471191406
v -141.7681121826172 -280.94500732421875 470.9247741699219
v -145.25328063964844 -279.9563293457031 470.6077880859375
v -148.33494567871094 -279.9888916015625 471.55584716796875
v -149.5771942138672 -280.31329345703125 472.36260986328125
v -128.73995971679688 -280.37701416015625 472.71771240234375
v -135.09521484375 -280.8090515136719 471.9690856933594
v -138.1203155517578 -281.0545959472656 471.9028625488281
v -141.1216278076172 -281.6188659667969 472.3123474121094
v -143.41781616210938 -281.8729248046875 472.53167724609375
v -144.60848999023438 -280.9582824707031 471.158203125
v -148.44883728027344 -281.15679931640625 471.9739074707031
v -147.0371551513672 -282.08795166015625 472.5640869140625
v -123.21124267578125 -278.83587646484375 475.2399597167969
v -125.75028991699219 -278.52777099609375 474.3970642089844
v -127.01080322265625 -278.8714904785156 475.13214111328125
v -141.10214233398438 -278.4740905761719 474.24273681640625
v -134.77735900878906 -278.8443603515625 474.5865173339844
v -146.68185424804688 -278.38958740234375 473.84918212890625
v -148.458984375 -278.6616516113281 473.3851013183594
v -149.9148406982422 -279.2835998535156 473.9613952636719
v -150.60252380371094 -281.0993957519531 474.3216857910156
v -125.56832885742188 -279.82513427734375 474.96807861328125
v -128.78912353515625 -280.4216613769531 473.93359375
v -134.08859252929688 -280.81011962890625 473.3574523925781
v -136.93125915527344 -281.2214050292969 473.4234619140625
v -150.25103759765625 -282.2951354980469 473.98724365234375
v -139.69126892089844 -281.88214111328125 474.9415283203125
v -142.5172576904297 -282.09271240234375 473.78143310546875
v -145.66925048828125 -282.51190185546875 473.3327941894531
v -149.71498107910156 -282.6580505371094 473.94964599609375
v -146.03846740722656 -283.12982177734375 474.85113525390625
v -148.1745147705078 -283.6120910644531 475.3510437011719
v -149.1142120361328 -283.2373962402344 474.65631103515625
v -149.04656982421875 -279.0220031738281 474.7889404296875
v -134.08538818359375 -279.5755615234375 475.2147521972656
v -127.3176498413086 -279.31646728515625 475.4920959472656
v -136.59779357910156 -279.9428405761719 475.9302673339844
v -138.19818115234375 -279.9782409667969 476.1686706542969
v -143.0291290283203 -279.2958984375 475.4815368652344
v -145.4677734375 -279.5348815917969 476.1856689453125
v -146.8589324951172 -279.3131103515625 476.0355224609375
v -148.51988220214844 -279.41839599609375 476.09814453125
v -150.6297149658203 -280.5423889160156 475.2936096191406
v -132.97618103027344 -280.54296875 474.6310729980469
v -135.35585021972656 -280.9019470214844 474.79803466796875
v -137.78492736816406 -281.732666015625 476.26495361328125
v -136.56114196777344 -281.3404235839844 476.71942138671875
v -141.06553649902344 -281.8813781738281 475.8232116699219
v -142.9632568359375 -282.24859619140625 475.221923828125
v -144.89260864257812 -282.82666015625 475.408447265625
v -151.20314025878906 -282.71673583984375 476.4536437988281
v -150.5460968017578 -283.56689453125 476.6609191894531
v -126.27218627929688 -279.6391296386719 475.383544921875
v -133.6403350830078 -280.19036865234375 475.1813049316406
v -135.7548065185547 -280.4593200683594 476.0413513183594
v -140.1349639892578 -280.37371826171875 476.40826416015625
v -143.13027954101562 -280.5827941894531 476.5955810546875
v -144.9363250732422 -280.4954833984375 477.05609130859375
v -150.47720336914062 -280.57635498046875 477.023681640625
v -136.74998474121094 -281.2192687988281 477.8835754394531
v -136.13037109375 -281.6568603515625 478.7872009277344
v -138.9730987548828 -281.2161560058594 477.5743713378906
v -141.13140869140625 -281.14337158203125 476.6212158203125
v -139.50991821289062 -281.6883239746094 477.525390625
v -143.06558227539062 -281.379638671875 476.7489013671875
v -146.68572998046875 -280.6490478515625 477.9132385253906
v -148.3274688720703 -280.56884765625 478.3156433105469
v -149.762451171875 -280.5106506347656 477.93170166015625
v -151.33816528320312 -281.69580078125 476.6396789550781
v -136.5751190185547 -282.0157775878906 479.3824768066406
v -138.13919067382812 -282.1604309082031 478.70001220703125
v -139.5055389404297 -281.9664611816406 477.25830078125
v -142.57162475585938 -281.7952880859375 476.3208923339844
v -144.04603576660156 -282.332763671875 476.52276611328125
v -145.04335021972656 -282.73968505859375 478.4569396972656
v -145.81045532226562 -283.6244812011719 477.89447021484375
v -147.46588134765625 -284.4767150878906 478.89569091796875
v -136.82986450195312 -282.1576843261719 480.3401184082031
v -138.23318481445312 -281.6697692871094 478.52642822265625
v -139.03814697265625 -282.2974548339844 479.42327880859375
v -144.56991577148438 -281.7197570800781 477.4847412109375
v -145.8530731201172 -281.59027099609375 478.4575500488281
v -147.61376953125 -281.5406188964844 479.7830505371094
v -149.2069549560547 -281.870361328125 481.4287109375
v -150.43264770507812 -281.6871643066406 481.1534118652344
v -151.17010498046875 -281.4939880371094 480.02496337890625
v -152.43997192382812 -282.632568359375 478.3211975097656
v -151.96188354492188 -281.75750732421875 478.9625549316406
v -154.62020874023438 -283.242919921875 480.156494140625
v -155.15606689453125 -282.9056701660156 481.5238037109375
v -166.89036560058594 -282.3785400390625 479.9864196777344
v -170.7862548828125 -281.9031677246094 479.83038330078125
v -168.02960205078125 -281.8150329589844 480.3489990234375
v -170.72215270996094 -281.5054626464844 480.35809326171875
v -175.03074645996094 -281.7481689453125 480.0935974121094
v -177.05645751953125 -281.27947998046875 480.2301940917969
v -181.9977569580078 -280.5582580566406 480.9631652832031
v -177.02162170410156 -281.7317199707031 480.6971130371094
v -132.786865234375 -282.22161865234375 481.8768005371094
v -133.0525360107422 -281.8790588378906 480.83648681640625
v -129.58340454101562 -281.4913330078125 481.9960632324219
v -138.82614135742188 -282.7826843261719 481.289306640625
v -137.89015197753906 -282.5153503417969 480.9268493652344
v -140.6669158935547 -282.96441650390625 480.935546875
v -144.82952880859375 -282.942626953125 480.23760986328125
v -146.35879516601562 -282.26171875 480.0575866699219
v -143.6493682861328 -283.2068786621094 480.20166015625
v -151.94638061523438 -283.77496337890625 478.27215576171875
v -153.54788208007812 -283.53533935546875 479.2322998046875
v -161.91973876953125 -283.7059326171875 480.2451477050781
v -165.79702758789062 -283.0388488769531 480.06512451171875
v -165.5559539794922 -282.70672607421875 480.697021484375
v -161.35086059570312 -283.7765808105469 480.7882080078125
v -167.3642578125 -283.0016784667969 479.91162109375
v -171.5682373046875 -282.4474182128906 479.8304138183594
v -173.22125244140625 -283.375244140625 480.8083801269531
v -142.22779846191406 -283.3287048339844 481.013916015625
v -144.5686492919922 -283.5268249511719 479.675048828125
v -144.46568298339844 -283.8786926269531 480.8695983886719
v -146.68490600585938 -284.8666076660156 482.65087890625
v -149.0520477294922 -284.88970947265625 479.9574279785156
v -150.5885009765625 -284.5002746582031 478.7652893066406
v -154.0924530029297 -284.2835388183594 479.84893798828125
v -157.111083984375 -283.7671813964844 481.3257141113281
v -156.52171325683594 -284.1806335449219 480.549560546875
v -159.16395568847656 -284.2872314453125 480.529052734375
v -158.52320861816406 -284.1103820800781 480.7958984375
v -165.2893524169922 -283.6871337890625 480.18408203125
v -171.86044311523438 -283.00018310546875 480.1722412109375
v -149.04241943359375 -285.2984924316406 482.4197082519531
v -152.33084106445312 -285.0495910644531 480.5826416015625
v -154.58583068847656 -284.8751525878906 480.75567626953125
v -158.29949951171875 -284.732421875 481.2039794921875
v -163.70892333984375 -284.1921691894531 480.6219787597656
v -131.2403564453125 -281.93109130859375 482.799072265625
v -135.06719970703125 -282.16064453125 481.3363342285156
v -136.36141967773438 -282.50244140625 481.64501953125
v -153.42027282714844 -282.2149353027344 481.3275451660156
v -169.37950134277344 -281.46832275390625 481.49749755859375
v -173.61582946777344 -281.4409484863281 481.1749572753906
v -176.7339630126953 -281.3314208984375 480.7463073730469
v -177.75149536132812 -281.4557800292969 480.98101806640625
v -137.28765869140625 -282.7002258300781 482.5579528808594
v -139.08241271972656 -282.8258972167969 481.7422790527344
v -144.0535125732422 -283.46966552734375 481.4679870605469
v -146.99826049804688 -282.77581787109375 482.0744323730469
v -154.12562561035156 -282.72967529296875 484.549072265625
v -166.4127960205078 -282.5732727050781 482.0012512207031
v -175.6383056640625 -282.89825439453125 481.4344177246094
v -176.7808837890625 -282.4627990722656 482.1705322265625
v -134.6105499267578 -282.8019714355469 483.5826721191406
v -138.78343200683594 -283.1574401855469 483.4036865234375
v -145.23226928710938 -284.2227478027344 483.3115539550781
v -155.5367431640625 -283.062744140625 483.5321960449219
v -159.5728302001953 -284.1908264160156 481.302978515625
v -168.16098022460938 -284.61175537109375 481.3761901855469
v -175.5544891357422 -284.5491943359375 483.17608642578125
v -154.7656707763672 -285.4808349609375 482.7363586425781
v -156.2087860107422 -285.30950927734375 482.1764221191406
v -161.03651428222656 -284.3702697753906 481.356201171875
v -159.3397979736328 -284.734619140625 481.761474609375
v -164.0203399658203 -284.57806396484375 481.5823059082031
v -167.3972930908203 -285.21246337890625 482.61083984375
v -133.26821899414062 -282.422607421875 483.46942138671875
v -173.06260681152344 -281.6791687011719 482.5547790527344
v -175.64419555664062 -281.8602600097656 482.2148132324219
v -188.95944213867188 -280.61865234375 484.9606628417969
v -186.6964111328125 -281.7895202636719 484.65679931640625
v -190.94651794433594 -279.4924011230469 484.6954345703125
v -188.05067443847656 -281.4644775390625 484.77374267578125
v -190.74667358398438 -280.89739990234375 485.31689453125
v -135.29501342773438 -283.0679931640625 485.7630920410156
v -145.5074920654297 -283.5203552246094 482.56585693359375
v -147.7991485595703 -283.9676208496094 485.91668701171875
v -151.41812133789062 -282.78839111328125 485.1438293457031
v -153.21994018554688 -282.9403076171875 485.9041442871094
v -165.28152465820312 -283.37493896484375 483.1152038574219
v -167.90109252929688 -282.7362060546875 483.9784851074219
v -170.0596466064453 -282.59521484375 484.520263671875
v -172.94459533691406 -282.391357421875 484.6213684082031
v -175.36477661132812 -282.7235107421875 485.0646667480469
v -176.8656005859375 -282.9268493652344 484.83734130859375
v -177.56654357910156 -283.68499755859375 483.4991149902344
v -177.97337341308594 -283.1606750488281 484.0923156738281
v -180.23025512695312 -283.42779541015625 484.7616271972656
v -181.09339904785156 -283.5935974121094 484.6802978515625
v -183.75318908691406 -282.71685791015625 484.62158203125
v -183.14170837402344 -283.43475341796875 485.3000183105469
v -186.74432373046875 -282.8529357910156 486.11962890625
v -187.19140625 -282.0924377441406 485.355712890625
v -144.4217071533203 -284.5675048828125 485.4662780761719
v -146.36376953125 -283.8852844238281 484.5568542480469
v -157.77723693847656 -284.2234802246094 483.07342529296875
v -159.3040771484375 -284.5046081542969 482.0644226074219
v -158.72080993652344 -285.223388671875 483.850341796875
v -163.50653076171875 -284.1650695800781 482.7565612792969
v -172.13157653808594 -284.8536682128906 482.50970458984375
v -179.98619079589844 -284.3211364746094 484.9185485839844
v -144.85244750976562 -284.83349609375 485.6932373046875
v -143.2772674560547 -284.7470397949219 486.93780517578125
v -148.23463439941406 -285.2889099121094 484.4685974121094
v -153.0857696533203 -285.52923583984375 483.8408508300781
v -157.58575439453125 -285.989501953125 484.77935791015625
v -157.18496704101562 -285.99676513671875 485.8836669921875
v -158.11509704589844 -285.7333984375 484.0582275390625
v -160.1172637939453 -285.98388671875 485.7892761230469
v -161.27919006347656 -286.3813171386719 486.29351806640625
v -162.22244262695312 -286.2383117675781 486.6055603027344
v -163.35362243652344 -284.58233642578125 482.4412536621094
v -165.30026245117188 -285.2877502441406 483.7015380859375
v -168.25941467285156 -285.9865417480469 484.7450256347656
v -171.08546447753906 -285.6094970703125 483.7502136230469
v -174.45916748046875 -285.5372619628906 484.32452392578125
v -176.90878295898438 -285.5186462402344 485.2944030761719
v -190.77464294433594 -280.2796936035156 485.90234375
v -137.06251525878906 -283.3674621582031 487.0469665527344
v -155.00965881347656 -283.5093078613281 485.8654479980469
v -179.87002563476562 -283.48724365234375 485.4145812988281
v -183.3518829345703 -283.19976806640625 485.4386901855469
v -187.2366943359375 -282.3929138183594 486.07470703125
v -189.05123901367188 -282.2882080078125 486.24127197265625
v -189.64064025878906 -282.1421203613281 486.6098327636719
v -145.8403778076172 -284.52313232421875 486.6723937988281
v -149.26657104492188 -284.2136535644531 486.9088439941406
v -157.56622314453125 -284.7111511230469 485.0172424316406
v -164.689208984375 -285.1052551269531 484.83172607421875
v -166.26754760742188 -284.9871520996094 486.3641662597656
v -169.2592010498047 -284.3146667480469 486.87835693359375
v -173.30323791503906 -283.5391540527344 486.6112976074219
v -176.48367309570312 -283.4727783203125 486.5430603027344
v -182.9185028076172 -284.1263122558594 486.56964111328125
v -183.722900390625 -283.65557861328125 486.21533203125
v -184.5959930419922 -284.02880859375 487.17486572265625
v -146.28004455566406 -284.9931945800781 486.5387878417969
v -154.4773406982422 -285.49267578125 485.2747802734375
v -158.4534912109375 -285.5325927734375 485.906494140625
v -161.96560668945312 -286.4276428222656 487.0445861816406
v -163.70767211914062 -286.010986328125 486.3633728027344
v -165.0654754638672 -285.8503112792969 485.6034851074219
v -165.24871826171875 -286.2194519042969 486.6531677246094
v -175.03668212890625 -286.2080383300781 486.0782470703125
v -178.32424926757812 -285.7784729003906 487.0942687988281
v -159.09446716308594 -286.3771667480469 487.0184631347656
v -172.87954711914062 -286.37933349609375 486.6076354980469
v -181.85287475585938 -284.0261535644531 486.6606750488281
v -153.21884155273438 -283.8598937988281 486.9168395996094
v -155.6278839111328 -284.2731628417969 486.4840087890625
v -155.83950805664062 -284.76226806640625 486.8370666503906
v -171.60354614257812 -284.6159973144531 487.5949401855469
v -176.83485412597656 -284.30963134765625 487.7049560546875
v -153.57044982910156 -285.1223449707031 486.5405578613281
v -157.0389862060547 -285.5377197265625 486.5738220214844
v -166.26947021484375 -285.6969909667969 487.202392578125
v -170.48257446289062 -285.3334045410156 487.98699951171875
v -179.9590301513672 -285.6534729003906 488.3038635253906
v -180.52655029296875 -285.03375244140625 487.1456604003906
v -166.6404266357422 -286.27008056640625 487.1701965332031
v -172.1791534423828 -286.31451416015625 487.5087585449219
v -176.93994140625 -285.9674987792969 487.9144287109375
v -180.40992736816406 -286.0994873046875 489.5060729980469
v -187.72442626953125 -282.7342834472656 486.753662109375
v -147.7565155029297 -284.79962158203125 487.02142333984375
v -152.4530487060547 -284.56976318359375 487.1551208496094
v -175.89590454101562 -284.9700012207031 488.1605529785156
v -178.96966552734375 -285.1448669433594 488.32562255859375
v -180.62191772460938 -284.7867126464844 487.51361083984375
v -168.9426727294922 -285.90545654296875 487.771240234375
v -171.8724822998047 -286.03985595703125 487.9819030761719
v -175.59768676757812 -285.6519470214844 488.1714172363281
v -177.82550048828125 -285.5090026855469 488.5881042480469
v -181.82032775878906 -286.21783447265625 489.8039245605469
vn -0.05525524169206619 0.8433901071548462 0.5344530344009399
vn 0.19910748302936554 0.5972931385040283 -0.7769151926040649
vn -0.12610037624835968 0.8130409717559814 -0.5683864951133728
vn 0.12349579483270645 0.045098572969436646 -0.9913197755813599
vn -0.08721055090427399 0.705513596534729 -0.7033100128173828
vn 0.2515011727809906 -0.531105637550354 -0.8091192841529846
vn 0.14541999995708466 -0.13475751876831055 -0.9801497459411621
vn 0.08594292402267456 0.34880703687667847 -0.9332456588745117
vn -0.09420385211706161 0.9782919883728027 -0.18458180129528046
vn 0.06436557322740555 0.1969580352306366 -0.9782968163490295
vn 0.17437785863876343 0.8846156597137451 -0.4324900209903717
vn -0.013967829756438732 0.9344170093536377 -0.3559069335460663
vn -0.17140822112560272 0.964008092880249 -0.20324279367923737
vn -0.1694614142179489 0.5374541282653809 -0.8260908126831055
vn -0.1383059173822403 0.9346812963485718 -0.3274787962436676
vn -0.3089045584201813 0.07043014466762543 -0.9484817981719971
vn -0.5417895913124084 0.6941307783126831 -0.473969042301178
vn 0.23876610398292542 -0.5283223986625671 -0.8147798776626587
vn 0.1851208209991455 -0.29166659712791443 -0.9384353756904602
vn 0.028126003220677376 -0.2964972257614136 -0.9546194672584534
vn -0.09001357853412628 -0.16422878205776215 -0.982306718826294
vn -0.13787920773029327 -0.4989480674266815 -0.8555934429168701
vn 0.201778843998909 -0.5732187032699585 -0.7941698431968689
vn 0.022668564692139626 -0.5139971375465393 -0.8574923276901245
vn 0.7697386145591736 -0.5317758917808533 0.353152871131897
vn -0.082986019551754 0.9136462807655334 0.3979496359825134
vn -0.1243106871843338 0.9710115790367126 0.20416505634784698
vn -0.09859496355056763 0.9597347974777222 0.2630364000797272
vn -0.004972213413566351 0.9869481325149536 0.16096174716949463
vn -0.07297337800264359 0.9811186194419861 0.17911195755004883
vn -0.17901921272277832 0.9823472499847412 0.05427774414420128
vn 0.3364335894584656 -0.7621474266052246 -0.5531216859817505
vn 0.2978329658508301 -0.6830984950065613 -0.6668373346328735
vn -0.5650365352630615 -0.3329499065876007 -0.7549026608467102
vn -0.7144659161567688 0.21445195376873016 -0.6659945845603943
vn 0.411254346370697 -0.8228366374969482 -0.39218568801879883
vn 0.3254636824131012 -0.8059417605400085 -0.49450111389160156
vn 0.1915995329618454 -0.7862446308135986 -0.5874597430229187
vn 0.05832498520612717 -0.7320324778556824 -0.678768515586853
vn -0.04647180810570717 -0.7133053541183472 -0.6993109583854675
vn -0.15520556271076202 -0.6868094205856323 -0.7100732922554016
vn -0.31017738580703735 -0.6002303957939148 -0.7372336983680725
vn 0.17609141767024994 -0.8927133679389954 -0.4147946834564209
vn 0.021315278485417366 -0.853599488735199 -0.5204936265945435
vn -0.05996887385845184 -0.8041273951530457 -0.5914245247840881
vn 0.24506503343582153 0.46971574425697327 0.8481215834617615
vn 0.13932408392429352 0.6864017248153687 0.7137517929077148
vn 0.5991721153259277 -0.4439411759376526 0.6662649512290955
vn -0.0053785694763064384 0.8567992448806763 0.515622079372406
vn -0.04865548014640808 0.9380618929862976 0.34303414821624756
vn -0.04756070300936699 0.9331063628196716 0.356441468000412
vn -0.14627961814403534 0.9556814432144165 0.25549015402793884
vn -0.37500685453414917 0.9270214438438416 0.0011013757903128862
vn 0.4893486797809601 -0.8668379783630371 -0.0955502912402153
vn -0.023288384079933167 0.8856655359268188 0.46373942494392395
vn -0.06522750109434128 0.9256402254104614 0.3727407157421112
vn -0.31782591342926025 0.9315363764762878 0.17671076953411102
vn -0.7816503047943115 0.5202945470809937 -0.3439715504646301
vn 0.5852196216583252 -0.7730723023414612 -0.24469822645187378
vn 0.6351007223129272 -0.7700446248054504 0.06065020337700844
vn 0.9918295741081238 -0.07109712064266205 0.10592138767242432
vn 0.38158684968948364 -0.8491405248641968 -0.36517372727394104
vn -0.6165480017662048 -0.25147372484207153 -0.7460761070251465
vn -0.7811402678489685 0.5136597156524658 -0.354927659034729
vn 0.6142930388450623 -0.6934945583343506 -0.3764430582523346
vn 0.19913281500339508 -0.9331581592559814 -0.2992691099643707
vn 0.06027401611208916 -0.9447500705718994 -0.3222024738788605
vn -0.012350913137197495 -0.8715984225273132 -0.4900651276111603
vn -0.18945163488388062 -0.7010880708694458 -0.6874472498893738
vn -0.38577526807785034 -0.541528046131134 -0.7469437122344971
vn 0.6244850754737854 0.12397661805152893 0.7711343765258789
vn 0.3736753761768341 0.6690894961357117 0.6424064040184021
vn 0.10595376789569855 0.8495907187461853 0.5166909694671631
vn -0.02047215774655342 0.8920576572418213 0.4514577388763428
vn -0.0725509375333786 0.9252805709838867 0.37227970361709595
vn 0.5414156317710876 0.8405410051345825 -0.018975315615534782
vn 0.30708250403404236 0.8603586554527283 0.40679651498794556
vn 0.8295904397964478 -0.22888298332691193 -0.5093057751655579
vn -0.013187129981815815 0.8442087769508362 0.5358521342277527
vn -0.01713564619421959 0.8503761887550354 0.5258961915969849
vn -0.006868511438369751 0.87615567445755 0.48197948932647705
vn -0.5231205821037292 0.2561793327331543 -0.8128450512886047
vn -0.4223962724208832 0.8800551295280457 -0.21698954701423645
vn -0.6492642164230347 0.5146189332008362 -0.5600208044052124
vn 0.47038885951042175 -0.8268167972564697 -0.3083963692188263
vn 0.35112738609313965 -0.8885390162467957 -0.2953101396560669
vn 0.026019899174571037 -0.8990278244018555 -0.4371177852153778
vn -0.016715124249458313 -0.8442944288253784 -0.5356189608573914
vn -0.31383052468299866 -0.39956551790237427 -0.8613117337226868
vn -0.4096776247024536 -0.06454342603683472 -0.9099441766738892
vn -0.6918278932571411 -0.16833001375198364 -0.7021675705909729
vn 0.16948792338371277 -0.9758147597312927 -0.13805590569972992
vn 0.09446334093809128 -0.9845466017723083 -0.14746102690696716
vn 0.09354257583618164 -0.9606912732124329 -0.26138490438461304
vn 0.10538913309574127 -0.9476190209388733 -0.3015151023864746
vn 0.05981196090579033 -0.8944597840309143 -0.44313010573387146
vn -0.09409818053245544 -0.7132001519203186 -0.6946157813072205
vn -0.3248630166053772 -0.5075743794441223 -0.7980177998542786
vn -0.050083309412002563 -0.8085625171661377 -0.5862749814987183
vn 0.6611425280570984 0.3075745105743408 0.6843161582946777
vn 0.08059674501419067 0.9407806396484375 0.32929614186286926
vn 0.004229831509292126 0.800977885723114 0.5986790657043457
vn 0.01783701963722706 0.8340850472450256 0.5513473153114319
vn 0.012078567408025265 0.7562737464904785 0.6541438102722168
vn -0.14998923242092133 0.9594460129737854 0.23867680132389069
vn -0.3053281307220459 0.9522258043289185 -0.006390145048499107
vn -0.7197639346122742 0.6939055919647217 -0.020858654752373695
vn -0.9377312660217285 0.08792474120855331 -0.33604973554611206
vn 0.21984906494617462 -0.9524962306022644 0.2107541561126709
vn 0.101341113448143 -0.9896672964096069 0.10143329203128815
vn 0.10784608125686646 -0.9940125346183777 0.01756145805120468
vn 0.1571529507637024 -0.9804536700248718 -0.11837916821241379
vn -0.7010228037834167 -0.4602414667606354 -0.5447429418563843
vn 0.07711732387542725 -0.9931158423423767 -0.088169626891613
vn 0.15695686638355255 -0.9792832732200623 -0.12794075906276703
vn 0.1460743248462677 -0.9210615754127502 -0.36098191142082214
vn -0.33432066440582275 -0.7558882236480713 -0.5629056692123413
vn 0.27112504839897156 -0.9298564195632935 -0.2487131506204605
vn -0.009323940612375736 -0.9364379048347473 -0.35070958733558655
vn -0.16315805912017822 -0.8851596713066101 -0.43574288487434387
vn -0.303618460893631 0.9190816283226013 0.2512068748474121
vn 0.08410888910293579 0.4536271095275879 0.8872137069702148
vn -0.011184298433363438 0.1737586259841919 0.984724760055542
vn 0.1679108887910843 0.7101464867591858 0.6837381720542908
vn 0.0007430727710016072 0.7627248167991638 0.6467227339744568
vn 0.06668208539485931 0.730040431022644 0.6801429986953735
vn 0.0895310789346695 0.8137162327766418 0.5743257999420166
vn 0.03090454451739788 0.877242386341095 0.47905194759368896
vn -0.1715710312128067 0.9062197208404541 0.3864312171936035
vn -0.8885396718978882 0.45440149307250977 -0.06337685137987137
vn 0.094561867415905 -0.9164035320281982 0.3889251947402954
vn 0.32855817675590515 -0.9156803488731384 0.23147143423557281
vn 0.24384644627571106 -0.9614488482475281 -0.12710246443748474
vn 0.746253490447998 -0.6649261713027954 0.03128863498568535
vn -0.09965749830007553 -0.9326311349868774 0.3467961549758911
vn 0.24721603095531464 -0.9574154615402222 0.14913038909435272
vn 0.38813820481300354 -0.9199218153953552 -0.05561197176575661
vn -0.8266178369522095 -0.3075481653213501 -0.47129306197166443
vn -0.4224744141101837 -0.8064969778060913 -0.41361579298973083
vn 0.08458821475505829 -0.6034857630729675 0.7928743958473206
vn 0.14880096912384033 -0.49924761056900024 0.8535866141319275
vn 0.6421806812286377 -0.10315867513418198 0.7595803141593933
vn -0.07505060732364655 0.5878031849861145 0.8055152297019958
vn 0.16353653371334076 0.3924376368522644 0.9051235318183899
vn 0.29137468338012695 0.5988965034484863 0.7459381818771362
vn -0.5776601433753967 0.8001688122749329 0.16136512160301208
vn 0.26180991530418396 0.8359533548355103 0.48232516646385193
vn 0.49807000160217285 0.8612854480743408 0.10056627541780472
vn -0.2490597814321518 0.6744886636734009 0.6950067281723022
vn -0.1425207108259201 -0.11651857942342758 0.982909619808197
vn -0.7102393507957458 0.07500839233398438 0.6999527215957642
vn 0.2899048924446106 -0.2995520830154419 0.908968448638916
vn 0.23282113671302795 0.7704111933708191 0.5935157537460327
vn 0.0694148987531662 0.8883544206619263 0.45388105511665344
vn -0.22142043709754944 0.9232113361358643 0.31409212946891785
vn -0.8981614112854004 0.36486372351646423 -0.24531719088554382
vn 0.23038320243358612 -0.938583254814148 -0.25687581300735474
vn 0.04721323028206825 -0.9903232455253601 -0.13050232827663422
vn -0.3994831144809723 -0.9070203304290771 0.13314419984817505
vn 0.21600858867168427 -0.7704861760139465 0.5997427701950073
vn 0.5209055542945862 -0.7220863699913025 0.4552457928657532
vn 0.9884358644485474 0.06349463015794754 0.13770613074302673
vn 0.5329075455665588 -0.8126964569091797 -0.23565684258937836
vn 0.22462867200374603 -0.9539990425109863 -0.19856442511081696
vn -0.13982878625392914 0.9187666177749634 0.3692096173763275
vn -0.24611292779445648 0.8656477332115173 0.4359845221042633
vn -0.8884982466697693 0.31024953722953796 0.33810675144195557
vn 0.5814080238342285 0.15336915850639343 0.7990260720252991
vn 0.5104268193244934 0.6034960150718689 0.612582266330719
vn 0.31747451424598694 0.8334930539131165 0.4522159695625305
vn 0.18977732956409454 0.9087491035461426 0.3716983199119568
vn -0.03726840764284134 0.9567158818244934 0.2886277735233307
vn -0.2827936112880707 0.9454385042190552 0.16178350150585175
vn -0.775163471698761 0.13822738826274872 -0.6164534687995911
vn -0.5788509845733643 0.7967180013656616 -0.1737011820077896
vn -0.5603337287902832 0.46169617772102356 -0.6876502633094788
vn -0.4240468740463257 0.8904796838760376 -0.1650160700082779
vn 0.24634608626365662 0.548478364944458 -0.7990526556968689
vn 0.02947157248854637 0.3818184435367584 -0.9237673878669739
vn 0.2120799571275711 0.9122467637062073 -0.3504682779312134
vn 0.05991560220718384 0.955764651298523 -0.2879655361175537
vn -0.14127062261104584 -0.31222352385520935 -0.9394461512565613
vn -0.11971132457256317 0.4511735141277313 -0.8843708038330078
vn -0.24228046834468842 -0.0969025120139122 0.9653549194335938
vn -0.35017627477645874 -0.8476293087005615 -0.3986240327358246
vn 0.18642236292362213 -0.9637879133224487 -0.19068215787410736
vn 0.3732740879058838 0.3092662990093231 -0.8746546506881714
vn 0.2802416682243347 -0.9274579882621765 -0.24756090342998505
vn 0.13077938556671143 -0.955432653427124 -0.2646607756614685
vn -0.07887277007102966 0.9553892016410828 0.2846236228942871
vn -0.17676429450511932 0.3105042576789856 -0.9339922666549683
vn 0.2941040098667145 0.9354854226112366 0.19588257372379303
vn 0.4661516845226288 0.8174737095832825 0.33828890323638916
vn 0.6370972990989685 0.556845486164093 -0.5329448580741882
vn -0.5279502868652344 -0.5417643189430237 -0.6540335416793823
vn -0.5967243313789368 -0.14278613030910492 -0.7896406054496765
vn 0.17178048193454742 0.6266586184501648 -0.7601253390312195
vn 0.19487318396568298 0.3045505881309509 -0.932348370552063
vn 0.31871503591537476 0.931689441204071 -0.17428594827651978
vn 0.2345849722623825 0.910998523235321 0.33919253945350647
vn 0.027325168251991272 -0.17386919260025024 -0.98438960313797
vn -0.06533729285001755 -0.23461580276489258 -0.9698899388313293
vn -0.2141670137643814 -0.706482470035553 -0.6745479702949524
vn 0.38622474670410156 -0.8135548830032349 -0.4346940219402313
vn 0.564922034740448 -0.5965002179145813 -0.5701320767402649
vn 0.3838678002357483 -0.9213318228721619 -0.061589840799570084
vn 0.2931024730205536 -0.9477174878120422 -0.12618491053581238
vn 0.04061233997344971 -0.9721680283546448 -0.2307380735874176
vn -0.17117373645305634 -0.9005903005599976 -0.3995456397533417
vn -0.35045725107192993 -0.5592594146728516 -0.7512713074684143
vn -0.30700963735580444 0.9258618950843811 -0.22028367221355438
vn -0.22348177433013916 0.07325577735900879 -0.971951425075531
vn 0.03731541335582733 -0.3157584071159363 -0.9481055736541748
vn 0.03638783097267151 0.9532181620597839 -0.3000850975513458
vn -0.010597625747323036 -0.4890832006931305 -0.8721727728843689
vn -0.10887409001588821 -0.5856184363365173 -0.8032419085502625
vn 0.09190092235803604 -0.9889815449714661 -0.11605913192033768
vn -0.062321849167346954 -0.9408332705497742 -0.333089679479599
vn -0.1052074059844017 -0.8536584377288818 -0.5100968480110168
vn -0.14636334776878357 -0.9181327223777771 -0.36825278401374817
vn -0.016031796112656593 -0.9023409485816956 -0.4307248592376709
vn 0.013649963773787022 0.9154250025749207 0.4022570550441742
vn -0.14335833489894867 0.9720924496650696 0.1857006996870041
vn -0.26054996252059937 -0.8823609352111816 -0.3918582797050476
vn -0.3194310963153839 0.9472362995147705 0.02659471705555916
vn 0.1514463722705841 0.9728044867515564 0.1752583384513855
vn -0.008333111181855202 0.9905580282211304 0.13684047758579254
vn 0.050889622420072556 0.9382928609848022 0.34207719564437866
vn -0.40420547127723694 0.15642264485359192 0.9011936187744141
vn -0.1361895650625229 0.983048141002655 0.12275484204292297
vn -0.2009308785200119 0.9577831029891968 0.20561692118644714
vn 0.47841864824295044 0.6895373463630676 0.5437406897544861
vn 0.30567288398742676 0.8886973261833191 0.3417327105998993
vn -0.2336883693933487 0.9508968591690063 0.20294077694416046
vn 0.2979731261730194 0.9268432855606079 0.22841565310955048
vn -0.43279924988746643 -0.6776795983314514 -0.5945042371749878
vn -0.9675151705741882 0.09071080386638641 -0.23597900569438934
vn 0.1607128083705902 -0.9765057563781738 -0.1435544490814209
vn -0.31453511118888855 -0.9397962093353271 0.13360680639743805
vn 0.9442861676216125 -0.2969745099544525 0.14187954366207123
vn -0.41702842712402344 0.898993968963623 0.13378016650676727
vn -0.14728128910064697 0.9239557385444641 0.35300707817077637
vn -0.06519796699285507 -0.8144950270652771 -0.5764955878257751
vn -0.26912721991539 -0.7430180907249451 -0.6127762794494629
vn 0.028518158942461014 -0.9882092475891113 -0.15043000876903534
vn -0.05512528866529465 -0.9498476386070251 -0.30781611800193787
vn 0.04770258441567421 -0.7220728993415833 0.690170407295227
vn -0.4640938937664032 -0.8780763745307922 0.11661376804113388
vn 0.10092398524284363 -0.964277982711792 -0.24491313099861145
vn 0.04364864528179169 -0.934282660484314 -0.3538513779640198
vn 0.45244553685188293 -0.8490394353866577 0.272809773683548
vn -0.04785243049263954 0.9625598192214966 0.26681244373321533
vn -0.18104824423789978 0.9165173172950745 0.35667580366134644
vn 0.45845064520835876 0.7789283394813538 0.4278945326805115
vn 0.36046937108039856 0.7024752497673035 0.6136696338653564
vn 0.5517734885215759 0.5971028208732605 0.5822493433952332
vn 0.08677979558706284 -0.847491443157196 0.5236674547195435
vn 0.851958692073822 -0.39170318841934204 -0.3474695086479187
vn 0.48743847012519836 -0.02372013032436371 0.872835099697113
vn 0.42037326097488403 0.800889790058136 0.42645278573036194
vn 0.20456400513648987 0.9111103415489197 0.3578149378299713
vn 0.13224439322948456 0.9142137169837952 0.3830467462539673
vn -0.06441269814968109 0.886940598487854 0.4573701322078705
vn 0.3701601028442383 0.808895468711853 0.4568037688732147
vn 0.266365647315979 0.8609273433685303 0.43342065811157227
vn 0.12458395212888718 0.8733810186386108 0.47083383798599243
vn 0.014590580016374588 0.9118969440460205 0.4101599156856537
vn -0.11436764895915985 0.9341325759887695 0.33810725808143616
vn -0.2405681312084198 0.9481708407402039 0.2076033353805542
vn -0.5234023332595825 -0.13514618575572968 -0.8412999510765076
vn -0.4251125156879425 0.8687034845352173 -0.25423160195350647
vn -0.03910853713750839 0.9443506598472595 -0.32660746574401855
vn -0.22251150012016296 -0.27480825781822205 -0.9353978633880615
vn -0.011114305816590786 0.2750813961029053 -0.9613566994667053
vn -0.1758238524198532 -0.8625168204307556 -0.47450050711631775
vn -0.23055480420589447 -0.7930191159248352 -0.5638840198516846
vn 0.39431652426719666 0.8337317705154419 0.3865305185317993
vn 0.7488356828689575 0.6361607909202576 -0.1858617514371872
vn 0.334195613861084 0.9049067497253418 0.26354703307151794
vn -0.44527509808540344 0.8480620384216309 0.28726473450660706
vn -0.6458096504211426 0.4379933774471283 0.6253733038902283
vn -0.9833394885063171 0.16300983726978302 0.08044362813234329
vn 0.6023818254470825 0.42337751388549805 0.6766738891601562
vn -0.13294203579425812 -0.8371499180793762 -0.5305719375610352
vn -0.2906681001186371 -0.7628780007362366 -0.577519953250885
vn 0.273427277803421 -0.9449828863143921 -0.17956852912902832
vn 0.39856481552124023 -0.7509419918060303 0.5265284776687622
vn 0.10262247174978256 -0.9947170615196228 0.0025741986464709044
vn 0.022963840514421463 -0.9996939301490784 -0.009203121066093445
vn 0.03870333358645439 -0.9812700748443604 -0.1887090802192688
vn 0.2418038249015808 -0.9562430381774902 0.16471263766288757
vn -0.36841100454330444 -0.7960185408592224 -0.4802371859550476
vn -0.4815417230129242 0.7820158004760742 -0.39568790793418884
vn -0.18404366075992584 -0.6970906853675842 -0.6929593682289124
vn -0.023820143193006516 0.9971868395805359 -0.0710710659623146
vn 0.47513964772224426 -0.8431206941604614 0.25177326798439026
vn 0.26207977533340454 -0.9342573881149292 -0.24182093143463135
vn 0.03539882227778435 -0.9615033268928528 -0.2725038528442383
vn -0.05419475957751274 -0.9173682332038879 -0.3943330645561218
vn -0.14743532240390778 -0.8757297992706299 -0.4597392678260803
vn -0.22923849523067474 -0.8758974671363831 -0.42456257343292236
vn 0.7855184674263 0.6149706840515137 0.06907838582992554
vn -0.26627618074417114 0.9364371299743652 0.22843506932258606
vn -0.36599501967430115 0.8187705874443054 0.44233739376068115
vn -0.05351652577519417 0.9760993719100952 0.2106325328350067
vn 0.16184744238853455 0.894153892993927 0.41748571395874023
vn 0.35579872131347656 0.7806500792503357 0.5138023495674133
vn -0.30752551555633545 -0.8369993567466736 -0.45261475443840027
vn -0.017057694494724274 -0.6356244683265686 -0.771809995174408
vn 0.12354713678359985 0.8919861316680908 0.4348527491092682
vn 0.10227597504854202 0.6724147796630859 0.7330743670463562
vn -0.5115652680397034 0.8080797791481018 0.292075514793396
vn 0.9458357095718384 -0.2939305603504181 0.13783933222293854
vn 0.3767754137516022 0.7559819221496582 0.5352864861488342
vn 0.1871427446603775 0.7444990277290344 0.6408579349517822
vn 0.06181210279464722 0.80873703956604 0.584913432598114
vn -0.07053274661302567 0.8982503414154053 0.43378746509552
vn -0.4013177156448364 -0.8286451697349548 -0.3902452886104584
vn 0.07428809255361557 -0.38084784150123596 0.9216486811637878
vn -0.20546340942382812 -0.8833844661712646 -0.42120856046676636
vn 0.05248293653130531 -0.978100597858429 0.2014070302248001
vn 0.0928722620010376 -0.9826267957687378 0.16068416833877563
vn -0.3474750518798828 0.8289197683334351 0.43835288286209106
vn 0.022924434393644333 0.4839639663696289 0.8747876286506653
vn 0.4751523435115814 0.8690280318260193 -0.13791516423225403
vn 0.3158973753452301 -0.8625413775444031 -0.39526113867759705
vn 0.02545836567878723 -0.9634669423103333 -0.2666146159172058
vn -0.105502650141716 -0.9674106240272522 -0.23018671572208405
vn -0.2515081763267517 -0.9289678931236267 -0.27159225940704346
vn 0.15892095863819122 -0.8445939421653748 0.5112780928611755
vn -0.025275420397520065 -0.9989696741104126 -0.03769255056977272
vn -0.03229924663901329 0.8621864914894104 0.5055602788925171
vn -0.12601377069950104 0.5857925415039062 0.8006045818328857
vn -0.37468796968460083 0.7317550778388977 0.5693359971046448
vn -0.22672010958194733 0.14117057621479034 0.9636746644973755
vn 0.0849190503358841 0.6607991456985474 0.745743453502655
vn -0.028381096199154854 0.7191355228424072 0.6942899823188782
vn 0.02963392250239849 -0.8278307914733887 0.5601945519447327
vn 0.05824314430356026 -0.4722554683685303 0.879535436630249
vn 0.22347956895828247 0.6734168529510498 0.7046748995780945
vn 0.12568706274032593 0.3082072138786316 0.9429799318313599
vn -0.7903038859367371 -0.612662672996521 -0.008015801198780537
vn -0.4220978319644928 -0.9042299389839172 -0.06482072174549103
vn -0.0021061219740659 -0.9754332900047302 0.22028514742851257
vn 0.005084482952952385 -0.9283407926559448 0.37169551849365234
vn 0.023817777633666992 -0.9378938674926758 0.3461039364337921
vn -0.2352548986673355 -0.8890795111656189 0.39267393946647644
vn 0.20617708563804626 -0.17445296049118042 -0.9628381133079529
vn 0.03949645906686783 -0.25279685854911804 0.9667128920555115
vn -0.016097912564873695 -0.13895300030708313 0.9901681542396545
vn 0.06110113486647606 0.36373260617256165 0.9294973611831665
vn -0.13610266149044037 0.7197971343994141 0.680711567401886
vn -0.37305542826652527 0.35590681433677673 0.856831431388855
vn 0.10476168245077133 -0.4102133810520172 0.9059525728225708
vn 0.03935474157333374 -0.4330098628997803 0.900529682636261
vn 0.05929563567042351 -0.4864329993724823 0.8717035055160522
vn 0.18365581333637238 0.05206692963838577 0.9816107153892517
vn 0.005667997058480978 -0.9382340312004089 -0.34595486521720886
f 1//1 2//2 3//3
f 3//3 4//4 5//5
f 3//3 2//2 6//6
f 4//4 3//3 6//6
f 7//7 4//4 6//6
f 4//4 7//7 5//5
f 8//8 5//5 7//7
f 9//9 5//5 8//8
f 8//8 10//10 11//11
f 9//9 8//8 11//11
f 12//12 11//11 10//10
f 13//13 12//12 14//14
f 14//14 12//12 10//10
f 13//13 14//14 15//15
f 14//14 16//16 15//15
f 15//15 16//16 17//17
f 8//8 7//7 18//18
f 19//19 8//8 18//18
f 8//8 19//19 10//10
f 20//20 10//10 19//19
f 14//14 10//10 21//21
f 21//21 10//10 20//20
f 22//22 16//16 21//21
f 21//21 16//16 14//14
f 19//19 23//23 24//24
f 20//20 19//19 24//24
f 21//21 20//20 24//24
f 22//22 21//21 24//24
f 25//25 2//2 1//1
f 3//3 26//26 1//1
f 3//3 27//27 26//26
f 5//5 27//27 3//3
f 5//5 9//9 27//27
f 6//6 2//2 25//25
f 6//6 18//18 7//7
f 9//9 28//28 27//27
f 11//11 29//29 9//9
f 9//9 29//29 28//28
f 12//12 29//29 11//11
f 30//30 29//29 12//12
f 13//13 30//30 12//12
f 15//15 30//30 13//13
f 15//15 31//31 30//30
f 17//17 31//31 15//15
f 32//32 6//6 25//25
f 18//18 6//6 32//32
f 18//18 33//33 19//19
f 32//32 33//33 18//18
f 33//33 23//23 19//19
f 16//16 34//34 17//17
f 34//34 35//35 17//17
f 33//33 32//32 36//36
f 37//37 33//33 36//36
f 37//37 38//38 33//33
f 33//33 38//38 23//23
f 23//23 38//38 39//39
f 23//23 39//39 24//24
f 39//39 40//40 24//24
f 24//24 40//40 22//22
f 40//40 41//41 22//22
f 16//16 22//22 42//42
f 42//42 22//22 41//41
f 42//42 34//34 16//16
f 38//38 37//37 43//43
f 40//40 39//39 44//44
f 45//45 40//40 44//44
f 41//41 40//40 45//45
f 25//25 1//1 46//46
f 1//1 26//26 47//47
f 46//46 1//1 47//47
f 48//48 25//25 46//46
f 49//49 47//47 26//26
f 27//27 49//49 26//26
f 28//28 49//49 27//27
f 49//49 28//28 50//50
f 28//28 29//29 50//50
f 29//29 30//30 50//50
f 50//50 30//30 51//51
f 30//30 31//31 52//52
f 51//51 30//30 52//52
f 31//31 17//17 53//53
f 52//52 31//31 53//53
f 25//25 48//48 54//54
f 25//25 54//54 32//32
f 50//50 55//55 49//49
f 51//51 55//55 50//50
f 56//56 51//51 52//52
f 57//57 52//52 53//53
f 53//53 17//17 35//35
f 53//53 35//35 58//58
f 59//59 60//60 61//61
f 36//36 60//60 59//59
f 36//36 54//54 60//60
f 36//36 32//32 54//54
f 36//36 62//62 37//37
f 59//59 62//62 36//36
f 39//39 38//38 44//44
f 34//34 63//63 35//35
f 64//64 58//58 63//63
f 63//63 58//58 35//35
f 59//59 61//61 65//65
f 62//62 59//59 65//65
f 37//37 62//62 43//43
f 43//43 62//62 66//66
f 44//44 38//38 43//43
f 44//44 43//43 67//67
f 67//67 68//68 44//44
f 68//68 45//45 44//44
f 42//42 41//41 69//69
f 41//41 45//45 69//69
f 34//34 42//42 70//70
f 70//70 42//42 69//69
f 63//63 34//34 70//70
f 47//47 71//71 46//46
f 71//71 48//48 46//46
f 49//49 72//72 47//47
f 72//72 71//71 47//47
f 49//49 55//55 73//73
f 49//49 73//73 72//72
f 55//55 51//51 74//74
f 51//51 56//56 74//74
f 52//52 57//57 75//75
f 56//56 52//52 75//75
f 57//57 53//53 58//58
f 60//60 54//54 48//48
f 60//60 48//48 71//71
f 76//76 61//61 77//77
f 76//76 78//78 61//61
f 77//77 61//61 72//72
f 60//60 71//71 61//61
f 72//72 61//61 71//71
f 73//73 77//77 72//72
f 79//79 73//73 55//55
f 80//80 79//79 55//55
f 74//74 80//80 55//55
f 81//81 74//74 56//56
f 75//75 81//81 56//56
f 58//58 64//64 57//57
f 82//82 83//83 64//64
f 57//57 64//64 83//83
f 82//82 84//84 83//83
f 65//65 85//85 86//86
f 65//65 78//78 85//85
f 65//65 61//61 78//78
f 65//65 86//86 62//62
f 86//86 66//66 62//62
f 66//66 67//67 43//43
f 67//67 87//87 68//68
f 68//68 87//87 45//45
f 45//45 88//88 69//69
f 87//87 88//88 45//45
f 70//70 89//89 63//63
f 69//69 89//89 70//70
f 63//63 82//82 64//64
f 63//63 89//89 82//82
f 84//84 82//82 90//90
f 90//90 82//82 89//89
f 90//90 91//91 84//84
f 86//86 85//85 92//92
f 66//66 86//86 92//92
f 67//67 66//66 92//92
f 93//93 67//67 92//92
f 94//94 67//67 93//93
f 87//87 67//67 94//94
f 95//95 87//87 94//94
f 88//88 87//87 95//95
f 95//95 96//96 88//88
f 89//89 69//69 97//97
f 97//97 69//69 88//88
f 90//90 89//89 98//98
f 98//98 89//89 97//97
f 98//98 91//91 90//90
f 97//97 88//88 96//96
f 99//99 97//97 96//96
f 98//98 97//97 99//99
f 100//100 78//78 76//76
f 100//100 76//76 101//101
f 77//77 101//101 76//76
f 73//73 102//102 77//77
f 77//77 102//102 101//101
f 73//73 79//79 102//102
f 103//103 104//104 80//80
f 103//103 80//80 74//74
f 74//74 81//81 103//103
f 83//83 105//105 57//57
f 57//57 105//105 75//75
f 84//84 106//106 83//83
f 83//83 106//106 105//105
f 84//84 107//107 106//106
f 78//78 100//100 85//85
f 108//108 107//107 84//84
f 91//91 108//108 84//84
f 92//92 85//85 109//109
f 92//92 109//109 110//110
f 93//93 92//92 111//111
f 92//92 110//110 111//111
f 94//94 93//93 112//112
f 93//93 111//111 112//112
f 112//112 95//95 94//94
f 98//98 113//113 91//91
f 113//113 108//108 91//91
f 95//95 112//112 114//114
f 115//115 95//95 114//114
f 96//96 95//95 115//115
f 99//99 96//96 116//116
f 96//96 115//115 116//116
f 99//99 117//117 98//98
f 117//117 113//113 98//98
f 116//116 118//118 119//119
f 99//99 116//116 119//119
f 120//120 99//99 119//119
f 117//117 99//99 120//120
f 101//101 102//102 100//100
f 79//79 80//80 104//104
f 102//102 79//79 104//104
f 105//105 106//106 121//121
f 121//121 106//106 107//107
f 85//85 100//100 109//109
f 122//122 123//123 102//102
f 104//104 122//122 102//102
f 124//124 122//122 104//104
f 125//125 124//124 104//104
f 104//104 103//103 125//125
f 103//103 126//126 125//125
f 81//81 126//126 103//103
f 127//127 126//126 81//81
f 75//75 127//127 81//81
f 128//128 127//127 75//75
f 105//105 128//128 75//75
f 129//129 128//128 105//105
f 121//121 129//129 105//105
f 130//130 107//107 108//108
f 110//110 109//109 131//131
f 111//111 110//110 131//131
f 111//111 131//131 132//132
f 133//133 132//132 134//134
f 133//133 112//112 132//132
f 112//112 111//111 132//132
f 112//112 133//133 114//114
f 115//115 114//114 135//135
f 115//115 135//135 136//136
f 116//116 115//115 137//137
f 115//115 136//136 137//137
f 137//137 118//118 116//116
f 113//113 138//138 108//108
f 113//113 117//117 139//139
f 139//139 117//117 120//120
f 138//138 113//113 139//139
f 100//100 102//102 123//123
f 109//109 100//100 140//140
f 140//140 100//100 123//123
f 140//140 123//123 141//141
f 123//123 122//122 141//141
f 122//122 124//124 142//142
f 141//141 122//122 142//142
f 125//125 126//126 143//143
f 143//143 126//126 144//144
f 126//126 127//127 145//145
f 144//144 126//126 145//145
f 121//121 107//107 146//146
f 129//129 121//121 146//146
f 107//107 130//130 146//146
f 131//131 109//109 140//140
f 141//141 131//131 140//140
f 132//132 131//131 141//141
f 142//142 132//132 141//141
f 147//147 142//142 124//124
f 147//147 134//134 142//142
f 147//147 148//148 134//134
f 132//132 142//142 134//134
f 125//125 147//147 124//124
f 149//149 147//147 125//125
f 143//143 149//149 125//125
f 149//149 150//150 151//151
f 149//149 143//143 150//150
f 152//152 150//150 144//144
f 150//150 143//143 144//144
f 153//153 145//145 127//127
f 128//128 153//153 127//127
f 154//154 153//153 128//128
f 129//129 154//154 128//128
f 155//155 154//154 129//129
f 146//146 155//155 129//129
f 146//146 130//130 156//156
f 156//156 130//130 108//108
f 134//134 148//148 157//157
f 133//133 134//134 157//157
f 114//114 133//133 158//158
f 133//133 157//157 158//158
f 114//114 158//158 159//159
f 151//151 150//150 135//135
f 151//151 135//135 159//159
f 159//159 135//135 114//114
f 150//150 152//152 160//160
f 150//150 160//160 135//135
f 135//135 160//160 136//136
f 137//137 136//136 161//161
f 136//136 160//160 161//161
f 162//162 137//137 161//161
f 108//108 138//138 156//156
f 137//137 162//162 163//163
f 118//118 137//137 163//163
f 119//119 118//118 164//164
f 118//118 163//163 164//164
f 120//120 119//119 139//139
f 148//148 147//147 165//165
f 149//149 166//166 147//147
f 147//147 166//166 165//165
f 151//151 167//167 166//166
f 151//151 166//166 149//149
f 144//144 145//145 168//168
f 152//152 144//144 168//168
f 145//145 153//153 169//169
f 168//168 145//145 169//169
f 153//153 154//154 170//170
f 169//169 153//153 170//170
f 171//171 170//170 154//154
f 171//171 154//154 172//172
f 172//172 154//154 155//155
f 146//146 173//173 155//155
f 155//155 173//173 172//172
f 156//156 174//174 175//175
f 156//156 175//175 146//146
f 146//146 175//175 173//173
f 174//174 176//176 175//175
f 175//175 176//176 177//177
f 178//178 179//179 180//180
f 180//180 179//179 181//181
f 179//179 182//182 183//183
f 181//181 179//179 183//183
f 184//184 183//183 185//185
f 186//186 187//187 188//188
f 157//157 187//187 186//186
f 148//148 187//187 157//157
f 189//189 158//158 190//190
f 191//191 167//167 189//189
f 189//189 167//167 158//158
f 151//151 159//159 167//167
f 158//158 167//167 159//159
f 168//168 161//161 152//152
f 152//152 161//161 160//160
f 192//192 162//162 193//193
f 192//192 194//194 162//162
f 193//193 162//162 169//169
f 161//161 168//168 162//162
f 169//169 162//162 168//168
f 170//170 193//193 169//169
f 174//174 138//138 195//195
f 156//156 138//138 174//174
f 176//176 174//174 196//196
f 196//196 174//174 195//195
f 197//197 198//198 199//199
f 200//200 197//197 199//199
f 178//178 199//199 198//198
f 178//178 198//198 201//201
f 179//179 178//178 201//201
f 202//202 179//179 201//201
f 182//182 179//179 202//202
f 183//183 182//182 203//203
f 185//185 183//183 203//203
f 204//204 191//191 189//189
f 194//194 191//191 204//204
f 205//205 194//194 204//204
f 162//162 194//194 205//205
f 162//162 205//205 163//163
f 163//163 205//205 206//206
f 164//164 206//206 207//207
f 164//164 163//163 206//206
f 164//164 208//208 119//119
f 119//119 209//209 139//139
f 208//208 209//209 119//119
f 139//139 195//195 138//138
f 139//139 209//209 195//195
f 196//196 195//195 210//210
f 210//210 195//195 209//209
f 176//176 196//196 210//210
f 211//211 177//177 176//176
f 211//211 176//176 212//212
f 212//212 176//176 210//210
f 212//212 213//213 214//214
f 211//211 212//212 214//214
f 197//197 214//214 213//213
f 215//215 197//197 213//213
f 215//215 198//198 197//197
f 201//201 198//198 215//215
f 216//216 201//201 215//215
f 202//202 201//201 216//216
f 164//164 207//207 217//217
f 208//208 164//164 217//217
f 218//218 209//209 208//208
f 210//210 209//209 218//218
f 219//219 210//210 218//218
f 212//212 210//210 219//219
f 220//220 212//212 219//219
f 213//213 212//212 220//220
f 221//221 213//213 220//220
f 215//215 213//213 221//221
f 187//187 222//222 188//188
f 148//148 223//223 187//187
f 187//187 223//223 222//222
f 165//165 224//224 223//223
f 165//165 223//223 148//148
f 165//165 166//166 190//190
f 166//166 167//167 190//190
f 173//173 175//175 225//225
f 175//175 177//177 225//225
f 180//180 199//199 178//178
f 199//199 180//180 226//226
f 226//226 180//180 181//181
f 181//181 227//227 226//226
f 183//183 227//227 181//181
f 183//183 228//228 227//227
f 184//184 228//228 183//183
f 229//229 228//228 184//184
f 186//186 188//188 222//222
f 186//186 224//224 157//157
f 165//165 158//158 224//224
f 157//157 224//224 158//158
f 230//230 190//190 231//231
f 230//230 224//224 190//190
f 158//158 165//165 190//190
f 167//167 231//231 190//190
f 167//167 191//191 231//231
f 192//192 232//232 194//194
f 194//194 232//232 204//204
f 193//193 233//233 192//192
f 192//192 233//233 232//232
f 170//170 233//233 193//193
f 171//171 233//233 170//170
f 234//234 172//172 173//173
f 225//225 234//234 173//173
f 199//199 235//235 200//200
f 226//226 235//235 199//199
f 202//202 216//216 182//182
f 216//216 203//203 182//182
f 203//203 236//236 185//185
f 237//237 185//185 236//236
f 237//237 229//229 185//185
f 184//184 185//185 229//229
f 224//224 186//186 238//238
f 189//189 224//224 238//238
f 190//190 224//224 189//189
f 204//204 189//189 239//239
f 205//205 204//204 206//206
f 207//207 206//206 240//240
f 177//177 211//211 241//241
f 214//214 242//242 211//211
f 200//200 214//214 197//197
f 200//200 242//242 214//214
f 221//221 243//243 215//215
f 243//243 216//216 215//215
f 203//203 216//216 243//243
f 236//236 203//203 244//244
f 218//218 208//208 217//217
f 218//218 217//217 245//245
f 219//219 218//218 245//245
f 219//219 245//245 246//246
f 220//220 219//219 246//246
f 221//221 220//220 247//247
f 220//220 248//248 247//247
f 221//221 247//247 249//249
f 250//250 221//221 249//249
f 243//243 221//221 250//250
f 251//251 222//222 223//223
f 226//226 227//227 252//252
f 227//227 228//228 253//253
f 252//252 227//227 253//253
f 253//253 228//228 229//229
f 254//254 255//255 256//256
f 257//257 255//255 256//256
f 258//258 257//257 256//256
f 223//223 259//259 251//251
f 230//230 259//259 223//223
f 224//224 230//230 223//223
f 239//239 231//231 191//191
f 239//239 191//191 204//204
f 232//232 233//233 260//260
f 233//233 171//171 261//261
f 171//171 172//172 262//262
f 261//261 171//171 262//262
f 262//262 172//172 263//263
f 263//263 172//172 234//234
f 177//177 241//241 225//225
f 225//225 241//241 234//234
f 235//235 264//264 200//200
f 264//264 235//235 265//265
f 265//265 235//235 226//226
f 266//266 265//265 226//226
f 267//267 266//266 226//226
f 252//252 267//267 226//226
f 268//268 267//267 252//252
f 253//253 268//268 252//252
f 269//269 268//268 253//253
f 229//229 237//237 253//253
f 253//253 237//237 269//269
f 270//270 271//271 237//237
f 269//269 237//237 271//271
f 270//270 272//272 271//271
f 273//273 272//272 270//270
f 273//273 274//274 272//272
f 274//274 273//273 275//275
f 255//255 274//274 276//276
f 276//276 274//274 275//275
f 277//277 255//255 276//276
f 222//222 251//251 186//186
f 251//251 238//238 186//186
f 189//189 238//238 239//239
f 232//232 206//206 204//204
f 278//278 240//240 279//279
f 279//279 240//240 260//260
f 206//206 232//232 240//240
f 260//260 240//240 232//232
f 233//233 279//279 260//260
f 261//261 279//279 233//233
f 211//211 280//280 241//241
f 281//281 282//282 280//280
f 281//281 280//280 242//242
f 242//242 280//280 211//211
f 200//200 247//247 242//242
f 200//200 283//283 247//247
f 200//200 264//264 283//283
f 243//243 284//284 203//203
f 284//284 244//244 203//203
f 236//236 270//270 237//237
f 236//236 244//244 270//270
f 285//285 270//270 244//244
f 285//285 273//273 270//270
f 275//275 273//273 285//285
f 286//286 278//278 287//287
f 240//240 278//278 286//286
f 240//240 286//286 207//207
f 217//217 207//207 288//288
f 207//207 286//286 288//288
f 217//217 288//288 289//289
f 245//245 217//217 289//289
f 290//290 245//245 291//291
f 290//290 246//246 245//245
f 246//246 292//292 220//220
f 290//290 292//292 246//246
f 292//292 293//293 282//282
f 292//292 282//282 220//220
f 281//281 248//248 282//282
f 220//220 282//282 248//248
f 294//294 295//295 293//293
f 294//294 293//293 292//292
f 242//242 247//247 281//281
f 281//281 247//247 248//248
f 247//247 296//296 249//249
f 250//250 249//249 297//297
f 249//249 296//296 297//297
f 250//250 297//297 298//298
f 299//299 243//243 250//250
f 284//284 243//243 299//299
f 300//300 284//284 299//299
f 244//244 284//284 300//300
f 301//301 244//244 300//300
f 285//285 244//244 301//301
f 294//294 292//292 290//290
f 256//256 302//302 254//254
f 274//274 255//255 277//277
f 254//254 277//277 255//255
f 302//302 258//258 256//256
f 303//303 231//231 239//239
f 304//304 234//234 241//241
f 272//272 305//305 271//271
f 271//271 305//305 269//269
f 274//274 306//306 272//272
f 272//272 306//306 305//305
f 277//277 306//306 274//274
f 307//307 306//306 277//277
f 257//257 277//277 255//255
f 257//257 277//277 276//276
f 257//257 276//276 308//308
f 258//258 257//257 308//308
f 258//258 308//308 309//309
f 238//238 251//251 259//259
f 238//238 259//259 239//239
f 278//278 310//310 287//287
f 279//279 310//310 278//278
f 279//279 261//261 310//310
f 262//262 311//311 261//261
f 263//263 311//311 262//262
f 241//241 312//312 304//304
f 280//280 312//312 241//241
f 280//280 282//282 312//312
f 283//283 296//296 247//247
f 313//313 283//283 314//314
f 314//314 283//283 264//264
f 265//265 314//314 264//264
f 315//315 314//314 265//265
f 266//266 315//315 265//265
f 316//316 315//315 266//266
f 267//267 316//316 266//266
f 317//317 316//316 267//267
f 268//268 317//317 267//267
f 285//285 318//318 275//275
f 318//318 319//319 275//275
f 276//276 275//275 320//320
f 275//275 319//319 320//320
f 288//288 286//286 321//321
f 289//289 288//288 322//322
f 288//288 321//321 322//322
f 245//245 289//289 322//322
f 322//322 291//291 245//245
f 282//282 323//323 312//312
f 282//282 293//293 323//323
f 293//293 324//324 323//323
f 293//293 295//295 324//324
f 325//325 295//295 294//294
f 296//296 313//313 297//297
f 296//296 283//283 313//313
f 297//297 313//313 326//326
f 326//326 313//313 325//325
f 297//297 327//327 298//298
f 326//326 327//327 297//297
f 250//250 298//298 299//299
f 299//299 328//328 300//300
f 298//298 328//328 299//299
f 328//328 301//301 300//300
f 285//285 301//301 329//329
f 318//318 285//285 329//329
f 290//290 291//291 330//330
f 294//294 290//290 330//330
f 325//325 294//294 327//327
f 326//326 325//325 327//327
f 331//331 298//298 327//327
f 328//328 298//298 331//331
f 254//254 307//307 277//277
f 254//254 302//302 307//307
f 303//303 259//259 230//230
f 231//231 303//303 230//230
f 263//263 234//234 304//304
f 269//269 317//317 268//268
f 269//269 305//305 317//317
f 317//317 305//305 332//332
f 305//305 306//306 332//332
f 332//332 306//306 319//319
f 319//319 306//306 307//307
f 258//258 302//302 309//309
f 259//259 303//303 239//239
f 261//261 311//311 310//310
f 263//263 333//333 311//311
f 304//304 333//333 263//263
f 334//334 333//333 304//304
f 304//304 312//312 334//334
f 334//334 312//312 323//323
f 335//335 334//334 323//323
f 336//336 315//315 316//316
f 317//317 337//337 316//316
f 316//316 337//337 336//336
f 332//332 337//337 317//317
f 319//319 318//318 332//332
f 320//320 319//319 318//318
f 308//308 276//276 320//320
f 309//309 308//308 320//320
f 286//286 287//287 321//321
f 322//322 321//321 338//338
f 291//291 322//322 339//339
f 322//322 338//338 339//339
f 330//330 339//339 323//323
f 323//323 339//339 335//335
f 323//323 324//324 330//330
f 325//325 324//324 295//295
f 314//314 325//325 313//313
f 314//314 340//340 325//325
f 340//340 324//324 325//325
f 315//315 340//340 314//314
f 341//341 340//340 315//315
f 336//336 341//341 315//315
f 328//328 329//329 301//301
f 342//342 343//343 329//329
f 343//343 318//318 329//329
f 320//320 318//318 343//343
f 339//339 330//330 291//291
f 327//327 294//294 324//324
f 294//294 330//330 324//324
f 327//327 324//324 344//344
f 331//331 327//327 345//345
f 327//327 344//344 345//345
f 328//328 331//331 346//346
f 346//346 331//331 345//345
f 329//329 328//328 346//346
f 347//347 329//329 346//346
f 342//342 329//329 347//347
f 302//302 348//348 307//307
f 319//319 307//307 348//348
f 348//348 319//319 320//320
f 348//348 309//309 302//302
f 287//287 310//310 349//349
f 310//310 311//311 349//349
f 311//311 333//333 350//350
f 349//349 311//311 350//350
f 333//333 334//334 335//335
f 350//350 333//333 335//335
f 341//341 336//336 351//351
f 336//336 337//337 351//351
f 351//351 337//337 352//352
f 337//337 332//332 353//353
f 352//352 337//337 353//353
f 332//332 318//318 320//320
f 353//353 332//332 320//320
f 348//348 320//320 309//309
f 349//349 321//321 287//287
f 338//338 321//321 349//349
f 350//350 338//338 349//349
f 335//335 338//338 350//350
f 339//339 338//338 335//335
f 324//324 340//340 354//354
f 340//340 341//341 354//354
f 354//354 341//341 355//355
f 351//351 355//355 341//341
f 356//356 355//355 351//351
f 352//352 357//357 351//351
f 357//357 356//356 351//351
f 347//347 357//357 352//352
f 353//353 342//342 352//352
f 353//353 343//343 342//342
f 352//352 342//342 347//347
f 358//358 342//342 347//347
f 353//353 320//320 343//343
f 354//354 344//344 324//324
f 345//345 344//344 354//354
f 355//355 345//345 354//354
f 356//356 345//345 355//355
f 346//346 345//345 356//356
f 357//357 346//346 356//356
f 357//357 347//347 346//346
