# Generated by Visualization Toolkit
v -201.5271759033203 -140.9248504638672 283.73382568359375
v -202.94091796875 -142.1611328125 283.1912536621094
v -203.56161499023438 -140.11856079101562 284.2247619628906
v -204.7605438232422 -140.52401733398438 284.2024841308594
v -181.6247100830078 -143.58279418945312 283.1307678222656
v -180.41102600097656 -142.55780029296875 284.0912170410156
v -179.66957092285156 -144.46490478515625 283.34326171875
v -184.53280639648438 -143.75387573242188 282.6332092285156
v -183.3390350341797 -141.94068908691406 283.7717590332031
v -192.85365295410156 -143.60708618164062 282.8739929199219
v -193.941162109375 -142.02487182617188 283.65692138671875
v -188.95640563964844 -144.07872009277344 282.7779541015625
v -197.49923706054688 -143.39013671875 282.667724609375
v -196.6431121826172 -141.9768524169922 283.63909912109375
v -200.23146057128906 -142.2416229248047 283.19866943359375
v -204.82640075683594 -142.81817626953125 283.362548828125
v -203.17681884765625 -144.8585662841797 282.3233642578125
v -182.87454223632812 -144.88211059570312 282.41961669921875
v -191.29762268066406 -145.0226593017578 282.4438171386719
v -198.2667236328125 -144.4412841796875 282.23370361328125
v -204.6923828125 -145.97958374023438 282.6229553222656
v -205.64292907714844 -145.06065368652344 283.2860412597656
v -179.0434112548828 -144.26144409179688 283.9856262207031
v -178.60873413085938 -146.06288146972656 284.3883972167969
v -180.9418487548828 -146.1641082763672 282.6585998535156
v -184.6111297607422 -146.80335998535156 281.9119873046875
v -190.67259216308594 -146.37039184570312 282.13739013671875
v -198.71792602539062 -146.0337371826172 281.83526611328125
v -203.58384704589844 -146.37071228027344 282.2480163574219
v -179.31747436523438 -146.4094696044922 283.52764892578125
v -180.00502014160156 -147.84347534179688 283.24652099609375
v -182.47682189941406 -147.70892333984375 282.3520812988281
v -191.78485107421875 -147.91143798828125 281.8917236328125
v -199.32530212402344 -147.88925170898438 281.6293640136719
v -201.89613342285156 -148.10145568847656 281.82452392578125
v -205.89544677734375 -147.8728485107422 283.4507141113281
v -206.4358673095703 -147.495361328125 284.0582275390625
v -181.62680053710938 -149.6865997314453 283.31329345703125
v -180.25656127929688 -149.97799682617188 284.66998291015625
v -184.2149200439453 -149.97564697265625 282.5457458496094
v -186.3631134033203 -149.7637939453125 282.01043701171875
v -190.68222045898438 -149.4990692138672 281.78509521484375
v -199.98394775390625 -150.96969604492188 281.58795166015625
v -203.2860107421875 -151.19407653808594 282.1411437988281
v -204.65733337402344 -149.5501708984375 282.77276611328125
v -184.46536254882812 -151.2459259033203 283.1480712890625
v -190.67189025878906 -150.80477905273438 281.906494140625
v -205.6014404296875 -151.17852783203125 283.6770324707031
v -189.30726623535156 -152.19805908203125 282.55511474609375
v -191.40676879882812 -152.51846313476562 282.2079162597656
v -196.21478271484375 -153.6433563232422 281.7290954589844
v -202.5261993408203 -154.28182983398438 281.9593811035156
v -204.6400604248047 -153.5172576904297 282.720947265625
v -188.6233673095703 -152.87579345703125 283.1684875488281
v -185.62986755371094 -152.3458251953125 283.7421875
v -190.18971252441406 -153.85777282714844 283.6397399902344
v -192.15455627441406 -154.56320190429688 282.93621826171875
v -195.86415100097656 -155.5554962158203 282.0463562011719
v -203.87799072265625 -154.68499755859375 282.2303771972656
v -205.6166229248047 -153.9925537109375 283.7939453125
v -196.30052185058594 -157.73631286621094 282.5914306640625
v -201.11851501464844 -155.1703338623047 282.15008544921875
v -205.8309326171875 -156.43064880371094 282.9919738769531
v -192.63796997070312 -155.98394775390625 283.9729309082031
v -194.9690704345703 -158.0077362060547 283.4976501464844
v -198.17984008789062 -156.9017333984375 282.6486511230469
v -201.6868896484375 -156.7750244140625 282.92742919921875
v -204.5939178466797 -156.46812438964844 282.5411376953125
v -196.6792449951172 -158.7993621826172 282.89453125
v -196.7977294921875 -158.7850799560547 283.1180725097656
v -198.7222442626953 -158.0679931640625 284.0189514160156
v -200.50445556640625 -157.962158203125 283.8697509765625
v -202.7003631591797 -157.61460876464844 284.074462890625
v -204.97804260253906 -157.3351593017578 283.15301513671875
v -185.9109649658203 -140.33912658691406 284.73150634765625
v -185.4785919189453 -139.251708984375 285.5906677246094
v -183.52281188964844 -139.96554565429688 285.2261047363281
v -192.03750610351562 -140.5048828125 284.69451904296875
v -195.18556213378906 -140.699462890625 284.7498474121094
v -193.10763549804688 -139.56781005859375 285.7655029296875
v -193.9406280517578 -139.57424926757812 286.3161315917969
v -203.65054321289062 -138.56521606445312 285.4957580566406
v -205.76214599609375 -138.42723083496094 285.794677734375
v -180.8914337158203 -141.10134887695312 285.2143859863281
v -182.66908264160156 -139.69583129882812 285.9143371582031
v -199.3904571533203 -141.36090087890625 284.00732421875
v -198.68173217773438 -140.9782257080078 284.9419860839844
v -196.6534423828125 -141.05990600585938 284.9183349609375
v -200.55799865722656 -139.9949951171875 285.0486755371094
v -205.8226318359375 -141.83755493164062 284.3382568359375
v -206.68040466308594 -139.0685272216797 285.8269348144531
v -179.40133666992188 -142.66075134277344 284.6605529785156
v -188.3489532470703 -142.11077880859375 283.71234130859375
v -179.03460693359375 -142.5734405517578 285.7666931152344
v -178.17051696777344 -145.15179443359375 285.5643310546875
v -206.29261779785156 -143.9757843017578 284.22357177734375
v -206.7301025390625 -143.0629425048828 285.18963623046875
v -206.99766540527344 -146.36143493652344 285.4579162597656
v -178.98635864257812 -148.8422088623047 285.19281005859375
v -206.19349670410156 -152.2119140625 284.8281555175781
v -206.777099609375 -148.92666625976562 285.400634765625
v -206.47410583496094 -151.89935302734375 285.73907470703125
v -182.85467529296875 -152.56600952148438 285.34515380859375
v -183.8253936767578 -153.1357421875 285.96844482421875
v -187.71604919433594 -153.2281494140625 284.35797119140625
v -189.90676879882812 -154.3004150390625 284.82879638671875
v -205.63272094726562 -155.12149047851562 284.871337890625
v -192.00430297851562 -155.7686004638672 285.2591857910156
v -205.66305541992188 -156.85894775390625 283.4017639160156
v -204.5248565673828 -157.2703857421875 284.52996826171875
v -204.9149627685547 -155.77761840820312 285.89910888671875
v -193.63613891601562 -156.8421173095703 285.9861755371094
v -195.67080688476562 -158.2532501220703 284.3285217285156
v -198.33242797851562 -158.0799102783203 285.3954162597656
v -201.857421875 -158.09519958496094 285.3036804199219
v -187.8180389404297 -138.18972778320312 287.15142822265625
v -184.96241760253906 -138.044677734375 287.156982421875
v -187.94314575195312 -138.4249725341797 286.4029846191406
v -191.06129455566406 -137.570556640625 287.23150634765625
v -190.56138610839844 -138.45660400390625 286.21875
v -202.00999450683594 -138.55569458007812 286.2772216796875
v -202.581298828125 -137.50331115722656 287.2640075683594
v -201.4815216064453 -139.18646240234375 286.797119140625
v -204.90184020996094 -137.94497680664062 286.50537109375
v -207.8356475830078 -137.2914581298828 286.71783447265625
v -207.07493591308594 -139.49813842773438 286.201171875
v -181.9363555908203 -140.15126037597656 286.40673828125
v -191.48757934570312 -137.82723999023438 287.35845947265625
v -199.64630126953125 -140.42213439941406 285.9600830078125
v -207.16934204101562 -140.13034057617188 286.8867492675781
v -180.08363342285156 -140.60507202148438 286.6251525878906
v -180.27301025390625 -140.58236694335938 286.8537292480469
v -196.92396545410156 -140.9996337890625 286.1790466308594
v -198.66958618164062 -140.95567321777344 286.13946533203125
v -207.07012939453125 -144.3539581298828 286.26885986328125
v -178.00193786621094 -144.94569396972656 286.5965576171875
v -178.73390197753906 -143.47482299804688 286.2914123535156
v -178.36634826660156 -144.80506896972656 287.159423828125
v -206.91595458984375 -142.19256591796875 287.293701171875
v -207.36685180664062 -146.60328674316406 286.8194580078125
v -178.0977020263672 -147.94056701660156 286.3468322753906
v -178.19259643554688 -149.0275115966797 287.16546630859375
v -206.89906311035156 -147.66281127929688 286.426025390625
v -206.36814880371094 -150.9023895263672 286.5736389160156
v -180.6510467529297 -151.88876342773438 286.9087219238281
v -181.8859100341797 -152.79359436035156 287.38568115234375
v -182.3966827392578 -153.0520782470703 287.0052185058594
v -188.3817138671875 -153.76516723632812 285.6159973144531
v -205.58607482910156 -153.76356506347656 285.97406005859375
v -205.71177673339844 -152.1483154296875 286.9524841308594
v -187.3113555908203 -153.44509887695312 286.7198486328125
v -189.5550537109375 -154.06263732910156 286.7998352050781
v -191.11326599121094 -155.0660400390625 286.2440185546875
v -203.6448211669922 -156.99908447265625 285.86663818359375
v -204.03343200683594 -155.5625457763672 286.7685241699219
v -197.1161346435547 -157.61619567871094 286.3126525878906
v -198.4349365234375 -157.8070831298828 286.88751220703125
v -200.15045166015625 -157.74671936035156 286.3899230957031
v -201.76983642578125 -157.5399627685547 286.7939453125
v -183.5086669921875 -140.19290161132812 287.4082946777344
v -185.8011474609375 -139.74905395507812 287.9007568359375
v -187.80899047851562 -138.7165069580078 287.699462890625
v -190.7281951904297 -139.38125610351562 288.01092529296875
v -202.25936889648438 -139.3968048095703 287.56494140625
v -203.8207550048828 -139.3025360107422 287.9207763671875
v -204.9467315673828 -138.23826599121094 287.35626220703125
v -207.28549194335938 -137.56170654296875 286.9545593261719
v -193.65756225585938 -140.8225860595703 287.8951416015625
v -194.4907989501953 -140.43594360351562 287.4073181152344
v -195.17051696777344 -140.37582397460938 286.8553771972656
v -200.79446411132812 -140.76348876953125 287.3059387207031
v -202.2093505859375 -141.83779907226562 288.1836242675781
v -205.51919555664062 -139.5476837158203 287.8368225097656
v -179.34579467773438 -143.62950134277344 287.3289489746094
v -180.9345703125 -142.73728942871094 287.8185729980469
v -181.93824768066406 -141.2969512939453 287.4888916015625
v -184.4419403076172 -141.80105590820312 288.02496337890625
v -190.26734924316406 -141.1381378173828 288.2293395996094
v -197.0572967529297 -141.5252227783203 287.2086486816406
v -199.19247436523438 -141.76345825195312 287.3536071777344
v -203.45420837402344 -142.49783325195312 288.44293212890625
v -205.46563720703125 -141.45127868652344 288.1759948730469
v -186.74008178710938 -143.8700408935547 288.3092041015625
v -195.34873962402344 -144.13555908203125 288.27459716796875
v -196.45323181152344 -143.5025177001953 288.1641845703125
v -197.25584411621094 -142.91094970703125 287.9580383300781
v -199.95591735839844 -143.28009033203125 288.093505859375
v -179.63648986816406 -145.87527465820312 288.18426513671875
v -182.1484375 -145.2418212890625 288.4384765625
v -199.8317413330078 -144.7377471923828 288.3799133300781
v -201.64134216308594 -145.90554809570312 288.56494140625
v -203.798828125 -145.54202270507812 288.4881286621094
v -205.2017059326172 -145.2866668701172 288.2213134765625
v -206.3182373046875 -143.67530822753906 287.6602478027344
v -178.3789825439453 -147.9746551513672 287.6680603027344
v -193.26661682128906 -147.70159912109375 288.2741394042969
v -206.2638397216797 -146.3672637939453 287.6674499511719
v -179.639892578125 -148.72622680664062 288.21636962890625
v -180.86228942871094 -147.79449462890625 288.5093078613281
v -184.02731323242188 -147.48281860351562 288.6175231933594
v -187.93743896484375 -149.4616241455078 288.49365234375
v -201.74830627441406 -148.1571807861328 288.5611267089844
v -179.06385803222656 -149.9248809814453 287.490966796875
v -180.055908203125 -150.080810546875 288.04937744140625
v -182.39578247070312 -150.13766479492188 288.5022888183594
v -192.76315307617188 -151.7897491455078 288.405517578125
v -204.60670471191406 -151.0895538330078 287.8932800292969
v -205.91033935546875 -149.2715301513672 287.37554931640625
v -188.91952514648438 -150.89437866210938 288.3919677734375
v -198.12046813964844 -152.4548797607422 288.5107421875
v -201.52923583984375 -151.7281036376953 288.44622802734375
v -203.41529846191406 -151.60006713867188 288.16583251953125
v -182.53460693359375 -151.95333862304688 287.9812316894531
v -187.80894470214844 -152.031005859375 288.122314453125
v -190.34530639648438 -152.27392578125 288.2212219238281
v -188.70407104492188 -153.14529418945312 287.5714111328125
v -191.70509338378906 -153.65835571289062 287.9782409667969
v -197.02281188964844 -154.31036376953125 288.36474609375
v -201.4024658203125 -153.6255645751953 288.298828125
v -202.9119873046875 -154.33486938476562 287.7980041503906
v -204.74237060546875 -152.84033203125 287.313720703125
v -192.16595458984375 -155.32447814941406 286.9744567871094
v -193.98611450195312 -155.9579315185547 287.2187805175781
v -196.59588623046875 -155.961181640625 287.7784729003906
v -198.22976684570312 -155.72512817382812 288.0469970703125
v -201.2451629638672 -155.40000915527344 287.9538269042969
v -200.1737518310547 -156.62400817871094 287.5096435546875
vn 0.12098925560712814 0.5806450247764587 -0.8051167726516724
vn -0.08295466005802155 0.37710973620414734 -0.9224461317062378
vn -0.06815315037965775 0.5380069613456726 -0.8401806950569153
vn -0.3059557378292084 0.4010745882987976 -0.8634409308433533
vn 0.1977933645248413 0.42388930916786194 -0.8838527798652649
vn 0.3156736195087433 0.5596355199813843 -0.7662625908851624
vn 0.4902036488056183 0.25037696957588196 -0.8348723649978638
vn 0.018279841169714928 0.39082565903663635 -0.9202831983566284
vn 0.11524402350187302 0.5548346638679504 -0.823940098285675
vn 0.04173571616411209 0.3988804817199707 -0.9160526394844055
vn 0.015493088401854038 0.5343409180641174 -0.8451271057128906
vn -0.0018064153846353292 0.365164190530777 -0.9309414625167847
vn 0.04023291543126106 0.44545823335647583 -0.8943982720375061
vn 0.006342864129692316 0.7124567031860352 -0.7016874551773071
vn 0.05668334290385246 0.49209845066070557 -0.8686922192573547
vn -0.3726828098297119 0.26822271943092346 -0.8883491158485413
vn -0.1612403839826584 0.204136922955513 -0.9655722379684448
vn 0.16670213639736176 0.23759415745735168 -0.956953227519989
vn 0.044206660240888596 0.28516507148742676 -0.95745849609375
vn 0.003817593678832054 0.32448115944862366 -0.9458845257759094
vn -0.4165921211242676 0.07278411835432053 -0.9061751961708069
vn -0.6391609907150269 0.11813320219516754 -0.7599459290504456
vn 0.8226835131645203 0.252290278673172 -0.509452223777771
vn 0.8468151688575745 -0.062384068965911865 -0.5282163023948669
vn 0.3206557035446167 0.016033776104450226 -0.9470601081848145
vn 0.07106167823076248 0.07611799985170364 -0.9945634007453918
vn 0.005572468042373657 0.2205132097005844 -0.975368082523346
vn -0.004178846720606089 0.1735312044620514 -0.9848195314407349
vn -0.2873981297016144 0.03442518040537834 -0.9571923613548279
vn 0.677870512008667 -0.10542704164981842 -0.7275828719139099
vn 0.5394567251205444 -0.3031030297279358 -0.7855666875839233
vn 0.25284749269485474 -0.1892574578523636 -0.9488149285316467
vn 0.016291946172714233 0.11090918630361557 -0.9936970472335815
vn -0.015016614459455013 0.07360830903053284 -0.9971742033958435
vn -0.14217589795589447 0.05466337129473686 -0.9883309006690979
vn -0.6838629245758057 -0.06243221089243889 -0.7269344925880432
vn -0.8679437637329102 -0.019048865884542465 -0.49629712104797363
vn 0.3950257897377014 -0.4846850633621216 -0.7804069519042969
vn 0.5930205583572388 -0.5847975015640259 -0.5534785985946655
vn 0.24843516945838928 -0.3668919801712036 -0.8964765667915344
vn 0.13435372710227966 -0.251254677772522 -0.9585511088371277
vn 0.03511444851756096 -0.014552890323102474 -0.9992774128913879
vn -0.039275504648685455 -0.015667017549276352 -0.9991056323051453
vn -0.3306897282600403 0.013365971855819225 -0.9436448812484741
vn -0.5007175207138062 -0.030407801270484924 -0.86507648229599
vn 0.2649571895599365 -0.5566219091415405 -0.7873815894126892
vn 0.12358538061380386 -0.1959291249513626 -0.9727992415428162
vn -0.7589905261993408 -0.05088340491056442 -0.6491103768348694
vn 0.21675044298171997 -0.46328675746917725 -0.8592931032180786
vn 0.24860988557338715 -0.3248751163482666 -0.9124962091445923
vn 0.022865522652864456 -0.12429150938987732 -0.9919822812080383
vn -0.1129547655582428 -0.09521465003490448 -0.9890275001525879
vn -0.6004602909088135 0.06897632032632828 -0.7966741919517517
vn 0.239963561296463 -0.703575611114502 -0.6688788533210754
vn 0.24910978972911835 -0.7928624153137207 -0.5561596155166626
vn 0.3899431526660919 -0.7209306359291077 -0.5728903412818909
vn 0.43345561623573303 -0.5202920436859131 -0.7358074188232422
vn 0.05654740706086159 -0.2373201698064804 -0.9697843194007874
vn -0.32688480615615845 0.00612251739948988 -0.9450443983078003
vn -0.9170530438423157 0.02147562801837921 -0.3981865644454956
vn -0.03940023481845856 -0.2885318100452423 -0.9566593170166016
vn -0.02094384841620922 -0.3098253011703491 -0.9505628347396851
vn -0.7828139066696167 -0.15487773716449738 -0.6026734709739685
vn 0.5848448276519775 -0.7112252116203308 -0.39001959562301636
vn 0.5472044348716736 -0.824774980545044 -0.14252588152885437
vn -0.15358376502990723 -0.4916034936904907 -0.8571686744689941
vn -0.02104685641825199 -0.6294312477111816 -0.7767711281776428
vn -0.12656164169311523 -0.3223930597305298 -0.9381071329116821
vn 0.12898096442222595 -0.6640626788139343 -0.736467719078064
vn -0.228014275431633 -0.9325574040412903 -0.2799038589000702
vn -0.24547964334487915 -0.9073877930641174 -0.3411555588245392
vn -0.08462992310523987 -0.9017676115036011 -0.42385488748550415
vn -0.13359101116657257 -0.934592604637146 -0.32968199253082275
vn -0.2819070816040039 -0.8489720225334167 -0.4469619691371918
vn 0.009453589096665382 0.5560992956161499 -0.8310621380805969
vn 0.054564572870731354 0.6780327558517456 -0.7330037355422974
vn 0.20903395116329193 0.6822528839111328 -0.7005967497825623
vn -0.03941933065652847 0.6127747893333435 -0.7892739176750183
vn -0.15144646167755127 0.7689446806907654 -0.621118426322937
vn -0.20917247235774994 0.754200279712677 -0.6224377751350403
vn -0.4366389811038971 0.8963079452514648 -0.07732108980417252
vn 0.11223145574331284 0.7515907883644104 -0.6500118374824524
vn -0.12636901438236237 0.6085253953933716 -0.7834078669548035
vn 0.40531566739082336 0.741194486618042 -0.5351168513298035
vn 0.4405960738658905 0.8148422837257385 -0.3767058253288269
vn 0.19969937205314636 0.7173675894737244 -0.6674607992172241
vn 0.3177601397037506 0.9121571779251099 -0.25883927941322327
vn -0.14881618320941925 0.9396079778671265 -0.3082054555416107
vn 0.40221667289733887 0.7929096221923828 -0.457729309797287
vn -0.6384227871894836 0.22821499407291412 -0.7350742816925049
vn -0.5592602491378784 0.21372681856155396 -0.8009674549102783
vn 0.6320791244506836 0.5351259708404541 -0.5604606866836548
vn -0.011418541893362999 0.48954832553863525 -0.8719013929367065
vn 0.9081494212150574 0.4184952974319458 -0.011238936334848404
vn 0.9520927667617798 0.18457774817943573 -0.24382472038269043
vn -0.7989763617515564 0.12970057129859924 -0.587209165096283
vn -0.8766665458679199 0.08522830903530121 -0.47348907589912415
vn -0.9653071165084839 -0.04786486551165581 -0.2566928565502167
vn 0.7805978655815125 -0.4077456593513489 -0.47371989488601685
vn -0.9392766952514648 -0.17011891305446625 -0.29802513122558594
vn -0.9882591366767883 -0.10641717165708542 -0.10963256657123566
vn -0.9495378136634827 -0.27035224437713623 0.15902119874954224
vn 0.39877545833587646 -0.7531406283378601 -0.5232182145118713
vn 0.1861206293106079 -0.9490354657173157 -0.2543439567089081
vn 0.2853378355503082 -0.8763867616653442 -0.3879801630973816
vn 0.48131853342056274 -0.8524659276008606 -0.20404484868049622
vn -0.9627624154090881 -0.187592551112175 0.1946730613708496
vn 0.5924057960510254 -0.8051444292068481 -0.02824636921286583
vn -0.7998567819595337 -0.5705000758171082 0.18643727898597717
vn -0.44891491532325745 -0.8541759848594666 0.26240959763526917
vn -0.7098233699798584 -0.45174989104270935 0.540437638759613
vn 0.4298945367336273 -0.83003169298172 0.35530003905296326
vn 0.2570657730102539 -0.9261252880096436 0.27606016397476196
vn -0.009758803993463516 -0.98428875207901 0.17629624903202057
vn -0.18465283513069153 -0.9740811586380005 0.1306493878364563
vn 0.06944599002599716 0.9722570776939392 0.22336848080158234
vn 0.28098517656326294 0.9429250955581665 0.1787164807319641
vn 0.05159441754221916 0.8538479804992676 -0.5179591774940491
vn -0.12276392430067062 0.9918506145477295 0.03407929837703705
vn -0.05409017205238342 0.6994690895080566 -0.7126129865646362
vn 0.5719188451766968 0.7460095286369324 -0.3411431908607483
vn 0.3611626923084259 0.8601824641227722 0.36006614565849304
vn 0.697953462600708 0.6460009217262268 0.3091017007827759
vn 0.051375456154346466 0.9913741946220398 -0.12057275325059891
vn -0.6764895915985107 0.5696974992752075 -0.466697633266449
vn -0.8882643580436707 -0.03733867034316063 -0.45781266689300537
vn 0.41873449087142944 0.8671841025352478 0.26954227685928345
vn -0.38988396525382996 0.628218948841095 0.6732989549636841
vn 0.5366134643554688 0.7773058414459229 0.3283924162387848
vn -0.9672071933746338 -0.09039371460676193 0.23735903203487396
vn 0.6792792081832886 0.7324755787849426 -0.045379914343357086
vn 0.35708314180374146 0.5880383253097534 0.7257428169250488
vn -0.2319912165403366 0.9359852075576782 0.2647865414619446
vn 0.2339739352464676 0.9293385148048401 0.28563299775123596
vn -0.9991044998168945 0.010645231232047081 0.04095129668712616
vn 0.9725411534309387 0.16049307584762573 0.16853992640972137
vn 0.8495673537254333 0.46832260489463806 0.24271246790885925
vn 0.7012113928794861 0.30577126145362854 0.6440547108650208
vn -0.79641193151474 -0.061253562569618225 0.6016445159912109
vn -0.93506920337677 -0.12242494523525238 0.33265259861946106
vn 0.9554471969604492 -0.14926956593990326 -0.2546355724334717
vn 0.9230295419692993 -0.3646627366542816 0.12262772768735886
vn -0.9176926016807556 -0.23608581721782684 0.31953686475753784
vn -0.885424792766571 -0.162329763174057 0.43551334738731384
vn 0.6668158173561096 -0.7247607111930847 -0.17343208193778992
vn 0.29480984807014465 -0.7202221155166626 0.6279866695404053
vn 0.3180304765701294 -0.944439709186554 -0.0830078050494194
vn 0.30969107151031494 -0.9501538872718811 -0.036043863743543625
vn -0.8204872608184814 -0.3414970636367798 0.458454430103302
vn -0.6792506575584412 -0.28128668665885925 0.6778616309165955
vn 0.1375037580728531 -0.9439849853515625 0.29997506737709045
vn 0.36928677558898926 -0.8613867163658142 0.3487696945667267
vn 0.49873241782188416 -0.850786566734314 0.16561490297317505
vn -0.48606806993484497 -0.6947805881500244 0.5301110744476318
vn -0.5076475143432617 -0.3979685604572296 0.7641434073448181
vn 0.22142834961414337 -0.8337182402610779 0.5058491230010986
vn 0.062079306691884995 -0.7792603969573975 0.6236180663108826
vn -0.053607627749443054 -0.8847642540931702 0.46294552087783813
vn -0.23857827484607697 -0.6915395259857178 0.6818017363548279
vn 0.3143877387046814 0.37333858013153076 0.8727993369102478
vn 0.1085728332400322 0.20710809528827667 0.9722747802734375
vn 0.05274991691112518 0.5058331489562988 0.8610169887542725
vn -0.036498766392469406 0.25733208656311035 0.9656335115432739
vn 0.4197394847869873 0.2791547179222107 0.8636500835418701
vn 0.03770289197564125 0.24791666865348816 0.9680474400520325
vn -0.06711395829916 0.6577588319778442 0.7502326965332031
vn -0.32359999418258667 0.40248358249664307 0.8563235402107239
vn -0.19728632271289825 0.28502851724624634 0.9379962086677551
vn -0.3463442325592041 0.58951336145401 0.7297395467758179
vn -0.38732990622520447 0.8186450600624084 0.42402347922325134
vn 0.4352932870388031 0.5277458429336548 0.7293860912322998
vn 0.2226654291152954 0.2571465075016022 0.9403700232505798
vn -0.13120079040527344 0.2724689543247223 0.9531773328781128
vn 0.6428474187850952 0.3649004101753235 0.6734945774078369
vn 0.2402181774377823 0.2628946304321289 0.9344419240951538
vn 0.1806151121854782 0.46518418192863464 0.8665920495986938
vn 0.11600787192583084 0.2035418301820755 0.9721691608428955
vn 0.004417904186993837 0.08807378262281418 0.9961041808128357
vn -0.2029573619365692 0.685745120048523 0.6989721059799194
vn 0.14643988013267517 0.6298168301582336 0.7628146409988403
vn -0.004388122819364071 0.09016791731119156 0.9959169626235962
vn -0.30278170108795166 0.07183325290679932 0.9503490328788757
vn 0.0005050702020525932 0.06123809888958931 0.998123049736023
vn -0.018091702833771706 0.07943131774663925 0.9966762065887451
vn -0.07013235986232758 0.23453712463378906 0.9695740938186646
vn -0.07295619696378708 0.34649136662483215 0.9352118968963623
vn 0.07037358731031418 0.2697661221027374 0.9603508710861206
vn 0.3402096629142761 0.13826599717140198 0.9301289916038513
vn 0.06979474425315857 0.11803363263607025 0.9905537962913513
vn -0.006876532454043627 0.20046381652355194 0.9796769618988037
vn 0.03695018216967583 0.06636175513267517 0.9971112608909607
vn -0.1355329155921936 -0.024975772947072983 0.9904580116271973
vn -0.32864755392074585 -0.043583303689956665 0.9434465169906616
vn -0.6566970348358154 -0.003934635315090418 0.7541443109512329
vn 0.6488165855407715 -0.08352503180503845 0.7563469409942627
vn -0.0035163522697985172 0.023365400731563568 0.9997208118438721
vn -0.5564292073249817 -0.163789302110672 0.8145917057991028
vn 0.3032947778701782 -0.10569627583026886 0.9470166563987732
vn 0.11849601566791534 0.003713793121278286 0.9929476380348206
vn 0.0011345845414325595 0.020534688606858253 0.9997885227203369
vn -0.01790785789489746 -0.014620204456150532 0.9997327923774719
vn -0.006905246526002884 -0.029222825542092323 0.9995490908622742
vn 0.6170237064361572 -0.48763981461524963 0.6176480650901794
vn 0.36677372455596924 -0.3188009262084961 0.8739811778068542
vn 0.07433284819126129 -0.1516275703907013 0.9856387376785278
vn 0.029077736660838127 -0.0902872160077095 0.9954912066459656
vn -0.38688844442367554 -0.15466740727424622 0.909062922000885
vn -0.6205621361732483 -0.13573046028614044 0.7723211050033569
vn 0.024266323074698448 -0.14385393261909485 0.9893013834953308
vn 0.003815134521573782 -0.027558326721191406 0.9996129274368286
vn -0.06250719726085663 -0.06918183714151382 0.9956439137458801
vn -0.2334069162607193 -0.133913055062294 0.9631140232086182
vn 0.13404886424541473 -0.3869580030441284 0.9123017191886902
vn 0.04293825477361679 -0.3728500306606293 0.9268976449966431
vn 0.07992085814476013 -0.27974221110343933 0.9567428827285767
vn 0.18062126636505127 -0.6397199630737305 0.7470839023590088
vn 0.1600232869386673 -0.3767305612564087 0.9123961329460144
vn 0.030541589483618736 -0.1895371675491333 0.9813984632492065
vn -0.12190348654985428 -0.13454410433769226 0.9833806753158569
vn -0.3104109466075897 -0.22644120454788208 0.9232385754585266
vn -0.4966970980167389 -0.29844188690185547 0.8149996399879456
vn 0.36977797746658325 -0.7190483808517456 0.5884162187576294
vn 0.24215878546237946 -0.6448171734809875 0.7249621152877808
vn 0.17123936116695404 -0.5009811520576477 0.8483483791351318
vn 0.0091067124158144 -0.3750394880771637 0.9269641041755676
vn -0.17504346370697021 -0.3192635476589203 0.931359589099884
vn -0.07475835084915161 -0.5538477301597595 0.8292549848556519
f 1//1 2//2 3//3
f 2//2 4//4 3//3
f 5//5 6//6 7//7
f 5//5 8//8 9//9
f 6//6 5//5 9//9
f 10//10 11//11 12//12
f 10//10 13//13 11//11
f 14//14 11//11 13//13
f 13//13 15//15 14//14
f 2//2 1//1 15//15
f 16//16 4//4 2//2
f 17//17 16//16 2//2
f 18//18 5//5 7//7
f 8//8 5//5 18//18
f 12//12 19//19 10//10
f 13//13 10//10 19//19
f 20//20 13//13 19//19
f 15//15 13//13 20//20
f 15//15 20//20 2//2
f 2//2 20//20 17//17
f 16//16 17//17 21//21
f 16//16 21//21 22//22
f 7//7 23//23 24//24
f 18//18 7//7 25//25
f 26//26 18//18 25//25
f 8//8 18//18 26//26
f 27//27 8//8 26//26
f 8//8 27//27 12//12
f 12//12 27//27 19//19
f 20//20 19//19 28//28
f 28//28 19//19 27//27
f 17//17 20//20 28//28
f 21//21 17//17 29//29
f 7//7 24//24 30//30
f 25//25 7//7 30//30
f 31//31 25//25 30//30
f 31//31 32//32 25//25
f 26//26 25//25 32//32
f 33//33 27//27 26//26
f 28//28 27//27 33//33
f 34//34 28//28 33//33
f 17//17 28//28 35//35
f 35//35 28//28 34//34
f 29//29 17//17 35//35
f 36//36 37//37 22//22
f 36//36 22//22 21//21
f 38//38 31//31 39//39
f 31//31 38//38 32//32
f 40//40 32//32 38//38
f 26//26 32//32 41//41
f 41//41 32//32 40//40
f 33//33 26//26 42//42
f 42//42 26//26 41//41
f 34//34 33//33 42//42
f 35//35 34//34 43//43
f 29//29 35//35 44//44
f 21//21 29//29 45//45
f 45//45 29//29 44//44
f 45//45 36//36 21//21
f 40//40 38//38 46//46
f 47//47 42//42 41//41
f 43//43 34//34 42//42
f 48//48 36//36 45//45
f 41//41 40//40 46//46
f 49//49 41//41 46//46
f 47//47 41//41 49//49
f 50//50 47//47 49//49
f 51//51 42//42 47//47
f 43//43 42//42 51//51
f 35//35 43//43 52//52
f 44//44 35//35 52//52
f 45//45 44//44 53//53
f 53//53 48//48 45//45
f 54//54 46//46 55//55
f 46//46 54//54 49//49
f 54//54 56//56 49//49
f 56//56 57//57 49//49
f 49//49 57//57 50//50
f 51//51 47//47 58//58
f 58//58 47//47 50//50
f 52//52 43//43 51//51
f 44//44 52//52 59//59
f 53//53 44//44 59//59
f 60//60 48//48 53//53
f 58//58 50//50 61//61
f 61//61 50//50 57//57
f 62//62 51//51 58//58
f 52//52 51//51 62//62
f 63//63 60//60 53//53
f 63//63 53//53 59//59
f 64//64 57//57 56//56
f 64//64 65//65 57//57
f 66//66 58//58 61//61
f 62//62 58//58 66//66
f 67//67 62//62 66//66
f 52//52 62//62 68//68
f 68//68 62//62 67//67
f 59//59 52//52 68//68
f 63//63 59//59 68//68
f 61//61 57//57 69//69
f 69//69 57//57 65//65
f 70//70 71//71 66//66
f 70//70 66//66 61//61
f 71//71 72//72 66//66
f 72//72 73//73 67//67
f 72//72 67//67 66//66
f 73//73 74//74 67//67
f 67//67 74//74 68//68
f 74//74 63//63 68//68
f 69//69 70//70 61//61
f 9//9 75//75 76//76
f 77//77 9//9 76//76
f 78//78 79//79 80//80
f 80//80 79//79 81//81
f 3//3 82//82 1//1
f 3//3 4//4 83//83
f 3//3 83//83 82//82
f 84//84 77//77 85//85
f 79//79 78//78 11//11
f 14//14 86//86 87//87
f 14//14 87//87 88//88
f 87//87 86//86 89//89
f 4//4 16//16 90//90
f 91//91 4//4 90//90
f 92//92 7//7 6//6
f 92//92 6//6 84//84
f 84//84 6//6 77//77
f 9//9 77//77 6//6
f 8//8 75//75 9//9
f 93//93 75//75 8//8
f 78//78 75//75 93//93
f 11//11 93//93 12//12
f 11//11 78//78 93//93
f 14//14 79//79 11//11
f 88//88 79//79 14//14
f 14//14 15//15 86//86
f 15//15 1//1 86//86
f 89//89 86//86 1//1
f 23//23 92//92 94//94
f 95//95 23//23 94//94
f 92//92 23//23 7//7
f 12//12 93//93 8//8
f 22//22 90//90 16//16
f 22//22 96//96 90//90
f 23//23 95//95 24//24
f 96//96 22//22 37//37
f 96//96 37//37 97//97
f 97//97 37//37 98//98
f 31//31 30//30 99//99
f 31//31 99//99 39//39
f 37//37 36//36 100//100
f 101//101 98//98 37//37
f 100//100 101//101 37//37
f 36//36 48//48 100//100
f 102//102 101//101 100//100
f 103//103 38//38 39//39
f 38//38 103//103 46//46
f 103//103 55//55 46//46
f 55//55 104//104 105//105
f 55//55 105//105 54//54
f 54//54 105//105 56//56
f 105//105 106//106 56//56
f 56//56 106//106 64//64
f 48//48 60//60 100//100
f 100//100 60//60 107//107
f 108//108 64//64 106//106
f 63//63 107//107 60//60
f 108//108 65//65 64//64
f 109//109 110//110 111//111
f 107//107 109//109 111//111
f 107//107 63//63 109//109
f 65//65 108//108 112//112
f 65//65 112//112 113//113
f 113//113 114//114 70//70
f 70//70 114//114 71//71
f 72//72 71//71 114//114
f 115//115 72//72 114//114
f 115//115 73//73 72//72
f 73//73 110//110 74//74
f 73//73 115//115 110//110
f 63//63 74//74 109//109
f 70//70 65//65 113//113
f 69//69 65//65 70//70
f 109//109 74//74 110//110
f 116//116 117//117 118//118
f 118//118 117//117 76//76
f 119//119 116//116 118//118
f 119//119 118//118 120//120
f 121//121 122//122 123//123
f 82//82 122//122 121//121
f 82//82 83//83 124//124
f 82//82 124//124 122//122
f 125//125 124//124 83//83
f 125//125 83//83 91//91
f 125//125 91//91 126//126
f 117//117 127//127 85//85
f 117//117 85//85 77//77
f 76//76 117//117 77//77
f 120//120 118//118 76//76
f 80//80 120//120 78//78
f 80//80 119//119 120//120
f 119//119 81//81 128//128
f 119//119 80//80 81//81
f 87//87 123//123 129//129
f 89//89 121//121 123//123
f 89//89 123//123 87//87
f 82//82 89//89 1//1
f 121//121 89//89 82//82
f 91//91 83//83 4//4
f 130//130 125//125 126//126
f 85//85 127//127 84//84
f 84//84 127//127 131//131
f 132//132 131//131 127//127
f 78//78 76//76 75//75
f 120//120 76//76 78//78
f 81//81 88//88 133//133
f 81//81 79//79 88//88
f 87//87 134//134 88//88
f 88//88 134//134 133//133
f 134//134 87//87 129//129
f 90//90 97//97 91//91
f 91//91 97//97 126//126
f 97//97 135//135 126//126
f 135//135 130//130 126//126
f 92//92 131//131 94//94
f 84//84 131//131 92//92
f 97//97 90//90 96//96
f 136//136 137//137 138//138
f 136//136 95//95 137//137
f 95//95 94//94 137//137
f 130//130 135//135 139//139
f 140//140 135//135 98//98
f 135//135 97//97 98//98
f 141//141 95//95 136//136
f 142//142 141//141 136//136
f 95//95 141//141 24//24
f 30//30 24//24 99//99
f 140//140 98//98 143//143
f 24//24 141//141 99//99
f 98//98 101//101 143//143
f 143//143 101//101 144//144
f 142//142 99//99 141//141
f 101//101 102//102 144//144
f 99//99 142//142 145//145
f 39//39 99//99 145//145
f 145//145 103//103 39//39
f 55//55 103//103 104//104
f 146//146 147//147 145//145
f 145//145 147//147 103//103
f 103//103 147//147 104//104
f 104//104 148//148 105//105
f 105//105 148//148 106//106
f 102//102 149//149 150//150
f 102//102 100//100 149//149
f 100//100 107//107 149//149
f 144//144 102//102 150//150
f 151//151 104//104 147//147
f 148//148 104//104 151//151
f 152//152 148//148 151//151
f 152//152 153//153 148//148
f 148//148 153//153 106//106
f 106//106 153//153 108//108
f 149//149 107//107 111//111
f 111//111 154//154 155//155
f 110//110 154//154 111//111
f 108//108 153//153 112//112
f 114//114 113//113 156//156
f 113//113 112//112 156//156
f 157//157 114//114 156//156
f 157//157 158//158 114//114
f 115//115 114//114 158//158
f 115//115 158//158 159//159
f 115//115 159//159 154//154
f 115//115 154//154 110//110
f 160//160 117//117 161//161
f 117//117 116//116 162//162
f 117//117 162//162 161//161
f 116//116 119//119 162//162
f 162//162 119//119 163//163
f 128//128 163//163 119//119
f 122//122 164//164 123//123
f 165//165 164//164 122//122
f 124//124 166//166 122//122
f 122//122 166//166 165//165
f 124//124 125//125 167//167
f 124//124 167//167 166//166
f 117//117 160//160 127//127
f 163//163 161//161 162//162
f 168//168 163//163 128//128
f 128//128 81//81 169//169
f 128//128 169//169 168//168
f 169//169 81//81 170//170
f 81//81 133//133 170//170
f 123//123 171//171 129//129
f 123//123 164//164 171//171
f 171//171 164//164 172//172
f 165//165 172//172 164//164
f 166//166 173//173 165//165
f 167//167 173//173 166//166
f 125//125 130//130 167//167
f 131//131 174//174 94//94
f 131//131 132//132 174//174
f 174//174 132//132 175//175
f 132//132 127//127 176//176
f 132//132 176//176 175//175
f 127//127 160//160 176//176
f 176//176 160//160 177//177
f 161//161 177//177 160//160
f 163//163 178//178 161//161
f 133//133 179//179 170//170
f 170//170 179//179 169//169
f 133//133 134//134 180//180
f 179//179 133//133 180//180
f 134//134 129//129 171//171
f 134//134 171//171 180//180
f 180//180 171//171 172//172
f 165//165 181//181 172//172
f 173//173 182//182 165//165
f 182//182 181//181 165//165
f 167//167 182//182 173//173
f 94//94 174//174 137//137
f 177//177 175//175 176//176
f 161//161 183//183 177//177
f 178//178 183//183 161//161
f 168//168 184//184 163//163
f 184//184 178//178 163//163
f 169//169 185//185 168//168
f 185//185 184//184 168//168
f 179//179 186//186 169//169
f 186//186 185//185 169//169
f 180//180 187//187 179//179
f 187//187 186//186 179//179
f 172//172 187//187 180//180
f 181//181 187//187 172//172
f 167//167 139//139 182//182
f 167//167 130//130 139//139
f 138//138 137//137 174//174
f 138//138 174//174 188//188
f 175//175 188//188 174//174
f 189//189 188//188 175//175
f 177//177 189//189 175//175
f 183//183 189//189 177//177
f 184//184 183//183 178//178
f 187//187 190//190 186//186
f 190//190 185//185 186//186
f 181//181 191//191 187//187
f 191//191 190//190 187//187
f 192//192 191//191 181//181
f 182//182 193//193 181//181
f 193//193 192//192 181//181
f 194//194 193//193 182//182
f 139//139 135//135 194//194
f 139//139 194//194 182//182
f 138//138 195//195 136//136
f 188//188 195//195 138//138
f 184//184 196//196 183//183
f 190//190 191//191 185//185
f 191//191 184//184 185//185
f 194//194 197//197 193//193
f 135//135 140//140 194//194
f 194//194 140//140 197//197
f 136//136 195//195 142//142
f 188//188 198//198 195//195
f 199//199 198//198 188//188
f 189//189 199//199 188//188
f 200//200 199//199 189//189
f 183//183 200//200 189//189
f 196//196 201//201 183//183
f 192//192 202//202 191//191
f 140//140 143//143 197//197
f 195//195 203//203 142//142
f 198//198 204//204 195//195
f 204//204 203//203 195//195
f 205//205 198//198 199//199
f 200//200 205//205 199//199
f 201//201 205//205 200//200
f 183//183 201//201 200//200
f 196//196 206//206 201//201
f 193//193 207//207 192//192
f 197//197 208//208 193//193
f 208//208 207//207 193//193
f 143//143 144//144 208//208
f 197//197 143//143 208//208
f 205//205 204//204 198//198
f 201//201 209//209 205//205
f 206//206 209//209 201//201
f 184//184 210//210 196//196
f 210//210 206//206 196//196
f 191//191 210//210 184//184
f 202//202 211//211 191//191
f 211//211 210//210 191//191
f 192//192 212//212 202//202
f 212//212 211//211 202//202
f 207//207 212//212 192//192
f 142//142 203//203 145//145
f 145//145 203//203 146//146
f 146//146 203//203 204//204
f 205//205 213//213 204//204
f 213//213 146//146 204//204
f 209//209 214//214 205//205
f 214//214 213//213 205//205
f 215//215 214//214 209//209
f 206//206 215//215 209//209
f 208//208 150//150 207//207
f 208//208 144//144 150//150
f 214//214 146//146 213//213
f 216//216 146//146 214//214
f 215//215 216//216 214//214
f 217//217 216//216 215//215
f 206//206 217//217 215//215
f 218//218 217//217 206//206
f 210//210 218//218 206//206
f 211//211 219//219 210//210
f 219//219 218//218 210//210
f 212//212 220//220 211//211
f 220//220 219//219 211//211
f 207//207 221//221 212//212
f 221//221 220//220 212//212
f 150//150 149//149 221//221
f 150//150 221//221 207//207
f 151//151 147//147 146//146
f 216//216 151//151 146//146
f 152//152 151//151 216//216
f 152//152 216//216 222//222
f 222//222 216//216 217//217
f 223//223 222//222 217//217
f 218//218 224//224 217//217
f 224//224 223//223 217//217
f 225//225 224//224 218//218
f 219//219 226//226 218//218
f 226//226 225//225 218//218
f 220//220 226//226 219//219
f 221//221 155//155 220//220
f 149//149 111//111 155//155
f 221//221 149//149 155//155
f 152//152 222//222 153//153
f 226//226 227//227 225//225
f 220//220 155//155 226//226
f 153//153 222//222 112//112
f 223//223 112//112 222//222
f 156//156 112//112 223//223
f 224//224 156//156 223//223
f 157//157 156//156 224//224
f 157//157 224//224 225//225
f 158//158 157//157 227//227
f 227//227 157//157 225//225
f 159//159 158//158 227//227
f 159//159 227//227 226//226
f 154//154 159//159 155//155
f 155//155 159//159 226//226
