# Generated by Visualization Toolkit
v 151.17189025878906 -142.65492248535156 354.7271423339844
v 152.5274658203125 -141.47715759277344 355.2784729003906
v 153.46095275878906 -145.5173797607422 355.5849304199219
v 151.688720703125 -148.81068420410156 355.0511779785156
v 150.1529541015625 -144.0687255859375 356.8116760253906
v 152.86691284179688 -152.67324829101562 355.96636962890625
v 154.23867797851562 -142.45388793945312 358.1295166015625
v 153.80279541015625 -136.5884246826172 358.8853454589844
v 151.34109497070312 -134.15707397460938 358.1944274902344
v 150.48602294921875 -137.94883728027344 356.9658203125
v 154.508056640625 -144.511962890625 357.4715576171875
v 152.6337890625 -151.26441955566406 357.2570495605469
v 154.08267211914062 -144.85594177246094 359.88677978515625
v 150.07412719726562 -132.80381774902344 359.0218811035156
v 148.87643432617188 -134.10372924804688 360.335205078125
v 149.51983642578125 -137.95030212402344 360.7819519042969
v 150.37789916992188 -141.39488220214844 361.24713134765625
v 150.35031127929688 -127.55398559570312 362.72198486328125
v 149.01739501953125 -126.80340576171875 363.7138366699219
v 148.5313720703125 -134.49020385742188 364.0093688964844
v 155.0625762939453 -137.8273162841797 363.60430908203125
v 154.6278076171875 -141.01519775390625 362.4105224609375
v 152.98231506347656 -145.20306396484375 361.18170166015625
v 152.20692443847656 -127.41366577148438 364.9334411621094
v 154.00401306152344 -132.1465301513672 363.89599609375
v 148.29946899414062 -127.7452392578125 364.9717712402344
v 154.19586181640625 -134.41452026367188 366.34625244140625
v 152.39260864257812 -141.21812438964844 363.6325378417969
v 150.8978271484375 -138.48081970214844 365.2563171386719
v 148.51190185546875 -121.11183166503906 367.8560791015625
v 153.2611083984375 -128.67794799804688 367.2080078125
v 148.06321716308594 -129.0088348388672 367.4335021972656
v 154.23406982421875 -137.09796142578125 365.80596923828125
v 152.57781982421875 -138.4482421875 366.44500732421875
v 150.46923828125 -121.7254638671875 368.6597595214844
v 149.7891082763672 -133.61102294921875 368.1501770019531
v 146.40858459472656 -114.31661987304688 371.72705078125
v 145.68508911132812 -116.24577331542969 371.9539794921875
v 145.15000915527344 -118.11482238769531 379.16375732421875
v 146.2917022705078 -120.55625915527344 371.2657470703125
v 153.24420166015625 -129.9888153076172 371.13323974609375
v 147.8603973388672 -126.95457458496094 372.0560607910156
v 151.3602752685547 -130.51547241210938 373.409423828125
v 152.4854736328125 -134.66049194335938 368.7013244628906
v 152.1403350830078 -119.28678894042969 375.3935852050781
v 152.91139221191406 -123.46461486816406 375.68792724609375
v 149.141845703125 -127.50260925292969 375.0228576660156
v 152.04446411132812 -192.14308166503906 372.3406066894531
v 149.6693572998047 -191.49215698242188 371.2751770019531
v 151.62220764160156 -189.8615264892578 372.41607666015625
v 151.51016235351562 -199.00868225097656 370.3091125488281
v 147.3883819580078 -194.27163696289062 372.637451171875
v 148.38900756835938 -194.90145874023438 371.1587219238281
v 152.6234588623047 -200.52069091796875 370.5659484863281
v 148.40338134765625 -199.33184814453125 371.4703063964844
v 147.13946533203125 -198.5126953125 373.87823486328125
v 151.49917602539062 -201.61721801757812 371.4476013183594
v 147.77442932128906 -110.537841796875 376.2114562988281
v 151.07839965820312 -117.47062683105469 374.744384765625
v 151.86831665039062 -187.41285705566406 374.7695617675781
v 153.1697540283203 -187.54946899414062 373.706298828125
v 150.5830535888672 -189.7689666748047 374.1021728515625
v 155.4077911376953 -186.33753967285156 376.7485046386719
v 152.9440460205078 -198.81204223632812 373.99932861328125
v 147.82574462890625 -201.14340209960938 375.3533935546875
v 146.61195373535156 -112.19625854492188 374.0892333984375
v 144.84913635253906 -112.16453552246094 374.87017822265625
v 144.0522918701172 -108.06709289550781 378.2420349121094
v 146.38540649414062 -109.19320678710938 376.7821044921875
v 144.08731079101562 -115.14012145996094 378.9768371582031
v 151.85467529296875 -125.12034606933594 378.5968322753906
v 147.50807189941406 -122.84381103515625 379.3623962402344
v 152.52777099609375 -182.99488830566406 375.7919616699219
v 154.56063842773438 -183.8697967529297 375.67987060546875
v 151.36065673828125 -189.14195251464844 376.53009033203125
v 154.53097534179688 -188.73500061035156 378.368896484375
v 152.619384765625 -190.77700805664062 374.9955749511719
v 151.84373474121094 -193.95057678222656 374.970947265625
v 148.2017822265625 -195.03460693359375 375.563232421875
v 150.94065856933594 -200.55630493164062 374.8110656738281
v 142.77456665039062 -110.72731018066406 378.5107421875
v 149.3131866455078 -110.80184936523438 378.7815246582031
v 151.1896209716797 -113.70526123046875 379.9287109375
v 150.89706420898438 -126.31878662109375 378.38134765625
v 154.61839294433594 -178.27037048339844 380.0230407714844
v 151.65130615234375 -182.93441772460938 378.9151611328125
v 152.48687744140625 -190.3140411376953 378.1112976074219
v 151.17916870117188 -191.4210968017578 375.570068359375
v 150.46737670898438 -194.61900329589844 376.193603515625
v 149.7943572998047 -197.45701599121094 378.2274169921875
v 148.71652221679688 -198.03036499023438 377.6775207519531
v 142.0594482421875 -108.46702575683594 380.65203857421875
v 145.83155822753906 -118.11463928222656 383.2012023925781
v 151.85546875 -119.13827514648438 380.8293762207031
v 156.0798797607422 -179.81509399414062 380.0327453613281
v 157.09103393554688 -180.77597045898438 382.2034912109375
v 151.490966796875 -182.87210083007812 383.1084899902344
v 155.92730712890625 -185.575927734375 382.43109130859375
v 151.95433044433594 -188.37644958496094 381.67535400390625
v 141.38290405273438 -104.56245422363281 382.881591796875
v 141.27963256835938 -101.54493713378906 385.7281494140625
v 146.01422119140625 -106.51498413085938 380.9996643066406
v 140.07144165039062 -104.92599487304688 384.748779296875
v 146.50381469726562 -104.6514892578125 385.5981750488281
v 149.2562255859375 -120.48509216308594 383.6207580566406
v 147.0124969482422 -118.38070678710938 384.913818359375
v 154.13214111328125 -174.03070068359375 382.0799255371094
v 156.19171142578125 -174.40821838378906 381.7037353515625
v 157.9617919921875 -173.6957550048828 383.419921875
v 153.14657592773438 -178.47760009765625 380.7040100097656
v 152.390625 -177.65904235839844 382.8652038574219
v 153.51019287109375 -190.06094360351562 383.3014221191406
v 148.18658447265625 -106.63192749023438 386.689453125
v 150.56585693359375 -118.30020141601562 384.5667419433594
v 156.24807739257812 -169.99461364746094 385.1501770019531
v 153.1579132080078 -173.0008087158203 385.84783935546875
v 138.46200561523438 -101.18083190917969 386.7974548339844
v 143.04672241210938 -101.26560974121094 386.9522399902344
v 149.98284912109375 -110.63308715820312 386.81292724609375
v 139.93653869628906 -106.77032470703125 389.943359375
v 143.15069580078125 -112.23573303222656 387.85772705078125
v 157.53907775878906 -169.4905548095703 386.17724609375
v 158.94677734375 -175.6680450439453 385.81439208984375
v 152.5825958251953 -174.49325561523438 388.94775390625
v 157.79217529296875 -179.19830322265625 387.673095703125
v 152.99124145507812 -179.4192657470703 390.1234130859375
v 153.6092987060547 -186.45635986328125 385.8805236816406
v 155.33628845214844 -184.0117645263672 387.0303649902344
v 136.9326934814453 -102.03919982910156 389.3697509765625
v 139.38711547851562 -105.37086486816406 387.2601013183594
v 149.22499084472656 -111.28001403808594 389.5112609863281
v 149.1746063232422 -116.53598022460938 386.91131591796875
v 145.88873291015625 -113.63847351074219 390.239501953125
v 147.78326416015625 -114.04032897949219 390.0318908691406
v 155.70472717285156 -168.36880493164062 388.03717041015625
v 157.1971893310547 -167.83628845214844 391.45306396484375
v 158.8144073486328 -171.28884887695312 388.17913818359375
v 138.70748901367188 -97.13685607910156 389.5520935058594
v 135.3553466796875 -97.89813232421875 389.9678039550781
v 143.98910522460938 -100.31063842773438 390.7137451171875
v 159.01406860351562 -173.5922393798828 390.2807922363281
v 156.12200927734375 -180.29156494140625 391.01629638671875
v 154.2295379638672 -182.14585876464844 390.126220703125
v 135.6916961669922 -95.01567077636719 392.3865051269531
v 144.89724731445312 -101.30036926269531 394.55126953125
v 145.99363708496094 -104.44151306152344 395.01727294921875
v 146.4440460205078 -109.74656677246094 393.0353698730469
v 143.9503173828125 -110.53153991699219 392.6573181152344
v 158.38784790039062 -169.75167846679688 393.805908203125
v 155.06817626953125 -167.12852478027344 395.13482666015625
v 154.00155639648438 -170.73069763183594 394.79998779296875
v 158.1289520263672 -174.9531707763672 392.4713134765625
v 131.85397338867188 -94.02516174316406 394.9490966796875
v 132.53213500976562 -91.72549438476562 395.2864685058594
v 133.9990234375 -97.29428100585938 392.564697265625
v 141.12596130371094 -95.7138671875 395.7387390136719
v 137.70277404785156 -93.28883361816406 396.0152893066406
v 136.07225036621094 -101.47271728515625 394.1917724609375
v 140.5464630126953 -106.62786865234375 393.9165344238281
v 145.23118591308594 -107.307861328125 395.726806640625
v 144.12835693359375 -108.10246276855469 395.73358154296875
v 154.93661499023438 -171.59364318847656 396.7942199707031
v 155.90225219726562 -175.7104949951172 394.8692321777344
v 154.43264770507812 -178.35330200195312 392.63238525390625
v 132.3330078125 -96.4774169921875 395.9817810058594
v 140.6656951904297 -105.00526428222656 397.0831604003906
v 156.77462768554688 -168.36846923828125 396.3529357910156
v 156.05096435546875 -170.87306213378906 397.665283203125
v 134.98397827148438 -90.80793762207031 397.24102783203125
v 129.8538055419922 -89.58818054199219 398.4387512207031
v 129.89547729492188 -92.04379272460938 399.03607177734375
v 141.70205688476562 -96.65696716308594 401.8395080566406
v 143.19866943359375 -101.22506713867188 399.5121765136719
v 135.67279052734375 -99.717529296875 399.0939636230469
v 141.80445861816406 -103.33219909667969 399.2134704589844
v 155.1687774658203 -167.82395935058594 397.043212890625
v 127.81977844238281 -86.68321228027344 399.8257141113281
v 132.0556182861328 -88.1444091796875 399.178955078125
v 136.5960693359375 -90.30076599121094 400.9844055175781
v 140.0837860107422 -94.3101806640625 401.0589904785156
v 132.44117736816406 -96.05776977539062 400.7090759277344
v 129.16261291503906 -91.65733337402344 400.8136901855469
v 138.5618438720703 -100.4022216796875 401.8145446777344
v 156.525634765625 -167.0269775390625 399.55145263671875
v 156.525634765625 -167.0269775390625 399.55145263671875
v 156.525634765625 -167.0269775390625 399.55145263671875
v 156.525634765625 -167.0269775390625 399.55145263671875
v 156.525634765625 -167.0269775390625 399.55145263671875
v 126.27743530273438 -86.162353515625 401.80706787109375
v 125.70506286621094 -81.92945861816406 403.9583740234375
v 128.9045867919922 -84.55354309082031 401.2662658691406
v 130.43045043945312 -84.40628051757812 402.5572814941406
v 136.66543579101562 -89.95562744140625 405.2397766113281
v 134.42330932617188 -96.33601379394531 403.88775634765625
v 140.50286865234375 -99.1378173828125 403.3634948730469
v 156.525634765625 -167.0269775390625 399.55145263671875
v 125.02972412109375 -86.05010986328125 404.9692687988281
v 128.80392456054688 -91.29782104492188 403.7063903808594
v 139.9024658203125 -95.35885620117188 403.6609191894531
v 138.4638214111328 -96.96124267578125 404.6697998046875
v 121.38402557373047 -79.54373168945312 405.9510498046875
v 122.39256286621094 -77.44314575195312 407.1080627441406
v 120.74678802490234 -80.72784423828125 406.961669921875
v 124.06767272949219 -83.18301391601562 404.5278625488281
v 129.4132080078125 -82.08624267578125 406.38763427734375
v 126.47298431396484 -80.28607177734375 406.05120849609375
v 131.69338989257812 -83.66334533691406 409.2421875
v 126.16160583496094 -87.68359375 407.45623779296875
v 137.0296173095703 -91.94868469238281 407.69390869140625
v 134.29971313476562 -93.29385375976562 408.58447265625
v 136.25074768066406 -94.50968933105469 407.2005920410156
v 130.0143280029297 -90.90449523925781 408.57037353515625
v 117.20338439941406 -74.74195861816406 409.99462890625
v 119.49983978271484 -75.47467041015625 409.2506408691406
v 116.7391357421875 -75.78189086914062 410.6249084472656
v 123.52306365966797 -85.02864074707031 408.8565979003906
v 133.68890380859375 -86.47181701660156 410.9062805175781
v 121.2157211303711 -75.39616394042969 410.4808349609375
v 126.31724548339844 -78.54307556152344 411.1321105957031
v 117.73246002197266 -78.17790222167969 412.39654541015625
v 127.81344604492188 -88.26438903808594 410.6161804199219
v 133.29859924316406 -90.85897827148438 410.351318359375
v 111.69175720214844 -68.90643310546875 411.82470703125
v 110.41460418701172 -71.15000915527344 411.9411315917969
v 108.61447143554688 -68.09562683105469 413.31719970703125
v 113.22445678710938 -71.46836853027344 411.2091064453125
v 116.79403686523438 -71.32746887207031 412.4974365234375
v 115.55097961425781 -73.21078491210938 410.2606506347656
v 118.9736099243164 -71.89718627929688 414.6221008300781
v 113.72504425048828 -74.3001708984375 412.5825500488281
v 133.77407836914062 -88.39463806152344 411.3341979980469
v 130.8778076171875 -88.35945129394531 412.923583984375
v 109.00684356689453 -66.35675048828125 414.8057556152344
v 105.77487182617188 -68.62924194335938 416.9535827636719
v 121.75949096679688 -74.01091003417969 415.9798889160156
v 124.8221206665039 -77.89944458007812 420.2762756347656
v 120.53352355957031 -80.71183776855469 416.561279296875
v 127.03834533691406 -80.30093383789062 418.36572265625
v 132.13905334472656 -85.06123352050781 413.34259033203125
v 125.00189971923828 -84.58908081054688 415.57757568359375
v 131.73324584960938 -85.99708557128906 414.56475830078125
v 129.48065185546875 -87.18278503417969 414.56024169921875
v 113.83019256591797 -67.42660522460938 416.6495056152344
v 110.05977630615234 -65.17671203613281 418.3277587890625
v 105.09929656982422 -66.75958251953125 416.1580505371094
v 105.19222259521484 -64.45504760742188 416.869873046875
v 107.93927001953125 -70.75624084472656 416.8331298828125
v 110.19666290283203 -72.72933959960938 418.30120849609375
v 123.70628356933594 -75.96755981445312 417.61907958984375
v 99.23243713378906 -62.086849212646484 419.9006042480469
v 101.88846588134766 -63.46097183227539 417.6978759765625
v 101.14861297607422 -64.59912109375 418.302978515625
v 106.71488189697266 -63.620365142822266 419.10516357421875
v 115.09681701660156 -67.77146911621094 419.7516784667969
v 115.31706237792969 -76.70626831054688 418.1173400878906
v 127.8663558959961 -82.44754028320312 418.1993103027344
v 124.21926879882812 -82.75372314453125 418.5499572753906
v 127.99090576171875 -84.59397888183594 416.8808898925781
v 101.60594177246094 -61.75929641723633 420.1295166015625
v 96.9139633178711 -62.654354095458984 422.9305725097656
v 119.17216491699219 -71.84901428222656 424.6111145019531
v 117.28682708740234 -77.62867736816406 421.1209411621094
v 119.83113861083984 -78.52444458007812 422.1581726074219
v 123.86962127685547 -81.10324096679688 420.8492431640625
v 103.07747650146484 -60.82514572143555 424.86175537109375
v 99.34243774414062 -65.288330078125 423.9183044433594
v 114.8726806640625 -67.7545166015625 424.5287170410156
v 121.81092834472656 -74.96412658691406 422.7176818847656
v 110.8273696899414 -73.0054931640625 424.6761474609375
v 113.37317657470703 -74.46354675292969 424.402099609375
v 123.51737976074219 -78.37921142578125 421.901611328125
v 97.64566802978516 -59.49539566040039 426.55645751953125
v 96.86653137207031 -60.87685775756836 424.1979675292969
v 106.22386932373047 -61.9372673034668 426.7410583496094
v 100.31141662597656 -66.69090270996094 427.3782043457031
v 116.23780059814453 -69.83967590332031 427.03985595703125
v 120.27544403076172 -74.30734252929688 425.3284606933594
v 116.518798828125 -75.56985473632812 425.5040588378906
v 120.98464965820312 -77.44039916992188 423.24334716796875
v 92.95187377929688 -60.47787094116211 428.0050048828125
v 91.97218322753906 -61.58979415893555 428.73291015625
v 109.22602081298828 -64.04336547851562 430.2310485839844
v 91.98242950439453 -62.5013313293457 429.83087158203125
v 105.4845962524414 -69.76773071289062 429.83551025390625
v 93.50798797607422 -59.208126068115234 428.7548522949219
v 99.2811279296875 -66.48861694335938 432.9519348144531
v 117.34937286376953 -73.10055541992188 427.73419189453125
v 108.75460052490234 -70.65655517578125 432.0050048828125
v 113.73001098632812 -72.53068542480469 429.0346984863281
v 101.59132385253906 -59.60708236694336 432.0007629394531
v 95.90660858154297 -57.16532516479492 434.945556640625
v 87.54998016357422 -59.0035514831543 431.3247985839844
v 93.05693817138672 -63.92060470581055 432.5058288574219
v 112.5240249633789 -67.98924255371094 430.6377258300781
v 112.73348999023438 -70.59461975097656 430.6366271972656
v 103.16650390625 -60.748287200927734 434.58404541015625
v 83.93492126464844 -59.84540939331055 434.55755615234375
v 87.33386993408203 -61.72537612915039 433.5749206542969
v 110.58326721191406 -66.88584899902344 432.6756896972656
v 103.01004028320312 -67.84147644042969 432.9925231933594
v 110.01509094238281 -69.82765197753906 433.4491271972656
v 90.02725219726562 -55.77114486694336 436.95281982421875
v 86.4319839477539 -55.885074615478516 436.0876770019531
v 82.94721984863281 -58.170536041259766 434.82568359375
v 107.26982879638672 -64.3154296875 433.9123229980469
v 92.86406707763672 -63.90726852416992 436.4835205078125
v 104.44570922851562 -67.4443359375 434.38079833984375
v 81.61458587646484 -55.02835464477539 438.26324462890625
v 78.76103973388672 -55.139522552490234 439.2559814453125
v 96.82767486572266 -57.98891830444336 438.6370849609375
v 97.99080657958984 -59.07560348510742 438.70391845703125
v 104.15816497802734 -63.142704010009766 436.0456848144531
v 88.97525024414062 -62.86919021606445 438.0371398925781
v 83.23246002197266 -61.475467681884766 438.7582702636719
v 105.55477905273438 -66.43310546875 435.0561218261719
v 99.19232940673828 -65.53924560546875 437.08184814453125
v 91.6238784790039 -56.06210708618164 440.7418212890625
v 78.44438934326172 -58.35536575317383 437.921875
v 76.49323272705078 -56.0960578918457 440.01422119140625
v 77.5025634765625 -59.77865219116211 440.7318115234375
v 99.24238586425781 -63.027400970458984 439.8361511230469
v 101.94145202636719 -64.30421447753906 437.6867980957031
v 87.84036254882812 -54.514060974121094 440.5562438964844
v 80.98837280273438 -52.87214279174805 442.9283142089844
v 76.18728637695312 -57.93606185913086 440.3409423828125
v 93.17301940917969 -62.702457427978516 440.0149230957031
v 82.41548919677734 -61.39985275268555 443.9739685058594
v 80.62612915039062 -61.2845344543457 443.7624206542969
v 77.04833221435547 -52.17083740234375 444.05804443359375
v 73.69053649902344 -53.95512390136719 442.7807312011719
v 86.17008972167969 -54.242767333984375 445.05157470703125
v 72.15791320800781 -57.227481842041016 442.9835510253906
v 92.07901763916016 -57.45743179321289 443.1377868652344
v 96.18441772460938 -61.07314682006836 440.8200378417969
v 78.18370819091797 -60.79684066772461 442.8069152832031
v 91.71395111083984 -61.51994705200195 442.32940673828125
v 79.0743408203125 -51.738861083984375 447.801025390625
v 82.22076416015625 -52.96113204956055 447.0078430175781
v 89.25875854492188 -55.78250503540039 444.33721923828125
v 69.6046142578125 -55.434505462646484 446.1236572265625
v 91.42068481445312 -59.42946243286133 444.3432312011719
v 70.56514739990234 -60.05301284790039 446.287841796875
v 83.91473388671875 -60.390132904052734 446.63818359375
v 73.6890640258789 -52.034568786621094 446.6380615234375
v 71.1301040649414 -61.67148208618164 448.4977722167969
v 75.0208511352539 -51.68039321899414 449.41912841796875
v 66.88916778564453 -54.26224899291992 450.0528564453125
v 86.75540161132812 -56.46695327758789 447.01519775390625
v 82.07714080810547 -54.214927673339844 449.9731750488281
v 68.59989929199219 -57.863338470458984 446.82635498046875
v 86.24339294433594 -58.1115837097168 447.3665771484375
v 80.33602905273438 -60.05600357055664 450.144775390625
v 73.22941589355469 -61.6591682434082 449.0929260253906
v 79.47882843017578 -52.67863464355469 450.9765930175781
v 63.79254913330078 -56.687129974365234 451.33319091796875
v 82.98466491699219 -57.30661392211914 450.29876708984375
v 63.688743591308594 -59.269466400146484 451.2959899902344
v 74.7717514038086 -61.081661224365234 450.55645751953125
v 64.14990997314453 -61.91315841674805 452.8692932128906
v 71.74020385742188 -52.295921325683594 454.48175048828125
v 69.14110565185547 -52.46305465698242 452.5454406738281
v 64.5705337524414 -53.70441818237305 453.6943359375
v 75.05545806884766 -60.09311294555664 453.1470642089844
v 69.75414276123047 -62.089176177978516 454.0675964355469
v 62.63307189941406 -60.96780776977539 452.5754089355469
v 77.0447006225586 -54.5964241027832 454.59454345703125
v 70.91736602783203 -54.30153274536133 457.6212463378906
v 79.2254638671875 -56.532649993896484 452.76953125
v 60.39390563964844 -54.361541748046875 455.87701416015625
v 59.673126220703125 -56.89363479614258 454.21234130859375
v 75.9132308959961 -55.77299880981445 455.59893798828125
v 77.35968017578125 -58.6935920715332 453.1284484863281
v 72.95948028564453 -58.49556350708008 456.71136474609375
v 58.11335754394531 -60.05257034301758 454.62896728515625
v 65.44187927246094 -62.63078689575195 456.30596923828125
v 64.3250961303711 -62.73965835571289 454.4974365234375
v 67.56831359863281 -54.011905670166016 458.4045715332031
v 65.0435791015625 -53.37076187133789 456.8789978027344
v 54.29266357421875 -58.967403411865234 457.9993896484375
v 66.8396224975586 -61.364986419677734 458.6562805175781
v 56.917266845703125 -62.57918930053711 456.2540283203125
v 56.1009521484375 -63.87076950073242 458.03515625
v 55.5220947265625 -56.86874008178711 458.8469543457031
v 54.101654052734375 -61.70846939086914 457.58111572265625
v 62.328582763671875 -63.682186126708984 459.76068115234375
v 58.13288879394531 -64.30538940429688 459.2834167480469
v 60.85517883300781 -54.34503173828125 460.3997497558594
v 56.260162353515625 -55.85004806518555 461.0687255859375
v 69.18162536621094 -57.97822189331055 459.1515808105469
v 65.02366638183594 -56.88272476196289 462.1749267578125
v 52.08625793457031 -57.3411750793457 461.5108642578125
v 49.519287109375 -59.5461540222168 460.76373291015625
v 62.783416748046875 -61.59572219848633 462.8433532714844
v 63.541542053222656 -60.32655715942383 463.15728759765625
v 49.696380615234375 -61.4077033996582 459.4937438964844
v 48.9906005859375 -64.42251586914062 460.1203918457031
v 50.27197265625 -65.90451049804688 461.3679504394531
v 62.31214904785156 -55.841609954833984 462.87158203125
v 45.91998291015625 -63.74531936645508 461.25146484375
v 43.919281005859375 -62.096805572509766 462.8197021484375
v 57.58241271972656 -64.40484619140625 461.6914978027344
v 52.005950927734375 -66.11567687988281 463.7580871582031
v 46.04998779296875 -66.55543518066406 462.30279541015625
v 56.87379455566406 -56.77494430541992 464.4472961425781
v 51.110565185546875 -57.5577278137207 466.4165344238281
v 47.05155944824219 -58.52578353881836 464.5437927246094
v 58.610504150390625 -63.245059967041016 463.944091796875
v 42.10533142089844 -65.56327819824219 463.76593017578125
v 43.78514099121094 -67.9901123046875 464.8485107421875
v 57.34733581542969 -58.26016616821289 466.0467834472656
v 59.00743103027344 -59.7303581237793 465.61920166015625
v 57.66276550292969 -62.3634147644043 465.8656921386719
v 41.8883056640625 -60.270381927490234 467.0283203125
v 40.554931640625 -63.32338333129883 466.0328369140625
v 50.55769348144531 -65.381103515625 469.68670654296875
v 40.97248840332031 -65.39291381835938 465.1379089355469
v 45.39967346191406 -68.3905029296875 467.9874572753906
v 41.755035400390625 -66.89138793945312 468.5593566894531
v 44.74485778808594 -59.181705474853516 469.96832275390625
v 42.04241943359375 -61.20744705200195 471.2133483886719
v 48.50257873535156 -66.83609008789062 469.51513671875
v 53.17620849609375 -59.846553802490234 469.4041748046875
v 47.52934265136719 -60.07644271850586 471.4612731933594
v 53.77723693847656 -62.44721603393555 469.6310119628906
v 41.80308532714844 -64.2080078125 472.1888122558594
v 48.77684020996094 -61.736454010009766 472.3710632324219
v 49.962921142578125 -63.40176773071289 471.84356689453125
v 44.15606689453125 -65.53610229492188 475.3565979003906
v 44.15550231933594 -62.68867874145508 475.4698486328125
v 45.22892761230469 -63.80167770385742 475.86993408203125
v 45.71714782714844 -65.42317199707031 475.35089111328125
vn -0.28328269720077515 0.09916297346353531 -0.9538961052894592
vn 0.5378323197364807 0.2736257314682007 -0.7974116802215576
vn 0.6025795340538025 -0.008259141817688942 -0.7980160713195801
vn -0.6569088101387024 -0.2580130100250244 -0.7084490656852722
vn -0.9820471405982971 -0.14484632015228271 -0.12084279209375381
vn 0.8662184476852417 -0.4475453197956085 -0.2221909761428833
vn 0.9811544418334961 0.05692030116915703 -0.18465138971805573
vn 0.8751254081726074 0.28303390741348267 -0.3924886882305145
vn 0.2845824360847473 0.48087137937545776 -0.829322338104248
vn -0.6791144013404846 0.20309460163116455 -0.7053766250610352
vn 0.9715228080749512 0.033183153718709946 -0.23461095988750458
vn -0.540071964263916 -0.5823867321014404 0.607575535774231
vn 0.9075294137001038 -0.26024818420410156 0.32963818311691284
vn -0.4495837390422821 0.41754046082496643 -0.7896420359611511
vn -0.9438769221305847 0.03810373321175575 -0.328092098236084
vn -0.9794180393218994 -0.20155012607574463 0.010861405171453953
vn -0.8123749494552612 -0.3881945312023163 0.4351460337638855
vn 0.23001942038536072 0.6128961443901062 -0.7559427618980408
vn -0.6138739585876465 0.40233051776885986 -0.6791826486587524
vn -0.9672402143478394 -0.23319752514362335 0.1003260463476181
vn 0.9971920847892761 0.0014352442231029272 0.07487233728170395
vn 0.8022911548614502 -0.3923536241054535 0.44987523555755615
vn 0.1842455416917801 -0.5530621409416199 0.8125120997428894
vn 0.7809931039810181 0.45714041590690613 -0.42552614212036133
vn 0.9672631621360779 0.22884680330753326 -0.1096869483590126
vn -0.9773420095443726 -0.027835797518491745 -0.2098281979560852
vn 0.9561773538589478 -0.06624288856983185 0.28519633412361145
vn -0.18735915422439575 -0.6482140421867371 0.7380481958389282
vn -0.7295347452163696 -0.49437183141708374 0.472626268863678
vn -0.056128550320863724 0.563048779964447 -0.8245154023170471
vn 0.9714645743370056 0.21960005164146423 -0.08962393552064896
vn -0.9705790281295776 -0.2316831350326538 0.06556926667690277
vn 0.7883445620536804 -0.27100348472595215 0.5523314476013184
vn 0.06641393154859543 -0.6120259165763855 0.7880440950393677
vn 0.6605972051620483 0.5282047986984253 -0.533489465713501
vn -0.7050743699073792 -0.5131166577339172 0.48947060108184814
vn -0.11832386255264282 0.6026965975761414 -0.7891491055488586
vn -0.8612797856330872 0.10610812902450562 -0.49692878127098083
vn -0.9439291954040527 -0.32910194993019104 0.026261623948812485
vn -0.9735977053642273 -0.18983899056911469 -0.12676240503787994
vn 0.959998607635498 -0.12821044027805328 0.24892747402191162
vn -0.8823884725570679 -0.4274766445159912 0.19660717248916626
vn 0.24953477084636688 -0.709826648235321 0.6586945652961731
vn 0.3519020676612854 -0.5207135081291199 0.7778319120407104
vn 0.9351928234100342 0.30347639322280884 -0.18252819776535034
vn 0.9932119250297546 0.03160678967833519 0.11194247007369995
vn -0.6669301390647888 -0.6045918464660645 0.4355146884918213
vn 0.8513033390045166 0.016596749424934387 -0.5244113206863403
vn -0.2793973386287689 0.467354953289032 -0.8387588858604431
vn -0.1738656610250473 0.5628489255905151 -0.808066725730896
vn -0.029792074114084244 -0.056247688829898834 -0.9979722499847412
vn -0.9381285905838013 0.3176650404930115 -0.1378542184829712
vn -0.6423037052154541 0.03873003274202347 -0.7654711008071899
vn 0.7368981242179871 -0.2565615475177765 -0.6254258155822754
vn -0.6506084203720093 -0.35920554399490356 -0.6690890192985535
vn -0.9972522258758545 -0.05910860002040863 -0.04465606436133385
vn 0.13920944929122925 -0.9334011673927307 -0.33073121309280396
vn 0.5787690877914429 0.6397857666015625 -0.5056684017181396
vn 0.8304232954978943 0.42423874139785767 -0.36113524436950684
vn -0.8315833806991577 0.39792758226394653 -0.3874567747116089
vn 0.26140642166137695 0.3087475597858429 -0.9145171642303467
vn -0.8446860909461975 0.5250017046928406 0.10430096834897995
vn 0.9339977502822876 -0.2292081117630005 -0.2740653157234192
vn 0.9069437384605408 -0.25246909260749817 0.3372128903865814
vn -0.552141547203064 -0.8055540919303894 0.21499386429786682
vn -0.04576850309967995 0.6879058480262756 -0.7243554592132568
vn -0.6264367699623108 0.4361766576766968 -0.6460084915161133
vn -0.39284491539001465 0.5960951447486877 -0.7002452611923218
vn 0.21083691716194153 0.7532086372375488 -0.6230767965316772
vn -0.944123387336731 -0.3210223913192749 -0.07467056065797806
vn 0.6648082137107849 -0.4703473746776581 0.5803476572036743
vn -0.702832043170929 -0.5970383286476135 0.3867458701133728
vn -0.48575347661972046 0.5158400535583496 -0.7056575417518616
vn 0.6481841206550598 0.32503214478492737 -0.6886301636695862
vn -0.9853843450546265 -0.0395788811147213 0.16568422317504883
vn 0.8047686219215393 -0.5929771661758423 -0.026937907561659813
vn 0.7893597483634949 -0.5825116634368896 0.19388501346111298
vn 0.8075670599937439 0.06395994871854782 0.5862974524497986
vn -0.6803798079490662 0.37055376172065735 0.6322762370109558
vn 0.3952219784259796 -0.7179034352302551 0.573074460029602
vn -0.9107776284217834 0.015036436729133129 -0.41262346506118774
vn 0.7987588047981262 0.5305036902427673 -0.2838139235973358
vn 0.9338312745094299 0.34085705876350403 -0.10851552337408066
vn -0.14631864428520203 -0.7213118672370911 0.6769786477088928
vn 0.029104609042406082 0.5221607685089111 -0.8523502945899963
vn -0.9494800567626953 0.23568648099899292 -0.20721879601478577
vn -0.20608223974704742 -0.9399917125701904 0.27192968130111694
vn -0.25107836723327637 -0.11305039376020432 0.961342453956604
vn 0.14945703744888306 0.3712501525878906 0.9164257049560547
vn 0.2525765895843506 0.07735628634691238 0.9644796848297119
vn -0.5771207809448242 -0.2370327115058899 0.7815031409263611
vn -0.7406402230262756 0.28887054324150085 -0.6066349148750305
vn -0.8097269535064697 -0.5232617259025574 0.2655927836894989
vn 0.9592840075492859 -0.0670752227306366 0.27436327934265137
vn 0.7042018175125122 0.22365069389343262 -0.6738547086715698
vn 0.9596171379089355 -0.09841427206993103 -0.263532817363739
vn -0.9963149428367615 0.016975289210677147 0.08407417684793472
vn 0.9257675409317017 -0.37099018692970276 0.07294341921806335
vn -0.888526201248169 -0.35183700919151306 0.29450294375419617
vn -0.6406337022781372 0.3582594096660614 -0.6791455149650574
vn 0.004306694958359003 0.7216796278953552 -0.6922138333320618
vn 0.3960944414138794 0.7819641828536987 -0.481291264295578
vn -0.8572636246681213 -0.008966160006821156 -0.5147996544837952
vn 0.6821627616882324 0.6741346716880798 -0.28318989276885986
vn 0.31295061111450195 -0.6565081477165222 0.686337411403656
vn -0.3470625579357147 -0.713379979133606 0.6087993383407593
vn -0.5642295479774475 0.5187772512435913 -0.6422734260559082
vn 0.29066309332847595 0.45900678634643555 -0.8395402431488037
vn 0.8413472175598145 0.1959688663482666 -0.503717303276062
vn -0.7022687792778015 0.4672876298427582 -0.5370855331420898
vn -0.9309127330780029 0.2824821174144745 -0.23152859508991241
vn 0.2778530716896057 -0.8472716212272644 0.4526902437210083
vn 0.8689267635345459 0.4937381148338318 -0.03448066487908363
vn 0.733688473701477 -0.40777647495269775 0.543525218963623
vn -0.05247117206454277 0.7372331023216248 -0.6735979914665222
vn -0.8923234939575195 0.4090506136417389 -0.19088342785835266
vn -0.5917456746101379 0.27665701508522034 -0.7571644186973572
vn 0.46507224440574646 0.7631704211235046 -0.4486410319805145
vn 0.9573577642440796 0.23833346366882324 0.16328924894332886
vn -0.8564736247062683 -0.5161805748939514 -0.0032378125470131636
vn -0.7827450037002563 -0.5746368765830994 0.23896189033985138
vn 0.6128703355789185 0.6639753580093384 -0.4284002184867859
vn 0.9879893064498901 -0.08426176011562347 -0.12952633202075958
vn -0.9851588606834412 0.15954364836215973 0.06330800801515579
vn 0.9221435189247131 -0.35555949807167053 0.15241017937660217
vn -0.8854459524154663 -0.21138502657413483 0.41388624906539917
vn -0.4146139323711395 -0.5701377987861633 0.7092519402503967
vn 0.6656578779220581 -0.5734419226646423 0.47756052017211914
vn -0.8732317090034485 -0.3785281181335449 -0.306892454624176
vn -0.8954296708106995 -0.4005821943283081 -0.19426709413528442
vn 0.8345736861228943 -0.1591498851776123 0.5274069309234619
vn 0.39300408959388733 -0.5657497048377991 0.7248965501785278
vn -0.2982708215713501 -0.6947500705718994 0.6544898152351379
vn 0.3148109018802643 -0.5873163342475891 0.745622992515564
vn -0.3377753794193268 0.8671680688858032 -0.3659607768058777
vn 0.5434359908103943 0.837661862373352 -0.05477140471339226
vn 0.9627202153205872 0.23654940724372864 -0.1312027871608734
vn 0.18445532023906708 0.7660408020019531 -0.6157578229904175
vn -0.6667638421058655 0.2776432931423187 -0.6916214227676392
vn 0.6981161236763 0.6826297640800476 -0.2159874588251114
vn 0.9869298338890076 -0.10283651947975159 0.12407369911670685
vn 0.5488810539245605 -0.5838686227798462 0.5981864333152771
vn -0.11241109669208527 -0.6468197107315063 0.7543129920959473
vn -0.18714427947998047 0.6502265334129333 -0.736330509185791
vn 0.8929739594459534 0.43469029664993286 0.11679816991090775
vn 0.9149860143661499 0.1987597495317459 0.35113418102264404
vn 0.33749571442604065 -0.5649055242538452 0.7529797554016113
vn -0.38319501280784607 -0.740344762802124 0.5523144006729126
vn 0.9522156715393066 0.2272031456232071 0.2041177749633789
vn -0.5505965948104858 0.8328786492347717 0.056183625012636185
vn -0.9612319469451904 0.09243418276309967 0.2597866952419281
vn 0.8629317283630371 -0.3004050552845001 0.4063321053981781
vn -0.7823653817176819 0.0213673897087574 -0.6224531531333923
vn -0.19672518968582153 0.6048352718353271 -0.771669328212738
vn -0.875141441822052 -0.15013554692268372 -0.4599856734275818
vn 0.7040520906448364 0.6932803988456726 -0.15386013686656952
vn 0.5016927719116211 0.7863265872001648 -0.3605480492115021
vn -0.7981439232826233 -0.6022356748580933 0.016689741984009743
vn -0.7057546377182007 -0.6579285264015198 0.26275575160980225
vn 0.48212796449661255 -0.39403074979782104 0.782491147518158
vn 0.09126750379800797 -0.6226769089698792 0.7771381735801697
vn -0.6987214684486389 -0.23281073570251465 0.6764521598815918
vn 0.17195208370685577 -0.5485291481018066 0.8182593584060669
vn -0.3851569592952728 -0.5024694204330444 0.7740663290023804
vn -0.8733454942703247 -0.45013463497161865 -0.1861356496810913
vn -0.3624299168586731 -0.6922904253005981 0.6240020990371704
vn 0.6741515398025513 0.6000197529792786 0.4306924343109131
vn 0.43455907702445984 -0.14701522886753082 0.8885634541511536
vn 0.3721088171005249 0.7491356134414673 -0.548024594783783
vn -0.571435272693634 0.26443710923194885 -0.7768750190734863
vn -0.8688015341758728 -0.25551146268844604 -0.42414379119873047
vn 0.8552749752998352 0.29457998275756836 0.42629504203796387
vn 0.8025200366973877 -0.08545278757810593 0.5904739499092102
vn -0.6323911547660828 -0.7061474919319153 0.3184919059276581
vn 0.12359287589788437 -0.6501334309577942 0.7497007846832275
vn -0.4810035228729248 0.4386667013168335 0.7590831518173218
vn -0.45214909315109253 0.2718328833580017 -0.8495105504989624
vn 0.11702851206064224 0.6572871208190918 -0.7444984912872314
vn 0.6821442246437073 0.7003503441810608 -0.2102111428976059
vn 0.7865228652954102 0.6148282885551453 0.05803491920232773
vn -0.723153829574585 -0.669413149356842 0.17010200023651123
vn -0.8556726574897766 -0.5002716183662415 -0.13248658180236816
vn -0.30459582805633545 -0.7146561741828918 0.6296728849411011
vn 0 -0 0
vn 0 -0 0
vn 0 -0 0
vn 0 -0 0
vn 0 -0 0
vn -0.8393486142158508 -0.14779269695281982 -0.523116946220398
vn -0.2372352033853531 0.5061067342758179 -0.8292017579078674
vn 0.2113063931465149 0.736379086971283 -0.6427251100540161
vn 0.49462878704071045 0.7564923167228699 -0.42785710096359253
vn 0.8245062828063965 0.5609398484230042 0.07440435141324997
vn -0.41241803765296936 -0.7661437392234802 0.4928845167160034
vn 0.4147680997848511 -0.40301090478897095 0.8158122897148132
vn 0 -0 0
vn -0.8226379156112671 -0.5008590221405029 -0.26908576488494873
vn -0.7554561495780945 -0.6475344896316528 0.09992527961730957
vn 0.7897469997406006 0.10130728036165237 0.6050094962120056
vn 0.2635304927825928 -0.4354505240917206 0.8607755303382874
vn -0.5207134485244751 0.12682898342609406 -0.8442582488059998
vn 0.20822787284851074 0.7643294334411621 -0.6102800965309143
vn -0.7972655892372131 -0.4155324101448059 -0.43783602118492126
vn -0.681610643863678 -0.1075771301984787 -0.7237638235092163
vn 0.5526915192604065 0.779443621635437 -0.29495736956596375
vn 0.40054672956466675 0.7921440005302429 -0.460510790348053
vn 0.7407447695732117 0.6715630292892456 -0.017329026013612747
vn -0.7321105003356934 -0.6763181686401367 0.08128933608531952
vn 0.8032068014144897 0.07432013750076294 0.5910460352897644
vn 0.07291802018880844 -0.6241312026977539 0.7779095768928528
vn 0.307428240776062 -0.547200083732605 0.7784985899925232
vn -0.5254457592964172 -0.7465868592262268 0.4080623984336853
vn -0.19392752647399902 0.4060401916503906 -0.893041729927063
vn 0.2359142154455185 0.7746656537055969 -0.5867176651954651
vn -0.6997472643852234 -0.35769379138946533 -0.6183922290802002
vn -0.7213557958602905 -0.6917265057563782 0.03406510129570961
vn 0.8564567565917969 0.42995744943618774 0.28568950295448303
vn 0.4700426757335663 0.809391975402832 -0.35205766558647156
vn 0.632851243019104 0.7627357244491577 -0.13316744565963745
vn -0.7155411839485168 -0.6786891222000122 -0.1654750257730484
vn -0.5192110538482666 -0.7923012971878052 0.3204350769519806
vn 0.06595537066459656 -0.6242940425872803 0.778400182723999
vn 0.05052943155169487 0.5636351108551025 -0.8244770169258118
vn -0.5729942321777344 -0.33832848072052 -0.7464659810066223
vn -0.5351232290267944 0.19659876823425293 -0.8215790390968323
vn -0.14338068664073944 0.06452001631259918 -0.9875622391700745
vn 0.3629371225833893 0.6745918393135071 -0.6428083777427673
vn -0.2723773121833801 0.030021049082279205 -0.9617220759391785
vn 0.5672578811645508 0.7656926512718201 -0.3032051920890808
vn -0.606882631778717 -0.6173735857009888 -0.5005431175231934
vn 0.578928530216217 -0.3240746855735779 0.7482094764709473
vn -0.03582342341542244 -0.753246545791626 0.6567620635032654
vn 0.05644695833325386 0.7865639925003052 -0.6149234175682068
vn -0.6970204710960388 -0.5432169437408447 -0.4680574834346771
vn 0.6653501987457275 0.7424535751342773 -0.07792185246944427
vn 0.7981408834457397 0.5125513076782227 0.31664228439331055
vn -0.596511721611023 -0.7842646837234497 0.17059525847434998
vn 0.7997878789901733 0.45923078060150146 0.3865831196308136
vn 0.8253432512283325 0.39497506618499756 0.40348872542381287
vn -0.46654900908470154 -0.8011818528175354 0.3747527599334717
vn 0.6729714870452881 -0.19244275987148285 0.7141954898834229
vn 0.007872281596064568 -0.7562673687934875 0.6542153358459473
vn 0.4660862386226654 0.8375954031944275 -0.2849518954753876
vn 0.37883463501930237 0.8850086331367493 -0.27063652873039246
vn -0.4895283877849579 0.031066516414284706 -0.8714337944984436
vn 0.005741887725889683 0.6863357424736023 -0.7272621989250183
vn -0.6365289688110352 -0.7408161163330078 -0.21452821791172028
vn -0.5939612984657288 -0.8010227084159851 -0.07465025782585144
vn 0.7561262845993042 0.6477863788604736 0.09298308193683624
vn -0.5208293795585632 0.5507480502128601 -0.6522372364997864
vn -0.2911410331726074 0.42331331968307495 -0.8579293489456177
vn -0.6862422823905945 -0.3855378329753876 -0.6167917847633362
vn 0.30358052253723145 0.8960707187652588 -0.3238767683506012
vn 0.5962032675743103 0.8010168671607971 -0.0539788194000721
vn -0.5806132555007935 -0.8124047517776489 0.05372895672917366
vn 0.643246054649353 -0.07012386620044708 0.7624416351318359
vn -0.37771886587142944 -0.8199346661567688 0.43015772104263306
vn 0.06166767328977585 -0.6895492672920227 0.7216086387634277
vn 0.10511688143014908 0.8994643688201904 -0.4241630733013153
vn -0.7814352512359619 -0.1874249279499054 -0.5951729416847229
vn 0.7489099502563477 0.5948302149772644 0.2920803427696228
vn -0.48402687907218933 -0.8419856429100037 0.2382817566394806
vn -0.3236430585384369 -0.8086163401603699 0.4913194179534912
vn 0.10422021895647049 -0.5931127667427063 0.7983454465866089
vn 0.29419460892677307 0.9385095834732056 -0.1806914359331131
vn -0.6021929979324341 -0.7501440644264221 -0.27321678400039673
vn 0.6666210293769836 0.7308364510536194 0.1466100662946701
vn 0.8124426007270813 0.4557957053184509 0.36357584595680237
vn -0.4932243525981903 -0.8633826375007629 0.10630284249782562
vn -0.41854754090309143 -0.8711687922477722 0.2566768229007721
vn 0.64796382188797 -0.01675824634730816 0.7614867687225342
vn -0.03986835852265358 0.9363175630569458 -0.34888386726379395
vn -0.5009214878082275 0.6608311533927917 -0.5589095950126648
vn 0.46734195947647095 0.8818902969360352 -0.06213764473795891
vn -0.5160511136054993 -0.8511265516281128 -0.09630630910396576
vn 0.7112940549850464 0.5626916289329529 0.4212350845336914
vn 0.7151012420654297 0.082729272544384 0.6941081285476685
vn -0.17528948187828064 -0.8139345645904541 0.553881049156189
vn 0.18406429886817932 -0.5588302612304688 0.8085970282554626
vn -0.56508469581604 0.3688651919364929 -0.7379822731018066
vn -0.6432332396507263 -0.3653884828090668 -0.6728612780570984
vn 0.6348466873168945 0.7397075891494751 0.22316472232341766
vn -0.5487428903579712 -0.7357572317123413 -0.39691630005836487
vn -0.4397871196269989 -0.8909058570861816 0.11346369236707687
vn -0.23299549520015717 0.8014720678329468 -0.5507773160934448
vn -0.36731988191604614 -0.9246679544448853 0.10032638907432556
vn 0.5333371758460999 -0.1626282036304474 0.8301225900650024
vn -0.2783648371696472 -0.8800243139266968 0.3847990036010742
vn 0.08455460518598557 -0.757663905620575 0.6471445560455322
vn 0.46179577708244324 0.8839271068572998 0.07360401004552841
vn 0.289016991853714 0.9552417397499084 -0.0631060004234314
vn -0.4631437361240387 0.3579710125923157 -0.8107740879058838
vn -0.3988705277442932 -0.9074519872665405 -0.13203510642051697
vn 0.7335804104804993 0.3823585510253906 0.5618377327919006
vn 0.5662590861320496 -0.18639254570007324 0.8028752207756042
vn 0.5734196305274963 0.7272113561630249 0.37729769945144653
vn -0.5573660731315613 -0.5529332756996155 -0.6193609833717346
vn -0.44632983207702637 -0.8271355032920837 -0.34152093529701233
vn 0.6823223829269409 0.3924068510532379 0.6168088316917419
vn -0.30079102516174316 -0.8930143713951111 0.33473894000053406
vn 0.39913204312324524 -0.2938113212585449 0.8685439229011536
vn 0.11639688163995743 0.9612877368927002 -0.2497551143169403
vn -0.02396715246140957 0.9021262526512146 -0.43080607056617737
vn -0.5159350037574768 0.27535873651504517 -0.8111650347709656
vn 0.594163715839386 0.38821402192115784 0.7044568657875061
vn -0.2616617679595947 -0.9496546983718872 0.17230530083179474
vn -0.11762189120054245 -0.7478025555610657 0.6534190773963928
vn -0.17432226240634918 0.7980753779411316 -0.5767906308174133
vn -0.3281290829181671 0.6441495418548584 -0.6909433007240295
vn 0.50816810131073 0.8123815059661865 0.28600966930389404
vn 0.5994535088539124 0.575107753276825 0.5566925406455994
vn 0.6037881374359131 0.23854832351207733 0.7606146335601807
vn -0.20122098922729492 -0.9784432053565979 0.046465642750263214
vn -0.33149194717407227 -0.9138712882995605 -0.23441925644874573
vn 0.32937419414520264 -0.3091798722743988 0.8921437859535217
vn -0.07189029455184937 -0.8512399792671204 0.5198292136192322
vn 0.41967493295669556 0.8949272632598877 0.1515856236219406
vn -0.6471836566925049 -0.2596893310546875 -0.7167389392852783
vn -0.5692223310470581 0.2284865826368332 -0.789797306060791
vn -0.4523794949054718 -0.7330838441848755 -0.507878839969635
vn 0.42665258049964905 -0.10463154315948486 0.8983428478240967
vn 0.4173069894313812 -0.3924601972103119 0.8196523189544678
vn 0.2502194046974182 0.9625654816627502 -0.10420148819684982
vn 0.13753680884838104 0.9585897326469421 -0.24937815964221954
vn -0.6446923613548279 -0.29964905977249146 -0.703265368938446
vn 0.0010819192975759506 -0.8612285256385803 0.5082167983055115
vn 0.03133181110024452 -0.9787232875823975 0.20277836918830872
vn -0.08300597965717316 -0.9965186715126038 -0.007781730033457279
vn -0.0932428166270256 0.9324827790260315 -0.34897223114967346
vn -0.5013421177864075 0.581667423248291 -0.6405615210533142
vn 0.46715980768203735 0.8232005834579468 0.3226493299007416
vn -0.6431800127029419 -0.1329081803560257 -0.7540921568870544
vn 0.6005721092224121 0.5091301202774048 0.6165223121643066
vn 0.4544353485107422 -0.19833572208881378 0.8684189319610596
vn -0.1644364595413208 -0.9620676040649414 -0.217684805393219
vn 0.26334527134895325 -0.7271131873130798 0.6339998245239258
vn 0.18622024357318878 0.9813047051429749 0.04861309006810188
vn 0.396330326795578 0.9061589241027832 0.14764244854450226
vn 0.5370753407478333 0.7004887461662292 0.4699633717536926
vn -0.6883253455162048 0.2484784573316574 -0.6815179586410522
vn 0.48857495188713074 -0.2418837547302246 0.8383237719535828
vn -0.5050356388092041 -0.5736099481582642 -0.6449113488197327
vn 0.2511597275733948 -0.7955142259597778 0.5514308214187622
vn -0.2807418704032898 0.9256294369697571 -0.25376003980636597
vn -0.1024896427989006 -0.9580890536308289 -0.2675093710422516
vn -0.04959096014499664 0.998750627040863 -0.006162149365991354
vn -0.5082336068153381 0.7190675735473633 -0.4739624559879303
vn 0.5986273288726807 0.33463990688323975 0.7277784943580627
vn 0.6075440049171448 0.4906182587146759 0.6246471405029297
vn -0.6793786287307739 -0.14461484551429749 -0.7193964123725891
vn 0.5198906064033508 -0.3746240437030792 0.7677048444747925
vn 0.3613123297691345 -0.7703505158424377 0.5253698825836182
vn 0.08168847113847733 -0.9964218139648438 -0.021692980080842972
vn 0.40172022581100464 0.7939685583114624 0.4563275873661041
vn -0.6154242157936096 0.32400110363960266 -0.7185237407684326
vn 0.5822718739509583 -0.1495831161737442 0.7991147041320801
vn -0.5498929023742676 -0.18552233278751373 -0.8143705129623413
vn 0.195876806974411 -0.9607135057449341 0.19662608206272125
vn -0.26684901118278503 -0.7345636487007141 -0.6238652467727661
vn 0.07513391226530075 0.9474231600761414 0.31103742122650146
vn -0.23891977965831757 0.9662238359451294 -0.09658639132976532
vn -0.2805684208869934 0.9375671744346619 -0.20554621517658234
vn 0.38590434193611145 -0.7875775694847107 0.4804159104824066
vn 0.2452070713043213 -0.95505690574646 0.16655291616916656
vn -0.3376934230327606 -0.4710738956928253 -0.8148941993713379
vn 0.5570303797721863 0.3421957492828369 0.7567160725593567
vn 0.37918806076049805 0.535782516002655 0.754422664642334
vn 0.6054868102073669 -0.10988273471593857 0.78823322057724
vn -0.4677150845527649 0.807802677154541 -0.35874441266059875
vn -0.5803000330924988 0.3107399344444275 -0.7527899146080017
vn 0.5340233445167542 -0.004702703561633825 0.8454567193984985
vn 0.48108023405075073 -0.5078845024108887 0.7145735025405884
vn 0.5161697268486023 -0.45682430267333984 0.7244863510131836
vn -0.54142826795578 -0.07986783981323242 -0.8369448184967041
vn 0.2516958713531494 -0.9653551578521729 0.06883826851844788
vn 0.03727787733078003 -0.969685435295105 -0.24149657785892487
vn 0.16525718569755554 0.8259433507919312 0.5389875769615173
vn -0.13074086606502533 0.9844967126846313 0.11693218350410461
vn -0.56002277135849 0.3920356035232544 -0.7298511266708374
vn 0.4758372902870178 -0.7351998686790466 0.4827629625797272
vn -0.39278239011764526 -0.5337216854095459 -0.7489079236984253
vn -0.16518357396125793 -0.7758545875549316 -0.6089040040969849
vn -0.5060198307037354 0.7339960932731628 -0.45298317074775696
vn -0.45889797806739807 -0.18570508062839508 -0.8688649535179138
vn 0.3303476572036743 -0.9266983270645142 0.17916657030582428
vn 0.13910435140132904 -0.9746875762939453 -0.17502616345882416
vn -0.10849583894014359 0.9524062871932983 0.2848700284957886
vn -0.3168838620185852 0.9483563303947449 0.014317764900624752
vn 0.5704140067100525 -0.21968740224838257 0.7914324998855591
vn 0.4577016532421112 0.28874871134757996 0.8409122824668884
vn -0.3878132998943329 0.8805029988288879 -0.27260851860046387
vn -0.5020159482955933 0.5626712441444397 -0.6567961573600769
vn 0.5197387337684631 -0.5782975554466248 0.6288431286811829
vn 0.5426219701766968 -0.24220746755599976 0.8042991161346436
vn -0.46133536100387573 0.17524555325508118 -0.8697463274002075
vn -0.2772843539714813 -0.40390315651893616 -0.8717657923698425
vn 0.062182724475860596 -0.8966782093048096 -0.43829405307769775
vn 0.19470220804214478 0.7142556309700012 0.6722574234008789
vn -0.4824913442134857 -0.001276969094760716 -0.8758998513221741
vn -0.5949586629867554 0.41892585158348083 -0.6859484910964966
vn 0.2840803861618042 -0.9297945499420166 0.23405222594738007
vn 0.33138757944107056 -0.9430122971534729 0.03016875497996807
vn -0.25825709104537964 -0.5950782299041748 -0.7610422372817993
vn -0.021350400522351265 0.8684024214744568 0.49540024995803833
vn -0.053595736622810364 0.9442692995071411 0.3247813582420349
vn -0.39805662631988525 0.8750794529914856 -0.27529436349868774
vn 0.3015623390674591 -0.8388318419456482 0.45323434472084045
vn -0.6310021281242371 -0.21238362789154053 -0.746143102645874
vn -0.3444303870201111 -0.8697450160980225 -0.35342806577682495
vn 0.28030458092689514 0.568462610244751 0.7734853625297546
vn 0.5230118036270142 -0.016827953979372978 0.852159321308136
vn 0.4924631118774414 -0.6178888082504272 0.6129385232925415
vn -0.6576068997383118 0.7330152988433838 -0.17390190064907074
vn -0.9695547819137573 0.13858330249786377 -0.20188656449317932
vn 0.5437332987785339 -0.7114838361740112 0.4451347589492798
vn -0.8529745936393738 -0.41408780217170715 -0.3177510201931
vn 0.06484419107437134 -0.9909029603004456 0.11792643368244171
vn -0.7508711218833923 -0.641160786151886 0.15844736993312836
vn -0.255618155002594 0.9219189286231995 0.29107555747032166
vn -0.792175829410553 0.5153601169586182 0.32689666748046875
vn 0.4360497295856476 -0.8530877828598022 0.2865344285964966
vn 0.3670468330383301 0.5311149954795837 0.7636711001396179
vn 0.15621083974838257 0.7767956852912903 0.6100709438323975
vn 0.5819032788276672 -0.17572349309921265 0.7940465211868286
vn -0.918541669845581 -0.07354678213596344 0.3884226381778717
vn 0.44102561473846436 0.39882320165634155 0.8040127754211426
vn 0.6255944967269897 -0.15947437286376953 0.7636749744415283
vn -0.44689828157424927 -0.5429287552833557 0.7109925150871277
vn -0.3073121905326843 0.5393779873847961 0.7839838862419128
vn 0.2945312261581421 0.09820149838924408 0.9505829215049744
vn 0.4176061153411865 -0.6343846321105957 0.6505085229873657
f 1//1 2//2 3//3
f 1//1 3//3 4//4
f 4//4 5//5 1//1
f 4//4 3//3 6//6
f 7//7 2//2 8//8
f 9//9 8//8 2//2
f 10//10 9//9 2//2
f 10//10 2//2 1//1
f 10//10 1//1 5//5
f 2//2 7//7 11//11
f 3//3 2//2 11//11
f 3//3 11//11 6//6
f 4//4 12//12 5//5
f 4//4 6//6 12//12
f 11//11 13//13 6//6
f 10//10 14//14 9//9
f 10//10 15//15 14//14
f 10//10 5//5 16//16
f 5//5 12//12 17//17
f 13//13 12//12 6//6
f 18//18 9//9 14//14
f 19//19 18//18 14//14
f 14//14 15//15 19//19
f 15//15 16//16 20//20
f 10//10 16//16 15//15
f 8//8 21//21 7//7
f 21//21 22//22 7//7
f 5//5 17//17 16//16
f 22//22 13//13 7//7
f 13//13 11//11 7//7
f 23//23 17//17 12//12
f 13//13 23//23 12//12
f 18//18 24//24 9//9
f 9//9 24//24 8//8
f 8//8 24//24 25//25
f 19//19 15//15 26//26
f 26//26 15//15 20//20
f 8//8 25//25 27//27
f 21//21 8//8 27//27
f 17//17 28//28 29//29
f 13//13 22//22 23//23
f 22//22 28//28 23//23
f 23//23 28//28 17//17
f 30//30 18//18 19//19
f 25//25 24//24 31//31
f 32//32 26//26 20//20
f 21//21 27//27 33//33
f 20//20 16//16 29//29
f 17//17 29//29 16//16
f 33//33 22//22 21//21
f 29//29 28//28 34//34
f 34//34 28//28 22//22
f 35//35 18//18 30//30
f 24//24 18//18 35//35
f 29//29 34//34 36//36
f 29//29 36//36 20//20
f 33//33 34//34 22//22
f 37//37 35//35 30//30
f 38//38 37//37 30//30
f 30//30 19//19 38//38
f 38//38 19//19 26//26
f 26//26 32//32 39//39
f 39//39 40//40 26//26
f 25//25 41//41 27//27
f 41//41 25//25 31//31
f 36//36 42//42 32//32
f 32//32 20//20 36//36
f 43//43 36//36 44//44
f 27//27 44//44 33//33
f 36//36 34//34 44//44
f 34//34 33//33 44//44
f 38//38 26//26 40//40
f 24//24 35//35 45//45
f 24//24 45//45 31//31
f 39//39 32//32 42//42
f 46//46 41//41 31//31
f 36//36 47//47 42//42
f 41//41 43//43 27//27
f 43//43 44//44 27//27
f 48//48 49//49 50//50
f 51//51 49//49 48//48
f 52//52 49//49 53//53
f 53//53 49//49 51//51
f 54//54 51//51 48//48
f 55//55 53//53 51//51
f 56//56 52//52 53//53
f 55//55 56//56 53//53
f 57//57 55//55 51//51
f 51//51 54//54 57//57
f 37//37 58//58 35//35
f 58//58 59//59 35//35
f 35//35 59//59 45//45
f 45//45 46//46 31//31
f 43//43 47//47 36//36
f 60//60 61//61 50//50
f 60//60 50//50 62//62
f 50//50 61//61 48//48
f 61//61 63//63 48//48
f 50//50 49//49 62//62
f 62//62 49//49 52//52
f 48//48 64//64 54//54
f 55//55 57//57 65//65
f 55//55 65//65 56//56
f 64//64 57//57 54//54
f 66//66 67//67 68//68
f 69//69 66//66 68//68
f 66//66 69//69 58//58
f 37//37 67//67 66//66
f 37//37 66//66 58//58
f 37//37 38//38 67//67
f 39//39 70//70 40//40
f 46//46 71//71 41//41
f 42//42 47//47 72//72
f 43//43 41//41 71//71
f 73//73 74//74 61//61
f 63//63 61//61 74//74
f 61//61 60//60 73//73
f 60//60 62//62 75//75
f 63//63 76//76 77//77
f 77//77 48//48 63//63
f 77//77 78//78 48//48
f 79//79 62//62 52//52
f 48//48 78//78 64//64
f 79//79 52//52 56//56
f 64//64 80//80 57//57
f 57//57 80//80 65//65
f 67//67 81//81 68//68
f 58//58 82//82 59//59
f 82//82 83//83 59//59
f 67//67 38//38 81//81
f 38//38 40//40 70//70
f 47//47 43//43 84//84
f 71//71 84//84 43//43
f 74//74 73//73 85//85
f 73//73 60//60 86//86
f 86//86 60//60 75//75
f 77//77 87//87 88//88
f 75//75 88//88 87//87
f 75//75 62//62 88//88
f 77//77 88//88 78//78
f 62//62 79//79 88//88
f 88//88 89//89 78//78
f 79//79 89//89 88//88
f 90//90 78//78 89//89
f 90//90 89//89 79//79
f 78//78 90//90 64//64
f 79//79 91//91 90//90
f 79//79 56//56 91//91
f 90//90 80//80 64//64
f 91//91 56//56 65//65
f 91//91 80//80 90//90
f 65//65 80//80 91//91
f 68//68 81//81 92//92
f 81//81 38//38 70//70
f 59//59 83//83 45//45
f 39//39 42//42 93//93
f 45//45 94//94 46//46
f 94//94 71//71 46//46
f 72//72 47//47 84//84
f 85//85 95//95 74//74
f 74//74 95//95 96//96
f 96//96 63//63 74//74
f 86//86 75//75 97//97
f 63//63 98//98 76//76
f 77//77 76//76 87//87
f 75//75 87//87 99//99
f 68//68 100//100 101//101
f 102//102 68//68 101//101
f 68//68 102//102 69//69
f 92//92 100//100 68//68
f 92//92 103//103 100//100
f 102//102 104//104 58//58
f 69//69 102//102 58//58
f 58//58 104//104 82//82
f 83//83 94//94 45//45
f 72//72 93//93 42//42
f 71//71 105//105 106//106
f 106//106 84//84 71//71
f 106//106 72//72 84//84
f 107//107 108//108 85//85
f 95//95 108//108 109//109
f 85//85 108//108 95//95
f 107//107 85//85 110//110
f 110//110 111//111 107//107
f 73//73 110//110 85//85
f 86//86 111//111 110//110
f 110//110 73//73 86//86
f 96//96 98//98 63//63
f 112//112 76//76 98//98
f 112//112 87//87 76//76
f 99//99 87//87 112//112
f 113//113 82//82 104//104
f 81//81 103//103 92//92
f 82//82 113//113 83//83
f 114//114 105//105 94//94
f 94//94 105//105 71//71
f 93//93 72//72 106//106
f 108//108 107//107 115//115
f 107//107 111//111 116//116
f 109//109 96//96 95//95
f 97//97 111//111 86//86
f 97//97 75//75 99//99
f 101//101 100//100 117//117
f 103//103 117//117 100//100
f 118//118 104//104 102//102
f 101//101 118//118 102//102
f 113//113 119//119 83//83
f 81//81 70//70 120//120
f 83//83 119//119 94//94
f 70//70 39//39 121//121
f 121//121 39//39 93//93
f 108//108 122//122 109//109
f 115//115 122//122 108//108
f 109//109 123//123 96//96
f 116//116 111//111 124//124
f 124//124 111//111 97//97
f 96//96 125//125 98//98
f 97//97 99//99 126//126
f 126//126 99//99 127//127
f 128//128 112//112 98//98
f 127//127 99//99 112//112
f 117//117 103//103 129//129
f 129//129 103//103 130//130
f 103//103 81//81 130//130
f 130//130 81//81 120//120
f 120//120 70//70 121//121
f 131//131 114//114 94//94
f 119//119 131//131 94//94
f 132//132 114//114 131//131
f 121//121 106//106 133//133
f 121//121 93//93 106//106
f 132//132 134//134 106//106
f 133//133 106//106 134//134
f 105//105 114//114 132//132
f 106//106 105//105 132//132
f 122//122 115//115 135//135
f 136//136 122//122 135//135
f 135//135 115//115 107//107
f 135//135 107//107 116//116
f 122//122 137//137 109//109
f 109//109 137//137 123//123
f 125//125 96//96 123//123
f 125//125 128//128 98//98
f 128//128 127//127 112//112
f 118//118 101//101 138//138
f 117//117 138//138 101//101
f 139//139 138//138 117//117
f 139//139 117//117 129//129
f 140//140 104//104 118//118
f 104//104 140//140 113//113
f 131//131 134//134 132//132
f 137//137 141//141 123//123
f 141//141 125//125 123//123
f 124//124 97//97 126//126
f 125//125 142//142 128//128
f 127//127 143//143 126//126
f 128//128 143//143 127//127
f 138//138 139//139 144//144
f 118//118 138//138 140//140
f 145//145 113//113 140//140
f 130//130 120//120 129//129
f 146//146 119//119 113//113
f 119//119 146//146 131//131
f 134//134 131//131 147//147
f 133//133 148//148 121//121
f 122//122 136//136 149//149
f 135//135 150//150 136//136
f 122//122 149//149 137//137
f 135//135 116//116 150//150
f 149//149 141//141 137//137
f 150//150 116//116 124//124
f 151//151 124//124 126//126
f 141//141 152//152 125//125
f 152//152 142//142 125//125
f 128//128 142//142 143//143
f 153//153 154//154 144//144
f 153//153 144//144 155//155
f 156//156 138//138 157//157
f 157//157 138//138 144//144
f 139//139 155//155 144//144
f 140//140 156//156 145//145
f 156//156 140//140 138//138
f 155//155 139//139 129//129
f 158//158 155//155 129//129
f 113//113 145//145 146//146
f 158//158 129//129 120//120
f 120//120 159//159 158//158
f 160//160 131//131 146//146
f 147//147 131//131 160//160
f 121//121 159//159 120//120
f 160//160 161//161 147//147
f 159//159 121//121 148//148
f 148//148 147//147 161//161
f 147//147 133//133 134//134
f 148//148 133//133 147//147
f 150//150 124//124 151//151
f 149//149 152//152 141//141
f 151//151 126//126 162//162
f 163//163 142//142 152//152
f 162//162 126//126 164//164
f 164//164 142//142 163//163
f 143//143 142//142 164//164
f 164//164 126//126 143//143
f 153//153 155//155 165//165
f 155//155 158//158 165//165
f 166//166 148//148 161//161
f 166//166 159//159 148//148
f 136//136 167//167 149//149
f 167//167 136//136 150//150
f 167//167 168//168 149//149
f 149//149 168//168 152//152
f 163//163 152//152 168//168
f 169//169 157//157 144//144
f 169//169 144//144 154//154
f 154//154 153//153 170//170
f 170//170 153//153 171//171
f 153//153 165//165 171//171
f 172//172 145//145 156//156
f 146//146 145//145 173//173
f 174//174 158//158 159//159
f 166//166 174//174 159//159
f 161//161 160//160 166//166
f 160//160 175//175 166//166
f 176//176 167//167 150//150
f 150//150 151//151 176//176
f 176//176 151//151 162//162
f 168//168 162//162 163//163
f 164//164 163//163 162//162
f 177//177 178//178 170//170
f 170//170 178//178 154//154
f 171//171 177//177 170//170
f 169//169 179//179 157//157
f 154//154 178//178 169//169
f 180//180 157//157 179//179
f 180//180 156//156 157//157
f 172//172 156//156 180//180
f 181//181 182//182 165//165
f 165//165 182//182 171//171
f 158//158 174//174 181//181
f 181//181 165//165 158//158
f 145//145 172//172 173//173
f 173//173 160//160 146//146
f 175//175 160//160 173//173
f 183//183 166//166 175//175
f 184//184 185//185 186//186
f 187//187 185//185 184//184
f 184//184 186//186 188//188
f 187//187 184//184 188//188
f 176//176 168//168 167//167
f 162//162 168//168 176//176
f 177//177 189//189 190//190
f 191//191 177//177 190//190
f 177//177 191//191 178//178
f 192//192 169//169 178//178
f 192//192 179//179 169//169
f 189//189 177//177 171//171
f 182//182 189//189 171//171
f 193//193 180//180 179//179
f 183//183 194//194 174//174
f 183//183 174//174 166//166
f 195//195 175//175 173//173
f 183//183 175//175 195//195
f 185//185 196//196 186//186
f 185//185 187//187 196//196
f 186//186 196//196 188//188
f 187//187 188//188 196//196
f 191//191 192//192 178//178
f 189//189 182//182 197//197
f 198//198 182//182 181//181
f 172//172 180//180 199//199
f 194//194 181//181 174//174
f 195//195 173//173 172//172
f 195//195 200//200 183//183
f 200//200 194//194 183//183
f 190//190 201//201 202//202
f 203//203 201//201 204//204
f 204//204 201//201 190//190
f 191//191 205//205 192//192
f 206//206 205//205 191//191
f 190//190 206//206 191//191
f 190//190 189//189 204//204
f 203//203 204//204 197//197
f 205//205 207//207 192//192
f 204//204 189//189 197//197
f 207//207 193//193 179//179
f 207//207 179//179 192//192
f 182//182 208//208 197//197
f 182//182 198//198 208//208
f 209//209 180//180 193//193
f 180//180 209//209 199//199
f 210//210 194//194 211//211
f 210//210 212//212 194//194
f 181//181 194//194 212//212
f 198//198 181//181 212//212
f 211//211 200//200 199//199
f 172//172 199//199 200//200
f 172//172 200//200 195//195
f 194//194 200//200 211//211
f 213//213 214//214 202//202
f 213//213 202//202 201//201
f 213//213 201//201 215//215
f 202//202 206//206 190//190
f 215//215 201//201 203//203
f 216//216 203//203 197//197
f 217//217 193//193 207//207
f 208//208 198//198 212//212
f 209//209 211//211 199//199
f 218//218 202//202 214//214
f 202//202 219//219 206//206
f 219//219 205//205 206//206
f 203//203 216//216 220//220
f 205//205 219//219 207//207
f 216//216 197//197 208//208
f 209//209 193//193 217//217
f 208//208 212//212 221//221
f 221//221 216//216 208//208
f 222//222 212//212 210//210
f 209//209 210//210 211//211
f 223//223 224//224 225//225
f 226//226 227//227 228//228
f 223//223 227//227 226//226
f 223//223 226//226 224//224
f 214//214 229//229 218//218
f 214//214 213//213 227//227
f 229//229 214//214 227//227
f 228//228 227//227 213//213
f 230//230 226//226 228//228
f 224//224 226//226 230//230
f 228//228 213//213 215//215
f 230//230 228//228 215//215
f 202//202 218//218 219//219
f 203//203 220//220 215//215
f 217//217 231//231 209//209
f 212//212 232//232 221//221
f 231//231 232//232 222//222
f 212//212 222//222 232//232
f 231//231 210//210 209//209
f 222//222 210//210 231//231
f 223//223 225//225 233//233
f 225//225 224//224 234//234
f 235//235 218//218 229//229
f 235//235 219//219 218//218
f 215//215 220//220 230//230
f 219//219 236//236 207//207
f 216//216 237//237 220//220
f 238//238 217//217 207//207
f 239//239 217//217 238//238
f 240//240 216//216 221//221
f 239//239 241//241 217//217
f 242//242 240//240 221//221
f 231//231 217//217 241//241
f 242//242 221//221 232//232
f 243//243 223//223 233//233
f 243//243 233//233 244//244
f 225//225 245//245 233//233
f 245//245 246//246 233//233
f 243//243 229//229 227//227
f 223//223 243//243 227//227
f 245//245 225//225 234//234
f 247//247 234//234 224//224
f 230//230 247//247 224//224
f 248//248 247//247 230//230
f 219//219 235//235 249//249
f 219//219 249//249 236//236
f 207//207 236//236 238//238
f 216//216 240//240 237//237
f 241//241 242//242 231//231
f 231//231 242//242 232//232
f 250//250 251//251 252//252
f 244//244 233//233 253//253
f 253//253 233//233 246//246
f 246//246 245//245 251//251
f 245//245 252//252 251//251
f 252//252 245//245 234//234
f 254//254 229//229 243//243
f 248//248 230//230 220//220
f 255//255 248//248 220//220
f 220//220 237//237 255//255
f 239//239 238//238 256//256
f 240//240 257//257 237//237
f 241//241 239//239 256//256
f 241//241 256//256 258//258
f 242//242 258//258 240//240
f 257//257 240//240 258//258
f 258//258 242//242 241//241
f 251//251 250//250 259//259
f 251//251 259//259 246//246
f 246//246 259//259 253//253
f 250//250 252//252 260//260
f 229//229 254//254 235//235
f 235//235 261//261 249//249
f 255//255 237//237 262//262
f 257//257 263//263 237//237
f 263//263 262//262 237//237
f 264//264 258//258 256//256
f 257//257 258//258 264//264
f 253//253 259//259 265//265
f 266//266 252//252 234//234
f 247//247 266//266 234//234
f 235//235 254//254 267//267
f 261//261 235//235 267//267
f 249//249 261//261 268//268
f 269//269 248//248 255//255
f 270//270 269//269 255//255
f 268//268 236//236 249//249
f 262//262 270//270 255//255
f 238//238 271//271 256//256
f 238//238 236//236 271//271
f 264//264 263//263 257//257
f 264//264 256//256 271//271
f 265//265 259//259 272//272
f 250//250 272//272 259//259
f 250//250 260//260 273//273
f 250//250 273//273 272//272
f 274//274 253//253 265//265
f 253//253 274//274 244//244
f 274//274 243//243 244//244
f 254//254 243//243 274//274
f 260//260 252//252 266//266
f 275//275 266//266 247//247
f 267//267 276//276 261//261
f 247//247 248//248 275//275
f 277//277 268//268 261//261
f 268//268 271//271 236//236
f 278//278 270//270 262//262
f 263//263 278//278 262//262
f 279//279 264//264 271//271
f 263//263 264//264 279//279
f 273//273 260//260 280//280
f 280//280 260//260 281//281
f 274//274 282//282 254//254
f 260//260 266//266 283//283
f 254//254 282//282 267//267
f 248//248 269//269 284//284
f 275//275 248//248 284//284
f 277//277 271//271 268//268
f 277//277 279//279 271//271
f 279//279 278//278 263//263
f 273//273 280//280 285//285
f 273//273 285//285 272//272
f 281//281 260//260 283//283
f 286//286 275//275 284//284
f 277//277 261//261 287//287
f 287//287 261//261 276//276
f 269//269 270//270 288//288
f 270//270 289//289 288//288
f 287//287 279//279 277//277
f 279//279 287//287 278//278
f 287//287 289//289 278//278
f 289//289 270//270 278//278
f 290//290 265//265 291//291
f 291//291 265//265 272//272
f 280//280 281//281 292//292
f 285//285 280//280 292//292
f 290//290 274//274 265//265
f 293//293 283//283 266//266
f 267//267 282//282 294//294
f 293//293 266//266 275//275
f 267//267 294//294 276//276
f 289//289 287//287 295//295
f 274//274 290//290 296//296
f 292//292 281//281 297//297
f 297//297 281//281 298//298
f 296//296 282//282 274//274
f 299//299 294//294 282//282
f 284//284 288//288 300//300
f 287//287 276//276 294//294
f 287//287 294//294 295//295
f 301//301 289//289 295//295
f 289//289 301//301 288//288
f 288//288 284//284 269//269
f 285//285 302//302 272//272
f 285//285 303//303 302//302
f 292//292 303//303 285//285
f 297//297 304//304 292//292
f 282//282 296//296 305//305
f 298//298 281//281 283//283
f 298//298 283//283 293//293
f 293//293 286//286 306//306
f 275//275 286//286 293//293
f 282//282 305//305 299//299
f 284//284 300//300 286//286
f 301//301 294//294 299//299
f 288//288 307//307 300//300
f 294//294 301//301 295//295
f 288//288 301//301 307//307
f 292//292 304//304 308//308
f 303//303 292//292 308//308
f 308//308 304//304 309//309
f 291//291 310//310 290//290
f 272//272 302//302 291//291
f 311//311 296//296 290//290
f 296//296 312//312 305//305
f 313//313 298//298 293//293
f 314//314 298//298 313//313
f 315//315 305//305 312//312
f 306//306 286//286 316//316
f 299//299 305//305 301//301
f 301//301 305//305 315//315
f 307//307 316//316 300//300
f 316//316 286//286 300//300
f 307//307 301//301 315//315
f 302//302 317//317 291//291
f 304//304 318//318 319//319
f 309//309 304//304 319//319
f 290//290 310//310 311//311
f 304//304 297//297 318//318
f 318//318 297//297 320//320
f 314//314 297//297 298//298
f 306//306 313//313 293//293
f 321//321 322//322 312//312
f 312//312 322//322 315//315
f 316//316 315//315 322//322
f 316//316 307//307 315//315
f 303//303 323//323 302//302
f 303//303 324//324 323//323
f 291//291 317//317 310//310
f 323//323 317//317 302//302
f 319//319 318//318 325//325
f 296//296 321//321 312//312
f 296//296 311//311 321//321
f 320//320 297//297 314//314
f 313//313 326//326 327//327
f 328//328 314//314 313//313
f 321//321 326//326 316//316
f 306//306 316//316 326//326
f 326//326 313//313 306//306
f 321//321 316//316 322//322
f 303//303 308//308 324//324
f 308//308 309//309 329//329
f 324//324 308//308 329//329
f 329//329 309//309 330//330
f 323//323 331//331 317//317
f 330//330 309//309 319//319
f 332//332 330//330 319//319
f 333//333 310//310 317//317
f 332//332 319//319 325//325
f 311//311 310//310 333//333
f 333//333 334//334 311//311
f 318//318 320//320 325//325
f 332//332 325//325 320//320
f 311//311 334//334 321//321
f 320//320 314//314 335//335
f 335//335 314//314 328//328
f 326//326 321//321 334//334
f 336//336 326//326 334//334
f 328//328 313//313 327//327
f 337//337 324//324 329//329
f 323//323 338//338 331//331
f 323//323 324//324 338//338
f 331//331 339//339 317//317
f 330//330 332//332 340//340
f 317//317 339//339 333//333
f 334//334 333//333 341//341
f 332//332 320//320 342//342
f 336//336 334//334 341//341
f 336//336 343//343 326//326
f 326//326 343//343 327//327
f 338//338 324//324 337//337
f 330//330 344//344 329//329
f 336//336 341//341 343//343
f 342//342 320//320 345//345
f 329//329 346//346 337//337
f 329//329 344//344 346//346
f 330//330 340//340 347//347
f 330//330 347//347 344//344
f 331//331 348//348 339//339
f 349//349 348//348 331//331
f 339//339 348//348 333//333
f 340//340 332//332 350//350
f 333//333 348//348 341//341
f 351//351 341//341 348//348
f 351//351 343//343 341//341
f 352//352 343//343 351//351
f 342//342 350//350 332//332
f 343//343 352//352 327//327
f 335//335 328//328 353//353
f 320//320 335//335 345//345
f 335//335 353//353 345//345
f 354//354 338//338 337//337
f 338//338 349//349 331//331
f 347//347 340//340 355//355
f 356//356 348//348 349//349
f 351//351 348//348 356//356
f 340//340 350//350 357//357
f 357//357 355//355 340//340
f 352//352 351//351 356//356
f 342//342 357//357 350//350
f 328//328 327//327 358//358
f 327//327 352//352 358//358
f 353//353 328//328 358//358
f 357//357 342//342 359//359
f 346//346 360//360 337//337
f 337//337 360//360 354//354
f 344//344 361//361 346//346
f 354//354 349//349 338//338
f 344//344 347//347 361//361
f 361//361 347//347 362//362
f 358//358 352//352 363//363
f 358//358 364//364 353//353
f 357//357 359//359 365//365
f 359//359 342//342 345//345
f 361//361 360//360 346//346
f 349//349 354//354 366//366
f 367//367 366//366 354//354
f 360//360 367//367 354//354
f 368//368 349//349 366//366
f 347//347 355//355 369//369
f 347//347 369//369 362//362
f 355//355 370//370 369//369
f 349//349 368//368 356//356
f 371//371 368//368 366//366
f 372//372 356//356 368//368
f 373//373 368//368 371//371
f 373//373 372//372 368//368
f 370//370 355//355 357//357
f 374//374 370//370 357//357
f 356//356 372//372 352//352
f 363//363 352//352 372//372
f 358//358 363//363 364//364
f 365//365 374//374 357//357
f 353//353 364//364 345//345
f 345//345 364//364 375//375
f 359//359 345//345 376//376
f 345//345 375//375 376//376
f 377//377 367//367 360//360
f 362//362 378//378 361//361
f 361//361 378//378 360//360
f 370//370 379//379 369//369
f 379//379 370//370 374//374
f 363//363 372//372 373//373
f 363//363 380//380 364//364
f 381//381 374//374 365//365
f 359//359 381//381 365//365
f 382//382 359//359 376//376
f 381//381 359//359 382//382
f 360//360 378//378 377//377
f 369//369 378//378 362//362
f 371//371 366//366 367//367
f 369//369 379//379 383//383
f 373//373 380//380 363//363
f 374//374 384//384 379//379
f 384//384 374//374 381//381
f 375//375 364//364 380//380
f 375//375 385//385 376//376
f 376//376 385//385 386//386
f 382//382 376//376 386//386
f 377//377 378//378 387//387
f 378//378 369//369 387//387
f 369//369 388//388 387//387
f 367//367 389//389 371//371
f 389//389 367//367 390//390
f 369//369 383//383 388//388
f 371//371 389//389 373//373
f 391//391 383//383 392//392
f 392//392 383//383 379//379
f 373//373 389//389 380//380
f 393//393 389//389 394//394
f 380//380 389//389 393//393
f 395//395 392//392 379//379
f 395//395 379//379 384//384
f 385//385 375//375 380//380
f 384//384 381//381 382//382
f 396//396 384//384 382//382
f 396//396 395//395 384//384
f 397//397 382//382 386//386
f 396//396 382//382 397//397
f 367//367 377//377 390//390
f 398//398 390//390 377//377
f 398//398 377//377 387//387
f 383//383 391//391 388//388
f 394//394 389//389 390//390
f 395//395 399//399 392//392
f 400//400 392//392 399//399
f 380//380 393//393 385//385
f 399//399 395//395 396//396
f 386//386 385//385 401//401
f 397//397 386//386 402//402
f 397//397 403//403 396//396
f 399//399 396//396 403//403
f 398//398 387//387 404//404
f 388//388 404//404 387//387
f 391//391 405//405 388//388
f 391//391 392//392 406//406
f 392//392 400//400 406//406
f 385//385 393//393 407//407
f 408//408 400//400 399//399
f 385//385 407//407 401//401
f 386//386 401//401 402//402
f 403//403 408//408 399//399
f 408//408 403//403 409//409
f 403//403 397//397 409//409
f 398//398 410//410 390//390
f 410//410 411//411 390//390
f 404//404 410//410 398//398
f 405//405 404//404 388//388
f 391//391 406//406 405//405
f 390//390 411//411 394//394
f 411//411 393//393 394//394
f 412//412 393//393 411//411
f 406//406 400//400 413//413
f 414//414 413//413 400//400
f 407//407 393//393 412//412
f 407//407 412//412 401//401
f 401//401 412//412 415//415
f 400//400 408//408 414//414
f 408//408 416//416 414//414
f 401//401 415//415 402//402
f 397//397 402//402 417//417
f 408//408 409//409 416//416
f 409//409 397//397 417//417
f 416//416 409//409 418//418
f 404//404 405//405 410//410
f 406//406 419//419 405//405
f 406//406 413//413 419//419
f 413//413 414//414 420//420
f 402//402 415//415 421//421
f 418//418 414//414 416//416
f 402//402 421//421 417//417
f 410//410 405//405 422//422
f 410//410 422//422 411//411
f 423//423 422//422 405//405
f 419//419 423//423 405//405
f 422//422 424//424 411//411
f 411//411 424//424 412//412
f 420//420 414//414 425//425
f 412//412 424//424 415//415
f 414//414 418//418 425//425
f 417//417 418//418 409//409
f 422//422 426//426 424//424
f 423//423 426//426 422//422
f 413//413 420//420 419//419
f 426//426 427//427 424//424
f 427//427 415//415 424//424
f 428//428 425//425 418//418
f 417//417 428//428 418//418
f 429//429 426//426 423//423
f 429//429 423//423 419//419
f 420//420 429//429 419//419
f 430//430 427//427 426//426
f 429//429 430//430 426//426
f 431//431 427//427 430//430
f 427//427 431//431 415//415
f 421//421 415//415 431//431
f 417//417 421//421 431//431
f 431//431 428//428 417//417
f 429//429 420//420 425//425
f 429//429 425//425 428//428
f 429//429 428//428 430//430
f 430//430 428//428 431//431
