# Generated by Visualization Toolkit
v 102.56138610839844 -273.15667724609375 507.09552001953125
v 101.15502166748047 -276.9223937988281 506.68316650390625
v 99.93428039550781 -277.1009216308594 505.3941955566406
v 103.53961181640625 -272.2333984375 506.8296203613281
v 100.76959991455078 -273.2590637207031 505.189453125
v 102.83729553222656 -271.64764404296875 506.8777770996094
v 106.51969909667969 -267.919677734375 509.48724365234375
v 105.72978973388672 -271.4892883300781 508.8040771484375
v 104.86454772949219 -267.6523742675781 510.22314453125
v 102.60875701904297 -273.77728271484375 508.6636657714844
v 101.8088607788086 -274.5624084472656 508.49505615234375
v 100.40083312988281 -276.2926330566406 507.6186828613281
v 107.45162200927734 -264.3574523925781 508.8574523925781
v 110.04910278320312 -261.58990478515625 510.09735107421875
v 109.36483764648438 -264.4330749511719 510.07440185546875
v 107.60197448730469 -268.8856506347656 511.45416259765625
v 103.30712890625 -274.9633483886719 510.2681884765625
v 99.73158264160156 -275.9987487792969 512.1808471679688
v 99.20917510986328 -278.47540283203125 512.5303344726562
v 101.66252899169922 -277.6579895019531 511.02398681640625
v 109.57272338867188 -258.3389587402344 512.8790893554688
v 112.2232437133789 -253.85704040527344 514.3555908203125
v 110.75679016113281 -258.3946533203125 511.5865478515625
v 113.54698181152344 -254.92356872558594 513.8915405273438
v 105.1999740600586 -263.7087097167969 514.2496337890625
v 112.71052551269531 -260.35394287109375 514.3966674804688
v 102.55262756347656 -269.57733154296875 512.246826171875
v 103.46066284179688 -274.92486572265625 513.9724731445312
v 99.4287338256836 -278.65557861328125 515.5205688476562
v 111.20648956298828 -263.4768371582031 516.312255859375
v 102.4410629272461 -266.4590759277344 514.2965698242188
v 100.1175537109375 -270.1954650878906 515.0851440429688
v 107.83179473876953 -267.7093811035156 516.06201171875
v 115.02418518066406 -251.61134338378906 517.6815185546875
v 114.92610931396484 -255.8885955810547 517.1356811523438
v 107.73709106445312 -259.52093505859375 521.0230102539062
v 103.15001678466797 -262.75592041015625 516.5369873046875
v 100.072265625 -261.1218566894531 516.2951049804688
v 98.64553833007812 -263.1744079589844 515.8914794921875
v 99.79948425292969 -276.9015197753906 519.1990966796875
v 127.02014923095703 -217.51138305664062 519.7235717773438
v 126.45709228515625 -221.6012420654297 517.964111328125
v 125.07823181152344 -221.0662384033203 518.4251098632812
v 124.4664306640625 -225.17027282714844 518.2553100585938
v 125.43519592285156 -228.10032653808594 518.3888549804688
v 122.8599853515625 -230.693115234375 516.465087890625
v 123.34209442138672 -231.9914093017578 518.7361450195312
v 121.73824310302734 -232.74603271484375 515.0450439453125
v 122.1952896118164 -234.7740020751953 520.9026489257812
v 120.3846206665039 -236.2977294921875 519.0181274414062
v 120.3846206665039 -236.2977294921875 519.0181274414062
v 120.3846206665039 -236.2977294921875 519.0181274414062
v 120.3846206665039 -236.2977294921875 519.0181274414062
v 120.3846206665039 -236.2977294921875 519.0181274414062
v 116.39574432373047 -252.09922790527344 519.560302734375
v 113.142333984375 -251.9541473388672 519.4022216796875
v 109.56224822998047 -257.569091796875 520.9580688476562
v 98.45220184326172 -259.5743103027344 518.0517578125
v 99.97614288330078 -256.3014831542969 519.8562622070312
v 113.35891723632812 -259.9942932128906 517.9074096679688
v 105.97061157226562 -260.39459228515625 520.9966430664062
v 96.14592742919922 -262.6705322265625 519.6315307617188
v 96.49457550048828 -266.3179931640625 517.8657836914062
v 97.84893035888672 -268.7110290527344 517.8550415039062
v 105.8583755493164 -267.25848388671875 519.83447265625
v 103.44935607910156 -272.55517578125 517.2926025390625
v 98.60166931152344 -270.55877685546875 519.4552001953125
v 98.43970489501953 -271.5412902832031 517.6724243164062
v 96.01846313476562 -276.1630554199219 520.276611328125
v 100.3097152709961 -274.4519958496094 521.3345947265625
v 96.48516082763672 -277.9219055175781 520.60546875
v 127.95392608642578 -221.19090270996094 519.9229125976562
v 123.08199310302734 -227.51780700683594 521.1522216796875
v 125.45153045654297 -228.64163208007812 522.8927001953125
v 120.3846206665039 -236.2977294921875 519.01806640625
v 120.3846206665039 -236.2977294921875 519.0181274414062
v 120.3846206665039 -236.2977294921875 519.0181274414062
v 120.3846206665039 -236.2977294921875 519.0181274414062
v 116.29672241210938 -248.09022521972656 522.385009765625
v 117.50720977783203 -252.08717346191406 523.79248046875
v 110.87356567382812 -254.54319763183594 522.7623291015625
v 113.89254760742188 -258.40142822265625 522.7918090820312
v 110.52804565429688 -262.50531005859375 521.9070434570312
v 94.33824157714844 -266.96539306640625 523.2736206054688
v 101.5498046875 -270.7838134765625 520.4227905273438
v 98.18013000488281 -268.748779296875 520.5431518554688
v 128.70382690429688 -215.67584228515625 522.8515625
v 129.1243896484375 -218.93392944335938 523.2449340820312
v 125.98856353759766 -215.230224609375 524.2294921875
v 124.36260986328125 -219.40367126464844 524.2608642578125
v 128.16607666015625 -223.69622802734375 524.4854736328125
v 123.51773071289062 -226.6324462890625 524.863037109375
v 122.59769439697266 -231.53138732910156 521.751220703125
v 123.37030029296875 -231.64007568359375 522.2738037109375
v 120.3846206665039 -236.2977294921875 519.01806640625
v 113.63444519042969 -248.83509826660156 522.6016845703125
v 111.5196533203125 -252.0789031982422 522.404541015625
v 101.21318817138672 -256.49652099609375 521.610595703125
v 99.52840423583984 -269.7507019042969 520.4851684570312
v 101.3559341430664 -267.24615478515625 522.30224609375
v 96.68407440185547 -266.758544921875 524.6089477539062
v 97.97101593017578 -273.3510437011719 521.62109375
v 127.2109146118164 -214.86257934570312 523.0153198242188
v 129.0345916748047 -208.88233947753906 526.13330078125
v 127.1539077758789 -207.86892700195312 527.5244140625
v 130.058349609375 -213.96568298339844 525.3719482421875
v 129.50509643554688 -218.9630126953125 526.0502319335938
v 118.11882781982422 -248.0426483154297 525.4094848632812
v 117.09779357910156 -245.92051696777344 524.197265625
v 106.9537124633789 -251.2198944091797 525.98291015625
v 108.98249816894531 -255.5006866455078 526.458740234375
v 106.63336944580078 -257.0827941894531 525.7522583007812
v 103.51289367675781 -255.37794494628906 526.0917358398438
v 99.7901382446289 -257.80035400390625 523.8206787109375
v 97.0838623046875 -262.1844787597656 525.3089599609375
v 111.71199798583984 -258.63232421875 526.4923706054688
v 103.15455627441406 -262.79522705078125 525.6747436523438
v 131.1196746826172 -209.3986053466797 527.9373779296875
v 125.22314453125 -215.8218231201172 527.05712890625
v 125.98860168457031 -225.79052734375 527.440185546875
v 110.97789764404297 -247.61268615722656 526.8484497070312
v 117.77110290527344 -251.38377380371094 529.5968627929688
v 115.11520385742188 -255.0873565673828 527.4331665039062
v 107.6392593383789 -258.3791198730469 527.21435546875
v 95.83866882324219 -265.3204650878906 525.5277099609375
v 99.69847869873047 -263.97119140625 526.1119384765625
v 129.23663330078125 -204.54998779296875 530.5514526367188
v 127.5460433959961 -201.46852111816406 533.2041015625
v 130.89353942871094 -213.561279296875 527.9769287109375
v 125.81693267822266 -207.80734252929688 530.8374633789062
v 125.25892639160156 -217.8512725830078 529.0695190429688
v 129.33349609375 -216.3809051513672 530.8826904296875
v 127.7014389038086 -221.53253173828125 528.217041015625
v 124.89176177978516 -224.7842559814453 527.6926879882812
v 116.74503326416016 -245.6432342529297 528.0906982421875
v 114.51394653320312 -245.0619354248047 530.7655639648438
v 107.87313842773438 -249.50660705566406 528.9052124023438
v 118.62212371826172 -246.07586669921875 532.2662353515625
v 108.45751190185547 -255.0741424560547 528.3536987304688
v 103.8478012084961 -257.9068298339844 526.7996215820312
v 112.09239959716797 -256.1653747558594 528.5775756835938
v 109.74385070800781 -256.00048828125 528.7826538085938
v 131.22467041015625 -207.13296508789062 530.6026000976562
v 131.0515899658203 -210.42127990722656 532.4069213867188
v 127.66725158691406 -216.93930053710938 531.8082275390625
v 125.96576690673828 -220.43572998046875 529.4253540039062
v 117.80509185791016 -245.11941528320312 529.9390258789062
v 110.96812438964844 -246.9346466064453 531.9851684570312
v 106.849365234375 -251.3132781982422 531.3117065429688
v 106.87510681152344 -252.2739715576172 531.7000732421875
v 115.90148162841797 -251.86036682128906 532.2172241210938
v 110.14542388916016 -252.61790466308594 532.667724609375
v 126.87815856933594 -203.1275177001953 533.4346923828125
v 130.4425811767578 -207.22946166992188 533.1815795898438
v 126.57061767578125 -211.43295288085938 534.2445068359375
v 121.89049530029297 -231.78009033203125 532.0690307617188
v 121.89049530029297 -231.78009033203125 532.0690307617188
v 121.89049530029297 -231.78009033203125 532.0690307617188
v 121.89049530029297 -231.78009033203125 532.0690307617188
v 121.89049530029297 -231.78009033203125 532.0690307617188
v 118.2474365234375 -239.73985290527344 532.2832641601562
v 118.00578308105469 -241.32244873046875 532.0574340820312
v 116.6640853881836 -242.68617248535156 533.3187866210938
v 117.34593200683594 -249.1935272216797 533.2487182617188
v 128.63809204101562 -211.56912231445312 534.5933837890625
v 121.89049530029297 -231.78009033203125 532.0690307617188
v 116.59082794189453 -246.87400817871094 534.5897827148438
v 112.94779205322266 -245.8969268798828 534.2789306640625
v 113.10218811035156 -247.64341735839844 535.145751953125
v 115.21818542480469 -249.5641632080078 534.8472290039062
v 128.28744506835938 -207.22813415527344 534.6445922851562
vn -0.9060781598091125 0.06525687128305435 0.41804784536361694
vn 0.49278929829597473 -0.7133154273033142 -0.4983369708061218
vn 0.3799862265586853 -0.8689837455749512 -0.31698229908943176
vn 0.6223438382148743 -0.3447112441062927 -0.7027533650398254
vn -0.7435378432273865 0.6505799889564514 -0.15458737313747406
vn -0.4615362286567688 0.7122570872306824 -0.5288423299789429
vn 0.41308069229125977 0.03292466700077057 -0.9100990891456604
vn 0.8270160555839539 -0.41013678908348083 -0.3844897449016571
vn -0.7291215658187866 0.4526172876358032 -0.5133413076400757
vn -0.11889113485813141 -0.16652405261993408 -0.9788435697555542
vn -0.6321858763694763 0.6591183543205261 -0.40731319785118103
vn -0.9811916351318359 0.16528186202049255 0.0997246503829956
vn -0.20749761164188385 0.22816875576972961 -0.9512538313865662
vn 0.5746731162071228 0.062185775488615036 -0.8160170316696167
vn 0.7609882950782776 -0.34933406114578247 -0.5466831922531128
vn 0.8579580783843994 -0.47491997480392456 -0.19585438072681427
vn 0.7444331049919128 -0.5823224782943726 -0.3266802132129669
vn -0.8752433657646179 0.33668503165245056 -0.34726405143737793
vn -0.6885532736778259 -0.6562680602073669 -0.3085557222366333
vn 0.6110941767692566 -0.7892252802848816 -0.060723792761564255
vn -0.7622895240783691 0.5756562948226929 -0.29586246609687805
vn -0.4653646647930145 0.7304242849349976 -0.49991607666015625
vn -0.30610552430152893 0.5217729210853577 -0.7962741255760193
vn 0.6791843175888062 0.21360695362091064 -0.7021970748901367
vn -0.6064401268959045 0.6466767191886902 -0.46264418959617615
vn 0.8931902050971985 -0.32906651496887207 -0.3064744472503662
vn -0.8028120994567871 0.37509018182754517 -0.46346545219421387
vn 0.7957887053489685 -0.5779355764389038 0.18086130917072296
vn 0.39707934856414795 -0.9050273299217224 0.1524915099143982
vn 0.8283050656318665 -0.5599509477615356 0.019124634563922882
vn -0.4488973319530487 0.4037611484527588 -0.7971625924110413
vn -0.777665913105011 0.07201090455055237 -0.6245400309562683
vn 0.7428146004676819 -0.6092360019683838 0.2775932252407074
vn 0.2533734440803528 0.7464801669120789 -0.6152797937393188
vn 0.9284225702285767 -0.24849949777126312 -0.27618759870529175
vn -0.5832309722900391 0.7493093013763428 -0.3136516213417053
vn 0.22736552357673645 0.676618218421936 -0.700351893901825
vn -0.044255129992961884 0.4913347065448761 -0.8698458075523376
vn -0.5562785863876343 0.21374432742595673 -0.8030364513397217
vn 0.6106438636779785 -0.6769602298736572 0.4109002649784088
vn 0.09456445276737213 0.5916540622711182 -0.8006266355514526
vn 0.259986937046051 0.10164134204387665 -0.960247814655304
vn -0.7488188743591309 0.3351093530654907 -0.5718146562576294
vn -0.447252094745636 0.16811026632785797 -0.8784671425819397
vn 0.7924931049346924 -0.2990535497665405 -0.5315277576446533
vn 0.2615363597869873 0.1631052941083908 -0.9513124823570251
vn 0.8746592998504639 -0.45403215289115906 -0.16978229582309723
vn -0.7621512413024902 0.06611639261245728 -0.6440140604972839
vn 0.1583678275346756 -0.7895381450653076 0.5929158329963684
vn 0 -0 0
vn 0 -0 0
vn 0 -0 0
vn 0 -0 0
vn 0 -0 0
vn 0.9023544192314148 0.10822919756174088 -0.41718462109565735
vn -0.6907200217247009 0.619410514831543 -0.3731441795825958
vn -0.8065783381462097 0.5688053369522095 -0.16090980172157288
vn -0.6189543604850769 0.48199811577796936 -0.6201397776603699
vn -0.41919177770614624 0.8490036725997925 -0.3216691315174103
vn 0.8854517936706543 -0.4625735878944397 -0.04473044350743294
vn 0.017649024724960327 0.8424763679504395 -0.5384441018104553
vn -0.8941630721092224 0.3618738651275635 -0.2636660635471344
vn -0.8398975133895874 -0.14105741679668427 -0.5240945219993591
vn -0.8711012005805969 -0.4534133970737457 -0.18867731094360352
vn 0.5016717910766602 -0.6275453567504883 0.5954093933105469
vn 0.7322695851325989 -0.46865639090538025 0.49410775303840637
vn -0.9473195672035217 0.04991031065583229 0.3163772225379944
vn -0.9613174200057983 0.06821397691965103 -0.2668628394603729
vn -0.9779728651046753 0.18703581392765045 -0.09266498684883118
vn 0.5820185542106628 -0.3457452058792114 0.7360126972198486
vn -0.22758056223392487 -0.7479932308197021 0.6234686970710754
vn 0.900226354598999 -0.04894602298736572 -0.4326625466346741
vn -0.9589049220085144 0.25697171688079834 -0.12027868628501892
vn 0.8417019248008728 -0.5325229167938232 0.08920355141162872
vn 0 -0 0
vn 0 -0 0
vn 0 -0 0
vn 0 -0 0
vn 0.3076607584953308 0.6412114500999451 -0.7029884457588196
vn 0.9439440369606018 -0.3247883915901184 -0.05900997668504715
vn -0.873810350894928 0.34192803502082825 -0.3457466661930084
vn 0.7751631736755371 -0.598764181137085 0.20150317251682281
vn 0.6603924632072449 -0.6759873628616333 0.3269908130168915
vn -0.8966754078865051 -0.4109797179698944 0.1645265519618988
vn 0.36424219608306885 -0.2163451611995697 0.9058269262313843
vn -0.3874512016773224 -0.7663165926933289 0.5124847292900085
vn 0.7029858827590942 0.3104807138442993 -0.6398535966873169
vn 0.9582929611206055 -0.09570401906967163 -0.26928675174713135
vn -0.8413194417953491 0.40115877985954285 -0.3622890114784241
vn -0.974625825881958 0.22138148546218872 -0.03308911621570587
vn 0.9277889132499695 -0.37022000551223755 0.04631293937563896
vn -0.8743157386779785 -0.16291312873363495 0.45719948410987854
vn -0.9103350639343262 -0.03351035714149475 0.41251325607299805
vn 0.21178647875785828 -0.6576265692710876 0.7229619026184082
vn 0 -0 0
vn -0.46712005138397217 0.6460096836090088 -0.603713870048523
vn -0.7884067893028259 0.1878480762243271 -0.5857712030410767
vn 0.23608869314193726 0.9142729640007019 -0.329191654920578
vn -0.36487236618995667 -0.17561964690685272 0.9143445491790771
vn 0.15725283324718475 -0.6248995661735535 0.7647039890289307
vn -0.0023894093465059996 -0.7567896842956543 0.6536540985107422
vn -0.3789043128490448 0.22253084182739258 0.8982825875282288
vn -0.26983562111854553 0.598415195941925 -0.7543792724609375
vn 0.3009664714336395 0.5304327011108398 -0.7925026416778564
vn -0.6880928874015808 0.4588056802749634 -0.5621614456176758
vn 0.9004953503608704 0.03637891635298729 -0.43334147334098816
vn 0.9620806574821472 -0.2703099846839905 0.036515697836875916
vn 0.910015881061554 0.2938308119773865 -0.2924629747867584
vn 0.20353224873542786 0.8742870092391968 -0.44067785143852234
vn -0.9103458523750305 0.16254812479019165 -0.38058972358703613
vn -0.8951712250709534 0.326875239610672 -0.30302006006240845
vn -0.022039636969566345 0.9963716864585876 0.08220575749874115
vn -0.2648339867591858 0.7742902040481567 0.5747500658035278
vn -0.6175969839096069 0.735355019569397 0.27897486090660095
vn -0.7517411708831787 0.45575183629989624 0.4766294062137604
vn 0.4191840589046478 -0.6674419641494751 0.6154721975326538
vn 0.20039288699626923 -0.5036816596984863 0.8403258323669434
vn 0.9037632942199707 0.21129600703716278 -0.37224438786506653
vn -0.9826940894126892 0.1787058264017105 -0.048750948160886765
vn 0.3117029666900635 -0.5912318825721741 0.7438320517539978
vn -0.5048252940177917 0.8118205666542053 -0.2934260666370392
vn 0.8544812798500061 -0.4709787964820862 0.2191820740699768
vn 0.6651555895805359 -0.6671342253684998 0.3354102671146393
vn -0.2982391119003296 -0.09560491889715195 0.9496910572052002
vn -0.39294111728668213 -0.14558234810829163 0.9079664349555969
vn 0.14626385271549225 -0.44331464171409607 0.8843523263931274
vn 0.707882285118103 0.6295514106750488 -0.3202618658542633
vn 0.12733881175518036 0.9913917779922485 0.030450614169239998
vn 0.9826517105102539 -0.18142759799957275 -0.038467250764369965
vn -0.9829519391059875 0.17246505618095398 -0.06372902542352676
vn -0.947037398815155 -0.002077437937259674 0.32111677527427673
vn 0.7900682687759399 -0.4126703441143036 0.45331600308418274
vn 0.6679737567901611 -0.46916913986206055 0.5776602625846863
vn -0.5890890955924988 -0.31011244654655457 0.7461932301521301
vn 0.41172337532043457 0.8887463212013245 -0.20152893662452698
vn -0.34053024649620056 0.8938040733337402 -0.2918107211589813
vn -0.7173848152160645 0.6951812505722046 -0.04562981799244881
vn 0.9992913007736206 -0.019244976341724396 0.032350923866033554
vn -0.9225233197212219 -0.3530033230781555 0.156011164188385
vn -0.07073084264993668 0.15428125858306885 0.9854919910430908
vn 0.20287132263183594 -0.6979957222938538 0.6867642998695374
vn -0.27836212515830994 -0.6389366984367371 0.7171292901039124
vn 0.9447056651115417 0.3273172378540039 0.019867077469825745
vn 0.9376072883605957 -0.12754970788955688 0.3234558701515198
vn 0.1654481142759323 -0.5261351466178894 0.834151566028595
vn -0.27716270089149475 -0.38353031873703003 0.8809570670127869
vn 0.5192514657974243 0.6834598183631897 -0.5130894184112549
vn -0.6276483535766602 0.7778886556625366 0.030772065743803978
vn -0.8331928849220276 0.4227645993232727 0.35645443201065063
vn -0.7652707695960999 -0.3860939145088196 0.5150652527809143
vn 0.4653511643409729 -0.6906070709228516 0.5536335706710815
vn -0.07884032279253006 -0.6154836416244507 0.7841964960098267
vn -0.8789881467819214 0.2838762402534485 0.38313722610473633
vn 0.8023792505264282 0.2575785517692566 0.5383686423301697
vn -0.6440678238868713 -0.1462104618549347 0.750865638256073
vn 0 -0 0
vn 0 -0 0
vn 0 -0 0
vn 0 -0 0
vn 0 -0 0
vn 0.7150166034698486 0.6650872230529785 0.21543046832084656
vn -0.0665445402264595 0.5037071704864502 -0.861307680606842
vn -0.5430243015289307 0.7222474813461304 0.4283493757247925
vn 0.7439475059509277 -0.3614128530025482 0.5620701313018799
vn 0.4028824269771576 -0.24002930521965027 0.8832167387008667
vn 0 -0 0
vn 0.44344833493232727 0.050679150968790054 0.8948660492897034
vn -0.5706707835197449 0.5787210464477539 0.5825949311256409
vn -0.25438687205314636 0.1089242696762085 0.9609489440917969
vn 0.2830580770969391 -0.40453967452049255 0.869612455368042
vn 0.06145704537630081 0.13250406086444855 0.989275336265564
f 1//1 2//2 3//3
f 1//1 3//3 4//4
f 5//5 4//4 3//3
f 4//4 6//6 7//7
f 4//4 7//7 8//8
f 9//9 7//7 6//6
f 4//4 5//5 6//6
f 4//4 10//10 1//1
f 6//6 5//5 1//1
f 1//1 11//11 2//2
f 11//11 1//1 12//12
f 1//1 5//5 12//12
f 5//5 3//3 12//12
f 3//3 2//2 12//12
f 13//13 14//14 15//15
f 13//13 15//15 7//7
f 9//9 13//13 7//7
f 16//16 7//7 15//15
f 16//16 8//8 7//7
f 1//1 9//9 6//6
f 4//4 8//8 17//17
f 2//2 10//10 17//17
f 2//2 11//11 10//10
f 17//17 10//10 4//4
f 18//18 11//11 12//12
f 19//19 18//18 12//12
f 19//19 12//12 2//2
f 2//2 20//20 19//19
f 21//21 22//22 23//23
f 14//14 23//23 24//24
f 21//21 23//23 25//25
f 13//13 23//23 14//14
f 23//23 13//13 25//25
f 14//14 26//26 15//15
f 25//25 13//13 9//9
f 1//1 27//27 9//9
f 16//16 28//28 8//8
f 1//1 10//10 27//27
f 10//10 11//11 27//27
f 27//27 11//11 18//18
f 8//8 28//28 17//17
f 20//20 2//2 17//17
f 19//19 20//20 29//29
f 23//23 22//22 24//24
f 26//26 14//14 24//24
f 30//30 16//16 15//15
f 25//25 9//9 31//31
f 27//27 32//32 31//31
f 9//9 27//27 31//31
f 28//28 16//16 33//33
f 20//20 17//17 28//28
f 29//29 20//20 28//28
f 24//24 22//22 34//34
f 24//24 35//35 26//26
f 36//36 21//21 25//25
f 30//30 15//15 26//26
f 37//37 31//31 38//38
f 38//38 31//31 39//39
f 33//33 16//16 30//30
f 32//32 39//39 31//31
f 27//27 18//18 32//32
f 28//28 40//40 29//29
f 41//41 42//42 43//43
f 43//43 42//42 44//44
f 42//42 45//45 44//44
f 46//46 44//44 45//45
f 46//46 45//45 47//47
f 46//46 47//47 48//48
f 48//48 47//47 49//49
f 50//50 51//51 52//52
f 50//50 52//52 53//53
f 52//52 51//51 54//54
f 53//53 52//52 54//54
f 55//55 24//24 34//34
f 56//56 34//34 22//22
f 55//55 35//35 24//24
f 22//22 21//21 57//57
f 58//58 59//59 38//38
f 35//35 60//60 26//26
f 21//21 36//36 57//57
f 38//38 59//59 37//37
f 30//30 26//26 60//60
f 25//25 61//61 36//36
f 58//58 38//38 39//39
f 25//25 37//37 61//61
f 39//39 62//62 58//58
f 62//62 39//39 63//63
f 25//25 31//31 37//37
f 39//39 32//32 63//63
f 64//64 63//63 32//32
f 65//65 66//66 33//33
f 67//67 64//64 68//68
f 68//68 64//64 32//32
f 66//66 28//28 33//33
f 68//68 32//32 69//69
f 66//66 70//70 28//28
f 18//18 69//69 32//32
f 70//70 40//40 28//28
f 69//69 18//18 19//19
f 29//29 40//40 71//71
f 71//71 69//69 19//19
f 71//71 19//19 29//29
f 41//41 72//72 42//42
f 43//43 44//44 73//73
f 45//45 42//42 72//72
f 44//44 46//46 73//73
f 45//45 74//74 47//47
f 73//73 46//46 48//48
f 50//50 75//75 51//51
f 75//75 76//76 51//51
f 75//75 50//50 53//53
f 77//77 75//75 53//53
f 51//51 76//76 78//78
f 54//54 51//51 78//78
f 77//77 53//53 54//54
f 78//78 77//77 54//54
f 56//56 79//79 34//34
f 35//35 55//55 80//80
f 56//56 57//57 81//81
f 22//22 57//57 56//56
f 35//35 80//80 60//60
f 58//58 62//62 59//59
f 60//60 82//82 30//30
f 82//82 83//83 30//30
f 33//33 30//30 83//83
f 65//65 33//33 83//83
f 62//62 63//63 84//84
f 85//85 66//66 65//65
f 86//86 84//84 64//64
f 84//84 63//63 64//64
f 64//64 67//67 86//86
f 85//85 70//70 66//66
f 67//67 68//68 69//69
f 41//41 87//87 72//72
f 87//87 88//88 72//72
f 41//41 43//43 89//89
f 43//43 73//73 90//90
f 72//72 91//91 45//45
f 90//90 73//73 92//92
f 74//74 45//45 91//91
f 92//92 73//73 93//93
f 94//94 47//47 74//74
f 93//93 73//73 48//48
f 47//47 94//94 49//49
f 93//93 48//48 49//49
f 75//75 95//95 76//76
f 75//75 77//77 95//95
f 76//76 95//95 78//78
f 77//77 78//78 95//95
f 34//34 79//79 55//55
f 96//96 79//79 56//56
f 56//56 81//81 97//97
f 60//60 80//80 82//82
f 37//37 98//98 61//61
f 59//59 98//98 37//37
f 86//86 99//99 100//100
f 85//85 65//65 100//100
f 99//99 85//85 100//100
f 67//67 99//99 86//86
f 86//86 101//101 84//84
f 102//102 85//85 99//99
f 67//67 102//102 99//99
f 102//102 67//67 69//69
f 40//40 70//70 71//71
f 103//103 104//104 87//87
f 104//104 103//103 105//105
f 103//103 87//87 41//41
f 103//103 41//41 89//89
f 88//88 87//87 106//106
f 107//107 88//88 106//106
f 89//89 43//43 90//90
f 91//91 72//72 88//88
f 93//93 49//49 94//94
f 108//108 79//79 109//109
f 79//79 96//96 109//109
f 55//55 79//79 108//108
f 55//55 108//108 80//80
f 56//56 97//97 96//96
f 110//110 96//96 97//97
f 110//110 97//97 111//111
f 57//57 111//111 81//81
f 36//36 112//112 111//111
f 36//36 111//111 57//57
f 98//98 113//113 112//112
f 59//59 114//114 98//98
f 61//61 112//112 36//36
f 112//112 61//61 98//98
f 59//59 115//115 114//114
f 83//83 82//82 116//116
f 62//62 115//115 59//59
f 115//115 62//62 84//84
f 117//117 65//65 116//116
f 100//100 65//65 117//117
f 100//100 101//101 86//86
f 70//70 85//85 102//102
f 71//71 70//70 102//102
f 102//102 69//69 71//71
f 106//106 104//104 118//118
f 104//104 106//106 87//87
f 89//89 105//105 103//103
f 90//90 119//119 89//89
f 88//88 107//107 91//91
f 91//91 120//120 74//74
f 74//74 120//120 94//94
f 94//94 120//120 92//92
f 94//94 92//92 93//93
f 96//96 121//121 109//109
f 96//96 110//110 121//121
f 111//111 97//97 81//81
f 80//80 122//122 123//123
f 123//123 82//82 80//80
f 98//98 114//114 113//113
f 82//82 123//123 116//116
f 114//114 115//115 113//113
f 116//116 124//124 117//117
f 83//83 116//116 65//65
f 115//115 84//84 125//125
f 117//117 126//126 100//100
f 100//100 126//126 101//101
f 125//125 84//84 101//101
f 127//127 104//104 128//128
f 128//128 104//104 105//105
f 118//118 104//104 127//127
f 118//118 129//129 106//106
f 130//130 89//89 119//119
f 106//106 129//129 107//107
f 90//90 131//131 119//119
f 132//132 133//133 107//107
f 90//90 92//92 131//131
f 133//133 91//91 107//107
f 131//131 92//92 134//134
f 133//133 120//120 91//91
f 92//92 120//120 134//134
f 109//109 135//135 108//108
f 109//109 136//136 135//135
f 109//109 121//121 136//136
f 121//121 110//110 137//137
f 108//108 138//138 80//80
f 138//138 122//122 80//80
f 139//139 110//110 111//111
f 113//113 140//140 112//112
f 111//111 112//112 124//124
f 111//111 124//124 139//139
f 124//124 112//112 140//140
f 141//141 142//142 124//124
f 124//124 116//116 141//141
f 113//113 115//115 140//140
f 117//117 124//124 140//140
f 117//117 140//140 126//126
f 115//115 125//125 140//140
f 140//140 125//125 126//126
f 125//125 101//101 126//126
f 143//143 118//118 127//127
f 118//118 143//143 144//144
f 105//105 89//89 130//130
f 144//144 129//129 118//118
f 130//130 119//119 131//131
f 144//144 132//132 129//129
f 132//132 107//107 129//129
f 132//132 145//145 133//133
f 146//146 133//133 145//145
f 131//131 134//134 146//146
f 146//146 120//120 133//133
f 134//134 120//120 146//146
f 135//135 147//147 108//108
f 108//108 147//147 138//138
f 147//147 135//135 136//136
f 121//121 137//137 148//148
f 110//110 149//149 137//137
f 150//150 149//149 110//110
f 123//123 151//151 141//141
f 152//152 141//141 151//151
f 152//152 142//142 141//141
f 142//142 150//150 139//139
f 152//152 150//150 142//142
f 150//150 110//110 139//139
f 123//123 141//141 116//116
f 139//139 124//124 142//142
f 105//105 153//153 128//128
f 143//143 127//127 154//154
f 105//105 130//130 153//153
f 130//130 131//131 155//155
f 155//155 131//131 146//146
f 156//156 157//157 158//158
f 157//157 156//156 159//159
f 156//156 158//158 160//160
f 159//159 156//156 160//160
f 161//161 162//162 163//163
f 147//147 136//136 162//162
f 163//163 162//162 136//136
f 138//138 147//147 162//162
f 136//136 148//148 163//163
f 136//136 121//121 148//148
f 138//138 164//164 122//122
f 149//149 148//148 137//137
f 151//151 122//122 164//164
f 122//122 151//151 123//123
f 127//127 128//128 154//154
f 143//143 154//154 144//144
f 153//153 130//130 155//155
f 165//165 132//132 144//144
f 145//145 132//132 165//165
f 165//165 155//155 145//145
f 146//146 145//145 155//155
f 157//157 166//166 158//158
f 157//157 159//159 166//166
f 158//158 166//166 160//160
f 159//159 160//160 166//166
f 161//161 163//163 167//167
f 162//162 161//161 138//138
f 138//138 161//161 167//167
f 148//148 168//168 163//163
f 149//149 169//169 168//168
f 148//148 149//149 168//168
f 164//164 170//170 151//151
f 150//150 169//169 149//149
f 169//169 150//150 152//152
f 152//152 151//151 170//170
f 128//128 153//153 171//171
f 128//128 171//171 154//154
f 153//153 155//155 171//171
f 171//171 165//165 154//154
f 154//154 165//165 144//144
f 155//155 165//165 171//171
f 168//168 169//169 163//163
f 167//167 163//163 169//169
f 138//138 167//167 164//164
f 169//169 170//170 167//167
f 170//170 164//164 167//167
f 169//169 152//152 170//170
