# Generated by Visualization Toolkit
v 124.36028289794922 -250.37059020996094 459.2827453613281
v 118.71643829345703 -247.95591735839844 461.0407409667969
v 122.59364318847656 -247.2158660888672 459.8241882324219
v 121.60945129394531 -251.29173278808594 461.07415771484375
v 125.49728393554688 -255.44041442871094 461.3760986328125
v 126.3063735961914 -253.15061950683594 460.6398620605469
v 120.19049072265625 -245.60226440429688 461.8193359375
v 124.08390045166016 -242.88705444335938 463.427734375
v 127.95671844482422 -253.50709533691406 465.66436767578125
v 128.3968963623047 -237.943359375 465.9176025390625
v 119.76385498046875 -247.04908752441406 462.70111083984375
v 128.02145385742188 -246.7155303955078 463.3779296875
v 125.62740325927734 -256.056640625 466.0946350097656
v 122.45759582519531 -240.3118438720703 466.49090576171875
v 131.36480712890625 -241.0306854248047 466.6217346191406
v 122.98055267333984 -243.47943115234375 465.3211364746094
v 123.82357025146484 -250.64869689941406 465.07025146484375
v 126.99735260009766 -245.48707580566406 468.45623779296875
v 131.91358947753906 -244.9330596923828 468.61376953125
v 125.90584564208984 -251.7475128173828 469.7420654296875
v 128.18994140625 -234.39630126953125 469.93115234375
v 131.29063415527344 -235.3916015625 469.09521484375
v 133.4360809326172 -234.98336791992188 470.7496337890625
v 122.20108795166016 -241.41690063476562 469.3354797363281
v 127.05863189697266 -254.2788848876953 469.20318603515625
v 127.30107879638672 -240.7850799560547 472.5008239746094
v 127.95916748046875 -243.24609375 471.868896484375
v 126.0274658203125 -251.36997985839844 474.633056640625
v 129.05038452148438 -230.85035705566406 473.47589111328125
v 125.42283630371094 -234.70855712890625 472.39288330078125
v 121.18185424804688 -239.2808074951172 470.7868957519531
v 135.5199432373047 -236.95140075683594 473.52813720703125
v 121.92803955078125 -241.38233947753906 473.48736572265625
v 119.71978759765625 -241.2662353515625 474.86151123046875
v 132.92471313476562 -243.3876190185547 474.6286926269531
v 134.27932739257812 -228.57823181152344 475.87054443359375
v 136.4873809814453 -230.9937744140625 476.1188049316406
v 123.46637725830078 -235.55795288085938 477.4557800292969
v 126.39630889892578 -241.52438354492188 474.5150146484375
v 127.3408203125 -249.99449157714844 476.1732177734375
v 125.33613586425781 -248.35740661621094 475.8450012207031
v 129.51535034179688 -227.12380981445312 480.6911926269531
v 137.36732482910156 -233.19508361816406 477.6984558105469
v 135.79510498046875 -237.50933837890625 476.85406494140625
v 120.6114501953125 -239.1400909423828 477.4914855957031
v 118.89698028564453 -245.2574462890625 477.0924377441406
v 132.83908081054688 -241.09605407714844 479.1818542480469
v 131.672119140625 -225.51971435546875 479.5177307128906
v 137.54324340820312 -225.3216552734375 478.7960510253906
v 139.7306365966797 -227.9989013671875 481.009033203125
v 127.74354553222656 -228.84877014160156 484.5025939941406
v 118.79255676269531 -243.6305389404297 478.815673828125
v 122.42118835449219 -248.92259216308594 478.0307922363281
v 119.00917053222656 -249.8509063720703 479.3475036621094
v 135.89334106445312 -222.0959014892578 480.49481201171875
v 140.44058227539062 -223.80960083007812 482.2242736816406
v 137.23284912109375 -233.73577880859375 481.93426513671875
v 123.4232177734375 -237.97552490234375 483.5455017089844
v 120.41307830810547 -248.44712829589844 481.6569519042969
v 139.98448181152344 -218.20321655273438 483.4634094238281
v 134.32101440429688 -219.94383239746094 483.5161437988281
v 134.63009643554688 -232.3657684326172 489.7769470214844
v 128.33123779296875 -240.31201171875 485.42449951171875
v 124.0248794555664 -245.56735229492188 483.923583984375
v 120.11469268798828 -245.3958740234375 482.1708679199219
v 138.02822875976562 -216.21286010742188 484.62109375
v 127.69707489013672 -230.7093963623047 488.2739562988281
v 124.8931655883789 -238.1657257080078 485.96368408203125
v 135.72647094726562 -214.59814453125 487.88751220703125
v 142.65884399414062 -212.8207550048828 489.3852233886719
v 141.69309997558594 -220.98411560058594 486.99853515625
v 132.85177612304688 -218.2879180908203 489.3424987792969
v 139.43829345703125 -227.30618286132812 486.95538330078125
v 138.6960906982422 -210.23431396484375 489.3639831542969
v 141.1956787109375 -212.8741455078125 487.8135986328125
v 130.8583526611328 -220.7389678955078 493.7081604003906
v 130.61172485351562 -234.87893676757812 489.8105773925781
v 127.067626953125 -237.76959228515625 487.6087341308594
v 141.70616149902344 -217.91893005371094 493.199951171875
v 129.966552734375 -229.7998809814453 492.17132568359375
v 141.28289794921875 -206.32769775390625 492.41943359375
v 143.4224090576172 -213.07330322265625 492.4788818359375
v 130.04437255859375 -224.58396911621094 494.121826171875
v 137.6588134765625 -222.93441772460938 496.08978271484375
v 136.9422607421875 -205.1312255859375 494.77191162109375
v 140.35125732421875 -198.88563537597656 498.04046630859375
v 142.6975555419922 -201.2383575439453 496.43896484375
v 144.18252563476562 -204.23486328125 498.25653076171875
v 132.75425720214844 -228.81097412109375 493.7386169433594
v 134.70310974121094 -225.13763427734375 496.57421875
v 143.3447265625 -207.46987915039062 500.9956359863281
v 134.70249938964844 -205.43377685546875 500.21612548828125
v 132.4657440185547 -213.1192626953125 500.898681640625
v 131.39459228515625 -224.31637573242188 497.0201110839844
v 137.24172973632812 -200.4598388671875 499.0948486328125
v 138.06668090820312 -216.24240112304688 502.6055603027344
v 132.40997314453125 -218.0459747314453 500.4555969238281
v 140.19580078125 -192.88894653320312 500.90411376953125
v 143.06289672851562 -193.31027221679688 500.729248046875
v 143.98419189453125 -197.31121826171875 499.45330810546875
v 138.0728759765625 -190.4205322265625 504.25286865234375
v 145.14837646484375 -198.56100463867188 503.8851013183594
v 133.6991729736328 -221.033935546875 499.5701599121094
v 145.15574645996094 -191.1746063232422 504.12017822265625
v 134.5863800048828 -216.6884765625 503.3218994140625
v 142.20220947265625 -184.88046264648438 505.7261657714844
v 143.63330078125 -188.236083984375 505.4362487792969
v 135.01654052734375 -198.87164306640625 505.0953063964844
v 134.47586059570312 -205.85064697265625 504.6595153808594
v 143.2615509033203 -203.3072509765625 505.1588134765625
v 135.29710388183594 -212.0856475830078 505.8820495605469
v 139.22415161132812 -183.7372283935547 506.8104553222656
v 141.80868530273438 -183.00074768066406 508.7010803222656
v 136.8207244873047 -186.1279754638672 508.0384521484375
v 144.22645568847656 -194.59588623046875 506.97735595703125
v 136.43563842773438 -194.6073760986328 508.24993896484375
v 135.61671447753906 -201.98208618164062 509.7381591796875
v 135.55262756347656 -207.6578826904297 507.3492736816406
v 138.51239013671875 -207.81871032714844 507.8125915527344
v 143.41537475585938 -188.84674072265625 508.65716552734375
v 143.16378784179688 -196.81298828125 508.743408203125
v 137.36460876464844 -193.72630310058594 508.2071228027344
v 137.00765991210938 -191.2329559326172 509.0805358886719
v 139.28909301757812 -197.87945556640625 510.0100402832031
v 135.2825927734375 -195.92031860351562 509.5695495605469
v 140.32687377929688 -201.72930908203125 509.7276611328125
v 139.30364990234375 -203.60293579101562 508.6734313964844
v 143.24176025390625 -180.16075134277344 512.8134765625
v 139.52162170410156 -181.25857543945312 509.97869873046875
v 141.217529296875 -186.09832763671875 510.0423278808594
v 143.0006561279297 -186.7498016357422 512.1257934570312
v 135.68716430664062 -193.91098022460938 510.9918518066406
v 136.444580078125 -196.99127197265625 510.6802978515625
v 137.66159057617188 -205.80825805664062 509.6805114746094
v 141.4669647216797 -195.63890075683594 511.9905700683594
v 141.4669647216797 -195.63890075683594 511.9905700683594
v 141.4669647216797 -195.63890075683594 511.9905700683594
v 141.4669647216797 -195.63890075683594 511.9905700683594
v 135.78176879882812 -192.26866149902344 514.6302490234375
v 141.4669647216797 -195.63890075683594 511.9905700683594
v 138.91384887695312 -198.78717041015625 511.6376647949219
v 136.11581420898438 -179.97764587402344 514.1908569335938
v 136.64981079101562 -176.28314208984375 515.773681640625
v 138.26568603515625 -176.96290588378906 513.79150390625
v 141.4669647216797 -189.61538696289062 513.9984130859375
v 141.4669647216797 -189.61538696289062 513.9984130859375
v 141.4669647216797 -189.61538696289062 513.9984130859375
v 141.4669647216797 -189.61538696289062 513.9984130859375
v 141.4669647216797 -189.61538696289062 513.9984130859375
v 139.96109008789062 -192.6271514892578 513.9984130859375
v 139.96109008789062 -192.6271514892578 513.9984130859375
v 139.96109008789062 -192.6271514892578 513.9984130859375
v 139.96109008789062 -192.6271514892578 513.9984130859375
v 139.96109008789062 -192.6271514892578 513.9984130859375
v 141.4669647216797 -195.63890075683594 511.9905700683594
v 137.7022705078125 -195.63890075683594 513.9984130859375
v 137.7022705078125 -195.63890075683594 513.9984130859375
v 137.7022705078125 -195.63890075683594 513.9984130859375
v 137.7022705078125 -195.63890075683594 513.9984130859375
v 137.7022705078125 -195.63890075683594 513.9984130859375
v 137.7022705078125 -195.63890075683594 513.9984130859375
v 137.7022705078125 -195.63890075683594 513.9984130859375
v 137.7022705078125 -195.63890075683594 513.9984130859375
v 139.210205078125 -173.68338012695312 514.6263427734375
v 137.2622528076172 -170.03948974609375 518.2474365234375
v 139.55484008789062 -172.51956176757812 516.3941650390625
v 138.5338134765625 -176.7865447998047 515.5523681640625
v 141.4669647216797 -186.6036376953125 516.0062866210938
v 141.4669647216797 -186.6036376953125 516.0062866210938
v 141.4669647216797 -186.6036376953125 516.0062866210938
v 141.4669647216797 -186.6036376953125 516.0062866210938
v 141.4669647216797 -186.6036376953125 516.0062866210938
v 141.4669647216797 -189.61538696289062 513.9984130859375
v 135.20616149902344 -187.87200927734375 513.9442138671875
v 139.96109008789062 -192.6271514892578 513.9984130859375
v 137.7022705078125 -195.63890075683594 513.9984130859375
v 137.7022705078125 -195.63890075683594 513.9984130859375
v 141.12574768066406 -171.27609252929688 517.2703857421875
v 137.7124786376953 -174.86441040039062 520.0103759765625
v 141.4669647216797 -186.6036376953125 516.0062866210938
v 138.45521545410156 -188.10952758789062 518.0140991210938
v 138.45521545410156 -188.10951232910156 518.0140991210938
v 138.45521545410156 -188.10952758789062 518.0140991210938
v 138.45521545410156 -188.10952758789062 518.0140991210938
v 138.45521545410156 -188.10952758789062 518.0140991210938
v 139.20814514160156 -162.50961303710938 520.0219116210938
v 139.20814514160156 -162.5095977783203 520.0219116210938
v 139.20814514160156 -162.50962829589844 520.0219116210938
v 139.20814514160156 -162.50961303710938 520.0219116210938
v 139.20814514160156 -162.5095977783203 520.0219116210938
v 139.20814514160156 -162.50962829589844 520.0219116210938
v 139.20814514160156 -162.50961303710938 520.0219116210938
v 139.20814514160156 -162.50961303710938 520.0219116210938
v 137.34918212890625 -172.64389038085938 520.036865234375
v 136.9493408203125 -179.07424926757812 520.0219116210938
v 136.9493408203125 -179.07424926757812 520.0219116210938
v 136.9493408203125 -179.07424926757812 520.0219116210938
v 136.94932556152344 -179.07424926757812 520.0219116210938
v 136.9493408203125 -179.07424926757812 520.0219116210938
v 139.96109008789062 -182.0860137939453 520.0219116210938
v 139.96109008789062 -182.08599853515625 520.0219116210938
v 139.96109008789062 -182.0860137939453 520.0219116210938
v 139.96109008789062 -182.0860137939453 520.0219116210938
v 139.96109008789062 -182.08599853515625 520.0219116210938
v 138.45521545410156 -185.09776306152344 520.0219116210938
v 138.45521545410156 -185.09776306152344 520.0219116210938
v 138.45521545410156 -185.09776306152344 520.0219116210938
v 138.45521545410156 -185.09776306152344 520.0219116210938
v 135.97679138183594 -186.0703125 520.0219116210938
v 135.97679138183594 -186.0703125 520.0219116210938
v 135.97679138183594 -186.0703125 520.0219116210938
v 135.97679138183594 -186.0703125 520.0219116210938
v 138.45521545410156 -185.09776306152344 520.0219116210938
v 135.97679138183594 -186.0703125 520.0219116210938
v 135.97679138183594 -186.0703125 520.0219116210938
v 135.97679138183594 -186.0703125 520.0219116210938
v 135.97679138183594 -186.0703125 520.0219116210938
v 135.97679138183594 -186.0703125 520.0219116210938
v 138.45521545410156 -188.10952758789062 518.0140991210938
v 135.97679138183594 -186.0703125 520.0219116210938
v 135.97679138183594 -186.0703125 520.0219116210938
v 139.20814514160156 -162.50961303710938 520.0219116210938
v 139.20814514160156 -162.50961303710938 520.0219116210938
v 136.9493408203125 -170.0389862060547 522.02978515625
v 136.9493408203125 -170.0389862060547 522.02978515625
v 136.9493408203125 -170.0389862060547 522.02978515625
v 136.94932556152344 -170.0389862060547 522.02978515625
v 136.9493408203125 -170.0389862060547 522.02978515625
v 139.96109008789062 -179.8271942138672 522.02978515625
v 139.96109008789062 -179.8271942138672 522.02978515625
v 139.96109008789062 -179.8271942138672 522.02978515625
v 139.96109008789062 -179.8271942138672 522.02978515625
v 136.9493408203125 -179.07424926757812 520.0219116210938
v 139.96109008789062 -179.8271942138672 522.02978515625
v 139.96109008789062 -179.8271942138672 522.02978515625
v 139.96109008789062 -179.8271942138672 522.02978515625
v 139.96109008789062 -182.0860137939453 520.0219116210938
v 139.96109008789062 -179.82717895507812 522.02978515625
v 138.45521545410156 -183.59188842773438 522.02978515625
v 138.45521545410156 -183.59188842773438 522.02978515625
v 138.45521545410156 -183.59188842773438 522.02978515625
v 138.45521545410156 -183.59188842773438 522.02978515625
v 135.44345092773438 -183.59188842773438 522.02978515625
v 135.44345092773438 -183.59188842773438 522.02978515625
v 135.44345092773438 -183.59188842773438 522.02978515625
v 135.44345092773438 -183.59188842773438 522.02978515625
v 138.45521545410156 -185.09776306152344 520.0219116210938
v 138.45521545410156 -183.59188842773438 522.02978515625
v 135.97679138183594 -186.0703125 520.0219116210938
v 135.44345092773438 -183.59188842773438 522.02978515625
v 135.97679138183594 -186.0703125 520.0219116210938
v 135.97679138183594 -186.0703125 520.0219116210938
v 136.19639587402344 -156.48609924316406 524.03759765625
v 136.19639587402344 -156.48609924316406 524.03759765625
v 136.19639587402344 -156.48609924316406 524.03759765625
v 136.19639587402344 -156.48609924316406 524.03759765625
v 136.19639587402344 -156.48609924316406 524.03759765625
v 136.19639587402344 -156.48609924316406 524.03759765625
v 136.19639587402344 -156.48609924316406 524.03759765625
v 136.19639587402344 -156.48609924316406 524.03759765625
v 133.9375762939453 -159.4978485107422 524.03759765625
v 133.9375762939453 -159.49786376953125 524.03759765625
v 133.9375762939453 -159.4978485107422 524.03759765625
v 133.9375762939453 -159.4978485107422 524.03759765625
v 136.9493408203125 -170.0389862060547 522.02978515625
v 139.96109008789062 -176.0625 524.03759765625
v 139.96109008789062 -176.06248474121094 524.03759765625
v 139.96109008789062 -176.0625 524.03759765625
v 139.96109008789062 -176.0625 524.03759765625
v 139.96109008789062 -179.8271942138672 522.02978515625
v 133.9375762939453 -179.07424926757812 524.03759765625
v 133.9375762939453 -179.07424926757812 524.03759765625
v 133.9375762939453 -179.07424926757812 524.03759765625
v 133.9375762939453 -179.07424926757812 524.03759765625
v 139.96109008789062 -179.8271942138672 522.02978515625
v 133.9375762939453 -179.07424926757812 524.03759765625
v 138.45521545410156 -183.59188842773438 522.02978515625
v 135.44345092773438 -183.59188842773438 522.02978515625
v 136.19639587402344 -156.48609924316406 524.03759765625
v 136.19639587402344 -156.48609924316406 524.03759765625
v 133.9375762939453 -159.4978485107422 524.03759765625
v 139.96109008789062 -170.5284881591797 526.04541015625
v 139.96109008789062 -170.4670867919922 526.04541015625
v 139.96109008789062 -170.5284881591797 526.04541015625
v 139.96109008789062 -170.5284881591797 526.04541015625
v 139.96109008789062 -170.68365478515625 526.04541015625
v 139.96109008789062 -170.68365478515625 526.04541015625
v 139.96109008789062 -170.68365478515625 526.04541015625
v 139.96109008789062 -170.90020751953125 526.04541015625
v 139.96109008789062 -170.90020751953125 526.04541015625
v 139.96109008789062 -170.90020751953125 526.04541015625
v 139.96109008789062 -171.0553741455078 526.04541015625
v 139.96109008789062 -171.0553741455078 526.04541015625
v 139.96109008789062 -171.0553741455078 526.04541015625
v 139.96109008789062 -171.11676025390625 526.04541015625
v 139.96109008789062 -176.0625 524.03759765625
v 138.45521545410156 -177.56837463378906 526.0454711914062
v 138.45521545410156 -177.56837463378906 526.0454711914062
v 138.45521545410156 -177.56837463378906 526.04541015625
v 138.45521545410156 -177.56837463378906 526.0454711914062
v 138.45521545410156 -177.56838989257812 526.0454711914062
v 133.9375762939453 -179.07424926757812 524.03759765625
v 136.898193359375 -153.08750915527344 528.2097778320312
v 135.0694580078125 -153.1702880859375 527.3088989257812
v 136.45468139648438 -150.7704315185547 527.708984375
v 133.79653930664062 -154.65689086914062 528.9473266601562
v 133.4403533935547 -156.95175170898438 526.9993896484375
v 132.76080322265625 -159.89781188964844 528.3104248046875
v 131.7965545654297 -157.85862731933594 528.5687255859375
v 131.3358154296875 -162.89036560058594 530.033447265625
v 139.96109008789062 -164.5049591064453 528.0532836914062
v 139.96109008789062 -164.44357299804688 528.0532836914062
v 139.96109008789062 -164.5049591064453 528.0532836914062
v 139.96109008789062 -164.5049591064453 528.0532836914062
v 139.96109008789062 -164.66014099121094 528.0532836914062
v 139.96109008789062 -164.66014099121094 528.0532836914062
v 139.96109008789062 -164.66014099121094 528.0532836914062
v 133.2305908203125 -164.28805541992188 529.0979614257812
v 139.96109008789062 -164.87669372558594 528.0532836914062
v 139.96109008789062 -164.87669372558594 528.0532836914062
v 139.96109008789062 -164.87669372558594 528.0532836914062
v 139.96109008789062 -165.03187561035156 528.0532836914062
v 139.96109008789062 -165.03187561035156 528.0532836914062
v 139.96109008789062 -165.03187561035156 528.0532836914062
v 139.96109008789062 -170.5284881591797 526.04541015625
v 139.96109008789062 -165.09326171875 528.0532836914062
v 139.96109008789062 -170.68365478515625 526.04541015625
v 139.96109008789062 -170.90020751953125 526.04541015625
v 139.96109008789062 -171.0553741455078 526.04541015625
v 138.45521545410156 -174.55662536621094 528.0532836914062
v 138.45521545410156 -174.55662536621094 528.0532836914062
v 138.45521545410156 -174.55662536621094 528.0532836914062
v 138.45521545410156 -174.55662536621094 528.0532836914062
v 138.45521545410156 -174.55662536621094 528.0532836914062
v 136.19639587402344 -176.0625 528.0532836914062
v 136.19639587402344 -176.0625 528.0532836914062
v 136.19639587402344 -176.0625 528.0532836914062
v 136.19639587402344 -176.0625 528.0532836914062
v 136.19639587402344 -176.0625 528.0532836914062
v 136.19639587402344 -176.0625 528.0532836914062
v 138.45521545410156 -177.56837463378906 526.0454711914062
v 136.19639587402344 -176.0625 528.0532836914062
v 136.19639587402344 -176.0625 528.0532836914062
v 134.37738037109375 -147.8260040283203 530.1415405273438
v 132.49139404296875 -150.14462280273438 530.683837890625
v 131.88601684570312 -154.57594299316406 531.422607421875
v 134.92054748535156 -152.24583435058594 533.3452758789062
v 136.75039672851562 -155.16062927246094 529.971923828125
v 130.85079956054688 -157.23114013671875 532.2425537109375
v 134.31329345703125 -157.9571533203125 529.78759765625
v 135.9605712890625 -157.2803955078125 530.6002807617188
v 139.96109008789062 -164.5049591064453 528.0532836914062
v 139.96109008789062 -164.66014099121094 528.0532836914062
v 139.96109008789062 -164.87669372558594 528.0532836914062
v 133.6832275390625 -165.24993896484375 531.0300903320312
v 132.62794494628906 -165.83670043945312 527.7504272460938
v 131.20004272460938 -163.4767608642578 532.32373046875
v 139.96109008789062 -165.03187561035156 528.0532836914062
v 138.45521545410156 -167.02723693847656 530.0610961914062
v 138.45521545410156 -167.02723693847656 530.0610961914062
v 138.45521545410156 -167.02723693847656 530.0610961914062
v 138.45521545410156 -167.02723693847656 530.0610961914062
v 132.80760192871094 -166.30343627929688 531.985595703125
v 138.45521545410156 -167.02723693847656 530.0610961914062
v 133.06118774414062 -168.78814697265625 527.0032348632812
v 134.34072875976562 -170.4274444580078 528.6503295898438
v 133.07130432128906 -173.73556518554688 526.4437866210938
v 138.45521545410156 -174.55662536621094 528.0532836914062
v 136.19639587402344 -176.0625 528.0532836914062
v 136.19639587402344 -176.0625 528.0532836914062
v 138.45521545410156 -144.4390869140625 532.0689697265625
v 138.45521545410156 -144.4390869140625 532.0689697265625
v 138.45521545410156 -144.4390869140625 532.0689697265625
v 138.45521545410156 -144.4390869140625 532.0689697265625
v 138.45521545410156 -144.4390869140625 532.0689697265625
v 137.28524780273438 -149.4620819091797 532.5698852539062
v 135.22021484375 -144.35086059570312 533.611083984375
v 133.2510986328125 -146.84255981445312 533.6648559570312
v 133.7249755859375 -155.0176544189453 532.831298828125
v 134.83018493652344 -157.4228057861328 532.2896118164062
v 138.4552001953125 -163.26254272460938 532.0689086914062
v 138.45521545410156 -163.26254272460938 532.0689697265625
v 138.45521545410156 -163.26254272460938 532.0689697265625
v 138.4552001953125 -163.26254272460938 532.0689697265625
v 135.40232849121094 -161.385009765625 533.966552734375
v 138.45521545410156 -163.26254272460938 532.0689086914062
v 138.45521545410156 -163.26254272460938 532.0689697265625
v 138.4552001953125 -163.26254272460938 532.0689697265625
v 138.45521545410156 -163.26254272460938 532.0689697265625
v 138.45521545410156 -167.02723693847656 530.0610961914062
v 135.44345092773438 -168.53311157226562 532.0689697265625
v 135.44345092773438 -168.53311157226562 532.0689697265625
v 135.44345092773438 -168.53311157226562 532.0689697265625
v 135.44345092773438 -168.53311157226562 532.0689697265625
v 135.44345092773438 -168.53311157226562 532.0689697265625
v 138.45521545410156 -144.4390869140625 532.0689697265625
v 135.792236328125 -147.47682189941406 534.3370971679688
v 132.43798828125 -155.2716064453125 534.3170776367188
v 133.47390747070312 -161.3221435546875 534.5534057617188
v 138.45521545410156 -163.26254272460938 532.0689697265625
v 138.4552001953125 -163.26254272460938 532.0689697265625
v 135.44345092773438 -168.53311157226562 532.0689697265625
vn 0.03906309977173805 -0.12251684814691544 -0.991697371006012
vn -0.9332024455070496 -0.11293954402208328 -0.3411419987678528
vn 0.04473263397812843 0.42577478289604187 -0.9037227630615234
vn -0.789874255657196 -0.5814225673675537 -0.1950550675392151
vn 0.17910897731781006 -0.7394579648971558 -0.6489390730857849
vn 0.7463861107826233 -0.19596050679683685 -0.6360089182853699
vn -0.6691102385520935 0.7067079544067383 -0.22990331053733826
vn -0.511551558971405 0.6301166415214539 -0.5841816067695618
vn 0.8537086248397827 -0.5091292858123779 -0.10940306633710861
vn 0.00346290972083807 0.6195858716964722 -0.7849212884902954
vn -0.8027966618537903 0.12110056728124619 0.5838255286216736
vn 0.6818005442619324 0.11760810017585754 -0.7220224142074585
vn -0.4885021150112152 -0.8188086748123169 0.30152633786201477
vn -0.766395628452301 0.40238842368125916 -0.5007208585739136
vn 0.6859992742538452 0.1386914849281311 -0.7142617106437683
vn -0.9553099870681763 0.05000320449471474 0.29134616255760193
vn -0.7785248160362244 -0.19796530902385712 0.5955743193626404
vn -0.8092347979545593 -0.25587934255599976 0.5288333296775818
vn 0.912330150604248 -0.2536192238330841 -0.321451336145401
vn -0.9898709654808044 0.05185713991522789 0.13216009736061096
vn -0.2650253474712372 0.737629234790802 -0.6210190653800964
vn 0.2874401807785034 0.5855867266654968 -0.757935643196106
vn 0.6666104197502136 0.3146565854549408 -0.6757380366325378
vn -0.6872343420982361 -0.7246651649475098 0.05069006234407425
vn 0.5834777355194092 -0.749566912651062 0.312575101852417
vn -0.537695586681366 -0.8351308107376099 0.1159314289689064
vn -0.9905623197555542 0.011869960464537144 -0.13654837012290955
vn -0.6503115296363831 -0.7511890530586243 0.11318160593509674
vn -0.3267999291419983 0.7484214901924133 -0.5771196484565735
vn -0.6349449753761292 0.6950849890708923 -0.3371970057487488
vn -0.895104706287384 0.3777739405632019 -0.23680046200752258
vn 0.915749192237854 -0.09056795388460159 -0.3914089500904083
vn -0.06150650233030319 -0.9128756523132324 -0.40357786417007446
vn -0.9412481188774109 -0.11826901137828827 -0.3163297772407532
vn 0.849151611328125 -0.5055719017982483 0.15276990830898285
vn 0.23998641967773438 0.610905110836029 -0.7544544339179993
vn 0.7568528652191162 0.17640355229377747 -0.6293294429779053
vn -0.8158222436904907 0.5782367587089539 0.008740589953958988
vn -0.4701988399028778 -0.45122766494750977 -0.758489727973938
vn 0.5159427523612976 -0.7021077871322632 0.49076247215270996
vn -0.8633922338485718 0.039558637887239456 -0.5029801726341248
vn -0.7607479691505432 0.6069113612174988 -0.23004604876041412
vn 0.9460508823394775 -0.22076894342899323 -0.23716843128204346
vn 0.9072851538658142 -0.41995343565940857 0.021745461970567703
vn -0.8548463582992554 0.5127431154251099 0.07957576960325241
vn -0.5722872614860535 -0.3781156539916992 -0.7276784181594849
vn 0.7288762927055359 -0.5850652456283569 0.35558128356933594
vn -0.41474270820617676 0.6807944774627686 -0.6037445068359375
vn 0.40812456607818604 0.37767893075942993 -0.8311395645141602
vn 0.9446364045143127 -0.16545069217681885 -0.28335171937942505
vn -0.913864254951477 0.4044885039329529 0.03523128107190132
vn -0.9641155004501343 0.20401355624198914 0.1698816865682602
vn -0.4297434687614441 -0.49190589785575867 -0.7571982145309448
vn -0.8540152311325073 -0.5057052373886108 0.12214865535497665
vn -0.14988075196743011 0.5693768262863159 -0.8082981109619141
vn 0.8761208653450012 0.0623488612473011 -0.47804275155067444
vn 0.8662624359130859 -0.47393447160720825 0.1580367088317871
vn -0.8489726185798645 0.3689645528793335 0.3782997131347656
vn -0.2368580549955368 -0.7802563905715942 0.5788766741752625
vn 0.4568804204463959 0.43649184703826904 -0.7750710844993591
vn -0.5709722638130188 0.6148717403411865 -0.5439885258674622
vn 0.5870892405509949 -0.6128250360488892 0.5289345383644104
vn 0.2844594120979309 -0.6457785964012146 0.7085568904876709
vn -0.004230570513755083 -0.4649602472782135 0.8853214979171753
vn -0.7464040517807007 -0.0027129955124109983 0.6654875874519348
vn -0.17714297771453857 0.627450168132782 -0.7582392692565918
vn -0.9163051843643188 0.21082864701747894 0.34049415588378906
vn -0.6213729381561279 -0.13191166520118713 0.7723309397697449
vn -0.6193446516990662 0.5478828549385071 -0.562349259853363
vn 0.8909755945205688 0.14355581998825073 -0.4307602345943451
vn 0.9802903532981873 -0.1964101493358612 -0.0213056281208992
vn -0.8341287970542908 0.4642157554626465 -0.29788076877593994
vn 0.8688284158706665 -0.43002912402153015 0.24538171291351318
vn -0.19578906893730164 0.6226732730865479 -0.7575914263725281
vn 0.3614683151245117 0.5387309789657593 -0.7609925270080566
vn -0.9517908692359924 0.3067471981048584 -0.0006418291595764458
vn 0.07010693848133087 -0.5861445665359497 0.807167649269104
vn -0.27376705408096313 -0.5310876369476318 0.8018712997436523
vn 0.9132731556892395 -0.35657399892807007 0.19694466888904572
vn -0.6071797609329224 -0.29605332016944885 0.7373501062393188
vn 0.15039649605751038 0.5875898599624634 -0.7950592041015625
vn 0.9802625775337219 -0.1929430216550827 -0.04310784488916397
vn -0.9512262940406799 0.04757476598024368 0.30480363965034485
vn 0.6061737537384033 -0.5616296529769897 0.5631391406059265
vn -0.5981490015983582 0.5429283976554871 -0.5894460082054138
vn -0.13580216467380524 0.5248783826828003 -0.8402740955352783
vn 0.529960572719574 0.4461672008037567 -0.7211633920669556
vn 0.9783931374549866 0.017625123262405396 -0.20600059628486633
vn 0.1353137344121933 -0.6263101100921631 0.767740786075592
vn 0.2524242103099823 -0.6102296113967896 0.7509340047836304
vn 0.9196764826774597 -0.30188217759132385 0.2511221766471863
vn -0.924704372882843 0.2902812063694 -0.24629002809524536
vn -0.9739455580711365 0.12183716893196106 0.19127437472343445
vn -0.45691704750061035 -0.45932552218437195 0.7617394328117371
vn -0.6763758063316345 0.424381285905838 -0.6020103096961975
vn 0.543660044670105 -0.5359663367271423 0.6458900570869446
vn -0.8299408555030823 -0.15907347202301025 0.5346904993057251
vn -0.3112531006336212 0.4573795795440674 -0.833021879196167
vn 0.391277551651001 0.4585820734500885 -0.7978748083114624
vn 0.7121130228042603 0.28411781787872314 -0.6420063972473145
vn -0.8229048252105713 0.31336045265197754 -0.4739544689655304
vn 0.9819357395172119 -0.11480079591274261 0.1504092514514923
vn -0.004857287742197514 -0.5870721936225891 0.8095200061798096
vn 0.9536342620849609 0.26092636585235596 -0.14999708533287048
vn -0.23629817366600037 -0.5310155749320984 0.8137478828430176
vn 0.29783985018730164 0.6607035994529724 -0.68902987241745
vn 0.8792827129364014 0.3755275309085846 -0.29298627376556396
vn -0.9566066861152649 0.25777435302734375 -0.13585299253463745
vn -0.986788809299469 0.05443483218550682 0.15259355306625366
vn 0.7658680081367493 -0.3675493597984314 0.5275923609733582
vn -0.4238801896572113 -0.34128057956695557 0.8389595746994019
vn -0.3381624221801758 0.6437022089958191 -0.6865083575248718
vn -0.22448720037937164 0.9740186929702759 0.029885858297348022
vn -0.9609534740447998 0.27061721682548523 -0.0577474981546402
vn 0.9211728572845459 -0.027344228699803352 0.38819190859794617
vn -0.7098153233528137 0.5058668255805969 0.490164190530777
vn -0.7081283330917358 -0.14209526777267456 0.6916380524635315
vn -0.6768495440483093 -0.28461122512817383 0.6788749098777771
vn 0.4880242645740509 -0.4951684772968292 0.7187771201133728
vn 0.69341641664505 -0.15164819359779358 0.7043980360031128
vn 0.6215917468070984 -0.03135962411761284 0.7827134728431702
vn 0.06849432736635208 0.039136260747909546 0.9968835711479187
vn -0.22232818603515625 -0.15417562425136566 0.962704598903656
vn 0.35728132724761963 0.46226397156715393 0.8115800619125366
vn -0.9872840642929077 0.11372854560613632 0.11106810718774796
vn 0.7706165909767151 -0.2506747841835022 0.5859285593032837
vn 0.8775160908699036 -0.40180715918540955 0.26175668835639954
vn 0.8237045407295227 0.5389358997344971 -0.1762353926897049
vn -0.34131476283073425 0.6926382780075073 0.6354184150695801
vn -0.17538920044898987 -0.11354284733533859 0.9779297709465027
vn -0.6296704411506653 -0.16911651194095612 0.7582314014434814
vn -0.645047128200531 0.7365795969963074 -0.20338308811187744
vn 0.20013804733753204 0.37248319387435913 0.9062014222145081
vn 0.0016595538472756743 -0.44285905361175537 0.8965897560119629
vn 0 -0 0
vn 0 -0 0
vn 0 -0 0
vn 0 -0 0
vn -0.9897589087486267 -0.031908273696899414 0.13913726806640625
vn 0 -0 0
vn 0.26875922083854675 0.10616711527109146 0.9573385119438171
vn -0.20647016167640686 -0.9721779227256775 -0.11063535511493683
vn -0.9764987230300903 0.14736449718475342 -0.15727035701274872
vn -0.08047792315483093 0.10381481051445007 -0.9913353323936462
vn 0 -0 0
vn 0 -0 0
vn 0 -0 0
vn 0 -0 0
vn 0 -0 0
vn 0 -0 0
vn 0 -0 0
vn 0 -0 0
vn 0 -0 0
vn 0 -0 0
vn 0 -0 0
vn 0 -0 0
vn 0 -0 0
vn 0 -0 0
vn 0 -0 0
vn 0 -0 0
vn 0 -0 0
vn 0 -0 0
vn 0 -0 0
vn 0.4771687388420105 0.5348346829414368 -0.697324812412262
vn -0.4512510597705841 0.7284894585609436 -0.5154373645782471
vn 0.912842869758606 0.40355539321899414 0.06213760748505592
vn 0.9034661054611206 -0.4175984561443329 0.09675019979476929
vn 0 -0 0
vn 0 -0 0
vn 0 -0 0
vn 0 -0 0
vn 0 -0 0
vn 0 -0 0
vn -0.9899705648422241 -0.11732480674982071 0.07869714498519897
vn 0 -0 0
vn 0 -0 0
vn 0 -0 0
vn -0.38285601139068604 0.8041290640830994 -0.4547501802444458
vn 0.24166537821292877 -0.45497578382492065 0.8570851683616638
vn 0 -0 0
vn 0 -0 0
vn 0 -0 0
vn -1 -0 0
vn 1 0 0
vn 0 -0 0
vn 0 -0 0
vn 0 -0 0
vn 0 -0 0
vn 0 -0 0
vn 0 -0 0
vn 0 -0 0
vn 0 -0 0
vn 0 -0 0
vn -0.1989428550004959 0.2586081027984619 0.9452743530273438
vn 0 -0 0
vn 0 -0 0
vn 0 -0 0
vn 0 -0 0
vn 0 -0 0
vn 0 -0 0
vn 0 -0 0
vn 0 -0 0
vn 0 -0 0
vn 0 -0 0
vn 0 -0 0
vn 0 -0 0
vn 0 -0 0
vn 0 -0 0
vn 0 -0 0
vn 0 -0 0
vn 0 -0 0
vn 0 -0 0
vn 0 -0 0
vn 0 -0 0
vn 0 -0 0
vn 0 -0 0
vn 0 -0 0
vn 0 -0 0
vn 0 -0 0
vn 0 -0 0
vn 0 -0 0
vn 0 -0 0
vn 0 -0 0
vn 0 -0 0
vn 0 -0 0
vn 0 -0 0
vn 0 -0 0
vn 0 -0 0
vn 0 -0 0
vn 0 -0 0
vn 0 -0 0
vn 0 -0 0
vn 0 -0 0
vn 0 -0 1
vn 0 -0 0
vn 0 -0 0
vn 0 -0 0
vn 0 -0 0
vn 0 -0 0
vn 0 -0 0
vn 0 -0 0
vn 0 -0 0
vn 0 -0 0
vn 0 -0 0
vn 0 -0 0
vn 0 -0 0
vn 0 -0 0
vn 0 -0 0
vn 0 -0 0
vn 0 -0 0
vn 0 -0 0
vn 0 -0 0
vn 0 -0 0
vn 0 -0 0
vn 0 -0 0
vn 0 -0 0
vn 0 -0 0
vn 0 -0 0
vn 0 -0 0
vn 0 -0 0
vn 0.04796413332223892 0.9865242838859558 0.15642669796943665
vn 0 -0 0
vn 0 -0 0
vn 0 -0 0
vn 0 -0 0
vn -0.04796413332223892 0.9865242838859558 -0.15642669796943665
vn 0 -0 0
vn 0 -0 0
vn 0 -0 0
vn 0 -0 0
vn 0 -0 0
vn 0 -0 0
vn 0 -0 0
vn 0 -0 0
vn -0 0 -1
vn 0 -0 0
vn 0 -0 0
vn 0 -0 0
vn 0 -0 0
vn 0 -0 0
vn -0.04796413332223892 -0.9865242838859558 -0.15642669796943665
vn 0 -0 1
vn 0 -0 0
vn 0 -0 0
vn -0 0 -1
vn 0 -0 1
vn -0 0 -1
vn -0 0 -1
vn 0 -0 1
vn 0 -0 1
vn 0 -0 1
vn 0 -0 1
vn 0 -0 0
vn 0 -0 1
vn 0 -0 0
vn 0.04796413332223892 -0.9865242838859558 0.15642669796943665
vn 0 -0 0
vn 1 0 0
vn 0 -0 0
vn -1 -0 0
vn 0 -0 0
vn 0 -0 0
vn 0.7116990685462952 -0.3771708309650421 -0.592643678188324
vn -0.06540894508361816 -0.18475466966629028 -0.9806056618690491
vn 0.5219953060150146 0.3939847946166992 -0.7565031051635742
vn 0.6865467429161072 -0.7072685360908508 -0.16859672963619232
vn 0.9494962096214294 -0.23660755157470703 0.20609185099601746
vn 0.9808513522148132 0.1706317663192749 0.09389065206050873
vn 0.812571108341217 -0.1647193431854248 0.5591026544570923
vn 0.8129988312721252 0.019858699291944504 0.5819265842437744
vn 0 -0 1
vn 0 -0 0
vn 0 -0 0
vn -0 0 -1
vn 0 -0 1
vn -0 0 -1
vn -0 0 -1
vn 0.8880078196525574 -0.3899407386779785 0.24369730055332184
vn 0 -0 1
vn 0 -0 1
vn 0 -0 1
vn 0 -0 1
vn 0 -0 0
vn 0 -0 1
vn -0 0 -1
vn 0 -0 0
vn -0 0 -1
vn -0 0 -1
vn -0 0 -1
vn 0 -0 0
vn 0 -0 0
vn 0 -0 0
vn 0 -0 0
vn 0 -0 0
vn 0 -0 0
vn 0 -0 0
vn 0 -0 0
vn 0 -0 0
vn 0 -0 0
vn 0 -0 0
vn 0 -0 0
vn 0 -0 0
vn 0 -0 0
vn -0.5170886516571045 0.5380268096923828 -0.6656925678253174
vn -0.9057216644287109 0.2085385024547577 -0.36902567744255066
vn -0.8146214485168457 -0.13328894972801208 0.5644696354866028
vn 0.6109843254089355 -0.483737051486969 0.6266552209854126
vn 0.6064878702163696 -0.7763042449951172 0.1718263477087021
vn 0.6339770555496216 0.07944152504205704 0.769260823726654
vn 0.810126543045044 0.3952876627445221 -0.4329465925693512
vn 0.7446938753128052 0.45595818758010864 -0.4873737692832947
vn -0 0 -1
vn -0 0 -1
vn -0 0 -1
vn 0.017427807673811913 -0.5754945278167725 0.8176199793815613
vn 0.48300909996032715 0.12730470299720764 0.8663116097450256
vn 0.3502909541130066 0.14600297808647156 0.9251915812492371
vn -0 0 -1
vn 0 -0 0
vn 0 -0 0
vn 0 -0 0
vn 0 -0 0
vn 0.9241265654563904 0.065132737159729 0.3764941096305847
vn 0 -0 0
vn -0.5781106948852539 0.03892478346824646 0.8150293827056885
vn -0.019446374848484993 -0.029056401923298836 0.9993886351585388
vn -0.8188093900680542 -0.06615869700908661 0.5702404975891113
vn 0 -0 0
vn 0 -0 0
vn 0 -0 0
vn 0 -0 0
vn 0 -0 0
vn 0 -0 0
vn 0 -0 0
vn 0 -0 0
vn 0.9615049362182617 0.017694396898150444 0.274217426776886
vn 0.40596064925193787 0.9137930870056152 0.013346751220524311
vn -0.8295360803604126 0.4216431975364685 0.3661789000034332
vn 0.9750282764434814 -0.001717336825095117 0.22207435965538025
vn 0.7286748886108398 0.5887370705604553 0.349887877702713
vn 0 1 0
vn 0 1 0
vn 0 1 0
vn 0 1 0
vn 0.863699734210968 -0.08248045295476913 0.49721193313598633
vn 0 -1 0
vn 0 -1 0
vn 0 -1 0
vn 0 -1 0
vn 0 -0 0
vn 0 -0 0
vn 0 -0 0
vn 0 -0 0
vn 0 -0 0
vn 0 -0 0
vn 0 -0 0
vn 0.3818807899951935 0.002093374030664563 0.9242092967033386
vn -0.20543478429317474 0.09183791279792786 0.9743523001670837
vn 0.058478593826293945 -0.34039559960365295 0.9384621381759644
vn 0 -0 0
vn 0 -0 0
vn 0 -0 0
f 1//1 2//2 3//3
f 2//2 1//1 4//4
f 5//5 4//4 1//1
f 6//6 5//5 1//1
f 7//7 8//8 3//3
f 2//2 7//7 3//3
f 5//5 6//6 9//9
f 10//10 3//3 8//8
f 11//11 7//7 2//2
f 3//3 12//12 1//1
f 12//12 6//6 1//1
f 5//5 13//13 4//4
f 14//14 10//10 8//8
f 10//10 15//15 3//3
f 7//7 16//16 8//8
f 8//8 16//16 14//14
f 3//3 15//15 12//12
f 7//7 11//11 16//16
f 17//17 18//18 16//16
f 11//11 17//17 16//16
f 12//12 19//19 6//6
f 9//9 6//6 19//19
f 2//2 4//4 17//17
f 11//11 2//2 17//17
f 20//20 17//17 13//13
f 17//17 4//4 13//13
f 5//5 9//9 13//13
f 21//21 10//10 14//14
f 15//15 22//22 23//23
f 22//22 15//15 10//10
f 15//15 19//19 12//12
f 24//24 14//14 16//16
f 18//18 17//17 20//20
f 25//25 13//13 9//9
f 24//24 18//18 26//26
f 16//16 18//18 24//24
f 18//18 20//20 27//27
f 13//13 28//28 20//20
f 25//25 28//28 13//13
f 22//22 21//21 29//29
f 10//10 21//21 22//22
f 30//30 29//29 21//21
f 21//21 14//14 30//30
f 14//14 31//31 30//30
f 15//15 23//23 32//32
f 15//15 32//32 19//19
f 31//31 14//14 24//24
f 26//26 33//33 24//24
f 34//34 24//24 33//33
f 31//31 24//24 34//34
f 26//26 18//18 27//27
f 19//19 35//35 9//9
f 25//25 9//9 35//35
f 23//23 22//22 36//36
f 36//36 22//22 29//29
f 32//32 23//23 37//37
f 30//30 31//31 38//38
f 27//27 39//39 26//26
f 26//26 39//39 33//33
f 35//35 40//40 25//25
f 27//27 20//20 41//41
f 41//41 20//20 28//28
f 40//40 28//28 25//25
f 36//36 37//37 23//23
f 30//30 42//42 29//29
f 38//38 42//42 30//30
f 37//37 43//43 32//32
f 43//43 44//44 32//32
f 31//31 45//45 38//38
f 32//32 44//44 19//19
f 31//31 34//34 45//45
f 19//19 44//44 35//35
f 39//39 27//27 41//41
f 33//33 46//46 34//34
f 47//47 40//40 35//35
f 36//36 48//48 49//49
f 37//37 49//49 50//50
f 37//37 36//36 49//49
f 29//29 48//48 36//36
f 48//48 29//29 42//42
f 43//43 37//37 50//50
f 51//51 42//42 38//38
f 52//52 45//45 34//34
f 33//33 39//39 46//46
f 52//52 34//34 46//46
f 39//39 41//41 53//53
f 46//46 39//39 53//53
f 46//46 53//53 54//54
f 53//53 41//41 28//28
f 48//48 55//55 49//49
f 50//50 49//49 56//56
f 44//44 43//43 57//57
f 47//47 44//44 57//57
f 58//58 38//38 45//45
f 44//44 47//47 35//35
f 52//52 46//46 54//54
f 28//28 59//59 53//53
f 59//59 54//54 53//53
f 40//40 59//59 28//28
f 49//49 60//60 56//56
f 55//55 60//60 49//49
f 55//55 48//48 61//61
f 50//50 57//57 43//43
f 57//57 62//62 47//47
f 63//63 47//47 62//62
f 52//52 58//58 45//45
f 47//47 63//63 40//40
f 64//64 40//40 63//63
f 59//59 40//40 64//64
f 65//65 54//54 59//59
f 65//65 52//52 54//54
f 55//55 66//66 60//60
f 55//55 61//61 66//66
f 67//67 51//51 38//38
f 65//65 58//58 52//52
f 65//65 68//68 58//58
f 66//66 61//61 69//69
f 56//56 60//60 70//70
f 71//71 56//56 70//70
f 61//61 48//48 72//72
f 72//72 48//48 42//42
f 56//56 71//71 50//50
f 71//71 73//73 50//50
f 50//50 73//73 57//57
f 58//58 67//67 38//38
f 58//58 68//68 67//67
f 68//68 65//65 64//64
f 65//65 59//59 64//64
f 66//66 74//74 75//75
f 69//69 74//74 66//66
f 66//66 75//75 60//60
f 60//60 75//75 70//70
f 69//69 61//61 72//72
f 42//42 51//51 76//76
f 57//57 73//73 62//62
f 63//63 62//62 77//77
f 78//78 63//63 77//77
f 68//68 63//63 78//78
f 64//64 63//63 68//68
f 79//79 73//73 71//71
f 72//72 42//42 76//76
f 68//68 80//80 67//67
f 68//68 78//78 80//80
f 75//75 81//81 70//70
f 74//74 81//81 75//75
f 79//79 70//70 82//82
f 70//70 79//79 71//71
f 76//76 51//51 83//83
f 51//51 67//67 83//83
f 84//84 62//62 73//73
f 83//83 67//67 80//80
f 78//78 77//77 80//80
f 85//85 86//86 81//81
f 81//81 87//87 70//70
f 85//85 81//81 74//74
f 85//85 74//74 69//69
f 70//70 88//88 82//82
f 85//85 69//69 72//72
f 79//79 84//84 73//73
f 89//89 84//84 90//90
f 62//62 84//84 89//89
f 80//80 77//77 89//89
f 77//77 62//62 89//89
f 86//86 87//87 81//81
f 87//87 88//88 70//70
f 91//91 79//79 82//82
f 92//92 85//85 72//72
f 92//92 72//72 93//93
f 72//72 76//76 93//93
f 94//94 80//80 89//89
f 94//94 83//83 80//80
f 86//86 85//85 95//95
f 95//95 85//85 92//92
f 91//91 82//82 88//88
f 96//96 84//84 79//79
f 83//83 97//97 76//76
f 94//94 89//89 90//90
f 98//98 99//99 86//86
f 86//86 99//99 100//100
f 95//95 98//98 86//86
f 98//98 95//95 101//101
f 87//87 86//86 100//100
f 100//100 102//102 88//88
f 88//88 87//87 100//100
f 79//79 91//91 96//96
f 93//93 76//76 97//97
f 103//103 84//84 96//96
f 90//90 84//84 103//103
f 83//83 94//94 97//97
f 94//94 103//103 97//97
f 94//94 90//90 103//103
f 104//104 100//100 99//99
f 100//100 104//104 102//102
f 102//102 91//91 88//88
f 96//96 105//105 103//103
f 97//97 103//103 105//105
f 99//99 106//106 107//107
f 98//98 106//106 99//99
f 99//99 107//107 104//104
f 101//101 95//95 92//92
f 101//101 92//92 108//108
f 108//108 92//92 109//109
f 102//102 110//110 91//91
f 109//109 92//92 93//93
f 110//110 96//96 91//91
f 97//97 111//111 93//93
f 105//105 111//111 97//97
f 106//106 112//112 113//113
f 101//101 114//114 112//112
f 98//98 112//112 106//106
f 101//101 112//112 98//98
f 104//104 115//115 102//102
f 116//116 114//114 101//101
f 101//101 108//108 116//116
f 117//117 109//109 118//118
f 110//110 119//119 96//96
f 93//93 118//118 109//109
f 111//111 96//96 119//119
f 118//118 93//93 111//111
f 105//105 96//96 111//111
f 120//120 104//104 107//107
f 120//120 121//121 115//115
f 122//122 123//123 116//116
f 116//116 123//123 114//114
f 116//116 124//124 122//122
f 115//115 121//121 102//102
f 116//116 108//108 125//125
f 121//121 110//110 102//102
f 121//121 126//126 110//110
f 108//108 109//109 125//125
f 125//125 109//109 117//117
f 127//127 110//110 126//126
f 110//110 127//127 119//119
f 111//111 119//119 118//118
f 113//113 128//128 106//106
f 112//112 129//129 113//113
f 112//112 114//114 129//129
f 106//106 128//128 107//107
f 130//130 131//131 113//113
f 113//113 129//129 130//130
f 130//130 120//120 131//131
f 130//130 123//123 120//120
f 120//120 115//115 104//104
f 122//122 120//120 123//123
f 120//120 122//122 121//121
f 132//132 116//116 125//125
f 122//122 124//124 121//121
f 133//133 124//124 116//116
f 118//118 134//134 117//117
f 119//119 127//127 126//126
f 119//119 126//126 134//134
f 118//118 119//119 134//134
f 113//113 131//131 128//128
f 107//107 128//128 120//120
f 128//128 131//131 120//120
f 123//123 130//130 129//129
f 114//114 123//123 129//129
f 135//135 136//136 137//137
f 136//136 135//135 138//138
f 132//132 125//125 139//139
f 137//137 140//140 135//135
f 138//138 135//135 140//140
f 132//132 133//133 116//116
f 132//132 139//139 133//133
f 133//133 139//139 125//125
f 126//126 121//121 124//124
f 141//141 124//124 133//133
f 126//126 124//124 141//141
f 117//117 141//141 133//133
f 125//125 117//117 133//133
f 141//141 134//134 126//126
f 117//117 134//134 141//141
f 142//142 143//143 144//144
f 145//145 146//146 147//147
f 146//146 145//145 148//148
f 145//145 147//147 149//149
f 148//148 145//145 149//149
f 150//150 151//151 152//152
f 151//151 150//150 153//153
f 150//150 152//152 154//154
f 153//153 150//150 154//154
f 136//136 155//155 137//137
f 136//136 138//138 155//155
f 156//156 157//157 158//158
f 156//156 159//159 160//160
f 157//157 156//156 160//160
f 160//160 159//159 161//161
f 137//137 155//155 140//140
f 138//138 140//140 155//155
f 156//156 158//158 162//162
f 159//159 156//156 162//162
f 159//159 162//162 163//163
f 159//159 163//163 161//161
f 164//164 144//144 165//165
f 166//166 164//164 165//165
f 143//143 165//165 144//144
f 144//144 164//164 167//167
f 167//167 142//142 144//144
f 168//168 169//169 170//170
f 168//168 170//170 171//171
f 170//170 169//169 172//172
f 171//171 170//170 172//172
f 146//146 173//173 147//147
f 146//146 148//148 173//173
f 147//147 173//173 149//149
f 148//148 149//149 173//173
f 132//132 139//139 174//174
f 151//151 175//175 152//152
f 153//153 175//175 151//151
f 152//152 175//175 154//154
f 153//153 154//154 175//175
f 157//157 176//176 158//158
f 177//177 176//176 157//157
f 177//177 157//157 160//160
f 161//161 177//177 160//160
f 158//158 176//176 162//162
f 163//163 162//162 176//176
f 177//177 163//163 176//176
f 161//161 163//163 177//177
f 178//178 164//164 166//166
f 164//164 166//166 167//167
f 166//166 179//179 167//167
f 179//179 142//142 167//167
f 168//168 180//180 169//169
f 168//168 171//171 180//180
f 169//169 180//180 172//172
f 171//171 172//172 180//180
f 181//181 182//182 183//183
f 182//182 181//181 184//184
f 181//181 183//183 185//185
f 184//184 181//181 185//185
f 186//186 187//187 188//188
f 186//186 189//189 190//190
f 187//187 186//186 190//190
f 190//190 189//189 191//191
f 188//188 192//192 186//186
f 189//189 186//186 192//192
f 193//193 189//189 192//192
f 191//191 189//189 193//193
f 194//194 166//166 165//165
f 194//194 179//179 166//166
f 179//179 194//194 143//143
f 143//143 194//194 165//165
f 179//179 143//143 142//142
f 195//195 196//196 197//197
f 196//196 195//195 198//198
f 195//195 197//197 199//199
f 198//198 195//195 199//199
f 200//200 201//201 202//202
f 201//201 200//200 203//203
f 200//200 202//202 204//204
f 203//203 200//200 204//204
f 205//205 206//206 207//207
f 206//206 205//205 208//208
f 209//209 210//210 211//211
f 210//210 209//209 212//212
f 205//205 207//207 213//213
f 214//214 215//215 216//216
f 208//208 205//205 213//213
f 211//211 214//214 216//216
f 211//211 216//216 209//209
f 209//209 216//216 217//217
f 218//218 212//212 209//209
f 217//217 218//218 209//209
f 182//182 219//219 183//183
f 216//216 215//215 220//220
f 184//184 219//219 182//182
f 217//217 216//216 220//220
f 217//217 220//220 221//221
f 217//217 221//221 218//218
f 183//183 219//219 185//185
f 184//184 185//185 219//219
f 222//222 188//188 187//187
f 223//223 222//222 187//187
f 223//223 187//187 190//190
f 191//191 223//223 190//190
f 192//192 188//188 222//222
f 193//193 192//192 222//222
f 223//223 193//193 222//222
f 193//193 223//223 191//191
f 224//224 225//225 226//226
f 225//225 224//224 227//227
f 224//224 226//226 228//228
f 227//227 224//224 228//228
f 229//229 230//230 231//231
f 230//230 229//229 232//232
f 196//196 233//233 197//197
f 196//196 198//198 233//233
f 234//234 229//229 231//231
f 235//235 234//234 231//231
f 236//236 232//232 229//229
f 234//234 236//236 229//229
f 197//197 233//233 199//199
f 198//198 199//199 233//233
f 201//201 237//237 202//202
f 234//234 235//235 238//238
f 234//234 238//238 236//236
f 201//201 203//203 237//237
f 202//202 237//237 204//204
f 203//203 204//204 237//237
f 239//239 240//240 241//241
f 239//239 241//241 242//242
f 243//243 244//244 245//245
f 244//244 243//243 246//246
f 206//206 247//247 207//207
f 241//241 240//240 248//248
f 241//241 248//248 242//242
f 206//206 208//208 247//247
f 210//210 249//249 211//211
f 243//243 245//245 250//250
f 243//243 250//250 246//246
f 210//210 212//212 249//249
f 207//207 247//247 213//213
f 208//208 213//213 247//247
f 214//214 251//251 215//215
f 214//214 211//211 249//249
f 214//214 249//249 251//251
f 251//251 249//249 252//252
f 212//212 218//218 252//252
f 249//249 212//212 252//252
f 215//215 251//251 220//220
f 221//221 220//220 251//251
f 252//252 221//221 251//251
f 218//218 221//221 252//252
f 253//253 254//254 255//255
f 253//253 256//256 257//257
f 254//254 253//253 257//257
f 257//257 256//256 258//258
f 253//253 255//255 259//259
f 256//256 253//253 259//259
f 260//260 256//256 259//259
f 258//258 256//256 260//260
f 261//261 262//262 263//263
f 262//262 261//261 264//264
f 264//264 261//261 263//263
f 225//225 265//265 226//226
f 225//225 227//227 265//265
f 226//226 265//265 228//228
f 227//227 228//228 265//265
f 266//266 267//267 268//268
f 267//267 266//266 269//269
f 269//269 266//266 268//268
f 230//230 270//270 231//231
f 230//230 232//232 270//270
f 271//271 272//272 273//273
f 272//272 271//271 274//274
f 270//270 275//275 235//235
f 231//231 270//270 235//235
f 275//275 270//270 232//232
f 275//275 232//232 236//236
f 271//271 273//273 276//276
f 271//271 276//276 274//274
f 235//235 275//275 238//238
f 236//236 238//238 275//275
f 239//239 277//277 240//240
f 239//239 242//242 277//277
f 244//244 278//278 245//245
f 246//246 278//278 244//244
f 240//240 277//277 248//248
f 242//242 248//248 277//277
f 245//245 278//278 250//250
f 246//246 250//250 278//278
f 254//254 279//279 255//255
f 254//254 257//257 280//280
f 279//279 254//254 280//280
f 258//258 280//280 257//257
f 255//255 279//279 259//259
f 260//260 259//259 279//279
f 280//280 260//260 279//279
f 258//258 260//260 280//280
f 262//262 281//281 263//263
f 262//262 264//264 281//281
f 264//264 263//263 281//281
f 282//282 283//283 284//284
f 283//283 282//282 285//285
f 286//286 282//282 284//284
f 287//287 286//286 284//284
f 288//288 285//285 282//282
f 286//286 288//288 282//282
f 289//289 286//286 287//287
f 290//290 289//289 287//287
f 291//291 288//288 286//286
f 289//289 291//291 286//286
f 292//292 289//289 290//290
f 293//293 292//292 290//290
f 294//294 291//291 289//289
f 292//292 294//294 289//289
f 292//292 293//293 295//295
f 294//294 292//292 295//295
f 267//267 296//296 268//268
f 267//267 269//269 296//296
f 269//269 268//268 296//296
f 297//297 298//298 299//299
f 297//297 299//299 300//300
f 299//299 298//298 301//301
f 300//300 299//299 301//301
f 272//272 302//302 273//273
f 272//272 274//274 302//302
f 302//302 276//276 273//273
f 274//274 276//276 302//302
f 303//303 304//304 305//305
f 304//304 303//303 306//306
f 306//306 307//307 304//304
f 309//309 308//308 307//307
f 308//308 309//309 310//310
f 311//311 312//312 313//313
f 312//312 311//311 314//314
f 315//315 311//311 313//313
f 316//316 315//315 313//313
f 317//317 314//314 311//311
f 315//315 317//317 311//311
f 310//310 318//318 308//308
f 319//319 315//315 316//316
f 320//320 319//319 316//316
f 321//321 317//317 315//315
f 319//319 321//321 315//315
f 322//322 319//319 320//320
f 323//323 322//322 320//320
f 324//324 321//321 319//319
f 322//322 324//324 319//319
f 283//283 325//325 284//284
f 322//322 323//323 326//326
f 322//322 326//326 324//324
f 283//283 285//285 325//325
f 325//325 327//327 287//287
f 284//284 325//325 287//287
f 285//285 288//288 327//327
f 325//325 285//285 327//327
f 327//327 328//328 290//290
f 287//287 327//327 290//290
f 288//288 291//291 328//328
f 327//327 288//288 328//328
f 328//328 329//329 293//293
f 290//290 328//328 293//293
f 291//291 294//294 329//329
f 328//328 291//291 329//329
f 293//293 329//329 295//295
f 294//294 295//295 329//329
f 330//330 331//331 332//332
f 330//330 332//332 333//333
f 332//332 331//331 334//334
f 335//335 336//336 337//337
f 333//333 332//332 334//334
f 337//337 338//338 339//339
f 335//335 337//337 339//339
f 339//339 338//338 340//340
f 297//297 341//341 298//298
f 337//337 336//336 342//342
f 300//300 341//341 297//297
f 338//338 337//337 342//342
f 338//338 342//342 343//343
f 340//340 338//338 343//343
f 298//298 341//341 301//301
f 300//300 301//301 341//341
f 344//344 305//305 304//304
f 345//345 344//344 304//304
f 306//306 345//345 304//304
f 306//306 346//346 345//345
f 347//347 306//306 348//348
f 303//303 348//348 306//306
f 309//309 307//307 306//306
f 346//346 309//309 306//306
f 349//349 309//309 346//346
f 307//307 350//350 308//308
f 350//350 351//351 308//308
f 312//312 352//352 313//313
f 312//312 314//314 352//352
f 351//351 318//318 308//308
f 352//352 353//353 316//316
f 313//313 352//352 316//316
f 314//314 317//317 353//353
f 352//352 314//314 353//353
f 353//353 354//354 320//320
f 316//316 353//353 320//320
f 317//317 321//321 354//354
f 353//353 317//317 354//354
f 318//318 356//356 355//355
f 310//310 356//356 318//318
f 357//357 356//356 310//310
f 354//354 358//358 323//323
f 320//320 354//354 323//323
f 358//358 354//354 321//321
f 358//358 321//321 324//324
f 359//359 360//360 361//361
f 360//360 359//359 362//362
f 357//357 363//363 356//356
f 323//323 358//358 326//326
f 359//359 361//361 364//364
f 324//324 326//326 358//358
f 362//362 359//359 364//364
f 355//355 356//356 365//365
f 366//366 355//355 365//365
f 365//365 356//356 363//363
f 366//366 365//365 367//367
f 330//330 368//368 331//331
f 330//330 333//333 368//368
f 331//331 368//368 334//334
f 333//333 334//334 368//368
f 335//335 369//369 336//336
f 335//335 339//339 370//370
f 369//369 335//335 370//370
f 340//340 370//370 339//339
f 336//336 369//369 342//342
f 343//343 342//342 369//369
f 370//370 343//343 369//369
f 340//340 343//343 370//370
f 371//371 372//372 373//373
f 372//372 371//371 374//374
f 371//371 373//373 375//375
f 374//374 371//371 375//375
f 376//376 305//305 377//377
f 377//377 305//305 344//344
f 378//378 377//377 344//344
f 345//345 378//378 344//344
f 305//305 376//376 303//303
f 303//303 376//376 348//348
f 347//347 379//379 306//306
f 379//379 350//350 306//306
f 350//350 307//307 306//306
f 380//380 351//351 350//350
f 310//310 309//309 349//349
f 349//349 357//357 310//310
f 381//381 382//382 383//383
f 382//382 381//381 384//384
f 351//351 385//385 318//318
f 386//386 381//381 383//383
f 387//387 386//386 383//383
f 388//388 384//384 381//381
f 386//386 388//388 381//381
f 355//355 318//318 385//385
f 386//386 387//387 389//389
f 388//388 386//386 389//389
f 360//360 390//390 361//361
f 360//360 362//362 390//390
f 361//361 390//390 364//364
f 362//362 364//364 390//390
f 391//391 392//392 393//393
f 392//392 391//391 394//394
f 363//363 366//366 355//355
f 391//391 393//393 395//395
f 391//391 395//395 394//394
f 363//363 366//366 365//365
f 372//372 396//396 373//373
f 374//374 396//396 372//372
f 373//373 396//396 375//375
f 374//374 375//375 396//396
f 397//397 376//376 377//377
f 397//397 347//347 376//376
f 376//376 347//347 348//348
f 378//378 345//345 398//398
f 379//379 347//347 398//398
f 345//345 346//346 398//398
f 349//349 398//398 346//346
f 350//350 379//379 380//380
f 351//351 380//380 385//385
f 357//357 398//398 349//349
f 398//398 357//357 399//399
f 382//382 400//400 383//383
f 382//382 384//384 400//400
f 363//363 399//399 357//357
f 400//400 401//401 387//387
f 383//383 400//400 387//387
f 384//384 388//388 401//401
f 400//400 384//384 401//401
f 355//355 385//385 399//399
f 387//387 401//401 389//389
f 388//388 389//389 401//401
f 355//355 399//399 363//363
f 392//392 402//402 393//393
f 394//394 402//402 392//392
f 393//393 402//402 395//395
f 394//394 395//395 402//402
f 378//378 397//397 377//377
f 347//347 397//397 398//398
f 378//378 398//398 397//397
f 398//398 385//385 380//380
f 379//379 398//398 380//380
f 399//399 385//385 398//398
