# Generated by Visualization Toolkit
v -173.24749755859375 -204.5697479248047 97.65496826171875
v -173.55111694335938 -203.1021270751953 98.56138610839844
v -172.3214569091797 -203.4850616455078 98.06803894042969
v -170.26312255859375 -204.73046875 98.12625885009766
v -174.57595825195312 -204.6758270263672 98.33253479003906
v -170.36679077148438 -205.94610595703125 98.07904815673828
v -173.0235137939453 -206.3728485107422 98.14738464355469
v -174.25497436523438 -205.74038696289062 98.32749938964844
v -170.74310302734375 -207.11740112304688 98.81074523925781
v -170.25149536132812 -202.1690673828125 100.03854370117188
v -167.89678955078125 -201.5830078125 102.5600357055664
v -167.39828491210938 -202.21560668945312 101.20850372314453
v -172.6244659423828 -201.69815063476562 100.3680191040039
v -175.86605834960938 -202.4558563232422 100.72107696533203
v -167.01332092285156 -203.07107543945312 100.5571517944336
v -170.082763671875 -203.18212890625 99.05915069580078
v -175.08587646484375 -203.68557739257812 99.20736694335938
v -166.55593872070312 -203.91197204589844 100.68830871582031
v -177.60946655273438 -204.7587890625 101.54925537109375
v -166.5735626220703 -206.24842834472656 101.45883178710938
v -167.6712188720703 -207.5120849609375 101.0427474975586
v -168.35281372070312 -205.9286651611328 99.6903076171875
v -176.6789093017578 -206.2576446533203 101.17743682861328
v -173.1227264404297 -208.7425994873047 100.37323760986328
v -174.2816619873047 -209.0286865234375 101.07959747314453
v -170.9706268310547 -209.37547302246094 101.5540771484375
v -165.79934692382812 -202.09219360351562 102.89444732666016
v -168.7259063720703 -201.64157104492188 103.19271087646484
v -173.96717834472656 -201.73316955566406 101.24871063232422
v -175.60755920410156 -202.22718811035156 101.53315734863281
v -176.20716857910156 -202.95816040039062 101.9487533569336
v -165.3549041748047 -203.73638916015625 102.78021240234375
v -165.15879821777344 -205.52308654785156 103.58445739746094
v -166.64932250976562 -207.4523162841797 102.57447814941406
v -176.12838745117188 -206.59576416015625 102.2256088256836
v -174.2513427734375 -209.11505126953125 102.27525329589844
v -169.3448486328125 -208.77137756347656 102.30315399169922
v -170.96261596679688 -209.59902954101562 102.55167388916016
v -167.40591430664062 -202.13504028320312 104.34719848632812
v -170.2834014892578 -202.22000122070312 103.83547973632812
v -164.8983612060547 -204.84124755859375 104.2945785522461
v -169.99032592773438 -203.08189392089844 104.93659973144531
v -171.56639099121094 -204.63441467285156 104.9681625366211
v -176.24827575683594 -203.853515625 102.34757232666016
v -172.16549682617188 -207.6318359375 104.31320190429688
v -173.9727020263672 -205.97137451171875 103.7869873046875
v -165.50778198242188 -206.20407104492188 104.1802749633789
v -167.2688751220703 -207.73692321777344 103.52320098876953
v -168.1769561767578 -207.6189727783203 104.33282470703125
v -171.39013671875 -208.53887939453125 103.94600677490234
v -165.8086395263672 -203.81045532226562 104.79824829101562
v -166.5229034423828 -204.76918029785156 105.7645263671875
v -166.64077758789062 -204.8951873779297 106.27233123779297
v -168.0224151611328 -205.02647399902344 105.63021850585938
v -167.196044921875 -205.93133544921875 105.4592056274414
v -170.6176300048828 -206.27650451660156 105.10274505615234
vn -0.15707886219024658 0.07203184813261032 -0.9849557280540466
vn -0.321380615234375 0.5997604131698608 -0.7328042387962341
vn 0.09761688858270645 0.6022553443908691 -0.792312741279602
vn 0.40993672609329224 0.17581991851329803 -0.8950080275535583
vn -0.6174106597900391 0.07741717994213104 -0.7828222513198853
vn 0.298067569732666 -0.29534074664115906 -0.9077056646347046
vn -0.12962627410888672 -0.49739521741867065 -0.8577849864959717
vn -0.4797390401363373 -0.40942633152008057 -0.7760287523269653
vn 0.26024192571640015 -0.6447381973266602 -0.7187397480010986
vn 0.20012971758842468 0.7963981628417969 -0.5706997513771057
vn 0.14891378581523895 0.9850623607635498 -0.086469367146492
vn 0.32332324981689453 0.8057700395584106 -0.4961821436882019
vn -0.05236393213272095 0.9333742260932922 -0.355064332485199
vn -0.5593551397323608 0.7501226663589478 -0.35275763273239136
vn 0.5466122031211853 0.4835135340690613 -0.6836883425712585
vn 0.3014615774154663 0.5808416604995728 -0.7561375498771667
vn -0.6095082759857178 0.3799487054347992 -0.6958007216453552
vn 0.7205272316932678 -0.001078963279724121 -0.6934257745742798
vn -0.9871761798858643 0.09935925155878067 0.12494365870952606
vn 0.774336576461792 -0.30093300342559814 -0.556634783744812
vn 0.5414858460426331 -0.6488966345787048 -0.5345337986946106
vn 0.5984065532684326 -0.2901613712310791 -0.7468038201332092
vn -0.8108816742897034 -0.5153670907020569 -0.27725034952163696
vn -0.13210399448871613 -0.7413969039916992 -0.657935619354248
vn -0.3512606918811798 -0.85427325963974 -0.38318806886672974
vn 0.20889654755592346 -0.8911561369895935 -0.4027443826198578
vn 0.6973554491996765 0.7154830098152161 -0.042183782905340195
vn -0.043511971831321716 0.967708170413971 0.24828936159610748
vn -0.19802838563919067 0.9775334596633911 0.07220194488763809
vn -0.4293113946914673 0.8577194809913635 0.28285878896713257
vn -0.5560483932495117 0.5867487192153931 0.5886731743812561
vn 0.903419017791748 0.09308427572250366 -0.41853249073028564
vn 0.9046885371208191 -0.3256506025791168 -0.27475517988204956
vn 0.6827455759048462 -0.7041615843772888 -0.19497422873973846
vn -0.6717628836631775 -0.41245830059051514 0.6153152585029602
vn -0.5066357851028442 -0.7521015405654907 0.421501487493515
vn 0.4216182231903076 -0.9065312743186951 -0.020956801250576973
vn 0.12216150760650635 -0.9778037071228027 0.17022490501403809
vn 0.14434684813022614 0.7931825518608093 0.5916295051574707
vn -0.2026469111442566 0.8042190670967102 0.5587180852890015
vn 0.9548426270484924 0.03571268171072006 0.2949579656124115
vn -0.18753592669963837 0.4827110171318054 0.8554649949073792
vn -0.34600481390953064 0.11538468301296234 0.931110680103302
vn -0.5164180994033813 0.21276165544986725 0.8294847011566162
vn -0.36798402667045593 -0.3282756507396698 0.8699557185173035
vn -0.49195513129234314 -0.091204434633255 0.8658301830291748
vn 0.6637303233146667 -0.613608717918396 0.4277225136756897
vn 0.4361870288848877 -0.8509113788604736 0.2927299737930298
vn 0.29449841380119324 -0.7732685804367065 0.5615392327308655
vn -0.06944060325622559 -0.6201821565628052 0.7813783884048462
vn 0.5883849263191223 0.4846116006374359 0.6472671031951904
vn 0.45958006381988525 0.18919061124324799 0.8677517175674438
vn 0.2943863868713379 -0.011725298129022121 0.9556145668029785
vn -0.2110704779624939 0.12357300519943237 0.9696283340454102
vn 0.21665894985198975 -0.5506184101104736 0.8061503171920776
vn -0.15271005034446716 -0.2618979215621948 0.952937126159668
f 1//1 2//2 3//3
f 4//4 1//1 3//3
f 5//5 2//2 1//1
f 1//1 4//4 6//6
f 7//7 1//1 6//6
f 8//8 1//1 7//7
f 5//5 1//1 8//8
f 7//7 6//6 9//9
f 10//10 11//11 12//12
f 11//11 10//10 13//13
f 13//13 2//2 14//14
f 15//15 10//10 12//12
f 16//16 10//10 15//15
f 13//13 10//10 3//3
f 3//3 10//10 16//16
f 2//2 13//13 3//3
f 17//17 14//14 2//2
f 15//15 18//18 4//4
f 16//16 15//15 4//4
f 3//3 16//16 4//4
f 2//2 5//5 17//17
f 19//19 14//14 17//17
f 19//19 17//17 5//5
f 20//20 21//21 22//22
f 20//20 22//22 18//18
f 18//18 22//22 4//4
f 4//4 22//22 6//6
f 8//8 23//23 5//5
f 23//23 19//19 5//5
f 6//6 22//22 9//9
f 22//22 21//21 9//9
f 9//9 24//24 7//7
f 7//7 24//24 8//8
f 24//24 25//25 8//8
f 25//25 23//23 8//8
f 26//26 9//9 21//21
f 24//24 9//9 26//26
f 12//12 11//11 27//27
f 13//13 28//28 11//11
f 13//13 29//29 28//28
f 14//14 29//29 13//13
f 30//30 29//29 14//14
f 12//12 27//27 15//15
f 31//31 30//30 14//14
f 18//18 15//15 32//32
f 15//15 27//27 32//32
f 14//14 19//19 31//31
f 20//20 33//33 34//34
f 20//20 32//32 33//33
f 20//20 18//18 32//32
f 23//23 35//35 19//19
f 20//20 34//34 21//21
f 23//23 36//36 35//35
f 21//21 34//34 37//37
f 26//26 37//37 38//38
f 26//26 21//21 37//37
f 26//26 25//25 24//24
f 25//25 36//36 23//23
f 25//25 26//26 38//38
f 36//36 25//25 38//38
f 27//27 11//11 39//39
f 11//11 28//28 39//39
f 40//40 39//39 28//28
f 28//28 29//29 40//40
f 40//40 29//29 30//30
f 32//32 27//27 41//41
f 42//42 39//39 40//40
f 30//30 31//31 40//40
f 31//31 42//42 40//40
f 42//42 31//31 43//43
f 44//44 43//43 31//31
f 31//31 19//19 44//44
f 33//33 32//32 41//41
f 45//45 43//43 46//46
f 44//44 46//46 43//43
f 19//19 46//46 44//44
f 47//47 34//34 33//33
f 35//35 45//45 46//46
f 19//19 35//35 46//46
f 34//34 47//47 48//48
f 37//37 34//34 48//48
f 38//38 37//37 49//49
f 37//37 48//48 49//49
f 49//49 50//50 38//38
f 45//45 36//36 50//50
f 35//35 36//36 45//45
f 36//36 38//38 50//50
f 39//39 51//51 27//27
f 27//27 51//51 41//41
f 39//39 52//52 51//51
f 42//42 52//52 39//39
f 41//41 51//51 52//52
f 53//53 52//52 54//54
f 52//52 42//42 54//54
f 42//42 43//43 54//54
f 47//47 33//33 41//41
f 47//47 41//41 52//52
f 53//53 55//55 52//52
f 55//55 47//47 52//52
f 53//53 54//54 55//55
f 56//56 55//55 54//54
f 43//43 56//56 54//54
f 43//43 45//45 56//56
f 49//49 47//47 55//55
f 56//56 50//50 55//55
f 50//50 49//49 55//55
f 45//45 50//50 56//56
f 47//47 49//49 48//48
