# Generated by Visualization Toolkit
v -134.10540771484375 -203.43399047851562 85.6814193725586
v -134.10426330566406 -201.85902404785156 86.31361389160156
v -133.57626342773438 -202.2216796875 86.33000183105469
v -135.50352478027344 -203.25123596191406 86.16725158691406
v -135.00230407714844 -205.75827026367188 86.51152038574219
v -135.66197204589844 -205.58314514160156 85.8521957397461
v -135.7119140625 -206.38047790527344 86.298583984375
v -135.376220703125 -201.4441680908203 88.52911376953125
v -133.4363555908203 -202.9601287841797 90.51639556884766
v -133.9322052001953 -204.1936492919922 87.58763122558594
v -137.19029235839844 -203.82058715820312 88.28718566894531
v -136.6582794189453 -206.47860717773438 86.75623321533203
v -135.01844787597656 -206.43414306640625 90.00406646728516
v -138.43467712402344 -206.46047973632812 90.6984634399414
v -134.01087951660156 -200.89527893066406 90.771728515625
v -133.2781219482422 -201.6884765625 92.30909729003906
v -138.8432159423828 -204.9964599609375 92.04563903808594
v -135.74745178222656 -207.93887329101562 90.84445190429688
v -136.6656951904297 -208.54161071777344 90.4567642211914
v -137.9138946533203 -208.05813598632812 90.50765991210938
v -132.55543518066406 -200.39102172851562 93.05691528320312
v -133.52037048339844 -199.8385467529297 92.81334686279297
v -135.10121154785156 -200.4175567626953 92.57566833496094
v -137.73773193359375 -201.83731079101562 93.25198364257812
v -136.5579071044922 -201.01727294921875 92.71490478515625
v -138.91258239746094 -203.59402465820312 93.34954833984375
v -134.57505798339844 -205.1712646484375 93.61039733886719
v -138.52940368652344 -207.8978271484375 91.28165435791016
v -139.2606201171875 -207.59231567382812 93.86784362792969
v -135.97262573242188 -209.55030822753906 91.73503875732422
v -136.7427215576172 -211.2252960205078 92.41411590576172
v -135.50689697265625 -209.93194580078125 92.41832733154297
v -132.51280212402344 -200.1798553466797 95.98198699951172
v -135.15713500976562 -200.6317138671875 94.4708023071289
v -133.61341857910156 -201.9497833251953 94.23509216308594
v -138.82225036621094 -202.783203125 94.6282958984375
v -135.21986389160156 -207.80186462402344 94.53565979003906
v -135.01866149902344 -210.56491088867188 94.14909362792969
v -138.7467498779297 -210.7421112060547 94.62366485595703
v -135.78111267089844 -212.58590698242188 94.20967864990234
v -135.13458251953125 -212.23789978027344 95.47183227539062
v -133.0896759033203 -200.0791778564453 96.33605194091797
v -134.3576202392578 -201.53074645996094 95.6595230102539
v -135.7908935546875 -201.3028106689453 97.13005065917969
v -135.0780487060547 -202.15872192382812 97.2577896118164
v -136.8612823486328 -201.0171356201172 95.92005920410156
v -137.95541381835938 -201.4627685546875 97.98983001708984
v -134.6036376953125 -203.046630859375 96.14169311523438
v -135.13552856445312 -205.0470428466797 99.3767318725586
v -139.53111267089844 -205.84873962402344 97.68301391601562
v -139.4794158935547 -209.84701538085938 97.64344787597656
v -135.4232177734375 -209.45506286621094 95.69815826416016
v -136.3383026123047 -207.93470764160156 98.41178894042969
v -137.01229858398438 -212.77670288085938 95.92171478271484
v -135.12078857421875 -203.63816833496094 100.4913558959961
v -138.66128540039062 -202.34164428710938 98.93223571777344
v -139.29103088378906 -204.40255737304688 99.86212921142578
v -136.41641235351562 -209.0022430419922 99.4884262084961
v -135.2892303466797 -212.5756072998047 101.7047348022461
v -138.61175537109375 -212.10533142089844 100.29024505615234
v -135.62217712402344 -212.9722900390625 101.68946075439453
v -136.75450134277344 -213.0911865234375 99.55072784423828
v -135.46951293945312 -202.17373657226562 100.4659423828125
v -136.86802673339844 -201.55783081054688 102.01969909667969
v -137.60897827148438 -202.0252685546875 102.56763458251953
v -136.2576904296875 -206.27484130859375 100.84165954589844
v -137.0460662841797 -207.9444580078125 100.29603576660156
v -139.39288330078125 -210.44410705566406 100.81913757324219
v -136.12124633789062 -210.82363891601562 103.0881576538086
v -137.02505493164062 -202.5579071044922 102.96721649169922
v -138.6165313720703 -203.20114135742188 102.16776275634766
v -136.68641662597656 -204.85079956054688 102.58240509033203
v -139.05386352539062 -210.96994018554688 102.36041259765625
v -136.86480712890625 -207.8596649169922 102.09870147705078
v -137.33006286621094 -212.3301239013672 102.24462127685547
v -138.1011505126953 -204.14913940429688 103.09981536865234
v -137.57974243164062 -207.67910766601562 103.41063690185547
v -138.30931091308594 -208.7593231201172 103.54781341552734
v -137.43699645996094 -209.49853515625 105.84907531738281
v -136.7639617919922 -209.44143676757812 104.18170166015625
v -138.31161499023438 -210.7073516845703 103.37081146240234
v -137.0557403564453 -210.52212524414062 106.05004119873047
v -136.9751434326172 -209.71058654785156 108.26544952392578
vn 0.4705270230770111 -0.07264326512813568 -0.8793903589248657
vn 0.1662459671497345 0.7960622310638428 -0.5819339752197266
vn 0.9330997467041016 0.1485583633184433 -0.3274986743927002
vn -0.6063593626022339 0.3665751814842224 -0.7056564092636108
vn 0.746307373046875 -0.5377766489982605 -0.39220094680786133
vn -0.06280587613582611 -0.2624486982822418 -0.962899923324585
vn 0.4403006434440613 -0.7392456531524658 -0.5095598697662354
vn -0.4701014757156372 0.8226708173751831 -0.31971457600593567
vn 0.9565687775611877 -0.28966355323791504 0.03272994980216026
vn 0.9172228574752808 -0.3796043395996094 -0.12084192037582397
vn -0.8529640436172485 0.33496424555778503 -0.40031400322914124
vn -0.6935408711433411 -0.33326467871665955 -0.6386985778808594
vn 0.8607901334762573 -0.5063185691833496 -0.05178755521774292
vn -0.9190880060195923 -0.06036553159356117 -0.3894011676311493
vn 0.40425699949264526 0.8151702880859375 -0.414817750453949
vn 0.9944565296173096 -0.045062195509672165 -0.09500287473201752
vn -0.9565866589546204 0.0972205251455307 -0.2747548818588257
vn 0.8006556034088135 -0.48039111495018005 -0.35801541805267334
vn 0.18349102139472961 -0.7526794672012329 -0.6323010921478271
vn -0.6491777300834656 -0.5074709057807922 -0.5666053295135498
vn 0.8969296216964722 0.2861036956310272 -0.3371378481388092
vn 0.04985295981168747 0.9899410605430603 -0.132406547665596
vn -0.28139352798461914 0.9500755667686462 -0.13481144607067108
vn -0.6975647807121277 0.6879356503486633 -0.2003694623708725
vn -0.452635258436203 0.8871741890907288 -0.08968447148799896
vn -0.9394965171813965 0.27781572937965393 -0.2004116028547287
vn 0.961664080619812 -0.26763924956321716 0.05976125970482826
vn -0.8815868496894836 -0.24330157041549683 -0.40448617935180664
vn -0.9825146198272705 -0.05116015672683716 -0.17901869118213654
vn 0.5614371299743652 -0.4844772517681122 -0.6708727478981018
vn -0.05688059702515602 -0.7179998159408569 -0.6937152743339539
vn 0.8467155694961548 -0.3198566734790802 -0.425164133310318
vn 0.9179694056510925 -0.17325592041015625 0.35681167244911194
vn -0.24865202605724335 0.9379544258117676 0.24168917536735535
vn 0.8773963451385498 -0.39658719301223755 0.2699894905090332
vn -0.8996427655220032 0.42938336730003357 -0.07920179516077042
vn 0.9869416952133179 -0.10943577438592911 0.11819451302289963
vn 0.998432457447052 -0.008355731144547462 -0.055343251675367355
vn -0.8169538378715515 -0.49510645866394043 -0.2957296669483185
vn 0.35112375020980835 -0.8800089955329895 -0.31983786821365356
vn 0.8657881021499634 -0.4721076488494873 -0.16590747237205505
vn -0.2223193347454071 0.698397159576416 0.6803054809570312
vn 0.6433470845222473 0.06841010600328445 0.7625120282173157
vn 0.44807979464530945 0.8579757809638977 0.25120124220848083
vn 0.8875235915184021 0.3720758855342865 0.27177467942237854
vn -0.24879564344882965 0.967612624168396 0.04273912310600281
vn -0.58633953332901 0.8096182346343994 0.026911921799182892
vn 0.9651925563812256 -0.039439357817173004 0.25854963064193726
vn 0.9398961663246155 -0.2730320394039154 0.20505806803703308
vn -0.9967859387397766 0.07727185636758804 -0.021139658987522125
vn -0.9727730751037598 -0.2202635407447815 -0.07208678126335144
vn 0.9614332914352417 0.18250839412212372 0.20575883984565735
vn 0.9438470602035522 -0.15072689950466156 0.2939968705177307
vn -0.4527455270290375 -0.8643660545349121 -0.21884435415267944
vn 0.934321939945221 0.006891752127557993 0.3563636839389801
vn -0.8503686189651489 0.5202450752258301 0.07885660231113434
vn -0.9802461266517639 0.16417525708675385 0.11029084026813507
vn 0.9288147687911987 0.3442271053791046 0.13715273141860962
vn 0.9729223847389221 -0.02423735335469246 0.22985774278640747
vn -0.7330820560455322 -0.6796191930770874 0.02661692537367344
vn 0.4467734098434448 -0.8459506034851074 0.29113760590553284
vn -0.19671018421649933 -0.9797036647796631 0.03854753449559212
vn 0.8174325823783875 0.4869138300418854 0.30776455998420715
vn 0.17553116381168365 0.9236928224563599 0.3405590355396271
vn -0.5310519933700562 0.6644394993782043 0.5258364677429199
vn 0.8910037279129028 -0.35277992486953735 0.285759836435318
vn 0.9909900426864624 -0.013801303692162037 0.133222758769989
vn -0.9845356941223145 -0.1604158580303192 0.07040129601955414
vn 0.9558919668197632 0.021762246266007423 0.2929113209247589
vn 0.4756520688533783 0.2755206227302551 0.8353703022003174
vn -0.8826243281364441 0.29234689474105835 0.3681134581565857
vn 0.8442463874816895 -0.10945471376180649 0.5246596932411194
vn -0.8873631954193115 -0.2296435385942459 0.3998129665851593
vn 0.9696054458618164 0.15535733103752136 0.1890224814414978
vn -0.45155826210975647 -0.824045717716217 0.3421168625354767
vn -0.5043865442276001 0.1773417443037033 0.8450705409049988
vn 0.4712732434272766 0.3069989085197449 0.8268333077430725
vn -0.7553398013114929 0.14410869777202606 0.6392921805381775
vn -0.7475598454475403 0.421394407749176 0.5134015083312988
vn 0.7748425602912903 0.5917048454284668 0.222495898604393
vn -0.8020433783531189 -0.35170575976371765 0.4827313721179962
vn -0.31348946690559387 -0.7856453061103821 0.533372163772583
vn 0.7283257842063904 0.3051263093948364 0.6135466694831848
f 1//1 2//2 3//3
f 4//4 2//2 1//1
f 1//1 5//5 6//6
f 1//1 6//6 4//4
f 7//7 6//6 5//5
f 8//8 2//2 4//4
f 3//3 9//9 10//10
f 1//1 3//3 10//10
f 10//10 5//5 1//1
f 11//11 4//4 12//12
f 10//10 13//13 5//5
f 4//4 6//6 12//12
f 14//14 11//11 12//12
f 5//5 13//13 7//7
f 12//12 6//6 7//7
f 2//2 15//15 16//16
f 3//3 2//2 16//16
f 2//2 8//8 15//15
f 3//3 16//16 9//9
f 8//8 4//4 11//11
f 11//11 14//14 17//17
f 18//18 7//7 13//13
f 7//7 19//19 12//12
f 18//18 19//19 7//7
f 12//12 19//19 20//20
f 12//12 20//20 14//14
f 15//15 21//21 16//16
f 15//15 22//22 21//21
f 22//22 15//15 23//23
f 15//15 8//8 23//23
f 8//8 24//24 25//25
f 8//8 25//25 23//23
f 8//8 11//11 24//24
f 24//24 11//11 26//26
f 9//9 13//13 10//10
f 9//9 27//27 13//13
f 26//26 11//11 17//17
f 27//27 18//18 13//13
f 14//14 20//20 28//28
f 29//29 17//17 14//14
f 28//28 29//29 14//14
f 18//18 30//30 19//19
f 30//30 31//31 19//19
f 19//19 31//31 20//20
f 30//30 32//32 31//31
f 21//21 22//22 33//33
f 34//34 22//22 23//23
f 33//33 16//16 21//21
f 35//35 16//16 33//33
f 23//23 25//25 34//34
f 35//35 9//9 16//16
f 9//9 35//35 27//27
f 36//36 24//24 26//26
f 26//26 17//17 29//29
f 32//32 18//18 27//27
f 32//32 27//27 37//37
f 38//38 32//32 37//37
f 18//18 32//32 30//30
f 28//28 20//20 39//39
f 28//28 39//39 29//29
f 20//20 31//31 39//39
f 40//40 31//31 32//32
f 40//40 32//32 41//41
f 41//41 32//32 38//38
f 22//22 42//42 33//33
f 42//42 22//22 34//34
f 35//35 33//33 43//43
f 44//44 43//43 34//34
f 44//44 45//45 43//43
f 33//33 42//42 43//43
f 34//34 43//43 42//42
f 25//25 46//46 34//34
f 34//34 46//46 44//44
f 46//46 25//25 24//24
f 47//47 46//46 24//24
f 43//43 48//48 35//35
f 48//48 43//43 45//45
f 24//24 36//36 47//47
f 48//48 27//27 35//35
f 48//48 49//49 27//27
f 36//36 26//26 50//50
f 27//27 49//49 37//37
f 26//26 29//29 50//50
f 50//50 29//29 51//51
f 37//37 52//52 38//38
f 52//52 37//37 53//53
f 39//39 51//51 29//29
f 31//31 40//40 54//54
f 39//39 31//31 54//54
f 45//45 55//55 48//48
f 36//36 56//56 47//47
f 57//57 56//56 36//36
f 48//48 55//55 49//49
f 36//36 50//50 57//57
f 37//37 49//49 53//53
f 53//53 58//58 52//52
f 52//52 59//59 38//38
f 52//52 58//58 59//59
f 38//38 59//59 41//41
f 39//39 54//54 60//60
f 60//60 51//51 39//39
f 41//41 59//59 61//61
f 40//40 41//41 61//61
f 54//54 40//40 62//62
f 40//40 61//61 62//62
f 44//44 63//63 45//45
f 64//64 63//63 44//44
f 64//64 44//44 46//46
f 64//64 46//46 47//47
f 65//65 64//64 47//47
f 63//63 55//55 45//45
f 47//47 56//56 65//65
f 66//66 49//49 55//55
f 53//53 66//66 67//67
f 53//53 49//49 66//66
f 57//57 50//50 68//68
f 67//67 58//58 53//53
f 50//50 51//51 68//68
f 69//69 59//59 58//58
f 68//68 51//51 60//60
f 60//60 54//54 62//62
f 63//63 70//70 55//55
f 63//63 64//64 70//70
f 71//71 65//65 56//56
f 56//56 57//57 71//71
f 70//70 72//72 55//55
f 55//55 72//72 66//66
f 71//71 57//57 73//73
f 67//67 66//66 74//74
f 74//74 66//66 72//72
f 57//57 68//68 73//73
f 67//67 74//74 58//58
f 58//58 74//74 69//69
f 60//60 75//75 73//73
f 73//73 68//68 60//60
f 75//75 60//60 62//62
f 61//61 75//75 62//62
f 64//64 65//65 70//70
f 65//65 71//71 76//76
f 65//65 76//76 70//70
f 70//70 77//77 72//72
f 76//76 77//77 70//70
f 71//71 73//73 76//76
f 72//72 77//77 74//74
f 76//76 78//78 77//77
f 76//76 73//73 78//78
f 77//77 79//79 80//80
f 77//77 80//80 74//74
f 74//74 80//80 69//69
f 79//79 77//77 78//78
f 81//81 79//79 78//78
f 82//82 79//79 81//81
f 78//78 73//73 81//81
f 82//82 61//61 69//69
f 82//82 75//75 61//61
f 61//61 59//59 69//69
f 81//81 75//75 82//82
f 81//81 73//73 75//75
f 79//79 83//83 80//80
f 80//80 83//83 69//69
f 79//79 82//82 83//83
f 82//82 69//69 83//83
