# Generated by Visualization Toolkit
v 142.97750854492188 -232.14952087402344 417.1566162109375
v 143.68243408203125 -228.9817352294922 419.2282409667969
v 144.57191467285156 -231.73538208007812 417.34014892578125
v 140.7135772705078 -229.7733917236328 419.39019775390625
v 140.29678344726562 -232.17218017578125 418.7117614746094
v 145.65631103515625 -234.41488647460938 417.0243835449219
v 143.53689575195312 -235.0569305419922 417.7076110839844
v 146.8003387451172 -236.7598419189453 419.7405700683594
v 145.20211791992188 -237.7792510986328 417.8593444824219
v 145.7373809814453 -229.1947479248047 419.9040832519531
v 138.54998779296875 -231.50643920898438 421.4270324707031
v 145.64450073242188 -241.80520629882812 421.3207702636719
v 144.6674346923828 -242.62924194335938 421.0386047363281
v 145.4779815673828 -225.6535186767578 422.6611633300781
v 142.95797729492188 -226.14332580566406 422.584228515625
v 147.60157775878906 -227.73390197753906 424.0935363769531
v 147.53668212890625 -232.06939697265625 422.3887634277344
v 140.98995971679688 -237.75167846679688 422.7079772949219
v 143.74166870117188 -244.5316162109375 424.7842102050781
v 143.25396728515625 -222.99549865722656 424.44287109375
v 147.19090270996094 -224.4700469970703 425.0718994140625
v 141.35189819335938 -225.92031860351562 424.81982421875
v 137.09788513183594 -233.34458923339844 424.2926025390625
v 137.02224731445312 -236.21351623535156 424.4745788574219
v 147.7335662841797 -232.6545867919922 426.26953125
v 142.1837615966797 -243.33642578125 424.78436279296875
v 145.85348510742188 -221.3367156982422 426.6045837402344
v 144.9578857421875 -219.07225036621094 429.0966491699219
v 140.1635284423828 -226.5566864013672 427.7128601074219
v 148.7744903564453 -226.0713348388672 429.615478515625
v 136.72589111328125 -235.69583129882812 426.03521728515625
v 146.0255584716797 -238.3287353515625 426.9913635253906
v 139.1868133544922 -242.22012329101562 427.4036865234375
v 137.7886962890625 -239.19876098632812 426.44659423828125
v 143.969970703125 -243.4534912109375 426.676513671875
v 143.1005096435547 -220.49172973632812 429.0133056640625
v 138.81552124023438 -230.43035888671875 429.4427185058594
v 138.400146484375 -239.45838928222656 428.954345703125
v 140.9766845703125 -244.47683715820312 427.8576965332031
v 147.50021362304688 -218.088134765625 431.10687255859375
v 148.33633422851562 -222.0643768310547 429.45501708984375
v 140.2009735107422 -225.66561889648438 432.51654052734375
v 148.05252075195312 -229.15188598632812 431.10394287109375
v 145.75872802734375 -234.51748657226562 431.9789123535156
v 139.13360595703125 -233.31863403320312 431.2391052246094
v 140.04013061523438 -236.21011352539062 431.95062255859375
v 143.89483642578125 -238.93417358398438 430.3817138671875
v 141.12338256835938 -242.9164581298828 429.53411865234375
v 147.0838623046875 -215.13833618164062 434.3443298339844
v 144.94891357421875 -215.84144592285156 433.7772521972656
v 149.7184600830078 -219.79115295410156 433.7967224121094
v 141.5118408203125 -221.5486297607422 433.10888671875
v 140.2799072265625 -227.78244018554688 433.8669738769531
v 141.63941955566406 -238.9324951171875 431.2004089355469
v 143.66580200195312 -212.177490234375 441.7840576171875
v 150.05349731445312 -221.3462677001953 436.3463439941406
v 147.26280212402344 -227.46636962890625 436.7658996582031
v 146.9178466796875 -230.23681640625 433.0875549316406
v 141.31744384765625 -229.99253845214844 434.8780212402344
v 143.29318237304688 -234.62442016601562 433.8165588378906
v 145.15322875976562 -213.2364044189453 436.939697265625
v 149.03924560546875 -216.4509735107422 434.9741516113281
v 139.45724487304688 -222.66390991210938 441.1065368652344
v 149.3424072265625 -223.0583038330078 439.30584716796875
v 145.09164428710938 -229.88685607910156 435.3856201171875
v 143.106689453125 -230.4278564453125 435.5452575683594
v 148.646728515625 -210.8805694580078 439.3201599121094
v 150.78521728515625 -216.3667755126953 438.47784423828125
v 150.6599884033203 -212.20838928222656 440.26959228515625
v 143.65760803222656 -226.70245361328125 439.2555847167969
v 141.319091796875 -227.01165771484375 437.8753967285156
v 146.3328857421875 -209.27903747558594 441.048583984375
v 140.82154846191406 -216.99368286132812 445.5636291503906
v 150.82583618164062 -217.50291442871094 441.22271728515625
v 147.41006469726562 -223.76853942871094 441.8902587890625
v 140.3028564453125 -223.51487731933594 443.49627685546875
v 148.1468963623047 -206.3396453857422 442.8602600097656
v 150.51206970214844 -207.87954711914062 442.4458923339844
v 151.39569091796875 -209.71597290039062 446.74700927734375
v 142.62350463867188 -222.17544555664062 446.78973388671875
v 145.6893310546875 -223.4575958251953 444.2278137207031
v 149.7298583984375 -203.69895935058594 446.0877685546875
v 146.27130126953125 -204.875732421875 445.989501953125
v 150.92420959472656 -211.36582946777344 447.89251708984375
v 148.25608825683594 -202.07815551757812 447.40252685546875
v 151.67730712890625 -204.36895751953125 447.5054931640625
v 151.82150268554688 -206.60423278808594 447.512939453125
v 144.556884765625 -204.432373046875 450.0964050292969
v 147.58392333984375 -219.90328979492188 449.3930969238281
v 140.8164825439453 -216.65487670898438 448.6255798339844
v 140.47467041015625 -219.69955444335938 447.7458801269531
v 151.14517211914062 -201.69497680664062 448.76702880859375
v 142.39898681640625 -208.42303466796875 452.36163330078125
v 145.38943481445312 -220.5940704345703 450.3795471191406
v 150.15988159179688 -198.17945861816406 451.5472717285156
v 147.97190856933594 -199.0177001953125 451.03387451171875
v 146.0239715576172 -198.99217224121094 453.4051208496094
v 152.36190795898438 -204.63763427734375 450.3770446777344
v 148.11148071289062 -215.3981170654297 451.5646667480469
v 141.8664093017578 -215.67550659179688 453.3171691894531
v 142.5263214111328 -219.3672332763672 450.8656311035156
v 152.15975952148438 -198.49925231933594 453.08782958984375
v 153.08749389648438 -198.77296447753906 455.9158020019531
v 150.4911346435547 -208.4297637939453 452.7709045410156
v 147.95033264160156 -195.80764770507812 454.1531677246094
v 151.6514129638672 -192.3417205810547 456.5142517089844
v 144.49241638183594 -199.9974365234375 458.30316162109375
v 151.39993286132812 -200.01905822753906 461.8120422363281
v 141.8911895751953 -211.36019897460938 454.5262451171875
v 146.1614227294922 -213.94003295898438 456.2723693847656
v 146.04737854003906 -216.16952514648438 453.85345458984375
v 144.56515502929688 -214.0206298828125 456.9034423828125
v 142.98513793945312 -213.24851989746094 456.46502685546875
v 144.01223754882812 -217.57757568359375 452.8963317871094
v 149.4873046875 -192.37103271484375 456.2904357910156
v 153.70176696777344 -194.58470153808594 457.7953186035156
v 152.741943359375 -198.82154846191406 460.03118896484375
v 145.77627563476562 -194.63851928710938 460.29290771484375
v 142.8157196044922 -205.0474395751953 459.3171691894531
v 148.3419647216797 -206.51637268066406 459.50927734375
v 142.97508239746094 -208.8249053955078 459.0525207519531
v 153.11473083496094 -190.49871826171875 459.54107666015625
v 147.0662841796875 -192.00770568847656 459.7203674316406
v 154.0795135498047 -195.595458984375 459.4967041015625
v 143.5533447265625 -202.3561248779297 460.91033935546875
v 146.94818115234375 -209.83712768554688 457.98675537109375
v 150.79818725585938 -187.0920867919922 462.19061279296875
v 149.83328247070312 -189.92337036132812 459.46258544921875
v 147.56295776367188 -188.29391479492188 462.8768615722656
v 146.34103393554688 -207.1083984375 461.306640625
v 144.81301879882812 -210.5144500732422 458.8724670410156
v 144.42759704589844 -208.08157348632812 460.96929931640625
v 153.39926147460938 -187.54441833496094 463.570556640625
v 153.92001342773438 -192.77359008789062 465.656005859375
v 143.9239044189453 -203.41329956054688 463.279541015625
v 149.93893432617188 -184.70404052734375 465.30560302734375
v 154.2669677734375 -182.82237243652344 471.4666442871094
v 144.07766723632812 -196.93377685546875 467.8900451660156
v 152.38368225097656 -193.3240966796875 468.918212890625
v 144.91909790039062 -203.29617309570312 464.614013671875
v 146.3896026611328 -203.29588317871094 464.5223083496094
v 152.7506561279297 -181.26051330566406 469.7770690917969
v 153.64035034179688 -181.6181182861328 470.277587890625
v 144.5447998046875 -191.1109619140625 469.5871276855469
v 149.36708068847656 -199.04188537597656 466.36517333984375
v 146.9602813720703 -198.32745361328125 470.0643310546875
v 144.71141052246094 -200.794677734375 468.5130920410156
v 150.71994018554688 -182.13748168945312 468.4568786621094
v 149.09471130371094 -194.79017639160156 472.7330017089844
v 147.88876342773438 -182.09458923339844 470.169189453125
v 145.69515991210938 -183.8495330810547 471.3170471191406
v 154.0210418701172 -185.33871459960938 472.69970703125
v 144.00564575195312 -193.5261993408203 474.1018981933594
v 145.25662231445312 -198.48207092285156 470.8893737792969
v 151.0469970703125 -174.86134338378906 473.03662109375
v 153.39791870117188 -176.42520141601562 473.29620361328125
v 150.5146484375 -179.88616943359375 470.36639404296875
v 148.2203369140625 -177.4182586669922 472.7651062011719
v 146.1447296142578 -180.87872314453125 473.00518798828125
v 144.0009765625 -183.510498046875 476.1792907714844
v 143.84982299804688 -184.04136657714844 477.6352233886719
v 151.79505920410156 -171.0336151123047 476.8970031738281
v 154.06509399414062 -179.8541259765625 475.986083984375
v 150.9237060546875 -190.6392822265625 474.0343933105469
v 145.8418731689453 -195.0236053466797 475.459228515625
v 144.67367553710938 -195.2642364501953 475.1601257324219
v 150.68896484375 -168.743408203125 478.11175537109375
v 153.99539184570312 -177.01702880859375 475.51068115234375
v 152.7340545654297 -172.54641723632812 478.7259521484375
v 148.2958221435547 -171.20628356933594 476.91558837890625
v 145.75601196289062 -174.5863037109375 477.29827880859375
v 144.06617736816406 -179.4972686767578 477.62786865234375
v 153.02304077148438 -181.214599609375 477.7900390625
v 149.08123779296875 -191.56382751464844 475.48095703125
v 150.5624237060547 -165.11056518554688 480.10186767578125
v 148.85227966308594 -167.2144012451172 478.4466857910156
v 146.70233154296875 -166.96177673339844 480.2183532714844
v 149.96470642089844 -183.11605834960938 480.290283203125
v 146.24159240722656 -188.56065368652344 479.2147216796875
v 146.19515991210938 -191.21514892578125 477.3765869140625
v 144.50421142578125 -190.50732421875 477.3734436035156
v 151.76068115234375 -167.1915283203125 481.22601318359375
v 144.276611328125 -169.1583251953125 482.1185302734375
v 152.00840759277344 -171.66793823242188 482.19378662109375
v 151.03121948242188 -173.51992797851562 484.02044677734375
v 143.18081665039062 -179.9993133544922 481.08453369140625
v 145.4366455078125 -184.84686279296875 480.7949523925781
v 144.3896484375 -184.63075256347656 479.8999328613281
v 148.61892700195312 -161.1618194580078 482.1983337402344
v 150.37344360351562 -161.4888916015625 483.1182556152344
v 149.32537841796875 -164.17506408691406 480.6124572753906
v 146.68960571289062 -160.75392150878906 482.85675048828125
v 142.59487915039062 -176.45257568359375 482.4350280761719
v 149.56246948242188 -179.7318878173828 483.6604919433594
v 146.54591369628906 -181.06285095214844 485.2994079589844
v 147.32125854492188 -184.40362548828125 481.0291748046875
v 148.72915649414062 -158.05453491210938 485.3798828125
v 143.65928649902344 -159.37010192871094 486.5013427734375
v 150.89183044433594 -162.0486602783203 485.61187744140625
v 149.34439086914062 -174.21900939941406 486.2287902832031
v 143.05560302734375 -179.30392456054688 483.9029541015625
v 146.77072143554688 -155.8079071044922 486.2452697753906
v 145.1298065185547 -157.7809600830078 485.5816650390625
v 149.69161987304688 -158.73915100097656 487.950927734375
v 142.1195068359375 -170.16116333007812 487.0609436035156
v 141.98158264160156 -171.5601348876953 490.4978942871094
v 143.3011474609375 -175.79501342773438 488.7040100097656
v 144.0432586669922 -152.9892578125 488.11517333984375
v 146.8951416015625 -152.75152587890625 488.5210266113281
v 148.4444580078125 -155.3186492919922 489.16241455078125
v 142.44479370117188 -155.2827606201172 489.1113586425781
v 150.02090454101562 -163.75143432617188 488.7270812988281
v 141.43072509765625 -159.27496337890625 490.6225280761719
v 147.063720703125 -167.54949951171875 492.3747253417969
v 147.1904296875 -173.86834716796875 488.93914794921875
v 145.13987731933594 -177.888916015625 487.34735107421875
v 144.94381713867188 -174.3542938232422 490.4415588378906
v 146.02880859375 -148.09274291992188 493.07574462890625
v 147.62608337402344 -151.97314453125 490.73040771484375
v 145.9271240234375 -162.58074951171875 496.5340270996094
v 140.3306884765625 -161.43499755859375 494.7783508300781
v 143.6909942626953 -150.42022705078125 491.4499816894531
v 141.24021911621094 -151.25668334960938 493.1214904785156
v 142.91246032714844 -147.88221740722656 493.5381774902344
v 148.1900177001953 -157.7799072265625 492.3443908691406
v 145.28976440429688 -156.9439697265625 498.6454772949219
v 144.62921142578125 -169.8807373046875 493.09539794921875
v 143.12200927734375 -171.1494140625 492.3307189941406
v 144.607421875 -143.9539031982422 495.893310546875
v 145.50506591796875 -147.37965393066406 494.12176513671875
v 145.0236053466797 -147.04322814941406 493.8134765625
v 143.34161376953125 -144.22874450683594 494.5691833496094
v 142.12982177734375 -143.56643676757812 495.2906799316406
v 141.82516479492188 -147.15481567382812 495.1167297363281
v 146.89181518554688 -151.347900390625 494.94219970703125
v 144.46331787109375 -148.01626586914062 494.78125
v 140.65005493164062 -162.2965850830078 497.1461486816406
v 141.94146728515625 -166.72752380371094 496.6041259765625
v 143.33595275878906 -165.97970581054688 497.6288146972656
v 142.9443359375 -141.4378204345703 496.7978820800781
v 141.11480712890625 -138.9425506591797 498.6894226074219
v 142.5013885498047 -143.9866943359375 495.2463684082031
v 144.57901000976562 -146.5718231201172 496.3099060058594
v 143.46900939941406 -146.53854370117188 495.21978759765625
v 143.05992126464844 -146.6910858154297 495.843505859375
v 138.57400512695312 -152.27479553222656 497.8353576660156
v 138.48289489746094 -155.3160400390625 499.4955749511719
v 139.77975463867188 -139.8606719970703 498.3017883300781
v 143.18212890625 -140.28131103515625 499.8016662597656
v 141.00875854492188 -144.40347290039062 497.8912048339844
v 144.65782165527344 -145.30589294433594 499.9938659667969
v 138.21804809570312 -145.7024383544922 499.9231872558594
v 140.2121124267578 -147.60003662109375 497.12738037109375
v 145.50811767578125 -149.1223602294922 496.3171081542969
v 143.63577270507812 -149.9983367919922 503.4822692871094
v 138.82516479492188 -135.8063507080078 502.7466125488281
v 144.94754028320312 -149.13967895507812 499.8429870605469
v 137.54388427734375 -149.7393798828125 501.3232421875
v 142.78884887695312 -154.8642578125 502.6759033203125
v 143.16317749023438 -161.6914520263672 499.01654052734375
v 141.7599639892578 -162.3373565673828 498.6254577636719
v 141.08355712890625 -135.9727020263672 504.0857238769531
v 140.17181396484375 -135.39852905273438 503.2928466796875
v 137.9691162109375 -137.49017333984375 502.66522216796875
v 142.6364288330078 -139.5161895751953 505.69500732421875
v 139.22955322265625 -155.5304718017578 502.89569091796875
v 137.5716552734375 -151.1968231201172 504.2684631347656
v 141.10540771484375 -156.6937255859375 502.7095031738281
v 136.5880889892578 -133.73541259765625 504.32940673828125
v 134.48794555664062 -136.63563537597656 507.2523193359375
v 140.43228149414062 -133.51483154296875 509.8501892089844
v 136.42620849609375 -141.17906188964844 505.2958984375
v 135.8533935546875 -143.2515411376953 507.3119812011719
v 135.92213439941406 -128.1908721923828 506.0438537597656
v 138.09994506835938 -131.1869354248047 505.6515197753906
v 134.49313354492188 -131.4595489501953 506.8565673828125
v 139.0460968017578 -130.30233764648438 508.33673095703125
v 141.63563537597656 -139.5612030029297 510.4809265136719
v 142.04722595214844 -145.01800537109375 508.6776428222656
v 136.15036010742188 -145.52999877929688 508.9712219238281
v 141.20489501953125 -149.7352752685547 506.9860534667969
v 139.0987548828125 -150.8406219482422 506.80377197265625
v 136.515869140625 -126.51875305175781 508.5995788574219
v 134.3548583984375 -140.58901977539062 510.64349365234375
v 140.6160430908203 -147.7770233154297 509.4580383300781
v 137.6285400390625 -148.4864501953125 509.47802734375
v 134.6533203125 -123.33309936523438 510.85491943359375
v 134.87600708007812 -126.7615966796875 508.42767333984375
v 132.88653564453125 -126.17805480957031 511.2008361816406
v 131.83229064941406 -128.48117065429688 513.1504516601562
v 140.31492614746094 -133.70314025878906 511.86810302734375
v 136.85317993164062 -145.8939208984375 510.70208740234375
v 133.39987182617188 -117.36424255371094 512.8710327148438
v 136.30917358398438 -123.54426574707031 512.431640625
v 132.36203002929688 -119.26438903808594 511.9358825683594
v 132.26870727539062 -133.28028869628906 513.5861206054688
v 132.786376953125 -136.07232666015625 515.0950927734375
v 134.38235473632812 -140.87391662597656 513.2421875
v 140.19741821289062 -142.37335205078125 512.662109375
v 138.8715057373047 -145.59750366210938 511.5050048828125
v 137.4109344482422 -143.2207489013672 514.0147094726562
v 130.70928955078125 -116.5301513671875 514.4268188476562
v 132.24169921875 -115.71882629394531 514.147216796875
v 134.44891357421875 -116.78273010253906 515.8828735351562
v 130.27670288085938 -120.53242492675781 514.263427734375
v 138.20068359375 -127.93157958984375 515.6701049804688
v 139.55532836914062 -134.27816772460938 515.3720092773438
v 139.98968505859375 -137.24842834472656 514.498291015625
v 137.7237548828125 -137.4480743408203 517.1868286132812
v 136.01083374023438 -143.32508850097656 513.5350341796875
v 131.89224243164062 -112.38395690917969 517.9944458007812
v 130.06845092773438 -110.48521423339844 518.1101684570312
v 129.48681640625 -113.39051818847656 516.9332275390625
v 136.3009033203125 -121.68046569824219 516.20458984375
v 130.2967987060547 -127.25982666015625 516.7669677734375
v 138.6885223388672 -131.05628967285156 517.5681762695312
v 131.21212768554688 -131.96510314941406 518.3798217773438
v 133.03683471679688 -136.37037658691406 516.9257202148438
v 134.56837463378906 -137.98789978027344 517.0839233398438
v 128.07652282714844 -113.26173400878906 518.598876953125
v 128.06951904296875 -119.91012573242188 519.3941650390625
v 137.15335083007812 -125.69429016113281 519.6342163085938
v 129.6343994140625 -127.13203430175781 520.6703491210938
v 137.85130310058594 -132.8053436279297 520.1954345703125
v 136.8217010498047 -133.74462890625 521.3135375976562
v 136.0191650390625 -137.90016174316406 517.7435302734375
v 129.06629943847656 -106.22866821289062 521.7643432617188
v 128.74949645996094 -109.00936889648438 519.0872802734375
v 126.92874145507812 -103.98353576660156 521.7789916992188
v 126.39295959472656 -114.83595275878906 522.14453125
v 133.83316040039062 -114.98942565917969 520.4535522460938
v 134.59344482421875 -118.16421508789062 523.1773071289062
v 128.0124969482422 -122.853515625 522.6263427734375
v 136.31103515625 -126.79461669921875 523.1063842773438
v 133.96795654296875 -135.3166046142578 520.371826171875
v 131.88809204101562 -131.5260772705078 522.0794677734375
v 135.3090362548828 -134.31361389160156 521.621337890625
v 125.60916137695312 -105.40939331054688 521.988525390625
v 130.36195373535156 -107.83085632324219 523.1917724609375
v 131.927001953125 -111.00555419921875 524.39208984375
v 124.9777603149414 -108.9532470703125 523.0305786132812
v 125.92208862304688 -116.70985412597656 525.3967895507812
v 127.30445861816406 -101.313232421875 525.2890625
v 124.79830169677734 -100.56913757324219 524.51123046875
v 123.56787109375 -108.60740661621094 525.8912963867188
v 131.98281860351562 -113.01506042480469 528.2315673828125
v 135.04319763183594 -121.699951171875 524.6075439453125
v 130.108154296875 -127.60287475585938 523.0444946289062
v 127.50439453125 -120.76315307617188 527.3069458007812
v 135.45640563964844 -130.162109375 523.63134765625
v 132.99525451660156 -128.46438598632812 525.0859375
v 123.52506256103516 -96.72148132324219 528.835205078125
v 121.89889526367188 -102.09568786621094 527.0025024414062
v 122.32670593261719 -98.16055297851562 527.2854614257812
v 128.55648803710938 -103.78022766113281 527.596923828125
v 123.71879577636719 -110.89431762695312 528.1837768554688
v 132.74264526367188 -118.31329345703125 527.9425659179688
v 133.75064086914062 -122.74473571777344 527.2676391601562
v 126.49280548095703 -118.71615600585938 526.9152221679688
v 133.91812133789062 -127.20135498046875 525.7084350585938
v 130.3318328857422 -125.50743103027344 526.436279296875
v 119.82281494140625 -96.12509155273438 530.3367309570312
v 121.98310089111328 -106.09217834472656 528.39111328125
v 132.31704711914062 -123.45426940917969 528.2190551757812
v 129.7574462890625 -119.90821838378906 530.0455932617188
v 128.38803100585938 -120.64266967773438 528.9401245117188
v 120.20956420898438 -92.75001525878906 531.2120971679688
v 121.46207427978516 -95.92941284179688 529.3705444335938
v 124.91880798339844 -97.40676879882812 530.4421997070312
v 120.38168334960938 -101.96006774902344 530.3660278320312
v 128.76040649414062 -105.26837158203125 529.6866455078125
v 122.26653289794922 -107.39936828613281 531.0667724609375
v 130.832275390625 -113.222900390625 531.1481323242188
v 126.37095642089844 -117.23147583007812 530.6392822265625
v 129.92413330078125 -116.44406127929688 532.142333984375
v 131.44712829589844 -121.11732482910156 528.9976196289062
v 119.10946655273438 -90.91203308105469 532.9037475585938
v 122.51824188232422 -93.99063110351562 533.145751953125
v 119.02070617675781 -96.83050537109375 532.0906982421875
v 124.44246673583984 -97.6439208984375 532.6892700195312
v 126.72651672363281 -103.77871704101562 533.1956176757812
v 120.63008117675781 -102.69642639160156 532.97802734375
v 128.10696411132812 -106.67259216308594 531.8297729492188
v 124.91478729248047 -111.26506042480469 532.1048583984375
v 127.65701293945312 -118.02459716796875 531.8554077148438
v 119.47953796386719 -96.00140380859375 533.7716064453125
v 123.3238525390625 -99.67376708984375 534.4578247070312
v 124.3611068725586 -103.92971801757812 534.5739135742188
v 122.60075378417969 -101.3111572265625 534.6932983398438
v 126.52670288085938 -107.02333068847656 533.180908203125
v 122.49819946289062 -106.05369567871094 534.1340942382812
v 124.31842803955078 -107.79646301269531 533.4273071289062
v 127.98331451416016 -111.66169738769531 533.0772705078125
v 127.4262466430664 -114.1650390625 532.8162231445312
v 120.32355499267578 -94.16261291503906 534.1437377929688
vn -0.2480727881193161 0.20078597962856293 -0.947705090045929
vn 0.0026119467802345753 0.6504132151603699 -0.7595760822296143
vn 0.26838213205337524 0.4416191577911377 -0.8561212420463562
vn -0.5226054787635803 0.5642298460006714 -0.6391621232032776
vn -0.6730642914772034 -0.13665270805358887 -0.7268497347831726
vn 0.5811305046081543 0.0391719825565815 -0.8128671050071716
vn -0.47287607192993164 -0.33873623609542847 -0.8134163022041321
vn 0.9354150295257568 -0.18120329082012177 -0.3035854995250702
vn 0.12755374610424042 -0.4663079082965851 -0.8753782510757446
vn 0.6052384376525879 0.4667019248008728 -0.6448843479156494
vn -0.8657090067863464 0.31466588377952576 -0.3892728388309479
vn 0.8878374695777893 -0.4379350244998932 -0.14127153158187866
vn -0.19823001325130463 -0.7048313021659851 -0.6811150908470154
vn 0.3542923331260681 0.5803033113479614 -0.7332974076271057
vn -0.3534869849681854 0.6525319218635559 -0.670260488986969
vn 0.8866811990737915 0.21731826663017273 -0.40812909603118896
vn 0.97493577003479 0.0047003948129713535 -0.22243690490722656
vn -0.6427608132362366 -0.4437088072299957 -0.624484658241272
vn 0.2597963809967041 -0.9502045512199402 -0.17209669947624207
vn -0.3548082411289215 0.6625556349754333 -0.6596447825431824
vn 0.7330317497253418 0.4059535562992096 -0.5457712411880493
vn -0.7622368931770325 0.5415722131729126 -0.35453423857688904
vn -0.9663071036338806 0.2327815145254135 -0.1098337471485138
vn -0.8331980109214783 -0.29228922724723816 -0.46941256523132324
vn 0.972539484500885 -0.22197742760181427 0.06995022296905518
vn -0.6376889944076538 -0.5575941205024719 -0.5314524173736572
vn 0.42642438411712646 0.6345139145851135 -0.6446350812911987
vn -0.12145280838012695 0.7927817702293396 -0.5972825288772583
vn -0.8990232348442078 0.42159661650657654 -0.11837919056415558
vn 0.9886859655380249 -0.04871496558189392 -0.1418692171573639
vn -0.9868283271789551 -0.0359138585627079 0.15773434937000275
vn 0.8936853408813477 -0.3518700897693634 0.2784132957458496
vn -0.8180778622627258 -0.5481657385826111 -0.17396289110183716
vn -0.9286861419677734 -0.36899688839912415 -0.03719353303313255
vn 0.7149994373321533 -0.5571494102478027 0.42232745885849
vn -0.7447903752326965 0.5760529637336731 -0.33682379126548767
vn -0.9588589072227478 0.21352319419384003 0.1870761662721634
vn -0.8460690379142761 -0.28328263759613037 0.451572984457016
vn -0.2921448349952698 -0.9431524872779846 0.158476322889328
vn 0.5974845290184021 0.5648746490478516 -0.5691475868225098
vn 0.8653347492218018 0.28675833344459534 -0.4110540747642517
vn -0.9791576862335205 0.20192132890224457 -0.02186327427625656
vn 0.923344075679779 -0.3444296717643738 0.16971740126609802
vn 0.7863675951957703 -0.3972281813621521 0.47311297059059143
vn -0.8783615827560425 -0.03329348564147949 0.4768359363079071
vn -0.5319744348526001 -0.2968434691429138 0.7930240631103516
vn 0.5684040188789368 -0.4864513874053955 0.6635374426841736
vn -0.1556120663881302 -0.5615991353988647 0.8126446604728699
vn 0.1893903911113739 0.749958872795105 -0.6337925791740417
vn -0.4534915089607239 0.7276598811149597 -0.5146422386169434
vn 0.923102617263794 0.16896064579486847 -0.3454473614692688
vn -0.9084665179252625 0.3781237006187439 -0.17807628214359283
vn -0.9385795593261719 -0.20738908648490906 0.2757865786552429
vn 0.0298855472356081 -0.4554908573627472 0.8897387385368347
vn -0.8152605891227722 0.4812861382961273 -0.3220464587211609
vn 0.9835487604141235 -0.17443150281906128 -0.04696393385529518
vn 0.5829530954360962 -0.6713029742240906 0.4577313959598541
vn 0.7623410224914551 -0.47598743438720703 0.4384884536266327
vn -0.6516150236129761 -0.3334619402885437 0.6813229918479919
vn 0.0789334774017334 -0.4643525779247284 0.882125973701477
vn -0.3742232620716095 0.725610613822937 -0.5774481296539307
vn 0.7335682511329651 0.43415388464927673 -0.5228652358055115
vn -0.9988139867782593 0.04728114977478981 0.011625540442764759
vn 0.8589500188827515 -0.4547536373138428 0.2353806048631668
vn 0.42976507544517517 -0.5635719299316406 0.7054705619812012
vn -0.15032711625099182 -0.5802624225616455 0.8004356622695923
vn 0.2670067548751831 0.6276857256889343 -0.7312442064285278
vn 0.9730015993118286 0.06762610375881195 -0.22066858410835266
vn 0.8883822560310364 0.2234584242105484 -0.401052862405777
vn 0.015441002324223518 -0.8026109337806702 0.5963029861450195
vn -0.5313246250152588 -0.6679294109344482 0.5211184620857239
vn -0.4448491334915161 0.6524922251701355 -0.6134845018386841
vn -0.9489048719406128 0.2955997586250305 -0.11045532673597336
vn 0.9706832766532898 -0.21371017396450043 0.11000897735357285
vn 0.5948227643966675 -0.6930025219917297 0.40734928846359253
vn -0.6133350729942322 -0.6679286956787109 0.42153453826904297
vn -0.06676211208105087 0.687367856502533 -0.7232345938682556
vn 0.6681695580482483 0.45080727338790894 -0.5918803811073303
vn 0.9812734127044678 -0.17996381223201752 0.06866960972547531
vn -0.2500135898590088 -0.8158422112464905 0.5214352607727051
vn 0.2714843451976776 -0.8420451283454895 0.4661075472831726
vn 0.37805280089378357 0.6352096199989319 -0.6734870672225952
vn -0.6415383815765381 0.5804657936096191 -0.5014857649803162
vn 0.9327086806297302 -0.25660842657089233 0.25339052081108093
vn -0.26228857040405273 0.7115321755409241 -0.6518639922142029
vn 0.8763293027877808 0.270426869392395 -0.39864304661750793
vn 0.9810031056404114 0.014832645654678345 -0.1934240758419037
vn -0.8739439249038696 0.39825811982154846 -0.27859026193618774
vn 0.719224214553833 -0.5471939444541931 0.4281301498413086
vn -0.988588273525238 0.11175166070461273 0.10101895034313202
vn -0.8525065779685974 -0.3468908965587616 0.39102351665496826
vn 0.5969628691673279 0.5257505774497986 -0.6059881448745728
vn -0.9485862851142883 0.29115113615989685 -0.1241576075553894
vn 0.09366146475076675 -0.7776212692260742 0.621717631816864
vn 0.1883106380701065 0.6746079325675964 -0.7137529253959656
vn -0.3981254994869232 0.6623884439468384 -0.6346161365509033
vn -0.7387373447418213 0.5106950998306274 -0.4398382306098938
vn 0.9936029314994812 -0.08642962574958801 -0.07268505543470383
vn 0.8187972903251648 -0.3806459903717041 0.4297436475753784
vn -0.7593570351600647 -0.3765501081943512 0.5306476950645447
vn -0.42662718892097473 -0.6599540710449219 0.6184254288673401
vn 0.7941661477088928 0.3447531461715698 -0.5004451870918274
vn 0.9862552881240845 -0.05432415008544922 -0.15604303777217865
vn 0.8785347938537598 -0.35433855652809143 0.32034486532211304
vn -0.3821113407611847 0.6238242387771606 -0.6817876100540161
vn 0.3459925949573517 0.6087390184402466 -0.7139509320259094
vn -0.9449708461761475 0.29561710357666016 -0.14014524221420288
vn 0.7923955321311951 -0.4917324185371399 0.3609829246997833
vn -0.9843541979789734 0.020365141332149506 0.1750202775001526
vn 0.5227845311164856 -0.513339102268219 0.6805728673934937
vn 0.43826937675476074 -0.6205748915672302 0.6502360105514526
vn -0.003702648216858506 -0.629464328289032 0.7770206332206726
vn -0.6631243824958801 -0.3875240683555603 0.6403836607933044
vn -0.14070959389209747 -0.6719909310340881 0.7270687222480774
vn -0.2839432954788208 0.6937355399131775 -0.6618967056274414
vn 0.9173998236656189 0.17994017899036407 -0.3549635708332062
vn 0.9056509137153625 -0.37257471680641174 0.2024463266134262
vn -0.9251108169555664 0.3117489516735077 -0.2167547345161438
vn -0.9858300685882568 0.1008937731385231 0.13401339948177338
vn 0.6144737005233765 -0.522548258304596 0.5910714268684387
vn -0.7831361889839172 -0.3219309151172638 0.5320322513580322
vn 0.6164771318435669 0.5669257640838623 -0.5463983416557312
vn -0.7794436812400818 0.4704437255859375 -0.4137030839920044
vn 0.9912238717079163 -0.1321822553873062 -0.0017852515447884798
vn -0.9818103909492493 0.18967074155807495 0.008569673635065556
vn 0.371247261762619 -0.5068902969360352 0.7779703140258789
vn 0.03874170035123825 0.7473998069763184 -0.6632440090179443
vn -0.19592811167240143 0.7478957772254944 -0.6342430114746094
vn -0.5463705658912659 0.6267601251602173 -0.5555636286735535
vn 0.3751929700374603 -0.6112280488014221 0.6968719959259033
vn -0.033095043152570724 -0.5953916311264038 0.8027536869049072
vn -0.33788853883743286 -0.5742286443710327 0.7457163333892822
vn 0.6997005343437195 0.5312743782997131 -0.47766807675361633
vn 0.922031044960022 -0.31037452816963196 0.23135773837566376
vn -0.9083490967750549 -0.23551678657531738 0.3455919921398163
vn -0.2219540923833847 0.7577389478683472 -0.6136513948440552
vn 0.9813529849052429 0.13291548192501068 -0.1388520896434784
vn -0.9897598624229431 0.12490379810333252 -0.06909800320863724
vn 0.8091978430747986 -0.4446236789226532 0.3840685486793518
vn -0.2164350301027298 -0.7003517746925354 0.6801936030387878
vn 0.38352736830711365 -0.6833643913269043 0.621224582195282
vn 0.3015548884868622 0.6306596994400024 -0.7150756120681763
vn 0.7896912097930908 0.39318031072616577 -0.4709532558917999
vn -0.9773386120796204 0.13487786054611206 -0.16314776241779327
vn 0.6158562898635864 -0.6132932305335999 0.49456286430358887
vn 0.39775004982948303 -0.727741003036499 0.5587378740310669
vn -0.21598368883132935 -0.7742235660552979 0.5949192643165588
vn -0.11778957396745682 0.715375542640686 -0.6887405514717102
vn 0.6384095549583435 -0.5796054601669312 0.5064491629600525
vn -0.5183932185173035 0.622983992099762 -0.5857981443405151
vn -0.8067190051078796 0.39241379499435425 -0.44183245301246643
vn 0.9396907091140747 -0.21925346553325653 0.2625059187412262
vn -0.9878068566322327 -0.09746694564819336 0.12139976769685745
vn 0.37689152359962463 -0.7101376056671143 0.5946910381317139
vn 0.0631655901670456 0.5726596713066101 -0.8173561096191406
vn 0.7945719957351685 0.408047080039978 -0.4496142566204071
vn -0.27359357476234436 0.5383071303367615 -0.7971022725105286
vn -0.5358805060386658 0.4174642264842987 -0.7338635325431824
vn -0.689247727394104 0.40559300780296326 -0.6003598570823669
vn -0.9659825563430786 0.11288301646709442 -0.23266977071762085
vn -0.9950094223022461 -0.0883847028017044 0.04630766063928604
vn 0.7203639149665833 0.5068196058273315 -0.47350800037384033
vn 0.9631673693656921 -0.0647452101111412 0.26099181175231934
vn 0.7473488450050354 -0.41688379645347595 0.5173757672309875
vn 0.302583783864975 -0.6292190551757812 0.7159095406532288
vn -0.25230348110198975 -0.6430163383483887 0.7230995893478394
vn 0.38175687193870544 0.5240570306777954 -0.7613317370414734
vn 0.9862133860588074 0.1648717224597931 0.014161975122988224
vn 0.9644129276275635 0.26105645298957825 -0.04192034900188446
vn -0.4070299565792084 0.45433786511421204 -0.7924038171768188
vn -0.7310618162155151 0.332419216632843 -0.5958574414253235
vn -0.9030572175979614 0.18271037936210632 -0.3887217342853546
vn 0.820794939994812 -0.29721736907958984 0.48780882358551025
vn 0.5524600148200989 -0.47938865423202515 0.6818903684616089
vn 0.49840018153190613 0.503045380115509 -0.7060754895210266
vn -0.1308150440454483 0.4933721721172333 -0.8599252104759216
vn -0.5517416596412659 0.3708285391330719 -0.7470390200614929
vn 0.5907092094421387 -0.4873690605163574 0.6430661678314209
vn 0.12498445808887482 -0.503168523311615 0.8551025390625
vn 0.07035260647535324 -0.49781906604766846 0.8644227981567383
vn -0.6944188475608826 -0.3376724123954773 0.6354210376739502
vn 0.9362577199935913 0.28520458936691284 -0.20513369143009186
vn -0.8493961691856384 0.20431724190711975 -0.4866010844707489
vn 0.9665235877037048 0.03325827419757843 0.25441333651542664
vn 0.8517302870750427 -0.1784057766199112 0.49267327785491943
vn -0.9894925951957703 -0.12317033857107162 -0.0757203996181488
vn -0.40540727972984314 -0.5645856261253357 0.7189492583274841
vn -0.8798602223396301 -0.32560276985168457 0.3461630046367645
vn 0.07009534537792206 0.5627009272575378 -0.8236833810806274
vn 0.731860876083374 0.5136800408363342 -0.44778624176979065
vn -0.008259008638560772 0.5669785141944885 -0.823691189289093
vn -0.31547489762306213 0.4887947738170624 -0.8133605122566223
vn -0.98365318775177 -0.004280382767319679 -0.18002267181873322
vn 0.7135323286056519 -0.35666945576667786 0.6030410528182983
vn 0.2404198944568634 -0.6169084906578064 0.7494146227836609
vn 0.26180967688560486 -0.59302818775177 0.7614284753799438
vn 0.53992760181427 0.6405777931213379 -0.5460203886032104
vn -0.7561612725257874 0.2036079615354538 -0.6219035387039185
vn 0.978681206703186 0.18116164207458496 0.09676556289196014
vn 0.7704931497573853 -0.25770464539527893 0.5830339789390564
vn -0.8969520926475525 -0.3699200749397278 0.24214889109134674
vn 0.22424089908599854 0.5809168219566345 -0.7824651598930359
vn -0.48464369773864746 0.3746578097343445 -0.7904125452041626
vn 0.9481235146522522 0.3106399178504944 0.06756296008825302
vn -0.972632110118866 0.02523544430732727 -0.2309764176607132
vn -0.9300273060798645 -0.3042944073677063 0.20604416728019714
vn -0.4755555987358093 -0.5877176523208618 0.6545493602752686
vn -0.4245542883872986 0.519822895526886 -0.7413082122802734
vn 0.5323787927627563 0.5680459141731262 -0.6276119351387024
vn 0.9181751608848572 0.3644999861717224 -0.1552230417728424
vn -0.839303195476532 0.165876105427742 -0.5177405476570129
vn 0.9239715337753296 -0.007265043444931507 0.3823922574520111
vn -0.9211969375610352 0.04574961215257645 -0.38639774918556213
vn 0.7066575884819031 -0.34782928228378296 0.6161573529243469
vn 0.5748505592346191 -0.4006432890892029 0.7134647369384766
vn 0.15063799917697906 -0.5716469287872314 0.8065531253814697
vn 0.13723032176494598 -0.5802801847457886 0.8027719855308533
vn 0.13823091983795166 0.7976008653640747 -0.58713299036026
vn 0.9124535322189331 0.37936267256736755 -0.153337761759758
vn 0.7518304586410522 -0.2231546938419342 0.6204457879066467
vn -0.9821488261222839 -0.13204602897167206 -0.13396890461444855
vn -0.31982284784317017 0.7007734775543213 -0.6376753449440002
vn -0.7451468110084534 0.3650824725627899 -0.5580958724021912
vn -0.22360341250896454 0.3746875524520874 -0.899783730506897
vn 0.9424329400062561 0.07980894297361374 0.32473182678222656
vn 0.8176085352897644 -0.1468999832868576 0.5567196607589722
vn 0.4230930507183075 -0.5139416456222534 0.7462280988693237
vn -0.25921088457107544 -0.6444438695907593 0.7193759679794312
vn 0.7345877289772034 0.6765336394309998 -0.05179830640554428
vn -0.8515694737434387 0.45616310834884644 0.2583499848842621
vn -0.40938887000083923 -0.8855619430541992 -0.21950143575668335
vn 0.2647189497947693 0.7342274785041809 -0.625167191028595
vn -0.9223291873931885 0.31488561630249023 -0.22395524382591248
vn -0.7209656238555908 0.6632930040359497 -0.20062664151191711
vn 0.9438861012458801 0.24106323719024658 0.2257601022720337
vn 0.3130122125148773 0.8593869805335999 -0.4043234884738922
vn -0.9007391333580017 -0.3422439396381378 0.26746615767478943
vn -0.606968879699707 -0.5066040754318237 0.6123243570327759
vn 0.25196346640586853 -0.5098397731781006 0.8225435614585876
vn 0.566525399684906 0.8007526397705078 0.19453582167625427
vn 0.2408343255519867 0.7394485473632812 -0.6286610960960388
vn -0.8009747862815857 -0.1996009200811386 0.5644456148147583
vn 0.6608365774154663 0.689501941204071 -0.29644933342933655
vn 0.09343589097261429 0.7429782748222351 0.6627616286277771
vn -0.42815589904785156 0.80103999376297 -0.4183509945869446
vn -0.9205823540687561 0.05474470183253288 -0.38669252395629883
vn -0.9712193608283997 -0.23671896755695343 -0.026402976363897324
vn -0.6577815413475037 0.2805367708206177 -0.6990154385566711
vn 0.8503773212432861 0.5073372721672058 -0.13952554762363434
vn -0.7319671511650085 -0.0846080332994461 -0.6760662794113159
vn 0.9862544536590576 0.14031340181827545 0.0872601643204689
vn -0.8573132157325745 0.09130138903856277 -0.5066341757774353
vn -0.6953902244567871 0.42795830965042114 -0.5773076415061951
vn 0.8217190504074097 0.5346031188964844 0.1974267214536667
vn 0.8789154291152954 -0.12032834440469742 0.4615504741668701
vn -0.24454782903194427 0.5705202221870422 -0.784030020236969
vn 0.9666377305984497 0.1329585760831833 0.2189372032880783
vn -0.9797882437705994 -0.08499295264482498 -0.18108361959457397
vn 0.6648537516593933 -0.3272898495197296 0.6714543104171753
vn 0.41755086183547974 -0.3595963418483734 0.8344709873199463
vn -0.3912641704082489 -0.4843158423900604 0.7825283408164978
vn 0.776925265789032 0.5693839192390442 -0.2686803638935089
vn 0.4877321720123291 0.6680092215538025 -0.56203293800354
vn -0.7914507985115051 0.13159260153770447 -0.5968995690345764
vn 0.9633036255836487 0.24092163145542145 0.118333600461483
vn -0.6835187673568726 -0.5256145000457764 0.5064893960952759
vn -0.8856070041656494 -0.4159463346004486 0.20661281049251556
vn 0.10742007941007614 -0.5572835803031921 0.823344349861145
vn -0.4763440191745758 0.21196937561035156 -0.8533260822296143
vn -0.8918603658676147 -0.10525413602590561 -0.4398939907550812
vn 0.9313086867332458 0.363593190908432 0.02154568023979664
vn -0.9151881337165833 -0.0694190114736557 -0.39700350165367126
vn -0.9617723822593689 -0.10486675053834915 -0.2529761791229248
vn 0.01698719896376133 0.5870832204818726 -0.8093483448028564
vn 0.36997658014297485 0.5479589104652405 -0.7502389550209045
vn -0.8323532938957214 0.10539298504590988 -0.544132649898529
vn 0.8155406713485718 0.5018171072006226 -0.28822389245033264
vn 0.9488230347633362 0.03987914323806763 0.31328028440475464
vn 0.8739138841629028 -0.18142852187156677 0.4509526193141937
vn -0.9466833472251892 -0.3147886097431183 0.06854808330535889
vn 0.6007095575332642 -0.44879183173179626 0.6616145968437195
vn -0.15881653130054474 -0.6916323900222778 0.7045722603797913
vn 0.4259302020072937 0.6840211153030396 -0.5921980738639832
vn -0.9521809816360474 -0.27622565627098083 -0.13057845830917358
vn 0.47368597984313965 -0.539116382598877 0.6964015960693359
vn -0.4288957417011261 -0.6507980823516846 0.626506507396698
vn 0.07591459900140762 0.47742319107055664 -0.875387966632843
vn -0.5280803442001343 0.5103111267089844 -0.678758978843689
vn -0.7443264126777649 0.12278427183628082 -0.6564313769340515
vn -0.9185795783996582 -0.08092343062162399 -0.386863112449646
vn 0.9602888822555542 0.22241713106632233 0.16845156252384186
vn -0.6528571844100952 -0.6026620268821716 0.45888569951057434
vn 0.477483868598938 0.5453929901123047 -0.6888800263404846
vn 0.8320698738098145 0.44646406173706055 -0.32913458347320557
vn -0.4050907492637634 0.2804706394672394 -0.8701940774917603
vn -0.9588819146156311 -0.18923316895961761 -0.21150970458984375
vn -0.950819194316864 -0.30856844782829285 -0.026989828795194626
vn -0.8700032830238342 -0.45517218112945557 0.1895061433315277
vn 0.7003539800643921 -0.29960983991622925 0.6478720903396606
vn 0.13267578184604645 -0.5832875370979309 0.801356852054596
vn 0.08404986560344696 -0.6222078800201416 0.7783271074295044
vn -0.6177093982696533 0.30609583854675293 -0.7243897914886475
vn 0.0039736079052090645 0.6222753524780273 -0.7827883958816528
vn 0.8660802841186523 0.4632457196712494 -0.18790562450885773
vn -0.8412295579910278 -0.004131925292313099 -0.5406624674797058
vn 0.9517892599105835 0.3052847385406494 0.029974937438964844
vn 0.9280917644500732 -0.004621680360287428 0.37232303619384766
vn 0.8477208018302917 -0.09112945199012756 0.5225561857223511
vn 0.6694610118865967 -0.36164548993110657 0.648871660232544
vn -0.5417163372039795 -0.6324753165245056 0.5536410212516785
vn 0.7237507700920105 0.5924404859542847 -0.35383495688438416
vn 0.061057306826114655 0.5994908213615417 -0.7980493903160095
vn -0.5677060484886169 0.31784331798553467 -0.7593981623649597
vn 0.9503954648971558 0.31090062856674194 -0.009451257064938545
vn -0.9507502317428589 -0.210423544049263 -0.2275872379541397
vn 0.9592545032501221 0.17521879076957703 0.2216511219739914
vn -0.9434620141983032 -0.331414133310318 0.006641340907663107
vn -0.82252436876297 -0.5022850036621094 0.266764760017395
vn -0.5044360160827637 -0.6342008709907532 0.5859468579292297
vn -0.809973955154419 0.057941287755966187 -0.5835967063903809
vn -0.936110258102417 -0.14434321224689484 -0.3207221031188965
vn 0.9575802683830261 0.22133073210716248 0.1845340132713318
vn -0.9350487589836121 -0.35391104221343994 0.020757926627993584
vn 0.8724019527435303 -0.12126901000738144 0.4735068082809448
vn 0.5661301612854004 -0.45232874155044556 0.6891264915466309
vn 0.09740149974822998 -0.6797894239425659 0.7269107699394226
vn 0.6930396556854248 0.5798024535179138 -0.42839834094047546
vn -0.22486469149589539 0.43573763966560364 -0.8715323805809021
vn 0.14977818727493286 0.5838383436203003 -0.7979344129562378
vn -0.9133778810501099 -0.15644116699695587 -0.3758549988269806
vn 0.9314675331115723 0.3595448136329651 0.05564018711447716
vn 0.933803915977478 0.24803660809993744 0.25785279273986816
vn -0.9442882537841797 -0.32516536116600037 -0.050864819437265396
vn 0.8749249577522278 0.013047860004007816 0.48408278822898865
vn -0.432098925113678 -0.6830441951751709 0.5888473391532898
vn -0.7032828330993652 -0.5375152826309204 0.46526405215263367
vn 0.027044497430324554 -0.5911647081375122 0.8060973286628723
vn -0.656513512134552 0.1709027737379074 -0.7346988320350647
vn 0.8729391098022461 0.473329097032547 -0.11805468052625656
vn 0.9042638540267944 0.4269741475582123 -0.00023715742281638086
vn -0.8633889555931091 -0.09862691909074783 -0.49480533599853516
vn -0.9561059474945068 -0.2637823522090912 -0.12759456038475037
vn 0.6813144683837891 0.6460550427436829 -0.3441273272037506
vn -0.22181189060211182 0.5719752907752991 -0.7897112369537354
vn -0.9171422123908997 -0.21837320923805237 -0.3334116041660309
vn 0.9302220940589905 0.27046942710876465 0.24805894494056702
vn 0.9067360162734985 0.1924397051334381 0.3752289414405823
vn -0.8727782964706421 -0.44544485211372375 0.19959188997745514
vn -0.8142630457878113 -0.5103457570075989 0.27662795782089233
vn 0.5300531387329102 -0.2954838275909424 0.7948163747787476
vn -0.0699547827243805 -0.531280517578125 0.8443028926849365
vn 0.3079245686531067 0.7400074005126953 -0.5979728102684021
vn -0.8354613780975342 -0.013451947830617428 -0.5493845343589783
vn -0.406562477350235 0.4832035303115845 -0.7753846645355225
vn 0.9029781222343445 0.42724815011024475 0.04571104049682617
vn -0.9342027902603149 -0.35672590136528015 -0.0034352093935012817
vn 0.8097202181816101 -0.0019294932717457414 0.5868130326271057
vn 0.7636935710906982 0.009910037741065025 0.6455029249191284
vn -0.9358581900596619 -0.34688860177993774 0.06195021793246269
vn 0.3839258849620819 -0.3760283291339874 0.8433289527893066
vn -0.4405125081539154 -0.565895140171051 0.6969299912452698
vn -0.764644205570221 0.15549537539482117 -0.6254122257232666
vn -0.9329793453216553 -0.2657511234283447 -0.24274662137031555
vn 0.29820549488067627 -0.34039369225502014 0.891743004322052
vn 0.2082405537366867 -0.4528667628765106 0.8669184446334839
vn -0.4865012764930725 -0.6407384872436523 0.5939450263977051
vn 0.15957874059677124 0.6769322156906128 -0.7185384035110474
vn -0.25076085329055786 0.5120357871055603 -0.8215463161468506
vn 0.8159207105636597 0.5778661966323853 -0.018549518659710884
vn -0.9508495330810547 -0.21551942825317383 -0.2223435491323471
vn 0.8866021037101746 0.33838605880737305 0.3153279423713684
vn -0.872964084148407 -0.44952645897865295 0.1893666833639145
vn 0.8030909895896912 0.15763671696186066 0.5746265053749084
vn -0.8668535351753235 -0.36475884914398193 0.3398764431476593
vn 0.4522894620895386 -0.22847308218479156 0.8621103763580322
vn 0.5508503317832947 -0.027298297733068466 0.8341574668884277
vn -0.7964007258415222 0.5763384699821472 0.18324801325798035
vn 0.7180953621864319 0.5638680458068848 0.4079115688800812
vn -0.9933155179023743 -0.10760743916034698 -0.04177224263548851
vn 0.8078406453132629 0.36049097776412964 0.46630436182022095
vn 0.701899528503418 0.1626920849084854 0.693446695804596
vn -0.8804941177368164 -0.263569176197052 0.3940323293209076
vn 0.7412961721420288 0.17163696885108948 0.6488611102104187
vn -0.6736752390861511 -0.3439937233924866 0.654087245464325
vn -0.3709442615509033 -0.5605634450912476 0.7403843402862549
vn -0.7232070565223694 -0.07595717161893845 0.6864416599273682
vn 0.4148145318031311 0.19342254102230072 0.8891100883483887
vn 0.2359938770532608 -0.0871352031826973 0.9678400754928589
vn -0.24259357154369354 -0.04390944167971611 0.9691337943077087
vn 0.4348677694797516 -0.035702019929885864 0.8997862935066223
vn -0.488198459148407 -0.3818635642528534 0.7847563624382019
vn -0.231259286403656 -0.3850972354412079 0.8934311866760254
vn 0.2290458083152771 -0.016486985608935356 0.9732760787010193
vn -0.3119698762893677 -0.20212340354919434 0.9283431172370911
vn -0.021377651020884514 0.19109763205051422 0.9813382029533386
f 1//1 2//2 3//3
f 2//2 1//1 4//4
f 5//5 4//4 1//1
f 6//6 1//1 3//3
f 1//1 6//6 7//7
f 7//7 5//5 1//1
f 8//8 9//9 6//6
f 9//9 7//7 6//6
f 2//2 10//10 3//3
f 6//6 3//3 10//10
f 4//4 5//5 11//11
f 12//12 9//9 8//8
f 12//12 13//13 9//9
f 2//2 14//14 10//10
f 14//14 2//2 15//15
f 2//2 4//4 15//15
f 10//10 16//16 6//6
f 16//16 17//17 6//6
f 17//17 8//8 6//6
f 7//7 18//18 5//5
f 19//19 13//13 12//12
f 15//15 20//20 14//14
f 14//14 16//16 10//10
f 14//14 21//21 16//16
f 15//15 4//4 22//22
f 23//23 11//11 24//24
f 5//5 24//24 11//11
f 7//7 9//9 18//18
f 24//24 5//5 18//18
f 25//25 12//12 8//8
f 18//18 13//13 26//26
f 9//9 13//13 18//18
f 26//26 13//13 19//19
f 27//27 14//14 20//20
f 20//20 28//28 27//27
f 21//21 14//14 27//27
f 22//22 20//20 15//15
f 22//22 11//11 29//29
f 4//4 11//11 22//22
f 16//16 30//30 17//17
f 29//29 11//11 23//23
f 30//30 25//25 17//17
f 17//17 25//25 8//8
f 23//23 24//24 31//31
f 32//32 12//12 25//25
f 24//24 18//18 33//33
f 34//34 24//24 33//33
f 33//33 18//18 26//26
f 32//32 35//35 12//12
f 35//35 19//19 12//12
f 28//28 20//20 36//36
f 20//20 22//22 36//36
f 36//36 22//22 29//29
f 29//29 23//23 37//37
f 37//37 23//23 31//31
f 34//34 38//38 31//31
f 31//31 24//24 34//34
f 39//39 19//19 35//35
f 19//19 39//39 26//26
f 39//39 33//33 26//26
f 28//28 40//40 27//27
f 27//27 41//41 21//21
f 21//21 41//41 16//16
f 16//16 41//41 30//30
f 42//42 29//29 37//37
f 43//43 25//25 30//30
f 43//43 44//44 25//25
f 37//37 31//31 45//45
f 44//44 32//32 25//25
f 38//38 46//46 45//45
f 45//45 31//31 38//38
f 32//32 47//47 35//35
f 32//32 44//44 47//47
f 35//35 47//47 48//48
f 38//38 33//33 48//48
f 38//38 34//34 33//33
f 48//48 39//39 35//35
f 33//33 39//39 48//48
f 28//28 49//49 40//40
f 49//49 28//28 50//50
f 50//50 28//28 36//36
f 51//51 41//41 40//40
f 41//41 27//27 40//40
f 41//41 51//51 30//30
f 42//42 52//52 29//29
f 53//53 37//37 45//45
f 54//54 48//48 47//47
f 46//46 48//48 54//54
f 46//46 38//38 48//48
f 50//50 36//36 55//55
f 36//36 29//29 52//52
f 51//51 56//56 30//30
f 43//43 30//30 56//56
f 42//42 37//37 53//53
f 43//43 57//57 58//58
f 45//45 59//59 53//53
f 44//44 43//43 58//58
f 46//46 59//59 45//45
f 44//44 60//60 47//47
f 54//54 60//60 46//46
f 47//47 60//60 54//54
f 50//50 61//61 49//49
f 49//49 62//62 40//40
f 61//61 50//50 55//55
f 40//40 62//62 51//51
f 55//55 36//36 52//52
f 52//52 42//42 63//63
f 64//64 43//43 56//56
f 64//64 57//57 43//43
f 63//63 42//42 53//53
f 58//58 57//57 65//65
f 58//58 65//65 44//44
f 44//44 65//65 60//60
f 60//60 65//65 66//66
f 59//59 60//60 66//66
f 59//59 46//46 60//60
f 67//67 49//49 61//61
f 68//68 62//62 69//69
f 62//62 68//68 51//51
f 56//56 51//51 68//68
f 65//65 70//70 66//66
f 70//70 71//71 66//66
f 66//66 71//71 59//59
f 59//59 71//71 53//53
f 67//67 61//61 72//72
f 67//67 69//69 62//62
f 67//67 62//62 49//49
f 55//55 52//52 73//73
f 56//56 68//68 74//74
f 63//63 73//73 52//52
f 74//74 64//64 56//56
f 75//75 57//57 64//64
f 63//63 53//53 76//76
f 57//57 70//70 65//65
f 76//76 53//53 71//71
f 77//77 78//78 67//67
f 72//72 77//77 67//67
f 67//67 78//78 69//69
f 72//72 61//61 55//55
f 79//79 74//74 68//68
f 80//80 76//76 70//70
f 57//57 75//75 81//81
f 76//76 71//71 70//70
f 82//82 78//78 77//77
f 83//83 72//72 55//55
f 69//69 79//79 68//68
f 84//84 74//74 79//79
f 81//81 80//80 70//70
f 70//70 57//57 81//81
f 82//82 77//77 85//85
f 85//85 77//77 83//83
f 82//82 86//86 78//78
f 77//77 72//72 83//83
f 78//78 87//87 69//69
f 88//88 83//83 55//55
f 87//87 79//79 69//69
f 84//84 89//89 74//74
f 89//89 64//64 74//74
f 73//73 63//63 90//90
f 90//90 63//63 91//91
f 89//89 75//75 64//64
f 89//89 81//81 75//75
f 82//82 92//92 86//86
f 87//87 78//78 86//86
f 55//55 73//73 93//93
f 63//63 76//76 91//91
f 76//76 80//80 91//91
f 80//80 81//81 94//94
f 85//85 95//95 82//82
f 96//96 85//85 97//97
f 82//82 95//95 92//92
f 83//83 97//97 85//85
f 97//97 83//83 88//88
f 98//98 87//87 86//86
f 93//93 88//88 55//55
f 84//84 99//99 89//89
f 90//90 91//91 100//100
f 101//101 80//80 94//94
f 80//80 101//101 91//91
f 81//81 89//89 94//94
f 95//95 85//85 96//96
f 92//92 102//102 86//86
f 86//86 102//102 103//103
f 103//103 98//98 86//86
f 98//98 79//79 87//87
f 79//79 104//104 84//84
f 104//104 99//99 84//84
f 101//101 100//100 91//91
f 105//105 106//106 95//95
f 95//95 106//106 102//102
f 105//105 95//95 96//96
f 105//105 96//96 97//97
f 95//95 102//102 92//92
f 88//88 93//93 107//107
f 108//108 104//104 79//79
f 93//93 73//73 109//109
f 109//109 73//73 90//90
f 109//109 90//90 100//100
f 110//110 111//111 99//99
f 111//111 89//89 99//99
f 100//100 112//112 113//113
f 94//94 89//89 111//111
f 114//114 111//111 112//112
f 114//114 94//94 111//111
f 112//112 100//100 114//114
f 101//101 114//114 100//100
f 101//101 94//94 114//114
f 105//105 115//115 106//106
f 106//106 116//116 102//102
f 116//116 103//103 102//102
f 103//103 117//117 98//98
f 97//97 88//88 118//118
f 118//118 88//88 107//107
f 117//117 79//79 98//98
f 117//117 108//108 79//79
f 119//119 93//93 109//109
f 120//120 110//110 104//104
f 113//113 121//121 109//109
f 104//104 110//110 99//99
f 100//100 113//113 109//109
f 111//111 110//110 112//112
f 106//106 122//122 116//116
f 115//115 105//105 123//123
f 123//123 105//105 97//97
f 124//124 103//103 116//116
f 120//120 104//104 108//108
f 107//107 93//93 125//125
f 126//126 110//110 120//120
f 127//127 122//122 128//128
f 106//106 128//128 122//122
f 115//115 128//128 106//106
f 129//129 128//128 123//123
f 115//115 123//123 128//128
f 123//123 97//97 118//118
f 124//124 117//117 103//103
f 125//125 93//93 119//119
f 120//120 130//130 126//126
f 119//119 109//109 121//121
f 130//130 131//131 126//126
f 130//130 132//132 131//131
f 132//132 121//121 131//131
f 121//121 113//113 131//131
f 131//131 112//112 126//126
f 113//113 112//112 131//131
f 126//126 112//112 110//110
f 122//122 127//127 133//133
f 128//128 129//129 127//127
f 124//124 134//134 117//117
f 119//119 135//135 125//125
f 119//119 121//121 135//135
f 132//132 135//135 121//121
f 136//136 127//127 129//129
f 122//122 133//133 137//137
f 122//122 137//137 116//116
f 137//137 124//124 116//116
f 118//118 107//107 138//138
f 108//108 117//117 139//139
f 139//139 117//117 134//134
f 130//130 140//140 132//132
f 141//141 140//140 130//130
f 132//132 140//140 135//135
f 133//133 142//142 143//143
f 136//136 142//142 127//127
f 127//127 142//142 133//133
f 118//118 144//144 123//123
f 138//138 107//107 125//125
f 138//138 125//125 135//135
f 108//108 145//145 120//120
f 146//146 141//141 145//145
f 141//141 120//120 145//145
f 146//146 147//147 141//141
f 147//147 140//140 141//141
f 120//120 141//141 130//130
f 142//142 136//136 148//148
f 143//143 137//137 133//133
f 144//144 118//118 138//138
f 108//108 149//149 145//145
f 108//108 139//139 149//149
f 147//147 135//135 140//140
f 136//136 129//129 150//150
f 136//136 150//150 148//148
f 150//150 129//129 151//151
f 151//151 129//129 123//123
f 137//137 152//152 124//124
f 152//152 134//134 124//124
f 145//145 149//149 146//146
f 138//138 135//135 153//153
f 153//153 135//135 147//147
f 147//147 146//146 154//154
f 155//155 156//156 142//142
f 155//155 142//142 157//157
f 157//157 158//158 155//155
f 143//143 142//142 156//156
f 159//159 158//158 157//157
f 159//159 157//157 150//150
f 157//157 142//142 148//148
f 150//150 157//157 148//148
f 151//151 123//123 160//160
f 123//123 144//144 160//160
f 160//160 144//144 161//161
f 134//134 152//152 139//139
f 153//153 161//161 144//144
f 144//144 138//138 153//153
f 155//155 162//162 156//156
f 156//156 137//137 143//143
f 150//150 151//151 159//159
f 163//163 152//152 137//137
f 152//152 164//164 139//139
f 139//139 164//164 149//149
f 149//149 165//165 146//146
f 146//146 166//166 154//154
f 147//147 166//166 153//153
f 147//147 154//154 166//166
f 162//162 155//155 167//167
f 168//168 156//156 169//169
f 155//155 158//158 170//170
f 158//158 159//159 171//171
f 156//156 168//168 137//137
f 168//168 163//163 137//137
f 172//172 159//159 151//151
f 172//172 151//151 160//160
f 163//163 173//173 152//152
f 173//173 164//164 152//152
f 164//164 174//174 149//149
f 149//149 174//174 165//165
f 146//146 165//165 166//166
f 175//175 167//167 176//176
f 176//176 167//167 170//170
f 170//170 177//177 176//176
f 156//156 162//162 169//169
f 167//167 155//155 170//170
f 171//171 177//177 170//170
f 158//158 171//171 170//170
f 173//173 178//178 164//164
f 178//178 174//174 164//164
f 178//178 179//179 174//174
f 179//179 180//180 174//174
f 161//161 153//153 181//181
f 179//179 181//181 180//180
f 165//165 174//174 180//180
f 153//153 166//166 181//181
f 181//181 166//166 180//180
f 166//166 165//165 180//180
f 167//167 175//175 182//182
f 162//162 167//167 182//182
f 177//177 171//171 183//183
f 169//169 184//184 168//168
f 183//183 171//171 172//172
f 168//168 184//184 163//163
f 184//184 185//185 163//163
f 171//171 159//159 172//172
f 185//185 173//173 163//163
f 172//172 160//160 186//186
f 186//186 160//160 161//161
f 181//181 179//179 187//187
f 181//181 187//187 188//188
f 181//181 188//188 161//161
f 189//189 190//190 191//191
f 177//177 189//189 191//191
f 189//189 177//177 192//192
f 175//175 191//191 190//190
f 175//175 176//176 191//191
f 176//176 177//177 191//191
f 162//162 182//182 169//169
f 169//169 182//182 184//184
f 183//183 172//172 193//193
f 185//185 194//194 173//173
f 172//172 186//186 193//193
f 178//178 173//173 194//194
f 194//194 195//195 178//178
f 186//186 161//161 188//188
f 195//195 196//196 178//178
f 187//187 196//196 195//195
f 196//196 179//179 178//178
f 187//187 179//179 196//196
f 189//189 197//197 190//190
f 190//190 182//182 175//175
f 177//177 183//183 198//198
f 192//192 177//177 198//198
f 199//199 184//184 182//182
f 200//200 194//194 185//185
f 193//193 186//186 201//201
f 187//187 201//201 188//188
f 188//188 201//201 186//186
f 202//202 197//197 192//192
f 203//203 202//202 192//192
f 192//192 197//197 189//189
f 204//204 190//190 197//197
f 199//199 190//190 204//204
f 192//192 198//198 203//203
f 190//190 199//199 182//182
f 183//183 193//193 205//205
f 205//205 193//193 206//206
f 206//206 193//193 201//201
f 207//207 187//187 195//195
f 201//201 187//187 207//207
f 208//208 209//209 202//202
f 210//210 202//202 209//209
f 208//208 202//202 203//203
f 202//202 210//210 197//197
f 208//208 203//203 198//198
f 198//198 211//211 208//208
f 197//197 210//210 204//204
f 212//212 199//199 204//204
f 213//213 183//183 205//205
f 198//198 183//183 213//213
f 212//212 184//184 199//199
f 212//212 185//185 184//184
f 200//200 185//185 214//214
f 206//206 201//201 207//207
f 215//215 195//195 194//194
f 200//200 215//215 194//194
f 216//216 215//215 217//217
f 216//216 195//195 215//215
f 207//207 195//195 216//216
f 218//218 219//219 209//209
f 218//218 209//209 208//208
f 209//209 219//219 210//210
f 211//211 198//198 213//213
f 185//185 212//212 220//220
f 214//214 185//185 220//220
f 221//221 205//205 206//206
f 214//214 215//215 200//200
f 217//217 207//207 216//216
f 208//208 222//222 218//218
f 223//223 224//224 222//222
f 208//208 223//223 222//222
f 223//223 208//208 211//211
f 210//210 225//225 204//204
f 204//204 225//225 212//212
f 212//212 225//225 226//226
f 213//213 205//205 221//221
f 217//217 215//215 227//227
f 217//217 228//228 207//207
f 231//231 230//230 229//229
f 229//229 231//231 232//232
f 233//233 232//232 224//224
f 231//231 224//224 232//232
f 234//234 233//233 224//224
f 223//223 234//234 224//224
f 218//218 235//235 219//219
f 224//224 236//236 222//222
f 222//222 236//236 218//218
f 219//219 235//235 210//210
f 235//235 225//225 210//210
f 226//226 220//220 212//212
f 221//221 206//206 237//237
f 237//237 206//206 238//238
f 214//214 227//227 215//215
f 227//227 239//239 228//228
f 228//228 238//238 206//206
f 239//239 238//238 228//228
f 227//227 228//228 217//217
f 206//206 207//207 228//228
f 240//240 233//233 241//241
f 240//240 233//233 242//242
f 229//229 240//240 242//242
f 242//242 229//229 232//232
f 233//233 242//242 232//232
f 243//243 229//229 230//230
f 244//244 245//245 242//242
f 230//230 244//244 243//243
f 231//231 230//230 244//244
f 224//224 244//244 236//236
f 224//224 231//231 244//244
f 233//233 244//244 242//242
f 244//244 233//233 234//234
f 230//230 235//235 218//218
f 236//236 230//230 218//218
f 230//230 231//231 218//218
f 244//244 245//245 236//236
f 234//234 245//245 244//244
f 223//223 211//211 246//246
f 211//211 213//213 246//246
f 246//246 213//213 221//221
f 221//221 247//247 246//246
f 214//214 220//220 239//239
f 239//239 227//227 214//214
f 233//233 248//248 241//241
f 249//249 229//229 240//240
f 233//233 242//242 250//250
f 233//233 250//250 248//248
f 245//245 250//250 242//242
f 229//229 251//251 243//243
f 252//252 248//248 250//250
f 244//244 245//245 243//243
f 245//245 253//253 250//250
f 253//253 252//252 250//250
f 230//230 254//254 235//235
f 230//230 236//236 254//254
f 245//245 243//243 236//236
f 254//254 236//236 243//243
f 253//253 245//245 234//234
f 234//234 223//223 253//253
f 223//223 246//246 253//253
f 235//235 255//255 225//225
f 221//221 237//237 247//247
f 241//241 249//249 240//240
f 256//256 241//241 248//248
f 251//251 229//229 249//249
f 251//251 257//257 243//243
f 243//243 257//257 254//254
f 252//252 253//253 246//246
f 246//246 258//258 252//252
f 254//254 257//257 235//235
f 257//257 255//255 235//235
f 247//247 258//258 246//246
f 255//255 226//226 225//225
f 259//259 260//260 226//226
f 226//226 260//260 220//220
f 220//220 260//260 239//239
f 261//261 239//239 260//260
f 237//237 238//238 261//261
f 261//261 238//238 239//239
f 262//262 241//241 263//263
f 263//263 241//241 256//256
f 241//241 262//262 249//249
f 256//256 248//248 264//264
f 264//264 248//248 252//252
f 249//249 265//265 251//251
f 247//247 266//266 267//267
f 247//247 237//237 266//266
f 259//259 268//268 260//260
f 261//261 260//260 268//268
f 261//261 268//268 266//266
f 261//261 266//266 237//237
f 264//264 269//269 256//256
f 270//270 269//269 264//264
f 262//262 271//271 249//249
f 271//271 265//265 249//249
f 270//270 264//264 272//272
f 272//272 264//264 252//252
f 272//272 252//252 273//273
f 252//252 258//258 273//273
f 258//258 247//247 267//267
f 255//255 259//259 226//226
f 274//274 275//275 269//269
f 269//269 276//276 274//274
f 275//275 277//277 263//263
f 256//256 275//275 263//263
f 269//269 275//275 256//256
f 270//270 276//276 269//269
f 278//278 251//251 265//265
f 278//278 279//279 257//257
f 251//251 278//278 257//257
f 257//257 279//279 255//255
f 280//280 273//273 258//258
f 281//281 255//255 279//279
f 258//258 267//267 280//280
f 259//259 255//255 281//281
f 281//281 268//268 259//259
f 282//282 268//268 281//281
f 266//266 268//268 282//282
f 283//283 277//277 274//274
f 277//277 275//275 274//274
f 263//263 277//277 262//262
f 284//284 270//270 272//272
f 273//273 284//284 272//272
f 285//285 281//281 279//279
f 282//282 281//281 285//285
f 282//282 286//286 267//267
f 286//286 280//280 267//267
f 267//267 266//266 282//282
f 287//287 283//283 288//288
f 288//288 283//283 274//274
f 288//288 274//274 276//276
f 276//276 289//289 288//288
f 277//277 271//271 262//262
f 270//270 290//290 276//276
f 291//291 278//278 265//265
f 271//271 291//291 265//265
f 284//284 273//273 280//280
f 292//292 280//280 286//286
f 285//285 286//286 282//282
f 293//293 294//294 287//287
f 295//295 293//293 287//287
f 295//295 287//287 289//289
f 287//287 294//294 283//283
f 288//288 289//289 287//287
f 283//283 294//294 277//277
f 289//289 276//276 290//290
f 290//290 270//270 296//296
f 270//270 284//284 296//296
f 297//297 296//296 284//284
f 297//297 284//284 298//298
f 278//278 299//299 279//279
f 299//299 285//285 279//279
f 300//300 285//285 299//299
f 299//299 301//301 300//300
f 280//280 292//292 284//284
f 284//284 292//292 298//298
f 286//286 285//285 300//300
f 292//292 286//286 300//300
f 302//302 303//303 295//295
f 295//295 303//303 293//293
f 304//304 294//294 293//293
f 305//305 302//302 295//295
f 295//295 289//289 305//305
f 305//305 289//289 290//290
f 306//306 271//271 277//277
f 291//291 307//307 278//278
f 307//307 308//308 278//278
f 308//308 299//299 278//278
f 299//299 308//308 309//309
f 292//292 310//310 298//298
f 301//301 292//292 300//300
f 310//310 292//292 301//301
f 311//311 304//304 293//293
f 303//303 311//311 293//293
f 302//302 312//312 303//303
f 313//313 312//312 302//302
f 294//294 304//304 314//314
f 314//314 306//306 294//294
f 294//294 306//306 277//277
f 290//290 296//296 315//315
f 306//306 316//316 271//271
f 271//271 316//316 291//291
f 316//316 307//307 291//291
f 315//315 296//296 317//317
f 317//317 297//297 318//318
f 317//317 296//296 297//297
f 298//298 319//319 318//318
f 298//298 318//318 297//297
f 309//309 301//301 299//299
f 310//310 301//301 319//319
f 319//319 298//298 310//310
f 312//312 311//311 303//303
f 302//302 305//305 320//320
f 302//302 320//320 313//313
f 321//321 320//320 305//305
f 321//321 290//290 315//315
f 305//305 290//290 321//321
f 322//322 306//306 314//314
f 306//306 322//322 316//316
f 323//323 315//315 317//317
f 316//316 324//324 307//307
f 324//324 309//309 307//307
f 324//324 325//325 309//309
f 307//307 309//309 308//308
f 326//326 309//309 325//325
f 301//301 309//309 326//326
f 319//319 301//301 326//326
f 327//327 328//328 329//329
f 327//327 311//311 312//312
f 328//328 327//327 312//312
f 328//328 313//313 320//320
f 312//312 313//313 328//328
f 321//321 330//330 320//320
f 304//304 331//331 314//314
f 331//331 332//332 314//314
f 314//314 332//332 322//322
f 315//315 323//323 333//333
f 315//315 333//333 321//321
f 322//322 334//334 316//316
f 334//334 324//324 316//316
f 335//335 336//336 318//318
f 326//326 325//325 337//337
f 318//318 319//319 335//335
f 337//337 335//335 326//326
f 319//319 326//326 335//335
f 329//329 328//328 338//338
f 339//339 311//311 327//327
f 328//328 320//320 338//338
f 339//339 340//340 311//311
f 338//338 320//320 341//341
f 340//340 304//304 311//311
f 331//331 304//304 340//340
f 341//341 320//320 330//330
f 330//330 321//321 342//342
f 342//342 321//321 333//333
f 323//323 317//317 336//336
f 337//337 336//336 335//335
f 318//318 336//336 317//317
f 343//343 329//329 344//344
f 338//338 344//344 329//329
f 329//329 343//343 327//327
f 330//330 345//345 341//341
f 340//340 346//346 331//331
f 331//331 346//346 332//332
f 332//332 347//347 322//322
f 347//347 334//334 322//322
f 333//333 323//323 348//348
f 333//333 348//348 349//349
f 350//350 324//324 334//334
f 336//336 348//348 323//323
f 350//350 325//325 324//324
f 350//350 337//337 325//325
f 351//351 337//337 350//350
f 336//336 337//337 351//351
f 352//352 343//343 344//344
f 353//353 354//354 344//344
f 338//338 353//353 344//344
f 343//343 355//355 327//327
f 355//355 339//339 327//327
f 353//353 341//341 345//345
f 338//338 341//341 353//353
f 355//355 340//340 339//339
f 345//345 342//342 356//356
f 345//345 330//330 342//342
f 332//332 346//346 357//357
f 332//332 358//358 347//347
f 357//357 358//358 332//332
f 342//342 333//333 359//359
f 359//359 333//333 349//349
f 347//347 358//358 334//334
f 360//360 334//334 358//358
f 360//360 361//361 351//351
f 348//348 361//361 349//349
f 334//334 360//360 350//350
f 351//351 350//350 360//360
f 361//361 336//336 351//351
f 348//348 336//336 361//361
f 352//352 344//344 354//354
f 353//353 362//362 354//354
f 353//353 345//345 363//363
f 355//355 346//346 340//340
f 345//345 356//356 363//363
f 364//364 365//365 361//361
f 361//361 365//365 366//366
f 361//361 366//366 349//349
f 364//364 360//360 358//358
f 361//361 360//360 364//364
f 367//367 368//368 362//362
f 367//367 369//369 352//352
f 367//367 352//352 368//368
f 368//368 352//352 354//354
f 354//354 362//362 368//368
f 352//352 369//369 343//343
f 362//362 353//353 370//370
f 343//343 369//369 355//355
f 369//369 371//371 355//355
f 353//353 363//363 370//370
f 370//370 363//363 372//372
f 355//355 371//371 346//346
f 363//363 356//356 372//372
f 346//346 371//371 373//373
f 342//342 374//374 356//356
f 346//346 373//373 357//357
f 342//342 359//359 374//374
f 375//375 357//357 373//373
f 375//375 365//365 357//357
f 365//365 376//376 357//357
f 359//359 349//349 374//374
f 358//358 357//357 376//376
f 358//358 376//376 364//364
f 365//365 364//364 376//376
f 377//377 378//378 367//367
f 362//362 377//377 367//367
f 379//379 377//377 362//362
f 369//369 378//378 380//380
f 367//367 378//378 369//369
f 362//362 370//370 379//379
f 369//369 380//380 371//371
f 380//380 381//381 371//371
f 379//379 370//370 382//382
f 382//382 370//370 372//372
f 381//381 383//383 371//371
f 371//371 383//383 373//373
f 356//356 384//384 372//372
f 356//356 374//374 384//384
f 375//375 385//385 365//365
f 349//349 385//385 374//374
f 366//366 365//365 385//385
f 385//385 349//349 366//366
f 377//377 379//379 386//386
f 387//387 381//381 380//380
f 386//386 379//379 382//382
f 387//387 388//388 381//381
f 388//388 387//387 389//389
f 381//381 390//390 383//383
f 381//381 388//388 390//390
f 372//372 391//391 382//382
f 388//388 392//392 390//390
f 392//392 388//388 391//391
f 392//392 393//393 390//390
f 391//391 372//372 392//392
f 383//383 390//390 393//393
f 383//383 393//393 373//373
f 392//392 384//384 393//393
f 384//384 394//394 393//393
f 372//372 384//384 392//392
f 373//373 393//393 375//375
f 374//374 394//394 384//384
f 394//394 375//375 393//393
f 394//394 374//374 385//385
f 385//385 375//375 394//394
f 378//378 377//377 395//395
f 377//377 386//386 395//395
f 378//378 395//395 387//387
f 387//387 395//395 389//389
f 378//378 387//387 380//380
f 395//395 386//386 389//389
f 382//382 389//389 386//386
f 389//389 382//382 391//391
f 389//389 391//391 388//388
