# Generated by Visualization Toolkit
v -151.5933837890625 -182.665283203125 353.1438293457031
v -151.25331115722656 -181.1908416748047 353.48846435546875
v -150.30776977539062 -181.31427001953125 353.9139709472656
v -149.21046447753906 -182.62042236328125 354.7865905761719
v -152.7061309814453 -181.2465362548828 353.400634765625
v -153.5432586669922 -181.60398864746094 353.7202453613281
v -153.08071899414062 -182.8373565673828 353.35894775390625
v -150.32315063476562 -183.535400390625 354.6302490234375
v -152.31520080566406 -183.6088409423828 354.147705078125
v -149.05279541015625 -181.56053161621094 354.9054870605469
v -149.29129028320312 -179.126953125 355.4960021972656
v -150.97982788085938 -179.52001953125 354.72332763671875
v -152.339111328125 -179.37069702148438 355.0397644042969
v -153.4176483154297 -179.31582641601562 355.78045654296875
v -154.4292449951172 -181.05162048339844 355.5350341796875
v -155.1002655029297 -181.89053344726562 356.77276611328125
v -153.20834350585938 -183.46124267578125 354.4848327636719
v -153.92276000976562 -182.95120239257812 354.932373046875
v -150.57435607910156 -184.4499053955078 356.4763488769531
v -149.25961303710938 -176.79991149902344 357.4466552734375
v -150.33778381347656 -177.47189331054688 356.48681640625
v -150.86192321777344 -176.5232391357422 357.6523742675781
v -152.98611450195312 -178.2469482421875 357.0730285644531
v -147.8063507080078 -179.5596160888672 357.0467529296875
v -147.5391082763672 -181.03285217285156 357.0696716308594
v -155.34938049316406 -180.4677734375 358.3004150390625
v -147.55848693847656 -182.15557861328125 357.23321533203125
v -148.94183349609375 -183.3553009033203 355.7830505371094
v -155.3091278076172 -182.9633331298828 359.45440673828125
v -151.80026245117188 -184.7095947265625 357.3558044433594
v -149.3532257080078 -174.65676879882812 359.2644958496094
v -148.3278350830078 -174.83203125 359.4836120605469
v -150.84835815429688 -174.49647521972656 359.7216491699219
v -151.98611450195312 -176.1705780029297 358.7895812988281
v -148.1360626220703 -177.1090545654297 358.1423034667969
v -147.41090393066406 -175.41366577148438 360.2353515625
v -146.7091827392578 -176.8153533935547 360.62933349609375
v -153.15220642089844 -176.4976043701172 359.94781494140625
v -145.77903747558594 -178.96022033691406 361.55126953125
v -154.65521240234375 -179.6830291748047 357.3851013183594
v -146.199462890625 -180.8125762939453 360.50897216796875
v -147.32398986816406 -183.02639770507812 358.8848876953125
v -154.41964721679688 -183.6240234375 358.2640686035156
v -147.1143035888672 -183.3249053955078 360.8190002441406
v -148.8076934814453 -184.85548400878906 359.0157165527344
v -149.80923461914062 -185.42239379882812 358.9913330078125
v -151.34054565429688 -185.4982452392578 359.19342041015625
v -153.37843322753906 -184.6499786376953 359.9884948730469
v -148.57559204101562 -184.8402557373047 360.4013366699219
v -149.77532958984375 -171.89674377441406 361.5557556152344
v -148.7725067138672 -171.29043579101562 362.498291015625
v -148.1958465576172 -171.95265197753906 361.7467346191406
v -151.82289123535156 -173.73110961914062 361.4998474121094
v -153.17453002929688 -175.1015625 362.5549011230469
v -155.3087921142578 -179.2925567626953 360.4427185058594
v -145.55421447753906 -179.95687866210938 363.0143737792969
v -145.92564392089844 -181.3780059814453 362.06219482421875
v -156.24053955078125 -182.10113525390625 362.7634582519531
v -155.0103759765625 -184.10330200195312 362.5302429199219
v -151.12416076660156 -185.5649871826172 360.83837890625
v -152.4185791015625 -185.17034912109375 362.1522216796875
v -149.49114990234375 -185.4556427001953 360.6853942871094
v -147.22984313964844 -171.7026824951172 363.9835510253906
v -146.7999267578125 -173.54440307617188 363.2125244140625
v -150.46510314941406 -170.87136840820312 364.1419982910156
v -151.9019012451172 -171.66510009765625 365.2846374511719
v -145.8980712890625 -177.54014587402344 365.56256103515625
v -146.0749969482422 -176.66506958007812 363.46319580078125
v -153.4080047607422 -174.50880432128906 365.1301574707031
v -156.57174682617188 -180.84063720703125 364.90704345703125
v -146.01141357421875 -181.6008758544922 364.53887939453125
v -147.61126708984375 -183.92759704589844 362.3815002441406
v -156.4990997314453 -183.1017303466797 364.8032531738281
v -149.3361053466797 -184.80018615722656 362.89923095703125
v -151.13365173339844 -185.10504150390625 363.2615051269531
v -154.7386474609375 -184.54225158691406 364.8936462402344
v -147.79364013671875 -168.9086456298828 367.51239013671875
v -147.6432647705078 -170.4840850830078 364.9949951171875
v -149.010009765625 -169.98292541503906 365.1407165527344
v -149.8811798095703 -169.407470703125 366.5607604980469
v -146.432861328125 -171.1521759033203 366.2095031738281
v -146.2269287109375 -174.32901000976562 364.60308837890625
v -152.2916717529297 -171.1613311767578 367.8454284667969
v -145.95477294921875 -175.453857421875 367.2960205078125
v -155.9844512939453 -179.05975341796875 366.0396423339844
v -145.8735809326172 -179.67462158203125 366.33221435546875
v -156.8419647216797 -181.86822509765625 365.4211730957031
v -148.06092834472656 -183.8287353515625 364.5013732910156
v -147.33021545410156 -182.31362915039062 367.1637268066406
v -149.48870849609375 -184.1391143798828 366.19281005859375
v -152.8505859375 -184.70103454589844 366.8723449707031
v -156.39358520507812 -183.88555908203125 367.3325500488281
v -149.42308044433594 -168.14817810058594 368.54962158203125
v -148.61227416992188 -167.89353942871094 368.91571044921875
v -150.79579162597656 -168.86618041992188 368.72918701171875
v -145.72235107421875 -170.57589721679688 368.84710693359375
v -145.7838592529297 -173.0078125 367.6582946777344
v -146.3515625 -177.18789672851562 369.84014892578125
v -154.44808959960938 -175.40013122558594 369.897705078125
v -146.35926818847656 -179.0266571044922 368.6173095703125
v -147.0684051513672 -180.65602111816406 369.30706787109375
v -149.04965209960938 -182.73646545410156 369.6797790527344
v -157.18804931640625 -183.4188995361328 368.95379638671875
v -151.51036071777344 -184.12725830078125 369.0067138671875
v -156.12850952148438 -184.18423461914062 369.00665283203125
v -146.34584045410156 -168.11256408691406 370.1319885253906
v -146.48289489746094 -169.407958984375 368.3940124511719
v -151.59808349609375 -167.54443359375 373.1438903808594
v -145.29676818847656 -172.0534210205078 369.7710266113281
v -145.68934631347656 -174.04208374023438 369.6427001953125
v -152.5517120361328 -170.27203369140625 371.2160339355469
v -153.8087158203125 -172.52468872070312 375.0128173828125
v -157.1865234375 -179.3424072265625 373.31109619140625
v -157.6757049560547 -181.263427734375 371.9877624511719
v -157.64340209960938 -182.71560668945312 369.9123229980469
v -156.00152587890625 -184.0869140625 371.9059753417969
v -146.05372619628906 -166.53102111816406 371.83770751953125
v -147.19593811035156 -167.2294921875 370.45745849609375
v -147.558349609375 -166.11451721191406 371.8910217285156
v -149.0371551513672 -166.0211944580078 371.94964599609375
v -149.90545654296875 -166.0717010498047 372.29486083984375
v -150.5972900390625 -166.2002410888672 373.1321716308594
v -145.22666931152344 -169.27716064453125 370.5091552734375
v -144.0736846923828 -167.94149780273438 372.5369873046875
v -143.5514373779297 -170.1831512451172 372.3009033203125
v -144.72299194335938 -170.85540771484375 370.80145263671875
v -143.669189453125 -171.10504150390625 372.3690185546875
v -144.1221923828125 -172.07168579101562 372.5227355957031
v -145.2760009765625 -173.37306213378906 371.7362976074219
v -146.44400024414062 -176.0418243408203 372.3255615234375
v -154.6789093017578 -174.12547302246094 376.06256103515625
v -147.38365173339844 -178.84622192382812 372.72412109375
v -148.22174072265625 -180.2617950439453 373.18353271484375
v -149.2823028564453 -181.2628936767578 373.7892150878906
v -158.19773864746094 -182.98953247070312 372.27142333984375
v -157.73121643066406 -183.63812255859375 371.16754150390625
v -153.8489990234375 -184.02548217773438 371.9664001464844
v -145.7744903564453 -165.42144775390625 374.00677490234375
v -147.06057739257812 -164.62063598632812 374.8277282714844
v -148.8494873046875 -164.796630859375 374.804931640625
v -142.9900665283203 -168.832763671875 373.0929260253906
v -141.57400512695312 -171.33985900878906 374.381103515625
v -144.11776733398438 -172.80270385742188 373.94342041015625
v -145.43075561523438 -173.89149475097656 374.52783203125
v -145.90402221679688 -174.47244262695312 373.0538330078125
v -148.001220703125 -178.93763732910156 374.9963684082031
v -157.6341094970703 -180.44088745117188 375.7738952636719
v -157.8448028564453 -181.92495727539062 374.11224365234375
v -151.83824157714844 -182.45164489746094 375.38897705078125
v -155.390380859375 -183.74501037597656 374.0767517089844
v -156.3485870361328 -183.39723205566406 375.1151428222656
v -143.66087341308594 -166.61044311523438 373.90936279296875
v -142.80511474609375 -165.62228393554688 375.3966064453125
v -148.1259002685547 -164.09426879882812 375.9100341796875
v -149.9246063232422 -164.7246551513672 376.1875305175781
v -141.13816833496094 -167.6182403564453 374.7138671875
v -137.47178649902344 -169.31118774414062 375.49285888671875
v -136.98617553710938 -168.17254638671875 375.8673400878906
v -136.5087432861328 -170.1377410888672 375.9812316894531
v -140.15843200683594 -168.80186462402344 374.7215881347656
v -152.2605438232422 -167.3092498779297 376.7434387207031
v -139.5802459716797 -170.4329071044922 374.9906005859375
v -141.4388885498047 -169.67291259765625 374.03271484375
v -139.27574157714844 -171.35714721679688 375.6128845214844
v -142.46324157714844 -172.27923583984375 374.7279968261719
v -143.4058074951172 -172.9376678466797 375.9264221191406
v -139.8561248779297 -172.2117919921875 376.45172119140625
v -144.90977478027344 -173.4809112548828 376.3812255859375
v -146.4370574951172 -175.025390625 375.0769348144531
v -156.7965850830078 -178.1204376220703 377.22015380859375
v -149.5555419921875 -180.30462646484375 378.3349609375
v -150.7149200439453 -181.6181182861328 376.1368103027344
v -157.525390625 -181.40887451171875 376.5516662597656
v -154.1974334716797 -182.5663604736328 377.46746826171875
v -157.2174072265625 -182.564208984375 375.6677551269531
v -140.76727294921875 -164.71420288085938 376.95361328125
v -144.64674377441406 -164.20169067382812 376.4651794433594
v -142.3317413330078 -162.6370391845703 379.0996398925781
v -146.2118682861328 -163.41793823242188 377.4382629394531
v -147.93087768554688 -162.83441162109375 378.9510498046875
v -149.11285400390625 -163.10940551757812 379.2010192871094
v -135.65330505371094 -165.53326416015625 377.5600891113281
v -138.5659942626953 -166.5289764404297 376.0745544433594
v -136.26358032226562 -163.98094177246094 378.5072937011719
v -151.47528076171875 -164.93280029296875 380.09881591796875
v -134.88893127441406 -166.7283935546875 377.5490417480469
v -135.4852752685547 -168.73806762695312 376.7976989746094
v -134.39199829101562 -167.38475036621094 378.1236877441406
v -134.3728790283203 -168.51019287109375 378.324951171875
v -134.6291046142578 -169.83926391601562 377.6564025878906
v -152.739501953125 -167.4800262451172 380.5836486816406
v -137.13363647460938 -171.86985778808594 377.5699157714844
v -138.41287231445312 -172.6787872314453 377.4837951660156
v -140.48516845703125 -172.44021606445312 378.0196838378906
v -143.98489379882812 -173.01473999023438 377.89898681640625
v -154.18853759765625 -172.75173950195312 377.8243408203125
v -145.9496307373047 -173.8094482421875 378.36962890625
v -155.41921997070312 -175.43951416015625 379.3011779785156
v -147.84632873535156 -175.74998474121094 380.6914367675781
v -149.08358764648438 -178.57054138183594 380.66766357421875
v -152.1405792236328 -181.51998901367188 378.6391906738281
v -156.11561584472656 -182.15228271484375 378.31976318359375
v -134.24395751953125 -162.18170166015625 381.02325439453125
v -134.07313537597656 -163.57763671875 379.8262634277344
v -136.63133239746094 -162.8297119140625 379.5172424316406
v -145.79898071289062 -162.30348205566406 379.27685546875
v -148.57144165039062 -161.43597412109375 381.82696533203125
v -150.51364135742188 -163.5871124267578 380.4315185546875
v -133.70587158203125 -164.838623046875 380.12969970703125
v -133.92811584472656 -166.86903381347656 380.0174865722656
v -134.2003936767578 -168.24266052246094 380.0509948730469
v -134.6511688232422 -169.4391632080078 378.9510192871094
v -153.57916259765625 -170.74269104003906 380.3786315917969
v -135.0415802001953 -170.03623962402344 379.0615539550781
v -137.02003479003906 -171.60060119628906 378.99432373046875
v -138.57318115234375 -172.0560760498047 379.0065612792969
v -141.44879150390625 -172.17027282714844 379.73516845703125
v -143.6949005126953 -172.48121643066406 380.1795349121094
v -154.26805114746094 -172.93907165527344 380.58673095703125
v -156.63560485839844 -178.41990661621094 379.77294921875
v -156.8047332763672 -179.6143341064453 380.104248046875
v -156.43743896484375 -180.52294921875 380.7645568847656
v -150.9683074951172 -180.64755249023438 380.2185363769531
v -152.7548828125 -180.6477508544922 381.4630126953125
v -154.3358154296875 -180.81166076660156 381.30853271484375
v -132.92047119140625 -161.8465118408203 382.2143859863281
v -134.8894500732422 -161.26318359375 381.93072509765625
v -139.2692108154297 -160.22824096679688 382.58734130859375
v -143.3100128173828 -160.91845703125 380.99090576171875
v -146.2543182373047 -161.05349731445312 381.013916015625
v -132.82456970214844 -162.7823486328125 381.85211181640625
v -132.3200225830078 -162.74783325195312 383.4130554199219
v -133.52243041992188 -165.02285766601562 381.54437255859375
v -134.31349182128906 -166.5623321533203 381.7763366699219
v -152.20535278320312 -165.3609619140625 383.365966796875
v -136.04010009765625 -170.1550750732422 380.1142272949219
v -140.820068359375 -170.97036743164062 381.8807067871094
v -143.44772338867188 -171.69654846191406 382.3605651855469
v -145.503662109375 -172.755126953125 382.1792907714844
v -146.70327758789062 -173.3163299560547 383.30340576171875
v -147.35421752929688 -174.31195068359375 382.4290466308594
v -154.08493041992188 -173.4849395751953 382.6324768066406
v -155.21653747558594 -176.2360382080078 381.9918518066406
v -155.49952697753906 -177.9319305419922 382.4721984863281
v -149.82615661621094 -179.1684112548828 381.60589599609375
v -151.5208740234375 -179.094482421875 383.2380676269531
v -155.7262420654297 -180.64065551757812 381.1622314453125
v -143.40817260742188 -158.15721130371094 383.81292724609375
v -140.93600463867188 -157.64320373535156 385.31781005859375
v -147.37860107421875 -158.06988525390625 384.8165588378906
v -146.54290771484375 -157.9259490966797 384.5270690917969
v -147.63133239746094 -160.1034698486328 382.6518249511719
v -148.82244873046875 -159.60861206054688 384.29217529296875
v -132.5921630859375 -159.66734313964844 384.78448486328125
v -131.92706298828125 -160.06129455566406 384.5935974121094
v -131.79800415039062 -161.02725219726562 384.4007568359375
v -137.68673706054688 -159.047119140625 384.66204833984375
v -144.77871704101562 -158.26112365722656 383.74462890625
v -149.74269104003906 -161.62222290039062 383.38592529296875
v -150.1503448486328 -161.51499938964844 385.28851318359375
v -151.2206573486328 -163.50840759277344 385.06402587890625
v -132.51693725585938 -163.2942352294922 384.3243103027344
v -133.78652954101562 -165.08363342285156 383.0787353515625
v -135.9306182861328 -167.2274932861328 383.1151428222656
v -152.69410705566406 -167.28076171875 383.7415466308594
v -138.70437622070312 -168.23915100097656 384.09588623046875
v -139.2003173828125 -169.75047302246094 382.6075744628906
v -142.28602600097656 -170.45834350585938 383.9582214355469
v -153.37738037109375 -170.4241485595703 382.46990966796875
v -152.9767303466797 -170.89007568359375 384.8160095214844
v -144.80996704101562 -171.4528045654297 384.7698974609375
v -152.9315643310547 -172.6368865966797 385.1715393066406
v -148.89617919921875 -175.6549072265625 384.35491943359375
v -153.183837890625 -174.72915649414062 384.8841552734375
v -154.32400512695312 -175.5846710205078 383.4695739746094
v -154.86517333984375 -176.8353729248047 383.4550476074219
v -150.49276733398438 -176.96827697753906 384.90777587890625
v -149.2823486328125 -175.21298217773438 385.6182556152344
v -155.92994689941406 -179.4545440673828 381.782958984375
v -153.63160705566406 -179.3091583251953 383.25360107421875
v -143.83840942382812 -156.2097625732422 386.8992614746094
v -132.3047637939453 -159.4443359375 385.8165588378906
v -130.88917541503906 -159.29440307617188 385.4404602050781
v -147.38043212890625 -157.57728576660156 386.41357421875
v -131.09121704101562 -159.8002166748047 385.7941589355469
v -135.4491424560547 -159.08262634277344 385.3376159667969
v -149.1839141845703 -159.75152587890625 385.6046142578125
v -132.59176635742188 -162.7833709716797 385.9774169921875
v -133.41163635253906 -163.74131774902344 385.974853515625
v -135.2667236328125 -165.21084594726562 385.47882080078125
v -152.13584899902344 -165.78189086914062 385.3083801269531
v -139.3935546875 -167.00155639648438 386.6764221191406
v -146.70188903808594 -171.9624481201172 386.4171142578125
v -147.93710327148438 -173.56088256835938 385.6371765136719
v -153.7663116455078 -176.5885467529297 384.2721862792969
v -152.3142852783203 -175.58499145507812 385.6766357421875
v -150.86117553710938 -174.98033142089844 386.6077880859375
v -152.61911010742188 -177.67782592773438 384.4049987792969
v -154.2111358642578 -177.95059204101562 383.8565673828125
v -136.69418334960938 -158.1895294189453 386.6443176269531
v -141.28201293945312 -156.26783752441406 387.4387512207031
v -144.64950561523438 -155.97317504882812 387.620361328125
v -146.18223571777344 -156.42919921875 387.35394287109375
v -146.98095703125 -156.68243408203125 388.1724548339844
v -132.35704040527344 -159.63705444335938 387.045166015625
v -134.60606384277344 -158.7066192626953 387.2276916503906
v -148.10914611816406 -158.19384765625 387.9231262207031
v -149.4009246826172 -160.2265167236328 386.99609375
v -150.59364318847656 -162.8397979736328 387.0013732910156
v -151.71624755859375 -165.9167938232422 386.64813232421875
v -151.76034545898438 -170.1895294189453 387.4601135253906
v -144.95159912109375 -170.6298370361328 386.7413024902344
v -143.0616455078125 -168.1896514892578 389.0076599121094
v -151.1663360595703 -172.88856506347656 387.374267578125
v -152.03099060058594 -172.56985473632812 386.67041015625
v -148.1234588623047 -172.24205017089844 387.415283203125
v -149.81077575683594 -174.2312774658203 386.91363525390625
v -144.4051971435547 -154.8946075439453 391.169921875
v -144.28599548339844 -154.91444396972656 390.30963134765625
v -145.35401916503906 -155.3264617919922 390.17523193359375
v -136.6769561767578 -157.17214965820312 389.1149597167969
v -137.026123046875 -156.2322998046875 391.6089782714844
v -136.06289672851562 -156.89390563964844 390.9538879394531
v -141.12118530273438 -155.6495361328125 389.60833740234375
v -134.9126434326172 -158.30479431152344 389.60125732421875
v -147.3233184814453 -157.040771484375 390.6949768066406
v -148.30191040039062 -158.90333557128906 389.5404052734375
v -133.15513610839844 -160.27664184570312 388.510986328125
v -133.74583435058594 -159.22647094726562 388.5630187988281
v -133.48568725585938 -161.55990600585938 388.3177185058594
v -134.84951782226562 -160.5986328125 391.130859375
v -149.3875274658203 -161.44862365722656 388.65142822265625
v -148.071044921875 -160.28273010253906 390.747802734375
v -135.3468780517578 -161.82945251464844 390.91131591796875
v -135.754638671875 -162.89730834960938 390.12799072265625
v -148.85000610351562 -162.57766723632812 389.8660888671875
v -136.09912109375 -163.80990600585938 389.0456237792969
v -147.75607299804688 -162.6825408935547 391.25177001953125
v -148.54197692871094 -165.9013671875 390.27264404296875
v -139.71116638183594 -164.8895721435547 391.28369140625
v -150.90484619140625 -167.53736877441406 388.1795959472656
v -151.1800079345703 -166.20802307128906 387.6330261230469
v -141.58438110351562 -165.74029541015625 391.9289855957031
v -150.48004150390625 -169.17015075683594 388.5621643066406
v -149.4318389892578 -169.27618408203125 389.123779296875
v -144.29078674316406 -167.83067321777344 390.50640869140625
v -146.65951538085938 -170.18553161621094 388.61181640625
v -146.7082977294922 -168.59864807128906 390.15789794921875
v -148.33370971679688 -170.13963317871094 388.9550476074219
v -147.32723999023438 -167.5624237060547 390.61968994140625
v -149.9518280029297 -172.20489501953125 387.97698974609375
v -145.57061767578125 -155.40968322753906 391.4564208984375
v -140.02145385742188 -155.44564819335938 392.4293518066406
v -137.83328247070312 -155.5393829345703 393.96148681640625
v -141.8943328857422 -155.270263671875 391.32135009765625
v -135.70838928222656 -156.9332733154297 392.4839172363281
v -134.70846557617188 -159.1990966796875 391.02752685546875
v -147.0634765625 -158.8878936767578 392.23583984375
v -147.51637268066406 -158.2064666748047 391.4117126464844
v -138.44879150390625 -162.62733459472656 393.80084228515625
v -147.04229736328125 -164.67178344726562 391.6620178222656
v -145.64395141601562 -161.12718200683594 393.90826416015625
v -142.65577697753906 -166.22280883789062 392.06134033203125
v -144.90684509277344 -166.82305908203125 391.7193908691406
v -145.6110076904297 -165.748046875 392.3032531738281
v -143.7684783935547 -155.46401977539062 393.16314697265625
v -145.28623962402344 -155.47055053710938 392.5941162109375
v -137.13319396972656 -155.23983764648438 395.70379638671875
v -141.3755340576172 -155.398193359375 393.52935791015625
v -145.83607482910156 -156.7252655029297 393.07647705078125
v -136.2800750732422 -156.3455810546875 394.8311462402344
v -135.6466522216797 -159.10183715820312 393.81805419921875
v -136.54248046875 -160.7681884765625 394.4100341796875
v -139.91871643066406 -164.0780487060547 392.7628173828125
v -144.74481201171875 -162.55799865722656 394.2843017578125
v -143.47166442871094 -165.52920532226562 393.0600280761719
v -144.3949737548828 -164.60836791992188 393.61614990234375
v -136.30950927734375 -155.40896606445312 395.72747802734375
v -138.95631408691406 -155.331787109375 396.21746826171875
v -140.4082489013672 -155.3436279296875 396.73193359375
v -142.46568298339844 -155.98818969726562 395.25299072265625
v -144.3234100341797 -156.57740783691406 394.23760986328125
v -143.09031677246094 -157.2556610107422 395.9307556152344
v -137.02099609375 -156.46084594726562 396.12701416015625
v -144.7117156982422 -158.6280059814453 394.8128662109375
v -142.6929473876953 -158.29359436035156 396.7099914550781
v -136.84347534179688 -158.82659912109375 395.50836181640625
v -143.7888946533203 -159.79872131347656 395.5351867675781
v -141.51991271972656 -159.54360961914062 397.0780029296875
v -142.5775909423828 -161.40260314941406 395.5286865234375
v -140.1199951171875 -160.2967071533203 396.739990234375
v -139.06825256347656 -160.7301788330078 396.11297607421875
v -140.93089294433594 -162.84913635253906 394.50482177734375
v -142.81544494628906 -163.33831787109375 394.50555419921875
v -138.29080200195312 -155.7525177001953 396.91839599609375
v -141.04690551757812 -155.42355346679688 399.4770202636719
v -141.42706298828125 -155.6217498779297 397.34649658203125
v -139.08929443359375 -156.66415405273438 398.1612243652344
v -141.88491821289062 -156.56668090820312 397.5613708496094
v -138.74420166015625 -158.08006286621094 397.8088073730469
v -140.9733123779297 -157.66160583496094 398.56103515625
v -139.26268005371094 -158.99012756347656 397.7123718261719
v -140.03846740722656 -159.02259826660156 397.9647521972656
v -140.60269165039062 -156.0207061767578 399.40655517578125
vn 0.2525392174720764 -0.2721712589263916 -0.9285185933113098
vn 0.23617655038833618 0.37006625533103943 -0.8984829783439636
vn 0.503603994846344 0.21666862070560455 -0.8363239169120789
vn 0.7020265460014343 -0.24637961387634277 -0.6681734919548035
vn -0.22514404356479645 0.4411981999874115 -0.8687084913253784
vn -0.767135500907898 0.1626594513654709 -0.6205200552940369
vn -0.4748517572879791 -0.41879016160964966 -0.7740352749824524
vn 0.37025776505470276 -0.7432483434677124 -0.5572172999382019
vn -0.05334433913230896 -0.8742963075637817 -0.48245251178741455
vn 0.7316698431968689 0.10951732844114304 -0.6728039383888245
vn 0.5369670987129211 0.42742323875427246 -0.7273072004318237
vn 0.09848593920469284 0.6173973083496094 -0.7804621458053589
vn -0.27726417779922485 0.7130081057548523 -0.6440063118934631
vn -0.5692957639694214 0.6278770565986633 -0.5307285189628601
vn -0.8416134715080261 0.3248177468776703 -0.43148618936538696
vn -0.9384295344352722 -0.11197107285261154 -0.3268219232559204
vn -0.47947198152542114 -0.8204671740531921 -0.31135228276252747
vn -0.8049898743629456 -0.47309422492980957 -0.3580129146575928
vn 0.1376282274723053 -0.9118655323982239 -0.3867295980453491
vn 0.28912627696990967 0.6213356852531433 -0.7282499670982361
vn 0.03613676130771637 0.699097752571106 -0.714112401008606
vn -0.21829824149608612 0.7114421129226685 -0.6679790019989014
vn -0.5166712403297424 0.7039942145347595 -0.4872812032699585
vn 0.8124765157699585 0.237264484167099 -0.532529354095459
vn 0.8779590725898743 0.010360728949308395 -0.47862353920936584
vn -0.9379027485847473 0.24078558385372162 -0.249721497297287
vn 0.8744897246360779 -0.257086843252182 -0.4113078713417053
vn 0.6110906600952148 -0.6634812355041504 -0.4316953718662262
vn -0.8424078226089478 -0.49472078680992126 -0.21354250609874725
vn -0.24280771613121033 -0.9252839684486389 -0.29136568307876587
vn 0.05928312614560127 0.6493560671806335 -0.7581703662872314
vn 0.5198140144348145 0.5111894011497498 -0.684455156326294
vn -0.3643827736377716 0.6613419651985168 -0.6556310653686523
vn -0.5243271589279175 0.6519412994384766 -0.5477715730667114
vn 0.7027549147605896 0.39610540866851807 -0.5909619927406311
vn 0.7978626489639282 0.3554996848106384 -0.4868625998497009
vn 0.8936777710914612 0.26447877287864685 -0.36247891187667847
vn -0.714243471622467 0.5953603982925415 -0.36797040700912476
vn 0.960109531879425 0.12782393395900726 -0.24869823455810547
vn -0.7648754715919495 0.5405424237251282 -0.35039886832237244
vn 0.9453701972961426 -0.18344831466674805 -0.26948457956314087
vn 0.8395383358001709 -0.4761778712272644 -0.26159125566482544
vn -0.6443821787834167 -0.7365649938583374 -0.20553256571292877
vn 0.8264569640159607 -0.5521847009658813 -0.10982217639684677
vn 0.6470434665679932 -0.7304569482803345 -0.2185574769973755
vn 0.3290078043937683 -0.912675678730011 -0.2424396127462387
vn -0.1645863801240921 -0.9725785851478577 -0.16432367265224457
vn -0.44200846552848816 -0.8842077255249023 -0.15101423859596252
vn 0.6012066006660461 -0.7990904450416565 0.0022831184323877096
vn -0.2192569375038147 0.7683870196342468 -0.6012551784515381
vn 0.1632145345211029 0.8586331009864807 -0.4859117865562439
vn 0.5370244979858398 0.6115370392799377 -0.5810570120811462
vn -0.6534770131111145 0.6184329986572266 -0.43647271394729614
vn -0.8192821145057678 0.5149627327919006 -0.25217121839523315
vn -0.8594076633453369 0.4708724915981293 -0.1992427259683609
vn 0.99652099609375 -0.07171940803527832 -0.04245240241289139
vn 0.93956458568573 -0.31716281175613403 -0.12894265353679657
vn -0.9762858748435974 -0.07419107109308243 -0.20337560772895813
vn -0.6184766292572021 -0.7706451416015625 -0.15359912812709808
vn -0.06534157693386078 -0.9944929480552673 0.08194039016962051
vn -0.22287562489509583 -0.9742008447647095 0.03548531234264374
vn 0.2637767195701599 -0.9614374041557312 0.07784641534090042
vn 0.7892072796821594 0.46926647424697876 -0.39615774154663086
vn 0.8826587200164795 0.30945947766304016 -0.3537633717060089
vn -0.47554704546928406 0.7773981094360352 -0.41171255707740784
vn -0.7461601495742798 0.5949980616569519 -0.2987011969089508
vn 0.9969764351844788 0.053570132702589035 0.056288063526153564
vn 0.9802066087722778 0.1591157168149948 -0.11780184507369995
vn -0.8839654922485352 0.44443410634994507 -0.14520123600959778
vn -0.9535893201828003 0.2565667927265167 -0.15761031210422516
vn 0.8719913959503174 -0.4708195626735687 0.1340150237083435
vn 0.6565362811088562 -0.7478170990943909 0.09863988310098648
vn -0.8770670890808105 -0.4392499327659607 -0.19445541501045227
vn 0.35808125138282776 -0.913490891456604 0.1931636929512024
vn 0.07208511978387833 -0.979371190071106 0.18877440690994263
vn -0.41020315885543823 -0.9088462591171265 -0.07570865005254745
vn 0.32440584897994995 0.7944299578666687 -0.5134608149528503
vn 0.5341734290122986 0.724541187286377 -0.43554431200027466
vn -0.021869689226150513 0.8844791054725647 -0.4660670757293701
vn -0.3355667293071747 0.8343058824539185 -0.4374113380908966
vn 0.8477174639701843 0.3928969204425812 -0.35638073086738586
vn 0.9705458283424377 0.13125306367874146 -0.20202359557151794
vn -0.8354220986366272 0.5030978322029114 -0.22127477824687958
vn 0.9983671307563782 -0.056485529989004135 -0.008511118590831757
vn -0.8840785622596741 0.45028597116470337 -0.12509076297283173
vn 0.9733415842056274 -0.1307612508535385 0.18843480944633484
vn -0.9816712737083435 -0.024495068937540054 -0.1890014261007309
vn 0.5792067050933838 -0.7875908613204956 0.21028602123260498
vn 0.7144936323165894 -0.6443766355514526 0.2725393772125244
vn 0.4071457087993622 -0.8810884952545166 0.24065646529197693
vn 0.04108702391386032 -0.9909088611602783 0.1281072348356247
vn -0.6083096861839294 -0.784734845161438 -0.11895610392093658
vn -0.1844998002052307 0.8493044376373291 -0.49461284279823303
vn 0.02189059369266033 0.8410362005233765 -0.5405357480049133
vn -0.6195430755615234 0.6967144012451172 -0.36160117387771606
vn 0.9157935380935669 0.1897095888853073 -0.3540232479572296
vn 0.9873223900794983 -0.02577250450849533 -0.15662173926830292
vn 0.9792259931564331 -0.1417221873998642 0.14502184092998505
vn -0.8844704031944275 0.4511011838912964 -0.11924733221530914
vn 0.9647884368896484 -0.15162284672260284 0.21492721140384674
vn 0.8601996898651123 -0.42449378967285156 0.28259792923927307
vn 0.5490981936454773 -0.7877607345581055 0.27914923429489136
vn -0.827912449836731 -0.5269774198532104 -0.19197890162467957
vn 0.24646660685539246 -0.9465060234069824 0.20828014612197876
vn -0.34925225377082825 -0.9366301894187927 -0.027326229959726334
vn 0.5847541689872742 0.5795925259590149 -0.5675695538520813
vn 0.7150511145591736 0.5395612120628357 -0.44449475407600403
vn -0.8154536485671997 0.5301112532615662 -0.23241662979125977
vn 0.9424561262130737 -0.15247538685798645 -0.29753607511520386
vn 0.9642606973648071 -0.260559618473053 -0.04806286469101906
vn -0.9040302634239197 0.3973503112792969 -0.15761372447013855
vn -0.9274165034294128 0.360664427280426 -0.09909532964229584
vn -0.9206394553184509 0.38112354278564453 -0.08466304838657379
vn -0.9657344222068787 0.24155978858470917 -0.09489957988262177
vn -0.9728833436965942 -0.07666971534490585 -0.21821941435337067
vn -0.13601356744766235 -0.983086884021759 0.12263967096805573
vn 0.4139496386051178 0.7008189558982849 -0.5809463262557983
vn 0.3107360303401947 0.7623028755187988 -0.5677477121353149
vn 0.12671221792697906 0.8601785898208618 -0.4940008223056793
vn -0.09755255281925201 0.8813066482543945 -0.4623658061027527
vn -0.3518703579902649 0.8375837802886963 -0.4179003834724426
vn -0.6669869422912598 0.6884238123893738 -0.284958153963089
vn 0.7734031677246094 0.31276124715805054 -0.551387369632721
vn 0.6462841033935547 0.3923281133174896 -0.6545193195343018
vn 0.7066891193389893 0.04435007646679878 -0.7061328291893005
vn 0.8516508340835571 -0.06464637815952301 -0.5201075077056885
vn 0.7150588035583496 -0.2804289162158966 -0.6403518319129944
vn 0.7198948264122009 -0.513386070728302 -0.46710404753685
vn 0.8361214995384216 -0.5246677398681641 -0.16007697582244873
vn 0.9420180320739746 -0.30892834067344666 0.13101674616336823
vn -0.8893103003501892 0.4496079385280609 -0.08354587852954865
vn 0.9182626605033875 -0.31694620847702026 0.23735810816287994
vn 0.8194235563278198 -0.5193963050842285 0.24243061244487762
vn 0.6815701127052307 -0.682355523109436 0.26429763436317444
vn -0.9547336101531982 -0.2885340452194214 0.07233157008886337
vn -0.6639218926429749 -0.7461175918579102 -0.050162188708782196
vn 0.16101889312267303 -0.9651475548744202 0.2063085436820984
vn 0.28882959485054016 0.8054864406585693 -0.5174640417098999
vn 0.07406874746084213 0.8795344233512878 -0.47003522515296936
vn -0.17146678268909454 0.9023850560188293 -0.39534837007522583
vn 0.5742201805114746 0.2951342463493347 -0.7636537551879883
vn 0.5413855910301208 -0.39389756321907043 -0.7427963614463806
vn 0.5423211455345154 -0.8154230117797852 -0.20241840183734894
vn 0.6850159764289856 -0.7285001277923584 0.006382518447935581
vn 0.8719566464424133 -0.4890839755535126 0.022101853042840958
vn 0.8923875689506531 -0.4009556472301483 0.20707252621650696
vn -0.980135977268219 0.1864897906780243 0.06749153882265091
vn -0.9913567900657654 -0.02873850427567959 0.12800726294517517
vn 0.370610773563385 -0.8884467482566833 0.2707582414150238
vn 0.013961865566670895 -0.9644353985786438 0.2639497220516205
vn -0.354769229888916 -0.8952884078025818 0.26943933963775635
vn 0.4913904368877411 0.5783426761627197 -0.651195228099823
vn 0.29955026507377625 0.6647272109985352 -0.6844029426574707
vn -0.18252836167812347 0.8999623656272888 -0.39591825008392334
vn -0.5037348866462708 0.8108890652656555 -0.2978426218032837
vn 0.37784892320632935 0.3748793601989746 -0.84657883644104
vn 0.3507385849952698 0.0012108386727049947 -0.9364726543426514
vn 0.41318634152412415 0.2288614958524704 -0.8814190030097961
vn 0.5034071207046509 -0.3422401547431946 -0.7933806777000427
vn 0.33087393641471863 0.12568074464797974 -0.9352683424949646
vn -0.9012478590011597 0.410178005695343 -0.13966545462608337
vn 0.3672245740890503 -0.22164903581142426 -0.9033371210098267
vn 0.5100083947181702 0.04161659628152847 -0.8591621518135071
vn 0.35022929310798645 -0.6199916005134583 -0.7021039128303528
vn 0.4000093936920166 -0.7991828918457031 -0.4486638307571411
vn 0.2752719521522522 -0.954761803150177 -0.11249575763940811
vn 0.17774447798728943 -0.9147194027900696 -0.3628985285758972
vn 0.4281270205974579 -0.9025177955627441 0.04657115787267685
vn 0.8222688436508179 -0.555050790309906 0.12566867470741272
vn -0.9202479124069214 0.39065805077552795 0.023025721311569214
vn 0.7096192836761475 -0.6647983193397522 0.23341740667819977
vn 0.49389195442199707 -0.831827700138092 0.25324568152427673
vn -0.952178955078125 -0.20502521097660065 0.22653909027576447
vn 0.14758943021297455 -0.930190920829773 0.33609849214553833
vn -0.7625375390052795 -0.5687961578369141 0.3082328140735626
vn 0.16737018525600433 0.6974815726280212 -0.696783185005188
vn 0.16664980351924896 0.8169306516647339 -0.5521342158317566
vn 0.08931484073400497 0.7775418162345886 -0.6224560737609863
vn 0.021003244444727898 0.8880295157432556 -0.459306538105011
vn -0.1926805078983307 0.8640263080596924 -0.46511587500572205
vn -0.40914204716682434 0.8341530561447144 -0.36985325813293457
vn 0.3840092718601227 0.4532603323459625 -0.8044202327728271
vn 0.24788489937782288 0.5195752382278442 -0.8176764249801636
vn 0.2370849996805191 0.6269605755805969 -0.7420991659164429
vn -0.7964287400245667 0.5773257613182068 -0.17998948693275452
vn 0.6957440972328186 0.19637233018875122 -0.6909255981445312
vn 0.7007136344909668 0.04060310497879982 -0.7122862935066223
vn 0.8941065073013306 -0.0027619844768196344 -0.44784578680992126
vn 0.9599151611328125 -0.12426932901144028 -0.25123700499534607
vn 0.8650319576263428 -0.4074885845184326 -0.2926991581916809
vn -0.9570019245147705 0.28576886653900146 -0.04983466863632202
vn 0.5441513061523438 -0.8365083336830139 -0.06444534659385681
vn 0.2639789283275604 -0.9316062331199646 -0.24985000491142273
vn 0.09092020988464355 -0.9891997575759888 0.11496677994728088
vn 0.25134986639022827 -0.9602358937263489 0.12153300642967224
vn -0.9206385612487793 0.3875926733016968 -0.04686717689037323
vn 0.6327632069587708 -0.7608545422554016 0.14391328394412994
vn -0.9157304763793945 0.39337241649627686 0.08182855695486069
vn 0.8766221404075623 -0.43836504220962524 0.19841818511486053
vn 0.8484146595001221 -0.46581771969795227 0.2514090836048126
vn 0.3197873532772064 -0.8996863961219788 0.2971540689468384
vn -0.2563212215900421 -0.8740309476852417 0.4127582907676697
vn 0.29969722032546997 0.6972227096557617 -0.651200532913208
vn 0.615971565246582 0.41502517461776733 -0.66957688331604
vn 0.13789090514183044 0.7445067763328552 -0.6532195210456848
vn -0.01750173233449459 0.8196077942848206 -0.5726576447486877
vn -0.4766845405101776 0.73237144947052 -0.48621389269828796
vn -0.6452288627624512 0.7053899765014648 -0.29343611001968384
vn 0.9342830181121826 -0.008023098111152649 -0.35644200444221497
vn 0.9845955967903137 -0.17297860980033875 -0.02549479342997074
vn 0.8508315682411194 -0.4350818693637848 0.29460054636001587
vn 0.9109389781951904 -0.3981727361679077 0.10792919993400574
vn -0.959555983543396 0.2814702093601227 -0.005184687674045563
vn 0.7004896402359009 -0.6642950177192688 0.2608189284801483
vn 0.40927112102508545 -0.816209077835083 0.40779900550842285
vn 0.2101607769727707 -0.9119181036949158 0.3524739146232605
vn 0.1858457326889038 -0.9274172186851501 0.3245900571346283
vn 0.27816149592399597 -0.9255681037902832 0.2568071782588959
vn -0.9450457096099854 0.3187878131866455 0.07254581153392792
vn -0.9350305795669556 0.28979042172431946 0.20430225133895874
vn -0.94664067029953 0.04825004190206528 0.31865888833999634
vn -0.7490032315254211 -0.46494919061660767 0.4720343351364136
vn 0.41265860199928284 -0.8416919708251953 0.3482349216938019
vn 0.16810902953147888 -0.864945113658905 0.4728734493255615
vn -0.05088236555457115 -0.8545694947242737 0.5168384313583374
vn 0.5580224990844727 0.5481632947921753 -0.6229991316795349
vn 0.18888358771800995 0.7844787836074829 -0.5906911492347717
vn 0.13929401338100433 0.7777106165885925 -0.6129955053329468
vn 0.035128992050886154 0.7452829480171204 -0.6658222675323486
vn -0.18418855965137482 0.7557601928710938 -0.628411591053009
vn 0.9073523879051208 0.01061165239661932 -0.4202369153499603
vn 0.9472193717956543 -0.2772231996059418 -0.1610056310892105
vn 0.9282736778259277 -0.3712712824344635 -0.021580098196864128
vn 0.8055713772773743 -0.48430001735687256 0.34133315086364746
vn -0.9231886267662048 0.3836160898208618 -0.02369673363864422
vn 0.503275454044342 -0.6620290279388428 0.5553659796714783
vn 0.2878112196922302 -0.8329296708106995 0.4726446270942688
vn 0.3199993073940277 -0.8796559572219849 0.3518606722354889
vn 0.46870481967926025 -0.8546639084815979 0.22330573201179504
vn 0.6569549441337585 -0.7123307585716248 0.2469719499349594
vn 0.7666037678718567 -0.6050422191619873 0.21504098176956177
vn -0.9248988628387451 0.2288263440132141 0.3036455512046814
vn -0.9020850658416748 0.31159570813179016 0.29858097434043884
vn -0.8722611665725708 0.08178427070379257 0.4821533262729645
vn 0.6391744613647461 -0.6473345756530762 0.4152277112007141
vn 0.2192430943250656 -0.7223877310752869 0.6558113098144531
vn -0.34161293506622314 -0.6910568475723267 0.6369781494140625
vn 0.09627348184585571 0.7943880558013916 -0.599732518196106
vn 0.2173127681016922 0.8107365369796753 -0.5435820817947388
vn -0.45726633071899414 0.7746748328208923 -0.43679100275039673
vn -0.246048703789711 0.8234274387359619 -0.511299729347229
vn -0.3914114832878113 0.6847655177116394 -0.614730179309845
vn -0.6789671182632446 0.6379799842834473 -0.3632976710796356
vn 0.21967440843582153 0.8713617920875549 -0.43871620297431946
vn 0.40784645080566406 0.6557647585868835 -0.635321855545044
vn 0.9216251373291016 -0.06196419149637222 -0.3831026554107666
vn 0.162761390209198 0.8480648398399353 -0.5042765140533447
vn -0.06509917229413986 0.7734546065330505 -0.6304998993873596
vn -0.7654483914375305 0.5837923884391785 -0.2706940472126007
vn -0.8560025095939636 0.5092294812202454 -0.0891350582242012
vn -0.8925981521606445 0.44884949922561646 0.04245902597904205
vn 0.8665276765823364 -0.49437686800956726 0.06871239095926285
vn 0.7383987903594971 -0.6325119137763977 0.23387187719345093
vn 0.5476319193840027 -0.6568042039871216 0.5183701515197754
vn -0.9745332598686218 0.2038043588399887 0.0935354009270668
vn 0.4290027320384979 -0.7157161831855774 0.5510962605476379
vn 0.37420228123664856 -0.737054169178009 0.5627822279930115
vn 0.42181381583213806 -0.7906686663627625 0.44375234842300415
vn -0.9670118689537048 0.21754387021064758 0.13252446055412292
vn -0.9367175698280334 0.10272014886140823 0.3346772789955139
vn 0.446918785572052 -0.8339908719062805 0.32360923290252686
vn -0.8883051872253418 0.05702513828873634 0.45569947361946106
vn 0.7640124559402466 -0.5389077663421631 0.35477232933044434
vn -0.8168277740478516 0.04311583936214447 0.5752682089805603
vn -0.8081790208816528 0.24971993267536163 0.5333728790283203
vn -0.7798909544944763 0.13313376903533936 0.6115926504135132
vn 0.443885862827301 -0.6387262344360352 0.6284856200218201
vn 0.6090190410614014 -0.5926088690757751 0.5271722674369812
vn -0.6856606602668762 -0.27091431617736816 0.6756292581558228
vn -0.16181963682174683 -0.650065004825592 0.7424485683441162
vn -0.015159337781369686 0.887152910232544 -0.46122658252716064
vn 0.19558478891849518 0.9745244383811951 -0.10976699739694595
vn 0.6879801154136658 0.6927427053451538 -0.216311976313591
vn -0.6189013123512268 0.7540140151977539 -0.22005483508110046
vn 0.9188412427902222 -0.17551809549331665 0.35344618558883667
vn 0.18344151973724365 0.9196487665176392 -0.34726864099502563
vn -0.827700674533844 0.5535567998886108 -0.0921221449971199
vn 0.7368019223213196 -0.5410182476043701 0.405489981174469
vn 0.6374513506889343 -0.6890608668327332 0.3447475731372833
vn 0.540615439414978 -0.7369771003723145 0.40570899844169617
vn -0.9423373937606812 0.26676395535469055 0.20208220183849335
vn 0.474265992641449 -0.7624752521514893 0.4401174783706665
vn 0.5438673496246338 -0.7272943258285522 0.41863033175468445
vn 0.68219393491745 -0.6210793852806091 0.3858393430709839
vn -0.5973989963531494 -0.06435390561819077 0.7993578314781189
vn -0.5635485053062439 -0.2691402733325958 0.7810100317001343
vn -0.08892696350812912 -0.5205296277999878 0.8492001295089722
vn -0.21475568413734436 -0.47384050488471985 0.8540229797363281
vn -0.5181148052215576 -0.2630373537540436 0.8138602375984192
vn 0.2690669000148773 0.8687072992324829 -0.4158734083175659
vn 0.19777187705039978 0.893013060092926 -0.4042450189590454
vn -0.18469016253948212 0.9079245328903198 -0.3762481212615967
vn -0.3867562413215637 0.8647300004959106 -0.32040876150131226
vn -0.6585688591003418 0.7438710927963257 -0.11376713216304779
vn 0.553970217704773 0.6768984198570251 0.4846911132335663
vn 0.3575901687145233 0.9172543883323669 -0.17542444169521332
vn -0.8315838575363159 0.5553972721099854 -0.0015106004429981112
vn -0.8868597745895386 0.4433685541152954 0.13001598417758942
vn -0.8961774706840515 0.35346218943595886 0.2681986093521118
vn -0.8887085318565369 0.16009753942489624 0.42961132526397705
vn -0.7372675538063049 -0.06615839898586273 0.6723538041114807
vn 0.4518047571182251 -0.7693567276000977 0.45162227749824524
vn 0.4408313035964966 -0.7827661037445068 0.4392551779747009
vn -0.4709075093269348 -0.2605001628398895 0.8428438901901245
vn -0.7930290102958679 -0.07072918117046356 0.6050639748573303
vn 0.41668856143951416 -0.5949894189834595 0.6872833371162415
vn 0.3101707994937897 -0.5482625365257263 0.7766609787940979
vn -0.1516895890235901 0.9832000136375427 0.10152862221002579
vn -0.016271736472845078 0.9752063155174255 -0.2206987887620926
vn -0.40054693818092346 0.9024844169616699 -0.15837937593460083
vn 0.39398884773254395 0.8743299841880798 -0.28340789675712585
vn 0.33721885085105896 0.9175838232040405 -0.21053123474121094
vn 0.5560292601585388 0.8050844073295593 -0.20656877756118774
vn 0.21781887114048004 0.9520211219787598 -0.2149668186903
vn 0.7064656615257263 0.706802487373352 -0.03655828908085823
vn -0.8012663125991821 0.5284571051597595 0.28054505586624146
vn -0.9136521816253662 0.3230516314506531 0.24673324823379517
vn 0.8294172883033752 0.1323622167110443 0.5427220463752747
vn 0.651242196559906 0.7185103297233582 0.2441857010126114
vn 0.7640743851661682 -0.4034373462200165 0.5034170746803284
vn 0.8531126379966736 -0.25589054822921753 0.45466354489326477
vn -0.8735817074775696 0.24635592103004456 0.41971880197525024
vn -0.8638350963592529 0.09590162336826324 0.4945622682571411
vn 0.7494503259658813 -0.4925234019756317 0.44243061542510986
vn 0.62833172082901 -0.6345993876457214 0.44998106360435486
vn -0.7880101799964905 0.07743199169635773 0.6107735633850098
vn 0.5381358861923218 -0.7148773670196533 0.4464976191520691
vn -0.7636614441871643 -0.031167473644018173 0.6448641419410706
vn -0.6184461116790771 -0.0884397029876709 0.7808347344398499
vn 0.47795090079307556 -0.7676512002944946 0.42693644762039185
vn -0.7506722211837769 0.045458484441041946 0.6591090559959412
vn -0.8279597163200378 0.12947258353233337 0.5456369519233704
vn 0.4254074692726135 -0.73175048828125 0.5325126051902771
vn -0.5758540034294128 -0.11611396074295044 0.8092649579048157
vn -0.37836676836013794 -0.27488115429878235 0.8838998675346375
vn 0.24692313373088837 -0.7725557684898376 0.5849671363830566
vn 0.2639780044555664 -0.7039904594421387 0.6593276858329773
vn -0.08170304447412491 -0.5979880690574646 0.7973299026489258
vn -0.003801193553954363 -0.5319838523864746 0.8467459678649902
vn -0.3797997534275055 -0.3588864803314209 0.852615237236023
vn -0.014836566522717476 -0.4230886399745941 0.9059668779373169
vn -0.5667412877082825 0.8215044140815735 0.06272716075181961
vn 0.10428332537412643 0.9912289381027222 -0.08118008077144623
vn 0.08620519936084747 0.9834770560264587 -0.1591905951499939
vn 0.1474127173423767 0.9882462620735168 -0.040482569485902786
vn 0.7747924327850342 0.6317739486694336 -0.023630699142813683
vn 0.9188012480735779 0.2570141553878784 0.2995798885822296
vn -0.7718505859375 0.15240022540092468 0.6172689199447632
vn -0.8365827798843384 0.2693439722061157 0.47705668210983276
vn 0.42041704058647156 -0.727429211139679 0.5423065423965454
vn -0.619369387626648 -0.2013789713382721 0.7588334083557129
vn -0.6932463645935059 -0.08791080117225647 0.7153189778327942
vn 0.31693023443222046 -0.743350088596344 0.5890551209449768
vn -0.04988904297351837 -0.6649743318557739 0.7451981902122498
vn -0.3965097963809967 -0.4353337287902832 0.8082478642463684
vn -0.20533663034439087 0.8867747187614441 0.41408631205558777
vn -0.493952214717865 0.7592757940292358 0.42368802428245544
vn 0.3034307658672333 0.9520087838172913 -0.040113482624292374
vn -0.045301198959350586 0.9915761351585388 0.12134523689746857
vn -0.7124326229095459 0.3597047030925751 0.6025382280349731
vn 0.9489049315452576 0.27592748403549194 0.15311279892921448
vn 0.8812561631202698 -0.09580785781145096 0.46282660961151123
vn 0.6773952841758728 -0.48086148500442505 0.5566937923431396
vn 0.3774873614311218 -0.7281873822212219 0.5720546841621399
vn -0.5075307488441467 -0.27762192487716675 0.8156828284263611
vn 0.07680711150169373 -0.6614759564399719 0.7460229396820068
vn -0.24533699452877045 -0.491449236869812 0.8356359601020813
vn 0.7278712391853333 0.492179274559021 0.47745487093925476
vn 0.06679626554250717 0.9939382672309875 0.08732161670923233
vn -0.15535621345043182 0.9878578782081604 0.0011437722714617848
vn -0.5095279812812805 0.7969582676887512 0.32440534234046936
vn -0.5343604683876038 0.5433764457702637 0.6474573612213135
vn -0.720933198928833 0.37364959716796875 0.5836449265480042
vn 0.7546468377113342 -0.035263024270534515 0.6551830172538757
vn -0.6927807927131653 0.1394929587841034 0.7075285315513611
vn -0.6960440874099731 -0.05776442587375641 0.7156716585159302
vn 0.7306861877441406 -0.22995403409004211 0.6428210139274597
vn -0.554755449295044 -0.19935470819473267 0.8077772855758667
vn -0.382575124502182 -0.48131847381591797 0.7886500358581543
vn -0.20621246099472046 -0.4629748463630676 0.8620503544807434
vn 0.028021009638905525 -0.6634638905525208 0.7476834058761597
vn 0.2906568646430969 -0.6600507497787476 0.6927132606506348
vn 0.20735512673854828 -0.6521385908126831 0.7291907668113708
vn 0.025768574327230453 -0.5153608918190002 0.856585681438446
vn 0.4854489862918854 0.5912065505981445 0.6440606713294983
vn -0.33094242215156555 0.754550039768219 0.5666846036911011
vn -0.6203460097312927 0.7776911854743958 0.10182010382413864
vn 0.6717545986175537 0.1620107889175415 0.7228404879570007
vn -0.8616407513618469 0.2416924387216568 0.44627347588539124
vn 0.5790188908576965 -0.20822621881961823 0.788275957107544
vn -0.51339191198349 -0.34518489241600037 0.785669207572937
vn 0.4244422912597656 -0.5009925961494446 0.7542248964309692
vn 0.06480468064546585 -0.5184020400047302 0.8526779413223267
vn 0.3690547049045563 -0.09450812637805939 0.9245901107788086
f 1//1 2//2 3//3
f 4//4 1//1 3//3
f 5//5 2//2 1//1
f 6//6 5//5 7//7
f 7//7 5//5 1//1
f 8//8 1//1 4//4
f 1//1 8//8 9//9
f 7//7 1//1 9//9
f 10//10 3//3 11//11
f 2//2 12//12 3//3
f 12//12 11//11 3//3
f 5//5 12//12 2//2
f 13//13 12//12 5//5
f 13//13 5//5 14//14
f 14//14 5//5 6//6
f 15//15 14//14 6//6
f 3//3 10//10 4//4
f 15//15 6//6 16//16
f 7//7 17//17 18//18
f 7//7 18//18 6//6
f 6//6 18//18 16//16
f 9//9 8//8 19//19
f 17//17 7//7 9//9
f 12//12 20//20 11//11
f 21//21 20//20 12//12
f 21//21 12//12 22//22
f 12//12 13//13 22//22
f 14//14 23//23 13//13
f 13//13 23//23 22//22
f 11//11 24//24 10//10
f 24//24 25//25 10//10
f 15//15 16//16 26//26
f 10//10 25//25 4//4
f 25//25 27//27 4//4
f 28//28 4//4 27//27
f 4//4 28//28 8//8
f 16//16 18//18 29//29
f 8//8 28//28 19//19
f 9//9 19//19 30//30
f 9//9 30//30 17//17
f 31//31 32//32 20//20
f 33//33 31//31 22//22
f 22//22 31//31 20//20
f 34//34 33//33 22//22
f 35//35 32//32 36//36
f 37//37 35//35 36//36
f 20//20 35//35 11//11
f 20//20 32//32 35//35
f 22//22 20//20 21//21
f 38//38 34//34 23//23
f 24//24 35//35 37//37
f 39//39 24//24 37//37
f 35//35 24//24 11//11
f 23//23 34//34 22//22
f 23//23 14//14 40//40
f 23//23 40//40 38//38
f 25//25 24//24 39//39
f 41//41 25//25 39//39
f 14//14 15//15 40//40
f 40//40 15//15 26//26
f 27//27 25//25 41//41
f 42//42 27//27 41//41
f 27//27 42//42 28//28
f 18//18 43//43 29//29
f 42//42 44//44 45//45
f 28//28 42//42 45//45
f 28//28 46//46 19//19
f 45//45 46//46 28//28
f 19//19 47//47 30//30
f 46//46 47//47 19//19
f 47//47 48//48 30//30
f 48//48 17//17 30//30
f 43//43 18//18 17//17
f 48//48 43//43 17//17
f 45//45 49//49 46//46
f 50//50 51//51 52//52
f 50//50 52//52 31//31
f 36//36 32//32 52//52
f 31//31 52//52 32//32
f 50//50 31//31 33//33
f 33//33 53//53 50//50
f 33//33 34//34 53//53
f 53//53 34//34 38//38
f 53//53 38//38 54//54
f 55//55 54//54 38//38
f 40//40 55//55 38//38
f 55//55 40//40 26//26
f 41//41 39//39 56//56
f 57//57 41//41 56//56
f 57//57 44//44 41//41
f 44//44 42//42 41//41
f 26//26 16//16 58//58
f 29//29 43//43 59//59
f 16//16 29//29 58//58
f 45//45 44//44 49//49
f 47//47 60//60 61//61
f 47//47 61//61 48//48
f 59//59 43//43 48//48
f 46//46 49//49 62//62
f 60//60 47//47 62//62
f 62//62 47//47 46//46
f 52//52 63//63 64//64
f 53//53 65//65 50//50
f 52//52 64//64 36//36
f 64//64 37//37 36//36
f 66//66 53//53 54//54
f 39//39 67//67 56//56
f 39//39 68//68 67//67
f 39//39 37//37 68//68
f 69//69 54//54 55//55
f 55//55 26//26 70//70
f 71//71 57//57 56//56
f 26//26 58//58 70//70
f 71//71 44//44 57//57
f 71//71 72//72 44//44
f 58//58 29//29 73//73
f 49//49 44//44 72//72
f 62//62 49//49 74//74
f 49//49 72//72 74//74
f 62//62 75//75 60//60
f 74//74 75//75 62//62
f 60//60 75//75 61//61
f 48//48 61//61 76//76
f 48//48 76//76 59//59
f 73//73 29//29 59//59
f 77//77 78//78 79//79
f 79//79 65//65 80//80
f 78//78 81//81 63//63
f 78//78 63//63 52//52
f 51//51 78//78 52//52
f 79//79 78//78 51//51
f 50//50 79//79 51//51
f 65//65 79//79 50//50
f 63//63 81//81 64//64
f 53//53 66//66 65//65
f 82//82 64//64 81//81
f 82//82 37//37 64//64
f 66//66 54//54 83//83
f 83//83 54//54 69//69
f 37//37 82//82 68//68
f 82//82 84//84 68//68
f 68//68 84//84 67//67
f 69//69 55//55 85//85
f 67//67 86//86 56//56
f 86//86 71//71 56//56
f 85//85 55//55 70//70
f 87//87 58//58 73//73
f 70//70 58//58 87//87
f 71//71 88//88 72//72
f 71//71 89//89 88//88
f 74//74 72//72 88//88
f 90//90 74//74 88//88
f 61//61 75//75 91//91
f 75//75 74//74 91//91
f 73//73 59//59 92//92
f 92//92 59//59 76//76
f 93//93 94//94 77//77
f 77//77 79//79 93//93
f 93//93 79//79 80//80
f 95//95 80//80 65//65
f 95//95 65//65 66//66
f 81//81 96//96 82//82
f 96//96 97//97 82//82
f 84//84 82//82 97//97
f 84//84 98//98 67//67
f 99//99 69//69 85//85
f 86//86 67//67 100//100
f 67//67 98//98 100//100
f 71//71 86//86 101//101
f 101//101 89//89 71//71
f 88//88 89//89 102//102
f 102//102 90//90 88//88
f 87//87 73//73 103//103
f 74//74 90//90 104//104
f 74//74 104//104 91//91
f 76//76 61//61 105//105
f 61//61 91//91 105//105
f 76//76 105//105 92//92
f 103//103 73//73 92//92
f 77//77 106//106 107//107
f 77//77 107//107 78//78
f 93//93 80//80 95//95
f 81//81 107//107 96//96
f 78//78 107//107 81//81
f 95//95 83//83 108//108
f 66//66 83//83 95//95
f 96//96 109//109 97//97
f 109//109 110//110 97//97
f 83//83 69//69 111//111
f 111//111 69//69 112//112
f 110//110 84//84 97//97
f 86//86 100//100 101//101
f 70//70 113//113 85//85
f 114//114 113//113 70//70
f 70//70 87//87 114//114
f 114//114 87//87 115//115
f 87//87 103//103 115//115
f 105//105 91//91 116//116
f 105//105 103//103 92//92
f 117//117 118//118 119//119
f 120//120 119//119 94//94
f 94//94 119//119 118//118
f 121//121 120//120 94//94
f 117//117 106//106 118//118
f 77//77 118//118 106//106
f 94//94 118//118 77//77
f 121//121 94//94 93//93
f 121//121 93//93 95//95
f 121//121 95//95 122//122
f 122//122 95//95 108//108
f 123//123 106//106 124//124
f 125//125 123//123 124//124
f 107//107 123//123 96//96
f 107//107 106//106 123//123
f 126//126 123//123 125//125
f 127//127 126//126 125//125
f 96//96 126//126 109//109
f 123//123 126//126 96//96
f 126//126 127//127 128//128
f 128//128 109//109 126//126
f 128//128 129//129 109//109
f 129//129 110//110 109//109
f 130//130 84//84 110//110
f 112//112 69//69 99//99
f 84//84 130//130 98//98
f 131//131 99//99 85//85
f 131//131 85//85 113//113
f 100//100 132//132 101//101
f 132//132 133//133 101//101
f 89//89 134//134 102//102
f 101//101 134//134 89//89
f 101//101 133//133 134//134
f 135//135 114//114 115//115
f 115//115 103//103 136//136
f 136//136 135//135 115//115
f 137//137 91//91 104//104
f 137//137 116//116 91//91
f 136//136 103//103 105//105
f 136//136 105//105 116//116
f 117//117 119//119 138//138
f 138//138 119//119 139//139
f 120//120 140//140 119//119
f 119//119 140//140 139//139
f 140//140 120//120 121//121
f 106//106 117//117 124//124
f 125//125 124//124 141//141
f 83//83 111//111 108//108
f 142//142 127//127 125//125
f 127//127 142//142 128//128
f 143//143 129//129 128//128
f 144//144 129//129 143//143
f 145//145 110//110 129//129
f 145//145 129//129 144//144
f 110//110 145//145 130//130
f 112//112 99//99 131//131
f 130//130 132//132 98//98
f 132//132 100//100 98//98
f 132//132 146//146 133//133
f 113//113 114//114 147//147
f 135//135 148//148 114//114
f 148//148 147//147 114//114
f 102//102 149//149 90//90
f 90//90 149//149 104//104
f 104//104 149//149 137//137
f 116//116 137//137 150//150
f 136//136 116//116 151//151
f 151//151 135//135 136//136
f 152//152 138//138 153//153
f 152//152 117//117 138//138
f 154//154 139//139 140//140
f 121//121 122//122 155//155
f 121//121 155//155 140//140
f 152//152 153//153 156//156
f 152//152 124//124 117//117
f 157//157 158//158 159//159
f 157//157 160//160 158//158
f 158//158 160//160 156//156
f 152//152 156//156 141//141
f 152//152 141//141 124//124
f 161//161 108//108 111//111
f 162//162 157//157 159//159
f 160//160 157//157 162//162
f 156//156 160//160 163//163
f 163//163 160//160 162//162
f 125//125 141//141 163//163
f 141//141 156//156 163//163
f 161//161 111//111 112//112
f 164//164 162//162 159//159
f 164//164 165//165 142//142
f 164//164 142//142 162//162
f 162//162 142//142 163//163
f 163//163 142//142 125//125
f 142//142 165//165 128//128
f 165//165 143//143 128//128
f 166//166 165//165 167//167
f 143//143 165//165 166//166
f 168//168 143//143 166//166
f 168//168 144//144 143//143
f 145//145 144//144 169//169
f 169//169 130//130 145//145
f 130//130 146//146 132//132
f 131//131 113//113 170//170
f 147//147 170//170 113//113
f 146//146 171//171 133//133
f 133//133 171//171 134//134
f 102//102 134//134 172//172
f 172//172 149//149 102//102
f 147//147 148//148 173//173
f 137//137 149//149 174//174
f 137//137 174//174 150//150
f 175//175 148//148 135//135
f 175//175 173//173 148//148
f 150//150 151//151 116//116
f 135//135 151//151 175//175
f 176//176 177//177 178//178
f 177//177 139//139 179//179
f 139//139 154//154 179//179
f 179//179 154//154 180//180
f 154//154 155//155 181//181
f 154//154 181//181 180//180
f 182//182 183//183 184//184
f 184//184 183//183 176//176
f 177//177 176//176 153//153
f 138//138 177//177 153//153
f 139//139 177//177 138//138
f 154//154 140//140 155//155
f 185//185 155//155 122//122
f 183//183 182//182 158//158
f 158//158 182//182 186//186
f 153//153 176//176 183//183
f 161//161 185//185 108//108
f 185//185 122//122 108//108
f 187//187 186//186 188//188
f 189//189 187//187 188//188
f 158//158 187//187 159//159
f 158//158 186//186 187//187
f 156//156 183//183 158//158
f 153//153 183//183 156//156
f 189//189 190//190 187//187
f 187//187 190//190 159//159
f 161//161 112//112 191//191
f 192//192 159//159 190//190
f 159//159 193//193 164//164
f 192//192 193//193 159//159
f 193//193 167//167 164//164
f 164//164 167//167 165//165
f 193//193 194//194 167//167
f 166//166 167//167 194//194
f 194//194 195//195 166//166
f 112//112 131//131 196//196
f 168//168 166//166 195//195
f 168//168 197//197 144//144
f 197//197 169//169 144//144
f 196//196 131//131 198//198
f 130//130 199//199 146//146
f 131//131 170//170 198//198
f 200//200 171//171 146//146
f 171//171 172//172 134//134
f 149//149 201//201 174//174
f 149//149 172//172 201//201
f 151//151 150//150 202//202
f 150//150 174//174 202//202
f 151//151 202//202 175//175
f 184//184 203//203 204//204
f 203//203 184//184 205//205
f 184//184 204//204 182//182
f 184//184 176//176 205//205
f 178//178 205//205 176//176
f 206//206 178//178 177//177
f 179//179 206//206 177//177
f 180//180 206//206 179//179
f 180//180 181//181 207//207
f 208//208 181//181 155//155
f 186//186 204//204 209//209
f 182//182 204//204 186//186
f 208//208 155//155 185//185
f 188//188 186//186 209//209
f 210//210 188//188 209//209
f 189//189 188//188 210//210
f 211//211 189//189 210//210
f 189//189 211//211 212//212
f 190//190 189//189 212//212
f 191//191 112//112 213//213
f 190//190 212//212 214//214
f 190//190 214//214 192//192
f 215//215 192//192 214//214
f 112//112 196//196 213//213
f 193//193 192//192 216//216
f 192//192 215//215 216//216
f 193//193 216//216 194//194
f 194//194 216//216 217//217
f 195//195 194//194 218//218
f 194//194 217//217 218//218
f 213//213 196//196 219//219
f 196//196 198//198 219//219
f 169//169 199//199 130//130
f 199//199 200//200 146//146
f 198//198 170//170 220//220
f 220//220 170//170 147//147
f 221//221 220//220 147//147
f 147//147 173//173 221//221
f 221//221 173//173 222//222
f 172//172 171//171 223//223
f 172//172 223//223 201//201
f 174//174 201//201 224//224
f 174//174 225//225 202//202
f 174//174 224//224 225//225
f 202//202 222//222 175//175
f 175//175 222//222 173//173
f 226//226 204//204 203//203
f 205//205 227//227 203//203
f 227//227 205//205 228//228
f 205//205 178//178 228//228
f 206//206 229//229 178//178
f 206//206 230//230 229//229
f 180//180 230//230 206//206
f 180//180 207//207 230//230
f 204//204 231//231 209//209
f 204//204 226//226 231//231
f 181//181 208//208 207//207
f 231//231 232//232 233//233
f 233//233 209//209 231//231
f 234//234 211//211 210//210
f 234//234 210//210 233//233
f 233//233 210//210 209//209
f 161//161 235//235 185//185
f 235//235 161//161 191//191
f 212//212 211//211 214//214
f 214//214 236//236 215//215
f 215//215 237//237 216//216
f 216//216 237//237 217//217
f 237//237 238//238 217//217
f 238//238 218//218 217//217
f 168//168 195//195 239//239
f 195//195 218//218 239//239
f 239//239 197//197 168//168
f 240//240 197//197 239//239
f 197//197 240//240 241//241
f 169//169 197//197 241//241
f 241//241 199//199 169//169
f 198//198 242//242 219//219
f 198//198 243//243 242//242
f 198//198 220//220 243//243
f 243//243 220//220 244//244
f 220//220 221//221 244//244
f 171//171 200//200 245//245
f 223//223 171//171 245//245
f 245//245 246//246 223//223
f 246//246 224//224 223//223
f 223//223 224//224 201//201
f 202//202 225//225 247//247
f 247//247 222//222 202//202
f 248//248 249//249 228//228
f 248//248 228//228 229//229
f 250//250 251//251 252//252
f 250//250 252//252 253//253
f 226//226 254//254 255//255
f 226//226 255//255 256//256
f 227//227 254//254 226//226
f 227//227 228//228 257//257
f 254//254 227//227 257//257
f 258//258 248//248 229//229
f 251//251 258//258 230//230
f 230//230 258//258 229//229
f 252//252 251//251 230//230
f 253//253 252//252 207//207
f 253//253 207//207 259//259
f 231//231 226//226 256//256
f 231//231 256//256 232//232
f 227//227 226//226 203//203
f 229//229 228//228 178//178
f 207//207 252//252 230//230
f 207//207 208//208 259//259
f 259//259 208//208 185//185
f 259//259 185//185 260//260
f 260//260 185//185 261//261
f 233//233 232//232 262//262
f 233//233 262//262 263//263
f 261//261 185//185 235//235
f 233//233 263//263 234//234
f 234//234 264//264 211//211
f 235//235 191//191 265//265
f 264//264 236//236 211//211
f 266//266 236//236 264//264
f 191//191 213//213 265//265
f 211//211 236//236 214//214
f 267//267 236//236 266//266
f 268//268 267//267 266//266
f 213//213 269//269 265//265
f 265//265 269//269 270//270
f 267//267 215//215 236//236
f 237//237 215//215 267//267
f 268//268 237//237 267//267
f 237//237 268//268 238//238
f 213//213 219//219 269//269
f 238//238 271//271 218//218
f 271//271 239//239 218//218
f 242//242 270//270 269//269
f 272//272 270//270 242//242
f 269//269 219//219 242//242
f 273//273 199//199 241//241
f 274//274 272//272 242//242
f 273//273 200//200 199//199
f 242//242 275//275 274//274
f 243//243 276//276 275//275
f 243//243 275//275 242//242
f 273//273 245//245 200//200
f 277//277 273//273 278//278
f 245//245 273//273 277//277
f 276//276 243//243 244//244
f 277//277 246//246 245//245
f 279//279 244//244 221//221
f 221//221 222//222 279//279
f 224//224 280//280 225//225
f 246//246 280//280 224//224
f 225//225 280//280 247//247
f 279//279 247//247 280//280
f 279//279 222//222 247//247
f 248//248 258//258 281//281
f 258//258 251//251 281//281
f 255//255 254//254 282//282
f 255//255 282//282 283//283
f 257//257 228//228 249//249
f 250//250 253//253 284//284
f 256//256 283//283 285//285
f 283//283 256//256 255//255
f 257//257 286//286 254//254
f 253//253 259//259 287//287
f 287//287 259//259 260//260
f 285//285 262//262 256//256
f 262//262 232//232 256//256
f 288//288 289//289 262//262
f 262//262 289//289 263//263
f 234//234 263//263 290//290
f 263//263 289//289 290//290
f 235//235 291//291 261//261
f 234//234 290//290 264//264
f 290//290 292//292 264//264
f 264//264 292//292 266//266
f 291//291 235//235 265//265
f 292//292 268//268 266//266
f 291//291 265//265 270//270
f 238//238 268//268 271//271
f 239//239 271//271 293//293
f 293//293 240//240 239//239
f 294//294 240//240 293//293
f 241//241 240//240 294//294
f 294//294 273//273 241//241
f 278//278 273//273 294//294
f 295//295 274//274 275//275
f 295//295 296//296 274//274
f 275//275 276//276 295//295
f 246//246 297//297 298//298
f 277//277 297//297 246//246
f 296//296 298//298 297//297
f 296//296 295//295 298//298
f 295//295 299//299 298//298
f 295//295 276//276 299//299
f 280//280 246//246 298//298
f 280//280 298//298 299//299
f 244//244 279//279 299//299
f 276//276 244//244 299//299
f 279//279 280//280 299//299
f 257//257 249//249 300//300
f 300//300 249//249 301//301
f 248//248 301//301 249//249
f 281//281 301//301 248//248
f 251//251 302//302 281//281
f 303//303 302//302 251//251
f 303//303 284//284 304//304
f 303//303 251//251 284//284
f 251//251 250//250 284//284
f 283//283 305//305 285//285
f 283//283 282//282 305//305
f 286//286 306//306 254//254
f 254//254 306//306 282//282
f 306//306 286//286 300//300
f 284//284 287//287 307//307
f 253//253 287//287 284//284
f 257//257 300//300 286//286
f 287//287 260//260 308//308
f 285//285 288//288 262//262
f 260//260 261//261 308//308
f 261//261 291//291 309//309
f 309//309 291//291 310//310
f 291//291 270//270 310//310
f 310//310 270//270 311//311
f 292//292 312//312 268//268
f 292//292 313//313 312//312
f 268//268 312//312 271//271
f 293//293 271//271 312//312
f 314//314 311//311 315//315
f 270//270 272//272 315//315
f 311//311 270//270 315//315
f 293//293 316//316 294//294
f 272//272 274//274 315//315
f 294//294 316//316 278//278
f 316//316 317//317 278//278
f 296//296 314//314 315//315
f 297//297 314//314 296//296
f 315//315 274//274 296//296
f 277//277 317//317 297//297
f 278//278 317//317 277//277
f 318//318 319//319 320//320
f 321//321 322//322 323//323
f 321//321 301//301 324//324
f 322//322 321//321 324//324
f 281//281 319//319 301//301
f 301//301 319//319 324//324
f 319//319 281//281 302//302
f 319//319 302//302 320//320
f 302//302 303//303 320//320
f 303//303 304//304 320//320
f 321//321 323//323 325//325
f 301//301 321//321 300//300
f 304//304 284//284 307//307
f 304//304 307//307 326//326
f 326//326 307//307 327//327
f 305//305 328//328 285//285
f 328//328 305//305 329//329
f 329//329 305//305 282//282
f 325//325 306//306 321//321
f 325//325 329//329 306//306
f 329//329 282//282 306//306
f 300//300 321//321 306//306
f 308//308 307//307 287//287
f 308//308 327//327 307//307
f 328//328 330//330 285//285
f 328//328 331//331 330//330
f 332//332 327//327 308//308
f 333//333 327//327 332//332
f 285//285 330//330 288//288
f 334//334 330//330 331//331
f 334//334 335//335 330//330
f 335//335 288//288 330//330
f 333//333 332//332 336//336
f 308//308 261//261 309//309
f 308//308 309//309 332//332
f 289//289 288//288 337//337
f 337//337 288//288 335//335
f 338//338 336//336 339//339
f 309//309 310//310 332//332
f 289//289 337//337 290//290
f 290//290 340//340 292//292
f 290//290 337//337 340//340
f 341//341 339//339 336//336
f 332//332 342//342 336//336
f 342//342 341//341 336//336
f 332//332 310//310 342//342
f 292//292 340//340 313//313
f 313//313 340//340 343//343
f 341//341 344//344 339//339
f 344//344 345//345 339//339
f 310//310 311//311 341//341
f 342//342 310//310 341//341
f 312//312 313//313 346//346
f 347//347 312//312 346//346
f 347//347 348//348 349//349
f 350//350 349//349 348//348
f 350//350 345//345 349//349
f 311//311 344//344 341//341
f 293//293 312//312 347//347
f 293//293 347//347 316//316
f 316//316 347//347 349//349
f 345//345 351//351 349//349
f 351//351 316//316 349//349
f 311//311 314//314 345//345
f 344//344 311//311 345//345
f 317//317 316//316 351//351
f 345//345 314//314 351//351
f 297//297 317//317 351//351
f 351//351 314//314 297//297
f 352//352 318//318 320//320
f 324//324 353//353 322//322
f 322//322 353//353 354//354
f 324//324 355//355 353//353
f 355//355 324//324 319//319
f 326//326 352//352 304//304
f 304//304 352//352 320//320
f 325//325 323//323 356//356
f 329//329 357//357 328//328
f 329//329 325//325 357//357
f 325//325 356//356 357//357
f 328//328 357//357 331//331
f 333//333 358//358 359//359
f 338//338 358//358 333//333
f 359//359 327//327 333//333
f 336//336 338//338 333//333
f 337//337 360//360 340//340
f 337//337 335//335 360//360
f 339//339 361//361 338//338
f 361//361 362//362 338//338
f 339//339 345//345 350//350
f 361//361 339//339 350//350
f 313//313 343//343 363//363
f 313//313 363//363 346//346
f 347//347 364//364 348//348
f 347//347 346//346 364//364
f 365//365 348//348 364//364
f 365//365 350//350 348//348
f 366//366 318//318 367//367
f 367//367 318//318 352//352
f 356//356 323//323 322//322
f 356//356 322//322 368//368
f 322//322 354//354 368//368
f 355//355 369//369 353//353
f 318//318 355//355 319//319
f 318//318 369//369 355//355
f 366//366 369//369 318//318
f 367//367 352//352 326//326
f 370//370 367//367 326//326
f 359//359 358//358 326//326
f 358//358 370//370 326//326
f 326//326 327//327 359//359
f 356//356 371//371 357//357
f 371//371 372//372 357//357
f 373//373 331//331 372//372
f 372//372 331//331 357//357
f 362//362 358//358 338//338
f 331//331 373//373 334//334
f 334//334 373//373 335//335
f 373//373 360//360 335//335
f 340//340 360//360 374//374
f 362//362 361//361 375//375
f 340//340 374//374 343//343
f 361//361 350//350 365//365
f 375//375 361//361 365//365
f 346//346 376//376 364//364
f 363//363 376//376 346//346
f 377//377 364//364 376//376
f 377//377 365//365 364//364
f 378//378 371//371 368//368
f 368//368 371//371 356//356
f 368//368 354//354 379//379
f 354//354 353//353 379//379
f 369//369 380//380 353//353
f 353//353 380//380 379//379
f 369//369 381//381 380//380
f 366//366 381//381 369//369
f 366//366 382//382 381//381
f 366//366 367//367 382//382
f 383//383 381//381 382//382
f 367//367 370//370 382//382
f 372//372 371//371 384//384
f 385//385 383//383 382//382
f 386//386 383//383 385//385
f 370//370 385//385 382//382
f 387//387 372//372 384//384
f 388//388 389//389 386//386
f 386//386 385//385 388//388
f 370//370 358//358 385//385
f 373//373 372//372 387//387
f 390//390 391//391 389//389
f 389//389 388//388 390//390
f 388//388 375//375 390//390
f 385//385 362//362 388//388
f 362//362 375//375 388//388
f 358//358 362//362 385//385
f 360//360 392//392 393//393
f 391//391 393//393 392//392
f 391//391 390//390 393//393
f 390//390 394//394 393//393
f 375//375 377//377 390//390
f 377//377 394//394 390//390
f 393//393 374//374 360//360
f 375//375 365//365 377//377
f 374//374 393//393 343//343
f 363//363 343//343 393//393
f 363//363 393//393 376//376
f 376//376 393//393 394//394
f 377//377 376//376 394//394
f 368//368 395//395 378//378
f 396//396 380//380 397//397
f 371//371 378//378 384//384
f 398//398 384//384 395//395
f 384//384 378//378 395//395
f 396//396 379//379 380//380
f 396//396 395//395 379//379
f 368//368 379//379 395//395
f 397//397 380//380 381//381
f 397//397 381//381 399//399
f 399//399 381//381 383//383
f 400//400 384//384 398//398
f 387//387 384//384 400//400
f 386//386 399//399 383//383
f 401//401 399//399 386//386
f 400//400 402//402 387//387
f 402//402 373//373 387//387
f 389//389 403//403 401//401
f 386//386 389//389 401//401
f 392//392 373//373 402//402
f 391//391 392//392 402//402
f 403//403 391//391 402//402
f 389//389 391//391 403//403
f 373//373 392//392 360//360
f 395//395 404//404 398//398
f 395//395 396//396 404//404
f 397//397 399//399 396//396
f 404//404 400//400 398//398
f 401//401 404//404 396//396
f 401//401 396//396 399//399
f 402//402 400//400 403//403
f 403//403 400//400 404//404
f 401//401 403//403 404//404
