# Generated by Visualization Toolkit
v -110.83550262451172 -145.630615234375 342.52667236328125
v -110.70903015136719 -146.0090789794922 344.63165283203125
v -110.41983032226562 -146.45648193359375 344.2859802246094
v -110.83231353759766 -147.2344512939453 345.4741516113281
v -112.61199951171875 -145.75006103515625 342.3114013671875
v -109.41095733642578 -148.53697204589844 345.9570617675781
v -108.02729797363281 -148.58447265625 344.9195251464844
v -107.06228637695312 -149.62405395507812 344.9578552246094
v -103.60425567626953 -141.97714233398438 347.8612060546875
v -105.788818359375 -141.5558624267578 348.395751953125
v -104.34066009521484 -140.3888397216797 349.6971130371094
v -103.33099365234375 -142.4921112060547 348.3981018066406
v -102.67852020263672 -142.01394653320312 348.6659851074219
v -109.98709869384766 -145.82205200195312 348.0290832519531
v -109.5859603881836 -146.49839782714844 347.1526794433594
v -111.14381408691406 -145.94174194335938 345.7372131347656
v -111.50093841552734 -146.39898681640625 345.7103271484375
v -108.93085479736328 -147.06834411621094 347.8180847167969
v -108.44076538085938 -147.9651336669922 348.27093505859375
v -109.51897430419922 -147.5760955810547 345.62933349609375
v -111.35309600830078 -147.20277404785156 346.899658203125
v -110.83033752441406 -148.68943786621094 346.66796875
v -109.43846893310547 -149.20570373535156 347.07452392578125
v -110.70188903808594 -149.10252380371094 349.41796875
v -107.35540008544922 -149.92459106445312 346.0693054199219
v -105.36885070800781 -139.8439178466797 351.2354736328125
v -105.965087890625 -140.59036254882812 349.5294494628906
v -102.75019073486328 -142.4245147705078 350.47259521484375
v -106.78182220458984 -143.19789123535156 350.02386474609375
v -110.71784973144531 -145.58853149414062 348.1593017578125
v -111.47510528564453 -146.14869689941406 349.0811462402344
v -111.572509765625 -147.4171600341797 349.62774658203125
v -108.44499969482422 -148.7368621826172 348.94171142578125
v -111.12792205810547 -148.69906616210938 350.1778564453125
v -108.99608612060547 -149.32571411132812 348.4949645996094
v -103.31924438476562 -140.2471466064453 352.3343811035156
v -107.51116943359375 -140.56324768066406 350.61920166015625
v -107.91387176513672 -139.97128295898438 351.98883056640625
v -108.19705963134766 -141.8890838623047 350.3209228515625
v -110.11331939697266 -141.39149475097656 352.3008728027344
v -108.57750701904297 -143.4583740234375 350.1684265136719
v -111.3056411743164 -143.102783203125 351.54925537109375
v -110.04821014404297 -143.25807189941406 350.5840148925781
v -105.17464447021484 -143.60806274414062 351.16607666015625
v -107.30606842041016 -145.21505737304688 351.7908020019531
v -107.9653091430664 -144.44505310058594 350.4453430175781
v -109.59059143066406 -144.65164184570312 349.6800231933594
v -110.94776916503906 -144.69677734375 350.0091552734375
v -111.88481140136719 -144.957275390625 351.3875732421875
v -108.7115249633789 -145.66444396972656 349.8243103027344
v -108.23431396484375 -146.58250427246094 350.9226379394531
v -108.60124206542969 -147.664306640625 351.4904479980469
v -109.38540649414062 -148.92520141601562 350.7521667480469
v -111.91449737548828 -146.196533203125 352.8169860839844
v -102.98609924316406 -140.2653045654297 352.949951171875
v -105.20366668701172 -139.68214416503906 353.7571716308594
v -103.10613250732422 -140.70545959472656 353.55352783203125
v -111.6268310546875 -141.5708465576172 354.7964782714844
v -103.76544189453125 -142.03395080566406 354.3527526855469
v -113.85871887207031 -143.2424774169922 354.46038818359375
v -103.97867584228516 -143.02406311035156 352.8612060546875
v -105.5765151977539 -144.40890502929688 352.7373046875
v -105.34439086914062 -144.4507293701172 354.7751159667969
v -112.78852844238281 -144.2281036376953 353.3549499511719
v -107.7457046508789 -146.19285583496094 353.831298828125
v -113.26254272460938 -143.96713256835938 355.2843322753906
v -108.87798309326172 -146.67190551757812 354.8935852050781
v -110.27560424804688 -147.8690185546875 352.953369140625
v -111.08171081542969 -146.8960418701172 353.9984436035156
v -105.16771697998047 -140.44757080078125 355.61004638671875
v -107.86820983886719 -139.98907470703125 354.2162170410156
v -106.5032958984375 -139.95523071289062 355.2519836425781
v -112.93904113769531 -143.1262664794922 355.8230895996094
v -109.73582458496094 -141.33908081054688 356.7477111816406
v -104.9311752319336 -143.25157165527344 356.0728759765625
v -106.37822723388672 -144.26185607910156 357.5879821777344
v -107.3480224609375 -145.39764404296875 357.03485107421875
v -110.93869018554688 -145.5533447265625 356.6472473144531
v -112.40458679199219 -144.46728515625 356.317138671875
v -107.09627532958984 -141.21902465820312 357.3453369140625
v -105.55020904541016 -141.63681030273438 356.8787841796875
v -105.50836944580078 -142.7355499267578 357.2183532714844
v -109.22562408447266 -141.7720184326172 357.48321533203125
v -108.39007568359375 -145.5647430419922 357.6603698730469
v -107.92272186279297 -143.48609924316406 359.2801818847656
v -107.32891082763672 -143.78981018066406 359.3003234863281
v -110.45082092285156 -143.46426391601562 357.8741149902344
v -109.58740234375 -144.3629150390625 358.43658447265625
vn 0.8632174730300903 0.35556095838546753 -0.3583742678165436
vn 0.6002475619316101 0.7975202798843384 -0.060533490031957626
vn 0.872984766960144 -0.02877270057797432 -0.4868980646133423
vn -0.3753776550292969 -0.7423223853111267 -0.5550217032432556
vn -0.9976617097854614 0.029010726138949394 0.061883579939603806
vn -0.36576512455940247 -0.5891692638397217 -0.7204828858375549
vn 0.40247687697410583 0.5101051926612854 -0.7601349353790283
vn 0.6305800676345825 -0.5643817186355591 -0.5327683687210083
vn 0.17312632501125336 -0.06924840062856674 -0.9824622273445129
vn -0.3948483169078827 0.34091153740882874 -0.8531553745269775
vn 0.20814646780490875 0.865387499332428 -0.455828458070755
vn 0.33348020911216736 -0.8383016586303711 -0.4313250184059143
vn 0.9216865301132202 0.18115998804569244 -0.3430379033088684
vn 0.4087987542152405 0.8430561423301697 -0.34948527812957764
vn 0.7470674514770508 0.5918417572975159 -0.3026774823665619
vn -0.17133361101150513 0.9824063181877136 0.07431478798389435
vn -0.9909011125564575 0.12654417753219604 0.04584331810474396
vn 0.8245574235916138 0.49911198019981384 -0.2664436101913452
vn 0.9628563523292542 0.26918265223503113 0.021174797788262367
vn 0.4034908711910248 0.0945025086402893 -0.9100903272628784
vn -0.9535821080207825 -0.2571989893913269 -0.15662014484405518
vn -0.6959091424942017 -0.645797610282898 -0.31409549713134766
vn -0.33125782012939453 -0.910082221031189 -0.24903547763824463
vn -0.3007957935333252 -0.9472525119781494 0.11061037331819534
vn 0.24232788383960724 -0.9534093737602234 0.1796879917383194
vn -0.00472454447299242 0.9693228602409363 -0.24574553966522217
vn -0.1919725090265274 0.8386372327804565 -0.5097393989562988
vn 0.7798770666122437 -0.6223928332328796 0.06647587567567825
vn -0.044671885669231415 -0.5868637561798096 -0.8084524869918823
vn -0.37561777234077454 0.8752908706665039 -0.3045937418937683
vn -0.9326804876327515 0.3080885112285614 -0.18758624792099
vn -0.981507420539856 -0.17235809564590454 -0.08328256011009216
vn 0.8899937868118286 -0.3302367925643921 0.3144116699695587
vn -0.7480581402778625 -0.645116925239563 0.1556704044342041
vn 0.11761309206485748 -0.9745780229568481 0.19069591164588928
vn 0.6348215937614441 0.7418411374092102 -0.2160402536392212
vn -0.43704596161842346 0.708918035030365 -0.5535577535629272
vn -0.31652215123176575 0.9249297380447388 -0.21052026748657227
vn -0.46947231888771057 0.29497361183166504 -0.8322177529335022
vn -0.5588716864585876 0.6780253052711487 -0.47743505239486694
vn -0.027581728994846344 0.10413876920938492 -0.9941802620887756
vn -0.658185601234436 0.4250371754169464 -0.6213977336883545
vn -0.3247376084327698 0.4515523612499237 -0.8310511112213135
vn 0.41338062286376953 -0.8659688830375671 -0.28145045042037964
vn 0.6603063344955444 -0.5983006358146667 -0.45390743017196655
vn 0.45939865708351135 -0.20939691364765167 -0.8631951212882996
vn 0.17931313812732697 0.5467451214790344 -0.8178732395172119
vn -0.568324863910675 0.5846701264381409 -0.5789368152618408
vn -0.9300594925880432 0.13064183294773102 -0.3433978855609894
vn 0.7810623645782471 0.2740923762321472 -0.5610836744308472
vn 0.9672511219978333 -0.15027308464050293 -0.20455648005008698
vn 0.8731309771537781 -0.4646287262439728 0.14752086997032166
vn 0.35453614592552185 -0.8768505454063416 0.32471102476119995
vn -0.9224100708961487 -0.38570377230644226 -0.019806480035185814
vn 0.7146825194358826 0.678471028804779 0.17001765966415405
vn 0.11328975111246109 0.9896341562271118 0.08825962245464325
vn 0.9543853998184204 0.07956372201442719 0.2877815067768097
vn -0.5176705121994019 0.851786732673645 0.08047795295715332
vn 0.8797683715820312 -0.23461748659610748 0.4134758710861206
vn -0.9390093684196472 0.31309881806373596 -0.14223405718803406
vn 0.7260149717330933 -0.6843900680541992 0.06717506051063538
vn 0.5961894392967224 -0.7807113528251648 -0.187210813164711
vn 0.6892197132110596 -0.712456226348877 0.13184262812137604
vn -0.8947486877441406 -0.24838975071907043 -0.37111639976501465
vn 0.6755335927009583 -0.7373214960098267 0.003390547353774309
vn -0.8596376180648804 -0.44824832677841187 0.24514617025852203
vn 0.4510704278945923 -0.8420385718345642 0.2958151400089264
vn -0.1620045304298401 -0.8976032137870789 0.40995490550994873
vn -0.6393768787384033 -0.6985135674476624 0.32136595249176025
vn 0.41610604524612427 0.7326083779335022 0.5386471748352051
vn -0.24282613396644592 0.9609548449516296 0.13266971707344055
vn -0.02201404981315136 0.9289500117301941 0.36955001950263977
vn -0.67988520860672 0.31498757004737854 0.6622227430343628
vn -0.33516934514045715 0.8202069997787476 0.46359679102897644
vn 0.831595242023468 -0.42133402824401855 0.3618384301662445
vn 0.7181808948516846 -0.5381962060928345 0.44109079241752625
vn 0.5081135630607605 -0.799641489982605 0.31999093294143677
vn -0.41151198744773865 -0.724960207939148 0.5523500442504883
vn -0.6932955980300903 -0.40118229389190674 0.5986602306365967
vn 0.08058726787567139 0.746330738067627 0.6606786251068115
vn 0.6318309903144836 0.34625592827796936 0.6934670209884644
vn 0.7619093656539917 0.07066097855567932 0.643817663192749
vn -0.35103458166122437 0.6170849204063416 0.7042590975761414
vn 0.09037637710571289 -0.8358013033866882 0.5415425300598145
vn 0.0024319819640368223 0.39021679759025574 0.9207198023796082
vn 0.36588335037231445 -0.44637608528137207 0.8166258931159973
vn -0.5359236598014832 0.24634622037410736 0.807526707649231
vn -0.4397079646587372 -0.3386538028717041 0.8318476676940918
f 1//1 2//2 3//3
f 1//1 3//3 4//4
f 1//1 4//4 5//5
f 6//6 7//7 8//8
f 9//9 10//10 11//11
f 12//12 9//9 13//13
f 2//2 14//14 15//15
f 3//3 2//2 15//15
f 1//1 16//16 2//2
f 2//2 16//16 14//14
f 17//17 16//16 5//5
f 5//5 16//16 1//1
f 7//7 18//18 19//19
f 7//7 20//20 18//18
f 18//18 20//20 15//15
f 15//15 20//20 3//3
f 20//20 4//4 3//3
f 17//17 4//4 21//21
f 17//17 5//5 4//4
f 19//19 8//8 7//7
f 7//7 6//6 20//20
f 22//22 4//4 6//6
f 4//4 20//20 6//6
f 4//4 22//22 21//21
f 6//6 8//8 23//23
f 22//22 6//6 23//23
f 22//22 23//23 24//24
f 23//23 8//8 25//25
f 26//26 11//11 27//27
f 13//13 9//9 11//11
f 11//11 10//10 27//27
f 28//28 12//12 13//13
f 9//9 29//29 10//10
f 29//29 9//9 12//12
f 16//16 30//30 14//14
f 30//30 16//16 17//17
f 31//31 30//30 17//17
f 17//17 21//21 31//31
f 31//31 21//21 32//32
f 8//8 33//33 25//25
f 8//8 19//19 33//33
f 34//34 32//32 22//22
f 22//22 32//32 21//21
f 35//35 25//25 33//33
f 25//25 35//35 23//23
f 35//35 24//24 23//23
f 22//22 24//24 34//34
f 11//11 26//26 36//36
f 27//27 37//37 26//26
f 26//26 37//37 38//38
f 36//36 13//13 11//11
f 10//10 37//37 27//27
f 10//10 39//39 37//37
f 40//40 38//38 37//37
f 39//39 40//40 37//37
f 10//10 29//29 39//39
f 29//29 41//41 39//39
f 42//42 40//40 39//39
f 42//42 39//39 43//43
f 43//43 39//39 41//41
f 12//12 28//28 44//44
f 29//29 12//12 44//44
f 45//45 29//29 44//44
f 45//45 46//46 29//29
f 29//29 46//46 41//41
f 43//43 41//41 47//47
f 47//47 41//41 46//46
f 42//42 43//43 48//48
f 48//48 43//43 47//47
f 42//42 48//48 49//49
f 50//50 46//46 45//45
f 51//51 50//50 45//45
f 14//14 50//50 15//15
f 14//14 47//47 50//50
f 47//47 46//46 50//50
f 30//30 47//47 14//14
f 48//48 47//47 30//30
f 48//48 30//30 31//31
f 48//48 31//31 49//49
f 49//49 31//31 32//32
f 18//18 50//50 51//51
f 18//18 51//51 19//19
f 19//19 51//51 52//52
f 15//15 50//50 18//18
f 19//19 52//52 33//33
f 52//52 53//53 33//33
f 54//54 32//32 34//34
f 35//35 33//33 53//53
f 24//24 35//35 53//53
f 55//55 36//36 56//56
f 26//26 56//56 36//36
f 26//26 38//38 56//56
f 36//36 57//57 13//13
f 55//55 57//57 36//36
f 58//58 38//38 40//40
f 13//13 57//57 28//28
f 28//28 57//57 59//59
f 58//58 40//40 60//60
f 60//60 40//40 42//42
f 28//28 59//59 61//61
f 28//28 61//61 44//44
f 62//62 61//61 63//63
f 62//62 44//44 61//61
f 44//44 62//62 45//45
f 49//49 64//64 42//42
f 64//64 60//60 42//42
f 65//65 62//62 63//63
f 65//65 45//45 62//62
f 65//65 51//51 45//45
f 64//64 54//54 66//66
f 64//64 49//49 54//54
f 49//49 32//32 54//54
f 60//60 64//64 66//66
f 67//67 53//53 52//52
f 67//67 52//52 65//65
f 65//65 52//52 51//51
f 67//67 68//68 53//53
f 68//68 69//69 34//34
f 34//34 69//69 54//54
f 34//34 24//24 68//68
f 24//24 53//53 68//68
f 70//70 55//55 56//56
f 56//56 38//38 71//71
f 72//72 56//56 71//71
f 57//57 55//55 70//70
f 38//38 58//58 71//71
f 58//58 73//73 74//74
f 60//60 66//66 73//73
f 60//60 73//73 58//58
f 61//61 75//75 63//63
f 61//61 59//59 75//75
f 75//75 76//76 63//63
f 77//77 65//65 63//63
f 69//69 78//78 79//79
f 69//69 66//66 54//54
f 69//69 79//79 66//66
f 65//65 77//77 67//67
f 78//78 69//69 68//68
f 56//56 72//72 70//70
f 70//70 80//80 81//81
f 70//70 81//81 57//57
f 72//72 80//80 70//70
f 71//71 74//74 72//72
f 72//72 74//74 80//80
f 58//58 74//74 71//71
f 82//82 75//75 59//59
f 82//82 59//59 81//81
f 81//81 59//59 57//57
f 74//74 73//73 83//83
f 75//75 82//82 76//76
f 73//73 66//66 79//79
f 63//63 76//76 77//77
f 67//67 77//77 84//84
f 68//68 67//67 84//84
f 84//84 78//78 68//68
f 80//80 74//74 83//83
f 85//85 81//81 80//80
f 85//85 82//82 81//81
f 85//85 86//86 82//82
f 83//83 85//85 80//80
f 83//83 87//87 85//85
f 83//83 73//73 87//87
f 86//86 76//76 82//82
f 85//85 88//88 86//86
f 85//85 87//87 88//88
f 73//73 79//79 88//88
f 87//87 73//73 88//88
f 76//76 86//86 77//77
f 84//84 77//77 86//86
f 84//84 86//86 88//88
f 78//78 84//84 88//88
f 79//79 78//78 88//88
