# Generated by Visualization Toolkit
v -206.83935546875 -199.36648559570312 374.9952087402344
v -210.2799835205078 -199.44752502441406 374.9944763183594
v -207.56698608398438 -198.49444580078125 375.46063232421875
v -205.51368713378906 -200.3628387451172 375.0738830566406
v -207.92877197265625 -200.65171813964844 374.59820556640625
v -205.1776123046875 -201.29151916503906 375.0660095214844
v -206.41880798339844 -202.0895233154297 374.8092346191406
v -209.25350952148438 -202.0606231689453 374.8643798828125
v -210.97181701660156 -201.70899963378906 375.2731628417969
v -210.4343719482422 -196.91793823242188 376.74169921875
v -211.58648681640625 -195.26187133789062 378.756591796875
v -209.43763732910156 -195.81239318847656 377.79986572265625
v -212.94764709472656 -195.61453247070312 378.4367370605469
v -206.00851440429688 -197.35952758789062 377.1495666503906
v -211.64210510253906 -198.1459197998047 376.2091064453125
v -214.25714111328125 -197.1035614013672 377.98956298828125
v -204.54214477539062 -197.8217315673828 377.3402404785156
v -214.25991821289062 -198.25906372070312 377.4091796875
v -203.1580047607422 -199.4415283203125 377.6265869140625
v -212.54371643066406 -200.31309509277344 376.0716857910156
v -215.05731201171875 -200.0626983642578 377.623779296875
v -201.79086303710938 -201.68753051757812 378.5023498535156
v -203.1809539794922 -201.53163146972656 376.8453674316406
v -213.278076171875 -202.5198516845703 376.63665771484375
v -202.30203247070312 -203.54383850097656 377.7711181640625
v -201.48483276367188 -202.62289428710938 379.0784912109375
v -204.1565704345703 -203.76620483398438 376.6233825683594
v -205.89019775390625 -204.10247802734375 376.10540771484375
v -208.3837127685547 -203.6206817626953 375.50836181640625
v -212.15887451171875 -203.9872283935547 376.61376953125
v -207.53443908691406 -204.55067443847656 376.23626708984375
v -211.04176330566406 -204.8219757080078 376.853759765625
v -214.97479248046875 -204.00840759277344 378.32513427734375
v -202.7357635498047 -204.6243896484375 378.4293518066406
v -205.92498779296875 -205.2451171875 377.263671875
v -210.3723907470703 -205.74671936035156 377.6600646972656
v -212.81105041503906 -206.19627380371094 378.9170227050781
v -214.62612915039062 -205.28585815429688 379.05950927734375
v -209.03431701660156 -194.8184814453125 380.6066589355469
v -206.8836212158203 -195.8472900390625 379.4336242675781
v -210.7743377685547 -194.7176971435547 379.94427490234375
v -203.605712890625 -197.86366271972656 379.1043701171875
v -216.6892547607422 -196.94993591308594 379.9349060058594
v -215.3748321533203 -195.6507110595703 380.26068115234375
v -217.9088134765625 -198.93798828125 380.1654968261719
v -201.38381958007812 -200.85411071777344 380.2138671875
v -217.09689331054688 -201.77435302734375 379.4832763671875
v -201.59906005859375 -204.13958740234375 380.0747985839844
v -202.47450256347656 -204.9664306640625 379.6972351074219
v -204.78860473632812 -205.7075958251953 378.7730712890625
v -207.8846893310547 -206.45616149902344 378.957275390625
v -206.72047424316406 -206.7434539794922 380.2506103515625
v -210.77249145507812 -206.81402587890625 379.5840759277344
v -213.63462829589844 -206.5861358642578 380.0886535644531
v -207.3272247314453 -195.25914001464844 381.48529052734375
v -213.32901000976562 -194.09213256835938 382.018310546875
v -215.11476135253906 -194.33607482910156 382.5227966308594
v -204.4586181640625 -197.0438995361328 381.8488464355469
v -203.12083435058594 -198.23899841308594 381.200439453125
v -201.61105346679688 -200.3437042236328 381.0856628417969
v -201.1531982421875 -202.81927490234375 381.2561950683594
v -219.41705322265625 -201.14450073242188 381.77593994140625
v -218.50762939453125 -202.8266143798828 381.2723388671875
v -217.69525146484375 -203.9857940673828 381.1955261230469
v -202.95492553710938 -205.41287231445312 381.914794921875
v -204.43753051757812 -206.0980682373047 380.82110595703125
v -205.32400512695312 -206.68467712402344 382.1871032714844
v -209.1224365234375 -207.32275390625 382.61236572265625
v -211.9987335205078 -207.35568237304688 382.46435546875
v -211.5157012939453 -193.82205200195312 383.5745544433594
v -214.8297576904297 -193.75559997558594 384.13031005859375
v -217.85299682617188 -195.81712341308594 382.6955261230469
v -207.01185607910156 -195.46730041503906 383.1786804199219
v -204.9873046875 -196.96243286132812 384.7590026855469
v -219.172119140625 -197.68646240234375 382.2529296875
v -220.6011962890625 -196.7379150390625 384.5782165527344
v -220.95022583007812 -197.68804931640625 384.00469970703125
v -203.02609252929688 -198.796142578125 384.0742492675781
v -220.53848266601562 -199.10345458984375 383.1340026855469
v -201.37184143066406 -201.2745819091797 382.5606994628906
v -221.5545196533203 -199.99871826171875 384.237548828125
v -221.12771606445312 -202.28619384765625 383.9730529785156
v -201.69696044921875 -203.52244567871094 383.7592468261719
v -220.9949951171875 -203.5787353515625 384.3679504394531
v -202.1320343017578 -204.41998291015625 383.8309020996094
v -220.03524780273438 -204.51356506347656 384.0909729003906
v -217.57034301757812 -205.16488647460938 382.2645263671875
v -205.2950439453125 -206.29360961914062 385.0509033203125
v -216.44606018066406 -206.11050415039062 382.4747009277344
v -218.27069091796875 -206.28335571289062 384.63604736328125
v -206.62599182128906 -206.8909149169922 384.39111328125
v -216.25662231445312 -207.20986938476562 386.2289123535156
v -216.5048065185547 -206.8471221923828 384.51678466796875
v -213.1992950439453 -193.47300720214844 385.8644104003906
v -211.07615661621094 -193.94065856933594 385.80108642578125
v -218.22312927246094 -194.8220977783203 385.16900634765625
v -217.85202026367188 -194.0670623779297 386.89337158203125
v -208.26473999023438 -195.1692657470703 385.4494934082031
v -206.6046142578125 -196.33798217773438 385.885986328125
v -204.95436096191406 -197.73104858398438 386.0477294921875
v -203.08523559570312 -199.46218872070312 385.1258239746094
v -223.0450897216797 -198.95944213867188 386.44512939453125
v -222.80604553222656 -201.179931640625 386.0290832519531
v -224.26229858398438 -200.1166534423828 388.3846740722656
v -201.79779052734375 -202.0299072265625 384.08514404296875
v -202.78709411621094 -202.62136840820312 385.8022155761719
v -203.2939910888672 -204.2238006591797 386.0204772949219
v -220.8035888671875 -205.13792419433594 386.31463623046875
v -212.7004852294922 -207.28623962402344 386.13922119140625
v -211.20143127441406 -194.25997924804688 389.20843505859375
v -210.2521514892578 -194.61441040039062 387.7845764160156
v -213.712158203125 -193.43731689453125 388.5425109863281
v -216.38189697265625 -193.46690368652344 389.2090148925781
v -218.7841339111328 -193.7009735107422 390.2516174316406
v -209.52523803710938 -195.68460083007812 389.1438903808594
v -222.0663604736328 -195.71722412109375 388.6659240722656
v -221.68508911132812 -194.96461486816406 389.75421142578125
v -203.62380981445312 -200.13038635253906 386.245361328125
v -205.18032836914062 -198.3164825439453 386.9129943847656
v -204.32199096679688 -201.45782470703125 387.2945251464844
v -222.85255432128906 -202.89027404785156 387.17657470703125
v -224.1710662841797 -201.6896514892578 388.6964416503906
v -204.2962188720703 -202.96282958984375 387.35089111328125
v -204.4217071533203 -204.30885314941406 387.0805969238281
v -222.59243774414062 -204.53074645996094 388.7411193847656
v -206.3603515625 -206.131591796875 386.42694091796875
v -219.80282592773438 -206.59872436523438 388.1874694824219
v -210.23019409179688 -206.1148223876953 388.2972412109375
v -209.81773376464844 -206.7297821044922 386.7381591796875
v -212.52810668945312 -206.97080993652344 388.0199890136719
v -213.08245849609375 -193.8668975830078 390.91766357421875
v -220.8662109375 -194.06190490722656 391.17626953125
v -208.2510986328125 -197.18653869628906 389.31182861328125
v -224.2620086669922 -196.82345581054688 390.2071533203125
v -208.13717651367188 -198.5838623046875 390.0623779296875
v -225.1625213623047 -198.39576721191406 390.51385498046875
v -207.9186248779297 -199.75222778320312 390.130615234375
v -207.6455841064453 -201.45037841796875 389.8133850097656
v -207.68667602539062 -203.39703369140625 389.24346923828125
v -209.56759643554688 -202.71983337402344 391.3222961425781
v -224.15008544921875 -203.2639617919922 389.93792724609375
v -208.9741973876953 -204.9534454345703 389.0019836425781
v -210.434814453125 -204.17459106445312 391.25927734375
v -212.36599731445312 -205.6064910888672 391.72601318359375
v -222.63182067871094 -205.5925750732422 390.9698791503906
v -213.3520965576172 -206.60011291503906 390.7657775878906
v -221.1306915283203 -207.26795959472656 395.5016784667969
v -217.75782775878906 -193.733154296875 392.8875732421875
v -211.43310546875 -195.30833435058594 391.75830078125
v -213.21267700195312 -194.42300415039062 392.3773193359375
v -210.41029357910156 -197.08363342285156 392.02618408203125
v -210.7578125 -198.62518310546875 393.1496276855469
v -227.60614013671875 -199.23072814941406 394.8707580566406
v -227.02487182617188 -201.12779235839844 394.06707763671875
v -210.3947296142578 -201.9927520751953 392.65997314453125
v -226.4280242919922 -202.3759765625 393.6440734863281
v -219.80465698242188 -207.3297119140625 395.5499572753906
v -221.95411682128906 -206.94430541992188 394.27117919921875
v -221.90347290039062 -206.5071258544922 392.21435546875
v -216.1175537109375 -194.05943298339844 393.2450866699219
v -223.121337890625 -193.86253356933594 396.9555358886719
v -224.42599487304688 -193.90516662597656 396.2637939453125
v -225.5068359375 -194.22439575195312 396.3005676269531
v -225.89369201660156 -195.35594177246094 394.67559814453125
v -227.40069580078125 -197.65313720703125 394.9302673339844
v -226.9452667236328 -196.4041290283203 395.040283203125
v -210.81005859375 -200.54327392578125 393.4700927734375
v -213.61729431152344 -204.6422882080078 395.1564636230469
v -225.14913940429688 -204.31118774414062 393.2458190917969
v -224.42160034179688 -206.4762420654297 396.06634521484375
v -219.3554229736328 -207.23817443847656 396.8807373046875
v -216.7538299560547 -194.50962829589844 394.7983093261719
v -220.33511352539062 -194.09312438964844 396.6678466796875
v -214.40757751464844 -196.2225799560547 395.6455383300781
v -212.45516967773438 -196.9976348876953 394.4156799316406
v -218.03895568847656 -195.00721740722656 396.7268371582031
v -213.59375 -197.9721221923828 396.4216613769531
v -214.0799102783203 -200.18722534179688 397.822021484375
v -228.46139526367188 -201.29408264160156 396.3638610839844
v -212.59344482421875 -202.7443389892578 395.25537109375
v -228.1839599609375 -203.2242889404297 396.8287353515625
v -226.6812744140625 -204.2993621826172 395.5384216308594
v -227.8977813720703 -205.06639099121094 397.8970031738281
v -216.6238555908203 -206.23028564453125 397.2882080078125
v -225.5480499267578 -205.7097625732422 395.8913269042969
v -227.71588134765625 -195.3126678466797 397.50103759765625
v -215.49989318847656 -198.55726623535156 398.61767578125
v -217.2779998779297 -196.680419921875 398.2199401855469
v -229.34674072265625 -198.39613342285156 397.077392578125
v -229.15365600585938 -196.94680786132812 397.3788757324219
v -234.67947387695312 -196.83180236816406 398.46563720703125
v -236.3196563720703 -198.25918579101562 397.3281555175781
v -237.852783203125 -197.72314453125 397.7447814941406
v -238.784423828125 -198.36329650878906 397.7705078125
v -238.09780883789062 -197.57720947265625 398.57421875
v -229.669677734375 -200.46461486816406 397.34259033203125
v -238.18089294433594 -199.94773864746094 397.6200256347656
v -235.9296875 -199.29421997070312 397.27838134765625
v -240.50970458984375 -199.9235382080078 399.25592041015625
v -214.30101013183594 -201.84768676757812 398.0889587402344
v -239.37098693847656 -201.20005798339844 398.8826904296875
v -214.0706024169922 -203.14024353027344 397.3233642578125
v -229.97250366210938 -203.00863647460938 398.3272399902344
v -215.7115478515625 -204.67855834960938 398.6920166015625
v -218.69839477539062 -206.92784118652344 398.04864501953125
v -224.9715118408203 -207.18003845214844 398.7547607421875
v -222.34677124023438 -194.79229736328125 399.28546142578125
v -223.6938934326172 -194.3495635986328 399.0598449707031
v -225.911865234375 -194.3001251220703 399.2950744628906
v -226.8517608642578 -194.39971923828125 398.8858947753906
v -229.7104034423828 -196.22622680664062 398.3837585449219
v -228.7910614013672 -195.23294067382812 399.5794372558594
v -231.7134552001953 -196.23141479492188 399.0750732421875
v -230.760986328125 -195.61331176757812 399.79058837890625
v -234.20852661132812 -195.84295654296875 399.54010009765625
v -221.65786743164062 -196.62452697753906 400.9671325683594
v -230.77235412597656 -197.51510620117188 398.10284423828125
v -232.4004364013672 -197.21644592285156 398.45281982421875
v -235.68548583984375 -196.60630798339844 399.4209289550781
v -230.69711303710938 -199.7081756591797 397.8110656738281
v -232.0810546875 -198.69593811035156 398.1024169921875
v -233.7595977783203 -198.37899780273438 397.9897766113281
v -232.3545379638672 -200.08116149902344 398.2176208496094
v -234.8853302001953 -199.81666564941406 397.79461669921875
v -231.9423065185547 -202.37380981445312 398.8026123046875
v -233.3997039794922 -201.49632263183594 398.5544738769531
v -236.06900024414062 -201.65191650390625 398.454345703125
v -238.22140502929688 -202.39605712890625 399.1455993652344
v -240.1080780029297 -200.95965576171875 399.6562805175781
v -215.83241271972656 -204.03323364257812 399.5474853515625
v -229.1231689453125 -205.01051330566406 398.93804931640625
v -219.48683166503906 -206.51260375976562 401.283203125
v -227.7433319091797 -206.53184509277344 399.7867431640625
v -222.35708618164062 -207.6148223876953 399.4834289550781
v -224.9903106689453 -207.76144409179688 400.80181884765625
v -224.49725341796875 -196.31483459472656 402.3714294433594
v -226.89309692382812 -195.7498321533203 402.75830078125
v -227.917236328125 -195.12289428710938 401.2138977050781
v -230.73330688476562 -195.419189453125 400.9388732910156
v -232.62945556640625 -195.6224365234375 401.3470153808594
v -219.12229919433594 -198.71316528320312 401.10845947265625
v -235.5089569091797 -196.79043579101562 401.2902526855469
v -217.50428771972656 -199.7047882080078 400.5718078613281
v -221.8346710205078 -199.0005340576172 403.57745361328125
v -239.31460571289062 -199.0898895263672 400.444580078125
v -216.5545654296875 -201.14822387695312 400.33966064453125
v -220.07701110839844 -201.54627990722656 404.1809997558594
v -220.88368225097656 -200.72772216796875 404.5151672363281
v -219.151123046875 -202.54425048828125 403.4710693359375
v -240.1322479248047 -201.015869140625 400.9989318847656
v -240.38381958007812 -203.11329650878906 401.4800720214844
v -240.64132690429688 -203.0721893310547 402.07293701171875
v -217.4060516357422 -203.58827209472656 401.3644104003906
v -232.05816650390625 -204.7803497314453 400.0661926269531
v -235.88583374023438 -204.34988403320312 400.21649169921875
v -239.53271484375 -203.61448669433594 400.9732971191406
v -230.51986694335938 -205.62025451660156 400.2989196777344
v -233.51063537597656 -205.7320556640625 401.09051513671875
v -237.32786560058594 -205.6641387939453 401.8036804199219
v -239.71685791015625 -204.76516723632812 402.9004211425781
v -218.8883819580078 -205.3549041748047 402.16778564453125
v -235.3671875 -206.35520935058594 401.995849609375
v -238.09425354003906 -206.27786254882812 403.06610107421875
v -221.26019287109375 -207.4246063232422 400.8334045410156
v -223.63534545898438 -208.05369567871094 401.7359313964844
v -222.58969116210938 -207.95877075195312 403.17694091796875
v -227.20887756347656 -207.3872833251953 400.9618225097656
v -229.99533081054688 -207.51548767089844 402.4972839355469
v -229.72496032714844 -195.87030029296875 402.9075927734375
v -228.79945373535156 -196.6853790283203 404.07647705078125
v -232.83168029785156 -196.69117736816406 403.2967834472656
v -225.0305633544922 -198.7975616455078 405.31317138671875
v -236.24520874023438 -198.692138671875 403.6083679199219
v -237.3530731201172 -200.07066345214844 404.30767822265625
v -240.15101623535156 -202.1041717529297 402.69415283203125
v -239.4873809814453 -202.4791717529297 404.07122802734375
v -239.62550354003906 -204.3926239013672 404.008056640625
v -219.1338348388672 -204.56787109375 403.2005920410156
v -220.2967987060547 -206.03085327148438 404.1773376464844
v -221.06910705566406 -207.08531188964844 403.3877868652344
v -222.49180603027344 -208.17721557617188 405.3212890625
v -233.41123962402344 -208.57632446289062 405.35711669921875
v -235.580810546875 -207.1856231689453 403.7686462402344
v -224.212890625 -208.7822265625 404.91729736328125
v -225.7613983154297 -208.7647705078125 404.1617736816406
v -228.05572509765625 -208.54693603515625 403.82843017578125
v -231.10809326171875 -197.34768676757812 404.5657653808594
v -227.92025756835938 -199.28802490234375 406.6207580566406
v -233.71104431152344 -198.6774444580078 405.1389465332031
v -222.1127471923828 -201.37741088867188 406.9561767578125
v -237.32984924316406 -201.75881958007812 405.6396179199219
v -219.8279266357422 -203.57948303222656 404.724609375
v -238.39503479003906 -203.19989013671875 405.4998474121094
v -220.411376953125 -204.83966064453125 405.9458923339844
v -220.79519653320312 -206.25108337402344 406.270751953125
v -236.97579956054688 -207.0334014892578 405.334716796875
v -221.6778564453125 -207.7237091064453 406.5976257324219
v -234.91116333007812 -208.4886932373047 406.3961181640625
v -224.59556579589844 -209.90341186523438 407.7173767089844
v -226.94383239746094 -210.17965698242188 407.5674743652344
v -230.45936584472656 -200.04837036132812 407.40081787109375
v -223.48558044433594 -200.76646423339844 407.2856750488281
v -226.28668212890625 -200.28721618652344 407.7386474609375
v -232.7756805419922 -200.58534240722656 407.3072204589844
v -234.8490447998047 -201.41026306152344 407.0226745605469
v -221.4796600341797 -202.58819580078125 407.7330627441406
v -232.493896484375 -201.64857482910156 408.894775390625
v -220.6765899658203 -203.5818634033203 406.8411560058594
v -234.20346069335938 -202.6260528564453 408.94097900390625
v -235.9893798828125 -203.0550079345703 407.5477294921875
v -237.09617614746094 -204.31130981445312 407.00933837890625
v -238.56723022460938 -204.488037109375 405.33819580078125
v -220.84307861328125 -206.12710571289062 408.8332824707031
v -237.6800537109375 -206.00697326660156 405.97003173828125
v -236.62120056152344 -205.8675994873047 408.21038818359375
v -221.1382598876953 -207.51470947265625 409.0285339355469
v -236.5236358642578 -207.5446319580078 406.8851318359375
v -221.8722381591797 -209.19869995117188 409.44122314453125
v -222.9066925048828 -209.7486114501953 408.8946228027344
v -229.9390411376953 -210.7824249267578 409.4908752441406
v -232.0688018798828 -209.77098083496094 407.90667724609375
v -234.3911895751953 -209.28057861328125 408.5860595703125
v -224.40341186523438 -201.87725830078125 410.5816650390625
v -226.19619750976562 -201.46238708496094 410.2528991699219
v -228.3480224609375 -201.37351989746094 410.00396728515625
v -229.72938537597656 -201.5042266845703 409.9400329589844
v -221.42967224121094 -204.1165771484375 410.61126708984375
v -223.25645446777344 -202.41250610351562 410.8990478515625
v -232.49191284179688 -203.39820861816406 412.07843017578125
v -220.93528747558594 -205.0929718017578 409.9085693359375
v -234.39846801757812 -204.3484344482422 410.77740478515625
v -235.12452697753906 -205.6058349609375 410.67083740234375
v -235.1630096435547 -206.86862182617188 410.8855895996094
v -234.91253662109375 -208.4855194091797 410.27813720703125
v -234.5869903564453 -209.0256805419922 410.08660888671875
v -224.37933349609375 -211.31446838378906 410.1236877441406
v -226.20266723632812 -211.2223358154297 409.5442199707031
v -228.9011688232422 -211.8683624267578 410.9256286621094
v -231.8629608154297 -210.28089904785156 409.905517578125
v -222.26393127441406 -203.5446319580078 412.14202880859375
v -230.74368286132812 -202.5723419189453 412.071533203125
v -220.51727294921875 -207.50927734375 411.7208251953125
v -221.04287719726562 -209.1119842529297 411.0626525878906
v -222.2645263671875 -210.59483337402344 410.64178466796875
v -232.75196838378906 -209.91111755371094 410.9598388671875
v -226.82669067382812 -212.8002471923828 411.44061279296875
v -230.48617553710938 -211.69374084472656 412.25262451171875
v -223.4431610107422 -203.17486572265625 413.9261169433594
v -225.08685302734375 -203.17640686035156 415.6822814941406
v -227.01416015625 -203.05889892578125 415.6251525878906
v -229.51904296875 -203.47683715820312 415.5467834472656
v -230.9529571533203 -204.29994201660156 415.2657470703125
v -231.8203125 -205.54940795898438 415.32720947265625
v -220.90728759765625 -205.67347717285156 414.7794189453125
v -220.38343811035156 -206.59811401367188 413.3882141113281
v -232.27357482910156 -207.09613037109375 415.1231689453125
v -219.86514282226562 -207.99624633789062 413.4443664550781
v -231.80223083496094 -209.47378540039062 415.1153869628906
v -233.94781494140625 -207.63778686523438 412.3654479980469
v -219.2749481201172 -209.72312927246094 413.9985656738281
v -220.21597290039062 -209.1834716796875 412.63177490234375
v -233.39285278320312 -209.004150390625 412.11383056640625
v -219.99053955078125 -211.2764129638672 413.24932861328125
v -221.39585876464844 -211.05482482910156 411.973876953125
v -232.03756713867188 -210.34617614746094 412.9471130371094
v -231.19309997558594 -210.979248046875 415.113525390625
v -220.38412475585938 -213.45721435546875 413.4531555175781
v -222.86671447753906 -212.6040802001953 411.98248291015625
v -224.4602813720703 -213.1949005126953 411.9156799316406
v -228.46759033203125 -213.4728546142578 412.6587219238281
v -231.0107879638672 -211.7123565673828 413.8331298828125
v -229.53878784179688 -214.49317932128906 414.58538818359375
v -221.64309692382812 -214.84921264648438 413.57745361328125
v -222.72344970703125 -215.5311279296875 413.7731628417969
v -226.0094757080078 -215.77186584472656 413.8289489746094
v -227.7567138671875 -216.3253173828125 414.9184875488281
v -223.95294189453125 -203.9677734375 416.1759033203125
v -221.78599548339844 -205.09510803222656 416.0559387207031
v -231.23532104492188 -206.3848419189453 416.4537048339844
v -219.13958740234375 -207.370361328125 416.4444885253906
v -218.89651489257812 -208.3883056640625 415.2056884765625
v -217.56214904785156 -209.72190856933594 416.16571044921875
v -216.92576599121094 -210.93081665039062 416.50201416015625
v -216.62075805664062 -213.02334594726562 416.8909606933594
v -230.06344604492188 -213.886962890625 415.73114013671875
v -218.7481689453125 -215.07179260253906 415.4980163574219
v -220.4954376220703 -217.2022247314453 416.3055419921875
v -222.23477172851562 -216.7320098876953 415.2651672363281
v -224.24191284179688 -216.99517822265625 415.2972412109375
v -225.82882690429688 -217.2369842529297 415.95550537109375
v -228.39678955078125 -216.5409698486328 416.10345458984375
v -226.10972595214844 -203.5757293701172 416.6831359863281
v -228.98919677734375 -204.03384399414062 416.9114685058594
v -222.08334350585938 -205.3838653564453 417.6321716308594
v -223.98028564453125 -204.86386108398438 417.72149658203125
v -230.07455444335938 -205.113525390625 417.33453369140625
v -219.7390899658203 -206.6632843017578 417.8552551269531
v -230.3386688232422 -208.85589599609375 417.33843994140625
v -216.6663360595703 -208.82130432128906 418.46044921875
v -215.66197204589844 -210.15069580078125 418.6009216308594
v -230.4900360107422 -211.0679168701172 416.6849060058594
v -216.17796325683594 -211.94110107421875 417.2799987792969
v -228.97634887695312 -213.98391723632812 417.85687255859375
v -228.88949584960938 -215.39930725097656 417.2046813964844
v -218.00186157226562 -217.18637084960938 418.4593200683594
v -219.5509033203125 -218.15908813476562 418.0249938964844
v -222.04159545898438 -218.69224548339844 417.72650146484375
v -224.60841369628906 -217.8464813232422 417.4352722167969
v -226.85719299316406 -217.13525390625 416.7639465332031
v -226.9906463623047 -204.40232849121094 417.6613464355469
v -224.43472290039062 -205.8465118408203 419.09429931640625
v -228.12985229492188 -204.9354248046875 417.9728698730469
v -222.29498291015625 -205.7756805419922 418.979736328125
v -220.04107666015625 -206.78823852539062 420.62774658203125
v -221.91990661621094 -206.50555419921875 420.5116882324219
v -226.51243591308594 -206.07977294921875 418.9285583496094
v -227.67967224121094 -206.9646759033203 418.9312744140625
v -215.94122314453125 -208.12307739257812 420.86541748046875
v -217.91285705566406 -207.7706298828125 418.3446960449219
v -218.57005310058594 -207.1588134765625 420.0638732910156
v -216.49496459960938 -207.73141479492188 421.6059875488281
v -223.59986877441406 -206.8858184814453 420.7362976074219
v -225.59312438964844 -207.19973754882812 419.94232177734375
v -229.2283935546875 -208.03529357910156 418.2354431152344
v -213.87425231933594 -209.6359405517578 421.4914245605469
v -225.0803680419922 -208.38406372070312 421.21490478515625
v -227.30538940429688 -208.85220336914062 419.5970764160156
v -226.1402587890625 -209.8095245361328 420.9599304199219
v -213.57164001464844 -210.681884765625 421.1744079589844
v -228.28982543945312 -210.76625061035156 419.0330505371094
v -213.99305725097656 -211.9134521484375 420.25244140625
v -228.09837341308594 -212.8131866455078 419.1536560058594
v -214.38665771484375 -213.33290100097656 419.8735656738281
v -215.17071533203125 -215.04550170898438 419.8991394042969
v -226.85520935058594 -215.81900024414062 419.2835693359375
v -216.27560424804688 -217.2305450439453 420.6527099609375
v -226.36770629882812 -216.98512268066406 418.3327331542969
v -224.96920776367188 -217.60879516601562 419.96380615234375
v -219.1064453125 -220.03134155273438 420.4981994628906
v -223.8947296142578 -218.6458282470703 419.3532409667969
v -220.1812744140625 -220.1887664794922 420.4454650878906
v -221.4583282470703 -220.1258087158203 420.659912109375
v -217.17921447753906 -207.70803833007812 422.85052490234375
v -222.63650512695312 -208.30908203125 423.0187072753906
v -214.35581970214844 -208.90664672851562 422.6539306640625
v -224.29275512695312 -211.24317932128906 423.0731506347656
v -213.1455078125 -212.755126953125 421.80535888671875
v -225.0463104248047 -213.0538787841797 422.3437805175781
v -224.3513641357422 -215.2154541015625 422.6109619140625
v -214.2243194580078 -215.19374084472656 421.6429443359375
v -224.37855529785156 -216.37429809570312 422.15692138671875
v -215.36363220214844 -217.1736297607422 422.2435302734375
v -223.48765563964844 -218.26048278808594 421.7630615234375
v -218.01809692382812 -219.5614471435547 421.7652282714844
v -223.02650451660156 -219.230712890625 421.2814025878906
v -220.0429229736328 -220.84280395507812 422.09490966796875
v -220.34878540039062 -207.4808349609375 422.62322998046875
v -212.89715576171875 -210.02081298828125 424.53717041015625
v -212.2997589111328 -210.6951904296875 423.91143798828125
v -215.0540771484375 -208.8882598876953 423.69891357421875
v -223.8871307373047 -209.97494506835938 423.1332702636719
v -212.69552612304688 -212.82406616210938 423.7157287597656
v -222.51229858398438 -213.97752380371094 424.198974609375
v -213.78065490722656 -215.02171325683594 423.0575866699219
v -221.6497344970703 -216.31983947753906 424.050537109375
v -221.08514404296875 -218.734130859375 423.3948669433594
v -215.30291748046875 -216.6879425048828 423.7362365722656
v -216.4128875732422 -218.2861328125 423.0522155761719
v -220.42160034179688 -220.1608428955078 422.7329406738281
v -219.6027374267578 -208.24928283691406 423.7648010253906
v -215.70794677734375 -209.67735290527344 424.829833984375
v -214.16339111328125 -210.8550567626953 425.7850341796875
v -213.5440216064453 -210.07281494140625 425.0434265136719
v -219.51962280273438 -209.26162719726562 424.5030517578125
v -212.55052185058594 -211.42689514160156 425.14337158203125
v -218.51646423339844 -210.73007202148438 425.17822265625
v -221.82345581054688 -210.59268188476562 424.3595886230469
v -213.14952087402344 -213.40164184570312 424.4068603515625
v -215.47804260253906 -212.1973114013672 425.8262939453125
v -220.06991577148438 -212.338134765625 425.1522216796875
v -213.2879638671875 -212.058837890625 425.6669006347656
v -217.13194274902344 -215.58946228027344 425.1845703125
v -217.72547912597656 -214.476806640625 425.4619445800781
v -216.44761657714844 -216.53213500976562 424.5906677246094
v -219.5059356689453 -215.98410034179688 424.892822265625
v -218.0223846435547 -218.73548889160156 423.71759033203125
v -219.1999969482422 -218.45851135253906 424.05157470703125
vn 0.2041463702917099 0.4663410186767578 -0.8607266545295715
vn -0.2124311923980713 0.2741779088973999 -0.9379229545593262
vn 0.0968671590089798 0.6212320327758789 -0.7776165008544922
vn 0.47043463587760925 0.2826709747314453 -0.8359357118606567
vn 0.056131940335035324 0.06521306931972504 -0.9962913393974304
vn 0.43628352880477905 -0.0430668480694294 -0.8987780809402466
vn 0.16861504316329956 -0.31815528869628906 -0.9329234957695007
vn -0.16208599507808685 -0.24965432286262512 -0.954673171043396
vn -0.37899890542030334 -0.15244661271572113 -0.9127539992332458
vn -0.10176297277212143 0.6488897800445557 -0.7540467381477356
vn -0.06747060269117355 0.8564339876174927 -0.511828601360321
vn 0.13002705574035645 0.8339440226554871 -0.5363118648529053
vn -0.26656246185302734 0.7507957220077515 -0.6043593883514404
vn 0.28724905848503113 0.7459049820899963 -0.600927472114563
vn -0.349119633436203 0.430449515581131 -0.8323633670806885
vn -0.451407253742218 0.5151735544204712 -0.7285792827606201
vn 0.5009927153587341 0.6597418785095215 -0.5601311922073364
vn -0.5239729285240173 0.27071064710617065 -0.8075692653656006
vn 0.7561946511268616 0.39303189516067505 -0.5231592655181885
vn -0.4838121235370636 0.08987417817115784 -0.870544970035553
vn -0.5914153456687927 0.0253569595515728 -0.8059683442115784
vn 0.8542641401290894 0.14863210916519165 -0.49813783168792725
vn 0.686065673828125 0.06975071877241135 -0.7241883873939514
vn -0.5269410610198975 -0.17817766964435577 -0.8310149312019348
vn 0.7568714022636414 -0.27544859051704407 -0.5926834940910339
vn 0.9517863392829895 -0.06977405399084091 -0.2987212836742401
vn 0.4534517824649811 -0.46110299229621887 -0.7627356052398682
vn 0.20101824402809143 -0.5908948183059692 -0.7813034057617188
vn -0.05308431386947632 -0.5243287682533264 -0.8498597145080566
vn -0.34282276034355164 -0.4801635444164276 -0.8074129223823547
vn 0.02166578732430935 -0.6894230246543884 -0.72403484582901
vn -0.17806021869182587 -0.6474511623382568 -0.7410138845443726
vn -0.578385591506958 -0.3858760893344879 -0.7187279462814331
vn 0.5259581208229065 -0.704619824886322 -0.47631824016571045
vn 0.2085380256175995 -0.7844311594963074 -0.5841059684753418
vn -0.04929272457957268 -0.8051871061325073 -0.5909687280654907
vn -0.26290473341941833 -0.7611220479011536 -0.592937171459198
vn -0.5048894882202148 -0.6407994627952576 -0.5783274173736572
vn 0.2392972707748413 0.9408907890319824 -0.23971107602119446
vn 0.3704356253147125 0.8777639865875244 -0.30382218956947327
vn 0.06769411265850067 0.9440550804138184 -0.3227654695510864
vn 0.6891157627105713 0.7039298415184021 -0.1720530092716217
vn -0.5968824028968811 0.48985087871551514 -0.6354348659515381
vn -0.4612894654273987 0.7134854197502136 -0.5273998975753784
vn -0.6900039911270142 0.1613706797361374 -0.7055876851081848
vn 0.9376512169837952 0.30331772565841675 -0.16973115503787994
vn -0.6644966006278992 -0.17767740786075592 -0.7258616089820862
vn 0.854937732219696 -0.5034477114677429 -0.12498780339956284
vn 0.5439122915267944 -0.8166816830635071 -0.1928483098745346
vn 0.3066568374633789 -0.8857114315032959 -0.3485353887081146
vn 0.10014314949512482 -0.9010730385780334 -0.4219464063644409
vn 0.18374422192573547 -0.9564714431762695 -0.22671686112880707
vn -0.03262989968061447 -0.9448995590209961 -0.32573002576828003
vn -0.28834229707717896 -0.8968559503555298 -0.3354223072528839
vn 0.4097423255443573 0.9110344052314758 -0.046126097440719604
vn -0.10398756712675095 0.9437816739082336 -0.31378763914108276
vn -0.3464908301830292 0.8622112274169922 -0.3695078492164612
vn 0.5968589782714844 0.8021644949913025 0.017073409631848335
vn 0.739700973033905 0.6716852784156799 0.04100513085722923
vn 0.8586618304252625 0.5121330618858337 0.020484959706664085
vn 0.9959021806716919 -0.09043718129396439 -0.00014867364370729774
vn -0.7386823296546936 -0.07045251131057739 -0.6703618168830872
vn -0.6876786947250366 -0.29047614336013794 -0.6653732657432556
vn -0.6342058777809143 -0.46607744693756104 -0.6168912053108215
vn 0.568565309047699 -0.8219709992408752 0.033123355358839035
vn 0.389789879322052 -0.9061598181724548 -0.1641286164522171
vn 0.3274984657764435 -0.9446551203727722 -0.019272878766059875
vn 0.08344046026468277 -0.9950927495956421 -0.05318034067749977
vn -0.055387698113918304 -0.9935416579246521 -0.09903157502412796
vn 0.1440609097480774 0.9820743799209595 -0.12155815958976746
vn -0.1820327639579773 0.9638285040855408 -0.19467616081237793
vn -0.5392963290214539 0.6998510956764221 -0.4683673083782196
vn 0.4858197271823883 0.867545485496521 0.10650872439146042
vn 0.6232174634933472 0.7521752119064331 0.21408537030220032
vn -0.6595858335494995 0.4361339807510376 -0.6121549606323242
vn -0.6013962626457214 0.642870306968689 -0.4743841290473938
vn -0.7349607348442078 0.3881075084209442 -0.5560624003410339
vn 0.7893966436386108 0.565574586391449 0.2387014925479889
vn -0.7420775294303894 0.1490422785282135 -0.6535345315933228
vn 0.9509580731391907 0.23222754895687103 0.20432621240615845
vn -0.787825882434845 0.03166712448000908 -0.6150835156440735
vn -0.766791045665741 -0.17203748226165771 -0.618412971496582
vn 0.9249919056892395 -0.21238960325717926 0.3150883615016937
vn -0.7419752478599548 -0.4277704656124115 -0.5162221789360046
vn 0.7396760582923889 -0.6280034780502319 0.24184903502464294
vn -0.6125243902206421 -0.6141440272331238 -0.4976354241371155
vn -0.556008517742157 -0.6556887030601501 -0.510810136795044
vn 0.4720672070980072 -0.8288292288780212 0.30032432079315186
vn -0.45529884099960327 -0.7900068163871765 -0.4105999171733856
vn -0.47478729486465454 -0.7954413294792175 -0.3766299784183502
vn 0.20183764398097992 -0.9613115191459656 0.18746113777160645
vn -0.19382299482822418 -0.971318244934082 -0.1377442479133606
vn -0.2966283857822418 -0.9235045313835144 -0.24320976436138153
vn 0.06573127955198288 0.9968836307525635 -0.04361666738986969
vn 0.3349286615848541 0.9401582479476929 0.06265173107385635
vn -0.45289841294288635 0.8243595957756042 -0.3395797610282898
vn -0.34382838010787964 0.9053921699523926 -0.24909257888793945
vn 0.46184539794921875 0.8695975542068481 0.17463932931423187
vn 0.5328789353370667 0.7936127185821533 0.2936306595802307
vn 0.661638617515564 0.5874457955360413 0.4659847915172577
vn 0.8095735907554626 0.382123202085495 0.44561487436294556
vn -0.8321257829666138 0.17796187102794647 -0.5252582430839539
vn -0.8364721536636353 -0.1497124433517456 -0.5271627902984619
vn -0.8788378834724426 -0.01886732317507267 -0.4767473042011261
vn 0.8855813145637512 0.12737153470516205 0.4466792345046997
vn 0.7950813174247742 -0.004014826845377684 0.6064896583557129
vn 0.7197805643081665 -0.4072284698486328 0.5622106790542603
vn -0.6359190940856934 -0.6842223405838013 -0.35699695348739624
vn 0.08245754987001419 -0.992138147354126 0.0941416546702385
vn 0.4802943468093872 0.8456591367721558 0.23276174068450928
vn 0.526823878288269 0.8271598219871521 0.1956099271774292
vn 0.14699280261993408 0.9864051938056946 0.0734703466296196
vn -0.05156898498535156 0.9985617995262146 -0.014661283232271671
vn -0.17586475610733032 0.9772919416427612 -0.1182040199637413
vn 0.6182247400283813 0.6867558360099792 0.3823148012161255
vn -0.5872042179107666 0.7042722702026367 -0.3989884555339813
vn -0.44640493392944336 0.8317537903785706 -0.33001264929771423
vn 0.7374445199966431 0.26757487654685974 0.6201445460319519
vn 0.6775363087654114 0.4387574791908264 0.5902851223945618
vn 0.6696324944496155 0.07519223541021347 0.7388765215873718
vn -0.8046209812164307 -0.39536386728286743 -0.44302648305892944
vn -0.8532004952430725 -0.26027652621269226 -0.45200115442276
vn 0.6271462440490723 -0.12373655289411545 0.7690103650093079
vn 0.5143790245056152 -0.5103428363800049 0.689176619052887
vn -0.7205213904380798 -0.5812957286834717 -0.37807974219322205
vn 0.31160968542099 -0.8196510672569275 0.4806990325450897
vn -0.4189595878124237 -0.878269612789154 -0.23046784102916718
vn 0.3386099934577942 -0.8424632549285889 0.4190452992916107
vn 0.19032004475593567 -0.9316783547401428 0.30944114923477173
vn 0.22877441346645355 -0.9526662230491638 0.20022325217723846
vn 0.24849694967269897 0.9363775253295898 0.24788367748260498
vn -0.3201267123222351 0.914564847946167 -0.2471640557050705
vn 0.673582136631012 0.4681779742240906 0.5719234943389893
vn -0.7469517588615417 0.4779937267303467 -0.4621526896953583
vn 0.6934247016906738 0.29372960329055786 0.6579400300979614
vn -0.8523028492927551 0.22498616576194763 -0.47218769788742065
vn 0.7030402421951294 0.1004655733704567 0.7040178775787354
vn 0.6642546057701111 -0.14279600977897644 0.733740508556366
vn 0.5563365817070007 -0.3578201234340668 0.7499696016311646
vn 0.7091323137283325 -0.3407660126686096 0.6172600984573364
vn -0.7936380505561829 -0.4448578357696533 -0.41501837968826294
vn 0.46065205335617065 -0.6337049007415771 0.6214643120765686
vn 0.6250035762786865 -0.5427931547164917 0.5610224008560181
vn 0.545979917049408 -0.723713755607605 0.42207154631614685
vn -0.5903115272521973 -0.7378528118133545 -0.32726988196372986
vn 0.37163373827934265 -0.8930899500846863 0.2535325884819031
vn -0.09233815968036652 -0.9908713698387146 -0.09822223335504532
vn 0.10558712482452393 0.9765253067016602 0.18774904310703278
vn 0.6163797974586487 0.6199358701705933 0.4855465888977051
vn 0.3917883336544037 0.8141278028488159 0.42859992384910583
vn 0.7168266773223877 0.42704498767852783 0.5511735081672668
vn 0.7532501816749573 0.22872936725616455 0.6166823506355286
vn -0.8478851914405823 0.026886360719799995 -0.5294976830482483
vn -0.8642592430114746 -0.14830228686332703 -0.4806895852088928
vn 0.7487702965736389 -0.21054358780384064 0.6285017132759094
vn -0.8119778633117676 -0.33611026406288147 -0.47720202803611755
vn 0.06861332803964615 -0.9975576996803284 0.013073578476905823
vn -0.29150527715682983 -0.9378888010978699 -0.18812063336372375
vn -0.44666236639022827 -0.8599727153778076 -0.24685978889465332
vn 0.173758402466774 0.9299368858337402 0.324076384305954
vn 0.008515668101608753 0.9936947226524353 0.11179552972316742
vn -0.1808173507452011 0.9816110134124756 -0.061196133494377136
vn -0.44605883955955505 0.8471397161483765 -0.2887660264968872
vn -0.6332594156265259 0.6473792195320129 -0.4241258502006531
vn -0.7951531410217285 0.25329750776290894 -0.550973653793335
vn -0.7251362800598145 0.47639596462249756 -0.4972165822982788
vn 0.7777165770530701 -0.04882369190454483 0.6267162561416626
vn 0.7013300657272339 -0.5429543852806091 0.46188390254974365
vn -0.7210964560508728 -0.5542783737182617 -0.41568657755851746
vn -0.4167896807193756 -0.8534823656082153 -0.31281670928001404
vn 0.20370444655418396 -0.9751167297363281 0.08747502416372299
vn 0.2800644338130951 0.8720961809158325 0.4012632668018341
vn 0.22077952325344086 0.916908323764801 0.33246880769729614
vn 0.4929431974887848 0.6479036808013916 0.5807132124900818
vn 0.6732460260391235 0.44093284010887146 0.5935638546943665
vn 0.3697165250778198 0.7761079668998718 0.5108484029769897
vn 0.6775829792022705 0.3848627209663391 0.6267072558403015
vn 0.7415426969528198 0.1339220553636551 0.6574035286903381
vn -0.7598336935043335 -0.1508963704109192 -0.6323631405830383
vn 0.784301221370697 -0.26578474044799805 0.5605623722076416
vn -0.6970484852790833 -0.3827473819255829 -0.6063232421875
vn -0.7066255211830139 -0.49869832396507263 -0.5019764304161072
vn -0.6043883562088013 -0.5840582251548767 -0.5418402552604675
vn 0.5311470627784729 -0.7830390334129333 0.3236244022846222
vn -0.5846893191337585 -0.6869552135467529 -0.43154484033584595
vn -0.5742145776748657 0.7132484316825867 -0.4019382894039154
vn 0.570201575756073 0.41661205887794495 0.7080286741256714
vn 0.4268918037414551 0.6440860629081726 0.6347571015357971
vn -0.6431826949119568 0.07861670106649399 -0.7616662979125977
vn -0.6191118955612183 0.4205603301525116 -0.6631965041160583
vn -0.022538814693689346 0.641593873500824 -0.7667133808135986
vn -0.0005533646326512098 0.24812732636928558 -0.9687272906303406
vn -0.2594831585884094 0.7639003396034241 -0.5908678770065308
vn -0.5273144245147705 0.3857004940509796 -0.7570830583572388
vn -0.5463488101959229 0.8374983668327332 -0.009978649206459522
vn -0.5846591591835022 -0.12128414958715439 -0.8021620512008667
vn -0.2821541726589203 -0.27853623032569885 -0.9180450439453125
vn 0.1419040411710739 -0.19390256702899933 -0.9707034230232239
vn -0.9418998956680298 0.12180805206298828 -0.3130294680595398
vn 0.7768250107765198 -0.08635804057121277 0.6237668991088867
vn -0.5775511860847473 -0.4555045962333679 -0.6774587035179138
vn 0.7976752519607544 -0.3376263976097107 0.4997226893901825
vn -0.4904628396034241 -0.35938042402267456 -0.7939093112945557
vn 0.6704267263412476 -0.5710283517837524 0.47376641631126404
vn 0.3392372131347656 -0.9237416386604309 0.17781886458396912
vn -0.27667659521102905 -0.915472686290741 -0.2921641170978546
vn 0.3150074779987335 0.7806113958358765 0.5398297309875488
vn 0.15105119347572327 0.9039129018783569 0.40015625953674316
vn -0.05207052081823349 0.9708871245384216 0.23380950093269348
vn -0.3336087763309479 0.942258358001709 -0.02923167310655117
vn -0.38497188687324524 0.6936083436012268 -0.6088547706604004
vn -0.3173343539237976 0.9281700253486633 -0.1944204866886139
vn -0.08200100064277649 0.6578172445297241 -0.7487004399299622
vn -0.13382336497306824 0.901957094669342 -0.41056644916534424
vn -0.21279005706310272 0.939540445804596 -0.268298864364624
vn 0.4158343970775604 0.6566234827041626 0.6292275786399841
vn -0.3205595314502716 0.3271335959434509 -0.8889461159706116
vn -0.0011237728176638484 0.3714444041252136 -0.928454577922821
vn -0.3505468964576721 0.9162423014640808 -0.19395092129707336
vn -0.3435741662979126 -0.08652275800704956 -0.9351313710212708
vn -0.07250548154115677 0.09013734757900238 -0.9932866096496582
vn 0.18280428647994995 0.12865754961967468 -0.9746947884559631
vn -0.007579976227134466 -0.16226781904697418 -0.9867176413536072
vn 0.18808604776859283 -0.263589084148407 -0.9461207389831543
vn -0.12368118762969971 -0.34333887696266174 -0.9310324788093567
vn 0.06191376596689224 -0.282492995262146 -0.9572692513465881
vn 0.016264019533991814 -0.4457741379737854 -0.8949977159500122
vn -0.2517174184322357 -0.5807704329490662 -0.7741732001304626
vn -0.9025796055793762 -0.30205756425857544 -0.3067758083343506
vn 0.7290818691253662 -0.35866856575012207 0.5829207301139832
vn -0.51067715883255 -0.5602613687515259 -0.6521626710891724
vn 0.5576797127723694 -0.7807604670524597 0.281791627407074
vn -0.3954329788684845 -0.7773067951202393 -0.48931270837783813
vn 0.07337500154972076 -0.9948411583900452 -0.07005079835653305
vn -0.10165061801671982 -0.9588306546211243 -0.2651621997356415
vn 0.3151707649230957 0.7324844002723694 0.603435218334198
vn 0.11381170898675919 0.8278273344039917 0.5493166446685791
vn -0.13707061111927032 0.9626271724700928 0.23358206450939178
vn -0.11030896753072739 0.993470311164856 0.029134083539247513
vn -0.21606339514255524 0.9380873441696167 0.27075597643852234
vn 0.5171265602111816 0.5399837493896484 0.6640766859054565
vn -0.44512638449668884 0.841651201248169 0.3057543933391571
vn 0.6113589406013489 0.3543316423892975 0.7075940370559692
vn 0.4599186182022095 0.6610349416732788 0.5928808450698853
vn -0.6726986169815063 0.6399919390678406 0.3713313639163971
vn 0.6890602707862854 0.14572696387767792 0.7099010944366455
vn 0.7559000849723816 0.361734002828598 0.545677125453949
vn 0.6344045996665955 0.5648103356361389 0.5277500748634338
vn 0.7725718021392822 0.11361239105463028 0.6246800422668457
vn -0.9794887900352478 0.1810547262430191 0.0884360745549202
vn -0.8403745293617249 -0.3470560312271118 -0.4163206219673157
vn -0.9891166687011719 -0.07694316655397415 0.12541134655475616
vn 0.7319344878196716 -0.22813625633716583 0.6420481204986572
vn -0.18288445472717285 -0.5390328168869019 -0.8221903443336487
vn -0.11470063030719757 -0.6059867739677429 -0.7871618866920471
vn -0.5168668627738953 -0.6246649026870728 -0.5853566527366638
vn -0.29333624243736267 -0.6405683159828186 -0.7096661329269409
vn -0.13043789565563202 -0.6803768873214722 -0.7211611270904541
vn -0.27793776988983154 -0.7017885446548462 -0.6559295058250427
vn -0.7631381750106812 -0.6367403864860535 -0.11037148535251617
vn 0.7429181933403015 -0.47989892959594727 0.4666580259799957
vn -0.17285498976707458 -0.7949915528297424 -0.581471860408783
vn -0.4225531816482544 -0.8285555243492126 -0.3673480153083801
vn 0.3206738829612732 -0.9458984136581421 0.049441929906606674
vn 0.13269701600074768 -0.9758869409561157 -0.17330977320671082
vn 0.3785347640514374 -0.9220898747444153 -0.08038449287414551
vn -0.2294711321592331 -0.882716953754425 -0.41006553173065186
vn -0.18403150141239166 -0.8202056884765625 -0.5416595935821533
vn -0.08726642280817032 0.8844527006149292 0.4583972096443176
vn -0.004269805271178484 0.7500837445259094 0.6613291501998901
vn -0.27655458450317383 0.7910878658294678 0.5456166863441467
vn 0.28855979442596436 0.7509487271308899 0.5939775109291077
vn -0.4560185670852661 0.71418696641922 0.5310217142105103
vn -0.5491423606872559 0.5929455161094666 0.5889467597007751
vn -0.8214976787567139 0.4158013164997101 0.3901934325695038
vn -0.7656055688858032 0.28633397817611694 0.5760737061500549
vn -0.84930020570755 -0.2631261348724365 0.45766112208366394
vn 0.8465599417686462 -0.22789962589740753 0.48103854060173035
vn 0.8121386766433716 -0.5032553672790527 0.2952369451522827
vn 0.6256071925163269 -0.7770755290985107 0.0690608024597168
vn 0.5281332731246948 -0.8261215090751648 -0.19646520912647247
vn -0.19669458270072937 -0.8951627016067505 -0.3999937176704407
vn -0.2956259548664093 -0.890963077545166 -0.3446595370769501
vn 0.2682226002216339 -0.9306455850601196 -0.2489086389541626
vn 0.0493604876101017 -0.9482545852661133 -0.31365081667900085
vn -0.10716371238231659 -0.911047637462616 -0.3981308043003082
vn -0.14074759185314178 0.7407898306846619 0.6568260788917542
vn 0.086739182472229 0.7374652028083801 0.669792115688324
vn -0.30203625559806824 0.6766102910041809 0.6715450286865234
vn 0.542454719543457 0.7101378440856934 0.4488285779953003
vn -0.5590838193893433 0.4731808602809906 0.6808269023895264
vn 0.8907365798950195 0.06745146214962006 0.4494871199131012
vn -0.7104585766792297 0.1879076361656189 0.6781883239746094
vn 0.9614596366882324 -0.1342424750328064 0.23994652926921844
vn 0.914685070514679 -0.40088987350463867 0.051367588341236115
vn -0.6330668330192566 -0.7740925550460815 0.0026799836196005344
vn 0.7969624996185303 -0.5930628180503845 -0.1145743653178215
vn -0.3935984671115875 -0.882546603679657 -0.25727784633636475
vn 0.21189138293266296 -0.8812829852104187 -0.4224243760108948
vn -0.0023155780509114265 -0.8998298645019531 -0.4362349510192871
vn -0.09462524205446243 0.7718229293823242 0.6287571787834167
vn 0.3327617645263672 0.8408786654472351 0.4268403947353363
vn 0.09847219288349152 0.8584542870521545 0.5033482909202576
vn -0.276669442653656 0.7380366921424866 0.6154314279556274
vn -0.43365854024887085 0.6299991607666016 0.6442370414733887
vn 0.7467413544654846 0.5592302680015564 0.3600541055202484
vn -0.3405704200267792 0.7976316809654236 0.4977906048297882
vn 0.9265226721763611 0.22690993547439575 0.30011266469955444
vn -0.48973700404167175 0.7031146287918091 0.5155459046363831
vn -0.6112940311431885 0.5004187226295471 0.613107442855835
vn -0.7874186038970947 0.16154341399669647 0.5948745608329773
vn -0.7642855048179626 -0.07820643484592438 0.6401182413101196
vn 0.9923620223999023 -0.12233806401491165 -0.015843017026782036
vn -0.8604507446289062 -0.31839314103126526 0.3978070020675659
vn -0.8818340301513672 0.03660818561911583 0.47013673186302185
vn 0.9179195165634155 -0.35030215978622437 -0.18631212413311005
vn -0.7027087807655334 -0.710857093334198 0.02970832772552967
vn 0.7437436580657959 -0.5783658027648926 -0.33516934514045715
vn 0.44697198271751404 -0.7929084897041321 -0.41414034366607666
vn -0.2182450294494629 -0.9039497375488281 -0.36775538325309753
vn -0.2551267743110657 -0.9301679730415344 -0.2640036940574646
vn -0.5154856443405151 -0.8542200922966003 -0.06769445538520813
vn 0.23389647901058197 0.9102599024772644 0.34164220094680786
vn 0.06987794488668442 0.9385290741920471 0.33805370330810547
vn -0.03979497775435448 0.9164993166923523 0.3980519473552704
vn -0.18610021471977234 0.8854377865791321 0.4258716404438019
vn 0.8654069304466248 0.47380530834198 0.16303180158138275
vn 0.46883493661880493 0.8278593420982361 0.30796554684638977
vn -0.5097112655639648 0.7284820079803467 0.45772093534469604
vn 0.9831116199493408 0.17211301624774933 0.062198977917432785
vn -0.7028841972351074 0.4795268476009369 0.5253645181655884
vn -0.8123663663864136 0.21855443716049194 0.540643036365509
vn -0.8573558330535889 -0.1279311180114746 0.49857258796691895
vn -0.8140564560890198 -0.4819895029067993 0.3240343928337097
vn -0.6669480800628662 -0.7150548100471497 0.20946823060512543
vn 0.25467872619628906 -0.7447333931922913 -0.6168556809425354
vn 0.04384450241923332 -0.8316760063171387 -0.5535275340080261
vn -0.24241288006305695 -0.8076497316360474 -0.537529468536377
vn -0.3597743511199951 -0.9135342240333557 -0.18978333473205566
vn 0.6751546859741211 0.7030799984931946 0.2232595682144165
vn -0.3088894188404083 0.87293541431427 0.37758591771125793
vn 0.9688533544540405 -0.005264389328658581 -0.2475794553756714
vn 0.8364152908325195 -0.34987616539001465 -0.421895831823349
vn 0.5817694067955017 -0.5905573964118958 -0.5592730641365051
vn -0.5601104497909546 -0.825221061706543 0.07270895689725876
vn -0.061978720128536224 -0.7124598622322083 -0.698970377445221
vn -0.566329300403595 -0.7601109147071838 -0.31859463453292847
vn 0.46653127670288086 0.8318997621536255 0.300485223531723
vn 0.22680865228176117 0.9059180617332458 0.35758981108665466
vn -0.06960112601518631 0.9149693846702576 0.39747539162635803
vn -0.3390944004058838 0.8493947982788086 0.4044051468372345
vn -0.5953275561332703 0.634630024433136 0.4927777647972107
vn -0.7626308798789978 0.3387981653213501 0.5510081648826599
vn 0.7457524538040161 0.6650503873825073 0.03951301798224449
vn 0.9053481817245483 0.3951825499534607 -0.1554846167564392
vn -0.8186929225921631 -0.025114038959145546 0.5736822485923767
vn 0.8967454433441162 0.1773352324962616 -0.4054625630378723
vn -0.8455514311790466 -0.3108556270599365 0.43406403064727783
vn -0.8118311762809753 -0.307998925447464 0.49605128169059753
vn 0.803658664226532 0.12424465268850327 -0.5819759964942932
vn 0.8387328386306763 -0.10282284766435623 -0.5347474217414856
vn -0.7349807024002075 -0.5800895690917969 0.35114020109176636
vn 0.7056199908256531 -0.12110843509435654 -0.6981642246246338
vn 0.6476719975471497 -0.34723174571990967 -0.6781970262527466
vn -0.7828153371810913 -0.6114570498466492 0.11541450768709183
vn -0.8938794732093811 -0.37237435579299927 0.2496332973241806
vn 0.5153992176055908 -0.3304663300514221 -0.7906678318977356
vn 0.3448560833930969 -0.5232431292533875 -0.7792887091636658
vn 0.123895563185215 -0.622561514377594 -0.7727012038230896
vn -0.3656263053417206 -0.6729093194007874 -0.6430478096008301
vn -0.8495844006538391 -0.5208193063735962 -0.08338868618011475
vn -0.7068598866462708 -0.6002012491226196 -0.3743095397949219
vn 0.3275515139102936 -0.568464994430542 -0.7546903491020203
vn 0.14659228920936584 -0.6436902284622192 -0.7511149644851685
vn -0.08158637583255768 -0.6886354684829712 -0.7205032706260681
vn -0.3145018517971039 -0.7719646096229553 -0.5524122714996338
vn 0.3543938994407654 0.8284986019134521 0.43358397483825684
vn 0.5465593338012695 0.807125449180603 0.22320722043514252
vn -0.7356346249580383 0.09718292206525803 0.670370876789093
vn 0.7070254683494568 0.6756079196929932 -0.20897133648395538
vn 0.8132319450378418 0.3937925100326538 -0.4284638464450836
vn 0.7620447874069214 0.35003861784935 -0.5447575449943542
vn 0.7606381177902222 0.10227804630994797 -0.6410685777664185
vn 0.733109176158905 -0.17925557494163513 -0.6560628414154053
vn -0.9001536965370178 -0.39608505368232727 0.18121790885925293
vn 0.5939749479293823 -0.4587790369987488 -0.6608445644378662
vn 0.3073996603488922 -0.7010683417320251 -0.6434350609779358
vn 0.17827419936656952 -0.7388848662376404 -0.6498211026191711
vn -0.03332259878516197 -0.8323445320129395 -0.553256094455719
vn -0.18031060695648193 -0.9256583452224731 -0.33263319730758667
vn -0.6018322110176086 -0.7973995208740234 -0.04418198764324188
vn 0.10503946989774704 0.8254002332687378 0.5546902418136597
vn -0.2850594222545624 0.7600913047790527 0.5839540958404541
vn 0.3533416986465454 0.8916692733764648 0.2829762399196625
vn 0.16776107251644135 0.8285264372825623 0.5342286229133606
vn -0.5577297806739807 0.39332425594329834 0.7309128642082214
vn 0.5195633769035339 0.8542447686195374 0.017886357381939888
vn -0.7366976737976074 -0.0728858932852745 0.6722828149795532
vn 0.6859753727912903 0.5970110297203064 -0.41595160961151123
vn 0.7675328254699707 0.3357841968536377 -0.5460242033004761
vn -0.8163575530052185 -0.19149699807167053 0.5448755025863647
vn 0.7884312272071838 0.0588194839656353 -0.6123042702674866
vn -0.7800825834274292 -0.25893494486808777 0.5695822834968567
vn -0.7522364258766174 -0.49627241492271423 0.43342143297195435
vn 0.6105443239212036 -0.575417697429657 -0.5441784858703613
vn 0.3711199462413788 -0.7110832929611206 -0.5971855521202087
vn 0.01753193885087967 -0.8485680222511292 -0.5287957787513733
vn -0.2982267141342163 -0.9277756810188293 -0.2242615967988968
vn -0.3309657871723175 -0.9436424970626831 0.0007018582546152174
vn -0.048639487475156784 0.7292745113372803 0.6824902296066284
vn -0.09043226391077042 0.7596150040626526 0.644055187702179
vn -0.22075730562210083 0.5275477766990662 0.820341169834137
vn 0.1157751977443695 0.9044017195701599 0.4106746017932892
vn 0.21499523520469666 0.9482975006103516 0.23347146809101105
vn -0.0026193910744041204 0.8916798830032349 0.452659010887146
vn -0.18867969512939453 0.5233912467956543 0.8309401869773865
vn -0.3924627900123596 0.28961634635925293 0.8729807734489441
vn 0.5309336185455322 0.8123311400413513 -0.24130402505397797
vn 0.5499187111854553 0.805461049079895 -0.22095701098442078
vn 0.3454291820526123 0.937609076499939 -0.03959906846284866
vn 0.3797440528869629 0.925058126449585 0.007868582382798195
vn -0.22887489199638367 0.7841346263885498 0.5768441557884216
vn -0.39487728476524353 0.5407903790473938 0.7427096962928772
vn -0.5812495946884155 0.07867412269115448 0.8099132180213928
vn 0.7261459827423096 0.575327455997467 -0.37644436955451965
vn -0.5780807733535767 0.42025649547576904 0.6994333863258362
vn -0.5684495568275452 0.23785115778446198 0.7875862121582031
vn -0.6639404296875 0.22947575151920319 0.7117050290107727
vn 0.8388659954071045 0.20616917312145233 -0.5037838220596313
vn -0.6871421933174133 0.01929546520113945 0.7262666821479797
vn 0.839978814125061 0.01134640071541071 -0.5425005555152893
vn -0.7332327961921692 -0.10528736561536789 0.6717769503593445
vn 0.8118722438812256 -0.22401343286037445 -0.5391488075256348
vn 0.7275140881538391 -0.45690545439720154 -0.5118209719657898
vn -0.7156308889389038 -0.46625155210494995 0.5200787782669067
vn 0.6778584122657776 -0.596815824508667 -0.429323673248291
vn -0.5635731816291809 -0.7849466800689697 0.2573792338371277
vn -0.6922956109046936 -0.659501850605011 0.2928893566131592
vn 0.46249786019325256 -0.7703654170036316 -0.43889951705932617
vn -0.5511095523834229 -0.834153413772583 -0.021597230806946754
vn 0.06353490799665451 -0.8751662373542786 -0.4796326458454132
vn -0.37903517484664917 -0.9155256152153015 -0.13470420241355896
vn 0.2049170881509781 0.9097055792808533 0.36117151379585266
vn -0.3420489430427551 0.5875208973884583 0.7333632707595825
vn 0.5421327948570251 0.8400684595108032 0.01941998489201069
vn -0.6136764883995056 0.07363766431808472 0.7861162424087524
vn 0.9085826277732849 -0.1493595689535141 -0.39008891582489014
vn -0.6768601536750793 -0.06623537838459015 0.7331256866455078
vn -0.6649501323699951 -0.22447746992111206 0.7123561501502991
vn 0.8383745551109314 -0.42934879660606384 -0.33583882451057434
vn -0.6312947273254395 -0.3483119010925293 0.6929255723953247
vn 0.7622515559196472 -0.6234753131866455 -0.17392854392528534
vn -0.6438915133476257 -0.5299420356750488 0.5518742203712463
vn 0.627386748790741 -0.7613579630851746 -0.16346248984336853
vn -0.6024383902549744 -0.753146767616272 0.2642686665058136
vn 0.15519089996814728 -0.9572590589523315 0.24407164752483368
vn -0.05121053755283356 0.8680753707885742 0.493784099817276
vn 0.5924753546714783 0.7167882323265076 0.3676787316799164
vn 0.9454436898231506 0.2980440855026245 -0.13155217468738556
vn 0.266861230134964 0.8567625880241394 0.44129687547683716
vn -0.5547370910644531 0.29566091299057007 0.7777220010757446
vn 0.941878616809845 -0.33475515246391296 -0.028351010754704475
vn -0.46865686774253845 -0.08995011448860168 0.8787887692451477
vn 0.8465886116027832 -0.5300816893577576 0.04797092825174332
vn -0.4529357850551605 -0.27769190073013306 0.8471933007240295
vn -0.4127037823200226 -0.4157659709453583 0.8104408383369446
vn 0.6304613947868347 -0.5944938659667969 0.49909475445747375
vn 0.6033820509910583 -0.7457196116447449 0.2825465202331543
vn -0.41273319721221924 -0.6825438737869263 0.6031460762023926
vn -0.05552338808774948 0.7103043794631958 0.7017013430595398
vn 0.036566704511642456 0.6527208089828491 0.7567155361175537
vn 0.13793858885765076 0.34579139947891235 0.928117036819458
vn 0.29261791706085205 0.6594034433364868 0.6925040483474731
vn -0.153462752699852 0.4540471136569977 0.8776618838310242
vn 0.7948472499847412 0.07481486350297928 0.6021798849105835
vn -0.1458042860031128 0.28930893540382385 0.9460663199424744
vn -0.35831400752067566 0.20996594429016113 0.9096842408180237
vn 0.7857376933097839 -0.48010942339897156 0.39001452922821045
vn -0.035082265734672546 -0.03557572141289711 0.9987510442733765
vn -0.23913925886154175 0.02247568592429161 0.9707251787185669
vn 0.4073140323162079 -0.2894098162651062 0.8662201166152954
vn 0.07768554240465164 -0.3365273177623749 0.9384638667106628
vn -0.09635748714208603 -0.1537153124809265 0.9834057688713074
vn 0.3276117146015167 -0.48913636803627014 0.8083416223526001
vn -0.22418144345283508 -0.23934079706668854 0.944700300693512
vn 0.281804621219635 -0.5999923944473267 0.7487291097640991
vn -0.04175187647342682 -0.4965912401676178 0.8669797778129578
f 1//1 2//2 3//3
f 1//1 4//4 5//5
f 2//2 1//1 5//5
f 4//4 6//6 5//5
f 5//5 6//6 7//7
f 8//8 5//5 7//7
f 2//2 5//5 8//8
f 8//8 9//9 2//2
f 10//10 11//11 12//12
f 11//11 10//10 13//13
f 3//3 10//10 12//12
f 14//14 3//3 12//12
f 13//13 10//10 15//15
f 13//13 15//15 16//16
f 14//14 17//17 1//1
f 3//3 14//14 1//1
f 2//2 10//10 3//3
f 2//2 15//15 10//10
f 16//16 15//15 18//18
f 17//17 19//19 4//4
f 1//1 17//17 4//4
f 2//2 20//20 15//15
f 20//20 18//18 15//15
f 20//20 21//21 18//18
f 19//19 22//22 23//23
f 6//6 4//4 23//23
f 4//4 19//19 23//23
f 20//20 9//9 24//24
f 2//2 9//9 20//20
f 24//24 21//21 20//20
f 25//25 23//23 22//22
f 26//26 25//25 22//22
f 6//6 27//27 7//7
f 6//6 23//23 27//27
f 23//23 25//25 27//27
f 27//27 28//28 7//7
f 7//7 29//29 8//8
f 28//28 29//29 7//7
f 8//8 30//30 9//9
f 29//29 30//30 8//8
f 9//9 30//30 24//24
f 29//29 28//28 31//31
f 30//30 29//29 32//32
f 32//32 29//29 31//31
f 30//30 33//33 24//24
f 27//27 25//25 34//34
f 35//35 27//27 34//34
f 28//28 27//27 35//35
f 31//31 28//28 35//35
f 36//36 31//31 35//35
f 32//32 31//31 36//36
f 37//37 32//32 36//36
f 30//30 32//32 37//37
f 38//38 30//30 37//37
f 33//33 30//30 38//38
f 12//12 39//39 40//40
f 39//39 12//12 41//41
f 12//12 11//11 41//41
f 42//42 17//17 40//40
f 40//40 14//14 12//12
f 40//40 17//17 14//14
f 16//16 18//18 43//43
f 16//16 43//43 44//44
f 16//16 44//44 13//13
f 45//45 43//43 18//18
f 45//45 18//18 21//21
f 19//19 42//42 46//46
f 17//17 42//42 19//19
f 22//22 46//46 26//26
f 46//46 22//22 19//19
f 45//45 21//21 47//47
f 47//47 24//24 33//33
f 21//21 24//24 47//47
f 25//25 26//26 48//48
f 48//48 34//34 25//25
f 49//49 34//34 48//48
f 35//35 34//34 50//50
f 34//34 49//49 50//50
f 51//51 50//50 52//52
f 51//51 35//35 50//50
f 35//35 51//51 36//36
f 51//51 53//53 36//36
f 53//53 37//37 36//36
f 53//53 51//51 52//52
f 54//54 37//37 53//53
f 40//40 39//39 55//55
f 13//13 56//56 11//11
f 11//11 56//56 41//41
f 44//44 57//57 13//13
f 13//13 57//57 56//56
f 40//40 55//55 42//42
f 42//42 55//55 58//58
f 42//42 59//59 60//60
f 58//58 59//59 42//42
f 46//46 42//42 60//60
f 26//26 46//46 61//61
f 62//62 45//45 47//47
f 26//26 61//61 48//48
f 62//62 47//47 63//63
f 63//63 47//47 64//64
f 47//47 33//33 64//64
f 49//49 48//48 65//65
f 50//50 49//49 66//66
f 49//49 65//65 66//66
f 52//52 66//66 67//67
f 52//52 50//50 66//66
f 38//38 37//37 54//54
f 64//64 33//33 38//38
f 52//52 67//67 68//68
f 53//53 52//52 68//68
f 53//53 68//68 69//69
f 54//54 53//53 69//69
f 70//70 56//56 71//71
f 56//56 57//57 71//71
f 70//70 55//55 39//39
f 41//41 70//70 39//39
f 56//56 70//70 41//41
f 57//57 44//44 72//72
f 55//55 73//73 58//58
f 58//58 73//73 74//74
f 44//44 43//43 72//72
f 43//43 75//75 72//72
f 75//75 76//76 72//72
f 76//76 75//75 77//77
f 60//60 59//59 78//78
f 74//74 59//59 58//58
f 78//78 59//59 74//74
f 43//43 45//45 75//75
f 45//45 79//79 75//75
f 77//77 75//75 79//79
f 60//60 80//80 46//46
f 60//60 78//78 80//80
f 79//79 45//45 62//62
f 81//81 79//79 62//62
f 81//81 77//77 79//79
f 46//46 80//80 61//61
f 81//81 62//62 82//82
f 82//82 62//62 63//63
f 80//80 83//83 61//61
f 64//64 84//84 63//63
f 84//84 82//82 63//63
f 61//61 83//83 48//48
f 83//83 85//85 48//48
f 84//84 64//64 86//86
f 86//86 64//64 87//87
f 65//65 48//48 85//85
f 67//67 65//65 88//88
f 67//67 66//66 65//65
f 38//38 54//54 89//89
f 38//38 87//87 64//64
f 38//38 89//89 87//87
f 90//90 87//87 89//89
f 86//86 87//87 90//90
f 68//68 67//67 91//91
f 54//54 69//69 92//92
f 89//89 54//54 93//93
f 93//93 54//54 92//92
f 90//90 89//89 93//93
f 70//70 94//94 95//95
f 71//71 94//94 70//70
f 57//57 96//96 71//71
f 71//71 96//96 97//97
f 55//55 98//98 73//73
f 95//95 55//55 70//70
f 98//98 55//55 95//95
f 57//57 72//72 96//96
f 99//99 74//74 73//73
f 99//99 73//73 98//98
f 72//72 76//76 96//96
f 74//74 100//100 78//78
f 78//78 101//101 80//80
f 100//100 101//101 78//78
f 102//102 81//81 103//103
f 102//102 77//77 81//81
f 102//102 103//103 104//104
f 80//80 101//101 105//105
f 81//81 82//82 103//103
f 80//80 105//105 83//83
f 83//83 105//105 106//106
f 82//82 84//84 103//103
f 107//107 83//83 106//106
f 85//85 83//83 107//107
f 65//65 85//85 88//88
f 108//108 86//86 90//90
f 88//88 91//91 67//67
f 68//68 91//91 109//109
f 69//69 68//68 109//109
f 95//95 110//110 111//111
f 94//94 112//112 95//95
f 95//95 112//112 110//110
f 71//71 113//113 94//94
f 94//94 113//113 112//112
f 71//71 114//114 113//113
f 114//114 71//71 97//97
f 115//115 99//99 98//98
f 115//115 98//98 111//111
f 111//111 98//98 95//95
f 96//96 116//116 117//117
f 96//96 117//117 97//97
f 74//74 99//99 100//100
f 115//115 100//100 99//99
f 96//96 76//76 116//116
f 116//116 76//76 77//77
f 101//101 100//100 118//118
f 100//100 119//119 118//118
f 118//118 106//106 105//105
f 101//101 118//118 105//105
f 106//106 118//118 120//120
f 103//103 121//121 122//122
f 103//103 122//122 104//104
f 123//123 106//106 120//120
f 107//107 106//106 123//123
f 103//103 84//84 121//121
f 124//124 107//107 123//123
f 84//84 86//86 108//108
f 84//84 108//108 125//125
f 84//84 125//125 121//121
f 88//88 85//85 107//107
f 88//88 124//124 126//126
f 88//88 107//107 124//124
f 90//90 127//127 108//108
f 88//88 126//126 91//91
f 126//126 128//128 129//129
f 126//126 129//129 91//91
f 91//91 129//129 109//109
f 109//109 129//129 130//130
f 90//90 93//93 127//127
f 93//93 92//92 127//127
f 131//131 110//110 112//112
f 114//114 97//97 132//132
f 111//111 110//110 115//115
f 97//97 117//117 132//132
f 100//100 133//133 119//119
f 115//115 133//133 100//100
f 116//116 77//77 134//134
f 118//118 119//119 135//135
f 135//135 119//119 133//133
f 102//102 104//104 136//136
f 102//102 136//136 134//134
f 102//102 134//134 77//77
f 135//135 137//137 118//118
f 137//137 120//120 118//118
f 137//137 138//138 120//120
f 138//138 123//123 120//120
f 138//138 139//139 123//123
f 139//139 124//124 123//123
f 139//139 138//138 140//140
f 121//121 125//125 141//141
f 122//122 121//121 141//141
f 142//142 124//124 139//139
f 143//143 139//139 140//140
f 143//143 142//142 139//139
f 142//142 126//126 124//124
f 128//128 126//126 142//142
f 144//144 142//142 143//143
f 144//144 128//128 142//142
f 145//145 108//108 127//127
f 145//145 125//125 108//108
f 130//130 129//129 128//128
f 146//146 130//130 128//128
f 92//92 69//69 147//147
f 69//69 109//109 147//147
f 113//113 148//148 112//112
f 112//112 148//148 131//131
f 110//110 149//149 115//115
f 110//110 150//150 149//149
f 110//110 131//131 150//150
f 115//115 151//151 133//133
f 115//115 149//149 151//151
f 133//133 152//152 135//135
f 151//151 152//152 133//133
f 153//153 136//136 104//104
f 154//154 153//153 104//104
f 104//104 122//122 154//154
f 138//138 155//155 140//140
f 141//141 156//156 122//122
f 122//122 156//156 154//154
f 144//144 146//146 128//128
f 147//147 109//109 157//157
f 109//109 130//130 157//157
f 127//127 92//92 158//158
f 92//92 147//147 158//158
f 159//159 127//127 158//158
f 145//145 127//127 159//159
f 150//150 131//131 160//160
f 148//148 160//160 131//131
f 114//114 161//161 113//113
f 113//113 161//161 148//148
f 114//114 132//132 162//162
f 116//116 163//163 117//117
f 117//117 163//163 132//132
f 163//163 116//116 164//164
f 134//134 165//165 166//166
f 134//134 166//166 164//164
f 134//134 164//164 116//116
f 152//152 137//137 135//135
f 134//134 136//136 165//165
f 165//165 136//136 153//153
f 167//167 137//137 152//152
f 137//137 167//167 138//138
f 167//167 155//155 138//138
f 143//143 140//140 168//168
f 141//141 125//125 169//169
f 141//141 169//169 156//156
f 143//143 168//168 144//144
f 145//145 159//159 170//170
f 169//169 125//125 145//145
f 157//157 130//130 171//171
f 130//130 146//146 171//171
f 150//150 160//160 172//172
f 160//160 148//148 172//172
f 172//172 148//148 173//173
f 173//173 148//148 161//161
f 114//114 162//162 161//161
f 149//149 150//150 174//174
f 175//175 149//149 174//174
f 174//174 172//172 176//176
f 174//174 150//150 172//172
f 163//163 162//162 132//132
f 151//151 149//149 175//175
f 177//177 175//175 174//174
f 175//175 152//152 151//151
f 152//152 175//175 177//177
f 178//178 152//152 177//177
f 167//167 152//152 178//178
f 179//179 153//153 154//154
f 156//156 179//179 154//154
f 140//140 155//155 180//180
f 180//180 155//155 167//167
f 181//181 179//179 156//156
f 182//182 181//181 156//156
f 140//140 180//180 168//168
f 156//156 169//169 182//182
f 181//181 182//182 183//183
f 144//144 184//184 146//146
f 144//144 168//168 184//184
f 145//145 170//170 185//185
f 169//169 145//145 185//185
f 169//169 185//185 182//182
f 170//170 159//159 158//158
f 172//172 173//173 176//176
f 163//163 164//164 186//186
f 177//177 174//174 187//187
f 174//174 188//188 187//187
f 174//174 176//176 188//188
f 165//165 189//189 190//190
f 166//166 165//165 190//190
f 166//166 190//190 186//186
f 166//166 186//186 164//164
f 191//191 192//192 193//193
f 165//165 153//153 189//189
f 194//194 193//193 192//192
f 194//194 195//195 193//193
f 187//187 178//178 177//177
f 189//189 153//153 179//179
f 179//179 196//196 189//189
f 194//194 192//192 197//197
f 197//197 192//192 198//198
f 197//197 199//199 194//194
f 178//178 200//200 167//167
f 199//199 197//197 201//201
f 202//202 180//180 200//200
f 200//200 180//180 167//167
f 203//203 196//196 179//179
f 181//181 203//203 179//179
f 180//180 202//202 168//168
f 202//202 204//204 168//168
f 184//184 168//168 204//204
f 182//182 185//185 183//183
f 184//184 205//205 146//146
f 146//146 205//205 171//171
f 170//170 158//158 206//206
f 158//158 147//147 206//206
f 207//207 173//173 208//208
f 208//208 173//173 161//161
f 162//162 209//209 161//161
f 161//161 209//209 208//208
f 163//163 210//210 162//162
f 162//162 210//210 209//209
f 173//173 207//207 176//176
f 163//163 186//186 210//210
f 186//186 211//211 212//212
f 186//186 212//212 210//210
f 211//211 213//213 214//214
f 212//212 211//211 214//214
f 214//214 213//213 215//215
f 207//207 188//188 176//176
f 216//216 188//188 207//207
f 186//186 190//190 211//211
f 190//190 217//217 211//211
f 217//217 213//213 211//211
f 218//218 213//213 217//217
f 215//215 213//213 191//191
f 191//191 213//213 218//218
f 215//215 191//191 219//219
f 191//191 193//193 219//219
f 193//193 195//195 219//219
f 217//217 189//189 220//220
f 190//190 189//189 217//217
f 218//218 217//217 221//221
f 221//221 217//217 220//220
f 191//191 218//218 222//222
f 222//222 218//218 221//221
f 192//192 222//222 198//198
f 191//191 222//222 192//192
f 199//199 195//195 194//194
f 189//189 196//196 220//220
f 221//221 220//220 223//223
f 222//222 221//221 223//223
f 198//198 222//222 224//224
f 222//222 223//223 224//224
f 220//220 196//196 203//203
f 223//223 220//220 225//225
f 225//225 220//220 203//203
f 226//226 223//223 225//225
f 224//224 223//223 226//226
f 198//198 227//227 197//197
f 198//198 224//224 227//227
f 224//224 226//226 227//227
f 227//227 228//228 197//197
f 228//228 201//201 197//197
f 199//199 201//201 229//229
f 200//200 230//230 202//202
f 227//227 226//226 225//225
f 230//230 204//204 202//202
f 181//181 183//183 231//231
f 203//203 181//181 231//231
f 232//232 184//184 204//204
f 185//185 233//233 183//183
f 231//231 183//183 233//233
f 205//205 184//184 232//232
f 147//147 157//157 234//234
f 157//157 171//171 234//234
f 206//206 147//147 235//235
f 147//147 234//234 235//235
f 233//233 185//185 170//170
f 206//206 233//233 170//170
f 236//236 216//216 207//207
f 237//237 236//236 208//208
f 236//236 207//207 208//208
f 209//209 237//237 208//208
f 238//238 237//237 209//209
f 210//210 238//238 209//209
f 210//210 212//212 238//238
f 214//214 239//239 212//212
f 212//212 239//239 238//238
f 240//240 239//239 215//215
f 215//215 239//239 214//214
f 241//241 188//188 216//216
f 242//242 240//240 215//215
f 219//219 242//242 215//215
f 242//242 219//219 195//195
f 187//187 188//188 241//241
f 187//187 241//241 243//243
f 244//244 241//241 216//216
f 236//236 244//244 216//216
f 245//245 242//242 195//195
f 195//195 199//199 245//245
f 187//187 246//246 178//178
f 187//187 243//243 246//246
f 247//247 241//241 248//248
f 247//247 243//243 241//241
f 244//244 248//248 241//241
f 178//178 246//246 200//200
f 246//246 243//243 249//249
f 247//247 249//249 243//243
f 250//250 229//229 251//251
f 199//199 229//229 250//250
f 251//251 252//252 250//250
f 246//246 253//253 200//200
f 253//253 230//230 200//200
f 254//254 255//255 225//225
f 225//225 255//255 227//227
f 227//227 255//255 228//228
f 228//228 256//256 201//201
f 201//201 251//251 229//229
f 201//201 256//256 251//251
f 203//203 231//231 257//257
f 203//203 254//254 225//225
f 203//203 257//257 254//254
f 258//258 255//255 254//254
f 228//228 255//255 259//259
f 256//256 228//228 259//259
f 260//260 252//252 251//251
f 260//260 251//251 256//256
f 204//204 261//261 232//232
f 204//204 253//253 261//261
f 204//204 230//230 253//253
f 231//231 233//233 257//257
f 258//258 254//254 257//257
f 258//258 262//262 255//255
f 262//262 259//259 255//255
f 256//256 259//259 263//263
f 260//260 256//256 263//263
f 171//171 205//205 264//264
f 205//205 232//232 264//264
f 265//265 264//264 266//266
f 265//265 234//234 264//264
f 234//234 171//171 264//264
f 234//234 265//265 235//235
f 206//206 235//235 267//267
f 233//233 206//206 267//267
f 268//268 233//233 267//267
f 257//257 233//233 268//268
f 258//258 257//257 268//268
f 262//262 258//258 268//268
f 259//259 262//262 263//263
f 237//237 238//238 269//269
f 238//238 239//239 269//269
f 269//269 239//239 240//240
f 269//269 270//270 237//237
f 271//271 269//269 240//240
f 271//271 240//240 242//242
f 236//236 272//272 244//244
f 273//273 271//271 242//242
f 273//273 242//242 245//245
f 273//273 245//245 274//274
f 199//199 250//250 245//245
f 275//275 274//274 245//245
f 250//250 275//275 245//245
f 250//250 252//252 275//275
f 246//246 249//249 253//253
f 252//252 276//276 275//275
f 277//277 276//276 252//252
f 278//278 253//253 249//249
f 252//252 260//260 277//277
f 253//253 278//278 261//261
f 261//261 279//279 232//232
f 232//232 279//279 280//280
f 232//232 280//280 264//264
f 280//280 266//266 264//264
f 281//281 266//266 280//280
f 262//262 268//268 282//282
f 283//283 262//262 282//282
f 262//262 283//283 263//263
f 265//265 266//266 284//284
f 235//235 265//265 285//285
f 265//265 284//284 285//285
f 267//267 235//235 286//286
f 286//286 235//235 285//285
f 268//268 267//267 286//286
f 270//270 269//269 287//287
f 269//269 271//271 287//287
f 236//236 237//237 272//272
f 288//288 272//272 237//237
f 270//270 288//288 237//237
f 271//271 289//289 287//287
f 271//271 273//273 289//289
f 244//244 290//290 248//248
f 244//244 272//272 290//290
f 273//273 274//274 289//289
f 274//274 276//276 291//291
f 274//274 275//275 276//276
f 292//292 249//249 247//247
f 276//276 293//293 291//291
f 249//249 292//292 278//278
f 278//278 292//292 294//294
f 276//276 277//277 293//293
f 278//278 279//279 261//261
f 278//278 294//294 279//279
f 294//294 295//295 279//279
f 260//260 296//296 277//277
f 263//263 296//296 260//260
f 279//279 295//295 280//280
f 297//297 281//281 280//280
f 298//298 283//283 282//282
f 298//298 296//296 283//283
f 296//296 263//263 283//283
f 266//266 281//281 284//284
f 299//299 285//285 284//284
f 300//300 286//286 285//285
f 282//282 268//268 286//286
f 285//285 299//299 300//300
f 270//270 287//287 301//301
f 288//288 270//270 301//301
f 287//287 289//289 301//301
f 272//272 302//302 290//290
f 302//302 272//272 303//303
f 288//288 303//303 272//272
f 289//289 304//304 301//301
f 289//289 274//274 305//305
f 304//304 289//289 305//305
f 248//248 306//306 247//247
f 248//248 290//290 306//306
f 301//301 303//303 288//288
f 307//307 304//304 305//305
f 274//274 291//291 305//305
f 306//306 308//308 247//247
f 247//247 308//308 292//292
f 305//305 309//309 307//307
f 309//309 305//305 310//310
f 305//305 291//291 310//310
f 291//291 293//293 310//310
f 292//292 308//308 294//294
f 310//310 293//293 311//311
f 293//293 277//277 312//312
f 293//293 312//312 311//311
f 294//294 313//313 295//295
f 314//314 315//315 311//311
f 277//277 296//296 314//314
f 277//277 314//314 312//312
f 312//312 314//314 311//311
f 297//297 280//280 295//295
f 297//297 295//295 316//316
f 316//316 295//295 313//313
f 296//296 298//298 317//317
f 314//314 296//296 317//317
f 281//281 297//297 318//318
f 281//281 319//319 284//284
f 318//318 319//319 281//281
f 284//284 319//319 299//299
f 320//320 282//282 286//286
f 321//321 298//298 282//282
f 298//298 322//322 317//317
f 320//320 286//286 300//300
f 282//282 320//320 321//321
f 298//298 321//321 322//322
f 323//323 302//302 303//303
f 303//303 324//324 323//323
f 301//301 325//325 303//303
f 303//303 325//325 324//324
f 301//301 326//326 325//325
f 307//307 326//326 304//304
f 304//304 326//326 301//301
f 306//306 327//327 308//308
f 290//290 328//328 306//306
f 290//290 302//302 328//328
f 310//310 329//329 309//309
f 327//327 330//330 308//308
f 308//308 330//330 294//294
f 310//310 331//331 329//329
f 311//311 332//332 331//331
f 311//311 331//331 310//310
f 311//311 315//315 332//332
f 294//294 330//330 313//313
f 333//333 332//332 315//315
f 314//314 333//333 315//315
f 334//334 333//333 314//314
f 297//297 316//316 318//318
f 317//317 334//334 314//314
f 317//317 322//322 334//334
f 322//322 335//335 334//334
f 336//336 299//299 319//319
f 299//299 337//337 300//300
f 336//336 337//337 299//299
f 338//338 300//300 337//337
f 338//338 320//320 300//300
f 321//321 320//320 339//339
f 321//321 339//339 322//322
f 306//306 328//328 340//340
f 323//323 328//328 302//302
f 307//307 341//341 326//326
f 307//307 329//329 341//341
f 309//309 329//329 307//307
f 340//340 327//327 306//306
f 330//330 342//342 313//313
f 313//313 342//342 316//316
f 318//318 316//316 343//343
f 343//343 316//316 342//342
f 318//318 343//343 344//344
f 319//319 318//318 344//344
f 319//319 344//344 336//336
f 345//345 322//322 339//339
f 335//335 322//322 345//345
f 337//337 336//336 346//346
f 338//338 337//337 346//346
f 347//347 320//320 338//338
f 339//339 320//320 347//347
f 345//345 339//339 347//347
f 328//328 348//348 340//340
f 348//348 328//328 349//349
f 349//349 328//328 323//323
f 323//323 324//324 349//349
f 325//325 350//350 324//324
f 325//325 326//326 350//350
f 329//329 351//351 341//341
f 329//329 352//352 351//351
f 331//331 353//353 352//352
f 331//331 352//352 329//329
f 331//331 332//332 353//353
f 327//327 354//354 355//355
f 327//327 355//355 330//330
f 330//330 355//355 342//342
f 340//340 354//354 327//327
f 332//332 333//333 356//356
f 353//353 332//332 356//356
f 357//357 342//342 355//355
f 358//358 356//356 359//359
f 333//333 359//359 356//356
f 333//333 334//334 359//359
f 360//360 361//361 357//357
f 342//342 361//361 343//343
f 357//357 361//361 342//342
f 362//362 358//358 359//359
f 334//334 335//335 362//362
f 334//334 362//362 359//359
f 363//363 361//361 360//360
f 343//343 364//364 344//344
f 343//343 361//361 364//364
f 361//361 363//363 364//364
f 365//365 366//366 358//358
f 362//362 365//365 358//358
f 362//362 345//345 365//365
f 335//335 345//345 362//362
f 364//364 363//363 367//367
f 344//344 368//368 336//336
f 344//344 364//364 368//368
f 368//368 369//369 336//336
f 369//369 346//346 336//336
f 346//346 370//370 338//338
f 370//370 347//347 338//338
f 365//365 371//371 366//366
f 365//365 347//347 371//371
f 365//365 345//345 347//347
f 368//368 364//364 367//367
f 347//347 370//370 372//372
f 372//372 371//371 347//347
f 367//367 373//373 368//368
f 369//369 368//368 374//374
f 374//374 368//368 373//373
f 346//346 369//369 375//375
f 375//375 369//369 374//374
f 376//376 372//372 370//370
f 376//376 370//370 375//375
f 375//375 370//370 346//346
f 324//324 350//350 349//349
f 326//326 351//351 350//350
f 341//341 351//351 326//326
f 348//348 377//377 378//378
f 340//340 348//348 378//378
f 349//349 377//377 348//348
f 378//378 354//354 340//340
f 353//353 356//356 379//379
f 355//355 380//380 381//381
f 357//357 355//355 381//381
f 380//380 355//355 354//354
f 382//382 360//360 381//381
f 360//360 357//357 381//381
f 360//360 383//383 363//363
f 382//382 383//383 360//360
f 384//384 363//363 383//383
f 366//366 371//371 385//385
f 386//386 363//363 384//384
f 363//363 386//386 367//367
f 372//372 385//385 371//371
f 367//367 386//386 373//373
f 386//386 387//387 373//373
f 374//374 373//373 388//388
f 373//373 387//387 388//388
f 374//374 389//389 375//375
f 388//388 389//389 374//374
f 389//389 376//376 375//375
f 376//376 389//389 390//390
f 391//391 376//376 390//390
f 392//392 349//349 350//350
f 351//351 393//393 350//350
f 377//377 394//394 378//378
f 395//395 394//394 377//377
f 349//349 392//392 377//377
f 392//392 395//395 377//377
f 352//352 396//396 393//393
f 352//352 393//393 351//351
f 352//352 353//353 396//396
f 378//378 394//394 397//397
f 354//354 378//378 397//397
f 396//396 353//353 379//379
f 397//397 380//380 354//354
f 379//379 356//356 398//398
f 381//381 399//399 382//382
f 399//399 381//381 380//380
f 358//358 398//398 356//356
f 383//383 382//382 400//400
f 358//358 366//366 401//401
f 398//398 358//358 401//401
f 383//383 402//402 384//384
f 366//366 385//385 401//401
f 385//385 403//403 401//401
f 385//385 404//404 403//403
f 386//386 405//405 406//406
f 386//386 406//406 387//387
f 372//372 376//376 391//391
f 372//372 391//391 385//385
f 385//385 391//391 404//404
f 388//388 387//387 407//407
f 389//389 388//388 407//407
f 390//390 389//389 408//408
f 389//389 407//407 408//408
f 390//390 408//408 409//409
f 391//391 390//390 409//409
f 350//350 410//410 392//392
f 350//350 393//393 410//410
f 395//395 392//392 410//410
f 411//411 395//395 410//410
f 393//393 412//412 410//410
f 393//393 396//396 412//412
f 394//394 413//413 414//414
f 397//397 394//394 414//414
f 395//395 413//413 394//394
f 395//395 411//411 413//413
f 415//415 413//413 411//411
f 410//410 416//416 411//411
f 412//412 416//416 410//410
f 417//417 416//416 412//412
f 412//412 396//396 417//417
f 418//418 419//419 420//420
f 421//421 418//418 420//420
f 419//419 380//380 397//397
f 419//419 397//397 420//420
f 420//420 397//397 414//414
f 411//411 422//422 415//415
f 422//422 411//411 423//423
f 411//411 416//416 423//423
f 417//417 423//423 416//416
f 396//396 424//424 417//417
f 379//379 398//398 424//424
f 396//396 379//379 424//424
f 399//399 418//418 425//425
f 419//419 418//418 399//399
f 380//380 419//419 399//399
f 426//426 427//427 428//428
f 426//426 423//423 427//427
f 423//423 417//417 427//427
f 424//424 427//427 417//417
f 400//400 399//399 425//425
f 429//429 400//400 425//425
f 382//382 399//399 400//400
f 430//430 428//428 427//427
f 424//424 430//430 427//427
f 398//398 401//401 430//430
f 424//424 398//398 430//430
f 402//402 400//400 429//429
f 431//431 402//402 429//429
f 400//400 402//402 383//383
f 401//401 403//403 432//432
f 430//430 401//401 432//432
f 433//433 402//402 431//431
f 402//402 433//433 384//384
f 433//433 434//434 384//384
f 384//384 434//434 386//386
f 404//404 435//435 403//403
f 405//405 434//434 436//436
f 405//405 386//386 434//434
f 437//437 438//438 435//435
f 404//404 437//437 435//435
f 439//439 405//405 436//436
f 405//405 439//439 406//406
f 406//406 407//407 387//387
f 437//437 440//440 438//438
f 437//437 408//408 440//440
f 437//437 409//409 408//408
f 391//391 409//409 437//437
f 404//404 391//391 437//437
f 407//407 406//406 441//441
f 441//441 406//406 439//439
f 442//442 407//407 441//441
f 440//440 408//408 442//442
f 442//442 408//408 407//407
f 420//420 443//443 421//421
f 420//420 414//414 443//443
f 413//413 415//415 414//414
f 423//423 444//444 422//422
f 425//425 418//418 445//445
f 445//445 418//418 421//421
f 423//423 426//426 444//444
f 428//428 430//430 446//446
f 447//447 431//431 429//429
f 430//430 432//432 448//448
f 446//446 430//430 448//448
f 431//431 447//447 433//433
f 432//432 403//403 449//449
f 448//448 432//432 449//449
f 433//433 450//450 434//434
f 433//433 447//447 450//450
f 451//451 449//449 435//435
f 449//449 403//403 435//435
f 434//434 450//450 452//452
f 436//436 434//434 452//452
f 435//435 453//453 451//451
f 435//435 438//438 453//453
f 452//452 454//454 436//436
f 454//454 439//439 436//436
f 455//455 453//453 438//438
f 438//438 440//440 455//455
f 439//439 454//454 456//456
f 441//441 439//439 456//456
f 456//456 442//442 441//441
f 440//440 442//442 455//455
f 414//414 457//457 443//443
f 415//415 457//457 414//414
f 444//444 457//457 422//422
f 422//422 457//457 415//415
f 445//445 458//458 459//459
f 425//425 445//445 459//459
f 445//445 460//460 458//458
f 443//443 445//445 421//421
f 460//460 445//445 443//443
f 426//426 461//461 444//444
f 426//426 428//428 461//461
f 429//429 425//425 459//459
f 428//428 446//446 461//461
f 429//429 459//459 447//447
f 459//459 462//462 447//447
f 463//463 446//446 448//448
f 450//450 462//462 464//464
f 450//450 447//447 462//462
f 449//449 465//465 463//463
f 463//463 448//448 449//449
f 452//452 450//450 464//464
f 451//451 465//465 449//449
f 466//466 465//465 451//451
f 452//452 467//467 468//468
f 452//452 468//468 454//454
f 453//453 466//466 451//451
f 453//453 469//469 466//466
f 453//453 455//455 469//469
f 454//454 468//468 456//456
f 469//469 442//442 456//456
f 455//455 442//442 469//469
f 443//443 457//457 470//470
f 471//471 443//443 470//470
f 457//457 444//444 470//470
f 471//471 472//472 473//473
f 471//471 473//473 460//460
f 460//460 473//473 458//458
f 460//460 443//443 471//471
f 470//470 474//474 471//471
f 470//470 444//444 474//474
f 459//459 458//458 475//475
f 474//474 476//476 471//471
f 476//476 472//472 471//471
f 477//477 476//476 474//474
f 444//444 477//477 474//474
f 444//444 461//461 477//477
f 475//475 478//478 462//462
f 475//475 462//462 459//459
f 472//472 476//476 479//479
f 480//480 479//479 476//476
f 477//477 480//480 476//476
f 461//461 446//446 477//477
f 481//481 478//478 475//475
f 479//479 482//482 481//481
f 479//479 483//483 482//482
f 480//480 483//483 479//479
f 463//463 480//480 477//477
f 477//477 446//446 463//463
f 462//462 478//478 464//464
f 464//464 478//478 467//467
f 467//467 478//478 481//481
f 482//482 484//484 481//481
f 484//484 467//467 481//481
f 480//480 485//485 483//483
f 463//463 485//485 480//480
f 464//464 467//467 452//452
f 485//485 482//482 483//483
f 463//463 465//465 485//485
f 468//468 467//467 486//486
f 486//486 467//467 484//484
f 482//482 486//486 484//484
f 485//485 487//487 482//482
f 487//487 486//486 482//482
f 465//465 466//466 485//485
f 466//466 487//487 485//485
f 469//469 487//487 466//466
f 468//468 486//486 456//456
f 487//487 456//456 486//486
f 469//469 456//456 487//487
f 458//458 473//473 475//475
f 475//475 473//473 472//472
f 481//481 475//475 472//472
f 472//472 479//479 481//481
