# Generated by Visualization Toolkit
v 9.707199096679688 -150.1348876953125 120.95439147949219
v 6.076171875 -152.5498504638672 119.53369140625
v 5.33831787109375 -150.1410675048828 120.9002685546875
v 8.015121459960938 -154.3464813232422 119.8653564453125
v 11.116744995117188 -151.0914764404297 121.76394653320312
v -1.0207366943359375 -152.85447692871094 120.13038635253906
v -7.818756103515625 -154.14947509765625 120.49247741699219
v -15.491912841796875 -147.8984832763672 122.27348327636719
v -8.742599487304688 -151.8563995361328 120.37478637695312
v -4.210784912109375 -154.597412109375 120.51618957519531
v -8.447174072265625 -154.09884643554688 121.53509521484375
v 11.647750854492188 -148.29348754882812 123.40628051757812
v 6.1663818359375 -146.37960815429688 124.56083679199219
v -2.886077880859375 -150.92233276367188 122.31063842773438
v -2.4062042236328125 -149.13104248046875 124.97406005859375
v -7.2765045166015625 -150.55548095703125 123.39228820800781
v -10.01788330078125 -150.1999969482422 121.7008056640625
v 7.8981170654296875 -152.1311492919922 124.00407409667969
v 5.031005859375 -153.97935485839844 123.47233581542969
v -12.632797241210938 -150.7831268310547 123.75788879394531
v -0.5612335205078125 -155.06158447265625 121.96600341796875
v 9.258575439453125 -147.21531677246094 124.93070983886719
v -9.344406127929688 -148.9058074951172 125.1912841796875
v 11.45098876953125 -149.52598571777344 123.98124694824219
v -5.2453460693359375 -151.07594299316406 124.44740295410156
v -4.928375244140625 -153.6831512451172 123.92277526855469
v 0.465087890625 -153.6881561279297 124.5291748046875
v 7.68988037109375 -145.42608642578125 125.43644714355469
v 9.2686767578125 -142.64486694335938 126.79733276367188
v 6.4669189453125 -141.30259704589844 128.349609375
v 1.0552825927734375 -143.72579956054688 128.03732299804688
v 10.982650756835938 -143.7560272216797 127.251953125
v 8.503372192382812 -146.71438598632812 126.31884765625
v -3.63116455078125 -146.20916748046875 126.86341857910156
v -5.03265380859375 -148.17385864257812 126.42160034179688
v -9.83428955078125 -148.06491088867188 125.80633544921875
v 5.7079925537109375 -149.09071350097656 126.83917236328125
v -8.051239013671875 -148.40826416015625 126.02381896972656
v -9.702102661132812 -146.72305297851562 128.33493041992188
v -10.135101318359375 -145.41519165039062 127.6058349609375
v -12.188735961914062 -149.24310302734375 124.67794799804688
v -3.8091583251953125 -150.63755798339844 125.90985107421875
v -4.7057037353515625 -149.2439422607422 127.27384948730469
v -7.981414794921875 -151.3106231689453 124.31861877441406
v -8.7532958984375 -148.0967254638672 127.00088500976562
v -0.7224884033203125 -150.1576385498047 128.15878295898438
v 9.365081787109375 -141.02566528320312 128.4356231689453
v 6.86370849609375 -139.5740966796875 130.68885803222656
v 3.97607421875 -145.51243591308594 130.60914611816406
v -5.3024139404296875 -143.8605499267578 128.6884307861328
v 7.385406494140625 -141.79783630371094 130.70785522460938
v 1.2269439697265625 -141.7917938232422 130.03013610839844
v -3.9485931396484375 -141.76071166992188 130.80252075195312
v -6.609344482421875 -144.10472106933594 130.0765380859375
v -5.8712615966796875 -146.60342407226562 129.9775390625
v -0.67169189453125 -145.57122802734375 131.22792053222656
v 3.227996826171875 -142.11317443847656 131.2545623779297
v -3.104400634765625 -143.27407836914062 131.36683654785156
vn 0.2792692482471466 0.43023747205734253 -0.8584313988685608
vn 0.03460708260536194 0.22417601943016052 -0.9739340543746948
vn -0.11631587892770767 0.6317175626754761 -0.7664226293563843
vn 0.346844881772995 -0.7252049446105957 -0.5947911739349365
vn 0.9018039703369141 -0.37335801124572754 -0.21760843694210052
vn -0.041498295962810516 0.37348034977912903 -0.9267094135284424
vn -0.35445764660835266 -0.6021658778190613 -0.715371310710907
vn -0.8659982681274414 0.18269476294517517 -0.46547791361808777
vn 0.05024262145161629 0.47750845551490784 -0.8771894574165344
vn -0.07261982560157776 -0.6958168148994446 -0.7145386338233948
vn -0.3609727919101715 -0.929909884929657 0.07047193497419357
vn 0.7574661374092102 0.6018455028533936 -0.2530355453491211
vn 0.018128294497728348 0.6548259258270264 -0.7555623650550842
vn -0.01890946924686432 0.9203248023986816 -0.3906976878643036
vn -0.3136201798915863 0.6656010746955872 -0.6772131323814392
vn 0.3198193907737732 0.9466773271560669 0.03895655274391174
vn 0.33371180295944214 0.8022022843360901 -0.49508383870124817
vn 0.4025956988334656 -0.6681976914405823 0.6256425380706787
vn 0.20150905847549438 -0.8184622526168823 0.5380648374557495
vn -0.3796289563179016 -0.569593071937561 0.7290031909942627
vn -0.021841472014784813 -0.978157639503479 0.20671388506889343
vn 0.8050099015235901 0.4743064343929291 0.35636019706726074
vn 0.3343898355960846 0.5879504084587097 0.7365444898605347
vn 0.6934129595756531 -0.2519546449184418 0.6750536561012268
vn -0.23940950632095337 0.9648192524909973 0.10865975171327591
vn -0.22588376700878143 -0.6699416041374207 0.7072162628173828
vn 0.009274096228182316 -0.8052688837051392 0.5928372144699097
vn 0.5451415777206421 0.30882397294044495 -0.7793897986412048
vn 0.23488645255565643 0.500984251499176 -0.8329724669456482
vn -0.16933573782444 0.7096531391143799 -0.6838989853858948
vn -0.16261813044548035 0.6197025179862976 -0.7678048014640808
vn 0.9923118948936462 -0.10043340921401978 -0.07232015579938889
vn 0.8521859645843506 -0.36610177159309387 0.37382975220680237
vn -0.06679121404886246 0.4786294996738434 -0.8754728436470032
vn -0.2690013349056244 -0.09957154095172882 -0.9579790830612183
vn -0.4179266393184662 0.09419696778059006 -0.9035841226577759
vn 0.42732325196266174 -0.46769341826438904 0.7737298011779785
vn 0.1207655817270279 -0.6524681448936462 -0.7481316924095154
vn -0.5767431855201721 -0.45912569761276245 0.6757003664970398
vn -0.6436095237731934 0.7163010239601135 -0.2695917785167694
vn -0.47841304540634155 0.31784388422966003 0.8185940384864807
vn -0.9191008806228638 -0.089779332280159 0.3836577236652374
vn -0.40533575415611267 -0.914130687713623 0.008256327360868454
vn -0.002032729098573327 0.18897287547588348 0.9819802045822144
vn -0.3077071011066437 -0.864208996295929 0.3980692923069
vn -0.072660893201828 -0.683406412601471 0.7264131307601929
vn 0.6032773852348328 0.7783253192901611 -0.17397190630435944
vn 0.07289350032806396 0.889503002166748 0.45107758045196533
vn 0.31505250930786133 -0.4511522054672241 0.834987223148346
vn -0.19940721988677979 0.76518315076828 -0.6121532320976257
vn 0.4705318808555603 -0.05697568878531456 0.8805416226387024
vn -0.2020733803510666 0.9202531576156616 -0.3351127803325653
vn -0.3141149878501892 0.8976709842681885 0.3090609610080719
vn -0.5817044377326965 0.4092234969139099 0.7029623985290527
vn -0.25570759177207947 -0.3728440999984741 0.8919646143913269
vn 0.0008568454068154097 -0.3196417987346649 0.9475380778312683
vn 0.014394245110452175 0.2705076038837433 0.9626102447509766
vn -0.18293769657611847 0.010461091063916683 0.9830688834190369
f 1//1 2//2 3//3
f 4//4 1//1 5//5
f 2//2 1//1 4//4
f 3//3 2//2 6//6
f 7//7 8//8 9//9
f 9//9 6//6 10//10
f 8//8 7//7 11//11
f 6//6 2//2 4//4
f 10//10 6//6 4//4
f 11//11 7//7 10//10
f 10//10 7//7 9//9
f 12//12 1//1 13//13
f 1//1 3//3 13//13
f 1//1 12//12 5//5
f 6//6 14//14 15//15
f 16//16 9//9 17//17
f 8//8 17//17 9//9
f 14//14 6//6 9//9
f 4//4 18//18 19//19
f 20//20 8//8 11//11
f 4//4 19//19 21//21
f 10//10 4//4 21//21
f 11//11 10//10 21//21
f 13//13 22//22 12//12
f 3//3 15//15 13//13
f 23//23 17//17 8//8
f 24//24 5//5 12//12
f 15//15 3//3 6//6
f 15//15 14//14 25//25
f 14//14 9//9 16//16
f 14//14 16//16 25//25
f 23//23 16//16 17//17
f 18//18 5//5 24//24
f 18//18 4//4 5//5
f 26//26 20//20 11//11
f 19//19 27//27 21//21
f 21//21 27//27 26//26
f 11//11 21//21 26//26
f 28//28 13//13 29//29
f 29//29 13//13 30//30
f 30//30 13//13 31//31
f 28//28 29//29 32//32
f 15//15 31//31 13//13
f 24//24 12//12 22//22
f 32//32 33//33 28//28
f 28//28 33//33 22//22
f 13//13 28//28 22//22
f 34//34 35//35 36//36
f 33//33 37//37 22//22
f 37//37 24//24 22//22
f 35//35 34//34 15//15
f 36//36 35//35 38//38
f 36//36 38//38 23//23
f 39//39 40//40 36//36
f 8//8 41//41 23//23
f 8//8 20//20 41//41
f 37//37 18//18 24//24
f 25//25 42//42 15//15
f 43//43 35//35 42//42
f 15//15 42//42 35//35
f 35//35 43//43 38//38
f 44//44 25//25 16//16
f 44//44 16//16 23//23
f 45//45 23//23 38//38
f 36//36 23//23 45//45
f 23//23 41//41 36//36
f 46//46 18//18 37//37
f 46//46 19//19 18//18
f 44//44 42//42 25//25
f 41//41 20//20 23//23
f 20//20 44//44 23//23
f 42//42 26//26 46//46
f 26//26 27//27 46//46
f 44//44 26//26 42//42
f 20//20 26//26 44//44
f 30//30 47//47 29//29
f 47//47 30//30 48//48
f 29//29 47//47 32//32
f 32//32 49//49 33//33
f 34//34 31//31 15//15
f 50//50 31//31 34//34
f 40//40 50//50 34//34
f 49//49 37//37 33//33
f 40//40 34//34 36//36
f 46//46 37//37 49//49
f 43//43 46//46 45//45
f 46//46 39//39 45//45
f 38//38 43//43 45//45
f 36//36 45//45 39//39
f 27//27 19//19 46//46
f 43//43 42//42 46//46
f 32//32 47//47 51//51
f 51//51 47//47 48//48
f 30//30 52//52 48//48
f 30//30 31//31 52//52
f 50//50 52//52 31//31
f 53//53 52//52 50//50
f 53//53 50//50 54//54
f 40//40 54//54 50//50
f 32//32 51//51 49//49
f 55//55 54//54 39//39
f 40//40 39//39 54//54
f 46//46 49//49 56//56
f 55//55 46//46 56//56
f 39//39 46//46 55//55
f 48//48 57//57 51//51
f 48//48 52//52 57//57
f 57//57 52//52 53//53
f 53//53 58//58 57//57
f 57//57 49//49 51//51
f 56//56 49//49 57//57
f 58//58 56//56 57//57
f 53//53 54//54 58//58
f 54//54 55//55 58//58
f 58//58 55//55 56//56
