# Generated by Visualization Toolkit
v 6.4771881103515625 -126.19154357910156 100.26124572753906
v 4.634246826171875 -126.87991333007812 99.51388549804688
v 1.7772979736328125 -123.39811706542969 100.29653930664062
v -1.2834014892578125 -126.005615234375 99.18687438964844
v -2.389892578125 -123.28652954101562 100.19798278808594
v -8.8861083984375 -126.00320434570312 99.80427551269531
v -7.3193206787109375 -124.01701354980469 100.4808349609375
v 1.6672210693359375 -129.76019287109375 99.0487060546875
v 8.599441528320312 -130.9400634765625 100.30609130859375
v -5.683258056640625 -131.31971740722656 99.27484130859375
v -11.416839599609375 -129.0063018798828 100.31291198730469
v 5.538482666015625 -133.17245483398438 99.44915771484375
v 8.116043090820312 -134.8190460205078 100.15730285644531
v -8.943588256835938 -134.2391357421875 100.10238647460938
v 2.2957000732421875 -135.93197631835938 99.357421875
v -2.986663818359375 -137.39532470703125 99.41029357910156
v 6.18072509765625 -138.07374572753906 100.26904296875
v -6.268096923828125 -139.52247619628906 100.27493286132812
v 2.8878021240234375 -142.07225036621094 100.78404235839844
v -2.089202880859375 -142.68251037597656 100.67442321777344
v 1.5363922119140625 -120.30992126464844 104.09799194335938
v 1.65740966796875 -121.55735778808594 102.12342834472656
v -6.6043548583984375 -122.12989807128906 102.34513854980469
v -10.922622680664062 -122.90330505371094 102.13479614257812
v -11.483718872070312 -121.79409790039062 103.48554992675781
v 4.611358642578125 -123.0167236328125 101.58709716796875
v -12.4725341796875 -124.4207763671875 101.81373596191406
v -14.195510864257812 -122.93074035644531 103.96798706054688
v 6.73382568359375 -124.59367370605469 101.47073364257812
v -16.102218627929688 -125.03805541992188 103.96337890625
v -15.659500122070312 -127.62326049804688 102.47813415527344
v -16.044586181640625 -126.23849487304688 103.28874206542969
v 11.079574584960938 -128.3388214111328 102.31446838378906
v -14.935836791992188 -131.784912109375 102.15988159179688
v 12.509735107421875 -134.5505828857422 102.47262573242188
v -12.479827880859375 -135.76231384277344 101.75001525878906
v 11.313186645507812 -138.19161987304688 102.53903198242188
v -6.77557373046875 -142.19622802734375 101.28466796875
v 9.357772827148438 -140.69985961914062 102.64543151855469
v -12.389328002929688 -140.2012176513672 103.74073791503906
v 4.678466796875 -145.3522186279297 102.79505920410156
v 0.7435455322265625 -145.54876708984375 101.78465270996094
v -7.2817840576171875 -144.54672241210938 102.82438659667969
v -1.13104248046875 -147.16033935546875 102.58737182617188
v 2.6117401123046875 -147.82679748535156 103.59538269042969
v -3.9319305419921875 -146.6258544921875 102.96710205078125
v 5.1019134521484375 -119.5491943359375 106.12348937988281
v -4.4243621826171875 -120.76963806152344 104.78337097167969
v 12.115081787109375 -124.14799499511719 106.47264099121094
v -14.245071411132812 -121.58197021484375 106.4608154296875
v 15.557525634765625 -128.2852325439453 106.77616882324219
v 14.944168090820312 -131.90280151367188 104.52159118652344
v -17.704391479492188 -133.34353637695312 104.53082275390625
v 16.365371704101562 -133.75125122070312 106.43440246582031
v 14.596206665039062 -135.9178466796875 104.36332702636719
v -16.930633544921875 -136.86903381347656 105.33399963378906
v 16.114959716796875 -141.68142700195312 108.81346130371094
v -13.363555908203125 -142.73329162597656 106.33949279785156
v -7.673248291015625 -146.54708862304688 104.8638916015625
v -3.8067169189453125 -149.34368896484375 105.37916564941406
v 1.4879302978515625 -150.98817443847656 106.3189697265625
v -0.242889404296875 -150.69158935546875 105.85752868652344
v 4.032440185546875 -118.79570007324219 107.35043334960938
v 0.9051055908203125 -118.7191162109375 107.61064147949219
v 9.492446899414062 -121.18339538574219 107.407958984375
v -11.081024169921875 -119.70832824707031 108.7337646484375
v -18.655029296875 -127.57301330566406 105.80049133300781
v -19.591522216796875 -131.53515625 106.48638916015625
v -20.133987426757812 -135.71934509277344 108.87483215332031
v 14.404251098632812 -140.20126342773438 106.68217468261719
v -2.643951416015625 -151.71084594726562 108.12873840332031
v 9.021347045898438 -119.43138122558594 110.18116760253906
v -4.28125 -118.88362121582031 110.4019775390625
v -13.764694213867188 -120.35786437988281 109.85163879394531
v 13.576187133789062 -122.847412109375 109.67005920410156
v -17.876876831054688 -123.51693725585938 108.83573913574219
v 15.175735473632812 -125.48114013671875 108.59300231933594
v -19.669509887695312 -125.37733459472656 109.13716125488281
v 16.65570068359375 -126.75656127929688 109.75350952148438
v -21.209686279296875 -129.63742065429688 109.6309814453125
v 17.966232299804688 -134.39474487304688 110.81913757324219
v -21.208358764648438 -134.64450073242188 110.75721740722656
v 17.041580200195312 -136.74258422851562 108.72171020507812
v 16.31097412109375 -138.8277130126953 108.124755859375
v -17.018478393554688 -142.1243438720703 109.78462219238281
v -14.623458862304688 -144.71319580078125 109.53584289550781
v 15.612548828125 -144.90878295898438 110.75387573242188
v 10.610321044921875 -148.6257781982422 110.23333740234375
v -10.176025390625 -148.22528076171875 109.37725830078125
v 6.9615631103515625 -151.46444702148438 109.8155517578125
v 4.770294189453125 -151.86282348632812 108.86604309082031
v 0.143646240234375 -154.19656372070312 111.26264953613281
v 4.4122161865234375 -118.29339599609375 111.50729370117188
v 6.95574951171875 -118.55075073242188 112.20478820800781
v -11.093826293945312 -118.60954284667969 113.18002319335938
v -16.632965087890625 -121.70408630371094 111.37620544433594
v -21.354568481445312 -127.70640563964844 111.2332763671875
v -21.8349609375 -133.08323669433594 112.77055358886719
v 19.403091430664062 -139.81919860839844 112.47695922851562
v -10.287689208984375 -151.25247192382812 114.09016418457031
v 6.0078125 -153.62762451171875 112.49159240722656
v 3.179779052734375 -154.02249145507812 111.48991394042969
v -2.086669921875 -154.1554718017578 112.24491882324219
v -2.0542449951171875 -118.78829956054688 112.58132934570312
v 10.039474487304688 -119.93626403808594 114.08462524414062
v 12.972991943359375 -121.55516052246094 112.90972900390625
v -13.951828002929688 -119.91372680664062 115.38969421386719
v 15.183059692382812 -123.41128540039062 114.64529418945312
v -19.814727783203125 -124.45394897460938 113.99711608886719
v -21.0782470703125 -126.35690307617188 113.91354370117188
v 17.992324829101562 -130.52020263671875 113.59324645996094
v -21.899917602539062 -129.77516174316406 113.38528442382812
v 18.610122680664062 -142.4473419189453 112.34526062011719
v -18.114242553710938 -143.2858123779297 113.26066589355469
v -15.734054565429688 -148.64720153808594 115.80635070800781
v 15.583114624023438 -147.64657592773438 113.70809936523438
v 12.733062744140625 -149.75064086914062 113.77175903320312
v 9.473724365234375 -151.590576171875 112.38185119628906
v -10.035781860351562 -118.69963073730469 114.87208557128906
v 5.78839111328125 -119.85276794433594 116.35836791992188
v -1.2557220458984375 -119.75303649902344 115.66905212402344
v -7.3939361572265625 -119.21745300292969 116.46621704101562
v 13.511077880859375 -122.24034118652344 117.13980102539062
v -16.979568481445312 -121.77862548828125 114.93412780761719
v 16.840713500976562 -126.40034484863281 113.25111389160156
v 18.907989501953125 -133.9042205810547 113.45420837402344
v 19.13897705078125 -132.8367462158203 115.69358825683594
v 20.70928955078125 -137.8143310546875 115.05299377441406
v -21.692337036132812 -138.36720275878906 118.37025451660156
v -20.356246948242188 -141.99517822265625 117.6112060546875
v 19.257720947265625 -145.21078491210938 115.23353576660156
v -12.837066650390625 -150.5330810546875 116.06379699707031
v 12.751388549804688 -150.4022216796875 115.24404907226562
v 8.051864624023438 -153.45834350585938 115.22488403320312
v -6.232513427734375 -153.53359985351562 115.84609985351562
v 3.5249176025390625 -155.3157501220703 115.3726806640625
v -1.1346588134765625 -155.16903686523438 114.36943054199219
v 9.030181884765625 -120.49098205566406 116.92762756347656
v -15.708236694335938 -121.979248046875 118.19132995605469
v -18.451828002929688 -123.68701171875 117.59916687011719
v 16.081329345703125 -125.63188171386719 116.94169616699219
v -20.28448486328125 -125.67100524902344 116.62985229492188
v -21.367721557617188 -128.9439239501953 117.70042419433594
v 17.644973754882812 -129.07679748535156 115.90507507324219
v -22.131607055664062 -133.7733154296875 117.70159912109375
v 20.971267700195312 -135.75953674316406 117.20545959472656
v 21.3310546875 -141.08082580566406 117.57197570800781
v 20.8436279296875 -142.8300323486328 118.25422668457031
v -18.002853393554688 -146.08419799804688 117.243408203125
v 17.114837646484375 -148.33230590820312 117.58052062988281
v 13.708206176757812 -149.9071044921875 117.04450988769531
v -15.79766845703125 -148.95079040527344 117.30317687988281
v -10.226211547851562 -151.8880157470703 116.97015380859375
v -2.3138580322265625 -154.97901916503906 116.98611450195312
v 3.4410552978515625 -155.26463317871094 117.10769653320312
v -9.78045654296875 -120.72731018066406 119.30342102050781
v -12.400772094726562 -120.6405029296875 118.55744934082031
v 14.583694458007812 -123.49850463867188 117.65077209472656
v 17.037429809570312 -129.1340789794922 119.3143310546875
v 19.423568725585938 -133.41885375976562 119.66064453125
v -21.651596069335938 -131.7714385986328 121.15121459960938
v 21.061325073242188 -137.14500427246094 118.32315063476562
v 18.124710083007812 -147.0784149169922 117.95245361328125
v 13.4559326171875 -149.40562438964844 119.57551574707031
v -13.188064575195312 -150.46620178222656 118.74066162109375
v 8.7889404296875 -152.78994750976562 117.73590087890625
v -7.1190032958984375 -152.97325134277344 118.32359313964844
v 9.313873291015625 -122.81878662109375 121.28028869628906
v 3.9404296875 -123.18415832519531 122.7979736328125
v -5.684814453125 -122.95262145996094 123.04393005371094
v 12.446487426757812 -125.26310729980469 122.10078430175781
v 15.868988037109375 -130.50433349609375 122.9759521484375
v -17.42950439453125 -126.86380004882812 123.37246704101562
v -19.68756103515625 -127.45993041992188 120.642822265625
v -19.139007568359375 -128.5950469970703 123.76173400878906
v -22.004119873046875 -135.8092803955078 121.93598937988281
v 20.125839233398438 -136.17282104492188 120.74519348144531
v -21.804580688476562 -138.09463500976562 122.78199768066406
v 20.112777709960938 -138.76068115234375 120.96818542480469
v -21.200759887695312 -141.56158447265625 122.01766967773438
v 18.850112915039062 -143.3916015625 121.08699035644531
v -20.096786499023438 -143.42347717285156 121.25556945800781
v 16.776748657226562 -145.7208709716797 121.93276977539062
v -18.14166259765625 -146.26904296875 119.94345092773438
v 14.60546875 -147.49169921875 121.87109375
v -15.320114135742188 -148.7316131591797 120.48204040527344
v 12.863327026367188 -146.78025817871094 123.37567138671875
v 8.132553100585938 -150.68911743164062 120.64047241210938
v -0.6751251220703125 -151.25843811035156 122.01150512695312
v 3.0299072265625 -154.38194274902344 118.5587158203125
v -12.928176879882812 -149.20175170898438 121.99909973144531
v -7.4330596923828125 -151.68792724609375 121.00376892089844
v -4.7236328125 -151.74029541015625 121.64347839355469
v -0.056884765625 -154.36392211914062 118.7215576171875
v 0.0423126220703125 -125.09846496582031 127.25856018066406
v -8.707427978515625 -125.45248413085938 126.65341186523438
v -11.875228881835938 -125.9573974609375 126.00479125976562
v -20.56060791015625 -130.735595703125 123.59556579589844
v 17.707046508789062 -133.1927947998047 123.312744140625
v 17.696075439453125 -135.5497589111328 124.19540405273438
v 17.382720947265625 -139.00262451171875 124.296875
v 16.09356689453125 -142.22389221191406 124.26786804199219
v -17.952438354492188 -145.7327423095703 122.2576904296875
v -16.300949096679688 -145.59190368652344 124.25523376464844
v 10.149887084960938 -126.38644409179688 124.93023681640625
v 6.535675048828125 -124.93331909179688 125.21206665039062
v -21.29779052734375 -134.26406860351562 124.1427001953125
v -20.590621948242188 -141.08338928222656 124.01786804199219
v 14.329345703125 -144.6159210205078 124.3055419921875
v -18.782485961914062 -143.53012084960938 124.1256103515625
v -9.383895874023438 -147.76617431640625 124.95512390136719
v 5.601593017578125 -146.49932861328125 124.84719848632812
v -5.4675445556640625 -147.89125061035156 125.54319763183594
v -4.024017333984375 -125.45231628417969 127.63264465332031
v 4.40142822265625 -126.73539733886719 128.9907684326172
v -15.652053833007812 -128.73818969726562 126.71368408203125
v 8.457000732421875 -129.85484313964844 129.60104370117188
v -18.4815673828125 -131.57679748535156 126.60247802734375
v 12.140762329101562 -133.04959106445312 127.65048217773438
v -19.462432861328125 -135.19161987304688 126.76069641113281
v -20.62420654296875 -136.5920867919922 125.461669921875
v 12.175186157226562 -136.23704528808594 127.62762451171875
v -19.165008544921875 -139.04078674316406 126.29312133789062
v 11.156631469726562 -140.7194061279297 126.78474426269531
v -18.170364379882812 -142.0257568359375 125.683837890625
v 7.262847900390625 -143.8439178466797 126.38568115234375
v -1.5499420166015625 -146.525146484375 126.71337890625
v 2.9591522216796875 -141.478271484375 129.7913055419922
v -12.76129150390625 -144.67738342285156 126.40293884277344
v -2.792083740234375 -127.31488037109375 130.11985778808594
v -6.2743072509765625 -128.5985565185547 130.5644073486328
v -12.160858154296875 -128.6599578857422 128.5568389892578
v -14.50164794921875 -130.74671936035156 128.6193389892578
v -16.678009033203125 -134.02215576171875 128.41453552246094
v -14.339462280273438 -136.7789764404297 129.35633850097656
v 7.6183624267578125 -136.65469360351562 130.74122619628906
v 8.8233642578125 -139.40127563476562 128.6058807373047
v -12.263671875 -139.83245849609375 129.3812255859375
v -10.319015502929688 -142.03060913085938 129.11045837402344
v -1.6264801025390625 -141.7952423095703 130.09130859375
v -6.8670654296875 -143.82382202148438 128.6492462158203
v 2.056884765625 -127.396240234375 130.18824768066406
v -2.67327880859375 -128.8524169921875 131.13282775878906
v -9.381301879882812 -130.37730407714844 130.71124267578125
v -11.089645385742188 -132.98223876953125 130.9820098876953
v 9.132675170898438 -133.30589294433594 130.14901733398438
v -10.254608154296875 -136.5052490234375 131.04541015625
v -7.685546875 -139.71694946289062 130.7864227294922
v 5.4134368896484375 -139.06610107421875 130.78224182128906
v 1.56396484375 -139.08460998535156 131.30160522460938
v 0.673065185546875 -129.49986267089844 131.40438842773438
v 5.058837890625 -130.6852264404297 131.03302001953125
v 6.8867950439453125 -133.04115295410156 131.17330932617188
v -4.0504913330078125 -131.4470977783203 131.7562713623047
v 2.93878173828125 -133.66885375976562 131.90850830078125
v -6.268829345703125 -135.22047424316406 131.77322387695312
v 4.6355133056640625 -136.38140869140625 131.76197814941406
vn 0.3749275207519531 0.3776905834674835 -0.8466281294822693
vn 0.18233460187911987 0.16486677527427673 -0.969315767288208
vn 0.15378952026367188 0.5030966401100159 -0.8504366874694824
vn 0.0008876434294506907 0.1896543651819229 -0.9818505644798279
vn -0.05826887860894203 0.5716702938079834 -0.8184117674827576
vn -0.2261534333229065 0.2677961587905884 -0.9365574717521667
vn -0.1506682187318802 0.5890209674835205 -0.7939479947090149
vn 0.0347457081079483 0.0006505009951069951 -0.9993959665298462
vn 0.393517404794693 0.07981523871421814 -0.9158458113670349
vn -0.11444428563117981 -0.022337060421705246 -0.9931785464286804
vn -0.3341712951660156 -0.02845623716711998 -0.9420827031135559
vn 0.17217494547367096 -0.04191270098090172 -0.984174370765686
vn 0.35756680369377136 -0.11933285742998123 -0.9262319803237915
vn -0.2516275942325592 -0.12299157679080963 -0.959977388381958
vn 0.07626468688249588 -0.13518325984477997 -0.9878811836242676
vn -0.05127245560288429 -0.14271575212478638 -0.9884348511695862
vn 0.26720166206359863 -0.2638237476348877 -0.9268227219581604
vn -0.22999082505702972 -0.2339625507593155 -0.9446511268615723
vn 0.15363158285617828 -0.3188507556915283 -0.9352708458900452
vn -0.05846897512674332 -0.3223643898963928 -0.9448082447052002
vn -0.02033175155520439 0.8848785161972046 -0.4653780162334442
vn 0.0828310027718544 0.784894585609436 -0.6140680313110352
vn -0.09348107874393463 0.8124220371246338 -0.5755274295806885
vn -0.23493166267871857 0.6105054616928101 -0.756366491317749
vn -0.25637245178222656 0.8042079210281372 -0.5362115502357483
vn 0.36425524950027466 0.6485899090766907 -0.6683182716369629
vn -0.42694997787475586 0.45373237133026123 -0.7822024822235107
vn -0.5290335416793823 0.6445915699005127 -0.5519286394119263
vn 0.4837826192378998 0.5471150279045105 -0.6830955147743225
vn -0.5924097895622253 0.47879311442375183 -0.6479257345199585
vn -0.542201042175293 0.16519632935523987 -0.8238496780395508
vn -0.5523307919502258 0.34568238258361816 -0.7585739493370056
vn 0.5797946453094482 0.3146149516105652 -0.7515687942504883
vn -0.5073562860488892 -0.11418063938617706 -0.8541384339332581
vn 0.5557787418365479 -0.0353396050632 -0.8305788040161133
vn -0.44923046231269836 -0.2543218731880188 -0.8564534187316895
vn 0.5118272304534912 -0.3097304403781891 -0.8013114333152771
vn -0.306927889585495 -0.3940916955471039 -0.8663065433502197
vn 0.4913707375526428 -0.41693827509880066 -0.7646681070327759
vn -0.5241772532463074 -0.41856732964515686 -0.7416465282440186
vn 0.4139053225517273 -0.5145670175552368 -0.750934898853302
vn 0.11029040813446045 -0.4291880130767822 -0.8964561820030212
vn -0.44242292642593384 -0.5183336138725281 -0.7318417429924011
vn -0.06553071737289429 -0.5743014216423035 -0.8160169720649719
vn 0.2515591084957123 -0.5719097256660461 -0.780792772769928
vn -0.2861160635948181 -0.576323390007019 -0.7654991745948792
vn 0.271202027797699 0.826134204864502 -0.4939148426055908
vn -0.09697047621011734 0.9198012351989746 -0.3802136778831482
vn 0.567231297492981 0.5748664140701294 -0.5897265076637268
vn -0.46377748250961304 0.8240716457366943 -0.3252943456172943
vn 0.7537503838539124 0.33982741832733154 -0.5624746680259705
vn 0.7223542928695679 0.10286808013916016 -0.6838293075561523
vn -0.67690110206604 -0.1888473629951477 -0.7114362716674805
vn 0.8887642025947571 0.02257392555475235 -0.4578084945678711
vn 0.7365565896034241 -0.1999429613351822 -0.6461480259895325
vn -0.6386029720306396 -0.3946717083454132 -0.6606213450431824
vn 0.6398335695266724 -0.3828997015953064 -0.6663339138031006
vn -0.5801182985305786 -0.5212697982788086 -0.6258918642997742
vn -0.46942591667175293 -0.6339526772499084 -0.6146083474159241
vn -0.33094415068626404 -0.722971498966217 -0.6064555644989014
vn 0.13284318149089813 -0.7620982527732849 -0.6336868405342102
vn -0.09084445983171463 -0.7728170156478882 -0.6280932426452637
vn 0.11627605557441711 0.9485326409339905 -0.29456019401550293
vn -0.07558491826057434 0.9601534605026245 -0.2690582275390625
vn 0.4868789315223694 0.7102863788604736 -0.5083721876144409
vn -0.18627847731113434 0.9366897344589233 -0.2965008318424225
vn -0.790779709815979 0.22430536150932312 -0.5695213675498962
vn -0.8301873207092285 -0.04478543996810913 -0.5556827783584595
vn -0.8270651698112488 -0.33493903279304504 -0.45141899585723877
vn 0.6478160619735718 -0.3565567433834076 -0.673202633857727
vn -0.2817964255809784 -0.816368579864502 -0.5041161775588989
vn 0.3914930820465088 0.8934600353240967 -0.22014179825782776
vn -0.06869731098413467 0.9847190976142883 -0.16002795100212097
vn -0.420866459608078 0.8885853886604309 -0.18244870007038116
vn 0.6532478332519531 0.6804962754249573 -0.33195191621780396
vn -0.6715648770332336 0.6757134199142456 -0.3039936423301697
vn 0.6957042217254639 0.52476567029953 -0.4905269145965576
vn -0.8192052245140076 0.4739588499069214 -0.32290220260620117
vn 0.8912357091903687 0.362631231546402 -0.2723923623561859
vn -0.9348642230033875 0.08468067646026611 -0.34475812315940857
vn 0.9188501238822937 0.12657518684864044 -0.3737556040287018
vn -0.9356669783592224 -0.19315604865550995 -0.2953270971775055
vn 0.8665504455566406 -0.08741328120231628 -0.4913749098777771
vn 0.7698147892951965 -0.20827394723892212 -0.603330135345459
vn -0.7065454125404358 -0.5015361309051514 -0.49925467371940613
vn -0.586745023727417 -0.6039607524871826 -0.5394086837768555
vn 0.5944758653640747 -0.5292218923568726 -0.605411171913147
vn 0.5214805603027344 -0.5980741381645203 -0.6085765361785889
vn -0.4946451783180237 -0.7042334675788879 -0.5092951059341431
vn 0.45612984895706177 -0.6769300699234009 -0.5776775479316711
vn 0.3459946811199188 -0.7267705798149109 -0.5933735966682434
vn -0.05048197880387306 -0.8963009119033813 -0.44056352972984314
vn 0.028421305119991302 0.9983569383621216 0.04975610226392746
vn 0.19866488873958588 0.9702686071395874 0.13824312388896942
vn -0.18390221893787384 0.9809918403625488 -0.06192776560783386
vn -0.5829417705535889 0.8011815547943115 -0.13523000478744507
vn -0.9427970051765442 0.2718202471733093 -0.1929963231086731
vn -0.986819863319397 -0.06983716785907745 -0.14597773551940918
vn 0.8573921918869019 -0.1181216835975647 -0.5009251236915588
vn -0.4333295524120331 -0.8244240880012512 -0.36407482624053955
vn 0.3659106492996216 -0.8449951410293579 -0.38999056816101074
vn 0.18282009661197662 -0.8755317330360413 -0.447237104177475
vn -0.3072957992553711 -0.8789283633232117 -0.364766001701355
vn 0.02216600626707077 0.9909999370574951 0.13201436400413513
vn 0.4002523720264435 0.9071432948112488 0.12995806336402893
vn 0.5821287631988525 0.8115707039833069 -0.04979176074266434
vn -0.4203853905200958 0.8960327506065369 0.14283360540866852
vn 0.7844338417053223 0.6201624870300293 0.007879541255533695
vn -0.7560449242591858 0.6543695330619812 -0.014023748226463795
vn -0.9129224419593811 0.40802618861198425 0.009345208294689655
vn 0.9505999684333801 0.2624797821044922 -0.16572318971157074
vn -0.9921140670776367 0.11682382971048355 -0.04540913179516792
vn 0.7608604431152344 -0.3414182960987091 -0.5518378615379333
vn -0.8078663945198059 -0.471473753452301 -0.3536444902420044
vn -0.6441009044647217 -0.6688910722732544 -0.3711048662662506
vn 0.5641729235649109 -0.6765170693397522 -0.47332191467285156
vn 0.5803918242454529 -0.724734365940094 -0.37135618925094604
vn 0.52768874168396 -0.7391569018363953 -0.4185590147972107
vn -0.09774336218833923 0.9564732909202576 0.27496400475502014
vn 0.043167054653167725 0.9193934202194214 0.3909633457660675
vn 0.035636529326438904 0.9254167079925537 0.3772718012332916
vn 0.05595482140779495 0.9266752600669861 0.37167462706565857
vn 0.508813738822937 0.8050004243850708 0.3050951361656189
vn -0.6049104928970337 0.7883260250091553 0.11236275732517242
vn 0.9250048398971558 0.3799554109573364 3.491924508125521e-05
vn 0.901474118232727 0.2903187870979309 -0.32102876901626587
vn 0.9115884304046631 0.39333540201187134 -0.11955717206001282
vn 0.926070511341095 0.11008523404598236 -0.36093592643737793
vn -0.9748537540435791 -0.19729909300804138 -0.10360172390937805
vn -0.8886734843254089 -0.40391212701797485 -0.21705883741378784
vn 0.8084210753440857 -0.4793018698692322 -0.34165051579475403
vn -0.47361478209495544 -0.8658063411712646 -0.16145755350589752
vn 0.6153148412704468 -0.7523515820503235 -0.2352760285139084
vn 0.4754717946052551 -0.8730486035346985 -0.10822500288486481
vn -0.37231719493865967 -0.9216439723968506 -0.10932675004005432
vn 0.18372337520122528 -0.9761825203895569 -0.11538387089967728
vn -0.17919738590717316 -0.9649993777275085 -0.19147981703281403
vn 0.22507736086845398 0.9049186110496521 0.36119598150253296
vn -0.4646655023097992 0.7784807682037354 0.4219640791416168
vn -0.678819477558136 0.667445182800293 0.30613893270492554
vn 0.8637190461158752 0.44874581694602966 0.22938339412212372
vn -0.8388912081718445 0.4975542724132538 0.22068394720554352
vn -0.9362870454788208 0.3064042329788208 0.1717064529657364
vn 0.9245443344116211 0.377483069896698 0.05219634622335434
vn -0.999852180480957 0.015769852325320244 0.006859215907752514
vn 0.957218587398529 0.2862723767757416 -0.04219901189208031
vn 0.9963476061820984 -0.08487652242183685 -0.009354803711175919
vn 0.901578426361084 -0.36061033606529236 0.2389906942844391
vn -0.8231105804443359 -0.5381081104278564 -0.18146255612373352
vn 0.5938320159912109 -0.8011792302131653 0.07399667054414749
vn 0.545829176902771 -0.8378909230232239 0.0030552807729691267
vn -0.6473579406738281 -0.7615675330162048 -0.030702460557222366
vn -0.40386661887168884 -0.9137846231460571 -0.04346765950322151
vn -0.18035346269607544 -0.9526026844978333 0.2449915111064911
vn 0.1320379376411438 -0.9361851811408997 0.3257657587528229
vn -0.053474947810173035 0.8740342259407043 0.4829126298427582
vn -0.24425318837165833 0.8459113240242004 0.47410380840301514
vn 0.7289208173751831 0.5799019932746887 0.36385196447372437
vn 0.8200467824935913 0.48009228706359863 0.3115040957927704
vn 0.8789595365524292 0.4354245066642761 0.19451378285884857
vn -0.9623299837112427 0.20330125093460083 0.18052613735198975
vn 0.971338152885437 0.11110468208789825 0.2101379930973053
vn 0.7774718999862671 -0.5798794031143188 0.2434694916009903
vn 0.3785805404186249 -0.8301024436950684 0.4093981087207794
vn -0.43894851207733154 -0.885418176651001 0.15283586084842682
vn 0.38891303539276123 -0.8464769124984741 0.3636256456375122
vn -0.33966925740242004 -0.909923255443573 0.23804323375225067
vn 0.24931299686431885 0.8115639090538025 0.5284005403518677
vn 0.07075710594654083 0.8779310584068298 0.4735299050807953
vn 0.04591181501746178 0.8849323391914368 0.463451087474823
vn 0.5249093174934387 0.6281415224075317 0.5743765830993652
vn 0.680808424949646 0.5067052245140076 0.5289136171340942
vn -0.5255820751190186 0.6773712038993835 0.514715313911438
vn -0.7738956212997437 0.5322692394256592 0.3431839048862457
vn -0.642179012298584 0.5615137219429016 0.5218318104743958
vn -0.9885657429695129 0.040594395250082016 0.14522375166416168
vn 0.9032832384109497 0.17812222242355347 0.39032289385795593
vn -0.9705244302749634 -0.11033312976360321 0.21426361799240112
vn 0.8511475324630737 -0.08213614672422409 0.5184606909751892
vn -0.9073097705841064 -0.40071162581443787 0.12735526263713837
vn 0.7457771897315979 -0.34337031841278076 0.570888102054596
vn -0.8271999955177307 -0.5547581911087036 0.08935126662254333
vn 0.6078200936317444 -0.5323402881622314 0.5892102122306824
vn -0.754431962966919 -0.6510072946548462 0.08379720896482468
vn 0.4104345142841339 -0.695337176322937 0.5899574160575867
vn -0.5500796437263489 -0.7750554084777832 0.31096887588500977
vn 0.23462048172950745 -0.6671703457832336 0.7069915533065796
vn 0.20148253440856934 -0.6939544677734375 0.6912539005279541
vn 0.09723616391420364 -0.6866140961647034 0.7204902768135071
vn 0.13901038467884064 -0.7524363994598389 0.643828809261322
vn -0.3408876955509186 -0.8025623559951782 0.4895806312561035
vn -0.22483769059181213 -0.8246709108352661 0.519004762172699
vn -0.07400313019752502 -0.7644626498222351 0.6404064893722534
vn -0.03984127193689346 -0.8428296446800232 0.5367037057876587
vn 0.037684470415115356 0.862540066242218 0.504583477973938
vn -0.1849888414144516 0.7555190324783325 0.6284665465354919
vn -0.334953248500824 0.7181606292724609 0.6099604368209839
vn -0.8359501361846924 0.3821091651916504 0.39392897486686707
vn 0.7330037951469421 0.37937113642692566 0.5646087527275085
vn 0.6941323280334473 0.07644608616828918 0.7157767415046692
vn 0.608863353729248 -0.16604208946228027 0.7757031917572021
vn 0.5375621914863586 -0.2898813784122467 0.7918306589126587
vn -0.6609687805175781 -0.6627156138420105 0.3520345091819763
vn -0.4232628047466278 -0.6478244662284851 0.6333814859390259
vn 0.44574376940727234 0.6468586921691895 0.6187781095504761
vn 0.22747500240802765 0.8031373620033264 0.5506592392921448
vn -0.8853123188018799 0.13932311534881592 0.44363415241241455
vn -0.7717145681381226 -0.329993337392807 0.5436553359031677
vn 0.36551836133003235 -0.45192059874534607 0.8137347102165222
vn -0.6683076024055481 -0.5597940683364868 0.48989343643188477
vn -0.2042854130268097 -0.6713143587112427 0.7124637365341187
vn 0.1797337830066681 -0.632576584815979 0.7533543109893799
vn -0.04644228518009186 -0.6771092414855957 0.734415590763092
vn -0.03757264092564583 0.8265255689620972 0.5616438388824463
vn 0.23799653351306915 0.7210820317268372 0.6506906747817993
vn -0.4513181746006012 0.5754761099815369 0.6820111870765686
vn 0.4873238503932953 0.40366455912590027 0.7743193507194519
vn -0.6205815672874451 0.3360050916671753 0.7085049152374268
vn 0.5997251868247986 0.150727778673172 0.7858822345733643
vn -0.6379653811454773 0.02376239188015461 0.7696983218193054
vn -0.8063702583312988 -0.08813707530498505 0.5848067402839661
vn 0.5389910340309143 -0.14598484337329865 0.8295643925666809
vn -0.562336802482605 -0.24315720796585083 0.7903492450714111
vn 0.3778739273548126 -0.3133520483970642 0.8712185621261597
vn -0.4618546664714813 -0.43942752480506897 0.7704504132270813
vn 0.26642662286758423 -0.5283547043800354 0.8061378002166748
vn 0.08202999830245972 -0.6334969997406006 0.7693846225738525
vn 0.17451055347919464 -0.5660287737846375 0.8057031035423279
vn -0.297368586063385 -0.559015691280365 0.7739983201026917
vn -0.061148617416620255 0.6552994847297668 0.7528901100158691
vn -0.17760001122951508 0.5227921605110168 0.8337545394897461
vn -0.3218185603618622 0.5860630869865417 0.7436147332191467
vn -0.4289849102497101 0.37132298946380615 0.823462963104248
vn -0.47963520884513855 0.11154663562774658 0.8703490495681763
vn -0.42245593667030334 -0.14586779475212097 0.8945689797401428
vn 0.44249656796455383 -0.2031572312116623 0.8734552264213562
vn 0.4553923010826111 -0.4146606922149658 0.7878289222717285
vn -0.35105055570602417 -0.3162566125392914 0.8813315629959106
vn -0.2569919526576996 -0.4931359887123108 0.8311269879341125
vn 0.01994047686457634 -0.5037481784820557 0.863620400428772
vn -0.0930740088224411 -0.564393937587738 0.8202419281005859
vn 0.09186460822820663 0.6481990218162537 0.7559093236923218
vn -0.05407307296991348 0.4154299795627594 0.908016562461853
vn -0.26298758387565613 0.3688562512397766 0.891505777835846
vn -0.29963672161102295 0.10498544573783875 0.9482594132423401
vn 0.5393829941749573 0.06616511195898056 0.8394571542739868
vn -0.2633054554462433 -0.161856010556221 0.9510378241539001
vn -0.1331445872783661 -0.3394896984100342 0.9311386942863464
vn 0.2888800799846649 -0.4344158172607422 0.8531302213668823
vn 0.04352220520377159 -0.3398931324481964 0.9394565224647522
vn 0.0580904595553875 0.343010276556015 0.9375337362289429
vn 0.22068804502487183 0.33949485421180725 0.914352297782898
vn 0.30345794558525085 0.11416277289390564 0.9459810853004456
vn -0.0802721306681633 0.18205006420612335 0.9800072312355042
vn 0.0770084336400032 0.08577382564544678 0.9933341145515442
vn -0.07160400599241257 -0.07427112758159637 0.9946641325950623
vn 0.15166737139225006 -0.1287575215101242 0.9800094366073608
f 1//1 2//2 3//3
f 3//3 2//2 4//4
f 5//5 3//3 4//4
f 4//4 6//6 5//5
f 5//5 6//6 7//7
f 4//4 2//2 8//8
f 9//9 2//2 1//1
f 6//6 4//4 10//10
f 11//11 6//6 10//10
f 2//2 9//9 12//12
f 8//8 2//2 12//12
f 10//10 4//4 8//8
f 12//12 9//9 13//13
f 11//11 10//10 14//14
f 8//8 12//12 15//15
f 16//16 8//8 15//15
f 10//10 8//8 16//16
f 14//14 10//10 16//16
f 12//12 13//13 17//17
f 15//15 12//12 17//17
f 18//18 14//14 16//16
f 15//15 17//17 19//19
f 16//16 15//15 19//19
f 20//20 16//16 19//19
f 18//18 16//16 20//20
f 21//21 22//22 23//23
f 23//23 24//24 25//25
f 3//3 22//22 26//26
f 5//5 22//22 3//3
f 5//5 23//23 22//22
f 7//7 23//23 5//5
f 24//24 23//23 7//7
f 25//25 24//24 27//27
f 25//25 27//27 28//28
f 1//1 26//26 29//29
f 3//3 26//26 1//1
f 6//6 24//24 7//7
f 27//27 24//24 6//6
f 28//28 27//27 30//30
f 31//31 27//27 6//6
f 30//30 27//27 31//31
f 30//30 31//31 32//32
f 33//33 1//1 29//29
f 31//31 6//6 11//11
f 1//1 33//33 9//9
f 31//31 11//11 34//34
f 9//9 33//33 35//35
f 11//11 14//14 36//36
f 34//34 11//11 36//36
f 13//13 9//9 35//35
f 13//13 35//35 37//37
f 14//14 18//18 36//36
f 13//13 37//37 17//17
f 36//36 18//18 38//38
f 17//17 37//37 39//39
f 40//40 36//36 38//38
f 20//20 38//38 18//18
f 39//39 41//41 17//17
f 19//19 17//17 41//41
f 20//20 19//19 42//42
f 40//40 38//38 43//43
f 38//38 20//20 44//44
f 41//41 45//45 19//19
f 42//42 19//19 45//45
f 20//20 42//42 44//44
f 38//38 44//44 46//46
f 46//46 43//43 38//38
f 26//26 22//22 47//47
f 23//23 48//48 21//21
f 23//23 25//25 48//48
f 29//29 26//26 49//49
f 25//25 28//28 50//50
f 33//33 29//29 49//49
f 51//51 52//52 33//33
f 35//35 33//33 52//52
f 34//34 53//53 31//31
f 54//54 55//55 52//52
f 35//35 52//52 55//55
f 34//34 36//36 53//53
f 56//56 53//53 36//36
f 55//55 37//37 35//35
f 40//40 56//56 36//36
f 39//39 57//57 41//41
f 58//58 40//40 43//43
f 59//59 58//58 43//43
f 46//46 59//59 43//43
f 44//44 42//42 45//45
f 46//46 44//44 60//60
f 59//59 46//46 60//60
f 44//44 45//45 61//61
f 62//62 44//44 61//61
f 60//60 44//44 62//62
f 63//63 47//47 21//21
f 64//64 63//63 21//21
f 65//65 26//26 47//47
f 21//21 47//47 22//22
f 48//48 64//64 21//21
f 66//66 25//25 50//50
f 26//26 65//65 49//49
f 30//30 32//32 67//67
f 49//49 51//51 33//33
f 67//67 31//31 68//68
f 32//32 31//31 67//67
f 31//31 53//53 68//68
f 69//69 53//53 56//56
f 55//55 70//70 37//37
f 58//58 56//56 40//40
f 70//70 39//39 37//37
f 60//60 62//62 71//71
f 72//72 47//47 63//63
f 72//72 65//65 47//47
f 48//48 73//73 64//64
f 48//48 66//66 73//73
f 25//25 66//66 48//48
f 66//66 50//50 74//74
f 65//65 75//75 49//49
f 28//28 76//76 50//50
f 49//49 75//75 77//77
f 28//28 30//30 76//76
f 76//76 30//30 78//78
f 78//78 30//30 67//67
f 77//77 79//79 51//51
f 49//49 77//77 51//51
f 80//80 78//78 67//67
f 67//67 68//68 80//80
f 54//54 51//51 79//79
f 81//81 54//54 79//79
f 51//51 54//54 52//52
f 68//68 53//53 69//69
f 69//69 82//82 68//68
f 83//83 54//54 81//81
f 54//54 83//83 55//55
f 83//83 84//84 55//55
f 85//85 69//69 56//56
f 55//55 84//84 70//70
f 84//84 57//57 70//70
f 58//58 85//85 56//56
f 39//39 70//70 57//57
f 86//86 85//85 58//58
f 87//87 88//88 57//57
f 57//57 88//88 41//41
f 59//59 86//86 58//58
f 86//86 59//59 89//89
f 88//88 90//90 41//41
f 41//41 91//91 45//45
f 41//41 90//90 91//91
f 91//91 61//61 45//45
f 89//89 59//59 60//60
f 92//92 62//62 61//61
f 71//71 62//62 92//92
f 63//63 93//93 72//72
f 72//72 93//93 94//94
f 64//64 93//93 63//63
f 64//64 73//73 93//93
f 66//66 74//74 95//95
f 65//65 72//72 75//75
f 96//96 74//74 50//50
f 76//76 96//96 50//50
f 77//77 75//75 79//79
f 78//78 80//80 97//97
f 80//80 68//68 82//82
f 98//98 80//80 82//82
f 99//99 84//84 83//83
f 99//99 57//57 84//84
f 100//100 89//89 60//60
f 100//100 60//60 71//71
f 91//91 90//90 101//101
f 61//61 91//91 102//102
f 103//103 71//71 92//92
f 73//73 104//104 93//93
f 104//104 73//73 95//95
f 72//72 105//105 106//106
f 72//72 94//94 105//105
f 95//95 73//73 66//66
f 107//107 95//95 74//74
f 75//75 72//72 106//106
f 74//74 96//96 107//107
f 75//75 106//106 108//108
f 109//109 96//96 76//76
f 75//75 108//108 79//79
f 78//78 109//109 76//76
f 110//110 109//109 78//78
f 78//78 97//97 110//110
f 79//79 111//111 81//81
f 97//97 80//80 112//112
f 112//112 80//80 98//98
f 83//83 81//81 99//99
f 99//99 113//113 57//57
f 69//69 85//85 114//114
f 57//57 113//113 87//87
f 115//115 85//85 86//86
f 89//89 115//115 86//86
f 116//116 88//88 87//87
f 88//88 116//116 117//117
f 118//118 88//88 117//117
f 90//90 88//88 118//118
f 101//101 90//90 118//118
f 101//101 102//102 91//91
f 61//61 102//102 92//92
f 100//100 71//71 103//103
f 95//95 119//119 104//104
f 93//93 120//120 94//94
f 121//121 120//120 93//93
f 104//104 121//121 93//93
f 122//122 121//121 104//104
f 123//123 106//106 105//105
f 107//107 96//96 124//124
f 124//124 96//96 109//109
f 79//79 108//108 125//125
f 112//112 110//110 97//97
f 125//125 111//111 79//79
f 126//126 111//111 127//127
f 111//111 126//126 81//81
f 126//126 128//128 81//81
f 129//129 98//98 82//82
f 81//81 128//128 99//99
f 69//69 114//114 130//130
f 82//82 69//69 130//130
f 113//113 99//99 131//131
f 113//113 131//131 87//87
f 115//115 114//114 85//85
f 116//116 87//87 131//131
f 89//89 100//100 115//115
f 100//100 132//132 115//115
f 117//117 133//133 118//118
f 118//118 133//133 134//134
f 101//101 118//118 134//134
f 100//100 103//103 135//135
f 101//101 134//134 136//136
f 102//102 101//101 136//136
f 102//102 136//136 92//92
f 136//136 137//137 92//92
f 92//92 137//137 103//103
f 135//135 103//103 137//137
f 119//119 122//122 104//104
f 94//94 138//138 105//105
f 94//94 120//120 138//138
f 95//95 107//107 119//119
f 124//124 139//139 107//107
f 123//123 108//108 106//106
f 140//140 124//124 109//109
f 125//125 108//108 141//141
f 109//109 142//142 140//140
f 142//142 109//109 110//110
f 143//143 110//110 112//112
f 111//111 125//125 144//144
f 143//143 112//112 145//145
f 111//111 144//144 127//127
f 112//112 98//98 145//145
f 127//127 146//146 126//126
f 98//98 129//129 145//145
f 126//126 146//146 128//128
f 147//147 128//128 146//146
f 99//99 147//147 131//131
f 128//128 147//147 99//99
f 147//147 148//148 131//131
f 114//114 149//149 130//130
f 116//116 131//131 150//150
f 114//114 115//115 149//149
f 117//117 116//116 150//150
f 117//117 150//150 151//151
f 117//117 151//151 133//133
f 152//152 115//115 132//132
f 133//133 151//151 134//134
f 100//100 135//135 153//153
f 137//137 154//154 135//135
f 137//137 136//136 154//154
f 136//136 155//155 154//154
f 119//119 156//156 122//122
f 119//119 157//157 156//156
f 107//107 157//157 119//119
f 138//138 123//123 105//105
f 107//107 139//139 157//157
f 123//123 158//158 108//108
f 124//124 140//140 139//139
f 108//108 158//158 141//141
f 125//125 141//141 144//144
f 110//110 143//143 142//142
f 144//144 141//141 159//159
f 144//144 159//159 160//160
f 143//143 145//145 161//161
f 144//144 160//160 127//127
f 160//160 146//146 127//127
f 146//146 162//162 147//147
f 129//129 82//82 130//130
f 163//163 131//131 148//148
f 150//150 131//131 163//163
f 115//115 152//152 149//149
f 151//151 150//150 164//164
f 165//165 152//152 132//132
f 132//132 153//153 165//165
f 100//100 153//153 132//132
f 134//134 151//151 166//166
f 153//153 135//135 167//167
f 136//136 134//134 166//166
f 136//136 166//166 155//155
f 154//154 167//167 135//135
f 123//123 138//138 168//168
f 138//138 120//120 168//168
f 120//120 121//121 169//169
f 122//122 170//170 121//121
f 156//156 170//170 122//122
f 169//169 168//168 120//120
f 171//171 158//158 123//123
f 168//168 171//171 123//123
f 158//158 172//172 141//141
f 172//172 158//158 171//171
f 139//139 140//140 173//173
f 141//141 172//172 159//159
f 173//173 174//174 175//175
f 173//173 140//140 174//174
f 140//140 142//142 174//174
f 174//174 142//142 143//143
f 161//161 145//145 176//176
f 146//146 177//177 162//162
f 146//146 160//160 177//177
f 176//176 145//145 178//178
f 147//147 162//162 177//177
f 145//145 129//129 178//178
f 179//179 147//147 177//177
f 129//129 180//180 178//178
f 148//148 147//147 179//179
f 148//148 179//179 181//181
f 129//129 130//130 180//180
f 180//180 130//130 182//182
f 181//181 163//163 148//148
f 181//181 183//183 163//163
f 130//130 149//149 182//182
f 182//182 149//149 184//184
f 183//183 150//150 163//163
f 183//183 185//185 150//150
f 185//185 164//164 150//150
f 152//152 186//186 184//184
f 152//152 184//184 149//149
f 187//187 188//188 166//166
f 188//188 189//189 190//190
f 186//186 165//165 191//191
f 152//152 165//165 186//186
f 164//164 166//166 151//151
f 167//167 191//191 165//165
f 192//192 191//191 167//167
f 190//190 166//166 188//188
f 193//193 194//194 190//190
f 153//153 167//167 165//165
f 155//155 166//166 190//190
f 193//193 154//154 194//194
f 192//192 154//154 193//193
f 167//167 154//154 192//192
f 194//194 155//155 190//190
f 154//154 155//155 194//194
f 121//121 195//195 169//169
f 157//157 196//196 156//156
f 157//157 139//139 197//197
f 198//198 174//174 143//143
f 143//143 161//161 198//198
f 159//159 172//172 199//199
f 159//159 199//199 160//160
f 160//160 199//199 177//177
f 179//179 177//177 200//200
f 200//200 201//201 179//179
f 201//201 181//181 179//179
f 201//201 202//202 181//181
f 183//183 181//181 202//202
f 203//203 182//182 184//184
f 186//186 204//204 203//203
f 191//191 204//204 186//186
f 164//164 185//185 187//187
f 184//184 186//186 203//203
f 164//164 187//187 166//166
f 193//193 190//190 189//189
f 170//170 195//195 121//121
f 168//168 205//205 171//171
f 205//205 168//168 206//206
f 169//169 206//206 168//168
f 139//139 173//173 197//197
f 175//175 174//174 198//198
f 161//161 207//207 198//198
f 199//199 200//200 177//177
f 161//161 176//176 207//207
f 207//207 176//176 178//178
f 180//180 208//208 178//178
f 183//183 202//202 209//209
f 180//180 210//210 208//208
f 180//180 182//182 210//210
f 210//210 203//203 204//204
f 182//182 203//203 210//210
f 183//183 209//209 185//185
f 185//185 209//209 187//187
f 211//211 204//204 191//191
f 212//212 188//188 187//187
f 188//188 212//212 189//189
f 191//191 192//192 211//211
f 189//189 213//213 193//193
f 211//211 192//192 193//193
f 156//156 214//214 170//170
f 214//214 156//156 196//196
f 215//215 205//205 206//206
f 169//169 215//215 206//206
f 195//195 215//215 169//169
f 170//170 214//214 195//195
f 197//197 196//196 157//157
f 197//197 173//173 216//216
f 171//171 205//205 172//172
f 217//217 172//172 205//205
f 175//175 216//216 173//173
f 199//199 172//172 217//217
f 216//216 175//175 218//218
f 175//175 198//198 218//218
f 217//217 219//219 199//199
f 200//200 199//199 219//219
f 198//198 207//207 218//218
f 207//207 220//220 218//218
f 207//207 221//221 220//220
f 222//222 200//200 219//219
f 222//222 201//201 200//200
f 207//207 178//178 221//221
f 223//223 220//220 221//221
f 224//224 202//202 201//201
f 221//221 208//208 223//223
f 221//221 178//178 208//208
f 208//208 225//225 223//223
f 224//224 209//209 202//202
f 208//208 210//210 225//225
f 226//226 209//209 224//224
f 226//226 187//187 209//209
f 227//227 212//212 228//228
f 225//225 204//204 229//229
f 210//210 204//204 225//225
f 212//212 187//187 226//226
f 204//204 211//211 229//229
f 189//189 212//212 227//227
f 213//213 189//189 227//227
f 211//211 193//193 213//213
f 196//196 230//230 214//214
f 205//205 215//215 217//217
f 196//196 231//231 230//230
f 232//232 231//231 196//196
f 197//197 232//232 196//196
f 232//232 197//197 216//216
f 216//216 233//233 232//232
f 216//216 218//218 233//233
f 233//233 218//218 234//234
f 218//218 220//220 234//234
f 220//220 235//235 234//234
f 222//222 224//224 201//201
f 236//236 237//237 222//222
f 237//237 224//224 222//222
f 220//220 223//223 235//235
f 223//223 238//238 235//235
f 223//223 225//225 238//238
f 226//226 224//224 237//237
f 225//225 229//229 239//239
f 225//225 239//239 238//238
f 212//212 226//226 228//228
f 228//228 240//240 227//227
f 240//240 241//241 227//227
f 211//211 241//241 239//239
f 229//229 211//211 239//239
f 241//241 213//213 227//227
f 211//211 213//213 241//241
f 215//215 195//195 242//242
f 195//195 214//214 242//242
f 242//242 214//214 230//230
f 230//230 231//231 243//243
f 232//232 244//244 231//231
f 244//244 233//233 245//245
f 244//244 232//232 233//233
f 217//217 246//246 219//219
f 233//233 234//234 245//245
f 219//219 246//246 222//222
f 236//236 222//222 246//246
f 245//245 235//235 247//247
f 234//234 235//235 245//245
f 238//238 248//248 247//247
f 235//235 238//238 247//247
f 249//249 237//237 236//236
f 226//226 237//237 249//249
f 228//228 226//226 249//249
f 228//228 250//250 240//240
f 238//238 239//239 248//248
f 248//248 241//241 240//240
f 239//239 241//241 248//248
f 242//242 230//230 251//251
f 251//251 230//230 243//243
f 215//215 252//252 217//217
f 215//215 242//242 252//252
f 252//252 242//242 251//251
f 217//217 252//252 253//253
f 254//254 251//251 243//243
f 231//231 254//254 243//243
f 231//231 244//244 254//254
f 217//217 253//253 246//246
f 255//255 253//253 252//252
f 251//251 255//255 252//252
f 254//254 255//255 251//251
f 244//244 245//245 254//254
f 256//256 255//255 254//254
f 245//245 256//256 254//254
f 253//253 257//257 236//236
f 246//246 253//253 236//236
f 255//255 257//257 253//253
f 256//256 257//257 255//255
f 245//245 247//247 256//256
f 249//249 236//236 257//257
f 250//250 249//249 257//257
f 256//256 250//250 257//257
f 248//248 250//250 256//256
f 247//247 248//248 256//256
f 250//250 228//228 249//249
f 248//248 240//240 250//250
