# Generated by Visualization Toolkit
v -18.156478881835938 -132.39181518554688 82.31297302246094
v -18.156478881835938 -132.39181518554688 82.31297302246094
v -18.156478881835938 -132.39181518554688 82.31297302246094
v -18.156478881835938 -132.39181518554688 82.31297302246094
v -18.156478881835938 -132.39181518554688 82.31297302246094
v -16.650604248046875 -135.40357971191406 82.31297302246094
v -16.650604248046875 -135.403564453125 82.31297302246094
v -16.650588989257812 -135.40357971191406 82.31297302246094
v -16.650604248046875 -135.40357971191406 82.31297302246094
v -16.650604248046875 -135.40357971191406 82.31297302246094
v -18.156478881835938 -132.39181518554688 82.31292724609375
v -16.650604248046875 -135.40357971191406 82.31292724609375
v -107.00325012207031 -126.36830139160156 150.57937622070312
v -107.00325012207031 -126.36830139160156 150.57933044433594
v -107.00325012207031 -126.36830139160156 150.57933044433594
v -107.00325012207031 -126.36830139160156 150.57933044433594
v -107.00325012207031 -126.36830139160156 150.57933044433594
v -103.99150085449219 -121.85066223144531 153.59112548828125
v -103.99147033691406 -121.85066223144531 153.59112548828125
v -103.99147033691406 -121.85067749023438 153.59112548828125
v -103.99147033691406 -121.85066223144531 153.59112548828125
v -103.99147033691406 -121.85067749023438 153.59112548828125
v -107.00325012207031 -126.36830139160156 150.57940673828125
v -102.48561096191406 -120.34480285644531 154.59500122070312
v -102.48561096191406 -120.34480285644531 154.59503173828125
v -102.48558044433594 -120.34480285644531 154.59503173828125
v -102.48561096191406 -120.34480285644531 154.59503173828125
v -102.48561096191406 -120.34480285644531 154.59503173828125
v -103.99147033691406 -121.85066223144531 153.59112548828125
v -103.99147033691406 -121.85066223144531 153.59112548828125
v -103.99147033691406 -121.85067749023438 153.59112548828125
v -103.99147033691406 -121.85067749023438 153.59112548828125
v -102.48561096191406 -120.34480285644531 154.59506225585938
v -103.99150085449219 -121.85066223144531 153.59109497070312
v -107.00325012207031 -127.87417602539062 156.60289001464844
v -107.00325012207031 -127.87417602539062 156.6028594970703
v -107.00325012207031 -127.87417602539062 156.6028594970703
v -107.00325012207031 -127.87417602539062 156.6028594970703
v -107.00325012207031 -127.87417602539062 156.6028594970703
v -108.50910949707031 -132.39181518554688 158.6053924560547
v -108.50910949707031 -132.39181518554688 158.6069793701172
v -108.50910949707031 -132.39181518554688 158.6069793701172
v -108.50910949707031 -132.39181518554688 158.6069793701172
v -108.50910949707031 -132.39181518554688 158.6069793701172
v -100.97972106933594 -121.85066223144531 158.6107177734375
v -100.97972106933594 -121.85066223144531 158.61073303222656
v -100.97972106933594 -121.85066223144531 158.61073303222656
v -100.97972106933594 -121.85066223144531 158.61073303222656
v -100.97972106933594 -121.85067749023438 158.61073303222656
v -102.48561096191406 -123.35655212402344 158.61073303222656
v -102.48558044433594 -123.35655212402344 158.61073303222656
v -102.48561096191406 -123.35655212402344 158.6107177734375
v -102.48561096191406 -123.35655212402344 158.61073303222656
v -102.48561096191406 -123.35655212402344 158.61073303222656
v -103.99150085449219 -124.8624267578125 158.61073303222656
v -103.99150085449219 -124.8624267578125 158.61073303222656
v -103.99150085449219 -124.8624267578125 158.6107177734375
v -103.99147033691406 -124.8624267578125 158.61073303222656
v -103.99150085449219 -124.8624267578125 158.61073303222656
v -105.49736022949219 -126.36830139160156 158.61073303222656
v -105.49736022949219 -126.36830139160156 158.61073303222656
v -105.49736022949219 -126.36830139160156 158.6107177734375
v -105.49739074707031 -126.36830139160156 158.61073303222656
v -105.49736022949219 -126.36830139160156 158.61073303222656
v -107.00325012207031 -127.87417602539062 156.6028594970703
v -108.50910949707031 -132.39181518554688 158.61073303222656
v -108.50910949707031 -132.39181518554688 158.61073303222656
v -108.50910949707031 -132.39181518554688 158.61073303222656
v -108.50910949707031 -132.39181518554688 158.61073303222656
v -110.01496887207031 -136.90943908691406 158.6107177734375
v -110.01496887207031 -136.90943908691406 158.61073303222656
v -110.01496887207031 -136.90943908691406 158.61073303222656
v -110.01496887207031 -136.90943908691406 158.61073303222656
v -110.01496887207031 -136.90943908691406 158.61073303222656
v -100.97972106933594 -121.85066223144531 158.6107177734375
v -102.48561096191406 -123.35655212402344 158.6107177734375
v -103.99150085449219 -124.8624267578125 158.6107177734375
v -105.49736022949219 -126.36830139160156 158.6107177734375
v -108.50910949707031 -132.39181518554688 158.61439514160156
v -108.50910949707031 -132.39181518554688 158.61439514160156
v -108.50910949707031 -132.39181518554688 158.61439514160156
v -108.50910949707031 -132.39181518554688 158.61439514160156
v -110.01496887207031 -136.90943908691406 158.6107177734375
v 103.81956481933594 -127.87417602539062 163.6302947998047
v 103.8195571899414 -127.87417602539062 163.6303253173828
v 103.81957244873047 -127.87417602539062 163.6303253173828
v 103.8195571899414 -127.87417602539062 163.6303253173828
v 103.819580078125 -127.87417602539062 163.6303253173828
v -107.00321960449219 -131.6388702392578 162.62637329101562
v -107.00321960449219 -131.6388702392578 162.62635803222656
v -107.00325012207031 -131.6388702392578 162.62643432617188
v -107.00325012207031 -131.6388702392578 162.6263885498047
v -107.00325012207031 -131.6388702392578 162.6263885498047
v -107.00325012207031 -131.6388702392578 162.62643432617188
v -108.50910949707031 -132.39181518554688 158.6160125732422
v -107.00321960449219 -131.6388702392578 162.62635803222656
v -110.01496887207031 -136.90943908691406 163.6302947998047
v -110.01496887207031 -136.90943908691406 163.6303253173828
v -110.01499938964844 -136.90943908691406 163.6303253173828
v -110.01499938964844 -136.90943908691406 163.6303253173828
v -110.01496887207031 -136.90943908691406 163.6303253173828
v 103.819580078125 -127.87417602539062 163.6303253173828
v 103.81957244873047 -127.87417602539062 163.6303253173828
v 103.8195571899414 -127.87417602539062 163.6303253173828
v 103.8195571899414 -127.87417602539062 163.6303253173828
v -107.00321960449219 -131.6388702392578 162.62635803222656
v -107.00321960449219 -131.6388702392578 162.62635803222656
v -110.01499938964844 -136.90943908691406 163.6303253173828
v -110.01496887207031 -136.90943908691406 163.6303253173828
v -110.01499938964844 -136.90943908691406 163.6303253173828
v -110.01496887207031 -136.90943908691406 163.6303253173828
v 103.81956481933594 -127.87417602539062 163.63031005859375
v -107.00325012207031 -133.89768981933594 166.64207458496094
v -107.00325012207031 -133.89768981933594 166.64207458496094
v -107.00325012207031 -133.89768981933594 166.64207458496094
v -107.00325012207031 -133.89768981933594 166.64207458496094
v -107.00325012207031 -133.89768981933594 166.64207458496094
v -110.01496887207031 -136.90943908691406 163.63031005859375
v -110.01496887207031 -139.92120361328125 166.64207458496094
v -110.01496887207031 -139.9211883544922 166.64207458496094
v -110.01496887207031 -139.92120361328125 166.64207458496094
v -110.01496887207031 -139.92120361328125 166.64207458496094
v -110.01496887207031 -139.92120361328125 166.64207458496094
v 103.81954193115234 -130.36305236816406 169.37493896484375
v 103.81957244873047 -130.36305236816406 169.37490844726562
v 103.81954956054688 -130.36306762695312 169.37493896484375
v 103.8195571899414 -130.36305236816406 169.37493896484375
v 103.81957244873047 -130.36305236816406 169.3749542236328
v 103.81954956054688 -130.36306762695312 169.37493896484375
v 103.81957244873047 -130.36305236816406 169.3749542236328
v 103.81956481933594 -130.36306762695312 169.37490844726562
v -107.00325012207031 -133.89768981933594 166.6420440673828
v -110.01496887207031 -139.92120361328125 166.6420440673828
v 103.81954956054688 -130.36306762695312 169.37493896484375
v 103.81956481933594 -130.36306762695312 169.3749237060547
v 103.81957244873047 -130.36306762695312 169.3749542236328
v 103.81954956054688 -130.36306762695312 169.3749237060547
v -107.00325012207031 -136.90943908691406 170.65765380859375
v -107.00325012207031 -136.90943908691406 170.65774536132812
v -107.00325012207031 -136.90943908691406 170.65774536132812
v -107.00325012207031 -136.90943908691406 170.65774536132812
v -107.00325012207031 -136.90943908691406 170.65774536132812
v -107.00325012207031 -136.90943908691406 170.65773010253906
v -103.99150085449219 -133.89768981933594 183.27552795410156
v -103.99147033691406 -133.89768981933594 183.35739135742188
v -103.99147033691406 -133.89768981933594 183.35739135742188
v -103.99150085449219 -133.89768981933594 183.35739135742188
v -103.99147033691406 -133.89768981933594 183.35739135742188
v -96.46208190917969 -124.8624267578125 182.70474243164062
v -96.46208190917969 -124.8624267578125 182.70477294921875
v -96.46214294433594 -124.8624267578125 182.70477294921875
v -96.46208190917969 -124.8624267578125 182.70477294921875
v -96.46208190917969 -124.8624267578125 182.70477294921875
v -103.99147033691406 -133.89768981933594 183.56431579589844
v -103.99147033691406 -133.89768981933594 183.56431579589844
v -103.99147033691406 -133.89768981933594 183.56431579589844
v -103.99150085449219 -133.89768981933594 183.56431579589844
v -96.46208190917969 -124.8624267578125 182.70474243164062
v -103.99150085449219 -133.89768981933594 183.85302734375
v -103.99147033691406 -133.89768981933594 183.85302734375
v -103.99147033691406 -133.89768981933594 183.85302734375
v -103.99147033691406 -133.89768981933594 183.85302734375
v -108.50910949707031 -141.4270782470703 184.71255493164062
v -108.50910949707031 -141.4270782470703 184.71258544921875
v -108.50907897949219 -141.4270782470703 184.71258544921875
v -108.50910949707031 -141.4270782470703 184.71258544921875
v -108.50910949707031 -141.4270782470703 184.71258544921875
v -93.45033264160156 -121.85066223144531 188.72288513183594
v -93.45030212402344 -121.85066223144531 188.72457885742188
v -93.45033264160156 -121.85067749023438 188.72457885742188
v -93.45033264160156 -121.85067749023438 188.72457885742188
v -93.45033264160156 -121.85067749023438 188.72457885742188
v -103.99147033691406 -133.89768981933594 184.05990600585938
v -103.99147033691406 -133.89768981933594 184.05990600585938
v -103.99150085449219 -133.89768981933594 184.05990600585938
v -103.99147033691406 -133.89768981933594 184.05990600585938
v -108.50910949707031 -141.4270782470703 184.71258544921875
v -91.94447326660156 -118.83891296386719 189.73216247558594
v -91.94444274902344 -118.83891296386719 189.73216247558594
v -91.94444274902344 -118.83891296386719 189.73216247558594
v -91.94447326660156 -118.83891296386719 189.73216247558594
v -91.94444274902344 -118.83891296386719 189.73216247558594
v -93.45033264160156 -121.85067749023438 188.7306365966797
v -93.45033264160156 -121.85066223144531 188.7282257080078
v -93.45033264160156 -121.85066223144531 188.7282257080078
v -93.45033264160156 -121.85066223144531 188.7282257080078
v -96.46208190917969 -124.8624267578125 189.73216247558594
v -96.46208190917969 -124.8624267578125 189.73216247558594
v -96.46211242675781 -124.8624267578125 189.73216247558594
v -96.46208190917969 -124.8624267578125 189.73216247558594
v -96.46208190917969 -124.8624267578125 189.73216247558594
v -103.99150085449219 -133.89768981933594 184.1417999267578
v -91.94444274902344 -118.83891296386719 189.73216247558594
v -91.94444274902344 -118.83891296386719 189.73216247558594
v -91.94447326660156 -118.83891296386719 189.73216247558594
v -91.94444274902344 -118.83891296386719 189.73216247558594
v -93.45033264160156 -121.85066223144531 188.73275756835938
v -93.45033264160156 -121.85067749023438 188.73194885253906
v -93.45030212402344 -121.85067749023438 188.73194885253906
v -94.95619201660156 -123.35655212402344 191.74000549316406
v -94.95619201660156 -123.35655212402344 191.74002075195312
v -94.95619201660156 -123.35655212402344 191.74000549316406
v -94.95619201660156 -123.35655212402344 191.74000549316406
v -94.95619201660156 -123.35655212402344 191.74000549316406
v -96.46211242675781 -124.8624267578125 189.73216247558594
v -96.46208190917969 -124.8624267578125 189.73216247558594
v -96.46208190917969 -124.8624267578125 189.73216247558594
v -96.46208190917969 -124.8624267578125 189.73216247558594
v -100.97972106933594 -129.38006591796875 190.73611450195312
v -100.97972106933594 -129.38006591796875 190.73609924316406
v -100.97972106933594 -129.38006591796875 190.73609924316406
v -100.97972106933594 -129.38006591796875 190.73609924316406
v -100.97972106933594 -129.38006591796875 190.73609924316406
v -91.94447326660156 -118.83891296386719 189.73216247558594
v -94.95619201660156 -123.35655212402344 191.739990234375
v -94.95619201660156 -123.35655212402344 191.739990234375
v -94.95619201660156 -123.35655212402344 191.739990234375
v -94.95619201660156 -123.35655212402344 191.739990234375
v -96.46208190917969 -124.8624267578125 189.73216247558594
v -100.97972106933594 -129.38006591796875 190.736083984375
v -113.02671813964844 -148.9564666748047 193.7478485107422
v -113.02671813964844 -148.9564666748047 193.74783325195312
v -113.02671813964844 -148.9564666748047 193.74783325195312
v -113.02674865722656 -148.9564666748047 193.74783325195312
v -113.02674865722656 -148.9564666748047 193.74783325195312
v -91.94447326660156 -118.83891296386719 194.75177001953125
v -91.94447326660156 -118.83891296386719 194.75177001953125
v -91.94447326660156 -118.83891296386719 194.75177001953125
v -91.94447326660156 -118.83891296386719 194.75177001953125
v -91.94447326660156 -118.83891296386719 194.75177001953125
v -93.45033264160156 -120.34480285644531 195.7556915283203
v -93.45030212402344 -120.34480285644531 195.7556915283203
v -93.45033264160156 -120.34480285644531 195.7556610107422
v -93.45030212402344 -120.34480285644531 195.7556915283203
v -93.45030212402344 -120.34480285644531 195.7556915283203
v -94.95619201660156 -123.35655212402344 191.74000549316406
v -102.48561096191406 -130.88592529296875 194.75177001953125
v -102.48561096191406 -130.88592529296875 194.75177001953125
v -102.48558044433594 -130.88592529296875 194.75177001953125
v -102.48561096191406 -130.88592529296875 194.75177001953125
v -102.48561096191406 -130.8859405517578 194.75177001953125
v -113.02674865722656 -148.9564666748047 193.74783325195312
v -113.02671813964844 -148.9564666748047 193.74783325195312
v -113.02674865722656 -148.9564666748047 193.74783325195312
v -113.02671813964844 -148.9564666748047 193.74783325195312
v -91.94447326660156 -118.83891296386719 194.7517547607422
v -93.45030212402344 -120.34480285644531 195.7556915283203
v -93.45030212402344 -120.34480285644531 195.7556915283203
v -93.45030212402344 -120.34480285644531 195.7556915283203
v -93.45033264160156 -120.34480285644531 195.7556915283203
v -94.95619201660156 -121.85066223144531 196.7595977783203
v -94.95622253417969 -121.85066223144531 196.75958251953125
v -94.95625305175781 -121.85066223144531 196.7595977783203
v -94.95622253417969 -121.85067749023438 196.7595977783203
v -96.46208190917969 -123.35655212402344 197.76351928710938
v -96.46211242675781 -123.35655212402344 197.76351928710938
v -96.46208190917969 -123.35655212402344 197.76351928710938
v -96.46208190917969 -123.35655212402344 197.76351928710938
v -96.46208190917969 -123.35655212402344 197.76351928710938
v -100.97969055175781 -127.87417602539062 197.76351928710938
v -100.97972106933594 -127.87417602539062 197.76351928710938
v -100.97969055175781 -127.87417602539062 197.76351928710938
v -100.97972106933594 -127.87417602539062 197.76351928710938
v -100.97972106933594 -127.87417602539062 197.76351928710938
v -102.48561096191406 -129.38006591796875 197.76351928710938
v -102.48558044433594 -129.38006591796875 197.7635040283203
v -102.48561096191406 -129.38006591796875 197.7635040283203
v -102.48561096191406 -130.88592529296875 194.7517547607422
v -102.48558044433594 -129.38006591796875 197.76351928710938
v -103.99147033691406 -130.8859405517578 197.7635040283203
v -103.99150085449219 -130.88592529296875 197.76351928710938
v -103.99147033691406 -130.88592529296875 197.76353454589844
v -107.00325012207031 -135.403564453125 196.7595977783203
v -107.00325012207031 -135.40357971191406 196.7595977783203
v -107.00325012207031 -135.40357971191406 196.75958251953125
v -107.00325012207031 -135.40357971191406 196.7595977783203
v -107.00325012207031 -135.40357971191406 196.7595977783203
v -113.02671813964844 -148.9564666748047 193.7478485107422
v -93.45033264160156 -120.34480285644531 195.75567626953125
v -94.95622253417969 -121.85066223144531 196.75958251953125
v -96.46208190917969 -123.35655212402344 197.76353454589844
v -96.46211242675781 -123.35655212402344 197.76353454589844
v -96.46208190917969 -123.35655212402344 197.76353454589844
v -96.46208190917969 -123.35655212402344 197.76353454589844
v -97.96797180175781 -124.8624267578125 198.76744079589844
v -97.96797180175781 -124.8624267578125 198.76742553710938
v -97.96797180175781 -124.8624267578125 198.76744079589844
v -97.96797180175781 -124.8624267578125 198.76744079589844
v -97.96797180175781 -124.8624267578125 198.76744079589844
v -99.47386169433594 -126.36830139160156 198.76744079589844
v -99.47386169433594 -126.36830139160156 198.76744079589844
v -99.47386169433594 -126.36830139160156 198.76742553710938
v -99.47389221191406 -126.36830139160156 198.76744079589844
v -99.47386169433594 -126.36830139160156 198.76744079589844
v -100.97969055175781 -127.87417602539062 197.76353454589844
v -100.97972106933594 -127.87417602539062 197.76353454589844
v -100.97972106933594 -127.87417602539062 197.76353454589844
v -100.97972106933594 -127.87417602539062 197.76353454589844
v -102.48558044433594 -129.38006591796875 197.7634735107422
v -102.48558044433594 -129.38006591796875 197.7635040283203
v -102.48561096191406 -129.38006591796875 197.7635040283203
v -102.48561096191406 -129.38006591796875 197.7635040283203
v -103.99147033691406 -130.88592529296875 197.7634735107422
v -103.99147033691406 -130.88592529296875 197.7635040283203
v -103.99147033691406 -130.88592529296875 197.7635040283203
v -107.00325012207031 -135.40357971191406 196.75958251953125
v -113.02671813964844 -145.9447021484375 199.77134704589844
v -113.02671813964844 -145.9447021484375 199.7713623046875
v -113.02671813964844 -145.9447021484375 199.7713623046875
v -113.02674865722656 -145.9447021484375 199.7713623046875
v -113.02674865722656 -145.9447021484375 199.7713623046875
v -96.46208190917969 -123.35655212402344 197.7635040283203
v -97.96797180175781 -124.8624267578125 198.76744079589844
v -99.47386169433594 -126.36830139160156 198.76744079589844
v -100.97969055175781 -127.87417602539062 197.7635040283203
v -102.48561096191406 -127.87417602539062 201.77920532226562
v -102.48561096191406 -127.87417602539062 201.7791748046875
v -102.48561096191406 -127.87417602539062 201.7791748046875
v -102.48561096191406 -127.87417602539062 201.7791748046875
v -102.48561096191406 -129.38006591796875 197.7635040283203
v -102.48558044433594 -127.87417602539062 201.7791748046875
v -103.99147033691406 -130.8859405517578 197.7635040283203
v -113.02674865722656 -145.9447021484375 199.7713623046875
v -113.02671813964844 -145.9447021484375 199.7713623046875
v -113.02674865722656 -145.9447021484375 199.7713623046875
v -113.02671813964844 -145.9447021484375 199.7713623046875
v -114.53263854980469 -150.46234130859375 201.77920532226562
v -114.53263854980469 -150.46234130859375 201.7791748046875
v -114.53260803222656 -150.46234130859375 201.7791748046875
v -114.53260803222656 -150.46234130859375 201.7791748046875
v -100.97972106933594 -126.36830139160156 202.78306579589844
v -100.97972106933594 -126.36830139160156 202.7831268310547
v -100.97972106933594 -126.36830139160156 202.7831268310547
v -100.97972106933594 -126.36830139160156 202.7831268310547
v -100.97972106933594 -126.36830139160156 202.7831268310547
v -102.48561096191406 -127.87417602539062 201.77920532226562
v -102.48558044433594 -127.87417602539062 201.77920532226562
v -102.48561096191406 -127.87417602539062 201.77920532226562
v -102.48561096191406 -127.87417602539062 201.77920532226562
v -103.99150085449219 -129.38006591796875 202.7831268310547
v -103.99150085449219 -129.38006591796875 202.78306579589844
v -103.99150085449219 -129.38006591796875 202.7831268310547
v -103.99147033691406 -129.38006591796875 202.7831268310547
v -103.99150085449219 -129.38006591796875 202.7831268310547
v -105.49736022949219 -130.88592529296875 202.7831268310547
v -105.49736022949219 -130.88592529296875 202.7831268310547
v -105.49736022949219 -130.88592529296875 202.78306579589844
v -105.49736022949219 -130.88592529296875 202.7830810546875
v -113.02671813964844 -145.9447021484375 199.77133178710938
v -114.53263854980469 -150.46234130859375 201.77920532226562
v -114.53260803222656 -150.46234130859375 201.77920532226562
v -114.53260803222656 -150.46234130859375 201.77920532226562
v -100.97972106933594 -126.36830139160156 202.7830810546875
v -102.48561096191406 -126.36830139160156 205.79486083984375
v -102.48561096191406 -126.36830139160156 205.79483032226562
v -102.48561096191406 -126.36830139160156 205.79483032226562
v -102.48561096191406 -126.36830139160156 205.79483032226562
v -102.48561096191406 -127.87417602539062 201.7791748046875
v -102.48558044433594 -126.36830139160156 205.79483032226562
v -103.99150085449219 -127.87417602539062 205.7948760986328
v -103.99150085449219 -127.87417602539062 205.7948455810547
v -103.99147033691406 -127.87417602539062 205.7948455810547
v -103.99147033691406 -127.87417602539062 205.7948760986328
v -103.99150085449219 -129.38006591796875 202.7830810546875
v -103.99147033691406 -127.87417602539062 205.7948455810547
v -105.49736022949219 -129.38006591796875 205.7948760986328
v -105.49736022949219 -129.38006591796875 205.7948455810547
v -105.49736022949219 -129.38006591796875 205.7948455810547
v -105.49736022949219 -129.38006591796875 205.7948760986328
v -105.49736022949219 -130.88592529296875 202.7830810546875
v -105.49732971191406 -129.38006591796875 205.7948455810547
v -114.53263854980469 -147.45059204101562 204.79092407226562
v -114.53263854980469 -147.45059204101562 204.7909393310547
v -114.53260803222656 -147.45059204101562 204.7909393310547
v -114.53263854980469 -147.45059204101562 204.7909393310547
v -114.53263854980469 -147.45059204101562 204.7909393310547
v -102.48558044433594 -126.36830139160156 205.7948455810547
v -102.48561096191406 -126.36830139160156 205.7948455810547
v -102.48561096191406 -126.36830139160156 205.7948455810547
v -102.48561096191406 -126.36830139160156 205.7948455810547
v -103.99147033691406 -127.87417602539062 205.79486083984375
v -103.99147033691406 -127.87417602539062 205.79486083984375
v -103.99150085449219 -127.87417602539062 205.7948760986328
v -103.99147033691406 -127.87417602539062 205.79486083984375
v -105.49736022949219 -129.38006591796875 205.79486083984375
v -105.49732971191406 -129.38006591796875 205.79486083984375
v -105.49739074707031 -129.38006591796875 205.7948760986328
v -105.49736022949219 -129.38006591796875 205.79486083984375
v -114.53263854980469 -147.45059204101562 204.79092407226562
v -116.03849792480469 -148.95645141601562 206.7987823486328
v -116.03846740722656 -148.95645141601562 206.7987823486328
v -116.03849792480469 -148.95645141601562 206.7987518310547
v -116.03849792480469 -148.95645141601562 206.7987823486328
v -116.03849792480469 -148.95645141601562 206.7987823486328
v -102.48561096191406 -126.36830139160156 205.79486083984375
v -103.99147033691406 -127.87417602539062 205.79486083984375
v -105.49736022949219 -129.38006591796875 205.79486083984375
v -110.01496887207031 -133.89768981933594 208.80661010742188
v -110.01496887207031 -133.89768981933594 208.80661010742188
v -110.01496887207031 -133.89768981933594 208.8065948486328
v -110.01496887207031 -133.89768981933594 208.80661010742188
v -110.01496887207031 -133.89768981933594 208.80661010742188
v -116.03849792480469 -148.95645141601562 206.79876708984375
v -110.01496887207031 -132.39181518554688 210.81443786621094
v -110.01496887207031 -132.39181518554688 210.814453125
v -110.01496887207031 -132.39181518554688 210.814453125
v -110.01496887207031 -132.39181518554688 210.814453125
v -110.01496887207031 -133.89768981933594 208.80662536621094
v -110.01496887207031 -132.39181518554688 210.814453125
v -113.02671813964844 -136.90943908691406 210.81443786621094
v -113.02671813964844 -136.90943908691406 210.814453125
v -113.02674865722656 -136.90943908691406 210.814453125
v -113.02671813964844 -136.90943908691406 210.814453125
v -113.02671813964844 -136.90943908691406 210.814453125
v -110.01496887207031 -132.39181518554688 210.81443786621094
v -111.52085876464844 -133.89768981933594 212.822265625
v -111.52088928222656 -133.89768981933594 212.822265625
v -111.52085876464844 -133.89768981933594 212.822265625
v -111.52088928222656 -133.89768981933594 212.822265625
v -111.52085876464844 -133.89768981933594 212.822265625
v -113.02671813964844 -136.90943908691406 210.81443786621094
v 115.86658477783203 -145.9447021484375 212.822265625
v 115.86658477783203 -145.9447021484375 212.822265625
v 115.86654663085938 -145.9447021484375 212.822265625
v 115.8665771484375 -145.9447021484375 212.822265625
v 115.86658477783203 -145.9447021484375 212.822265625
v 117.37246704101562 -150.46234130859375 212.822265625
v 117.37246704101562 -150.46234130859375 212.822265625
v 117.37249755859375 -150.46234130859375 212.822265625
v 117.37245178222656 -150.46234130859375 212.822265625
v 117.37246704101562 -150.46234130859375 212.822265625
v -107.00325012207031 -127.87417602539062 214.8301544189453
v -107.00325012207031 -127.87417602539062 214.8301239013672
v -107.00325012207031 -127.87417602539062 214.8301239013672
v -107.00325012207031 -127.87417602539062 214.8301239013672
v -107.00325012207031 -127.87417602539062 214.8301239013672
v -108.50910949707031 -129.38006591796875 214.8301239013672
v -108.50907897949219 -129.38006591796875 214.8301239013672
v -108.50910949707031 -129.38006591796875 214.8301544189453
v -108.50910949707031 -129.38006591796875 214.8301239013672
v -108.50910949707031 -129.38006591796875 214.8301239013672
v -110.01496887207031 -130.88592529296875 214.8301239013672
v -110.01496887207031 -130.88592529296875 214.8301239013672
v -110.01496887207031 -130.88592529296875 214.8301544189453
v -110.01496887207031 -130.88592529296875 214.8301239013672
v -110.01496887207031 -130.8859405517578 214.8301239013672
v -111.52088928222656 -131.8689422607422 216.1129150390625
v -111.52085876464844 -131.8689422607422 216.11289978027344
v -111.52085876464844 -131.8689422607422 216.11289978027344
v -111.52085876464844 -131.8689422607422 216.11289978027344
v -111.52085876464844 -133.89768981933594 212.82229614257812
v -111.52085876464844 -131.8689422607422 216.1128692626953
v -113.02671813964844 -135.403564453125 214.8301239013672
v -113.02674865722656 -135.40357971191406 214.8301239013672
v -113.02671813964844 -135.40357971191406 214.8301544189453
v -113.02671813964844 -135.40357971191406 214.8301239013672
v -113.02671813964844 -135.40357971191406 214.8301239013672
v 115.86658477783203 -145.9447021484375 212.82229614257812
v -117.54438781738281 -147.45059204101562 214.8301544189453
v -117.54438781738281 -147.45059204101562 214.8301239013672
v -117.54438781738281 -147.45059204101562 214.8301239013672
v -117.54435729980469 -147.45059204101562 214.8301239013672
v -117.54438781738281 -147.45059204101562 214.8301239013672
v 117.37246704101562 -150.46234130859375 212.82229614257812
v -119.05024719238281 -158.7446746826172 214.83010864257812
v -119.05021667480469 -158.74465942382812 214.8301239013672
v -119.05024719238281 -158.7446746826172 214.83010864257812
v -119.05024719238281 -158.7446746826172 214.83010864257812
v -119.05021667480469 -158.74465942382812 214.83010864257812
v -119.05024719238281 -158.74465942382812 214.83010864257812
v -119.05024719238281 -158.74465942382812 214.83010864257812
v -119.05021667480469 -158.74465942382812 214.8301239013672
v -107.00325012207031 -127.87417602539062 214.8301239013672
v -108.50910949707031 -129.38006591796875 214.8301239013672
v -110.01496887207031 -129.38006591796875 216.8379364013672
v -110.01496887207031 -129.38006591796875 216.83795166015625
v -110.01496887207031 -129.38006591796875 216.83795166015625
v -110.01496887207031 -129.38006591796875 216.83795166015625
v -110.01496887207031 -130.88592529296875 214.8301239013672
v -110.01496887207031 -129.38006591796875 216.83795166015625
v -111.52082824707031 -131.8689422607422 216.11288452148438
v -111.52088928222656 -131.8689422607422 216.11289978027344
v -111.52085876464844 -131.8689422607422 216.1129150390625
v -111.52085876464844 -131.8689422607422 216.11289978027344
v -111.52085876464844 -131.8689422607422 216.11288452148438
v -111.52085876464844 -131.8689422607422 216.11293029785156
v -111.52085876464844 -131.8689422607422 216.11289978027344
v -113.02674865722656 -133.89768981933594 216.83795166015625
v -113.02671813964844 -133.89768981933594 216.8379364013672
v -113.02671813964844 -133.89768981933594 216.83795166015625
v -113.02671813964844 -133.89768981933594 216.83795166015625
v -113.02671813964844 -135.40357971191406 214.8301239013672
v -113.02671813964844 -133.89768981933594 216.83795166015625
v -117.54438781738281 -147.45059204101562 214.8301239013672
v -119.05021667480469 -158.7446746826172 214.83010864257812
v -119.05024719238281 -158.74465942382812 214.83010864257812
v -110.01496887207031 -129.38006591796875 216.83798217773438
v -113.02671813964844 -132.39181518554688 218.8457794189453
v -113.02671813964844 -132.39181518554688 218.84579467773438
v -113.02674865722656 -132.39181518554688 218.84579467773438
v -113.02671813964844 -132.39181518554688 218.84579467773438
v -113.02671813964844 -133.89768981933594 216.83798217773438
v -113.02671813964844 -132.39181518554688 218.84579467773438
v -113.02671813964844 -132.39181518554688 218.8458251953125
v -122.06202697753906 -148.95645141601562 220.8536376953125
v -122.06202697753906 -148.95645141601562 220.8536376953125
v -122.06199645996094 -148.95645141601562 220.8536376953125
v -122.06202697753906 -148.95645141601562 220.8536376953125
v -122.06202697753906 -148.95645141601562 220.8536376953125
v -122.06202697753906 -151.9682159423828 220.8536376953125
v -122.06202697753906 -151.9682159423828 220.8536376953125
v -122.06199645996094 -151.9682159423828 220.8536376953125
v -122.06202697753906 -151.9682159423828 220.8536376953125
v -122.06202697753906 -151.9682159423828 220.8536376953125
v -122.06202697753906 -154.97996520996094 220.8536376953125
v -122.06202697753906 -154.97996520996094 220.8536376953125
v -122.06199645996094 -154.97996520996094 220.8536376953125
v -122.06202697753906 -154.97996520996094 220.8536376953125
v -122.06202697753906 -154.97996520996094 220.8536376953125
v -122.06202697753906 -148.95645141601562 220.85365295410156
v -122.06202697753906 -151.9682159423828 220.85365295410156
v -122.06202697753906 -154.97996520996094 220.85365295410156
v -117.54438781738281 -117.33303833007812 267.03387451171875
v -117.54438781738281 -117.33303833007812 267.03387451171875
v -117.54438781738281 -117.33303833007812 267.03387451171875
v -117.54435729980469 -117.33303833007812 267.03387451171875
v -117.54438781738281 -117.33303833007812 267.03387451171875
v -117.54438781738281 -117.33303833007812 267.03387451171875
v -120.55610656738281 -117.33303833007812 271.0495300292969
v -120.55610656738281 -117.33303833007812 271.0495300292969
v -120.55613708496094 -117.33303833007812 271.0495300292969
v -120.55607604980469 -117.33303833007812 271.0495300292969
v -120.55610656738281 -117.33303833007812 271.0495300292969
v -120.55610656738281 -117.33303833007812 271.049560546875
vn 0 -0 0
vn 0 -0 0
vn 0 -0 0
vn 0 -0 0
vn 0 -0 0
vn -0 0 -1
vn 0.2888737916946411 -0.6377379298210144 -0.7140324711799622
vn -0.6377379298210144 0.2888737916946411 -0.7140324711799622
vn 1 0 0
vn 0 1 0
vn 0 -0 0
vn 0.6272664666175842 0.6272664666175842 0.46159905195236206
vn 0 -0 0
vn 0 -0 0
vn 0 -0 0
vn 0 -0 0
vn 0 -0 0
vn 0 -0 0
vn -0 0 -1
vn -0 0 -1
vn 0 -0 1
vn 0 -0 1
vn 0 -0 0
vn 0 -0 0
vn 0 1 0
vn 0 -0 0
vn 0 -0 0
vn 0 -1 0
vn -0.7071068286895752 -0 0.7071068286895752
vn 0.7071068286895752 0 -0.7071068286895752
vn 0.7071068286895752 0 -0.7071068286895752
vn -0.7071068286895752 -0 0.7071068286895752
vn 0 -0 0
vn 0 -0 0
vn 0 -0 0
vn 0 -0 0
vn 0 -0 0
vn 0 -0 0
vn 0 -0 0
vn 0 -0 0
vn 0 -0 0
vn 0 -0 0
vn 0 -0 0
vn 0 -0 0
vn 0 -0 0
vn 0 -0 0
vn 0 -0 0
vn 0 -0 0
vn 0 -0 0
vn 0 -0 0
vn 0 -0 0
vn 0 -0 0
vn 0 -0 0
vn 0 -0 0
vn 0 -0 0
vn 0 -0 0
vn 0 -0 0
vn 0 -0 0
vn 0 -0 0
vn 0 -0 0
vn 0 -0 0
vn 0 -0 0
vn 0 -0 0
vn 0 -0 0
vn 0 -0 0
vn 0 -0 0
vn 0 -0 0
vn 0 -0 0
vn 0 -0 0
vn 0 -0 0
vn 0 -0 0
vn 0 -0 0
vn 0 -0 0
vn 0 -0 0
vn 0 -0 0
vn 0 -0 0
vn 0 -0 0
vn 0 -0 0
vn 0 -0 0
vn 0 -0 0
vn 0 -0 0
vn 0 -0 0
vn 0 -0 0
vn 0 1 0
vn 0 1 0
vn 0 1 0
vn 0 -1 0
vn 0 -0 0
vn 0 -1 0
vn 0 -0 0
vn 0 1 0
vn 0 -1 0
vn 0 -1 0
vn 0 1 0
vn 0 -0 0
vn 0 -0 0
vn 0 -0 0
vn 0 -0 0
vn 0 -0 0
vn 0 -0 0
vn 0 -0 0
vn 0 -0 0
vn 0 1 0
vn 0 -1 0
vn 0 1 0
vn 0 1 0
vn 0 1 0
vn 0 -0 0
vn 0 -0 0
vn 0 -0 0
vn 0 -0 0
vn 0 1 0
vn 0 -0 0
vn 0 -0 0
vn 0 -0 0
vn 0 -0 0
vn 0 -0 0
vn 0 -0 0
vn 0 -0 0
vn 0 -0 0
vn -1 -0 0
vn 1 0 0
vn 0 -0 0
vn -0.6020283699035645 0.7905042767524719 0.11253823339939117
vn 0.3793356120586395 0.6542569994926453 -0.6542571187019348
vn -0.8821816444396973 -0.44109082221984863 0.164907768368721
vn 0.22457465529441833 0.9382993578910828 -0.26298412680625916
vn 0 -0.7071068286895752 0.7071068286895752
vn 0.4364357888698578 -0.8728715777397156 0.2182178944349289
vn -0.18068735301494598 0.9599531888961792 -0.21410764753818512
vn -0.6915807127952576 -0.6427562832832336 0.3295155465602875
vn 0 -0 0
vn 0 -0 0
vn 0.13429853320121765 -0.9634890556335449 -0.23163068294525146
vn -0.36324015259742737 0.84669429063797 -0.38879987597465515
vn 0 1 0
vn 0 1 0
vn 0 -0 0
vn 0 -0 0
vn 0 -0 0
vn 0 -0 0
vn 0 -0 0
vn 0 -0 0
vn 0 -0 0
vn 0 1 0
vn 0 -1 0
vn 0 -0 0
vn 0 -1 0
vn 0 -0 0
vn 0 -0 0
vn 0 -0 0
vn 0 -0 0
vn 0 -0 0
vn 0 1 0
vn 0 -1 0
vn 0 -0 0
vn 0 -0 0
vn 0 -0 0
vn 0 -0 0
vn 0 1 0
vn 0 -0 0
vn 0 -1 0
vn 0 -0 0
vn 0 1 0
vn 0 -0 0
vn 0 -0 0
vn 0 -1 0
vn 0 -0 0
vn -0.6032302379608154 -0.7975661158561707 -0.0013055228628218174
vn 0.4472125470638275 -0.894425094127655 -0.002157684415578842
vn 0.058922942727804184 0.9982524514198303 0.004496559966355562
vn 0 -0 0
vn 0 1 0
vn 0 1 0
vn 0 -0 0
vn 0 -1 0
vn 0 -0 0
vn 0 -0 0
vn 0 -0 0
vn 0 -0 0
vn 0 -0 0
vn 0 -0 0
vn 0.43790605664253235 0.8990169763565063 -0.002591202035546303
vn -0.4989321827888489 -0.8666222095489502 0.005722744390368462
vn 1 0 0
vn -0 -0.9999915957450867 -0.004098326433449984
vn 0 -0 0
vn 0 -0 0
vn 0 -0 0
vn 0 -0 0
vn 0 -0 0
vn 0 -0 0
vn 0 -0 0
vn 0 -0 0
vn 0 -0 0
vn 0 -0 0
vn 0.9880511164665222 -0.14882084727287292 0.040092889219522476
vn -0.44723719358444214 -0.8943910002708435 0.006604012101888657
vn 0.37726983428001404 -0.9121087789535522 0.16039031744003296
vn 0 -0 0
vn 0 -0 0
vn 0 -0 0
vn 0 -0 0
vn 0 -0 0
vn 0 -0 0
vn 0 -0 0
vn 0 -0 0
vn 0 -0 0
vn 0 -0 0
vn 0 -0 0
vn 0 -0 0
vn 0 -0 0
vn 0 -0 0
vn 0 -0 0
vn 0 -0 0
vn 0 -0 0
vn 0 -0 0
vn 0 -0 0
vn 0 -0 0
vn 0 -0 0
vn 0 -0 0
vn 0 -1 0
vn 0 1 0
vn 0 -1 0
vn 0 1 0
vn 0 -0 0
vn 0 -0 0
vn 0 -0 0
vn 0 -0 0
vn 0 -0 0
vn 0 -0 0
vn 0 1 0
vn 0 -0 0
vn 0 -1 0
vn 0 -0 0
vn 0 -0 0
vn -0 0 -1
vn 0 -1 0
vn -0.5773503184318542 -0.5773502588272095 -0.5773502588272095
vn 1 0 0
vn 0.6666666865348816 0.6666667461395264 -0.3333333432674408
vn 0 1 0
vn 0 1 0
vn 0 -1 0
vn 0 -1 0
vn 0 -0 0
vn 0 -0 0
vn 0 1 0
vn 0 -1 0
vn 0 -0 0
vn 0 -0 0
vn -0 -0.24253565073013306 -0.9701425433158875
vn 0 -0 0
vn 0 -0 0
vn 0 -1 0
vn 0 1 0
vn 0 -0 0
vn 0 -0 0
vn 0 1 0
vn 0 -0 0
vn 0 1 0
vn 0 -1 0
vn 0 -0 0
vn 0 -1 0
vn 0 -0 0
vn 0 1 0
vn 0 -1 0
vn 0.6666666865348816 -0.3333333432674408 0.6666667461395264
vn 0 -1 0
vn -0.1376393437385559 0.9896807074546814 -0.03984389081597328
vn 0.7814406752586365 0.6205259561538696 -0.06555996835231781
vn -0.8644832372665405 -0.14057676494121552 -0.48260435461997986
vn 0 -0 0
vn 0 -0 0
vn 0 -0 0
vn 0 -0 0
vn 0 -0 0
vn 0 -0 0
vn 0 -0 0
vn 0 0.24253565073013306 0.9701425433158875
vn 0 -0 0
vn 0 -1 0
vn 0 -0 0
vn 0 1 0
vn 0 -0 0
vn 0 -0 0
vn 0 -0 0
vn 0 -0 0
vn 0 -0 0
vn 0 1 0
vn 0 -0 0
vn 0 -0 0
vn 0 -0 0
vn 0 -1 0
vn 0 1 0
vn 0 -0 0
vn 0 -0 0
vn 0 -1 0
vn 0 -1 0
vn 0 1 0
vn 0 -0 0
vn 0 -0 0
vn -0.7000764608383179 -0.4065636098384857 0.5870255827903748
vn -1 -0 0
vn -1 -0 0
vn 0 -0 0
vn 0 -0 0
vn 0 1 0
vn 0 -1 0
vn 0 1 0
vn 0 -1 0
vn 0 -0 0
vn 0 -0 0
vn 0 -0 0
vn 0 -0 0
vn 0 -0 0
vn 0 -1 0
vn 0 -0 0
vn 0 1 0
vn 0 1 0
vn 0 -0 0
vn -1 -0 0
vn 0 -1 0
vn 0 -1 0
vn 0 1 0
vn 0 1 0
vn 0 -0 0
vn 0 1 0
vn 0 -0 0
vn 0 -1 0
vn 0 -0 0
vn 0 -0 0
vn 0 -0 0
vn 0 -0 0
vn 0 -0 0
vn 0 -0 0
vn 0 -0 0
vn 0 -1 0
vn 0 1 0
vn 0 -0 0
vn 0 -0 0
vn 0 -0 0
vn 0 -0 0
vn 0 -0 0
vn 0 -0 0
vn 0 -0 0
vn 0 -0 0
vn 0 -0 0
vn 0 -0 0
vn 0 -1 0
vn 0 1 0
vn 0 -1 0
vn 0 -0 0
vn 0 -0 0
vn 0 -1 0
vn 0 -0 0
vn 0 1 0
vn 0 -0 0
vn 0 -0 0
vn 0 -1 0
vn 0 1 0
vn 0 -0 0
vn 0 1 0
vn 0 -0 0
vn 0 -1 0
vn 0 -1 0
vn 0 -0 0
vn 0 -0 0
vn 0 -0 0
vn 0 -0 0
vn 0 1 0
vn 0 -0 0
vn 0 -0 0
vn 0 -0 0
vn 0 -0 0
vn 0 -0 0
vn 0 -0 0
vn 0 -1 0
vn 0 1 0
vn 0 1 0
vn 0 1 0
vn 0 -0 0
vn 0 -1 0
vn 0 -1 0
vn 0 -0 0
vn 0 -0 0
vn 0 -0 0
vn 0 -0 0
vn 0 -0 0
vn 0 -0 0
vn 0 -0 0
vn 0 -0 0
vn 0 -0 0
vn 0 -0 0
vn 0 -0 0
vn 0 -0 0
vn 0 -0 0
vn 0 -0 0
vn 0 -0 0
vn 0 -0 0
vn 0 -0 0
vn 0 -0 0
vn 0 -0 0
vn 0 -0 0
vn 0 -0 0
vn 0 -0 0
vn 0 -0 0
vn 0 -0 0
vn 0 -0 0
vn 0 -0 0
vn 0 -0 0
vn 0 -0 0
vn 0 -0 0
vn 0 -0 0
vn 0 -0 0
vn 0 -0 0
vn 0 -0 0
vn 0 -0 0
vn 0 -0 0
vn 0 -0 0
vn 0 -0 0
vn 0 -0 0
vn 0 -0 0
vn 0 -0 0
vn 0 -0 0
vn 0 -0 0
vn 0 -0 0
vn 0 1 0
vn 0 -0 0
vn 0 -0 0
vn 0 -1 0
vn 0 -0 0
vn 0 -0 0
vn 0 -0 0
vn 0 -0 0
vn 0 -0 0
vn 0 -1 0
vn 0 -0 0
vn 0 -0 0
vn 0 -0 0
vn 0 1 0
vn 0 -0 0
vn -1 -0 0
vn 0 -0 0
vn 1 0 0
vn 0 -0 0
vn 0 -0 0
vn 0 -1 0
vn 0 -0 0
vn 0 -0 0
vn 0 -0 0
vn 0 -0 0
vn 0.5061208009719849 0.6983434557914734 -0.5061208009719849
vn -0.5502267479896545 -0.2473212331533432 -0.7975479960441589
vn 0.7975479960441589 -0.2473212331533432 0.5502267479896545
vn 1 0 0
vn 0 -1 0
vn 0 -0 0
vn 0 -0 0
vn 0 1 0
vn 0 -0 0
vn 0 -0 0
vn 0 -1 0
vn 0 -0 0
vn 0 -0 1
vn 0 -0 0
vn 0 0.7071067690849304 -0.7071068286895752
vn -0 -0.9238795638084412 -0.3826834559440613
vn 0 -0 0
vn 0 1 0
vn 0 -0.7071068286895752 0.7071068286895752
vn 0 -0 0
vn 0 -0 0
vn 0 -0 0
vn 0 -0 0
vn 0 -0 0
vn 0 -0 0
vn 0 -0 0
vn 0 -0 0
vn 0 -0 0
vn 0 -1 0
vn 0 -1 0
vn 0 -1 0
vn 0 -1 0
vn 0 -0 0
vn 0 -0 0
vn 0 -1 0
vn 0 -0 0
vn 0 -0 0
vn 0 -1 0
vn 0 -0 0
vn -0 0 -1
vn 0 1 0
vn 0 -0 0
vn 0 -0 0
vn -0 0 -1
vn 0 -0 0
vn 0 -0 0
vn 0 -1 0
vn 0 -0 0
vn 0 -0 0
vn 0 -0 0
vn 0 1 0
vn 0 -0 0
vn 0 -0 0
vn 0 1 0
vn 0 -0 0
vn 0 -0 0
vn 0 -1 0
vn 0 -0 0
vn 0 1 0
vn 0 -0 0
vn 0 -0 0
vn 0 -1 0
vn 0 -0 0
vn 0 1 0
vn 0 -0 0
vn 0 -0 0
vn 0 -1 0
vn 0 -0 0
vn 0 -0 0
vn 0 -0 0
vn 0 -0 0
vn 0 1 0
vn 0 -0 0
vn 0 -0 0
vn 0 -1 0
vn 0 -0 0
vn 0 -0 0
vn 0 -1 0
vn 0 -0 0
vn 0 -0 0
vn 0 1 0
vn 0 -0 0
f 1//1 2//2 3//3
f 2//2 1//1 4//4
f 1//1 3//3 5//5
f 4//4 1//1 5//5
f 6//6 7//7 8//8
f 7//7 6//6 9//9
f 6//6 8//8 10//10
f 9//9 6//6 10//10
f 2//2 11//11 3//3
f 2//2 4//4 11//11
f 3//3 11//11 5//5
f 4//4 5//5 11//11
f 7//7 12//12 8//8
f 7//7 9//9 12//12
f 8//8 12//12 10//10
f 9//9 10//10 12//12
f 13//13 14//14 15//15
f 14//14 13//13 16//16
f 13//13 15//15 17//17
f 16//16 13//13 17//17
f 18//18 19//19 20//20
f 19//19 18//18 21//21
f 18//18 20//20 22//22
f 21//21 18//18 22//22
f 14//14 23//23 15//15
f 14//14 16//16 23//23
f 15//15 23//23 17//17
f 16//16 17//17 23//23
f 24//24 25//25 26//26
f 25//25 24//24 27//27
f 24//24 26//26 28//28
f 29//29 20//20 19//19
f 29//29 19//19 30//30
f 27//27 24//24 28//28
f 30//30 19//19 21//21
f 31//31 30//30 21//21
f 20//20 29//29 32//32
f 22//22 20//20 32//32
f 31//31 21//21 22//22
f 32//32 31//31 22//22
f 25//25 33//33 26//26
f 25//25 27//27 33//33
f 26//26 33//33 28//28
f 27//27 28//28 33//33
f 30//30 34//34 29//29
f 30//30 31//31 34//34
f 29//29 34//34 32//32
f 31//31 32//32 34//34
f 35//35 36//36 37//37
f 36//36 35//35 38//38
f 35//35 37//37 39//39
f 38//38 35//35 39//39
f 40//40 41//41 42//42
f 41//41 40//40 43//43
f 40//40 42//42 44//44
f 43//43 40//40 44//44
f 45//45 46//46 47//47
f 46//46 45//45 48//48
f 45//45 47//47 49//49
f 50//50 51//51 52//52
f 48//48 45//45 49//49
f 50//50 52//52 53//53
f 52//52 51//51 54//54
f 55//55 56//56 57//57
f 53//53 52//52 54//54
f 55//55 57//57 58//58
f 57//57 56//56 59//59
f 60//60 61//61 62//62
f 58//58 57//57 59//59
f 60//60 62//62 63//63
f 62//62 61//61 64//64
f 36//36 65//65 37//37
f 62//62 64//64 63//63
f 36//36 38//38 65//65
f 37//37 65//65 39//39
f 38//38 39//39 65//65
f 41//41 66//66 67//67
f 42//42 41//41 67//67
f 66//66 41//41 43//43
f 68//68 66//66 43//43
f 42//42 67//67 69//69
f 44//44 42//42 69//69
f 68//68 43//43 44//44
f 69//69 68//68 44//44
f 70//70 71//71 72//72
f 71//71 70//70 73//73
f 70//70 72//72 74//74
f 73//73 70//70 74//74
f 46//46 75//75 47//47
f 46//46 48//48 75//75
f 47//47 75//75 49//49
f 48//48 49//49 75//75
f 50//50 76//76 51//51
f 50//50 53//53 76//76
f 51//51 76//76 54//54
f 53//53 54//54 76//76
f 55//55 77//77 56//56
f 55//55 58//58 77//77
f 56//56 77//77 59//59
f 58//58 59//59 77//77
f 60//60 78//78 61//61
f 60//60 63//63 78//78
f 61//61 78//78 64//64
f 63//63 64//64 78//78
f 66//66 79//79 80//80
f 67//67 66//66 80//80
f 79//79 66//66 68//68
f 81//81 79//79 68//68
f 67//67 80//80 82//82
f 69//69 67//67 82//82
f 81//81 68//68 69//69
f 82//82 81//81 69//69
f 71//71 83//83 72//72
f 71//71 73//73 83//83
f 72//72 83//83 74//74
f 73//73 74//74 83//83
f 84//84 85//85 86//86
f 85//85 84//84 87//87
f 84//84 86//86 88//88
f 87//87 84//84 88//88
f 89//89 90//90 91//91
f 90//90 89//89 92//92
f 93//93 89//89 91//91
f 94//94 92//92 89//89
f 80//80 79//79 95//95
f 79//79 81//81 95//95
f 89//89 93//93 96//96
f 82//82 80//80 95//95
f 89//89 96//96 94//94
f 82//82 95//95 81//81
f 97//97 98//98 99//99
f 98//98 97//97 100//100
f 97//97 99//99 101//101
f 100//100 97//97 101//101
f 85//85 102//102 103//103
f 86//86 85//85 103//103
f 102//102 85//85 87//87
f 104//104 102//102 87//87
f 86//86 103//103 105//105
f 88//88 86//86 105//105
f 104//104 87//87 88//88
f 105//105 104//104 88//88
f 90//90 106//106 91//91
f 90//90 92//92 106//106
f 106//106 107//107 93//93
f 91//91 106//106 93//93
f 92//92 94//94 107//107
f 106//106 92//92 107//107
f 93//93 107//107 96//96
f 96//96 107//107 94//94
f 108//108 99//99 98//98
f 108//108 98//98 109//109
f 109//109 98//98 100//100
f 110//110 109//109 100//100
f 99//99 108//108 111//111
f 101//101 99//99 111//111
f 110//110 100//100 101//101
f 111//111 110//110 101//101
f 102//102 112//112 103//103
f 102//102 104//104 112//112
f 103//103 112//112 105//105
f 104//104 105//105 112//112
f 113//113 114//114 115//115
f 116//116 114//114 113//113
f 113//113 115//115 117//117
f 113//113 117//117 116//116
f 109//109 118//118 108//108
f 109//109 110//110 118//118
f 108//108 118//118 111//111
f 110//110 111//111 118//118
f 119//119 120//120 121//121
f 120//120 119//119 122//122
f 119//119 121//121 123//123
f 122//122 119//119 123//123
f 124//124 125//125 126//126
f 125//125 124//124 127//127
f 128//128 124//124 126//126
f 129//129 128//128 126//126
f 130//130 127//127 124//124
f 128//128 130//130 124//124
f 131//131 128//128 129//129
f 130//130 128//128 131//131
f 114//114 132//132 115//115
f 114//114 116//116 132//132
f 115//115 132//132 117//117
f 116//116 117//117 132//132
f 120//120 133//133 121//121
f 120//120 122//122 133//133
f 121//121 133//133 123//123
f 122//122 123//123 133//133
f 125//125 134//134 126//126
f 127//127 134//134 125//125
f 134//134 135//135 136//136
f 134//134 136//136 126//126
f 126//126 136//136 129//129
f 127//127 135//135 134//134
f 127//127 130//130 135//135
f 129//129 136//136 137//137
f 129//129 137//137 131//131
f 135//135 130//130 131//131
f 137//137 135//135 131//131
f 138//138 139//139 140//140
f 139//139 138//138 141//141
f 138//138 140//140 142//142
f 141//141 138//138 142//142
f 136//136 135//135 137//137
f 139//139 143//143 140//140
f 139//139 141//141 143//143
f 140//140 143//143 142//142
f 141//141 142//142 143//143
f 144//144 145//145 146//146
f 145//145 144//144 147//147
f 144//144 146//146 148//148
f 147//147 144//144 148//148
f 149//149 150//150 151//151
f 150//150 149//149 152//152
f 149//149 151//151 153//153
f 152//152 149//149 153//153
f 145//145 154//154 155//155
f 146//146 145//145 155//155
f 154//154 145//145 147//147
f 156//156 154//154 147//147
f 146//146 155//155 157//157
f 148//148 146//146 157//157
f 156//156 147//147 148//148
f 156//156 148//148 157//157
f 150//150 158//158 151//151
f 150//150 152//152 158//158
f 151//151 158//158 153//153
f 152//152 153//153 158//158
f 154//154 159//159 160//160
f 155//155 154//154 160//160
f 159//159 154//154 156//156
f 161//161 159//159 156//156
f 155//155 160//160 162//162
f 157//157 155//155 162//162
f 157//157 161//161 156//156
f 157//157 162//162 161//161
f 163//163 164//164 165//165
f 164//164 163//163 166//166
f 163//163 165//165 167//167
f 166//166 163//163 167//167
f 168//168 169//169 170//170
f 169//169 168//168 171//171
f 168//168 170//170 172//172
f 171//171 168//168 172//172
f 159//159 173//173 174//174
f 160//160 159//159 174//174
f 173//173 159//159 161//161
f 175//175 173//173 161//161
f 160//160 174//174 176//176
f 162//162 160//160 176//176
f 162//162 175//175 161//161
f 162//162 176//176 175//175
f 164//164 177//177 165//165
f 164//164 166//166 177//177
f 165//165 177//177 167//167
f 166//166 167//167 177//177
f 178//178 179//179 180//180
f 179//179 178//178 181//181
f 178//178 180//180 182//182
f 181//181 178//178 182//182
f 169//169 183//183 184//184
f 170//170 169//169 184//184
f 183//183 169//169 171//171
f 185//185 183//183 171//171
f 170//170 184//184 186//186
f 172//172 170//170 186//186
f 185//185 171//171 172//172
f 186//186 185//185 172//172
f 187//187 188//188 189//189
f 188//188 187//187 190//190
f 187//187 189//189 191//191
f 190//190 187//187 191//191
f 173//173 192//192 174//174
f 173//173 175//175 192//192
f 174//174 192//192 176//176
f 176//176 192//192 175//175
f 179//179 193//193 194//194
f 180//180 179//179 194//194
f 193//193 179//179 181//181
f 195//195 193//193 181//181
f 180//180 194//194 196//196
f 182//182 180//180 196//196
f 195//195 181//181 182//182
f 196//196 195//195 182//182
f 197//197 183//183 185//185
f 198//198 197//197 185//185
f 184//184 183//183 199//199
f 186//186 184//184 199//199
f 198//198 185//185 186//186
f 198//198 186//186 199//199
f 200//200 201//201 202//202
f 202//202 201//201 203//203
f 201//201 200//200 204//204
f 205//205 189//189 188//188
f 205//205 188//188 206//206
f 203//203 201//201 204//204
f 206//206 188//188 190//190
f 207//207 206//206 190//190
f 189//189 205//205 208//208
f 191//191 189//189 208//208
f 207//207 190//190 191//191
f 208//208 207//207 191//191
f 209//209 210//210 211//211
f 210//210 209//209 212//212
f 209//209 211//211 213//213
f 212//212 209//209 213//213
f 193//193 214//214 194//194
f 193//193 195//195 214//214
f 194//194 214//214 196//196
f 195//195 196//196 214//214
f 183//183 197//197 199//199
f 202//202 215//215 216//216
f 202//202 216//216 200//200
f 199//199 197//197 198//198
f 215//215 202//202 203//203
f 217//217 215//215 203//203
f 200//200 216//216 218//218
f 204//204 200//200 218//218
f 204//204 218//218 217//217
f 204//204 217//217 203//203
f 206//206 219//219 205//205
f 206//206 207//207 219//219
f 205//205 219//219 208//208
f 207//207 208//208 219//219
f 210//210 220//220 211//211
f 210//210 212//212 220//220
f 211//211 220//220 213//213
f 212//212 213//213 220//220
f 221//221 222//222 223//223
f 222//222 221//221 224//224
f 221//221 223//223 225//225
f 224//224 221//221 225//225
f 226//226 227//227 228//228
f 227//227 226//226 229//229
f 226//226 228//228 230//230
f 231//231 232//232 233//233
f 229//229 226//226 230//230
f 231//231 233//233 234//234
f 233//233 232//232 235//235
f 234//234 233//233 235//235
f 215//215 236//236 216//216
f 215//215 217//217 236//236
f 216//216 236//236 218//218
f 217//217 218//218 236//236
f 237//237 238//238 239//239
f 238//238 237//237 240//240
f 237//237 239//239 241//241
f 237//237 241//241 240//240
f 222//222 242//242 243//243
f 223//223 222//222 243//243
f 242//242 222//222 224//224
f 244//244 242//242 224//224
f 223//223 243//243 245//245
f 225//225 223//223 245//245
f 244//244 224//224 225//225
f 245//245 244//244 225//225
f 227//227 246//246 228//228
f 227//227 229//229 246//246
f 228//228 246//246 230//230
f 231//231 247//247 248//248
f 231//231 248//248 232//232
f 230//230 246//246 229//229
f 247//247 231//231 234//234
f 249//249 247//247 234//234
f 232//232 248//248 250//250
f 235//235 232//232 250//250
f 249//249 234//234 235//235
f 249//249 235//235 250//250
f 251//251 252//252 253//253
f 252//252 251//251 254//254
f 255//255 256//256 257//257
f 253//253 252//252 254//254
f 255//255 257//257 258//258
f 257//257 256//256 259//259
f 258//258 257//257 259//259
f 260//260 261//261 262//262
f 261//261 260//260 263//263
f 260//260 262//262 264//264
f 263//263 260//260 264//264
f 265//265 266//266 267//267
f 238//238 268//268 239//239
f 266//266 265//265 269//269
f 238//238 240//240 268//268
f 269//269 267//267 266//266
f 270//270 271//271 272//272
f 239//239 268//268 241//241
f 240//240 241//241 268//268
f 273//273 274//274 275//275
f 273//273 275//275 276//276
f 275//275 274//274 277//277
f 276//276 275//275 277//277
f 242//242 278//278 243//243
f 242//242 244//244 278//278
f 243//243 278//278 245//245
f 244//244 245//245 278//278
f 247//247 279//279 248//248
f 247//247 249//249 279//279
f 248//248 279//279 250//250
f 249//249 250//250 279//279
f 251//251 253//253 280//280
f 251//251 280//280 254//254
f 255//255 281//281 282//282
f 255//255 282//282 256//256
f 254//254 280//280 253//253
f 281//281 255//255 258//258
f 283//283 281//281 258//258
f 256//256 282//282 284//284
f 259//259 256//256 284//284
f 283//283 258//258 259//259
f 283//283 259//259 284//284
f 285//285 286//286 287//287
f 287//287 286//286 288//288
f 286//286 285//285 289//289
f 290//290 291//291 292//292
f 288//288 286//286 289//289
f 290//290 292//292 293//293
f 292//292 291//291 294//294
f 295//295 262//262 261//261
f 295//295 261//261 296//296
f 293//293 292//292 294//294
f 296//296 261//261 263//263
f 297//297 296//296 263//263
f 262//262 295//295 298//298
f 264//264 262//262 298//298
f 299//299 300//300 265//265
f 264//264 297//297 263//263
f 264//264 298//298 297//297
f 299//299 265//265 267//267
f 301//301 299//299 267//267
f 265//265 300//300 302//302
f 269//269 265//265 302//302
f 271//271 303//303 272//272
f 303//303 304//304 272//272
f 269//269 301//301 267//267
f 269//269 302//302 301//301
f 303//303 271//271 270//270
f 272//272 304//304 305//305
f 270//270 272//272 305//305
f 273//273 306//306 274//274
f 273//273 276//276 306//306
f 274//274 306//306 277//277
f 277//277 306//306 276//276
f 307//307 308//308 309//309
f 308//308 307//307 310//310
f 307//307 309//309 311//311
f 310//310 307//307 311//311
f 281//281 312//312 282//282
f 281//281 283//283 312//312
f 282//282 312//312 284//284
f 283//283 284//284 312//312
f 287//287 313//313 285//285
f 287//287 288//288 313//313
f 285//285 313//313 289//289
f 288//288 289//289 313//313
f 290//290 314//314 291//291
f 290//290 293//293 314//314
f 291//291 314//314 294//294
f 293//293 294//294 314//314
f 296//296 315//315 295//295
f 297//297 315//315 296//296
f 316//316 317//317 318//318
f 317//317 316//316 319//319
f 295//295 315//315 298//298
f 298//298 315//315 297//297
f 299//299 320//320 300//300
f 318//318 321//321 316//316
f 316//316 321//321 319//319
f 299//299 301//301 320//320
f 300//300 320//320 302//302
f 301//301 302//302 320//320
f 303//303 322//322 304//304
f 303//303 270//270 322//322
f 304//304 322//322 305//305
f 305//305 322//322 270//270
f 308//308 323//323 324//324
f 309//309 308//308 324//324
f 323//323 308//308 310//310
f 325//325 323//323 310//310
f 309//309 324//324 326//326
f 311//311 309//309 326//326
f 325//325 310//310 311//311
f 326//326 325//325 311//311
f 327//327 328//328 329//329
f 328//328 327//327 330//330
f 327//327 329//329 330//330
f 331//331 332//332 333//333
f 332//332 331//331 334//334
f 331//331 333//333 335//335
f 336//336 318//318 317//317
f 336//336 317//317 337//337
f 334//334 331//331 335//335
f 337//337 317//317 319//319
f 338//338 337//337 319//319
f 318//318 336//336 339//339
f 321//321 318//318 339//339
f 338//338 319//319 321//321
f 338//338 321//321 339//339
f 340//340 341//341 342//342
f 342//342 341//341 343//343
f 341//341 340//340 344//344
f 345//345 346//346 347//347
f 343//343 341//341 344//344
f 345//345 347//347 348//348
f 347//347 346//346 348//348
f 323//323 349//349 324//324
f 323//323 325//325 349//349
f 324//324 349//349 326//326
f 325//325 326//326 349//349
f 328//328 350//350 351//351
f 329//329 328//328 351//351
f 350//350 328//328 330//330
f 352//352 350//350 330//330
f 329//329 351//351 352//352
f 330//330 329//329 352//352
f 332//332 353//353 333//333
f 334//334 353//353 332//332
f 354//354 355//355 356//356
f 355//355 354//354 357//357
f 333//333 353//353 335//335
f 335//335 353//353 334//334
f 337//337 358//358 336//336
f 356//356 359//359 354//354
f 337//337 338//338 358//358
f 359//359 357//357 354//354
f 360//360 361//361 362//362
f 361//361 360//360 363//363
f 336//336 358//358 339//339
f 339//339 358//358 338//338
f 342//342 364//364 340//340
f 362//362 365//365 360//360
f 342//342 343//343 364//364
f 365//365 363//363 360//360
f 366//366 367//367 368//368
f 367//367 366//366 369//369
f 340//340 364//364 344//344
f 344//344 364//364 343//343
f 345//345 370//370 346//346
f 368//368 371//371 366//366
f 345//345 348//348 370//370
f 371//371 369//369 366//366
f 346//346 370//370 348//348
f 372//372 373//373 374//374
f 373//373 372//372 375//375
f 372//372 374//374 376//376
f 375//375 372//372 376//376
f 350//350 352//352 351//351
f 355//355 377//377 378//378
f 356//356 355//355 378//378
f 377//377 355//355 357//357
f 379//379 377//377 357//357
f 356//356 378//378 380//380
f 359//359 356//356 380//380
f 361//361 381//381 362//362
f 381//381 382//382 362//362
f 359//359 379//379 357//357
f 359//359 380//380 379//379
f 381//381 361//361 363//363
f 383//383 381//381 363//363
f 362//362 382//382 384//384
f 365//365 362//362 384//384
f 367//367 385//385 368//368
f 385//385 386//386 368//368
f 365//365 383//383 363//363
f 365//365 384//384 383//383
f 385//385 367//367 369//369
f 387//387 385//385 369//369
f 368//368 386//386 388//388
f 371//371 368//368 388//388
f 371//371 387//387 369//369
f 371//371 388//388 387//387
f 373//373 389//389 374//374
f 373//373 375//375 389//389
f 374//374 389//389 376//376
f 375//375 376//376 389//389
f 390//390 391//391 392//392
f 390//390 392//392 393//393
f 392//392 391//391 394//394
f 393//393 392//392 394//394
f 377//377 395//395 378//378
f 377//377 379//379 395//395
f 378//378 395//395 380//380
f 379//379 380//380 395//395
f 381//381 396//396 382//382
f 381//381 383//383 396//396
f 382//382 396//396 384//384
f 383//383 384//384 396//396
f 385//385 397//397 386//386
f 385//385 387//387 397//397
f 386//386 397//397 388//388
f 388//388 397//397 387//387
f 398//398 399//399 400//400
f 398//398 400//400 401//401
f 400//400 399//399 402//402
f 401//401 400//400 402//402
f 390//390 403//403 391//391
f 390//390 393//393 403//403
f 391//391 403//403 394//394
f 393//393 394//394 403//403
f 404//404 405//405 406//406
f 405//405 404//404 407//407
f 398//398 408//408 399//399
f 406//406 409//409 404//404
f 404//404 409//409 407//407
f 398//398 401//401 408//408
f 399//399 408//408 402//402
f 401//401 402//402 408//408
f 410//410 411//411 412//412
f 411//411 410//410 413//413
f 410//410 412//412 414//414
f 410//410 414//414 413//413
f 405//405 415//415 406//406
f 405//405 407//407 415//415
f 406//406 415//415 409//409
f 407//407 409//409 415//415
f 416//416 417//417 418//418
f 416//416 418//418 419//419
f 418//418 417//417 420//420
f 419//419 418//418 420//420
f 411//411 421//421 412//412
f 411//411 413//413 421//421
f 412//412 421//421 414//414
f 413//413 414//414 421//421
f 422//422 423//423 424//424
f 423//423 422//422 425//425
f 422//422 424//424 426//426
f 425//425 422//422 426//426
f 427//427 428//428 429//429
f 428//428 427//427 430//430
f 427//427 429//429 431//431
f 430//430 427//427 431//431
f 432//432 433//433 434//434
f 433//433 432//432 435//435
f 432//432 434//434 436//436
f 437//437 438//438 439//439
f 435//435 432//432 436//436
f 437//437 439//439 440//440
f 439//439 438//438 441//441
f 442//442 443//443 444//444
f 440//440 439//439 441//441
f 442//442 444//444 445//445
f 444//444 443//443 446//446
f 447//447 448//448 449//449
f 445//445 444//444 446//446
f 447//447 449//449 450//450
f 416//416 451//451 417//417
f 449//449 448//448 452//452
f 449//449 452//452 450//450
f 416//416 419//419 451//451
f 417//417 451//451 420//420
f 419//419 420//420 451//451
f 453//453 454//454 455//455
f 453//453 455//455 456//456
f 455//455 454//454 457//457
f 456//456 455//455 457//457
f 423//423 458//458 424//424
f 423//423 425//425 458//458
f 424//424 458//458 426//426
f 425//425 426//426 458//458
f 459//459 460//460 461//461
f 460//460 459//459 462//462
f 459//459 461//461 463//463
f 462//462 459//459 463//463
f 428//428 464//464 429//429
f 428//428 430//430 464//464
f 429//429 464//464 431//431
f 430//430 431//431 464//464
f 465//465 466//466 467//467
f 466//466 465//465 468//468
f 469//469 465//465 467//467
f 470//470 469//469 467//467
f 471//471 468//468 465//465
f 469//469 471//471 465//465
f 469//469 470//470 472//472
f 471//471 469//469 472//472
f 433//433 473//473 434//434
f 433//433 435//435 473//473
f 434//434 473//473 436//436
f 435//435 436//436 473//473
f 437//437 474//474 438//438
f 440//440 474//474 437//437
f 475//475 476//476 477//477
f 476//476 475//475 478//478
f 438//438 474//474 441//441
f 441//441 474//474 440//440
f 442//442 479//479 443//443
f 477//477 480//480 475//475
f 442//442 445//445 479//479
f 480//480 478//478 475//475
f 481//481 482//482 483//483
f 482//482 481//481 484//484
f 443//443 479//479 446//446
f 446//446 479//479 445//445
f 447//447 481//481 448//448
f 448//448 481//481 483//483
f 448//448 483//483 485//485
f 481//481 447//447 450//450
f 481//481 450//450 484//484
f 484//484 450//450 486//486
f 448//448 485//485 487//487
f 452//452 448//448 487//487
f 486//486 450//450 452//452
f 486//486 452//452 487//487
f 488//488 489//489 490//490
f 490//490 489//489 491//491
f 453//453 492//492 454//454
f 489//489 488//488 493//493
f 453//453 456//456 492//492
f 493//493 491//491 489//489
f 454//454 492//492 457//457
f 457//457 492//492 456//456
f 460//460 494//494 461//461
f 494//494 460//460 462//462
f 461//461 494//494 463//463
f 462//462 463//463 494//494
f 466//466 495//495 467//467
f 466//466 468//468 495//495
f 495//495 496//496 470//470
f 467//467 495//495 470//470
f 468//468 471//471 496//496
f 495//495 468//468 496//496
f 470//470 496//496 472//472
f 471//471 472//472 496//496
f 476//476 497//497 477//477
f 476//476 478//478 497//497
f 477//477 497//497 480//480
f 478//478 480//480 497//497
f 482//482 487//487 483//483
f 482//482 484//484 487//487
f 483//483 487//487 485//485
f 487//487 484//484 486//486
f 498//498 499//499 500//500
f 499//499 498//498 501//501
f 490//490 502//502 488//488
f 500//500 503//503 498//498
f 490//490 491//491 502//502
f 503//503 501//501 498//498
f 488//488 502//502 493//493
f 493//493 502//502 491//491
f 499//499 504//504 500//500
f 499//499 501//501 504//504
f 500//500 504//504 503//503
f 501//501 503//503 504//504
f 505//505 506//506 507//507
f 506//506 505//505 508//508
f 505//505 507//507 509//509
f 508//508 505//505 509//509
f 510//510 511//511 512//512
f 511//511 510//510 513//513
f 510//510 512//512 514//514
f 513//513 510//510 514//514
f 515//515 516//516 517//517
f 516//516 515//515 518//518
f 515//515 517//517 519//519
f 518//518 515//515 519//519
f 506//506 520//520 507//507
f 506//506 508//508 520//520
f 507//507 520//520 509//509
f 508//508 509//509 520//520
f 511//511 521//521 512//512
f 511//511 513//513 521//521
f 512//512 521//521 514//514
f 513//513 514//514 521//521
f 516//516 522//522 517//517
f 516//516 518//518 522//522
f 517//517 522//522 519//519
f 518//518 519//519 522//522
f 523//523 524//524 525//525
f 524//524 523//523 526//526
f 523//523 525//525 527//527
f 526//526 523//523 527//527
f 524//524 528//528 525//525
f 524//524 526//526 528//528
f 525//525 528//528 527//527
f 526//526 527//527 528//528
f 529//529 530//530 531//531
f 530//530 529//529 532//532
f 529//529 531//531 533//533
f 532//532 529//529 533//533
f 530//530 534//534 531//531
f 530//530 532//532 534//534
f 531//531 534//534 533//533
f 532//532 533//533 534//534
