# Generated by Visualization Toolkit
v -127.84827423095703 -112.9291000366211 465.1886901855469
v -127.22733306884766 -112.41368865966797 466.2525634765625
v -126.0531005859375 -113.31851196289062 465.89453125
v -126.20684051513672 -114.38152313232422 465.208984375
v -128.59117126464844 -114.39486694335938 464.7052307128906
v -129.44935607910156 -113.739501953125 465.7909240722656
v -125.79342651367188 -115.51439666748047 467.1412658691406
v -126.4930191040039 -115.82182312011719 465.5833740234375
v -127.5888900756836 -115.9281234741211 465.0581359863281
v -129.15447998046875 -116.02771759033203 465.30047607421875
v -130.42015075683594 -116.0970230102539 466.4416198730469
v -126.51398468017578 -112.38737487792969 468.6874084472656
v -129.74029541015625 -112.41082763671875 471.6443786621094
v -125.42500305175781 -114.34210205078125 468.3011779785156
v -131.24729919433594 -115.73785400390625 467.99371337890625
v -131.1814422607422 -114.86212921142578 469.2176208496094
v -127.93846130371094 -117.95865631103516 467.5389404296875
v -130.2528533935547 -118.24262237548828 467.5535583496094
v -132.4582061767578 -117.4173583984375 469.5868225097656
v -125.71694946289062 -113.15483856201172 469.4986572265625
v -125.5931167602539 -115.70948791503906 471.45635986328125
v -126.5049819946289 -117.41215515136719 470.54937744140625
v -132.2989959716797 -117.11734771728516 470.1091003417969
v -129.62591552734375 -119.5683364868164 470.23095703125
v -130.9234161376953 -119.10767364501953 469.6003112792969
v -126.7677993774414 -112.53711700439453 475.5570373535156
v -128.31256103515625 -111.90204620361328 475.2103271484375
v -125.7227554321289 -114.5865707397461 474.58349609375
v -131.63265991210938 -113.18997955322266 474.9197998046875
v -132.33059692382812 -115.94139099121094 472.61651611328125
v -128.92703247070312 -119.15035247802734 473.2550354003906
v -131.08848571777344 -119.41753387451172 472.5632629394531
v -126.13871765136719 -113.41427612304688 475.6810607910156
v -130.10935974121094 -112.14258575439453 475.1636047363281
v -132.5630645751953 -114.25450897216797 475.7382507324219
v -126.4338607788086 -116.4481430053711 474.294189453125
v -132.8169708251953 -116.14997100830078 474.8600769042969
v -132.32679748535156 -117.46399688720703 474.5250244140625
v -130.0607147216797 -119.41556549072266 475.20501708984375
v -128.8627471923828 -118.05489349365234 475.7726745605469
v -131.30433654785156 -118.65019989013672 476.4807434082031
v -127.20152282714844 -114.2763900756836 477.84539794921875
v -128.38185119628906 -113.4024887084961 478.7999267578125
v -130.0819854736328 -113.07542419433594 478.45635986328125
v -131.3219757080078 -113.53169250488281 478.2684020996094
v -127.84326934814453 -115.94438934326172 478.0960693359375
v -132.52960205078125 -116.04389953613281 478.0652160644531
v -129.62857055664062 -116.84484100341797 478.8470764160156
v -130.9221649169922 -117.37518310546875 478.68695068359375
v -128.14480590820312 -114.52796936035156 480.7924499511719
v -129.55880737304688 -114.10360717773438 481.4222106933594
v -131.99203491210938 -114.98218536376953 480.3568115234375
v -129.54408264160156 -115.51992797851562 482.5866394042969
v -132.74436950683594 -115.88201141357422 480.5614318847656
v -130.84109497070312 -114.89781188964844 482.4452819824219
vn -0.08709025382995605 0.7218576073646545 -0.6865398287773132
vn 0.1073700562119484 0.9665358066558838 -0.23298124969005585
vn 0.7441385984420776 0.5566394329071045 -0.3693378269672394
vn 0.6798099279403687 -0.007406302727758884 -0.733350932598114
vn -0.31221333146095276 0.07567265629768372 -0.9469934105873108
vn -0.7335391044616699 0.5038805603981018 -0.456097275018692
vn 0.9197860360145569 -0.3440588712692261 -0.1887253373861313
vn 0.673398494720459 -0.5703262090682983 -0.47038549184799194
vn 0.1583349108695984 -0.5232634544372559 -0.8373323678970337
vn -0.3936580717563629 -0.38802570104599 -0.833348274230957
vn -0.7793956995010376 0.06376209110021591 -0.6232790350914001
vn 0.5116536021232605 0.8577154874801636 -0.0503467358648777
vn -0.4779536724090576 0.862470805644989 -0.16644665598869324
vn 0.9949496388435364 0.036360032856464386 -0.09355839341878891
vn -0.8291510939598083 0.458003968000412 -0.3205321729183197
vn -0.8305534720420837 0.4876449406147003 -0.26904165744781494
vn 0.38433098793029785 -0.8220763206481934 -0.4200955033302307
vn -0.30287182331085205 -0.7220768928527832 -0.6219916939735413
vn -0.9355955123901367 -0.21374957263469696 -0.28102007508277893
vn 0.8775950074195862 0.4793277978897095 0.00848274677991867
vn 0.9439510107040405 -0.3270578384399414 0.044606126844882965
vn 0.7353050112724304 -0.6759134531021118 -0.04967460408806801
vn -0.9982113242149353 -0.05771312117576599 -0.015596885234117508
vn 0.17027506232261658 -0.9718679785728455 -0.16272391378879547
vn -0.571114182472229 -0.810154139995575 -0.13220784068107605
vn 0.6222029328346252 0.7329344153404236 0.2750830352306366
vn 0.06499270349740982 0.9896813631057739 0.1276981234550476
vn 0.9677977561950684 -0.09791946411132812 0.2319035679101944
vn -0.6838111281394958 0.7266857624053955 -0.06580384075641632
vn -0.977716326713562 0.11935780942440033 -0.1726977527141571
vn 0.5890406370162964 -0.7920322418212891 0.16036221385002136
vn -0.5860517621040344 -0.8102698922157288 -0.002471818821504712
vn 0.8867843151092529 0.3549884259700775 0.29596763849258423
vn -0.3644702434539795 0.9264518618583679 0.09406623244285583
vn -0.9178904294967651 0.39668717980384827 -0.010793691501021385
vn 0.7823300957679749 -0.5722364783287048 0.2459777444601059
vn -0.993931233882904 -0.09124821424484253 -0.06143733859062195
vn -0.9227883815765381 -0.38526567816734314 0.0056625897996127605
vn 0.18803098797798157 -0.9394569396972656 0.28647005558013916
vn 0.5603898167610168 -0.734229326248169 0.38323697447776794
vn -0.5918737053871155 -0.7660163044929504 0.2508079409599304
vn 0.8778918385505676 0.18357619643211365 0.44227340817451477
vn 0.4159604012966156 0.8193560242652893 0.39450308680534363
vn -0.134112149477005 0.9363900423049927 0.3243265151977539
vn -0.5360627174377441 0.805968165397644 0.25110164284706116
vn 0.7599229216575623 -0.542325496673584 0.35832980275154114
vn -0.995998740196228 -0.06784931570291519 0.058163926005363464
vn 0.42806243896484375 -0.8298117518424988 0.35801535844802856
vn 0.13301102817058563 -0.8684942126274109 0.477520614862442
vn 0.8185595273971558 0.30035093426704407 0.4896424412727356
vn 0.10283159464597702 0.8513891696929932 0.5143560767173767
vn -0.7911186814308167 0.582915186882019 0.18531332910060883
vn 0.376791775226593 -0.5312983989715576 0.7587819695472717
vn -0.7957000732421875 -0.36843520402908325 0.48074620962142944
vn -0.4630602300167084 0.6058010458946228 0.6469779014587402
f 1//1 2//2 3//3
f 4//4 1//1 3//3
f 5//5 1//1 4//4
f 6//6 1//1 5//5
f 7//7 8//8 4//4
f 5//5 4//4 9//9
f 9//9 4//4 8//8
f 10//10 5//5 9//9
f 11//11 6//6 5//5
f 10//10 11//11 5//5
f 2//2 12//12 3//3
f 13//13 2//2 1//1
f 3//3 14//14 4//4
f 1//1 6//6 13//13
f 4//4 14//14 7//7
f 15//15 16//16 11//11
f 16//16 6//6 11//11
f 17//17 9//9 8//8
f 9//9 18//18 10//10
f 17//17 18//18 9//9
f 10//10 18//18 11//11
f 19//19 15//15 11//11
f 18//18 19//19 11//11
f 3//3 12//12 20//20
f 3//3 20//20 14//14
f 13//13 6//6 16//16
f 14//14 21//21 7//7
f 7//7 21//21 22//22
f 8//8 7//7 22//22
f 22//22 17//17 8//8
f 23//23 15//15 19//19
f 24//24 18//18 17//17
f 24//24 25//25 18//18
f 19//19 18//18 25//25
f 12//12 26//26 20//20
f 2//2 27//27 12//12
f 12//12 27//27 26//26
f 2//2 13//13 27//27
f 20//20 28//28 14//14
f 13//13 16//16 29//29
f 14//14 28//28 21//21
f 16//16 15//15 23//23
f 16//16 23//23 30//30
f 22//22 24//24 17//17
f 31//31 24//24 22//22
f 19//19 25//25 23//23
f 25//25 32//32 23//23
f 25//25 24//24 32//32
f 20//20 26//26 33//33
f 13//13 34//34 27//27
f 20//20 33//33 28//28
f 29//29 16//16 35//35
f 35//35 16//16 30//30
f 21//21 28//28 36//36
f 22//22 21//21 36//36
f 37//37 30//30 38//38
f 30//30 23//23 38//38
f 22//22 36//36 31//31
f 23//23 32//32 38//38
f 24//24 31//31 39//39
f 24//24 39//39 32//32
f 34//34 13//13 29//29
f 35//35 30//30 37//37
f 31//31 36//36 40//40
f 39//39 31//31 40//40
f 38//38 32//32 41//41
f 39//39 41//41 32//32
f 42//42 26//26 43//43
f 42//42 33//33 26//26
f 27//27 43//43 26//26
f 44//44 43//43 27//27
f 34//34 44//44 27//27
f 45//45 44//44 34//34
f 29//29 35//35 45//45
f 29//29 45//45 34//34
f 28//28 46//46 36//36
f 28//28 42//42 46//46
f 28//28 33//33 42//42
f 35//35 37//37 47//47
f 36//36 46//46 40//40
f 48//48 40//40 46//46
f 37//37 38//38 47//47
f 38//38 41//41 47//47
f 39//39 49//49 41//41
f 40//40 49//49 39//39
f 40//40 48//48 49//49
f 42//42 43//43 50//50
f 44//44 51//51 43//43
f 43//43 51//51 50//50
f 44//44 45//45 51//51
f 52//52 45//45 35//35
f 46//46 42//42 50//50
f 53//53 46//46 50//50
f 54//54 52//52 47//47
f 52//52 35//35 47//47
f 46//46 53//53 48//48
f 54//54 41//41 49//49
f 54//54 47//47 41//41
f 53//53 50//50 51//51
f 45//45 55//55 51//51
f 55//55 45//45 52//52
f 54//54 55//55 52//52
f 49//49 48//48 53//53
f 55//55 54//54 53//53
f 53//53 54//54 49//49
f 53//53 51//51 55//55
