# Generated by Visualization Toolkit
v 2.925811767578125 -81.19178771972656 118.45341491699219
v 2.925811767578125 -81.1917724609375 118.45343017578125
v 2.9258270263671875 -81.19178771972656 118.45343017578125
v 2.925811767578125 -81.19178771972656 118.45343017578125
v 2.925811767578125 -81.19178771972656 118.45341491699219
v -2.382293701171875 -70.04039001464844 127.37489318847656
v -2.154144287109375 -71.64749145507812 126.83255004882812
v -4.5335235595703125 -71.51815795898438 126.76268005371094
v -0.5653076171875 -69.8558349609375 129.5782012939453
v 0.511199951171875 -70.80001831054688 128.41067504882812
v -4.7133941650390625 -69.03895568847656 128.5988006591797
v -7.17529296875 -73.89138793945312 128.39389038085938
v -7.0595245361328125 -72.79925537109375 128.97926330566406
v -3.132232666015625 -72.74948120117188 127.65513610839844
v -10.6270751953125 -76.67414855957031 128.4925994873047
v -10.6270751953125 -76.67414855957031 128.4925994873047
v -10.6270751953125 -76.67414855957031 128.4925994873047
v -10.6270751953125 -76.67414855957031 128.4925994873047
v -10.6270751953125 -76.67414855957031 128.4925994873047
v -1.833465576171875 -67.79379272460938 129.85479736328125
v 0.9876861572265625 -68.37852478027344 131.1502227783203
v 2.4782257080078125 -69.62696838378906 132.85516357421875
v -1.5579376220703125 -71.45431518554688 129.8563995361328
v -4.6733551025390625 -73.11360168457031 134.43316650390625
v -8.981353759765625 -71.27583312988281 131.40322875976562
v -6.3099212646484375 -73.20991516113281 130.7605438232422
v -8.540420532226562 -72.53477478027344 131.63600158691406
v -10.6270751953125 -76.67414855957031 128.49261474609375
v -5.07513427734375 -64.91067504882812 134.0293731689453
v -8.600006103515625 -67.49163818359375 133.12229919433594
v 1.2247772216796875 -66.72880554199219 132.03482055664062
v 6.693511962890625 -68.9315185546875 133.28421020507812
v 5.843597412109375 -70.07537841796875 132.94970703125
v 0.0307159423828125 -70.15292358398438 132.88577270507812
v -10.475021362304688 -70.08607482910156 133.26063537597656
v 6.6707763671875 -71.44439697265625 134.0323028564453
v -8.344451904296875 -73.43162536621094 133.75836181640625
v -1.1370697021484375 -63.99184799194336 135.0557861328125
v -4.20159912109375 -62.0238151550293 138.26100158691406
v 3.4680328369140625 -65.56759643554688 134.7342071533203
v -10.978973388671875 -68.92095947265625 135.17617797851562
v 7.958526611328125 -72.61575317382812 134.35836791992188
v -1.6845245361328125 -70.28340148925781 135.41647338867188
v -11.495559692382812 -72.27392578125 135.38226318359375
v -11.273956298828125 -73.81854248046875 134.12339782714844
v 6.5811920166015625 -66.70556640625 136.5377655029297
v 8.258270263671875 -68.3929443359375 137.39674377441406
v 8.22027587890625 -70.17083740234375 136.55685424804688
v 1.1611175537109375 -69.22511291503906 135.58544921875
v 6.76806640625 -70.2152099609375 137.13958740234375
v -5.4502105712890625 -72.29473876953125 135.8541259765625
v -10.388565063476562 -72.63584899902344 135.96774291992188
v 0.0355682373046875 -61.136600494384766 140.1715087890625
v -6.7870330810546875 -61.73270034790039 139.80487060546875
v 6.94061279296875 -64.747802734375 139.85516357421875
v -9.430770874023438 -64.31227111816406 139.59022521972656
v 9.069107055664062 -66.71076965332031 139.94032287597656
v 4.1634368896484375 -67.48426818847656 140.3836212158203
v -0.1644134521484375 -65.67378234863281 141.7379913330078
v -1.7715301513671875 -67.23245239257812 139.10606384277344
v 9.15203857421875 -70.06886291503906 138.80812072753906
v -10.875228881835938 -70.10633850097656 137.98085021972656
v -8.880569458007812 -70.05014038085938 138.97120666503906
v -1.762115478515625 -59.26547622680664 143.77879333496094
v -4.0840911865234375 -59.9981803894043 142.74745178222656
v -9.358917236328125 -63.107425689697266 143.57151794433594
v -10.793197631835938 -66.37376403808594 142.56617736816406
v 10.611770629882812 -70.51620483398438 139.55123901367188
v 11.643280029296875 -69.88038635253906 141.22628784179688
v 6.7571868896484375 -69.468994140625 139.35406494140625
v -10.425521850585938 -66.47169494628906 143.85557556152344
v -12.132965087890625 -70.650634765625 140.5396270751953
v -12.132965087890625 -70.650634765625 140.5396270751953
v -12.132965087890625 -70.650634765625 140.5396270751953
v -12.132965087890625 -70.650634765625 140.5396270751953
v 10.375442504882812 -71.1290283203125 142.82347106933594
v -12.132965087890625 -70.650634765625 140.5396270751953
v -7.902923583984375 -65.70698547363281 144.07862854003906
v 3.46319580078125 -65.51448059082031 144.84222412109375
v 12.190704345703125 -67.05728149414062 144.6590576171875
v 8.765213012695312 -70.11512756347656 145.44309997558594
v -12.132965087890625 -70.650634765625 140.5396270751953
v 12.788131713867188 -71.32588195800781 145.07505798339844
v -5.8315277099609375 -59.92531967163086 145.16696166992188
v 5.125152587890625 -59.33906936645508 147.11398315429688
v 9.879928588867188 -62.91667556762695 147.2809295654297
v -7.7272796630859375 -64.35064697265625 146.75112915039062
v -9.186859130859375 -63.53903579711914 147.3004150390625
v 13.599990844726562 -69.23648071289062 145.7958221435547
v 13.429168701171875 -71.28825378417969 144.6715545654297
v -1.06414794921875 -57.55097579956055 149.75820922851562
v 2.0710296630859375 -57.88788986206055 148.0904541015625
v -3.9440155029296875 -58.385440826416016 147.79808044433594
v -6.2893524169921875 -60.20749282836914 147.68272399902344
v 1.3443450927734375 -63.71598434448242 147.6417694091797
v 4.70751953125 -64.60017395019531 148.7879638671875
v -5.5304412841796875 -62.275577545166016 148.8607177734375
v -4.66644287109375 -59.77372360229492 149.46563720703125
v 12.051544189453125 -64.54129028320312 150.3535614013672
v 14.187789916992188 -67.30903625488281 153.83209228515625
v 9.660552978515625 -65.57225036621094 152.73739624023438
v 13.266082763671875 -67.90989685058594 151.75619506835938
v 0.8554534912109375 -56.631526947021484 152.69436645507812
v 3.8195648193359375 -57.237796783447266 152.63442993164062
v -0.1000213623046875 -56.96320724487305 153.3267059326172
v 6.664306640625 -59.07865524291992 151.8440399169922
v -0.2227783203125 -60.518314361572266 150.85244750976562
v -1.7514190673828125 -59.2213249206543 150.9937286376953
v 4.8209991455078125 -61.86891555786133 152.05307006835938
v 5.5900726318359375 -58.41660690307617 153.78143310546875
v 11.071670532226562 -63.44783401489258 154.2729949951172
v 12.75323486328125 -65.94792175292969 153.59088134765625
v 6.5823822021484375 -62.17313766479492 152.8974609375
v 3.1854095458984375 -57.09572982788086 154.4236297607422
v 7.5841217041015625 -60.55123519897461 153.5656280517578
v 11.542251586914062 -64.39480590820312 155.96932983398438
vn -0.6666666865348816 -0.3333333432674408 -0.6666667461395264
vn 0 -0 0
vn 0 -0 0
vn 0 -0 0
vn 0.6666666865348816 0.3333333432674408 0.6666667461395264
vn 0.22716496884822845 0.6044907569885254 -0.7635359168052673
vn 0.23054052889347076 -0.3044672906398773 -0.9242027401924133
vn -0.45758503675460815 0.2851769030094147 -0.842193603515625
vn 0.8865822553634644 -0.01877063699066639 -0.46219009160995483
vn 0.9218533039093018 -0.2744121551513672 -0.2736504077911377
vn -0.2598578929901123 0.680150032043457 -0.6854705810546875
vn -0.655906081199646 -0.6259270310401917 -0.421903520822525
vn -0.9056519269943237 -0.21314109861850739 -0.3665589690208435
vn 0.3960007131099701 -0.8957988023757935 -0.20181186497211456
vn 0 -0 0
vn 0 -0 0
vn 1 0 0
vn -1 -0 0
vn 0 -0 0
vn 0.23763909935951233 0.6646894216537476 -0.7083189487457275
vn 0.4368947446346283 0.05430290475487709 -0.8978720903396606
vn 0.1248779296875 -0.9094350934028625 -0.3966526687145233
vn 0.6510456204414368 -0.7311041951179504 0.20402511954307556
vn 0.21674707531929016 -0.934190034866333 0.2833896279335022
vn -0.7248288989067078 0.0473426878452301 -0.6873003840446472
vn -0.6051609516143799 -0.7915623784065247 0.08490786701440811
vn -0.4517805874347687 -0.7702854871749878 -0.45006072521209717
vn 0 -0 0
vn -0.19736260175704956 0.797739565372467 -0.5697891116142273
vn -0.597589910030365 0.567375659942627 -0.5665432810783386
vn 0.33092302083969116 0.6253894567489624 -0.706666886806488
vn 0.6213008165359497 0.28356534242630005 -0.730462908744812
vn 0.2263995260000229 -0.4821036756038666 -0.8463565707206726
vn 0.47534239292144775 -0.8749464750289917 0.09229438751935959
vn -0.822384774684906 0.23879633843898773 -0.5163909196853638
vn -0.19098863005638123 -0.8723970651626587 -0.4499408006668091
vn -0.03024444915354252 -0.9731937646865845 -0.22798936069011688
vn 0.09909794479608536 0.8271681666374207 -0.5531477928161621
vn -0.07582671195268631 0.8765795230865479 -0.4752459228038788
vn 0.3992369472980499 0.762451171875 -0.5091936588287354
vn -0.9255020022392273 0.3153075575828552 -0.20982660353183746
vn 0.3359299302101135 -0.917688250541687 -0.2121305912733078
vn 0.41369909048080444 -0.7719103097915649 0.48270857334136963
vn -0.9664000868797302 -0.18959426879882812 0.17356549203395844
vn -0.5639238357543945 -0.7867723703384399 -0.2509566843509674
vn 0.6356061100959778 0.6204303503036499 -0.45942482352256775
vn 0.8080273866653442 0.21472416818141937 -0.5486212372779846
vn 0.9331632852554321 -0.3408486247062683 -0.11414305865764618
vn -0.046046603471040726 -0.9282482862472534 0.36910003423690796
vn -0.2403789609670639 -0.895133912563324 0.3754374086856842
vn 0.2527274191379547 -0.7363776564598083 0.6275960206985474
vn -0.20403233170509338 -0.7470047473907471 0.6327358484268188
vn 0.17537590861320496 0.8692436814308167 -0.4622322618961334
vn -0.44342052936553955 0.8187946677207947 -0.3646279573440552
vn 0.5636040568351746 0.7010722756385803 -0.4368618130683899
vn -0.775202214717865 0.5791460275650024 -0.2522924244403839
vn 0.7107812166213989 0.5115944743156433 -0.4827641546726227
vn -0.43863481283187866 -0.8508021831512451 0.28937026858329773
vn -0.06265892088413239 -0.9071791172027588 0.41605281829833984
vn 0.23006722331047058 -0.7766720056533813 0.5863869190216064
vn 0.12595896422863007 -0.9541223049163818 -0.27163389325141907
vn -0.789635419845581 -0.4286329746246338 0.43903273344039917
vn 0.035336315631866455 -0.7554676532745361 0.6542324423789978
vn -0.08370090276002884 0.9379493594169617 -0.3365193009376526
vn -0.19570821523666382 0.9285647869110107 -0.3153819143772125
vn -0.8128959536552429 0.5823944807052612 -0.004115359857678413
vn -0.9807450771331787 0.18306468427181244 0.06801865994930267
vn 0.5932600498199463 -0.5043256282806396 -0.6274536848068237
vn 0.8379660844802856 -0.006390982307493687 -0.5456849336624146
vn -0.3886793553829193 -0.9080376029014587 0.156192347407341
vn -0.5666100382804871 -0.5822699069976807 0.5830221176147461
vn 0 -0 0
vn 0 -0 0
vn 0 -0 0
vn 0 -0 0
vn -0.2968769073486328 -0.9546346068382263 -0.023170391097664833
vn 0 -0 0
vn 0.19489192962646484 -0.8397783041000366 0.5067440867424011
vn -0.44247469305992126 -0.8343607783317566 0.3287222385406494
vn 0.7969499826431274 0.4948735237121582 -0.3463681936264038
vn -0.468127578496933 -0.8174699544906616 0.33555838465690613
vn 0 -0 0
vn 0.12499456107616425 -0.9913650751113892 0.039645083248615265
vn -0.461260586977005 0.8710215091705322 -0.16899748146533966
vn 0.44469690322875977 0.8236383199691772 -0.35194408893585205
vn 0.6596066355705261 0.6880564093589783 -0.3024854362010956
vn 0.024182923138141632 -0.8236414194107056 0.566595196723938
vn -0.7030682563781738 0.0008861949318088591 0.7111218571662903
vn 0.9257499575614929 0.27925407886505127 -0.2549593448638916
vn 0.5611245632171631 -0.8276579976081848 0.011025050655007362
vn -0.38247403502464294 0.9224348068237305 0.053177278488874435
vn 0.14508599042892456 0.9388531446456909 -0.3122578561306
vn -0.4451768398284912 0.8949154019355774 0.03072582371532917
vn -0.678730845451355 0.7108140587806702 0.1845746785402298
vn -0.17361722886562347 -0.8433464765548706 0.5085506439208984
vn -0.47093918919563293 -0.7359530329704285 0.486404687166214
vn -0.20758312940597534 -0.45955368876457214 0.86355060338974
vn -0.561552107334137 0.46523046493530273 0.6842659711837769
vn 0.7881954908370972 0.6111350655555725 -0.07253825664520264
vn 0.8729201555252075 -0.18062375485897064 0.4531947076320648
vn -0.43737465143203735 -0.6814962029457092 0.5867422223091125
vn -0.26782843470573425 -0.814957857131958 0.5139180421829224
vn -0.01965543068945408 0.999046266078949 -0.038990531116724014
vn 0.38751161098480225 0.9169263243675232 -0.09529352933168411
vn -0.6362245678901672 0.4105146527290344 0.6532197594642639
vn 0.631736159324646 0.7751715183258057 -0.0043061175383627415
vn -0.284824013710022 -0.5989966988563538 0.7483837604522705
vn -0.5768492817878723 0.0432678684592247 0.8157038688659668
vn -0.4276301860809326 -0.5695645213127136 0.7019463777542114
vn 0.5125768780708313 0.5585972666740417 0.6520997881889343
vn 0.719894528388977 0.6781467199325562 0.14788123965263367
vn 0.5279425978660583 -0.15244950354099274 0.8354853987693787
vn -0.3660274147987366 -0.3573760688304901 0.8592475056648254
vn -0.07142404466867447 0.26034533977508545 0.9628701210021973
vn 0.3369314670562744 0.5566329956054688 0.7593661546707153
vn 0.025852836668491364 -0.06577141582965851 0.9974997639656067
f 1//1 2//2 3//3
f 2//2 1//1 4//4
f 1//1 3//3 4//4
f 2//2 5//5 3//3
f 2//2 4//4 5//5
f 3//3 5//5 4//4
f 6//6 7//7 8//8
f 6//6 9//9 10//10
f 6//6 8//8 11//11
f 7//7 6//6 10//10
f 12//12 13//13 8//8
f 7//7 10//10 14//14
f 7//7 12//12 8//8
f 14//14 12//12 7//7
f 15//15 16//16 17//17
f 16//16 15//15 18//18
f 15//15 17//17 19//19
f 18//18 15//15 19//19
f 20//20 21//21 9//9
f 20//20 9//9 6//6
f 20//20 6//6 11//11
f 21//21 22//22 9//9
f 10//10 9//9 23//23
f 14//14 10//10 23//23
f 23//23 24//24 14//14
f 8//8 13//13 25//25
f 24//24 12//12 14//14
f 24//24 26//26 12//12
f 27//27 13//13 26//26
f 27//27 25//25 13//13
f 26//26 13//13 12//12
f 16//16 28//28 17//17
f 16//16 18//18 28//28
f 17//17 28//28 19//19
f 18//18 19//19 28//28
f 11//11 29//29 20//20
f 30//30 29//29 11//11
f 31//31 32//32 21//21
f 21//21 32//32 33//33
f 20//20 31//31 21//21
f 21//21 33//33 22//22
f 9//9 22//22 34//34
f 34//34 23//23 9//9
f 30//30 11//11 8//8
f 25//25 30//30 8//8
f 25//25 35//35 30//30
f 33//33 32//32 36//36
f 34//34 24//24 23//23
f 27//27 26//26 37//37
f 38//38 29//29 39//39
f 40//40 31//31 38//38
f 38//38 31//31 20//20
f 29//29 38//38 20//20
f 40//40 32//32 31//31
f 30//30 35//35 41//41
f 22//22 33//33 36//36
f 42//42 36//36 32//32
f 34//34 43//43 24//24
f 41//41 35//35 44//44
f 27//27 45//45 25//25
f 37//37 45//45 27//27
f 35//35 45//45 44//44
f 35//35 25//25 45//45
f 37//37 26//26 24//24
f 46//46 32//32 40//40
f 32//32 47//47 48//48
f 49//49 36//36 50//50
f 49//49 22//22 36//36
f 34//34 22//22 49//49
f 43//43 34//34 49//49
f 48//48 42//42 32//32
f 50//50 42//42 48//48
f 36//36 42//42 50//50
f 43//43 51//51 24//24
f 52//52 24//24 51//51
f 45//45 24//24 52//52
f 52//52 44//44 45//45
f 45//45 37//37 24//24
f 39//39 53//53 38//38
f 29//29 54//54 39//39
f 53//53 40//40 38//38
f 40//40 55//55 46//46
f 29//29 30//30 54//54
f 56//56 54//54 30//30
f 56//56 30//30 41//41
f 46//46 57//57 47//47
f 57//57 46//46 55//55
f 50//50 58//58 49//49
f 58//58 59//59 49//49
f 32//32 46//46 47//47
f 60//60 49//49 59//59
f 43//43 49//49 60//60
f 43//43 60//60 51//51
f 47//47 61//61 48//48
f 50//50 48//48 61//61
f 44//44 62//62 41//41
f 52//52 51//51 63//63
f 52//52 63//63 62//62
f 62//62 44//44 52//52
f 53//53 39//39 64//64
f 54//54 65//65 39//39
f 66//66 54//54 56//56
f 67//67 56//56 41//41
f 68//68 57//57 69//69
f 68//68 47//47 57//57
f 50//50 70//70 58//58
f 51//51 60//60 63//63
f 41//41 62//62 67//67
f 67//67 62//62 71//71
f 47//47 68//68 61//61
f 50//50 61//61 70//70
f 71//71 62//62 63//63
f 72//72 73//73 74//74
f 74//74 73//73 75//75
f 61//61 68//68 76//76
f 73//73 72//72 77//77
f 75//75 73//73 77//77
f 65//65 64//64 39//39
f 59//59 78//78 60//60
f 66//66 56//56 67//67
f 59//59 58//58 79//79
f 57//57 80//80 69//69
f 63//63 60//60 78//78
f 81//81 58//58 76//76
f 58//58 70//70 76//76
f 74//74 82//82 72//72
f 74//74 75//75 82//82
f 68//68 69//69 83//83
f 83//83 76//76 68//68
f 70//70 61//61 76//76
f 72//72 82//82 77//77
f 75//75 77//77 82//82
f 65//65 84//84 64//64
f 55//55 40//40 85//85
f 53//53 85//85 40//40
f 65//65 54//54 84//84
f 84//84 54//54 66//66
f 55//55 86//86 57//57
f 59//59 87//87 78//78
f 57//57 86//86 80//80
f 87//87 71//71 78//78
f 67//67 71//71 66//66
f 87//87 88//88 71//71
f 66//66 71//71 88//88
f 69//69 80//80 89//89
f 81//81 79//79 58//58
f 71//71 63//63 78//78
f 90//90 69//69 89//89
f 76//76 83//83 81//81
f 69//69 90//90 83//83
f 64//64 91//91 92//92
f 91//91 64//64 93//93
f 53//53 92//92 85//85
f 92//92 53//53 64//64
f 64//64 84//84 93//93
f 86//86 55//55 85//85
f 94//94 84//84 66//66
f 66//66 88//88 94//94
f 95//95 87//87 59//59
f 59//59 79//79 95//95
f 79//79 81//81 96//96
f 93//93 84//84 94//94
f 95//95 97//97 87//87
f 97//97 98//98 88//88
f 88//88 87//87 97//97
f 80//80 86//86 99//99
f 95//95 79//79 96//96
f 99//99 100//100 89//89
f 80//80 99//99 89//89
f 96//96 81//81 101//101
f 102//102 83//83 90//90
f 81//81 83//83 102//102
f 92//92 103//103 104//104
f 103//103 92//92 91//91
f 103//103 91//91 105//105
f 104//104 106//106 85//85
f 92//92 104//104 85//85
f 94//94 98//98 93//93
f 106//106 86//86 85//85
f 97//97 107//107 108//108
f 98//98 97//97 108//108
f 94//94 88//88 98//98
f 86//86 106//106 99//99
f 107//107 95//95 96//96
f 97//97 95//95 107//107
f 96//96 101//101 109//109
f 102//102 90//90 100//100
f 100//100 90//90 89//89
f 102//102 101//101 81//81
f 104//104 110//110 106//106
f 108//108 105//105 91//91
f 91//91 98//98 108//108
f 91//91 93//93 98//98
f 108//108 107//107 105//105
f 107//107 96//96 109//109
f 111//111 99//99 106//106
f 99//99 111//111 112//112
f 109//109 101//101 113//113
f 100//100 99//99 112//112
f 103//103 114//114 104//104
f 103//103 105//105 114//114
f 114//114 110//110 104//104
f 110//110 115//115 106//106
f 110//110 113//113 115//115
f 109//109 113//113 114//114
f 114//114 113//113 110//110
f 107//107 109//109 114//114
f 105//105 107//107 114//114
f 111//111 106//106 115//115
f 116//116 115//115 113//113
f 111//111 116//116 112//112
f 112//112 116//116 101//101
f 101//101 116//116 113//113
f 112//112 102//102 100//100
f 101//101 102//102 112//112
f 111//111 115//115 116//116
