# Generated by Visualization Toolkit
v -216.39015197753906 -61.61277770996094 122.64159393310547
v -218.80569458007812 -60.294681549072266 121.62297821044922
v -219.06861877441406 -59.69623565673828 122.15956115722656
v -216.46356201171875 -60.57777404785156 123.96517944335938
v -222.1419219970703 -60.09139633178711 121.8129653930664
v -222.2434844970703 -61.75358581542969 122.42990112304688
v -223.2614288330078 -60.65564727783203 123.32014465332031
v -218.56167602539062 -61.29314041137695 121.8439712524414
v -221.23561096191406 -62.316062927246094 123.16117095947266
v -220.21405029296875 -58.41621017456055 122.7122802734375
v -221.1940460205078 -58.95590591430664 122.8329086303711
v -221.0041961669922 -58.05940246582031 124.70086669921875
v -219.80499267578125 -58.684505462646484 123.76203155517578
v -222.75726318359375 -58.94993209838867 124.188720703125
v -218.3220672607422 -59.76929473876953 123.76803588867188
v -223.05654907226562 -61.76386642456055 124.74603271484375
v -217.0971221923828 -61.999610900878906 124.0453872680664
v -220.3047637939453 -62.32862854003906 125.0048828125
v -220.37953186035156 -57.14191818237305 126.65392303466797
v -220.68824768066406 -57.7247200012207 126.352294921875
v -219.69992065429688 -59.47031021118164 125.43360900878906
v -222.33065795898438 -57.7176399230957 126.8316650390625
v -223.59423828125 -59.29148483276367 127.12596893310547
v -218.20269775390625 -60.71091842651367 125.04434967041016
v -220.63009643554688 -60.567745208740234 126.71025848388672
v -222.30157470703125 -58.19686508178711 127.53307342529297
v -223.23187255859375 -59.699440002441406 127.80394744873047
v -221.39662170410156 -61.4592399597168 127.08927154541016
v -222.50831604003906 -61.73374557495117 126.95442199707031
v -222.39073181152344 -56.29293441772461 128.3485107421875
v -224.46694946289062 -59.35234069824219 129.0460205078125
v -223.65817260742188 -57.972633361816406 129.00308227539062
v -224.45364379882812 -56.9348030090332 130.99598693847656
v -224.10520935058594 -60.03904724121094 128.7325897216797
v -224.47398376464844 -58.31181716918945 130.93887329101562
v -224.75537109375 -60.39531707763672 130.58639526367188
v -225.18856811523438 -59.6947021484375 130.79583740234375
v -225.41905212402344 -61.12504577636719 129.21224975585938
v -226.1011505126953 -58.20814514160156 132.7108917236328
v -225.3660430908203 -61.53321075439453 130.5490264892578
v -226.06124877929688 -62.145416259765625 128.24591064453125
v -224.42453002929688 -55.86905288696289 132.7123260498047
v -225.1928253173828 -59.9383544921875 133.297607421875
v -225.51100158691406 -57.84034729003906 133.8323516845703
v -226.85675048828125 -60.20939636230469 132.52346801757812
v -226.70289611816406 -61.290157318115234 132.7910614013672
v -225.9505157470703 -61.51546859741211 134.86724853515625
v -225.82322692871094 -56.71786117553711 136.1623077392578
v -226.4122772216797 -57.5140495300293 134.80145263671875
v -225.37728881835938 -57.53614044189453 135.77427673339844
v -227.59645080566406 -60.137359619140625 135.98684692382812
v -226.9574737548828 -60.886680603027344 137.00906372070312
v -227.06463623046875 -59.105098724365234 136.73233032226562
v -225.3588409423828 -60.520957946777344 136.2886962890625
v -224.61004638671875 -62.22072219848633 136.879150390625
v -225.90882873535156 -60.71820068359375 137.1862030029297
v -227.43055725097656 -59.66845703125 138.27496337890625
v -227.6395721435547 -58.055660247802734 138.63894653320312
vn 0.7093251943588257 -0.2760348618030548 -0.6485850214958191
vn 0.2432265430688858 0.29055270552635193 -0.9254295825958252
vn 0.3694985806941986 0.747133731842041 -0.5525051951408386
vn 0.7846641540527344 0.5313572287559509 0.31931447982788086
vn -0.3774629235267639 0.3178650140762329 -0.8697606921195984
vn -0.4792676568031311 -0.6361430287361145 -0.6046690344810486
vn -0.9379498958587646 -0.018070286139845848 -0.34629979729652405
vn 0.04734990373253822 -0.5067751407623291 -0.8607769012451172
vn -0.0822012722492218 -0.9746602773666382 -0.20803917944431305
vn 0.16479822993278503 0.8723512887954712 -0.4602661430835724
vn -0.31435292959213257 0.7157185077667236 -0.6236420273780823
vn 0.04407988861203194 0.9424617886543274 -0.3313951790332794
vn 0.6188507080078125 0.7854008674621582 -0.013016022741794586
vn -0.6275231242179871 0.6941618323326111 -0.3526388108730316
vn 0.52610182762146 0.8278329372406006 0.19470366835594177
vn -0.7399092316627502 -0.6718865036964417 -0.03320997953414917
vn 0.49852877855300903 -0.7358918786048889 0.4581837058067322
vn 0.0759710893034935 -0.9650176167488098 0.25093716382980347
vn 0.9008631706237793 -0.08174314349889755 0.42633745074272156
vn 0.8055328130722046 0.29298314452171326 0.5150512456893921
vn 0.704174816608429 0.43406200408935547 0.5618968605995178
vn -0.39263591170310974 0.916368305683136 -0.07814226299524307
vn -0.989773154258728 0.017156321555376053 -0.14161492884159088
vn 0.5766223669052124 0.2545230984687805 0.7763534188270569
vn 0.5230119228363037 0.10337409377098083 0.8460333347320557
vn 0.6947618126869202 0.068055659532547 0.7160129547119141
vn 0.024152981117367744 -0.5601388216018677 0.8280466198921204
vn 0.3542248010635376 -0.4413629472255707 0.8244534730911255
vn -0.41343167424201965 -0.8172560930252075 0.4014557898044586
vn 0.9409124255180359 0.23223119974136353 0.24648039042949677
vn -0.8670559525489807 0.15581700205802917 -0.47321781516075134
vn 0.5610967874526978 0.5106233954429626 0.6514861583709717
vn -0.9717171788215637 0.2245458960533142 -0.07310899347066879
vn 0.8376399874687195 -0.5351260304450989 -0.10954201966524124
vn 0.05226939171552658 -0.08057796210050583 0.9953768849372864
vn 0.8873037695884705 -0.189116433262825 0.42062705755233765
vn 0.1704200804233551 0.9653983116149902 -0.1973908394575119
vn -0.06697621941566467 0.29153481125831604 -0.9542126059532166
vn -0.31994569301605225 0.7957688570022583 -0.5141854882240295
vn 0.811960756778717 -0.5825963616371155 0.036074329167604446
vn -0.5776476860046387 -0.6053727865219116 -0.5475829243659973
vn -0.9998638033866882 0.014437425881624222 0.007995573803782463
vn 0.9967299103736877 -0.06239821016788483 0.05134208872914314
vn 0.7740036249160767 0.5831155776977539 -0.24676857888698578
vn -0.9631671905517578 0.14433430135250092 -0.2268846333026886
vn -0.7987522482872009 -0.600831925868988 -0.031557247042655945
vn 0.3942400813102722 -0.9182944893836975 -0.036194562911987305
vn 0.3622191250324249 0.8596821427345276 0.36020001769065857
vn -0.8422902226448059 0.5209645628929138 -0.13835865259170532
vn 0.9667924642562866 0.2233698070049286 0.12417022138834
vn -0.9948558211326599 -0.010695231147110462 -0.10073503851890564
vn -0.5213213562965393 -0.7675244808197021 0.3730016350746155
vn -0.24096891283988953 0.8698721528053284 0.4304142892360687
vn 0.9672219753265381 0.09155938774347305 0.23685145378112793
vn 0.6408726572990417 -0.32418492436408997 0.6958350539207458
vn 0.4519728422164917 0.09836727380752563 0.8865914344787598
vn -0.09963764995336533 -0.3977779448032379 0.9120554327964783
vn -0.6820738315582275 0.7015518546104431 -0.20639842748641968
f 1//1 2//2 3//3
f 4//4 1//1 3//3
f 5//5 6//6 7//7
f 2//2 1//1 8//8
f 5//5 2//2 8//8
f 5//5 8//8 6//6
f 9//9 8//8 1//1
f 6//6 8//8 9//9
f 10//10 11//11 12//12
f 10//10 12//12 13//13
f 12//12 11//11 14//14
f 15//15 4//4 3//3
f 15//15 3//3 13//13
f 13//13 3//3 10//10
f 10//10 3//3 11//11
f 5//5 11//11 3//3
f 11//11 5//5 14//14
f 14//14 5//5 7//7
f 5//5 3//3 2//2
f 6//6 16//16 7//7
f 1//1 4//4 17//17
f 9//9 1//1 17//17
f 9//9 17//17 18//18
f 9//9 16//16 6//6
f 19//19 20//20 12//12
f 21//21 13//13 20//20
f 12//12 20//20 13//13
f 12//12 14//14 22//22
f 12//12 22//22 19//19
f 22//22 14//14 23//23
f 15//15 24//24 4//4
f 15//15 13//13 21//21
f 15//15 21//21 24//24
f 24//24 21//21 25//25
f 26//26 21//21 20//20
f 26//26 25//25 21//21
f 25//25 26//26 27//27
f 14//14 7//7 23//23
f 4//4 24//24 17//17
f 25//25 28//28 24//24
f 28//28 17//17 24//24
f 25//25 27//27 28//28
f 7//7 16//16 23//23
f 28//28 18//18 17//17
f 16//16 9//9 29//29
f 29//29 9//9 18//18
f 19//19 22//22 20//20
f 20//20 22//22 26//26
f 26//26 22//22 30//30
f 23//23 31//31 32//32
f 22//22 23//23 32//32
f 22//22 32//32 30//30
f 32//32 31//31 33//33
f 23//23 29//29 27//27
f 23//23 27//27 31//31
f 31//31 27//27 34//34
f 28//28 27//27 29//29
f 23//23 16//16 29//29
f 28//28 29//29 18//18
f 30//30 32//32 26//26
f 35//35 32//32 33//33
f 26//26 32//32 27//27
f 32//32 34//34 27//27
f 32//32 35//35 34//34
f 35//35 36//36 34//34
f 37//37 31//31 38//38
f 37//37 35//35 31//31
f 35//35 33//33 31//31
f 37//37 38//38 39//39
f 34//34 36//36 40//40
f 41//41 38//38 40//40
f 31//31 34//34 38//38
f 40//40 38//38 34//34
f 38//38 41//41 39//39
f 42//42 33//33 35//35
f 35//35 37//37 36//36
f 36//36 37//37 43//43
f 39//39 44//44 37//37
f 43//43 37//37 44//44
f 36//36 43//43 40//40
f 39//39 41//41 45//45
f 45//45 41//41 46//46
f 41//41 40//40 47//47
f 47//47 46//46 41//41
f 39//39 48//48 44//44
f 48//48 39//39 49//49
f 44//44 50//50 43//43
f 51//51 45//45 46//46
f 51//51 49//49 45//45
f 49//49 39//39 45//45
f 47//47 40//40 43//43
f 46//46 47//47 52//52
f 51//51 46//46 52//52
f 44//44 48//48 50//50
f 53//53 48//48 49//49
f 50//50 54//54 43//43
f 51//51 53//53 49//49
f 47//47 54//54 55//55
f 47//47 43//43 54//54
f 52//52 47//47 55//55
f 48//48 56//56 54//54
f 50//50 48//48 54//54
f 48//48 53//53 56//56
f 56//56 53//53 57//57
f 57//57 53//53 58//58
f 58//58 53//53 51//51
f 58//58 51//51 57//57
f 55//55 54//54 56//56
f 52//52 56//56 57//57
f 52//52 55//55 56//56
f 57//57 51//51 52//52
