# Generated by Visualization Toolkit
v -331.03607177734375 -188.1094970703125 503.7771301269531
v -329.97613525390625 -189.2825469970703 504.56304931640625
v -330.4083251953125 -190.46572875976562 503.6360168457031
v -331.5769348144531 -189.18270874023438 503.6122741699219
v -331.1865234375 -194.77105712890625 503.7882995605469
v -331.8354187011719 -193.11679077148438 504.65338134765625
v -325.3689270019531 -194.66195678710938 504.58447265625
v -326.6327819824219 -194.86997985839844 503.39556884765625
v -326.8926086425781 -192.75425720214844 503.7281188964844
v -328.1111755371094 -193.20970153808594 503.299072265625
v -327.5265808105469 -195.36407470703125 503.41400146484375
v -329.10577392578125 -195.44139099121094 504.4012451171875
v -331.5856628417969 -195.8960418701172 504.0462951660156
v -328.6659851074219 -197.72744750976562 504.5579833984375
v -331.36041259765625 -197.74655151367188 501.85089111328125
v -331.3782653808594 -196.42996215820312 503.4546813964844
v -331.0436096191406 -201.6220245361328 502.7191467285156
v -331.3711853027344 -203.38796997070312 503.9949951171875
v -330.2920227050781 -189.4312286376953 506.1054992675781
v -331.08905029296875 -189.84300231933594 506.2551574707031
v -331.8877868652344 -192.39471435546875 505.97564697265625
v -326.1731262207031 -193.01608276367188 505.7076416015625
v -328.8482666015625 -191.852783203125 505.5900573730469
v -329.11981201171875 -192.4949951171875 504.200439453125
v -324.9887390136719 -194.37901306152344 505.3039245605469
v -329.98480224609375 -194.45729064941406 504.3155822753906
v -324.6853332519531 -196.83128356933594 505.9898681640625
v -330.7940673828125 -195.257568359375 505.380859375
v -325.18475341796875 -197.1617431640625 504.8275146484375
v -326.8255615234375 -197.23397827148438 504.2885437011719
v -329.28082275390625 -197.2376708984375 505.5021667480469
v -329.8017883300781 -195.97711181640625 506.1723937988281
v -323.9254455566406 -197.3825225830078 504.3520202636719
v -324.0677185058594 -198.09095764160156 505.75433349609375
v -323.7178649902344 -198.38575744628906 503.96356201171875
v -326.34478759765625 -199.1990966796875 504.57830810546875
v -330.07318115234375 -199.832763671875 506.02545166015625
v -325.4519348144531 -200.81533813476562 505.205078125
v -324.6929931640625 -200.2732696533203 505.6415100097656
v -326.9678955078125 -200.98263549804688 505.1245422363281
v -330.412109375 -201.50267028808594 506.0959777832031
v -325.26519775390625 -204.06227111816406 506.0621337890625
v -326.59063720703125 -202.1314239501953 506.1981201171875
v -328.4796142578125 -201.3141632080078 506.1105041503906
v -329.8473815917969 -191.69439697265625 506.87554931640625
v -327.62933349609375 -193.4580841064453 507.1134948730469
v -329.4638977050781 -193.91293334960938 507.6592102050781
v -331.2088928222656 -192.39358520507812 506.91802978515625
v -325.3379211425781 -195.7117919921875 506.9001159667969
v -330.4683532714844 -194.45892333984375 507.0505676269531
v -326.6799621582031 -195.76199340820312 507.4330749511719
v -328.546630859375 -196.81082153320312 507.0879211425781
v -325.2182922363281 -199.7619171142578 506.9994201660156
v -326.2777404785156 -199.57666015625 507.354248046875
v -328.559326171875 -199.9817657470703 507.0025939941406
vn 0.13924723863601685 0.9543731808662415 -0.2641630172729492
vn 0.859542965888977 0.4378780722618103 -0.2635313868522644
vn 0.39282721281051636 0.100993312895298 -0.9140498638153076
vn -0.8542816042900085 0.1674431562423706 -0.4921034872531891
vn 0.11086445301771164 -0.23067131638526917 -0.9666953086853027
vn -0.9428613781929016 -0.00792878307402134 -0.33309081196784973
vn 0.7611330151557922 0.16012945771217346 -0.6285182237625122
vn 0.3925250172615051 -0.09158897399902344 -0.9151697158813477
vn 0.360352486371994 0.6153053641319275 -0.7011029720306396
vn -0.2526918947696686 0.11256368458271027 -0.9609766602516174
vn -0.11689704656600952 -0.17155586183071136 -0.9782145619392395
vn -0.6010702848434448 -0.3692721724510193 -0.7087684273719788
vn -0.8251290321350098 -0.5183988213539124 0.22455470263957977
vn -0.4795615077018738 -0.16684916615486145 -0.8614999651908875
vn 0.8032169342041016 -0.5935284495353699 -0.050662197172641754
vn 0.9040203094482422 -0.3339517414569855 0.2668774127960205
vn 0.9749668836593628 -0.07315394282341003 -0.2099715918302536
vn 0.9779866337776184 -0.1350124180316925 -0.15910349786281586
vn 0.48132890462875366 0.6405637264251709 0.5983315706253052
vn -0.5847983956336975 0.431881844997406 0.6866505742073059
vn -0.94779372215271 -0.028881216421723366 0.3175736367702484
vn 0.6436804533004761 0.739469051361084 0.19713179767131805
vn 0.6454191207885742 0.7476527094841003 0.15636400878429413
vn 0.3223479986190796 0.3846859037876129 -0.864932656288147
vn 0.9202139377593994 0.3905324935913086 -0.026280414313077927
vn -0.12281069159507751 -0.42127081751823425 -0.8985813856124878
vn 0.9144149422645569 0.3980310559272766 -0.0735979974269867
vn -0.11436561495065689 -0.9907974004745483 -0.07239490002393723
vn 0.21202854812145233 0.30036094784736633 -0.9299609065055847
vn 0.24025948345661163 -0.2448185235261917 -0.9393291473388672
vn -0.9823715686798096 -0.10271330922842026 -0.15619274973869324
vn -0.7744667530059814 -0.6205868124961853 0.12277350574731827
vn 0.6454971432685852 0.7018557190895081 -0.30121752619743347
vn 0.9349430203437805 0.07520418614149094 0.34673625230789185
vn 0.566662609577179 -0.18703049421310425 -0.8024420142173767
vn -0.040824443101882935 -0.15931251645088196 -0.9863837957382202
vn -0.9550803303718567 0.19366773962974548 0.22430859506130219
vn 0.2915358543395996 -0.39621827006340027 -0.8706423044204712
vn 0.9368961453437805 -0.348949670791626 -0.021443145349621773
vn -0.1951252520084381 -0.5461036562919617 -0.8146759867668152
vn -0.6781665682792664 -0.7348475456237793 -0.009450064972043037
vn 0.37156280875205994 -0.8120566010475159 -0.45000579953193665
vn -0.34285664558410645 -0.6901194453239441 0.6373261213302612
vn -0.13783082365989685 -0.953130304813385 0.2693425714969635
vn 0.2399575263261795 0.4347434341907501 0.867996871471405
vn 0.38291633129119873 0.5038492679595947 0.7742810249328613
vn -0.11199729144573212 0.04920040816068649 0.992489755153656
vn -0.5015281438827515 0.08646540343761444 0.8608096837997437
vn 0.651679277420044 0.26188838481903076 0.7118487358093262
vn -0.6090497970581055 -0.47030800580978394 0.6386460065841675
vn 0.09836748987436295 0.04143192246556282 0.9942873120307922
vn -0.5592042803764343 -0.21456749737262726 0.8007817268371582
vn 0.539323091506958 -0.17644260823726654 0.8234067559242249
vn 0.14575374126434326 -0.1700650453567505 0.9745941758155823
vn -0.255432665348053 -0.21980254352092743 0.9415099620819092
f 1//1 2//2 3//3
f 1//1 3//3 4//4
f 3//3 5//5 4//4
f 5//5 6//6 4//4
f 7//7 8//8 9//9
f 10//10 9//9 11//11
f 11//11 9//9 8//8
f 12//12 10//10 11//11
f 13//13 6//6 5//5
f 12//12 11//11 14//14
f 15//15 5//5 16//16
f 5//5 15//15 13//13
f 13//13 15//15 16//16
f 15//15 16//16 17//17
f 16//16 18//18 17//17
f 18//18 15//15 16//16
f 17//17 18//18 15//15
f 1//1 19//19 2//2
f 20//20 1//1 4//4
f 20//20 4//4 21//21
f 22//22 9//9 23//23
f 9//9 24//24 23//23
f 9//9 10//10 24//24
f 3//3 2//2 24//24
f 23//23 24//24 2//2
f 3//3 24//24 5//5
f 4//4 6//6 21//21
f 22//22 7//7 9//9
f 7//7 22//22 25//25
f 24//24 10//10 26//26
f 24//24 26//26 5//5
f 21//21 6//6 13//13
f 7//7 25//25 27//27
f 26//26 12//12 28//28
f 10//10 12//12 26//26
f 26//26 28//28 5//5
f 13//13 16//16 28//28
f 5//5 28//28 16//16
f 27//27 29//29 7//7
f 8//8 30//30 11//11
f 8//8 7//7 30//30
f 7//7 29//29 30//30
f 30//30 14//14 11//11
f 12//12 14//14 31//31
f 12//12 31//31 32//32
f 12//12 32//32 28//28
f 33//33 34//34 35//35
f 27//27 33//33 29//29
f 27//27 34//34 33//33
f 35//35 29//29 33//33
f 35//35 36//36 29//29
f 36//36 30//30 29//29
f 14//14 30//30 36//36
f 37//37 31//31 14//14
f 38//38 35//35 39//39
f 35//35 38//38 36//36
f 38//38 40//40 36//36
f 14//14 36//36 40//40
f 41//41 14//14 40//40
f 37//37 14//14 41//41
f 42//42 38//38 39//39
f 43//43 44//44 40//40
f 44//44 41//41 40//40
f 42//42 43//43 40//40
f 42//42 40//40 38//38
f 19//19 1//1 20//20
f 19//19 45//45 23//23
f 2//2 19//19 23//23
f 20//20 45//45 19//19
f 23//23 46//46 22//22
f 23//23 45//45 46//46
f 46//46 45//45 47//47
f 20//20 48//48 45//45
f 48//48 47//47 45//45
f 20//20 21//21 48//48
f 22//22 49//49 25//25
f 49//49 22//22 46//46
f 48//48 50//50 47//47
f 21//21 13//13 50//50
f 48//48 21//21 50//50
f 25//25 49//49 27//27
f 46//46 51//51 49//49
f 47//47 51//51 46//46
f 28//28 32//32 50//50
f 13//13 28//28 50//50
f 47//47 52//52 51//51
f 32//32 31//31 52//52
f 32//32 52//52 50//50
f 50//50 52//52 47//47
f 34//34 27//27 49//49
f 34//34 49//49 53//53
f 51//51 54//54 49//49
f 54//54 53//53 49//49
f 52//52 55//55 51//51
f 55//55 54//54 51//51
f 31//31 37//37 52//52
f 52//52 37//37 55//55
f 35//35 34//34 39//39
f 39//39 34//34 53//53
f 37//37 41//41 55//55
f 39//39 53//53 42//42
f 54//54 43//43 53//53
f 43//43 42//42 53//53
f 44//44 43//43 55//55
f 55//55 43//43 54//54
f 41//41 44//44 55//55
