# Generated by Visualization Toolkit
v -118.74586486816406 -254.9409637451172 506.1964111328125
v -114.37858581542969 -258.56903076171875 505.64947509765625
v -115.35395812988281 -261.6489562988281 505.04937744140625
v -115.58473205566406 -262.9676208496094 506.0702819824219
v -113.69334411621094 -266.3837890625 504.0784606933594
v -113.12678527832031 -267.43524169921875 505.48907470703125
v -120.29603576660156 -253.23817443847656 506.7282409667969
v -118.04240417480469 -252.25367736816406 507.30560302734375
v -114.00828552246094 -255.33860778808594 507.7368469238281
v -118.51316833496094 -257.7421875 507.89093017578125
v -117.06053161621094 -260.58050537109375 509.9236145019531
v -110.63584899902344 -264.8787841796875 508.30322265625
v -111.17073059082031 -266.7762145996094 509.6904602050781
v -120.66380310058594 -250.3003692626953 508.65411376953125
v -122.40684509277344 -247.40541076660156 510.8667907714844
v -120.95582580566406 -245.72952270507812 510.93426513671875
v -119.66978454589844 -245.38523864746094 511.81610107421875
v -109.61564636230469 -260.9544677734375 509.72607421875
v -112.99000549316406 -266.1311950683594 510.9421691894531
v -123.29307556152344 -241.32008361816406 512.0615234375
v -124.24223327636719 -242.4446258544922 512.256591796875
v -118.74034118652344 -245.15097045898438 513.048828125
v -123.34864807128906 -248.7528839111328 512.92919921875
v -122.03147888183594 -252.44908142089844 512.3883666992188
v -108.49879455566406 -258.3337097167969 511.9225769042969
v -104.75956726074219 -263.2709655761719 512.2547607421875
v -115.54014587402344 -261.00360107421875 514.6022338867188
v -108.22514343261719 -265.4615783691406 510.82781982421875
v -103.39915466308594 -271.0174255371094 512.14697265625
v -109.28004455566406 -267.51788330078125 511.9887390136719
v -106.91755676269531 -268.1589660644531 511.81353759765625
v -124.31440734863281 -236.44679260253906 515.0673217773438
v -125.75276184082031 -242.4259490966797 514.3997802734375
v -125.96174621582031 -238.03427124023438 514.8851928710938
v -121.85850524902344 -239.0314483642578 514.65478515625
v -125.38529968261719 -244.9671173095703 515.1480102539062
v -118.98793029785156 -239.57992553710938 520.0148315429688
v -113.74870300292969 -250.6130828857422 514.332763671875
v -123.86650085449219 -248.7909698486328 516.4842529296875
v -120.00279235839844 -255.19761657714844 515.30859375
v -110.22160339355469 -254.96458435058594 514.5276489257812
v -108.44175720214844 -257.04547119140625 516.4463500976562
v -105.49330139160156 -259.98779296875 514.3384399414062
v -104.80625915527344 -261.1701965332031 515.1680297851562
v -101.87254333496094 -266.9168701171875 512.856689453125
v -111.08683776855469 -266.42431640625 514.21484375
v -102.30674743652344 -269.2413635253906 513.5454711914062
v -106.46379089355469 -267.98870849609375 514.5853881835938
v -126.59931945800781 -234.0075225830078 515.72216796875
v -128.16221618652344 -232.7017364501953 516.769775390625
v -129.07273864746094 -234.40420532226562 517.6568603515625
v -127.32795715332031 -239.7360076904297 516.9501342773438
v -120.49317932128906 -238.00514221191406 518.3242797851562
v -113.23835754394531 -250.36866760253906 517.1441040039062
v -112.66285705566406 -252.12684631347656 519.5704956054688
v -113.49507141113281 -261.53619384765625 516.8589477539062
v -105.39741516113281 -265.1600036621094 515.8751831054688
v -110.26322937011719 -264.8081970214844 516.2027587890625
v -131.16835021972656 -228.8539581298828 518.1180419921875
v -130.01637268066406 -225.7095947265625 517.4097900390625
v -128.0861053466797 -225.45640563964844 518.1761474609375
v -125.28300476074219 -227.38026428222656 519.7189331054688
v -126.14744567871094 -231.89845275878906 516.7827758789062
v -123.49684143066406 -233.97378540039062 517.4521484375
v -127.08525085449219 -241.71449279785156 518.8457641601562
v -116.28794860839844 -244.446044921875 519.8577880859375
v -118.43412780761719 -255.3834991455078 519.3587036132812
v -121.94490051269531 -249.8308868408203 520.5634155273438
v -108.21559143066406 -260.7667236328125 517.6703491210938
v -112.24995422363281 -258.6076965332031 519.6555786132812
v -109.40489196777344 -262.5738830566406 517.4266967773438
v -131.13575744628906 -217.71292114257812 520.7819213867188
v -127.88023376464844 -222.275146484375 520.2941284179688
v -130.47447204589844 -223.26553344726562 518.9197387695312
v -132.8362274169922 -218.7275848388672 520.8903198242188
v -132.40415954589844 -225.734130859375 519.7421875
v -133.47227478027344 -226.83229064941406 522.3773193359375
v -124.07044982910156 -227.9235382080078 521.3222045898438
v -121.66227722167969 -233.72132873535156 521.1082153320312
v -131.3975067138672 -231.03346252441406 519.7312622070312
v -130.31141662597656 -234.1940460205078 521.1256713867188
v -118.93550109863281 -239.0261993408203 522.900634765625
v -125.49424743652344 -244.45936584472656 521.2902221679688
v -110.76066589355469 -256.86419677734375 519.0172729492188
v -116.89860534667969 -254.96788024902344 521.4552612304688
v -132.93894958496094 -212.55685424804688 522.615966796875
v -133.8455352783203 -219.57577514648438 521.655029296875
v -134.85084533691406 -219.3144989013672 523.1441040039062
v -133.0762176513672 -228.57894897460938 525.4967651367188
v -121.20454406738281 -234.20712280273438 524.5065307617188
v -128.24610900878906 -238.57167053222656 522.5884399414062
v -116.64347839355469 -245.1304931640625 523.1095581054688
v -114.59944152832031 -250.9311065673828 522.0377807617188
v -115.06211853027344 -254.1776885986328 522.37744140625
v -135.57008361816406 -207.44224548339844 523.27099609375
v -131.37120056152344 -211.59510803222656 523.6182250976562
v -134.62916564941406 -213.7469940185547 522.5907592773438
v -137.88829040527344 -207.50914001464844 524.03369140625
v -137.03684997558594 -215.07826232910156 525.4341430664062
v -129.40223693847656 -215.01956176757812 523.7508544921875
v -135.1699981689453 -221.0934295654297 524.9815063476562
v -128.3423614501953 -215.20733642578125 526.0726318359375
v -125.60166931152344 -222.84625244140625 524.9363403320312
v -134.3113250732422 -225.12489318847656 525.1453247070312
v -123.82966613769531 -226.0110626220703 525.6126708984375
v -122.55131530761719 -230.25318908691406 524.489501953125
v -130.8593292236328 -232.7632598876953 524.4681396484375
v -126.24177551269531 -239.2527313232422 526.199462890625
v -119.26872253417969 -240.14535522460938 525.2522583007812
v -123.59904479980469 -244.1805877685547 524.8375854492188
v -116.95484924316406 -249.28965759277344 523.650390625
v -118.93388366699219 -250.1818389892578 523.1126708984375
v -137.9837188720703 -196.8565216064453 526.1705322265625
v -135.33802795410156 -199.3790283203125 525.4493408203125
v -136.50904846191406 -203.97372436523438 524.50048828125
v -138.9003143310547 -198.02699279785156 526.5957641601562
v -138.20933532714844 -204.416259765625 524.9755859375
v -133.60887145996094 -204.12966918945312 525.1239624023438
v -138.58949279785156 -206.41506958007812 526.2316284179688
v -139.13294982910156 -204.94407653808594 528.2373657226562
v -130.74159240722656 -205.7090606689453 526.9534912109375
v -129.2633819580078 -209.4324493408203 527.5410766601562
v -126.90382385253906 -219.19093322753906 529.0807495117188
v -123.08647155761719 -229.65118408203125 527.8644409179688
v -121.75984191894531 -234.58157348632812 526.9540405273438
v -129.9673614501953 -232.79977416992188 527.0244750976562
v -124.66026306152344 -238.71144104003906 527.7925415039062
v -120.49937438964844 -243.26449584960938 526.5311279296875
v -119.88822937011719 -245.2178955078125 525.31103515625
v -138.47715759277344 -189.91844177246094 530.4072265625
v -135.7804718017578 -194.31053161621094 527.4977416992188
v -139.5296173095703 -196.86514282226562 528.940185546875
v -132.8438262939453 -193.06707763671875 530.146484375
v -132.5035858154297 -199.10267639160156 527.7211303710938
v -130.8380889892578 -200.8736114501953 529.5786743164062
v -128.31520080566406 -214.21331787109375 528.47412109375
v -137.6001739501953 -213.87094116210938 527.9317626953125
v -136.20545959472656 -216.6808319091797 529.3328857421875
v -134.4791717529297 -222.5998992919922 528.1557006835938
v -124.98362731933594 -224.34768676757812 529.4237060546875
v -123.57026672363281 -232.7475128173828 528.8389282226562
v -120.80717468261719 -238.5420684814453 526.6454467773438
v -126.85899353027344 -235.19174194335938 528.2393798828125
v -122.82301330566406 -237.4879150390625 528.3677368164062
v -122.13386535644531 -240.11111450195312 527.122314453125
v -138.80772399902344 -186.286865234375 531.684326171875
v -136.29051208496094 -189.3079833984375 530.5394897460938
v -129.3478546142578 -203.79014587402344 531.9296264648438
v -138.2779083251953 -206.0848846435547 531.1634521484375
v -138.90367126464844 -202.6416778564453 531.7227172851562
v -129.02125549316406 -210.38653564453125 530.4189453125
v -137.58119201660156 -211.07334899902344 531.114990234375
v -128.87425231933594 -214.94898986816406 531.001953125
v -131.7666778564453 -226.73367309570312 530.1808471679688
v -125.44227600097656 -226.675537109375 530.91162109375
v -127.78572082519531 -230.87863159179688 530.5618286132812
v -125.12773132324219 -233.4759063720703 529.4037475585938
v -135.6403045654297 -187.44444274902344 531.82666015625
v -138.2737579345703 -190.86557006835938 532.1276245117188
v -131.57664489746094 -192.82029724121094 532.5929565429688
v -134.82713317871094 -190.18267822265625 532.7720336914062
v -138.91807556152344 -195.35235595703125 533.0321044921875
v -131.26185607910156 -195.80995178222656 532.1968994140625
v -130.39024353027344 -201.77481079101562 532.2693481445312
v -127.23088073730469 -221.4341583251953 531.6167602539062
v -133.6088104248047 -219.5547637939453 531.2898559570312
v -134.26991271972656 -215.52359008789062 532.622802734375
v -131.28086853027344 -220.0611572265625 532.6167602539062
v -130.01683044433594 -225.18011474609375 532.2352294921875
v -126.67390441894531 -227.0897674560547 531.8821411132812
v -128.8895721435547 -222.28695678710938 532.6658325195312
v -134.85597229003906 -186.4977569580078 532.1248779296875
v -136.6301727294922 -190.49014282226562 533.0247802734375
v -135.96275329589844 -193.48472595214844 534.709228515625
v -137.7816925048828 -194.06846618652344 534.3399047851562
v -133.98143005371094 -195.72251892089844 535.144775390625
v -132.18959045410156 -197.032958984375 534.0894165039062
v -137.31773376464844 -205.1317138671875 533.443603515625
v -130.94664001464844 -203.50668334960938 534.2013549804688
v -130.2678985595703 -212.9698028564453 532.9680786132812
v -131.0919952392578 -209.59292602539062 534.4652099609375
v -134.90708923339844 -210.26541137695312 534.5222778320312
v -135.7598114013672 -204.99693298339844 534.9383544921875
v -132.5445098876953 -214.74383544921875 533.6370849609375
v -130.69081115722656 -216.16806030273438 532.9382934570312
v -135.1729278564453 -198.4171142578125 535.1239013671875
v -133.2255096435547 -205.72476196289062 535.4950561523438
vn -0.4148998260498047 -0.033251792192459106 -0.9092592597007751
vn 0.3556196689605713 0.30103060603141785 -0.8848249912261963
vn -0.47754910588264465 -0.0369429849088192 -0.8778281211853027
vn -0.8817691802978516 -0.3908722698688507 -0.26401135325431824
vn 0.17226311564445496 -0.159540593624115 -0.972045361995697
vn -0.3201829791069031 -0.9366458654403687 -0.14204731583595276
vn -0.6516616344451904 0.05228663980960846 -0.7567055225372314
vn 0.2023877501487732 0.4821319282054901 -0.8524013161659241
vn 0.605810821056366 0.46693915128707886 -0.6441747546195984
vn -0.8529280424118042 -0.439384400844574 -0.2818778455257416
vn -0.8411479592323303 -0.5364630818367004 0.06839170306921005
vn 0.7781603336334229 -0.26109376549720764 -0.571223795413971
vn 0.32773855328559875 -0.8847609758377075 -0.3313389718532562
vn -0.19111016392707825 0.47827503085136414 -0.8571638464927673
vn -0.5783200263977051 0.13441847264766693 -0.8046599626541138
vn 0.019822055473923683 0.4263651967048645 -0.9043339490890503
vn 0.510723888874054 0.5223641991615295 -0.6828592419624329
vn 0.6735012531280518 0.16999229788780212 -0.719373881816864
vn -0.5696315169334412 -0.7995465993881226 0.19038183987140656
vn 0.05919284373521805 0.3953670859336853 -0.9166139960289001
vn -0.6001960039138794 0.16216729581356049 -0.7832410931587219
vn 0.715907633304596 0.5356508493423462 -0.44783300161361694
vn -0.9153028130531311 -0.25142139196395874 -0.3146556615829468
vn -0.8956831097602844 -0.4361657500267029 -0.08666709810495377
vn 0.6949372291564941 0.5190016627311707 -0.4976942837238312
vn 0.6199733018875122 0.28256848454475403 -0.7319754958152771
vn -0.725764811038971 -0.609384298324585 0.31924331188201904
vn 0.33008578419685364 -0.325793981552124 -0.8859467506408691
vn 0.06617240607738495 -0.7568987011909485 -0.650173544883728
vn -0.2222251445055008 -0.84456866979599 -0.4871547520160675
vn -0.204642191529274 -0.3866494596004486 -0.8992351293563843
vn 0.10863582044839859 0.45726537704467773 -0.8826702237129211
vn -0.8811060786247253 -0.15653331577777863 -0.44626155495643616
vn -0.6035463809967041 0.08494319766759872 -0.7927903532981873
vn 0.606706440448761 0.514575183391571 -0.6059040427207947
vn -0.9233400225639343 -0.31670671701431274 -0.21711762249469757
vn 0.8531005382537842 0.47510063648223877 -0.21563602983951569
vn 0.783365786075592 0.5651915073394775 -0.25864389538764954
vn -0.8868089914321899 -0.45997005701065063 0.04469301924109459
vn -0.8025672435760498 -0.5647022128105164 0.1923467069864273
vn 0.7727969288825989 0.6251015067100525 -0.10969500243663788
vn 0.7699210047721863 0.4824123680591583 0.4177320897579193
vn 0.7910194396972656 0.5839805006980896 -0.18235979974269867
vn 0.8469429016113281 0.37095385789871216 0.3808949887752533
vn 0.9885945916175842 0.13743439316749573 -0.061583805829286575
vn -0.4984799325466156 -0.7511202692985535 0.43282350897789
vn 0.5701836347579956 -0.4252164363861084 0.7029094099998474
vn -0.07642119377851486 -0.5869818925857544 0.8059852123260498
vn -0.1492624431848526 0.3071286082267761 -0.9398897886276245
vn -0.3210025131702423 0.11518623679876328 -0.9400476813316345
vn -0.8238688111305237 -0.23814566433429718 -0.5143218040466309
vn -0.8926318883895874 -0.1948588639497757 -0.4064953029155731
vn 0.7941594123840332 0.4706864356994629 -0.384402334690094
vn 0.8547635078430176 0.5175999402999878 -0.03833640366792679
vn 0.8623069524765015 0.39433014392852783 0.31769561767578125
vn -0.49304306507110596 -0.6231440305709839 0.6071245074272156
vn 0.40815532207489014 -0.17034928500652313 0.8968781232833862
vn -0.23628538846969604 -0.5683099031448364 0.7881579995155334
vn -0.7511676549911499 -0.11934866011142731 -0.6492327451705933
vn -0.28235378861427307 0.2474943846464157 -0.9268348813056946
vn 0.35176554322242737 0.3806745409965515 -0.85518878698349
vn 0.7409368753433228 0.4055773615837097 -0.5352751612663269
vn 0.2849295139312744 0.4069383144378662 -0.8678804636001587
vn 0.658871054649353 0.4703018069267273 -0.5871159434318542
vn -0.9297261834144592 -0.35436683893203735 -0.1001666858792305
vn 0.8919662833213806 0.4521016776561737 0.0005156908882781863
vn -0.6760333776473999 -0.6092842221260071 0.4144293963909149
vn -0.7138726115226746 -0.5507075190544128 0.43255895376205444
vn 0.4945746660232544 -0.001357442233711481 0.8691340684890747
vn 0.07995855808258057 -0.4259767234325409 0.9011939167976379
vn 0.10876801609992981 -0.396247535943985 0.9116783738136292
vn 0.24305731058120728 0.3724115788936615 -0.895674467086792
vn 0.584740936756134 0.43764379620552063 -0.6830416917800903
vn -0.10816649347543716 0.38648277521133423 -0.9159318208694458
vn -0.40994203090667725 0.17867742478847504 -0.8944394588470459
vn -0.759000837802887 0.044813551008701324 -0.6495455503463745
vn -0.9351787567138672 -0.22779658436775208 -0.271200031042099
vn 0.8392811417579651 0.4238584637641907 -0.34051617980003357
vn 0.8806629776954651 0.3914962708950043 -0.2667648494243622
vn -0.9000465869903564 -0.33435073494911194 -0.27950993180274963
vn -0.9100939035415649 -0.40394169092178345 -0.09252142906188965
vn 0.9035776853561401 0.38563793897628784 0.18663011491298676
vn -0.8215360641479492 -0.4979672431945801 0.27768176794052124
vn 0.6640552878379822 0.09301871061325073 0.7418746948242188
vn -0.4113459289073944 -0.564520537853241 0.7156193852424622
vn 0.048041731119155884 0.2774679660797119 -0.9595329761505127
vn -0.7414715886116028 0.020722510293126106 -0.6706641912460327
vn -0.8610303997993469 -0.13232678174972534 -0.491036057472229
vn -0.9021545052528381 -0.41019707918167114 0.13362513482570648
vn 0.9349772930145264 0.34970250725746155 0.05937742069363594
vn -0.8685527443885803 -0.4542499780654907 0.1981745958328247
vn 0.7944885492324829 0.1539667248725891 0.5874370336532593
vn 0.6957408785820007 0.1051129475235939 0.7105602622032166
vn 0.22065581381320953 -0.2696162462234497 0.9373462796211243
vn -0.0078270910307765 0.24224337935447693 -0.9701839685440063
vn 0.5590834617614746 0.33595311641693115 -0.7579982280731201
vn -0.44017085433006287 0.0652545690536499 -0.8955397605895996
vn -0.722192645072937 -0.019564373418688774 -0.6914152503013611
vn -0.9467888474464417 -0.2541678845882416 -0.19745805859565735
vn 0.742736279964447 0.36321237683296204 -0.5625119805335999
vn -0.9611924290657043 -0.25697362422943115 -0.10036804527044296
vn 0.9161804914474487 0.3159668743610382 -0.2465326488018036
vn 0.8942700028419495 0.4225257337093353 -0.1474897563457489
vn -0.9661672115325928 -0.25025245547294617 -0.0624067448079586
vn 0.9295925498008728 0.3668336272239685 -0.03592759743332863
vn 0.9529613256454468 0.30276376008987427 0.014102744869887829
vn -0.8666361570358276 -0.47081029415130615 0.165164977312088
vn -0.6854395270347595 -0.48029300570487976 0.5472580194473267
vn 0.802169680595398 0.232685849070549 0.5498918890953064
vn -0.4956284463405609 -0.5377296209335327 0.6820552349090576
vn 0.3326857089996338 -0.12529996037483215 0.9346765279769897
vn -0.3168380856513977 -0.4542052745819092 0.8326531052589417
vn -0.39912036061286926 0.3315795063972473 -0.8548438549041748
vn 0.3411499559879303 0.29487499594688416 -0.8925611972808838
vn -0.05208088085055351 0.2344549149274826 -0.9707309007644653
vn -0.8702678084373474 0.14326685667037964 -0.4712839722633362
vn -0.6965969800949097 0.12137027084827423 -0.7071223258972168
vn 0.44705867767333984 0.2826806604862213 -0.8486638069152832
vn -0.9797138571739197 -0.1484721601009369 -0.13459868729114532
vn -0.9889576435089111 -0.13062123954296112 -0.07000627368688583
vn 0.7964020371437073 0.2693363428115845 -0.5414811372756958
vn 0.9231241941452026 0.23385857045650482 -0.3052079975605011
vn 0.9366665482521057 0.3137286603450775 0.15566015243530273
vn 0.916779100894928 0.20313270390033722 0.3438798189163208
vn 0.873595654964447 0.1949988603591919 0.4458768665790558
vn -0.7573767900466919 -0.48299935460090637 0.43942245841026306
vn -0.23662109673023224 -0.3791375160217285 0.8945754170417786
vn 0.30565783381462097 -0.2235751897096634 0.925520122051239
vn 0.1208384782075882 -0.36856499314308167 0.9217146635055542
vn -0.7727637887001038 0.3446654975414276 -0.5329557657241821
vn 0.19498039782047272 0.4706359803676605 -0.8605140447616577
vn -0.9825190901756287 0.12283343076705933 -0.13988639414310455
vn 0.7163097858428955 0.3697647750377655 -0.5917553901672363
vn 0.6970720887184143 0.27997153997421265 -0.6600807309150696
vn 0.9134337306022644 0.270529180765152 -0.3040604293346405
vn 0.9779739379882812 0.19971342384815216 0.06067593768239021
vn -0.9687387943267822 -0.23788876831531525 0.07038509845733643
vn -0.8701648712158203 -0.3438425064086914 0.35296663641929626
vn -0.9005117416381836 -0.305305540561676 0.30962422490119934
vn 0.9042759537696838 0.3155967593193054 0.2875477373600006
vn 0.6504230499267578 -0.004927035886794329 0.759556233882904
vn 0.7135373950004578 0.0942799523472786 0.6942447423934937
vn -0.47011658549308777 -0.45262759923934937 0.7577062845230103
vn 0.3158993721008301 -0.20674438774585724 0.9259937405586243
vn 0.29097381234169006 -0.1890135109424591 0.9378743171691895
vn -0.6479204297065735 0.6216855049133301 -0.44012078642845154
vn 0.43597954511642456 0.54142165184021 -0.7188772559165955
vn 0.9692157506942749 0.17459098994731903 0.17360550165176392
vn -0.9482365846633911 -0.21542271971702576 0.23332495987415314
vn -0.9423997402191162 -0.1294710785150528 0.3084154427051544
vn 0.972825288772583 0.0746610015630722 0.21917299926280975
vn -0.8691281676292419 -0.23971593379974365 0.4326113760471344
vn 0.8674110770225525 0.14368443191051483 0.47639572620391846
vn -0.6976871490478516 -0.40510761737823486 0.5908641815185547
vn 0.7519381642341614 0.08871868252754211 0.6532365083694458
vn -0.24636812508106232 -0.4265541136264801 0.8702610731124878
vn 0.061229437589645386 -0.2986423671245575 0.9523988962173462
vn 0.46065375208854675 0.1723649650812149 -0.8706827759742737
vn -0.8325902819633484 0.16691142320632935 0.5281420946121216
vn 0.8526849746704102 0.4683854579925537 0.23139464855194092
vn 0.6778878569602966 0.5364242196083069 0.5027098059654236
vn -0.9176990389823914 0.05340614542365074 0.3936704397201538
vn 0.9835183620452881 0.16293920576572418 0.07837402075529099
vn 0.9376764893531799 0.2783345580101013 0.20806896686553955
vn 0.7072288990020752 0.1964312195777893 0.6791480779647827
vn -0.6806306838989258 -0.29465314745903015 0.6707618236541748
vn -0.5773849487304688 -0.32271143794059753 0.7499893307685852
vn -0.23950740694999695 -0.1906130164861679 0.9519994258880615
vn -0.3174545168876648 -0.2520996034145355 0.9141490459442139
vn 0.32731613516807556 -0.14020808041095734 0.9344548583030701
vn 0.16939295828342438 -0.027054280042648315 0.985177218914032
vn 0.7818861603736877 0.6067141890525818 0.1433597058057785
vn -0.21765641868114471 0.315585196018219 0.9235971570014954
vn -0.07461359351873398 0.2987881302833557 0.9513981938362122
vn -0.538468599319458 0.1435706615447998 0.8303247094154358
vn 0.3194841742515564 0.19002890586853027 0.9283420443534851
vn 0.6015682816505432 0.07539436966180801 0.7952555418014526
vn -0.77544105052948 -0.14757893979549408 0.6139312982559204
vn 0.7406646609306335 0.13214130699634552 0.6587522625923157
vn 0.7288843989372253 -0.07049055397510529 0.6809983253479004
vn 0.5791073441505432 -0.09575681388378143 0.8096081614494324
vn -0.5278570055961609 -0.2599841058254242 0.808563768863678
vn -0.436445415019989 -0.07818036526441574 0.8963276743888855
vn 0.06052780523896217 -0.21872222423553467 0.9739081263542175
vn 0.4205198287963867 -0.0016013297718018293 0.9072819352149963
vn -0.034652795642614365 0.006362984888255596 0.9993791580200195
vn 0.12129843235015869 -0.04094548895955086 0.9917712211608887
f 1//1 2//2 3//3
f 4//4 1//1 3//3
f 3//3 2//2 5//5
f 3//3 5//5 4//4
f 6//6 4//4 5//5
f 7//7 8//8 1//1
f 8//8 9//9 2//2
f 8//8 2//2 1//1
f 1//1 10//10 7//7
f 4//4 11//11 10//10
f 4//4 10//10 1//1
f 5//5 12//12 6//6
f 6//6 12//12 13//13
f 4//4 6//6 11//11
f 14//14 15//15 16//16
f 16//16 17//17 8//8
f 14//14 16//16 8//8
f 14//14 8//8 7//7
f 8//8 17//17 9//9
f 9//9 18//18 2//2
f 2//2 18//18 5//5
f 18//18 12//12 5//5
f 19//19 11//11 6//6
f 13//13 19//19 6//6
f 20//20 17//17 16//16
f 20//20 16//16 15//15
f 21//21 20//20 15//15
f 22//22 9//9 17//17
f 15//15 7//7 23//23
f 14//14 7//7 15//15
f 23//23 7//7 24//24
f 22//22 25//25 9//9
f 24//24 7//7 10//10
f 10//10 11//11 24//24
f 9//9 25//25 18//18
f 18//18 25//25 26//26
f 11//11 19//19 27//27
f 18//18 26//26 28//28
f 18//18 28//28 12//12
f 26//26 29//29 28//28
f 12//12 28//28 13//13
f 30//30 28//28 31//31
f 13//13 28//28 30//30
f 28//28 29//29 31//31
f 30//30 31//31 29//29
f 21//21 32//32 20//20
f 33//33 34//34 21//21
f 17//17 35//35 22//22
f 20//20 35//35 17//17
f 33//33 15//15 23//23
f 21//21 15//15 33//33
f 23//23 36//36 33//33
f 22//22 37//37 38//38
f 39//39 36//36 23//23
f 24//24 40//40 39//39
f 38//38 41//41 25//25
f 22//22 38//38 25//25
f 40//40 24//24 11//11
f 41//41 42//42 43//43
f 41//41 43//43 25//25
f 25//25 43//43 26//26
f 26//26 43//43 44//44
f 26//26 44//44 45//45
f 19//19 46//46 27//27
f 26//26 45//45 29//29
f 47//47 29//29 45//45
f 19//19 30//30 46//46
f 19//19 13//13 30//30
f 48//48 29//29 47//47
f 46//46 29//29 48//48
f 30//30 29//29 46//46
f 49//49 32//32 34//34
f 34//34 50//50 49//49
f 51//51 50//50 34//34
f 20//20 32//32 35//35
f 32//32 21//21 34//34
f 52//52 51//51 34//34
f 52//52 34//34 33//33
f 22//22 53//53 37//37
f 24//24 39//39 23//23
f 38//38 54//54 41//41
f 55//55 41//41 54//54
f 44//44 43//43 42//42
f 11//11 27//27 40//40
f 46//46 56//56 27//27
f 45//45 44//44 57//57
f 56//56 46//46 58//58
f 57//57 47//47 45//45
f 58//58 46//46 48//48
f 48//48 47//47 57//57
f 59//59 60//60 50//50
f 61//61 62//62 63//63
f 60//60 61//61 50//50
f 50//50 61//61 63//63
f 51//51 59//59 50//50
f 62//62 64//64 63//63
f 49//49 50//50 63//63
f 63//63 64//64 32//32
f 49//49 63//63 32//32
f 35//35 64//64 53//53
f 64//64 35//35 32//32
f 52//52 65//65 51//51
f 35//35 53//53 22//22
f 33//33 36//36 65//65
f 52//52 33//33 65//65
f 65//65 36//36 39//39
f 38//38 37//37 66//66
f 66//66 54//54 38//38
f 40//40 67//67 68//68
f 40//40 68//68 39//39
f 55//55 42//42 41//41
f 40//40 27//27 67//67
f 67//67 27//27 56//56
f 69//69 44//44 42//42
f 69//69 57//57 44//44
f 70//70 58//58 71//71
f 56//56 58//58 70//70
f 71//71 57//57 69//69
f 71//71 48//48 57//57
f 58//58 48//48 71//71
f 72//72 73//73 74//74
f 74//74 75//75 72//72
f 61//61 74//74 73//73
f 74//74 61//61 60//60
f 76//76 75//75 74//74
f 74//74 60//60 76//76
f 61//61 73//73 62//62
f 59//59 76//76 60//60
f 76//76 59//59 77//77
f 62//62 78//78 79//79
f 59//59 51//51 80//80
f 64//64 62//62 79//79
f 80//80 51//51 81//81
f 64//64 79//79 53//53
f 53//53 79//79 37//37
f 81//81 51//51 65//65
f 37//37 82//82 66//66
f 65//65 39//39 83//83
f 55//55 54//54 66//66
f 83//83 39//39 68//68
f 42//42 55//55 84//84
f 42//42 84//84 69//69
f 69//69 84//84 70//70
f 67//67 56//56 85//85
f 71//71 69//69 70//70
f 56//56 70//70 85//85
f 86//86 72//72 75//75
f 75//75 76//76 87//87
f 87//87 76//76 88//88
f 88//88 76//76 77//77
f 77//77 80//80 89//89
f 77//77 59//59 80//80
f 79//79 90//90 37//37
f 81//81 65//65 91//91
f 91//91 65//65 83//83
f 82//82 92//92 66//66
f 92//92 55//55 66//66
f 92//92 93//93 55//55
f 55//55 93//93 84//84
f 84//84 93//93 94//94
f 68//68 67//67 85//85
f 94//94 70//70 84//84
f 85//85 70//70 94//94
f 95//95 96//96 86//86
f 95//95 86//86 97//97
f 98//98 95//95 97//97
f 98//98 97//97 88//88
f 99//99 98//98 88//88
f 96//96 100//100 72//72
f 96//96 72//72 86//86
f 86//86 75//75 97//97
f 97//97 75//75 87//87
f 88//88 97//97 87//87
f 100//100 73//73 72//72
f 101//101 99//99 88//88
f 73//73 100//100 102//102
f 62//62 102//102 103//103
f 73//73 102//102 62//62
f 104//104 101//101 88//88
f 77//77 104//104 88//88
f 103//103 105//105 78//78
f 103//103 78//78 62//62
f 78//78 105//105 79//79
f 79//79 105//105 106//106
f 80//80 81//81 89//89
f 79//79 106//106 90//90
f 107//107 89//89 81//81
f 81//81 91//91 107//107
f 90//90 82//82 37//37
f 83//83 108//108 91//91
f 82//82 109//109 92//92
f 110//110 83//83 68//68
f 93//93 92//92 111//111
f 110//110 68//68 112//112
f 68//68 85//85 112//112
f 111//111 94//94 93//93
f 112//112 94//94 111//111
f 85//85 94//94 112//112
f 113//113 114//114 115//115
f 116//116 113//113 117//117
f 117//117 113//113 115//115
f 115//115 114//114 118//118
f 115//115 118//118 95//95
f 117//117 115//115 95//95
f 95//95 98//98 117//117
f 119//119 117//117 98//98
f 119//119 120//120 117//117
f 118//118 121//121 96//96
f 95//95 118//118 96//96
f 96//96 121//121 122//122
f 100//100 96//96 122//122
f 98//98 99//99 119//119
f 100//100 122//122 102//102
f 102//102 123//123 103//103
f 89//89 104//104 77//77
f 124//124 90//90 106//106
f 125//125 82//82 90//90
f 91//91 126//126 107//107
f 126//126 91//91 108//108
f 108//108 110//110 127//127
f 108//108 83//83 110//110
f 128//128 92//92 109//109
f 128//128 129//129 92//92
f 129//129 111//111 92//92
f 128//128 110//110 129//129
f 127//127 110//110 128//128
f 112//112 111//111 129//129
f 110//110 112//112 129//129
f 130//130 131//131 113//113
f 132//132 130//130 113//113
f 114//114 131//131 133//133
f 134//134 114//114 133//133
f 113//113 131//131 114//114
f 113//113 116//116 132//132
f 132//132 116//116 120//120
f 114//114 134//134 118//118
f 116//116 117//117 120//120
f 121//121 134//134 135//135
f 118//118 134//134 121//121
f 122//122 136//136 102//102
f 119//119 99//99 137//137
f 99//99 138//138 137//137
f 136//136 123//123 102//102
f 101//101 139//139 138//138
f 99//99 101//101 138//138
f 123//123 140//140 103//103
f 140//140 105//105 103//103
f 104//104 139//139 101//101
f 140//140 124//124 105//105
f 139//139 104//104 89//89
f 105//105 124//124 106//106
f 126//126 89//89 107//107
f 124//124 125//125 90//90
f 141//141 125//125 124//124
f 125//125 142//142 82//82
f 125//125 141//141 142//142
f 126//126 108//108 143//143
f 82//82 142//142 109//109
f 108//108 127//127 143//143
f 144//144 145//145 142//142
f 145//145 144//144 127//127
f 109//109 142//142 128//128
f 145//145 128//128 142//142
f 127//127 128//128 145//145
f 146//146 147//147 130//130
f 147//147 133//133 131//131
f 130//130 147//147 131//131
f 135//135 134//134 133//133
f 121//121 135//135 148//148
f 149//149 150//150 120//120
f 122//122 148//148 151//151
f 148//148 122//122 121//121
f 120//120 119//119 149//149
f 119//119 137//137 149//149
f 149//149 137//137 152//152
f 122//122 151//151 136//136
f 151//151 153//153 136//136
f 138//138 152//152 137//137
f 139//139 89//89 154//154
f 141//141 124//124 155//155
f 89//89 126//126 154//154
f 126//126 143//143 154//154
f 154//154 143//143 156//156
f 156//156 143//143 157//157
f 141//141 144//144 142//142
f 157//157 144//144 141//141
f 157//157 127//127 144//144
f 143//143 127//127 157//157
f 146//146 158//158 147//147
f 146//146 130//130 159//159
f 160//160 147//147 161//161
f 158//158 161//161 147//147
f 133//133 147//147 160//160
f 159//159 130//130 162//162
f 160//160 163//163 133//133
f 130//130 132//132 162//162
f 163//163 135//135 133//133
f 162//162 132//132 150//150
f 135//135 163//163 164//164
f 120//120 150//150 132//132
f 148//148 135//135 164//164
f 153//153 165//165 123//123
f 136//136 153//153 123//123
f 138//138 139//139 166//166
f 167//167 138//138 166//166
f 167//167 166//166 168//168
f 139//139 154//154 166//166
f 123//123 165//165 140//140
f 168//168 166//166 169//169
f 140//140 165//165 155//155
f 169//169 170//170 171//171
f 154//154 169//169 166//166
f 140//140 155//155 124//124
f 156//156 170//170 169//169
f 154//154 156//156 169//169
f 155//155 170//170 141//141
f 170//170 157//157 141//141
f 156//156 157//157 170//170
f 172//172 158//158 146//146
f 158//158 172//172 161//161
f 146//146 173//173 172//172
f 173//173 161//161 172//172
f 173//173 174//174 161//161
f 146//146 159//159 173//173
f 174//174 173//173 175//175
f 175//175 173//173 159//159
f 176//176 161//161 174//174
f 175//175 159//159 162//162
f 160//160 177//177 163//163
f 178//178 162//162 150//150
f 163//163 179//179 164//164
f 179//179 163//163 177//177
f 148//148 164//164 179//179
f 150//150 149//149 178//178
f 148//148 180//180 151//151
f 181//181 148//148 179//179
f 180//180 148//148 181//181
f 182//182 183//183 178//178
f 149//149 152//152 178//178
f 152//152 182//182 178//178
f 151//151 180//180 153//153
f 180//180 181//181 184//184
f 184//184 182//182 167//167
f 152//152 138//138 182//182
f 180//180 185//185 153//153
f 185//185 180//180 184//184
f 138//138 167//167 182//182
f 153//153 185//185 165//165
f 185//185 171//171 165//165
f 168//168 171//171 185//185
f 184//184 168//168 185//185
f 167//167 168//168 184//184
f 168//168 169//169 171//171
f 165//165 170//170 155//155
f 171//171 170//170 165//165
f 161//161 176//176 160//160
f 160//160 176//176 177//177
f 175//175 186//186 174//174
f 174//174 186//186 176//176
f 176//176 186//186 177//177
f 162//162 178//178 175//175
f 179//179 177//177 187//187
f 186//186 187//187 177//177
f 186//186 183//183 187//187
f 175//175 183//183 186//186
f 175//175 178//178 183//183
f 187//187 181//181 179//179
f 183//183 182//182 187//187
f 181//181 187//187 184//184
f 182//182 184//184 187//187
