# Generated by Visualization Toolkit
v -231.01004028320312 -150.250732421875 384.0049133300781
v -233.52418518066406 -150.78111267089844 382.6128845214844
v -234.52130126953125 -149.89793395996094 383.7134094238281
v -235.48414611816406 -150.64154052734375 383.247802734375
v -228.18524169921875 -152.19529724121094 383.8849182128906
v -228.8718719482422 -152.78759765625 382.5916748046875
v -232.8560028076172 -152.8920440673828 381.8648681640625
v -235.1260223388672 -152.7139434814453 382.60125732421875
v -226.2696075439453 -154.3350372314453 383.2337341308594
v -228.3928985595703 -154.50161743164062 382.08990478515625
v -230.88351440429688 -154.99404907226562 382.56536865234375
v -234.46237182617188 -155.35316467285156 383.5069580078125
v -225.3538055419922 -155.28756713867188 384.5840148925781
v -226.17247009277344 -156.40403747558594 382.98529052734375
v -229.83078002929688 -156.39093017578125 383.197021484375
v -231.39236450195312 -155.95108032226562 383.8115539550781
v -227.55787658691406 -158.1582794189453 385.12945556640625
v -234.34068298339844 -149.5191192626953 385.5483093261719
v -231.80667114257812 -149.9274139404297 386.490966796875
v -236.70828247070312 -150.4639129638672 385.2789306640625
v -228.85015869140625 -151.6202850341797 385.96014404296875
v -237.02291870117188 -152.02003479003906 385.7441101074219
v -225.7079315185547 -154.09864807128906 386.31005859375
v -234.81979370117188 -155.63320922851562 384.8983459472656
v -235.0500946044922 -154.8676300048828 386.63226318359375
v -225.74867248535156 -156.6660919189453 384.74774169921875
v -231.99880981445312 -156.17677307128906 385.6427307128906
v -227.32980346679688 -158.5596160888672 387.17388916015625
v -229.11415100097656 -157.74729919433594 385.6117248535156
v -233.08636474609375 -150.2328338623047 388.0837097167969
v -235.73538208007812 -149.92828369140625 386.845458984375
v -236.29226684570312 -150.50669860839844 387.66522216796875
v -230.5134735107422 -151.33070373535156 388.0549621582031
v -236.90774536132812 -152.4048309326172 387.30108642578125
v -225.30072021484375 -155.2591094970703 387.5552062988281
v -225.5004119873047 -156.30580139160156 387.8472900390625
v -230.55093383789062 -157.09671020507812 387.95147705078125
v -232.45176696777344 -155.32839965820312 388.442626953125
v -228.62310791015625 -158.56793212890625 386.7361145019531
v -231.8311767578125 -151.42796325683594 388.8206481933594
v -232.9020233154297 -152.28903198242188 389.4654846191406
v -235.57571411132812 -151.47088623046875 388.477783203125
v -227.26148986816406 -153.67811584472656 390.6903991699219
v -232.62078857421875 -154.31234741210938 390.5066833496094
v -233.7061004638672 -153.47598266601562 388.9573669433594
v -227.50405883789062 -157.52061462402344 389.51318359375
v -229.6100311279297 -157.5790557861328 390.0695495605469
v -229.3326416015625 -153.56253051757812 392.73687744140625
v -231.24913024902344 -154.3782196044922 393.86224365234375
v -231.8992156982422 -154.7849578857422 393.60711669921875
v -227.23291015625 -154.7333984375 392.070556640625
v -231.67782592773438 -155.87306213378906 393.2821960449219
v -227.68338012695312 -156.57078552246094 392.0817565917969
v -229.48512268066406 -156.7807159423828 393.8322448730469
v -228.9934844970703 -156.0595703125 393.77825927734375
vn 0.33863312005996704 0.8839742541313171 -0.32236185669898987
vn -0.03434064984321594 0.5323001742362976 -0.8458589315414429
vn -0.1590026617050171 0.8940989375114441 -0.4186948239803314
vn -0.5038484334945679 0.4946584701538086 -0.7081312537193298
vn 0.59409099817276 0.7521993517875671 -0.28504762053489685
vn 0.3419450521469116 0.520581841468811 -0.7823478579521179
vn -0.10143238306045532 -0.055076964199543 -0.9933167099952698
vn -0.6320199370384216 -0.04093414917588234 -0.7738702893257141
vn 0.6886881589889526 0.44302353262901306 -0.5739676356315613
vn 0.15119756758213043 -0.09649524837732315 -0.9837825298309326
vn -0.1801379770040512 -0.5562250018119812 -0.8112730979919434
vn -0.4551696181297302 -0.6326317191123962 -0.6265761852264404
vn 0.9732874631881714 0.07914818823337555 -0.21551594138145447
vn 0.5622324347496033 -0.42758414149284363 -0.7078605890274048
vn -0.2658637464046478 -0.7473729252815247 -0.608892560005188
vn -0.24462030827999115 -0.8838236927986145 -0.39876866340637207
vn 0.09389296174049377 -0.9138396978378296 -0.3950711488723755
vn -0.06366248428821564 0.9979698657989502 -0.0018396019004285336
vn 0.3383536636829376 0.902331531047821 0.2670481503009796
vn -0.7485037446022034 0.6236562132835388 -0.22537769377231598
vn 0.5468209385871887 0.8300906419754028 0.1092539131641388
vn -0.9652559161186218 -0.2189888060092926 -0.14256542921066284
vn 0.7795682549476624 0.626284658908844 -0.006395044270902872
vn -0.4845699071884155 -0.874751627445221 -0.0012631407007575035
vn -0.6602706909179688 -0.6627299189567566 0.3533153533935547
vn 0.8438043594360352 -0.5181600451469421 -0.13965781033039093
vn -0.40280434489250183 -0.9125081300735474 -0.07125750184059143
vn 0.40254324674606323 -0.9085090756416321 0.11211708188056946
vn -0.47021180391311646 -0.833484411239624 -0.2901804447174072
vn 0.014208519831299782 0.7942798137664795 0.6073859930038452
vn -0.30193936824798584 0.9286448955535889 0.2155255675315857
vn -0.6853570342063904 0.5470709800720215 0.4806237518787384
vn 0.35070621967315674 0.8651074767112732 0.3586001992225647
vn -0.8166027665138245 -0.25047215819358826 0.5200227499008179
vn 0.9792041182518005 0.1323661357164383 0.15374834835529327
vn 0.8649030327796936 -0.433117538690567 0.2536768615245819
vn -0.6128444075584412 -0.7902006506919861 0.002190465573221445
vn -0.6385458111763 -0.7255756855010986 0.25651365518569946
vn -0.3507711887359619 -0.9293003678321838 -0.11558756977319717
vn 0.08449363708496094 0.8189103007316589 0.5676679015159607
vn -0.5166956782341003 0.43048107624053955 0.7400755286216736
vn -0.41270729899406433 0.17074528336524963 0.8947171568870544
vn 0.6236660480499268 0.721095860004425 0.3017638623714447
vn -0.9315680861473083 -0.21367917954921722 0.2941465377807617
vn -0.6273013949394226 -0.3425867259502411 0.6993764042854309
vn 0.4146898686885834 -0.8467862010002136 0.3331448435783386
vn -0.25228527188301086 -0.9436661005020142 0.2141178399324417
vn 0.32087451219558716 0.7317923307418823 0.6012649536132812
vn -0.1673979014158249 0.4946490526199341 0.85281902551651
vn -0.7504350543022156 -0.042604319751262665 0.6595696806907654
vn 0.803909957408905 0.1911308467388153 0.5632031559944153
vn -0.726105809211731 -0.631720244884491 0.2714774012565613
vn 0.7157824635505676 -0.4910812973976135 0.4964822828769684
vn 0.037471503019332886 -0.65049147605896 0.7585886716842651
vn 0.5023350715637207 0.05373118072748184 0.8630020618438721
f 1//1 2//2 3//3
f 2//2 4//4 3//3
f 5//5 6//6 1//1
f 1//1 6//6 2//2
f 2//2 6//6 7//7
f 4//4 2//2 8//8
f 8//8 2//2 7//7
f 6//6 5//5 9//9
f 7//7 6//6 10//10
f 6//6 9//9 10//10
f 7//7 10//10 11//11
f 8//8 7//7 12//12
f 12//12 7//7 11//11
f 9//9 13//13 14//14
f 9//9 14//14 10//10
f 15//15 10//10 14//14
f 15//15 16//16 11//11
f 15//15 11//11 10//10
f 12//12 11//11 16//16
f 15//15 14//14 17//17
f 3//3 18//18 1//1
f 1//1 18//18 19//19
f 4//4 20//20 3//3
f 3//3 20//20 18//18
f 1//1 21//21 5//5
f 20//20 8//8 22//22
f 4//4 8//8 20//20
f 9//9 5//5 23//23
f 9//9 23//23 13//13
f 24//24 25//25 22//22
f 24//24 22//22 12//12
f 12//12 22//22 8//8
f 14//14 13//13 26//26
f 27//27 16//16 15//15
f 12//12 16//16 24//24
f 16//16 27//27 24//24
f 17//17 26//26 28//28
f 17//17 14//14 26//26
f 29//29 15//15 17//17
f 27//27 15//15 29//29
f 18//18 30//30 19//19
f 18//18 31//31 30//30
f 20//20 31//31 18//18
f 32//32 31//31 20//20
f 19//19 21//21 1//1
f 33//33 21//21 19//19
f 20//20 22//22 32//32
f 32//32 22//22 34//34
f 21//21 23//23 5//5
f 22//22 25//25 34//34
f 13//13 23//23 35//35
f 13//13 35//35 26//26
f 35//35 36//36 26//26
f 27//27 37//37 38//38
f 24//24 27//27 38//38
f 38//38 25//25 24//24
f 36//36 28//28 26//26
f 29//29 17//17 39//39
f 39//39 37//37 29//29
f 37//37 27//27 29//29
f 39//39 17//17 28//28
f 30//30 40//40 19//19
f 30//30 31//31 32//32
f 40//40 33//33 19//19
f 40//40 30//30 41//41
f 32//32 42//42 30//30
f 42//42 41//41 30//30
f 32//32 34//34 42//42
f 23//23 21//21 43//43
f 21//21 33//33 43//43
f 44//44 41//41 45//45
f 42//42 45//45 41//41
f 34//34 25//25 45//45
f 34//34 45//45 42//42
f 23//23 43//43 35//35
f 44//44 45//45 38//38
f 45//45 25//25 38//38
f 36//36 46//46 28//28
f 28//28 47//47 39//39
f 46//46 47//47 28//28
f 39//39 47//47 37//37
f 48//48 43//43 33//33
f 40//40 48//48 33//33
f 49//49 48//48 40//40
f 49//49 40//40 41//41
f 49//49 41//41 50//50
f 50//50 41//41 44//44
f 43//43 51//51 35//35
f 48//48 51//51 43//43
f 44//44 38//38 52//52
f 53//53 36//36 51//51
f 51//51 36//36 35//35
f 38//38 37//37 52//52
f 36//36 53//53 46//46
f 53//53 54//54 46//46
f 46//46 54//54 47//47
f 52//52 37//37 47//47
f 53//53 55//55 54//54
f 53//53 51//51 55//55
f 50//50 44//44 52//52
f 54//54 52//52 47//47
f 48//48 55//55 51//51
f 55//55 48//48 49//49
f 54//54 55//55 49//49
f 52//52 54//54 50//50
f 50//50 54//54 49//49
