# Generated by Visualization Toolkit
v -62.83973693847656 -188.92068481445312 101.00856018066406
v -61.14775085449219 -187.79005432128906 103.56553649902344
v -59.39720153808594 -190.2967071533203 102.33158874511719
v -62.847320556640625 -189.4430389404297 100.13796997070312
v -67.52928161621094 -190.63548278808594 101.41523742675781
v -67.58381652832031 -188.11944580078125 102.73554992675781
v -69.69090270996094 -189.16769409179688 104.1058349609375
v -61.491790771484375 -191.55859375 100.93037414550781
v -64.24568176269531 -192.52105712890625 100.79290771484375
v -57.88862609863281 -191.95816040039062 103.21916198730469
v -67.45143127441406 -193.2774658203125 102.09693908691406
v -69.39326477050781 -192.18194580078125 103.796142578125
v -57.99674987792969 -193.69415283203125 103.14002990722656
v -62.076568603515625 -194.48837280273438 102.01934814453125
v -64.14810180664062 -195.68536376953125 103.09963989257812
v -59.577484130859375 -188.3016357421875 105.35295104980469
v -59.111480712890625 -196.16078186035156 105.06932067871094
v -66.19047546386719 -196.19947814941406 104.79331970214844
v -62.32147216796875 -197.16058349609375 105.90191650390625
v -62.84651184082031 -186.42689514160156 107.59880065917969
v -58.21748352050781 -190.76284790039062 106.25315856933594
v -56.71014404296875 -191.8129119873047 107.3131103515625
v -55.17677307128906 -192.8414764404297 110.12602233886719
v -69.58949279785156 -192.91183471679688 106.20623779296875
v -55.9171142578125 -195.7760467529297 109.038818359375
v -67.17253112792969 -196.05181884765625 107.37542724609375
v -58.976593017578125 -188.0400390625 109.634521484375
v -66.54481506347656 -186.41348266601562 108.61042785644531
v -69.23612976074219 -188.55470275878906 107.54086303710938
v -58.915557861328125 -190.77218627929688 107.92388916015625
v -58.678314208984375 -190.6507110595703 109.00538635253906
v -55.45556640625 -190.46142578125 112.31254577636719
v -69.53959655761719 -191.75241088867188 115.38096618652344
v -57.7037353515625 -197.38336181640625 108.53242492675781
v -59.40019226074219 -186.66603088378906 113.88188171386719
v -56.954437255859375 -188.60585021972656 112.42581176757812
v -69.44197082519531 -189.7172393798828 116.50892639160156
v -68.68486022949219 -194.61886596679688 114.31851196289062
v -61.635162353515625 -192.06532287597656 109.2392578125
v -55.9185791015625 -197.0892791748047 113.04981994628906
v -58.47840881347656 -198.58303833007812 111.73286437988281
v -61.95866394042969 -199.1175537109375 112.20458984375
v -64.52107238769531 -199.04049682617188 115.42326354980469
v -66.28257751464844 -198.57516479492188 118.7733154296875
v -65.23728942871094 -185.65231323242188 115.12313842773438
v -67.51518249511719 -186.79957580566406 116.82502746582031
v -54.23210144042969 -194.8320770263672 118.78773498535156
v -67.67994689941406 -197.317138671875 119.42570495605469
v -59.920562744140625 -185.44992065429688 122.30863952636719
v -58.00007629394531 -199.02322387695312 117.36912536621094
v -57.159149169921875 -186.89906311035156 122.00497436523438
v -69.31730651855469 -188.61485290527344 120.56427001953125
v -54.31736755371094 -191.95347595214844 120.82955932617188
v -62.35902404785156 -199.5554962158203 120.05006408691406
v -62.60188293457031 -184.7236785888672 123.41340637207031
v -55.665557861328125 -197.2108917236328 119.47459411621094
v -65.34934997558594 -184.80604553222656 124.81944274902344
v -67.62724304199219 -186.0775146484375 123.90586853027344
v -70.68296813964844 -190.48898315429688 122.67204284667969
v -54.227294921875 -195.185546875 122.15257263183594
v -70.17884826660156 -194.10289001464844 124.72233581542969
v -59.02836608886719 -198.88218688964844 122.75869750976562
v -61.43748474121094 -199.27317810058594 123.10299682617188
v -65.53684997558594 -198.7869873046875 123.05360412597656
v -56.37535095214844 -186.25469970703125 129.9718780517578
v -54.96260070800781 -189.04898071289062 126.36805725097656
v -71.20262145996094 -191.5714111328125 127.04566955566406
v -54.10975646972656 -192.20716857910156 126.59860229492188
v -56.22181701660156 -197.02001953125 124.70744323730469
v -67.86277770996094 -196.97535705566406 125.64994812011719
v -68.89451599121094 -185.92445373535156 128.599853515625
v -63.92524719238281 -196.8717803955078 132.0938262939453
v -60.55189514160156 -183.38888549804688 132.24867248535156
v -63.44294738769531 -183.40463256835938 129.00582885742188
v -71.14292907714844 -187.45303344726562 131.4477996826172
v -58.787139892578125 -196.40513610839844 132.2054443359375
v -66.25718688964844 -196.2800750732422 131.4558563232422
v -58.33695983886719 -184.77394104003906 130.04200744628906
v -68.74986267089844 -183.4087371826172 134.6845703125
v -54.18772888183594 -190.65724182128906 130.8291778564453
v -71.44361877441406 -190.17019653320312 130.7071075439453
v -55.53150939941406 -193.06646728515625 134.59646606445312
v -57.2781982421875 -193.7717742919922 139.22019958496094
v -69.18406677246094 -194.3942413330078 130.98707580566406
v -61.458831787109375 -196.87069702148438 132.72877502441406
v -65.77381896972656 -181.50885009765625 141.02584838867188
v -72.15455627441406 -189.18272399902344 135.45132446289062
v -58.69154357910156 -183.41781616210938 139.15586853027344
v -71.05973815917969 -184.2286376953125 137.71878051757812
v -55.9647216796875 -186.42381286621094 139.25726318359375
v -54.96015930175781 -190.1258544921875 136.67677307128906
v -71.33000183105469 -191.2424774169922 139.2093048095703
v -65.64100646972656 -195.4674530029297 139.78677368164062
v -72.75340270996094 -186.72265625 138.8968048095703
v -72.85087585449219 -188.5739288330078 140.01129150390625
v -70.12498474121094 -192.25865173339844 141.34765625
v -62.29913330078125 -195.84800720214844 139.76870727539062
v -62.41889953613281 -181.6785430908203 140.3651123046875
v -68.25770568847656 -181.36865234375 143.83348083496094
v -69.58930969238281 -182.52203369140625 142.01092529296875
v -59.90208435058594 -194.04429626464844 143.9006805419922
v -55.69749450683594 -185.1927032470703 142.89198303222656
v -72.25447082519531 -186.5294189453125 141.99497985839844
v -54.80204772949219 -188.38046264648438 142.9047393798828
v -55.1806640625 -190.4420166015625 144.14659118652344
v -62.909332275390625 -179.85882568359375 144.858642578125
v -70.43376159667969 -183.0455780029297 145.8097381591797
v -57.69422912597656 -183.05941772460938 142.93508911132812
v -67.75080871582031 -193.25083923339844 143.64918518066406
v -65.54991149902344 -178.1698455810547 148.20806884765625
v -59.79693603515625 -180.46627807617188 145.1297607421875
v -53.64424133300781 -185.8856201171875 146.1006317138672
v -70.57035827636719 -185.78311157226562 147.00262451171875
v -70.06980895996094 -188.9228057861328 145.93409729003906
v -55.763031005859375 -191.28375244140625 146.0273895263672
v -63.349578857421875 -194.03314208984375 145.41860961914062
v -65.40724182128906 -193.10279846191406 146.64561462402344
v -58.61430358886719 -176.7596435546875 149.9433135986328
v -54.75892639160156 -181.86489868164062 146.60739135742188
v -68.09028625488281 -179.50115966796875 148.9005126953125
v -67.41459655761719 -190.57025146484375 148.25274658203125
v -57.005889892578125 -191.7152557373047 149.09303283691406
v -61.012054443359375 -174.80874633789062 152.04714965820312
v -52.32958984375 -181.22373962402344 149.40264892578125
v -69.40007019042969 -180.6549072265625 152.6053924560547
v -51.67390441894531 -184.53497314453125 150.03355407714844
v -52.128173828125 -186.77780151367188 151.17274475097656
v -53.65983581542969 -188.8264617919922 150.32875061035156
v -58.289703369140625 -191.58534240722656 150.775390625
v -63.00123596191406 -174.44284057617188 153.5249481201172
v -66.34120178222656 -177.05221557617188 152.1200408935547
v -53.72325134277344 -176.55764770507812 151.6812744140625
v -50.7469482421875 -177.1338653564453 153.9110107421875
v -49.95216369628906 -181.8126220703125 153.2398681640625
v -69.05952453613281 -181.93287658691406 154.09840393066406
v -67.70149230957031 -185.6297607421875 153.0401153564453
v -64.69709777832031 -188.16973876953125 153.76724243164062
v -60.06748962402344 -190.563232421875 153.1774139404297
v -55.45939636230469 -170.68624877929688 155.91665649414062
v -53.134979248046875 -188.00399780273438 155.25927734375
v -54.9832763671875 -189.1204833984375 155.28579711914062
v -61.68815612792969 -189.24290466308594 154.48370361328125
v -65.21269226074219 -174.73765563964844 155.60328674316406
v -67.43824768066406 -177.9766387939453 156.7188262939453
v -49.242950439453125 -183.33004760742188 156.11802673339844
v -61.53337097167969 -168.94590759277344 158.5967559814453
v -58.306365966796875 -169.0070343017578 157.3386688232422
v -63.87110900878906 -170.47097778320312 158.99478149414062
v -52.12049865722656 -171.52755737304688 157.19610595703125
v -48.03913879394531 -177.79928588867188 158.4449920654297
v -65.36082458496094 -183.5403594970703 157.03790283203125
v -49.98602294921875 -184.9939422607422 158.06370544433594
v -51.6854248046875 -186.33523559570312 160.95492553710938
v -54.85870361328125 -187.2706756591797 158.72874450683594
v -55.4285888671875 -166.43531799316406 160.4006805419922
v -52.16969299316406 -167.38681030273438 161.14572143554688
v -65.05949401855469 -170.6204376220703 162.20687866210938
v -66.09675598144531 -175.37545776367188 159.5538787841797
v -66.60633850097656 -179.28717041015625 159.49501037597656
v -46.91461181640625 -177.92840576171875 162.58242797851562
v -57.28746032714844 -186.54376220703125 158.8950653076172
v -59.052276611328125 -165.1046600341797 162.77777099609375
v -48.59159851074219 -168.5775146484375 164.27926635742188
v -46.586212158203125 -172.3601531982422 165.11668395996094
v -65.52110290527344 -176.3592529296875 162.29014587402344
v -48.38079833984375 -182.59671020507812 163.9254913330078
v -59.59660339355469 -180.18421936035156 163.83282470703125
v -65.16517639160156 -180.03106689453125 160.74270629882812
v -55.471405029296875 -163.91482543945312 162.9106903076172
v -51.62837219238281 -164.52389526367188 163.67173767089844
v -61.29988098144531 -165.77330017089844 163.78073120117188
v -54.03688049316406 -184.70791625976562 163.58343505859375
v -50.586212158203125 -159.40415954589844 168.36415100097656
v -53.604339599609375 -161.0929412841797 166.13938903808594
v -56.62413024902344 -161.84500122070312 166.05352783203125
v -63.28630065917969 -166.50253295898438 166.5811309814453
v -64.58222961425781 -170.6614990234375 167.9181671142578
v -63.31524658203125 -173.17935180664062 167.84811401367188
v -62.987762451171875 -175.86146545410156 165.7200164794922
v -47.4466552734375 -178.44200134277344 166.91741943359375
v -48.4874267578125 -181.9165802001953 166.027099609375
v -50.3197021484375 -182.67660522460938 165.8428192138672
v -53.18025207519531 -158.26248168945312 169.69744873046875
v -57.28825378417969 -161.0979461669922 167.81224060058594
v -49.25337219238281 -162.35031127929688 166.86990356445312
v -46.599609375 -167.8489532470703 167.84384155273438
v -64.14447021484375 -167.45138549804688 170.5609130859375
v -45.78834533691406 -169.44688415527344 170.314697265625
v -46.366851806640625 -175.66156005859375 167.33627319335938
v -55.09666442871094 -178.17135620117188 168.43104553222656
v -46.97607421875 -160.0341796875 170.12709045410156
v -62.787872314453125 -172.93817138671875 170.18740844726562
v -46.78282165527344 -174.197509765625 171.06752014160156
v -59.89471435546875 -175.0791473388672 169.07879638671875
v -56.2313232421875 -176.42041015625 170.41490173339844
v -51.68853759765625 -177.8473663330078 170.25453186035156
v -48.828765869140625 -178.19029235839844 169.2276153564453
v -49.56797790527344 -157.5346221923828 171.53196716308594
v -55.631378173828125 -158.73025512695312 171.38369750976562
v -56.778472900390625 -158.64984130859375 174.3767852783203
v -44.848236083984375 -161.14935302734375 173.9579620361328
v -64.22071838378906 -170.515869140625 171.8565673828125
v -45.935089111328125 -169.38626098632812 173.33738708496094
v -53.174041748046875 -156.79251098632812 173.8748321533203
v -46.94349670410156 -157.103759765625 174.5350341796875
v -61.858978271484375 -163.54190063476562 174.21780395507812
v -45.06419372558594 -166.96759033203125 173.5933837890625
v -46.68904113769531 -168.96893310546875 176.61968994140625
v -64.75711059570312 -171.0896759033203 174.397216796875
v -61.770355224609375 -173.79957580566406 175.6380157470703
v -55.03251647949219 -175.76904296875 173.62460327148438
v -49.56990051269531 -175.0754852294922 173.22128295898438
v -50.167633056640625 -155.60055541992188 175.82925415039062
v -58.13536071777344 -159.74887084960938 178.5115966796875
v -62.642669677734375 -164.63133239746094 176.991943359375
v -64.05879211425781 -167.97390747070312 176.80067443847656
v -52.521759033203125 -154.25259399414062 179.49957275390625
v -44.44490051269531 -157.5129852294922 178.77340698242188
v -44.090606689453125 -160.0592498779297 180.49009704589844
v -45.035125732421875 -163.35162353515625 180.96090698242188
v -63.269775390625 -169.04837036132812 178.5735626220703
v -48.47212219238281 -169.9583740234375 178.03298950195312
v -62.68464660644531 -172.6146697998047 177.00201416015625
v -55.07005310058594 -174.0654754638672 177.47080993652344
v -49.145294189453125 -153.30776977539062 179.66697692871094
v -46.493896484375 -154.7881317138672 178.80738830566406
v -55.73699951171875 -156.77149963378906 179.28932189941406
v -62.38435363769531 -165.53036499023438 179.2203826904297
v -52.003509521484375 -170.0796356201172 180.45098876953125
v -61.430419921875 -171.10079956054688 179.29139709472656
v -59.410491943359375 -172.95516967773438 178.77708435058594
v -47.4813232421875 -150.7775421142578 182.3201446533203
v -50.369842529296875 -151.24832153320312 182.13873291015625
v -44.66117858886719 -153.7151641845703 181.687744140625
v -43.42340087890625 -156.65155029296875 182.10617065429688
v -54.61000061035156 -153.7451934814453 182.94143676757812
v -56.72154235839844 -158.39549255371094 182.65835571289062
v -58.22380065917969 -161.50816345214844 181.8800048828125
v -47.17332458496094 -164.14480590820312 184.09115600585938
v -59.4119873046875 -166.95135498046875 181.7219696044922
v -50.74940490722656 -168.0028533935547 182.412109375
v -54.67445373535156 -167.83116149902344 182.84352111816406
v -56.32041931152344 -172.34588623046875 179.4189453125
v -44.914703369140625 -149.01336669921875 184.61288452148438
v -56.44635009765625 -162.5758514404297 183.90785217285156
v -54.1375732421875 -164.62478637695312 184.88931274414062
v -43.39582824707031 -149.5641632080078 186.2704620361328
v -52.10588073730469 -149.5909881591797 184.86911010742188
v -55.30653381347656 -155.23976135253906 185.01370239257812
v -54.95326232910156 -156.6283416748047 186.24880981445312
v -43.5643310546875 -156.5583038330078 187.0849151611328
v -45.281005859375 -159.72003173828125 186.1142578125
v -50.51698303222656 -163.19139099121094 186.33998107910156
v -44.19635009765625 -143.6830596923828 187.15126037597656
v -46.656494140625 -146.4630889892578 185.31637573242188
v -46.82354736328125 -142.36863708496094 188.16986083984375
v -42.304107666015625 -142.88919067382812 188.68663024902344
v -49.52140808105469 -143.27760314941406 188.88629150390625
v -52.46661376953125 -146.39744567871094 188.13232421875
v -54.4398193359375 -151.48770141601562 186.33438110351562
v -42.79405212402344 -150.01007080078125 187.6721649169922
v -42.864288330078125 -150.81085205078125 189.72091674804688
v -45.97074890136719 -158.2212371826172 188.9504852294922
v -52.84979248046875 -159.45172119140625 187.34274291992188
v -48.46662902832031 -160.8103485107422 187.9525146484375
v -43.28529357910156 -140.9677276611328 189.43601989746094
v -41.17869567871094 -143.89842224121094 190.20330810546875
v -41.39569091796875 -147.00875854492188 190.7180633544922
v -54.77032470703125 -147.09169006347656 192.51007080078125
v -54.41485595703125 -151.90065002441406 190.1861572265625
v -43.74864196777344 -152.7052001953125 191.17945861816406
v -52.06535339355469 -156.2278594970703 189.7504425048828
v -52.45793151855469 -144.53770446777344 191.28915405273438
v -49.96783447265625 -154.78424072265625 191.9917449951172
v -52.41853332519531 -152.8363494873047 192.4145965576172
v -42.58735656738281 -139.3148193359375 192.01071166992188
v -46.19776916503906 -137.48577880859375 194.38282775878906
v -44.37712097167969 -136.73487854003906 195.44566345214844
v -40.81117248535156 -140.29052734375 193.15965270996094
v -48.22361755371094 -138.75634765625 193.8151092529297
v -39.884002685546875 -143.12208557128906 194.26953125
v -41.78887939453125 -147.86767578125 193.26036071777344
v -43.67619323730469 -150.2801055908203 193.9925994873047
v -54.490478515625 -148.0504150390625 195.79444885253906
v -45.56805419921875 -150.25537109375 196.7010498046875
v -45.8668212890625 -153.54013061523438 192.92007446289062
v -48.07049560546875 -154.72662353515625 192.39776611328125
v -42.03651428222656 -137.73843383789062 195.4390411376953
v -40.611785888671875 -137.45242309570312 199.3417205810547
v -40.90272521972656 -146.23687744140625 196.61460876464844
v -53.50382995605469 -144.7652587890625 195.53504943847656
v -51.570037841796875 -149.8656005859375 197.72296142578125
v -48.02679443359375 -136.49502563476562 199.6564483642578
v -39.433349609375 -140.94192504882812 197.95518493652344
v -49.71672058105469 -137.8229217529297 200.4031524658203
v -39.38786315917969 -142.71926879882812 200.6437225341797
v -53.777923583984375 -145.845458984375 197.67457580566406
v -44.17942810058594 -148.4859619140625 198.2847900390625
v -48.28306579589844 -150.31332397460938 197.9852752685547
v -43.657684326171875 -135.5509796142578 199.9850311279297
v -45.59660339355469 -135.04901123046875 201.03302001953125
v -39.866241455078125 -137.90878295898438 200.86587524414062
v -38.87841796875 -140.3109893798828 201.5115966796875
v -52.196380615234375 -141.6345977783203 202.2430419921875
v -53.325439453125 -147.66519165039062 198.33753967285156
v -43.753265380859375 -147.19664001464844 202.69154357910156
v -50.73908996582031 -136.562255859375 210.82054138183594
v -40.333953857421875 -143.48617553710938 209.31283569335938
v -41.20973205566406 -145.06854248046875 208.4001922607422
v -52.531982421875 -146.19253540039062 202.3180694580078
v -48.00994873046875 -148.09017944335938 202.82479858398438
v -42.69047546386719 -135.2991485595703 207.15921020507812
v -48.424346923828125 -135.25770568847656 207.57835388183594
v -52.369842529296875 -143.8577880859375 203.96022033691406
v -51.16357421875 -146.47894287109375 203.99632263183594
v -47.49761962890625 -146.963134765625 208.68211364746094
v -51.97148132324219 -140.9109344482422 208.6411895751953
v -43.24473571777344 -146.44451904296875 209.0047607421875
v -45.385406494140625 -134.31832885742188 211.93801879882812
v -40.075958251953125 -139.1573486328125 210.4183349609375
v -39.9796142578125 -141.57180786132812 210.8563995361328
v -51.46119689941406 -143.5755157470703 209.01278686523438
v -50.57307434082031 -145.0105438232422 208.70811462402344
v -40.99302673339844 -136.8301544189453 211.89903259277344
v -48.27226257324219 -134.38339233398438 212.12631225585938
v -51.384735107421875 -135.9200439453125 216.600341796875
v -45.93775939941406 -146.791748046875 210.60601806640625
v -40.66624450683594 -144.9381866455078 212.9066619873047
v -43.53013610839844 -146.7814483642578 214.21702575683594
v -44.86961364746094 -133.5681915283203 218.30409240722656
v -51.592193603515625 -138.05996704101562 216.02288818359375
v -39.37261962890625 -142.86990356445312 214.18943786621094
v -47.92070007324219 -145.06675720214844 215.17295837402344
v -49.61286926269531 -142.00387573242188 217.47665405273438
v -41.94151306152344 -135.41009521484375 218.2089080810547
v -49.116729736328125 -132.4352569580078 217.7705535888672
v -39.592864990234375 -139.11021423339844 215.2000732421875
v -38.020751953125 -140.5400390625 217.92347717285156
v -41.740814208984375 -146.93032836914062 216.19219970703125
v -44.64140319824219 -146.74208068847656 216.5087127685547
v -47.94615173339844 -132.4869842529297 217.58213806152344
v -39.56428527832031 -138.0181427001953 220.84857177734375
v -38.66804504394531 -138.92062377929688 219.4847412109375
v -37.69883728027344 -142.44525146484375 216.8316650390625
v -38.414093017578125 -143.98175048828125 216.0503387451172
v -40.0780029296875 -146.0303497314453 215.6424102783203
v -42.67218017578125 -148.59449768066406 220.808837890625
v -49.54913330078125 -134.3546905517578 221.03170776367188
v -31.971343994140625 -142.53147888183594 221.8849639892578
v -36.23851013183594 -146.59744262695312 218.4493408203125
v -45.33845520019531 -146.27479553222656 219.48858642578125
v -46.14900207519531 -144.5220184326172 221.6499481201172
v -37.57572937011719 -149.29415893554688 220.4218292236328
v -46.88450622558594 -133.8232421875 223.67556762695312
v -43.718414306640625 -135.1518096923828 223.33804321289062
v -49.49482727050781 -137.18214416503906 221.76852416992188
v -36.68730163574219 -139.57907104492188 220.84498596191406
v -48.198822021484375 -139.95176696777344 222.85736083984375
v -33.5830078125 -140.5752716064453 221.40480041503906
v -32.5152587890625 -146.03208923339844 221.31222534179688
v -34.619415283203125 -149.26467895507812 221.6474151611328
v -39.49346923828125 -150.21038818359375 221.825439453125
v -38.94573974609375 -138.68247985839844 223.5084686279297
v -40.978118896484375 -138.42906188964844 224.5505828857422
v -34.639984130859375 -139.26861572265625 224.78236389160156
v -31.62322998046875 -141.35450744628906 223.74107360839844
v -29.766738891601562 -147.38369750976562 226.75250244140625
v -43.683563232421875 -147.2871856689453 223.5560760498047
v -36.68928527832031 -152.5928192138672 223.7383575439453
v -39.305419921875 -152.20843505859375 224.4456787109375
v -41.26377868652344 -150.39955139160156 224.4163818359375
v -46.34864807128906 -135.57717895507812 225.08775329589844
v -46.48674011230469 -139.00856018066406 225.00669860839844
v -30.182174682617188 -142.85987854003906 226.49319458007812
v -44.746307373046875 -144.1341552734375 224.24957275390625
v -42.968475341796875 -142.4535369873047 226.25181579589844
v -28.935379028320312 -145.79489135742188 228.5982208251953
v -31.278045654296875 -149.5420379638672 225.20364379882812
v -34.28173828125 -153.57994079589844 224.87136840820312
v -42.83396911621094 -140.4216766357422 225.9500732421875
v -32.54472351074219 -140.0351104736328 227.57606506347656
v -38.24601745605469 -139.74197387695312 226.34182739257812
v -40.438995361328125 -140.96160888671875 227.04490661621094
v -41.07768249511719 -142.99766540527344 229.0884552001953
v -43.125396728515625 -144.55247497558594 226.33541870117188
v -43.013763427734375 -146.0131378173828 226.73170471191406
v -41.389739990234375 -150.63531494140625 227.8466796875
v -30.340744018554688 -156.0658416748047 227.2503204345703
v -27.651779174804688 -151.97409057617188 228.95391845703125
v -38.346893310546875 -155.80105590820312 226.96246337890625
v -34.628021240234375 -157.839111328125 227.2402801513672
v -31.982528686523438 -157.59141540527344 227.2856903076172
v -35.116058349609375 -159.6264190673828 228.8716278076172
v -34.38377380371094 -139.7663116455078 228.8189239501953
v -28.993896484375 -144.11395263671875 231.1826171875
v -38.90861511230469 -156.63125610351562 231.08949279785156
v -28.235183715820312 -158.45765686035156 231.5083465576172
v -36.77166748046875 -159.18353271484375 229.9178924560547
v -31.066558837890625 -142.11488342285156 233.85092163085938
v -36.168609619140625 -142.49063110351562 236.4280242919922
v -26.727920532226562 -148.43606567382812 231.11351013183594
v -41.349212646484375 -148.92640686035156 231.5346221923828
v -40.77662658691406 -152.03274536132812 230.86114501953125
v -30.15570068359375 -160.67678833007812 232.23770141601562
v -33.043060302734375 -162.01510620117188 233.9408721923828
v -34.976318359375 -160.9672393798828 232.5310821533203
v -32.870758056640625 -141.7746124267578 235.07437133789062
v -24.591415405273438 -147.98971557617188 235.77064514160156
v -39.878814697265625 -148.0240478515625 236.5590362548828
v -22.9603271484375 -150.63711547851562 237.964599609375
v -24.22235107421875 -156.20262145996094 235.90243530273438
v -25.413665771484375 -157.51185607910156 234.4241943359375
v -39.50346374511719 -154.51510620117188 235.10714721679688
v -26.607223510742188 -162.0714874267578 235.2581329345703
v -38.23521423339844 -143.8616943359375 236.94085693359375
v -25.599899291992188 -145.86859130859375 237.2777557373047
v -38.30621337890625 -146.40841674804688 239.63059997558594
v -21.86932373046875 -155.3479766845703 239.8489990234375
v -38.19682312011719 -157.275634765625 236.52740478515625
v -35.40533447265625 -161.3218231201172 237.56658935546875
v -28.638519287109375 -163.9374237060547 236.2059326171875
v -29.958053588867188 -165.00900268554688 237.92857360839844
v -30.37030029296875 -143.13229370117188 239.58401489257812
v -32.99781799316406 -142.95494079589844 239.61669921875
v -27.50738525390625 -144.250732421875 238.13597106933594
v -23.245147705078125 -162.08114624023438 237.60450744628906
v -33.64982604980469 -144.24172973632812 242.6375274658203
v -23.116668701171875 -147.56396484375 239.1182403564453
v -37.68690490722656 -155.07638549804688 241.51217651367188
v -37.456268310546875 -151.78292846679688 243.26210021972656
v -21.71954345703125 -160.01882934570312 238.6953887939453
v -36.95191955566406 -158.93324279785156 240.17022705078125
v -21.132125854492188 -163.56349182128906 239.49041748046875
v -23.53277587890625 -165.60166931152344 239.7404327392578
v -31.821609497070312 -165.45973205566406 239.93882751464844
v -26.916488647460938 -144.29269409179688 242.29115295410156
v -35.6453857421875 -145.60398864746094 243.13839721679688
v -23.4150390625 -146.33990478515625 241.70748901367188
v -21.285476684570312 -149.6858367919922 242.81829833984375
v -19.453140258789062 -161.3964080810547 241.39193725585938
v -27.44024658203125 -167.07781982421875 242.2499237060547
v -36.73710632324219 -148.9932861328125 244.48818969726562
v -19.910476684570312 -155.3618927001953 244.46475219726562
v -33.00013732910156 -165.0022430419922 244.43136596679688
v -33.883758544921875 -163.70982360839844 246.7272491455078
v -19.972137451171875 -165.59608459472656 243.4295654296875
v -22.311492919921875 -167.04367065429688 243.79136657714844
v -30.555465698242188 -166.42832946777344 244.5467529296875
v -25.839447021484375 -145.74119567871094 247.39024353027344
v -29.812820434570312 -145.9997100830078 248.73733520507812
v -33.942169189453125 -146.87652587890625 247.86021423339844
v -22.723312377929688 -147.57675170898438 248.2445068359375
v -21.126556396484375 -149.05294799804688 245.31875610351562
v -20.111862182617188 -151.83599853515625 247.67471313476562
v -16.96624755859375 -159.63955688476562 247.0460205078125
v -16.577178955078125 -163.28919982910156 247.1858367919922
v -23.642013549804688 -167.21116638183594 249.3297576904297
v -35.2921142578125 -151.8928985595703 250.85528564453125
v -36.14898681640625 -156.79318237304688 248.7155303955078
v -34.350006103515625 -161.77520751953125 249.81985473632812
v -18.649169921875 -166.40623474121094 248.56578063964844
v -20.980209350585938 -167.100341796875 249.0118865966797
v -25.094268798828125 -147.21627807617188 250.78045654296875
v -20.254348754882812 -151.3508758544922 251.2492218017578
v -18.758438110351562 -154.11761474609375 249.93295288085938
v -14.9000244140625 -160.3140411376953 251.9056854248047
v -15.023391723632812 -163.23651123046875 251.04229736328125
v -15.713272094726562 -164.73341369628906 250.4598388671875
v -28.817916870117188 -166.8631134033203 250.7675018310547
v -31.612548828125 -165.58128356933594 252.33055114746094
v -22.68328857421875 -148.9971923828125 252.40980529785156
v -30.38134765625 -148.6370391845703 252.93064880371094
v -32.510345458984375 -150.6378936767578 254.0572967529297
v -34.271240234375 -158.84579467773438 253.4821319580078
v -32.587738037109375 -164.53895568847656 254.26568603515625
v -16.182907104492188 -167.3136749267578 253.31520080566406
v -23.82904052734375 -150.90184020996094 256.8096618652344
v -15.215179443359375 -159.0254669189453 256.0030822753906
v -33.90916442871094 -156.1967315673828 255.09104919433594
v -32.373687744140625 -153.55152893066406 256.598388671875
v -14.167922973632812 -163.32412719726562 255.30157470703125
v -33.016021728515625 -161.94212341308594 257.8785705566406
v -15.909210205078125 -168.12620544433594 254.9471893310547
v -26.316116333007812 -168.95938110351562 255.54257202148438
v -29.2198486328125 -168.65829467773438 255.69322204589844
v -21.125076293945312 -151.6108856201172 255.9381866455078
v -28.965499877929688 -151.30043029785156 256.6259460449219
v -19.207550048828125 -153.55780029296875 256.18975830078125
v -14.949920654296875 -168.5854949951172 256.8500061035156
v -29.324935913085938 -155.09005737304688 262.8426208496094
v -31.04364013671875 -155.06858825683594 261.192626953125
v -33.39637756347656 -157.37135314941406 258.0987548828125
v -15.133377075195312 -161.58258056640625 258.8988952636719
v -14.402191162109375 -166.77792358398438 257.9332580566406
v -29.927108764648438 -169.02249145507812 258.2901916503906
v -17.042266845703125 -168.03431701660156 256.2159118652344
v -23.176773071289062 -168.69650268554688 256.3498840332031
v -22.78192138671875 -168.22021484375 258.2244873046875
v -29.101608276367188 -170.11709594726562 257.55328369140625
v -20.104827880859375 -154.90589904785156 259.9627990722656
v -26.4932861328125 -153.6716766357422 261.3327941894531
v -18.378570556640625 -156.7129669189453 260.172607421875
v -16.984054565429688 -159.2634735107422 260.5115051269531
v -31.807830810546875 -165.4137725830078 260.55352783203125
v -13.638992309570312 -168.53298950195312 259.0021057128906
v -13.638992309570312 -168.53298950195312 259.0021057128906
v -13.638992309570312 -168.53298950195312 259.00213623046875
v -13.638992309570312 -168.53298950195312 259.0021057128906
v -18.884033203125 -166.72491455078125 258.43853759765625
v -13.638992309570312 -168.53298950195312 259.0021057128906
v -29.7188720703125 -168.46746826171875 260.01519775390625
v -23.74169921875 -154.6846923828125 261.883544921875
v -30.697708129882812 -156.80335998535156 263.9933776855469
v -32.11622619628906 -160.06939697265625 261.94903564453125
v -17.141555786132812 -162.08245849609375 260.82916259765625
v -21.850234985351562 -160.1567840576172 261.7685852050781
v -21.461090087890625 -164.58367919921875 260.3743591308594
v -26.636062622070312 -167.94419860839844 260.9706726074219
v -13.638992309570312 -168.53298950195312 259.0021057128906
v -28.351409912109375 -157.09027099609375 265.28826904296875
v -21.907135009765625 -157.32847595214844 261.9217834472656
v -23.8990478515625 -158.36489868164062 262.9808654785156
v -25.74761962890625 -162.26934814453125 262.56390380859375
v -28.709426879882812 -159.25814819335938 265.0456237792969
v -28.661697387695312 -164.6326904296875 262.4364013671875
v -30.565597534179688 -162.98165893554688 263.025146484375
v -30.31884765625 -158.6661834716797 264.8642272949219
vn 0.0859258845448494 0.7818062901496887 -0.6175723671913147
vn 0.3331025540828705 0.8577947020530701 -0.39144718647003174
vn 0.6250125765800476 0.47652310132980347 -0.6182920336723328
vn 0.14783138036727905 0.3121500015258789 -0.9384605884552002
vn -0.5201026201248169 0.16895338892936707 -0.837226390838623
vn -0.2683749198913574 0.8235127329826355 -0.49980172514915466
vn -0.9151936769485474 0.3350401818752289 -0.22398369014263153
vn 0.38785088062286377 -0.16358406841754913 -0.9070898294448853
vn -0.08656401932239532 -0.3726372718811035 -0.923930823802948
vn 0.8126190900802612 0.35592538118362427 -0.46148380637168884
vn -0.4736179709434509 -0.5064177513122559 -0.7205742001533508
vn -0.834250807762146 -0.3373788297176361 -0.4361206293106079
vn 0.6739223599433899 -0.3366798162460327 -0.65762859582901
vn 0.18162961304187775 -0.5807831883430481 -0.7935373783111572
vn -0.07318571209907532 -0.7627447247505188 -0.6425452828407288
vn 0.763144314289093 0.6330145597457886 -0.13001281023025513
vn 0.35708945989608765 -0.7653994560241699 -0.5353978872299194
vn -0.4682987332344055 -0.8273229598999023 -0.3102145791053772
vn 0.04799136519432068 -0.9254190325737 -0.375894159078598
vn 0.1966859996318817 0.9654054045677185 -0.17119283974170685
vn 0.6020640730857849 0.7984421849250793 0.0029910581652075052
vn 0.6505127549171448 0.7030719518661499 -0.28726834058761597
vn 0.960968554019928 0.13110676407814026 -0.24361972510814667
vn -0.9177268743515015 -0.3871675729751587 -0.08876173198223114
vn 0.8373063206672668 -0.4496352970600128 -0.31104058027267456
vn -0.681938648223877 -0.71616131067276 -0.148569256067276
vn 0.7759153842926025 0.5687105059623718 -0.27299031615257263
vn -0.3964402973651886 0.9113758206367493 -0.11058563739061356
vn -0.7992507219314575 0.6008410453796387 -0.01372381579130888
vn 0.6128779649734497 0.7893351316452026 -0.03647937998175621
vn 0.3860131502151489 0.8750465512275696 -0.29204005002975464
vn 0.8526041507720947 0.4955368638038635 -0.1658596396446228
vn -0.991597592830658 -0.10683287680149078 -0.07294479012489319
vn 0.4647357761859894 -0.8215245604515076 -0.3303303122520447
vn 0.46421098709106445 0.8711569309234619 -0.15998047590255737
vn 0.6197533011436462 0.7098571062088013 -0.33467721939086914
vn -0.9647098183631897 0.25892990827560425 -0.0478571280837059
vn -0.9436874389648438 -0.3292522430419922 -0.03235780820250511
vn -0.4319828748703003 0.9018581509590149 -0.006535637192428112
vn 0.7175993323326111 -0.6857360005378723 -0.12172666192054749
vn 0.3055746257305145 -0.930188775062561 -0.2034035325050354
vn -0.03584182262420654 -0.9850929975509644 -0.16824746131896973
vn -0.28201329708099365 -0.9557139873504639 -0.08413910865783691
vn -0.5434246063232422 -0.8376946449279785 -0.05438094213604927
vn -0.2630952000617981 0.9610347747802734 -0.08481258898973465
vn -0.6214104890823364 0.7822173237800598 -0.04455484449863434
vn 0.9721850156784058 -0.2223694622516632 -0.07354002445936203
vn -0.8047128915786743 -0.5925387740135193 -0.03653904050588608
vn 0.3730999529361725 0.9168726801872253 -0.14191849529743195
vn 0.36169636249542236 -0.9320994019508362 -0.01914364844560623
vn 0.6006386876106262 0.791103720664978 -0.11570706218481064
vn -0.8233810067176819 0.5557435750961304 -0.11486035585403442
vn 0.9799764156341553 0.18936371803283691 -0.06154383718967438
vn -0.008152378723025322 -0.999785840511322 0.019020799547433853
vn 0.06239796057343483 0.9855225086212158 -0.15764515101909637
vn 0.7018061876296997 -0.7117587327957153 0.029455117881298065
vn -0.32760849595069885 0.9266160130500793 -0.18454113602638245
vn -0.5794445872306824 0.8057031631469727 -0.1228272020816803
vn -0.9634067416191101 0.2247934341430664 -0.1459978222846985
vn 0.879050612449646 -0.4667604863643646 0.0969776064157486
vn -0.8878104090690613 -0.45967984199523926 -0.02206989750266075
vn 0.3193466365337372 -0.9362871050834656 0.14623336493968964
vn 0.011533561162650585 -0.9841551184654236 0.1769341230392456
vn -0.29601892828941345 -0.94649738073349 0.1285128891468048
vn 0.7350592017173767 0.6727534532546997 -0.08420761674642563
vn 0.9283316135406494 0.36850011348724365 -0.04907327890396118
vn -0.986503005027771 -0.14480704069137573 -0.07643799483776093
vn 0.9997003674507141 -0.005561995320022106 0.02383873611688614
vn 0.5958264470100403 -0.7853766679763794 0.16785186529159546
vn -0.6426974534988403 -0.7578614950180054 0.11218751221895218
vn -0.6352973580360413 0.7343095541000366 -0.2391376495361328
vn -0.16068804264068604 -0.9662386775016785 0.20140044391155243
vn 0.257728636264801 0.9531859755516052 -0.1581534594297409
vn -0.04887827858328819 0.9788308143615723 -0.19874915480613708
vn -0.9199100136756897 0.3403065502643585 -0.19482576847076416
vn 0.35145795345306396 -0.9109624028205872 0.21592789888381958
vn -0.4264935553073883 -0.8836292028427124 0.1931389719247818
vn 0.5102704763412476 0.8483774662017822 -0.14099586009979248
vn -0.41306376457214355 0.8832968473434448 -0.22173179686069489
vn 0.9905315041542053 0.12710613012313843 0.05187835916876793
vn -0.9543859362602234 0.24263574182987213 -0.17399820685386658
vn 0.9028756618499756 -0.40771225094795227 0.13633163273334503
vn 0.6438772082328796 -0.7464446425437927 0.16805532574653625
vn -0.7079383134841919 -0.6968535780906677 0.11497186869382858
vn 0.06486567109823227 -0.9776644110679626 0.1999121904373169
vn -0.0876823142170906 0.956459641456604 -0.2783825695514679
vn -0.9883663654327393 -0.04202776774764061 -0.1461702436208725
vn 0.5452975630760193 0.811879575252533 -0.2085718810558319
vn -0.7270036339759827 0.6637135148048401 -0.1759268194437027
vn 0.8958054184913635 0.43646475672721863 -0.0838523730635643
vn 0.9988213777542114 -0.029065381735563278 0.03887305408716202
vn -0.8430302739143372 -0.5359370112419128 0.04551194980740547
vn -0.3112334907054901 -0.9287598729133606 0.20134276151657104
vn -0.9618600606918335 0.2673688232898712 -0.05778581276535988
vn -0.9495664834976196 -0.2545085847377777 0.1831638365983963
vn -0.7019674777984619 -0.6631101965904236 0.2598589360713959
vn 0.09023850411176682 -0.9693043828010559 0.22870540618896484
vn 0.17538371682167053 0.9498355388641357 -0.25894615054130554
vn -0.49857428669929504 0.8386279940605164 -0.21937786042690277
vn -0.5879002809524536 0.8024333119392395 -0.1023428663611412
vn 0.2922772765159607 -0.9217962026596069 0.254687637090683
vn 0.7985522747039795 0.45678767561912537 -0.39199408888816833
vn -0.961351752281189 0.1575687676668167 0.22577619552612305
vn 0.9735775589942932 0.05119030550122261 -0.22254528105258942
vn 0.8878337144851685 -0.4599449336528778 -0.01421363651752472
vn 0.10306315124034882 0.8717904686927795 -0.47891470789909363
vn -0.8551254868507385 0.5181884765625 0.015524103306233883
vn 0.586016058921814 0.6899498701095581 -0.4249170422554016
vn -0.5270586013793945 -0.7751824259757996 0.3482834994792938
vn -0.3475654721260071 0.8472198247909546 -0.4017672836780548
vn 0.341718465089798 0.7693743705749512 -0.5397143363952637
vn 0.8790884613990784 0.08288228511810303 -0.46939754486083984
vn -0.9573856592178345 -0.05232202634215355 0.28403371572494507
vn -0.8109786510467529 -0.41853588819503784 0.40882936120033264
vn 0.7244488000869751 -0.6860324740409851 0.06733135879039764
vn -0.028700461611151695 -0.9350907206535339 0.3532445430755615
vn -0.3398364782333374 -0.8217380046844482 0.4574471116065979
vn 0.12390323728322983 0.7223025560379028 -0.6803873777389526
vn 0.5906864404678345 0.5081802606582642 -0.6267714500427246
vn -0.6860669255256653 0.7054502367973328 -0.17791049182415009
vn -0.6239949464797974 -0.618156909942627 0.478029727935791
vn 0.4850740134716034 -0.8549787402153015 0.1836152821779251
vn -0.1527877300977707 0.7718238830566406 -0.6172064542770386
vn 0.7612565159797668 0.2777591943740845 -0.5859507918357849
vn -0.9418546557426453 0.3177289366722107 0.10935341566801071
vn 0.9088034629821777 -0.12711407244205475 -0.39738938212394714
vn 0.8735451698303223 -0.45754194259643555 -0.16605478525161743
vn 0.7367806434631348 -0.6755568981170654 0.027878254652023315
vn 0.15511944890022278 -0.9262540340423584 0.34349900484085083
vn -0.42951932549476624 0.734383761882782 -0.5255413055419922
vn -0.6832213401794434 0.7002332210540771 -0.2070799469947815
vn 0.4327143430709839 0.5917899012565613 -0.6801052093505859
vn 0.7552409172058105 0.37553736567497253 -0.537199079990387
vn 0.9142889380455017 -0.025097426027059555 -0.40428438782691956
vn -0.8633735179901123 -0.23598618805408478 0.4459783732891083
vn -0.6808106303215027 -0.48913198709487915 0.545203447341919
vn -0.49268487095832825 -0.6273322105407715 0.6030887365341187
vn -0.0803520604968071 -0.8573347330093384 0.5084494352340698
vn 0.2599983215332031 0.6661372780799866 -0.6990436911582947
vn 0.574958324432373 -0.8025134801864624 0.1593581885099411
vn 0.2877938747406006 -0.8849306106567383 0.36615923047065735
vn -0.3117177188396454 -0.7046065926551819 0.6374650001525879
vn -0.7473334670066833 0.6039362549781799 -0.27704474329948425
vn -0.9147079586982727 0.3839757442474365 0.1259843111038208
vn 0.9348113536834717 -0.2957559823989868 -0.1966116577386856
vn -0.3893764913082123 0.7311869263648987 -0.5601353645324707
vn -0.0826631635427475 0.7401114106178284 -0.6673844456672668
vn -0.6625494360923767 0.634496808052063 -0.39804795384407043
vn 0.5528279542922974 0.5593403577804565 -0.6176728010177612
vn 0.9314956068992615 0.08489719033241272 -0.3537066876888275
vn -0.4982871413230896 -0.5680475831031799 0.6550053358078003
vn 0.7793247699737549 -0.6262726187705994 -0.020869076251983643
vn 0.4181288182735443 -0.8617149591445923 0.2874295115470886
vn 0.027057085186243057 -0.882822573184967 0.4689268171787262
vn 0.12302330881357193 0.7126399278640747 -0.6906588077545166
vn 0.49309951066970825 0.5774175524711609 -0.6507240533828735
vn -0.9278296232223511 0.35777467489242554 -0.10549633949995041
vn -0.9686566591262817 0.24135898053646088 0.058738403022289276
vn -0.8642876744270325 -0.152763232588768 0.479239284992218
vn 0.9832825660705566 -0.15121415257453918 -0.10143829137086868
vn -0.3059449791908264 -0.7179309725761414 0.6252781748771667
vn -0.2907959520816803 0.7766050100326538 -0.5588581562042236
vn 0.7243026494979858 0.37668201327323914 -0.5774914622306824
vn 0.914488673210144 0.20305827260017395 -0.3499683141708374
vn -0.8630039095878601 -0.20317144691944122 0.4625426232814789
vn 0.8061702847480774 -0.5735309720039368 0.14543630182743073
vn -0.41913938522338867 -0.6269427537918091 0.6567077040672302
vn -0.6105554699897766 -0.4955757260322571 0.6177595257759094
vn -0.003597932169213891 0.7317212820053101 -0.6815944910049438
vn 0.436385840177536 0.5498156547546387 -0.7122290134429932
vn -0.5467531681060791 0.7458416223526001 -0.380501389503479
vn -0.22754129767417908 -0.7419995665550232 0.6306042075157166
vn 0.25613605976104736 0.7023804187774658 -0.664120614528656
vn -0.10556206107139587 0.7975050210952759 -0.5940054655075073
vn -0.2556851804256439 0.8081936836242676 -0.5305168628692627
vn -0.7364875078201294 0.6492013931274414 -0.19006243348121643
vn -0.9653570055961609 -0.16982214152812958 0.19810695946216583
vn -0.6915981769561768 -0.5681669116020203 0.44595789909362793
vn -0.5326672196388245 -0.5719501376152039 0.6238098740577698
vn 0.8833711743354797 -0.38898661732673645 0.26142844557762146
vn 0.6258299946784973 -0.6152528524398804 0.4793754816055298
vn 0.2084019035100937 -0.7610195875167847 0.6143434047698975
vn -0.16363990306854248 0.8671998977661133 -0.4703044891357422
vn -0.4514366686344147 0.8027572631835938 -0.38959693908691406
vn 0.5366818308830261 0.4605187773704529 -0.7070326209068298
vn 0.8998966813087463 0.16898983716964722 -0.40203046798706055
vn -0.9595879316329956 0.28084254264831543 -0.017847392708063126
vn 0.9905908703804016 -0.05172094330191612 -0.12670722603797913
vn 0.9655061960220337 -0.24076645076274872 0.09914261847734451
vn -0.38158345222473145 -0.6919882893562317 0.6128183603286743
vn 0.6720404624938965 0.4841742515563965 -0.5603007674217224
vn -0.7634593844413757 -0.6441826820373535 0.04645887762308121
vn 0.7838128805160522 -0.47222715616226196 0.40328508615493774
vn -0.4995908737182617 -0.8033000230789185 0.3242191970348358
vn -0.30941393971443176 -0.8904783129692078 0.33363378047943115
vn -0.06511583179235458 -0.7658930420875549 0.6396622061729431
vn 0.4527519643306732 -0.6186586022377014 0.6420882344245911
vn 0.18985125422477722 0.8660098314285278 -0.4625835120677948
vn -0.4628194570541382 0.8406745195388794 -0.28118422627449036
vn -0.6176562905311584 0.7653319239616394 -0.18101899325847626
vn 0.9450147747993469 0.16674290597438812 -0.28132525086402893
vn -0.9679206013679504 -0.23829618096351624 -0.07965375483036041
vn 0.9384315609931946 -0.3033771812915802 0.16525278985500336
vn -0.25993210077285767 0.904952347278595 -0.3368925452232361
vn 0.5307517051696777 0.7182196974754333 -0.4499591290950775
vn -0.7676690816879272 0.6393450498580933 -0.04384198412299156
vn 0.9787089228630066 -0.20513297617435455 0.007031302433460951
vn 0.7933629751205444 -0.4848004877567291 0.3681626319885254
vn -0.9415697455406189 -0.32678085565567017 0.0816129669547081
vn -0.4519379734992981 -0.8701274991035461 0.1965460330247879
vn -0.07775436341762543 -0.9135853052139282 0.3991442620754242
vn 0.35253414511680603 -0.7358918786048889 0.5780856013298035
vn 0.006623154040426016 0.8960298299789429 -0.44394445419311523
vn -0.7846614718437195 0.6146764755249023 0.08049439638853073
vn -0.8336696624755859 0.529344916343689 0.15744513273239136
vn -0.9483071565628052 0.20783622562885284 0.23982836306095123
vn -0.38894036412239075 0.7980386018753052 -0.46028241515159607
vn 0.8705753684043884 0.31977328658103943 -0.3739566504955292
vn 0.9827672839164734 -0.1846182644367218 0.00920090451836586
vn 0.881496250629425 -0.3937332034111023 0.2606504261493683
vn -0.7796744108200073 -0.14849041402339935 0.6083243489265442
vn 0.549676775932312 -0.6469619274139404 0.5284844040870667
vn -0.6229396462440491 -0.605298638343811 0.49553990364074707
vn 0.11597014218568802 -0.8112298250198364 0.5731117725372314
vn 0.025236336514353752 0.7949761152267456 -0.6061155796051025
vn 0.4885011613368988 0.6596582531929016 -0.5711547136306763
vn -0.7424066066741943 0.6549218893051147 -0.141102135181427
vn -0.7970728278160095 0.2534872889518738 0.548105001449585
vn 0.2622552514076233 -0.6985567212104797 0.6657633185386658
vn -0.4413432776927948 -0.4299825429916382 0.7876110076904297
vn -0.19173184037208557 -0.7557129859924316 0.6262083053588867
vn 0.22021600604057312 0.6223832964897156 -0.7510952353477478
vn -0.20896035432815552 0.664279580116272 -0.7176826000213623
vn 0.6840716004371643 0.44978341460227966 -0.5742307305335999
vn 0.97723388671875 0.04553226754069328 -0.20722174644470215
vn -0.8110726475715637 0.5258301496505737 -0.25624966621398926
vn -0.9096137881278992 0.32902753353118896 0.2536606192588806
vn -0.7788811326026917 0.34661877155303955 0.5226849913597107
vn 0.5631212592124939 -0.6132094860076904 0.5539571642875671
vn -0.5268028974533081 -0.136930450797081 0.838885486125946
vn 0.26391345262527466 -0.6890944242477417 0.6749064326286316
vn -0.09087192267179489 -0.5616648197174072 0.8223593831062317
vn 0.07363050431013107 -0.6665515899658203 0.7418137192726135
vn 0.5111798644065857 0.3777068555355072 -0.7720316052436829
vn -0.680303156375885 -0.02540399134159088 0.7324904799461365
vn -0.3401893377304077 -0.354518324136734 0.8709695935249329
vn 0.8636773228645325 0.13087163865566254 -0.486758828163147
vn -0.5553635358810425 0.6149255633354187 -0.5598554015159607
vn -0.9753754734992981 0.19567669928073883 0.10175156593322754
vn -0.8385598063468933 -0.13186325132846832 0.5286110043525696
vn 0.8952034115791321 -0.36489400267601013 0.255857914686203
vn 0.810764729976654 -0.46944329142570496 0.34969085454940796
vn -0.08070388436317444 -0.5652772784233093 0.8209436535835266
vn 0.23354315757751465 0.49960586428642273 -0.8341771960258484
vn 0.0997672751545906 0.527429461479187 -0.8437207937240601
vn -0.18142080307006836 0.6838868856430054 -0.706671953201294
vn 0.6893122792243958 0.3502843379974365 -0.6341526508331299
vn -0.49908939003944397 0.6541564464569092 -0.5683213472366333
vn -0.6915950179100037 0.5576498508453369 -0.4590458571910858
vn -0.9106857180595398 0.33715131878852844 -0.23870596289634705
vn 0.9741631746292114 -0.06622279435396194 -0.2159184366464615
vn 0.9520529508590698 -0.29103535413742065 0.0943063348531723
vn 0.5427538752555847 -0.5733827948570251 0.6137186288833618
vn -0.5175645351409912 -0.31493550539016724 0.7955769300460815
vn 0.1598365604877472 -0.620135486125946 0.7680392265319824
vn 0.22241756319999695 0.6987162828445435 -0.6799455881118774
vn 0.9140798449516296 0.058659203350543976 -0.40126943588256836
vn 0.9518152475357056 -0.25549644231796265 -0.16961535811424255
vn -0.9475504755973816 0.3079914152622223 -0.08537798374891281
vn -0.9347351789474487 -0.22870628535747528 0.2719627320766449
vn 0.7806486487388611 -0.45744362473487854 0.4258321523666382
vn -0.5781570076942444 -0.46284523606300354 0.6719440221786499
vn -0.7270585894584656 0.6220175623893738 -0.29065442085266113
vn -0.2728552520275116 -0.6350319981575012 0.7226924300193787
vn -0.6072211861610413 -0.6058225035667419 0.5140636563301086
vn 0.4131545126438141 0.7379599213600159 -0.5335903167724609
vn -0.19569306075572968 0.8571075797080994 -0.4765196144580841
vn 0.13558050990104675 0.9086993336677551 -0.3948208689689636
vn 0.8282997608184814 0.42559999227523804 -0.3643956184387207
vn -0.5407615900039673 0.7373470067977905 -0.4048410952091217
vn 0.9811573624610901 -0.08373759686946869 -0.17412152886390686
vn 0.8255695104598999 -0.5435009598731995 0.1517951637506485
vn 0.766852080821991 -0.5514299869537354 0.32842475175857544
vn -0.8848831653594971 -0.3244595527648926 0.33422720432281494
vn 0.47866764664649963 -0.7374612092971802 0.4764748811721802
vn 0.41732150316238403 -0.6644840836524963 0.6199223399162292
vn 0.05161292850971222 -0.7005693316459656 0.7117154598236084
vn 0.5208378434181213 0.7822206020355225 -0.3418462574481964
vn 0.7057082653045654 0.6769928932189941 -0.20894145965576172
vn 0.8108364343643188 -0.5817097425460815 0.06448391824960709
vn -0.917734682559967 0.3969327509403229 -0.014405479654669762
vn -0.43775948882102966 -0.7556293606758118 0.48722782731056213
vn -0.5172705054283142 0.8227977156639099 -0.23544670641422272
vn 0.962432861328125 0.1871393322944641 -0.19672791659832
vn -0.7235127091407776 0.6639806032180786 -0.1888362169265747
vn 0.9658027291297913 -0.258407860994339 -0.021226098760962486
vn -0.9740250706672668 0.1133260726928711 0.19604170322418213
vn 0.5114827156066895 -0.8103519678115845 0.28585878014564514
vn 0.09557149559259415 -0.8336416482925415 0.543973982334137
vn 0.34380242228507996 0.9186992049217224 -0.19440093636512756
vn -0.09723754227161407 0.9781690239906311 -0.18365810811519623
vn 0.8520366549491882 0.5182552933692932 -0.07379049807786942
vn 0.999675452709198 0.024655207991600037 0.006416659336537123
vn -0.9849070310592651 0.1408119797706604 0.10064849257469177
vn -0.8383172154426575 -0.39284342527389526 0.378018856048584
vn 0.3817478120326996 -0.9160906076431274 0.12266483902931213
vn -0.8452103734016418 0.5233799815177917 -0.1081337258219719
vn 0.9372568130493164 -0.348334401845932 -0.014591112732887268
vn 0.6556832790374756 -0.7544605135917664 -0.029476478695869446
vn -0.8334969878196716 -0.3987974524497986 0.3824179172515869
vn -0.0031829201616346836 -0.9273253083229065 0.3742428719997406
vn 0.46852266788482666 0.8811909556388855 -0.06315921992063522
vn -0.44723522663116455 0.882587194442749 -0.14498478174209595
vn -0.9636523127555847 -0.12629340589046478 0.23542357981204987
vn -0.6365941166877747 -0.680475115776062 0.3629072606563568
vn -0.17552213370800018 -0.9593823552131653 0.22085626423358917
vn -0.9962719082832336 0.07912873476743698 0.03436623513698578
vn 0.3613990545272827 -0.9322336316108704 0.01819728873670101
vn 0.07327630370855331 0.9852123856544495 -0.15487779676914215
vn 0.9680940508842468 0.2502400577068329 0.013185243122279644
vn 0.9941853284835815 0.005329405423253775 -0.10755076259374619
vn -0.8820179104804993 -0.4090048670768738 0.2340075522661209
vn -0.6623042821884155 -0.6943063735961914 0.28158795833587646
vn 0.8336231708526611 0.5513046979904175 -0.033699601888656616
vn -0.2542448341846466 0.9270740151405334 -0.27548736333847046
vn -0.9482477903366089 0.31178006529808044 0.060161493718624115
vn -0.06971367448568344 -0.9940059781074524 0.08421476930379868
vn 0.7916632890701294 -0.5408129096031189 -0.28423699736595154
vn 0.10808722674846649 -0.984984815120697 -0.13461825251579285
vn 0.3817667067050934 0.9236531853675842 0.03345287963747978
vn -0.9602441191673279 -0.11715929210186005 0.25338712334632874
vn 0.9214856624603271 -0.09948424994945526 -0.3754558265209198
vn -0.604297399520874 -0.7655728459358215 0.2207329124212265
vn -0.8374977707862854 -0.44353869557380676 0.31917232275009155
vn 0.643829882144928 0.7638991475105286 0.044058579951524734
vn -0.501079261302948 0.8652923107147217 -0.013741790316998959
vn 0.8787577152252197 0.4484364986419678 -0.16336970031261444
vn 0.738395094871521 0.46862637996673584 -0.4849351644515991
vn 0.22475934028625488 -0.8942057490348816 -0.38714247941970825
vn -0.41964930295944214 -0.907586932182312 -0.013435464352369308
vn 0.14038920402526855 0.9859428405761719 -0.09059589356184006
vn 0.6137593388557434 0.7887203097343445 0.03492596000432968
vn 0.6183944940567017 0.7337992191314697 -0.2812952697277069
vn 0.7367857694625854 0.2200954556465149 -0.6393002271652222
vn 0.7266972661018372 -0.18231412768363953 -0.6623237729072571
vn 0.4635990858078003 -0.6507174968719482 -0.6013673543930054
vn -0.49774298071861267 -0.8524447083473206 -0.1599685400724411
vn -0.8335453271865845 0.313644140958786 0.45478513836860657
vn 0.7978023886680603 0.19792690873146057 -0.5695053339004517
vn 0.4966442883014679 -0.4601318836212158 -0.7359505295753479
vn -0.672249436378479 -0.7326599955558777 0.10625496506690979
vn -0.7771256566047668 -0.5283029675483704 0.3420112729072571
vn 0.18052683770656586 -0.7300959825515747 -0.6590675711631775
vn -0.02275819331407547 0.895699679851532 0.44407668709754944
vn 0.5126603841781616 0.7655330896377563 0.3887653946876526
vn -0.8515729904174805 -0.0782373696565628 0.518365204334259
vn 0.4041935205459595 0.8787241578102112 -0.2539125084877014
vn -0.7897523641586304 -0.33313506841659546 0.5150847434997559
vn 0.5401836037635803 0.7203264236450195 -0.4351225197315216
vn 0.7256830334663391 -0.2399597316980362 -0.6448283195495605
vn 0.4419423043727875 -0.5511646270751953 -0.707746148109436
vn -0.28485119342803955 -0.8186144828796387 -0.49872851371765137
vn 0.23821376264095306 0.9588326215744019 0.1545778214931488
vn 0.23205570876598358 0.7625276446342468 0.6039054989814758
vn 0.2588810622692108 0.9656025171279907 -0.02433815225958824
vn 0.7239578366279602 0.6461519002914429 -0.24160467088222504
vn 0.8477238416671753 -0.00022873806301504374 -0.5304377675056458
vn -0.836314857006073 -0.4959377944469452 0.23371605575084686
vn -0.05174320191144943 -0.6533539295196533 -0.7552823424339294
vn -0.5688828825950623 -0.6819745302200317 -0.45965543389320374
vn -0.6003584265708923 -0.76460862159729 -0.23440030217170715
vn -0.24693593382835388 0.3550665080547333 0.9016376733779907
vn -0.5554603934288025 -0.10075847804546356 0.8254160284996033
vn 0.8919134736061096 0.41105568408966064 -0.18847715854644775
vn -0.7711596488952637 -0.24306513369083405 0.5884150266647339
vn -0.5983713865280151 0.15427149832248688 0.7862263917922974
vn 0.9101295471191406 0.21697998046875 -0.35296446084976196
vn 0.6682902574539185 -0.25710269808769226 -0.69805908203125
vn 0.2996838688850403 -0.4404967427253723 -0.8462578058242798
vn -0.153184711933136 0.2841458022594452 0.9464648365974426
vn 0.5712546110153198 0.8202173113822937 0.03019634820520878
vn -0.18013621866703033 0.8972058296203613 0.40320298075675964
vn -0.30254775285720825 0.6077961325645447 0.7341994047164917
vn -0.7004396915435791 0.47544220089912415 0.5322959423065186
vn -0.7998982071876526 0.09165314584970474 0.5930957794189453
vn -0.9247293472290039 0.014489474706351757 0.3803494870662689
vn -0.8837019801139832 -0.46780627965927124 -0.015105106867849827
vn 0.5877883434295654 -0.3370114266872406 -0.7354781627655029
vn 0.8185325264930725 -0.06215604394674301 -0.5710877180099487
vn -0.5877736806869507 -0.6074413061141968 -0.5343568325042725
vn -0.044318828731775284 -0.5888757705688477 -0.8070076107978821
vn 0.29705867171287537 -0.612567663192749 -0.7324732542037964
vn -0.1562744677066803 -0.8188193440437317 -0.552370548248291
vn 0.08540001511573792 0.9712352752685547 0.2222813367843628
vn 0.785102367401123 0.5957219004631042 -0.1694985032081604
vn -0.8720137476921082 -0.48777270317077637 -0.040864184498786926
vn 0.5892003774642944 -0.5070610642433167 -0.6290724277496338
vn -0.6427574753761292 -0.7262634634971619 -0.24372997879981995
vn 0.4514106810092926 0.8855229020118713 0.10989833623170853
vn -0.24971599876880646 0.9116716384887695 0.32633838057518005
vn 0.8597090244293213 0.24221844971179962 -0.44970062375068665
vn -0.9625028371810913 -0.17038027942180634 0.21108978986740112
vn -0.9523667693138123 -0.29256823658943176 0.08603113889694214
vn 0.21074488759040833 -0.7551610469818115 -0.6207402944564819
vn -0.2521372437477112 -0.8864881992340088 -0.3880276679992676
vn -0.4341493248939514 -0.875931978225708 -0.2103748917579651
vn 0.09788315743207932 0.9660434126853943 0.23912140727043152
vn 0.8268185257911682 0.4062848389148712 -0.38897791504859924
vn -0.9424154162406921 0.039083320647478104 0.3321530818939209
vn 0.9042916893959045 0.11901769042015076 -0.40998947620391846
vn 0.8096898794174194 -0.05470449477434158 -0.5843029022216797
vn 0.7442042827606201 -0.24619632959365845 -0.6209246516227722
vn -0.9431829452514648 -0.29191651940345764 0.15871590375900269
vn 0.4705972373485565 -0.5085927844047546 -0.7210212349891663
vn -0.6597488522529602 0.6474595069885254 0.38148099184036255
vn 0.6741629242897034 0.6956586837768555 -0.2481197714805603
vn -0.8489494323730469 0.34528499841690063 0.40007898211479187
vn 0.873607337474823 0.09350595623254776 -0.4775634706020355
vn -0.8984652161598206 -0.42289698123931885 0.11797643452882767
vn -0.7224408388137817 -0.6875474452972412 -0.07319667935371399
vn 0.1284881979227066 -0.764796257019043 -0.6313300132751465
vn -0.07471081614494324 -0.8649993538856506 -0.49617987871170044
vn 0.23704804480075836 0.9584659934043884 0.15859122574329376
vn -0.02761991135776043 0.9537789225578308 0.2992374300956726
vn 0.5147367715835571 0.8543825745582581 -0.07124870270490646
vn 0.6014078855514526 -0.255099892616272 -0.7571213245391846
vn -0.33065342903137207 0.8594353795051575 0.389922171831131
vn 0.832857608795166 0.45196759700775146 -0.31948959827423096
vn -0.9573293328285217 -0.1680576354265213 0.23511125147342682
vn -0.9583020210266113 0.02408856712281704 0.28474023938179016
vn 0.7487348318099976 0.028034018352627754 -0.6622766256332397
vn -0.9049693942070007 -0.41459664702415466 0.0956033319234848
vn 0.6869897246360779 -0.33823296427726746 -0.6431513428688049
vn 0.30023932456970215 -0.7573009133338928 -0.5799582600593567
vn -0.4441158175468445 -0.8648557066917419 -0.23406371474266052
vn 0.3153174817562103 0.9408523440361023 0.12398333102464676
vn -0.6614327430725098 0.6091938018798828 0.437481164932251
vn 0.6682664752006531 0.7407088279724121 -0.06906871497631073
vn 0.9310463070869446 0.2927088141441345 -0.21788612008094788
vn 0.8561503887176514 0.0961662158370018 -0.5076993107795715
vn -0.05748099461197853 -0.9805929660797119 -0.1874391883611679
vn -0.8762040138244629 0.2829071581363678 0.3901667594909668
vn 0.9086434841156006 0.2615971565246582 -0.3254750669002533
vn -0.7048617601394653 -0.7092655301094055 -0.010604129172861576
vn -0.8283196687698364 -0.5558435916900635 0.07017410546541214
vn 0.6173979043960571 -0.6794022917747498 -0.39652547240257263
vn 0.2701016962528229 -0.9342295527458191 -0.23293834924697876
vn -0.32643792033195496 -0.9451343417167664 -0.012623517774045467
vn 0.2807663083076477 0.9264142513275146 0.2508525848388672
vn -0.1018010675907135 0.9018053412437439 0.41998061537742615
vn -0.5643041133880615 0.6851171851158142 0.4606249928474426
vn 0.6113247871398926 0.770243227481842 0.18167950212955475
vn 0.8748369216918945 0.4836169481277466 -0.027839303016662598
vn 0.9426605105400085 0.3130987882614136 -0.11558718979358673
vn 0.8908770084381104 0.21934759616851807 -0.397774875164032
vn 0.8893912434577942 -0.1699674129486084 -0.4243752062320709
vn -0.07021521776914597 -0.9896560907363892 -0.12510256469249725
vn -0.8812901973724365 0.2540361285209656 0.39848873019218445
vn -0.9613077640533447 -0.12480711936950684 0.24558207392692566
vn -0.9335384368896484 -0.32158005237579346 0.15840546786785126
vn 0.48074790835380554 -0.8182028532028198 -0.3153183162212372
vn 0.10137628018856049 -0.9815478324890137 -0.16213203966617584
vn 0.2096564918756485 0.8834459185600281 0.41900771856307983
vn 0.8133927583694458 0.5761169791221619 0.08050687611103058
vn 0.8800721764564514 0.4497607350349426 -0.1522769331932068
vn 0.935741662979126 0.258603036403656 -0.2398167848587036
vn 0.9326147437095642 -0.20622219145298004 -0.29614561796188354
vn 0.7899439334869385 -0.5081719160079956 -0.3431470990180969
vn -0.26526856422424316 -0.9415070414543152 -0.20783910155296326
vn -0.6296021342277527 -0.7734111547470093 -0.07373188436031342
vn 0.5283030867576599 0.7857024073600769 0.32181933522224426
vn -0.18985728919506073 0.805723249912262 0.561038613319397
vn -0.5442804098129272 0.6007018685340881 0.5855904221534729
vn -0.9663553833961487 -0.11945392191410065 0.22778964042663574
vn -0.878033459186554 -0.47551867365837097 0.05421550199389458
vn 0.7111489176750183 -0.5795134902000427 -0.39803433418273926
vn 0.1759229153394699 0.8273545503616333 0.5334187746047974
vn 0.8827178478240967 0.4506315588951111 0.13319310545921326
vn -0.9373784065246582 0.10883387178182602 0.33087313175201416
vn -0.6962865591049194 0.5344863533973694 0.4790714681148529
vn 0.9990662336349487 0.028571078553795815 -0.032410405576229095
vn -0.964420735836029 -0.18558183312416077 0.18828724324703217
vn 0.21159812808036804 -0.9539720416069031 -0.21251724660396576
vn -0.00993962399661541 -0.9524911046028137 -0.30440405011177063
vn -0.4721512198448181 -0.7884617447853088 -0.39420974254608154
vn 0.5702362656593323 0.7430186867713928 0.35036250948905945
vn -0.26332151889801025 0.7768704295158386 0.57195645570755
vn 0.7181214690208435 0.6428709626197815 0.2664928734302521
vn 0.5738857984542847 -0.8172194957733154 -0.05298527330160141
vn -0.30935949087142944 0.7862540483474731 0.5348843336105347
vn -0.665751039981842 0.6148054003715515 0.42283549904823303
vn -0.9396567940711975 0.16208864748477936 0.3012847304344177
vn 0.8762223720550537 0.1556067168712616 0.45609310269355774
vn 0.6265812516212463 -0.3629058599472046 0.6897066831588745
vn -0.7907304763793945 -0.6121240854263306 -0.007035211194306612
vn -0.015595299191772938 -0.9683605432510376 0.24906757473945618
vn 0.14803805947303772 -0.9874235987663269 0.05549190938472748
vn 0.23108649253845215 -0.889272153377533 0.39470764994621277
vn -0.17696097493171692 -0.9834175705909729 0.03968281298875809
vn 0.4830922484397888 0.6251973509788513 0.6129846572875977
vn 0.004556864500045776 0.8089926838874817 0.5878010988235474
vn 0.6268686652183533 0.5214069485664368 0.5789391994476318
vn 0.6508681774139404 0.2947116196155548 0.6996540427207947
vn -0.8512711524963379 -0.35299763083457947 0.3882397413253784
vn 0 -0 0
vn 0 -0 0
vn 0 -0 0
vn 0 -0 0
vn 0.12924504280090332 -0.7095178365707397 0.6927338242530823
vn 0 -0 0
vn -0.4159707725048065 -0.6431171894073486 0.6429375410079956
vn 0.3410162329673767 0.5394830703735352 0.7698480486869812
vn -0.688671886920929 0.41752931475639343 0.5927903652191162
vn -0.911379337310791 -0.0433942936360836 0.409273236989975
vn 0.3715907633304596 -0.12228143215179443 0.9203084707260132
vn 0.2802284359931946 -0.18091416358947754 0.9427312016487122
vn 0.2170535773038864 -0.38629576563835144 0.8964727520942688
vn 0.17516961693763733 -0.6149044036865234 0.7689006328582764
vn 0 -0 0
vn 0.023066438734531403 0.40288475155830383 0.9149600863456726
vn 0.36319342255592346 0.19414803385734558 0.9112613201141357
vn 0.42620107531547546 -0.04544750228524208 0.9034861326217651
vn 0.3121522068977356 -0.3026721179485321 0.9005279541015625
vn 0.1147543340921402 -0.3092975318431854 0.94401615858078
vn 0.010084128007292747 -0.4352782070636749 0.9002395868301392
vn -0.37344175577163696 -0.41483187675476074 0.829732358455658
vn -0.589077353477478 -0.08996763825416565 0.8030527234077454
f 1//1 2//2 3//3
f 1//1 3//3 4//4
f 4//4 5//5 1//1
f 6//6 1//1 5//5
f 5//5 7//7 6//6
f 4//4 3//3 8//8
f 8//8 9//9 4//4
f 4//4 9//9 5//5
f 8//8 3//3 10//10
f 11//11 5//5 9//9
f 11//11 12//12 5//5
f 10//10 13//13 8//8
f 14//14 8//8 13//13
f 9//9 8//8 14//14
f 15//15 9//9 14//14
f 11//11 9//9 15//15
f 1//1 6//6 2//2
f 16//16 3//3 2//2
f 3//3 16//16 10//10
f 7//7 5//5 12//12
f 17//17 14//14 13//13
f 15//15 18//18 11//11
f 18//18 12//12 11//11
f 15//15 14//14 17//17
f 18//18 15//15 19//19
f 6//6 20//20 2//2
f 10//10 16//16 21//21
f 22//22 10//10 21//21
f 10//10 22//22 23//23
f 7//7 12//12 24//24
f 13//13 10//10 23//23
f 17//17 13//13 25//25
f 18//18 26//26 24//24
f 24//24 12//12 18//18
f 15//15 17//17 19//19
f 2//2 20//20 16//16
f 16//16 20//20 27//27
f 6//6 28//28 20//20
f 29//29 28//28 7//7
f 7//7 28//28 6//6
f 21//21 16//16 30//30
f 21//21 31//31 22//22
f 21//21 30//30 31//31
f 23//23 22//22 32//32
f 24//24 33//33 7//7
f 25//25 13//13 23//23
f 25//25 34//34 17//17
f 34//34 19//19 17//17
f 27//27 20//20 35//35
f 27//27 36//36 31//31
f 27//27 31//31 30//30
f 27//27 30//30 16//16
f 37//37 29//29 7//7
f 31//31 36//36 22//22
f 22//22 36//36 32//32
f 7//7 33//33 37//37
f 24//24 38//38 33//33
f 39//39 31//31 30//30
f 40//40 34//34 25//25
f 41//41 19//19 34//34
f 42//42 19//19 41//41
f 18//18 19//19 42//42
f 18//18 42//42 43//43
f 26//26 18//18 44//44
f 18//18 43//43 44//44
f 28//28 45//45 20//20
f 27//27 35//35 36//36
f 46//46 28//28 29//29
f 23//23 47//47 25//25
f 24//24 48//48 38//38
f 26//26 48//48 24//24
f 34//34 40//40 41//41
f 48//48 26//26 44//44
f 20//20 49//49 35//35
f 46//46 45//45 28//28
f 40//40 25//25 47//47
f 41//41 50//50 42//42
f 51//51 36//36 35//35
f 52//52 46//46 29//29
f 52//52 29//29 37//37
f 32//32 53//53 23//23
f 53//53 47//47 23//23
f 41//41 40//40 50//50
f 42//42 50//50 54//54
f 42//42 54//54 43//43
f 20//20 55//55 49//49
f 55//55 20//20 45//45
f 47//47 56//56 40//40
f 40//40 56//56 50//50
f 45//45 57//57 55//55
f 35//35 49//49 51//51
f 58//58 45//45 46//46
f 32//32 36//36 51//51
f 37//37 33//33 59//59
f 60//60 56//56 47//47
f 38//38 48//48 61//61
f 50//50 62//62 54//54
f 54//54 62//62 63//63
f 44//44 43//43 64//64
f 64//64 43//43 54//54
f 45//45 58//58 57//57
f 51//51 65//65 32//32
f 58//58 46//46 52//52
f 59//59 52//52 37//37
f 32//32 66//66 53//53
f 59//59 33//33 67//67
f 47//47 53//53 68//68
f 47//47 68//68 60//60
f 33//33 38//38 61//61
f 60//60 69//69 56//56
f 50//50 56//56 62//62
f 56//56 69//69 62//62
f 48//48 44//44 70//70
f 32//32 65//65 66//66
f 58//58 52//52 71//71
f 33//33 61//61 67//67
f 61//61 48//48 70//70
f 64//64 63//63 72//72
f 64//64 70//70 44//44
f 54//54 63//63 64//64
f 73//73 49//49 55//55
f 57//57 74//74 55//55
f 51//51 49//49 65//65
f 66//66 68//68 53//53
f 59//59 67//67 75//75
f 69//69 76//76 62//62
f 77//77 70//70 64//64
f 49//49 73//73 78//78
f 74//74 57//57 79//79
f 49//49 78//78 65//65
f 58//58 71//71 57//57
f 75//75 71//71 52//52
f 59//59 75//75 52//52
f 80//80 68//68 66//66
f 75//75 67//67 81//81
f 68//68 82//82 60//60
f 83//83 69//69 60//60
f 83//83 60//60 82//82
f 70//70 84//84 61//61
f 63//63 62//62 85//85
f 63//63 85//85 72//72
f 64//64 72//72 77//77
f 55//55 74//74 73//73
f 82//82 68//68 80//80
f 61//61 84//84 67//67
f 84//84 70//70 77//77
f 76//76 85//85 62//62
f 74//74 79//79 86//86
f 57//57 71//71 79//79
f 66//66 65//65 80//80
f 87//87 81//81 67//67
f 65//65 78//78 88//88
f 89//89 79//79 71//71
f 75//75 89//89 71//71
f 65//65 90//90 80//80
f 75//75 81//81 87//87
f 80//80 91//91 82//82
f 67//67 84//84 92//92
f 92//92 87//87 67//67
f 77//77 93//93 84//84
f 74//74 86//86 73//73
f 88//88 78//78 73//73
f 88//88 90//90 65//65
f 89//89 75//75 94//94
f 94//94 87//87 95//95
f 94//94 75//75 87//87
f 96//96 92//92 84//84
f 69//69 83//83 76//76
f 76//76 97//97 85//85
f 73//73 98//98 88//88
f 86//86 98//98 73//73
f 79//79 99//99 86//86
f 79//79 100//100 99//99
f 100//100 79//79 89//89
f 80//80 90//90 91//91
f 95//95 87//87 92//92
f 76//76 101//101 97//97
f 96//96 84//84 93//93
f 72//72 85//85 93//93
f 85//85 97//97 93//93
f 93//93 77//77 72//72
f 90//90 88//88 102//102
f 94//94 95//95 103//103
f 104//104 105//105 91//91
f 82//82 91//91 105//105
f 76//76 83//83 101//101
f 88//88 98//98 106//106
f 86//86 106//106 98//98
f 107//107 100//100 89//89
f 108//108 102//102 88//88
f 89//89 94//94 107//107
f 107//107 94//94 103//103
f 91//91 90//90 104//104
f 92//92 96//96 95//95
f 83//83 82//82 105//105
f 96//96 93//93 109//109
f 106//106 86//86 110//110
f 106//106 111//111 88//88
f 88//88 111//111 108//108
f 90//90 102//102 104//104
f 102//102 112//112 104//104
f 95//95 113//113 103//103
f 95//95 96//96 114//114
f 115//115 83//83 105//105
f 116//116 117//117 93//93
f 116//116 93//93 97//97
f 109//109 93//93 117//117
f 111//111 106//106 118//118
f 86//86 99//99 110//110
f 111//111 119//119 108//108
f 108//108 119//119 102//102
f 99//99 107//107 120//120
f 100//100 107//107 99//99
f 102//102 119//119 112//112
f 113//113 107//107 103//103
f 95//95 114//114 113//113
f 114//114 96//96 121//121
f 83//83 115//115 122//122
f 109//109 117//117 121//121
f 121//121 96//96 109//109
f 83//83 122//122 101//101
f 97//97 101//101 116//116
f 123//123 106//106 110//110
f 123//123 118//118 106//106
f 110//110 99//99 120//120
f 119//119 124//124 112//112
f 120//120 107//107 125//125
f 124//124 126//126 112//112
f 127//127 104//104 112//112
f 104//104 127//127 105//105
f 127//127 128//128 105//105
f 105//105 128//128 115//115
f 122//122 129//129 101//101
f 101//101 129//129 116//116
f 123//123 110//110 130//130
f 110//110 120//120 131//131
f 124//124 132//132 133//133
f 119//119 132//132 124//124
f 111//111 132//132 119//119
f 118//118 132//132 111//111
f 124//124 134//134 126//126
f 135//135 125//125 113//113
f 113//113 125//125 107//107
f 127//127 112//112 126//126
f 136//136 135//135 114//114
f 135//135 113//113 114//114
f 114//114 121//121 136//136
f 136//136 121//121 137//137
f 128//128 122//122 115//115
f 137//137 121//121 117//117
f 138//138 116//116 129//129
f 117//117 116//116 138//138
f 118//118 139//139 132//132
f 134//134 124//124 133//133
f 126//126 134//134 127//127
f 140//140 122//122 128//128
f 141//141 122//122 140//140
f 122//122 141//141 129//129
f 117//117 138//138 142//142
f 142//142 137//137 117//117
f 130//130 110//110 143//143
f 143//143 110//110 131//131
f 120//120 144//144 131//131
f 144//144 120//120 125//125
f 134//134 145//145 127//127
f 128//128 127//127 140//140
f 129//129 141//141 138//138
f 146//146 147//147 123//123
f 130//130 146//146 123//123
f 146//146 130//130 148//148
f 147//147 139//139 118//118
f 123//123 147//147 118//118
f 149//149 133//133 132//132
f 139//139 149//149 132//132
f 130//130 143//143 148//148
f 143//143 131//131 144//144
f 133//133 150//150 134//134
f 125//125 135//135 144//144
f 135//135 136//136 151//151
f 152//152 127//127 145//145
f 137//137 142//142 151//151
f 136//136 137//137 151//151
f 127//127 152//152 153//153
f 127//127 153//153 140//140
f 141//141 154//154 138//138
f 155//155 156//156 139//139
f 147//147 155//155 139//139
f 139//139 156//156 149//149
f 148//148 143//143 157//157
f 157//157 143//143 158//158
f 144//144 158//158 143//143
f 135//135 159//159 144//144
f 145//145 150//150 160//160
f 150//150 145//145 134//134
f 151//151 142//142 161//161
f 138//138 154//154 161//161
f 142//142 138//138 161//161
f 162//162 155//155 147//147
f 147//147 146//146 162//162
f 149//149 156//156 163//163
f 149//149 163//163 133//133
f 163//163 164//164 133//133
f 164//164 150//150 133//133
f 158//158 144//144 165//165
f 160//160 166//166 145//145
f 151//151 161//161 167//167
f 167//167 168//168 151//151
f 168//168 135//135 151//151
f 159//159 135//135 168//168
f 166//166 152//152 145//145
f 141//141 140//140 154//154
f 140//140 153//153 154//154
f 169//169 170//170 155//155
f 155//155 170//170 156//156
f 162//162 169//169 155//155
f 146//146 171//171 162//162
f 146//146 148//148 171//171
f 156//156 170//170 163//163
f 164//164 160//160 150//150
f 144//144 159//159 165//165
f 165//165 159//159 168//168
f 161//161 172//172 167//167
f 166//166 153//153 152//152
f 153//153 172//172 154//154
f 161//161 154//154 172//172
f 173//173 169//169 174//174
f 174//174 169//169 175//175
f 169//169 173//173 170//170
f 175//175 169//169 162//162
f 148//148 176//176 171//171
f 176//176 148//148 157//157
f 165//165 177//177 158//158
f 165//165 178//178 177//177
f 179//179 178//178 165//165
f 165//165 168//168 179//179
f 160//160 180//180 166//166
f 180//180 181//181 166//166
f 168//168 167//167 179//179
f 166//166 182//182 153//153
f 182//182 172//172 153//153
f 183//183 174//174 184//184
f 174//174 175//175 184//184
f 175//175 162//162 184//184
f 162//162 171//171 184//184
f 185//185 163//163 170//170
f 163//163 186//186 164//164
f 176//176 157//157 187//187
f 157//157 158//158 177//177
f 164//164 188//188 160//160
f 188//188 189//189 160//160
f 180//180 160//160 189//189
f 179//179 167//167 190//190
f 190//190 167//167 172//172
f 166//166 181//181 182//182
f 173//173 191//191 185//185
f 183//183 173//173 174//174
f 173//173 185//185 170//170
f 176//176 184//184 171//171
f 185//185 191//191 163//163
f 163//163 191//191 186//186
f 177//177 187//187 157//157
f 186//186 188//188 164//164
f 177//177 178//178 192//192
f 189//189 193//193 180//180
f 194//194 179//179 190//190
f 178//178 179//179 194//194
f 195//195 190//190 196//196
f 180//180 197//197 181//181
f 182//182 181//181 197//197
f 172//172 182//182 196//196
f 190//190 172//172 196//196
f 173//173 183//183 198//198
f 173//173 198//198 191//191
f 183//183 184//184 199//199
f 200//200 199//199 184//184
f 186//186 191//191 201//201
f 200//200 184//184 176//176
f 201//201 188//188 186//186
f 187//187 177//177 202//202
f 192//192 202//202 177//177
f 188//188 203//203 189//189
f 203//203 193//193 189//189
f 192//192 178//178 194//194
f 194//194 190//190 195//195
f 197//197 196//196 182//182
f 183//183 204//204 198//198
f 205//205 191//191 198//198
f 206//206 200//200 176//176
f 207//207 188//188 201//201
f 176//176 187//187 206//206
f 208//208 193//193 203//203
f 209//209 202//202 192//192
f 192//192 194//194 210//210
f 209//209 192//192 210//210
f 180//180 193//193 197//197
f 196//196 211//211 195//195
f 210//210 194//194 195//195
f 196//196 197//197 212//212
f 205//205 198//198 213//213
f 198//198 204//204 213//213
f 204//204 183//183 199//199
f 200//200 204//204 199//199
f 191//191 205//205 201//201
f 214//214 200//200 206//206
f 206//206 187//187 215//215
f 203//203 188//188 207//207
f 216//216 187//187 209//209
f 209//209 187//187 202//202
f 197//197 193//193 212//212
f 195//195 211//211 210//210
f 211//211 196//196 212//212
f 204//204 217//217 213//213
f 204//204 200//200 217//217
f 201//201 205//205 218//218
f 201//201 219//219 207//207
f 215//215 187//187 216//216
f 207//207 220//220 203//203
f 220//220 208//208 203//203
f 221//221 216//216 209//209
f 208//208 222//222 193//193
f 223//223 221//221 209//209
f 193//193 222//222 212//212
f 209//209 210//210 223//223
f 224//224 211//211 212//212
f 225//225 226//226 205//205
f 213//213 225//225 205//205
f 225//225 213//213 217//217
f 200//200 227//227 217//217
f 200//200 214//214 227//227
f 218//218 219//219 201//201
f 215//215 214//214 206//206
f 220//220 207//207 219//219
f 228//228 215//215 216//216
f 222//222 229//229 212//212
f 223//223 230//230 221//221
f 212//212 229//229 224//224
f 223//223 231//231 230//230
f 223//223 210//210 231//231
f 231//231 211//211 224//224
f 210//210 211//211 231//231
f 225//225 232//232 226//226
f 232//232 225//225 233//233
f 217//217 233//233 225//225
f 218//218 226//226 234//234
f 235//235 218//218 234//234
f 226//226 218//218 205//205
f 236//236 217//217 227//227
f 219//219 218//218 235//235
f 227//227 214//214 237//237
f 238//238 214//214 215//215
f 215//215 228//228 238//238
f 220//220 239//239 208//208
f 240//240 228//228 221//221
f 208//208 239//239 222//222
f 240//240 221//221 230//230
f 228//228 216//216 221//221
f 229//229 222//222 241//241
f 231//231 242//242 230//230
f 240//240 230//230 242//242
f 243//243 224//224 229//229
f 231//231 224//224 243//243
f 226//226 232//232 234//234
f 232//232 244//244 234//234
f 236//236 227//227 237//237
f 238//238 237//237 214//214
f 240//240 245//245 238//238
f 228//228 240//240 238//238
f 246//246 240//240 242//242
f 241//241 222//222 239//239
f 242//242 229//229 241//241
f 242//242 243//243 229//229
f 231//231 243//243 242//242
f 234//234 244//244 247//247
f 217//217 236//236 248//248
f 233//233 217//217 248//248
f 235//235 234//234 247//247
f 249//249 236//236 237//237
f 249//249 237//237 250//250
f 251//251 219//219 235//235
f 252//252 219//219 251//251
f 250//250 237//237 245//245
f 219//219 252//252 220//220
f 238//238 245//245 237//237
f 252//252 239//239 220//220
f 245//245 240//240 246//246
f 241//241 239//239 253//253
f 241//241 253//253 242//242
f 246//246 242//242 253//253
f 254//254 255//255 256//256
f 244//244 254//254 257//257
f 247//247 244//244 257//257
f 255//255 254//254 244//244
f 258//258 256//256 233//233
f 233//233 256//256 255//255
f 259//259 258//258 248//248
f 248//248 258//258 233//233
f 255//255 244//244 232//232
f 233//233 255//255 232//232
f 260//260 259//259 248//248
f 248//248 236//236 260//260
f 235//235 247//247 261//261
f 235//235 261//261 262//262
f 260//260 236//236 249//249
f 262//262 251//251 235//235
f 263//263 239//239 252//252
f 250//250 245//245 264//264
f 245//245 246//246 264//264
f 265//265 239//239 263//263
f 253//253 239//239 265//265
f 264//264 246//246 253//253
f 266//266 254//254 256//256
f 266//266 257//257 254//254
f 247//247 257//257 267//267
f 268//268 247//247 267//267
f 269//269 259//259 260//260
f 260//260 249//249 270//270
f 270//270 249//249 250//250
f 271//271 251//251 262//262
f 251//251 263//263 252//252
f 264//264 253//253 272//272
f 258//258 259//259 273//273
f 273//273 259//259 269//269
f 247//247 268//268 261//261
f 268//268 262//262 261//261
f 269//269 260//260 270//270
f 270//270 250//250 272//272
f 263//263 251//251 271//271
f 272//272 274//274 275//275
f 250//250 264//264 272//272
f 274//274 253//253 265//265
f 272//272 253//253 274//274
f 276//276 277//277 278//278
f 277//277 276//276 266//266
f 276//276 279//279 257//257
f 276//276 257//257 266//266
f 256//256 277//277 266//266
f 280//280 277//277 256//256
f 281//281 267//267 279//279
f 279//279 267//267 257//257
f 256//256 258//258 280//280
f 258//258 273//273 280//280
f 267//267 281//281 268//268
f 282//282 262//262 268//268
f 282//282 283//283 262//262
f 270//270 284//284 269//269
f 283//283 271//271 262//262
f 271//271 285//285 286//286
f 271//271 283//283 285//285
f 270//270 272//272 275//275
f 286//286 263//263 271//271
f 287//287 263//263 286//286
f 265//265 287//287 274//274
f 263//263 287//287 265//265
f 288//288 276//276 278//278
f 288//288 289//289 279//279
f 276//276 288//288 279//279
f 281//281 290//290 268//268
f 291//291 273//273 269//269
f 290//290 282//282 268//268
f 270//270 275//275 284//284
f 274//274 287//287 292//292
f 274//274 292//292 275//275
f 277//277 280//280 293//293
f 279//279 289//289 294//294
f 279//279 294//294 281//281
f 280//280 273//273 295//295
f 273//273 291//291 295//295
f 296//296 290//290 281//281
f 269//269 297//297 291//291
f 269//269 284//284 297//297
f 282//282 298//298 283//283
f 282//282 290//290 298//298
f 292//292 284//284 275//275
f 285//285 299//299 286//286
f 286//286 299//299 287//287
f 288//288 300//300 289//289
f 288//288 278//278 300//300
f 277//277 301//301 278//278
f 278//278 301//301 300//300
f 301//301 277//277 293//293
f 295//295 293//293 280//280
f 289//289 302//302 294//294
f 302//302 303//303 294//294
f 294//294 296//296 281//281
f 297//297 304//304 291//291
f 305//305 297//297 284//284
f 290//290 306//306 298//298
f 283//283 298//298 285//285
f 284//284 292//292 305//305
f 292//292 287//287 299//299
f 295//295 291//291 307//307
f 296//296 294//294 303//303
f 296//296 308//308 290//290
f 290//290 309//309 306//306
f 305//305 310//310 297//297
f 285//285 298//298 311//311
f 285//285 311//311 299//299
f 310//310 305//305 292//292
f 299//299 311//311 292//292
f 300//300 312//312 289//289
f 289//289 312//312 302//302
f 301//301 293//293 313//313
f 307//307 291//291 304//304
f 304//304 297//297 314//314
f 290//290 308//308 309//309
f 292//292 315//315 310//310
f 298//298 306//306 316//316
f 298//298 316//316 311//311
f 315//315 292//292 311//311
f 301//301 312//312 300//300
f 313//313 293//293 295//295
f 303//303 308//308 296//296
f 304//304 314//314 317//317
f 297//297 310//310 314//314
f 314//314 310//310 315//315
f 306//306 309//309 318//318
f 301//301 319//319 312//312
f 313//313 295//295 307//307
f 302//302 320//320 303//303
f 317//317 307//307 304//304
f 320//320 321//321 303//303
f 303//303 321//321 308//308
f 317//317 314//314 322//322
f 322//322 314//314 315//315
f 323//323 322//322 315//315
f 311//311 316//316 315//315
f 301//301 313//313 319//319
f 324//324 302//302 312//312
f 313//313 307//307 325//325
f 302//302 324//324 320//320
f 307//307 317//317 326//326
f 306//306 318//318 327//327
f 316//316 306//306 327//327
f 309//309 308//308 328//328
f 309//309 329//329 318//318
f 323//323 315//315 316//316
f 319//319 330//330 312//312
f 313//313 325//325 319//319
f 331//331 317//317 322//322
f 321//321 332//332 308//308
f 308//308 332//332 328//328
f 322//322 333//333 334//334
f 333//333 322//322 323//323
f 333//333 323//323 316//316
f 327//327 318//318 329//329
f 312//312 330//330 335//335
f 325//325 307//307 336//336
f 312//312 335//335 324//324
f 320//320 324//324 337//337
f 317//317 331//331 326//326
f 338//338 321//321 337//337
f 321//321 320//320 337//337
f 338//338 332//332 321//321
f 339//339 309//309 328//328
f 309//309 339//339 329//329
f 327//327 329//329 340//340
f 333//333 316//316 327//327
f 340//340 333//333 327//327
f 341//341 325//325 336//336
f 319//319 341//341 330//330
f 325//325 341//341 319//319
f 324//324 335//335 342//342
f 336//336 307//307 326//326
f 324//324 342//342 337//337
f 337//337 343//343 338//338
f 322//322 334//334 331//331
f 332//332 338//338 344//344
f 332//332 344//344 345//345
f 332//332 345//345 328//328
f 328//328 345//345 346//346
f 328//328 346//346 339//339
f 347//347 329//329 339//339
f 347//347 340//340 329//329
f 348//348 336//336 326//326
f 343//343 337//337 342//342
f 344//344 349//349 345//345
f 345//345 350//350 346//346
f 333//333 351//351 352//352
f 352//352 334//334 333//333
f 351//351 333//333 340//340
f 346//346 350//350 353//353
f 346//346 353//353 339//339
f 341//341 354//354 330//330
f 336//336 354//354 341//341
f 348//348 354//354 336//336
f 335//335 330//330 355//355
f 355//355 342//342 335//335
f 326//326 331//331 348//348
f 348//348 331//331 356//356
f 357//357 338//338 343//343
f 358//358 356//356 334//334
f 356//356 331//331 334//334
f 338//338 357//357 359//359
f 338//338 359//359 349//349
f 344//344 338//338 349//349
f 352//352 358//358 334//334
f 345//345 349//349 360//360
f 345//345 360//360 350//350
f 361//361 350//350 360//360
f 350//350 361//361 353//353
f 347//347 351//351 340//340
f 339//339 353//353 362//362
f 347//347 339//339 362//362
f 354//354 355//355 330//330
f 363//363 342//342 364//364
f 364//364 342//342 355//355
f 359//359 357//357 365//365
f 357//357 363//363 365//365
f 342//342 357//357 343//343
f 342//342 363//363 357//357
f 349//349 359//359 366//366
f 367//367 360//360 349//349
f 351//351 368//368 352//352
f 368//368 351//351 347//347
f 353//353 361//361 369//369
f 370//370 371//371 362//362
f 371//371 347//347 362//362
f 354//354 372//372 355//355
f 354//354 348//348 372//372
f 373//373 372//372 356//356
f 372//372 348//348 356//356
f 358//358 373//373 356//356
f 359//359 365//365 366//366
f 349//349 366//366 374//374
f 375//375 376//376 373//373
f 358//358 352//352 375//375
f 373//373 358//358 375//375
f 374//374 377//377 349//349
f 349//349 377//377 367//367
f 352//352 368//368 375//375
f 360//360 367//367 378//378
f 360//360 378//378 361//361
f 379//379 361//361 378//378
f 361//361 379//379 369//369
f 353//353 369//369 362//362
f 369//369 370//370 362//362
f 364//364 355//355 372//372
f 364//364 372//372 380//380
f 366//366 365//365 381//381
f 365//365 363//363 382//382
f 363//363 364//364 382//382
f 382//382 364//364 383//383
f 380//380 383//383 364//364
f 366//366 381//381 374//374
f 373//373 376//376 380//380
f 373//373 380//380 372//372
f 384//384 383//383 376//376
f 383//383 380//380 376//376
f 384//384 376//376 385//385
f 376//376 375//375 385//385
f 375//375 368//368 386//386
f 385//385 375//375 386//386
f 387//387 368//368 347//347
f 347//347 371//371 387//387
f 388//388 378//378 389//389
f 370//370 369//369 390//390
f 370//370 390//390 387//387
f 370//370 387//387 371//371
f 379//379 391//391 369//369
f 369//369 391//391 390//390
f 379//379 378//378 388//388
f 388//388 392//392 379//379
f 391//391 379//379 392//392
f 390//390 391//391 393//393
f 365//365 394//394 381//381
f 365//365 382//382 394//394
f 395//395 374//374 381//381
f 374//374 395//395 377//377
f 368//368 387//387 386//386
f 367//367 389//389 378//378
f 387//387 390//390 396//396
f 388//388 397//397 392//392
f 398//398 390//390 393//393
f 392//392 393//393 391//391
f 394//394 399//399 381//381
f 382//382 400//400 394//394
f 399//399 395//395 381//381
f 383//383 384//384 382//382
f 386//386 384//384 385//385
f 367//367 377//377 401//401
f 386//386 387//387 402//402
f 401//401 389//389 367//367
f 402//402 387//387 403//403
f 403//403 387//387 396//396
f 398//398 396//396 390//390
f 392//392 397//397 404//404
f 392//392 404//404 393//393
f 393//393 405//405 406//406
f 398//398 393//393 406//406
f 407//407 399//399 394//394
f 408//408 401//401 395//395
f 395//395 401//401 377//377
f 409//409 386//386 402//402
f 389//389 401//401 410//410
f 389//389 411//411 412//412
f 389//389 412//412 388//388
f 403//403 396//396 413//413
f 397//397 388//388 412//412
f 404//404 397//397 414//414
f 404//404 405//405 393//393
f 394//394 400//400 407//407
f 415//415 382//382 384//384
f 395//395 416//416 408//408
f 384//384 386//386 415//415
f 415//415 386//386 417//417
f 409//409 417//417 386//386
f 401//401 408//408 410//410
f 410//410 418//418 389//389
f 402//402 403//403 413//413
f 389//389 418//418 411//411
f 396//396 419//419 413//413
f 396//396 420//420 419//419
f 398//398 420//420 396//396
f 420//420 398//398 406//406
f 404//404 414//414 421//421
f 422//422 404//404 421//421
f 405//405 404//404 422//422
f 399//399 407//407 423//423
f 400//400 424//424 407//407
f 382//382 415//415 400//400
f 395//395 399//399 425//425
f 425//425 416//416 395//395
f 426//426 412//412 411//411
f 397//397 412//412 414//414
f 412//412 426//426 414//414
f 420//420 406//406 405//405
f 407//407 424//424 423//423
f 423//423 425//425 399//399
f 400//400 427//427 424//424
f 415//415 427//427 400//400
f 416//416 428//428 408//408
f 428//428 410//410 408//408
f 429//429 430//430 409//409
f 402//402 413//413 429//429
f 409//409 402//402 429//429
f 413//413 419//419 429//429
f 431//431 411//411 418//418
f 411//411 431//431 426//426
f 419//419 420//420 432//432
f 426//426 431//431 433//433
f 434//434 426//426 433//433
f 414//414 426//426 434//434
f 434//434 421//421 414//414
f 435//435 405//405 422//422
f 435//435 420//420 405//405
f 422//422 421//421 434//434
f 425//425 423//423 436//436
f 437//437 427//427 415//415
f 438//438 416//416 425//425
f 438//438 425//425 436//436
f 415//415 417//417 437//437
f 416//416 438//438 428//428
f 428//428 438//438 439//439
f 428//428 439//439 410//410
f 419//419 432//432 429//429
f 440//440 431//431 418//418
f 440//440 433//433 431//431
f 422//422 434//434 441//441
f 422//422 441//441 435//435
f 423//423 424//424 436//436
f 442//442 437//437 417//417
f 409//409 430//430 442//442
f 417//417 409//409 442//442
f 439//439 443//443 410//410
f 443//443 418//418 410//410
f 432//432 444//444 445//445
f 420//420 444//444 432//432
f 420//420 435//435 444//444
f 446//446 434//434 433//433
f 447//447 434//434 446//446
f 447//447 441//441 434//434
f 448//448 435//435 441//441
f 449//449 438//438 436//436
f 424//424 449//449 436//436
f 450//450 449//449 424//424
f 427//427 450//450 424//424
f 437//437 451//451 427//427
f 438//438 452//452 453//453
f 439//439 438//438 453//453
f 449//449 452//452 438//438
f 437//437 442//442 451//451
f 439//439 453//453 454//454
f 443//443 439//439 454//454
f 455//455 440//440 443//443
f 440//440 418//418 443//443
f 440//440 456//456 433//433
f 433//433 456//456 446//446
f 457//457 448//448 441//441
f 448//448 444//444 435//435
f 458//458 451//451 442//442
f 458//458 442//442 430//430
f 429//429 432//432 459//459
f 432//432 460//460 459//459
f 432//432 445//445 460//460
f 455//455 456//456 440//440
f 447//447 446//446 461//461
f 441//441 462//462 457//457
f 462//462 441//441 447//447
f 427//427 451//451 450//450
f 463//463 452//452 449//449
f 453//453 464//464 454//454
f 464//464 453//453 452//452
f 454//454 465//465 443//443
f 459//459 458//458 430//430
f 459//459 430//430 429//429
f 443//443 466//466 455//455
f 455//455 466//466 456//456
f 466//466 467//467 456//456
f 468//468 446//446 456//456
f 446//446 468//468 461//461
f 447//447 461//461 462//462
f 448//448 457//457 469//469
f 448//448 469//469 470//470
f 470//470 444//444 448//448
f 449//449 450//450 463//463
f 463//463 471//471 452//452
f 450//450 472//472 463//463
f 451//451 472//472 450//450
f 473//473 472//472 451//451
f 471//471 464//464 452//452
f 454//454 464//464 465//465
f 465//465 466//466 443//443
f 460//460 474//474 459//459
f 460//460 445//445 475//475
f 467//467 468//468 456//456
f 444//444 470//470 445//445
f 461//461 468//468 476//476
f 463//463 472//472 477//477
f 473//473 451//451 458//458
f 465//465 464//464 478//478
f 479//479 480//480 458//458
f 459//459 474//474 479//479
f 458//458 459//459 479//479
f 478//478 466//466 465//465
f 466//466 481//481 467//467
f 475//475 482//482 460//460
f 445//445 470//470 475//475
f 461//461 476//476 483//483
f 462//462 461//461 483//483
f 469//469 457//457 484//484
f 469//469 484//484 485//485
f 477//477 486//486 471//471
f 463//463 477//477 471//471
f 472//472 487//487 477//477
f 471//471 486//486 464//464
f 480//480 473//473 458//458
f 488//488 464//464 486//486
f 464//464 488//488 478//478
f 478//478 481//481 466//466
f 482//482 474//474 460//460
f 476//476 468//468 467//467
f 476//476 467//467 489//489
f 489//489 467//467 481//481
f 476//476 489//489 483//483
f 457//457 462//462 484//484
f 462//462 483//483 484//484
f 472//472 473//473 487//487
f 473//473 480//480 487//487
f 487//487 480//480 490//490
f 480//480 491//491 490//490
f 480//480 492//492 491//491
f 492//492 480//480 479//479
f 479//479 474//474 492//492
f 478//478 493//493 481//481
f 474//474 482//482 492//492
f 494//494 489//489 481//481
f 470//470 469//469 485//485
f 470//470 485//485 495//495
f 475//475 470//470 495//495
f 489//489 496//496 483//483
f 496//496 497//497 483//483
f 483//483 497//497 484//484
f 497//497 496//496 498//498
f 484//484 497//497 499//499
f 484//484 499//499 485//485
f 499//499 495//495 485//485
f 486//486 477//477 500//500
f 487//487 501//501 477//477
f 490//490 501//501 487//487
f 488//488 500//500 502//502
f 486//486 500//500 488//488
f 478//478 488//488 502//502
f 478//478 503//503 493//493
f 502//502 503//503 478//478
f 481//481 493//493 494//494
f 482//482 475//475 504//504
f 475//475 495//495 504//504
f 505//505 506//506 507//507
f 508//508 505//505 507//507
f 496//496 489//489 509//509
f 509//509 489//489 494//494
f 498//498 496//496 509//509
f 507//507 506//506 510//510
f 507//507 510//510 508//508
f 499//499 497//497 498//498
f 499//499 511//511 495//495
f 477//477 512//512 500//500
f 501//501 512//512 477//477
f 513//513 491//491 492//492
f 492//492 482//482 514//514
f 515//515 516//516 517//517
f 514//514 482//482 504//504
f 515//515 494//494 493//493
f 517//517 509//509 494//494
f 515//515 517//517 494//494
f 518//518 509//509 517//517
f 495//495 511//511 504//504
f 505//505 519//519 506//506
f 505//505 508//508 519//519
f 518//518 498//498 509//509
f 506//506 519//519 510//510
f 508//508 510//510 519//519
f 498//498 518//518 499//499
f 499//499 518//518 511//511
f 501//501 520//520 512//512
f 501//501 490//490 520//520
f 502//502 500//500 521//521
f 521//521 500//500 512//512
f 491//491 513//513 490//490
f 503//503 502//502 521//521
f 522//522 521//521 512//512
f 513//513 492//492 514//514
f 522//522 516//516 521//521
f 503//503 515//515 493//493
f 516//516 515//515 521//521
f 521//521 515//515 503//503
f 523//523 516//516 522//522
f 523//523 524//524 525//525
f 504//504 526//526 527//527
f 504//504 527//527 514//514
f 517//517 516//516 523//523
f 524//524 526//526 525//525
f 523//523 518//518 517//517
f 525//525 518//518 523//523
f 526//526 511//511 525//525
f 504//504 511//511 526//526
f 511//511 518//518 525//525
f 513//513 520//520 490//490
f 512//512 520//520 522//522
f 524//524 522//522 520//520
f 513//513 514//514 527//527
f 522//522 524//524 523//523
f 527//527 526//526 524//524
f 520//520 513//513 527//527
f 527//527 524//524 520//520
