# Generated by Visualization Toolkit
v -149.54942321777344 -186.30458068847656 376.2091369628906
v -150.40977478027344 -189.20994567871094 374.5816345214844
v -152.40830993652344 -183.95928955078125 375.0897216796875
v -153.9580535888672 -185.5587615966797 374.5334777832031
v -153.22633361816406 -189.30950927734375 374.3449401855469
v -156.3101043701172 -186.60128784179688 376.5638122558594
v -147.7284698486328 -193.481201171875 376.248046875
v -155.2744903564453 -191.60191345214844 376.5312194824219
v -149.90687561035156 -194.2006072998047 375.0230407714844
v -153.3841094970703 -195.86122131347656 377.2409362792969
v -150.6764373779297 -198.1980438232422 377.8045654296875
v -153.5703582763672 -182.241943359375 376.4161682128906
v -153.0747528076172 -177.5864715576172 379.78204345703125
v -151.6934051513672 -181.34877014160156 378.1551513671875
v -155.76661682128906 -181.76043701171875 377.18353271484375
v -149.1111602783203 -186.70651245117188 378.3884582519531
v -156.8817901611328 -188.81044006347656 377.7936706542969
v -150.5439910888672 -199.41021728515625 379.6114501953125
v -156.04615783691406 -177.93930053710938 379.8433532714844
v -151.16026306152344 -180.2799072265625 380.6114501953125
v -158.26390075683594 -181.09249877929688 380.66424560546875
v -158.5979766845703 -185.66317749023438 380.82177734375
v -157.27552795410156 -189.5159454345703 379.8690185546875
v -148.25437927246094 -191.46112060546875 378.5830078125
v -155.0180206298828 -193.1328887939453 378.68328857421875
v -157.38404846191406 -174.55015563964844 381.50244140625
v -153.8384552001953 -173.42320251464844 381.4434814453125
v -159.2723846435547 -175.0582733154297 383.23443603515625
v -151.0624237060547 -181.75376892089844 382.4709777832031
v -149.7539825439453 -189.0602569580078 380.99102783203125
v -151.6187286376953 -184.77415466308594 383.94189453125
v -158.39515686035156 -186.91946411132812 382.93646240234375
v -150.7260284423828 -192.15481567382812 381.6633605957031
v -150.4694061279297 -195.4100799560547 380.22259521484375
v -155.3608856201172 -191.65045166015625 381.2794189453125
v -152.8417205810547 -191.23252868652344 382.8951721191406
v -152.3401641845703 -195.71246337890625 379.7854919433594
v -154.68885803222656 -169.48834228515625 384.5478210449219
v -152.8653106689453 -170.57586669921875 385.58563232421875
v -151.73008728027344 -173.42837524414062 384.43817138671875
v -160.12367248535156 -175.97329711914062 384.6582336425781
v -159.5091094970703 -180.8196258544922 383.7340393066406
v -153.0320587158203 -188.0696258544922 384.8765563964844
v -155.9858856201172 -188.85984802246094 384.8140563964844
v -156.1103057861328 -166.6021728515625 386.4853820800781
v -158.7183074951172 -168.59300231933594 386.2076721191406
v -160.4965362548828 -177.6988983154297 386.3881530761719
v -159.8615264892578 -179.00247192382812 388.9085388183594
v -152.6032257080078 -181.53900146484375 386.374755859375
v -157.94667053222656 -185.87362670898438 385.2774963378906
v -155.18333435058594 -163.18309020996094 389.10296630859375
v -157.5281219482422 -163.88230895996094 387.4266357421875
v -153.77635192871094 -165.9693145751953 388.98291015625
v -159.7925262451172 -164.46287536621094 388.11590576171875
v -160.51206970214844 -170.24234008789062 387.9878845214844
v -152.1577911376953 -173.24203491210938 387.8446960449219
v -160.8872528076172 -171.4316864013672 389.96844482421875
v -154.75367736816406 -184.93614196777344 386.8072509765625
v -155.64695739746094 -181.20794677734375 389.5766296386719
v -157.3575897216797 -182.81463623046875 388.28179931640625
v -157.61924743652344 -158.70252990722656 392.556396484375
v -159.31239318847656 -159.06654357910156 391.98504638671875
v -161.7682647705078 -165.38880920410156 390.9598083496094
v -153.6835174560547 -174.28123474121094 390.741455078125
v -161.24842834472656 -160.02882385253906 393.05230712890625
v -154.3417205810547 -163.1837158203125 392.5957946777344
v -153.7135467529297 -168.58673095703125 391.60595703125
v -161.8957061767578 -168.21961975097656 391.99505615234375
v -160.26182556152344 -171.44650268554688 392.3381652832031
v -156.2296905517578 -177.25257873535156 391.7461242675781
v -158.4613494873047 -177.59521484375 391.3769836425781
v -159.5261688232422 -151.7445068359375 395.781494140625
v -161.4250946044922 -155.95965576171875 394.7557678222656
v -157.53562927246094 -152.36175537109375 395.913818359375
v -156.2964324951172 -156.4298095703125 395.86767578125
v -155.92771911621094 -158.96958923339844 395.3416748046875
v -154.81105041503906 -164.70652770996094 395.25433349609375
v -162.4495391845703 -162.5791473388672 396.17266845703125
v -155.82777404785156 -168.9325408935547 394.7085266113281
v -156.18080139160156 -172.45114135742188 392.9559631347656
v -158.6774139404297 -172.99134826660156 392.8702697753906
v -155.63661193847656 -160.48081970214844 396.22125244140625
v -157.32313537597656 -166.56297302246094 397.54400634765625
v -159.5696563720703 -167.47691345214844 397.1971435546875
v -160.96327209472656 -167.9167938232422 395.72955322265625
v -158.1098175048828 -148.12454223632812 398.4506530761719
v -162.37950134277344 -155.12548828125 400.5313720703125
v -156.59263610839844 -162.29725646972656 398.4947204589844
v -161.5626983642578 -161.69223022460938 401.227783203125
v -160.35935974121094 -148.34251403808594 398.74383544921875
v -158.48985290527344 -143.43162536621094 401.13330078125
v -156.5326385498047 -146.76121520996094 400.70135498046875
v -161.9977569580078 -151.26345825195312 400.3540344238281
v -161.20750427246094 -145.85211181640625 401.0592041015625
v -156.3310089111328 -154.0871124267578 403.03399658203125
v -159.1708526611328 -164.20132446289062 399.79736328125
v -158.37962341308594 -159.27862548828125 403.0711669921875
v -159.08653259277344 -138.8784637451172 404.4710693359375
v -155.8727264404297 -149.76292419433594 402.1488037109375
v -160.2938690185547 -161.0809326171875 402.9883728027344
v -157.2893524169922 -139.02452087402344 404.67620849609375
v -161.96412658691406 -143.7477264404297 405.0460510253906
v -161.7547149658203 -153.168701171875 405.6185607910156
v -160.8740692138672 -138.97911071777344 405.7182922363281
v -159.6363067626953 -134.89707946777344 407.46136474609375
v -155.78163146972656 -141.35043334960938 405.3471374511719
v -155.5298309326172 -143.94027709960938 407.097412109375
v -162.1994171142578 -145.66712951660156 406.9131164550781
v -158.3842010498047 -153.84207153320312 406.70556640625
v -160.32325744628906 -157.75698852539062 404.665283203125
v -158.49171447753906 -129.651611328125 410.2064208984375
v -156.93275451660156 -130.74879455566406 409.43096923828125
v -155.4557342529297 -132.63304138183594 409.6054382324219
v -154.7251739501953 -140.8470916748047 408.8612060546875
v -161.75901794433594 -137.90867614746094 409.41729736328125
v -156.9148712158203 -147.42254638671875 409.28936767578125
v -161.6334991455078 -143.89344787597656 410.2513427734375
v -158.7786102294922 -151.3794708251953 409.3931884765625
v -160.43016052246094 -152.3795166015625 408.5179443359375
v -160.7591094970703 -134.5330047607422 410.60260009765625
v -154.3752899169922 -134.235107421875 411.155029296875
v -156.7269744873047 -143.07691955566406 412.6521911621094
v -160.4311065673828 -146.3945770263672 410.8409729003906
v -158.67689514160156 -147.24452209472656 410.70458984375
v -157.1180877685547 -124.93936157226562 411.8976135253906
v -155.36183166503906 -125.08047485351562 411.8077087402344
v -153.6940460205078 -128.62364196777344 412.4218444824219
v -158.2257843017578 -123.20503234863281 414.80084228515625
v -159.8211212158203 -128.15406799316406 414.21295166015625
v -160.82814025878906 -135.62759399414062 414.1278381347656
v -154.2345733642578 -135.2492218017578 415.0379333496094
v -155.2776641845703 -138.54330444335938 414.8047180175781
v -153.10877990722656 -119.55012512207031 415.4850769042969
v -153.6573028564453 -123.691162109375 413.32537841796875
v -155.8633270263672 -120.66468811035156 414.7109375
v -152.8275909423828 -130.17605590820312 415.1221618652344
v -158.8889617919922 -142.37904357910156 414.77734375
v -151.11509704589844 -121.86265563964844 417.2784729003906
v -155.2566375732422 -134.3084259033203 419.89080810546875
v -159.6172332763672 -137.6744842529297 416.5906677246094
v -152.0421905517578 -115.71917724609375 418.3182373046875
v -150.2706756591797 -117.48091125488281 418.818115234375
v -153.7074432373047 -115.76155090332031 418.19244384765625
v -155.34715270996094 -116.21063232421875 419.0593566894531
v -156.60655212402344 -118.61210632324219 418.25433349609375
v -150.90342712402344 -124.57553100585938 420.80267333984375
v -159.0114288330078 -126.35801696777344 420.7701721191406
v -152.60169982910156 -129.03306579589844 420.5005187988281
v -158.5405731201172 -131.14857482910156 421.24072265625
v -157.1614532470703 -138.89430236816406 416.7214660644531
v -158.45799255371094 -138.40496826171875 417.30145263671875
v -151.6352081298828 -111.72903442382812 422.142578125
v -157.63429260253906 -119.93867492675781 421.79388427734375
v -157.6000518798828 -133.50074768066406 421.400634765625
v -149.94447326660156 -112.35627746582031 421.4851989746094
v -147.9755401611328 -113.82078552246094 422.3352355957031
v -149.03733825683594 -119.40716552734375 422.7648620605469
v -154.5619659423828 -129.8738555908203 423.0098571777344
v -147.68373107910156 -108.71270751953125 423.8265075683594
v -151.09925842285156 -108.40005493164062 425.30804443359375
v -153.12278747558594 -111.52018737792969 424.28765869140625
v -146.51368713378906 -113.25686645507812 424.2260437011719
v -146.03782653808594 -109.00698852539062 424.42681884765625
v -153.73255920410156 -111.72506713867188 430.49139404296875
v -149.77467346191406 -120.98516845703125 426.3335876464844
v -157.3223114013672 -120.85598754882812 424.4475402832031
v -151.5596466064453 -123.66902160644531 426.9345703125
v -156.37535095214844 -123.92056274414062 426.2643737792969
v -156.2410430908203 -129.12503051757812 423.9050598144531
v -147.3567657470703 -106.01510620117188 426.0186767578125
v -144.61659240722656 -110.0751953125 426.4620361328125
v -152.2327423095703 -108.2315673828125 428.07489013671875
v -152.01576232910156 -107.38455200195312 431.9461669921875
v -154.2458038330078 -125.5521240234375 427.1523742675781
v -147.7132110595703 -104.1407470703125 427.95361328125
v -143.3771209716797 -102.18260192871094 428.8716125488281
v -143.3094940185547 -105.43177795410156 428.16259765625
v -145.22080993652344 -112.56636047363281 429.7810974121094
v -147.53367614746094 -116.94944763183594 429.6702880859375
v -154.8052520751953 -116.19474792480469 428.8949890136719
v -141.9739227294922 -97.82853698730469 433.1954345703125
v -145.6028594970703 -100.53390502929688 430.4296569824219
v -141.6669464111328 -103.86004638671875 429.9008483886719
v -149.55543518066406 -104.20619201660156 430.39666748046875
v -149.2936553955078 -117.72064208984375 432.84381103515625
v -151.08045959472656 -119.7716064453125 430.6921691894531
v -153.04786682128906 -117.17959594726562 431.6501159667969
v -153.62379455566406 -121.20831298828125 429.35894775390625
v -140.06398010253906 -98.98182678222656 432.8669738769531
v -144.19740295410156 -97.73677062988281 434.3133239746094
v -139.6058807373047 -101.4622802734375 433.4991149902344
v -140.63624572753906 -104.444580078125 432.6992492675781
v -146.26490783691406 -99.25117492675781 434.9562683105469
v -139.8686981201172 -103.89469909667969 435.9151306152344
v -152.49781799316406 -110.76416015625 434.1065979003906
v -146.7071990966797 -113.74620056152344 433.6429748535156
v -151.17283630371094 -117.39030456542969 433.1827392578125
v -149.3394317626953 -103.69944763183594 436.8658142089844
v -143.57020568847656 -108.96820068359375 438.56170654296875
v -137.4186248779297 -94.43214416503906 435.8973693847656
v -140.4187469482422 -93.96821594238281 436.5525817871094
v -135.9077606201172 -98.010498046875 437.6138610839844
v -136.82411193847656 -97.33360290527344 435.6202392578125
v -149.8437042236328 -106.3641357421875 437.9505920410156
v -150.7038116455078 -111.15541076660156 436.39422607421875
v -147.5984649658203 -113.44059753417969 435.1545104980469
v -149.52867126464844 -113.19563293457031 435.8415832519531
v -138.3155975341797 -91.580078125 438.8710632324219
v -134.37916564941406 -89.54228210449219 439.7985534667969
v -133.96495056152344 -94.17672729492188 438.8253479003906
v -133.77894592285156 -92.02995300292969 438.96868896484375
v -141.87950134277344 -93.49777221679688 439.8429870605469
v -136.5286102294922 -99.47793579101562 440.6518249511719
v -146.5070343017578 -99.58502197265625 439.60882568359375
v -140.6807098388672 -104.94955444335938 438.4880676269531
v -148.3671417236328 -107.35006713867188 440.01995849609375
v -146.75596618652344 -110.12434387207031 439.4206848144531
v -139.98866271972656 -91.49435424804688 440.9727478027344
v -143.67921447753906 -95.59016418457031 442.0994873046875
v -146.8336944580078 -101.27439880371094 441.0219421386719
v -141.28797912597656 -105.11801147460938 440.8230895996094
v -130.21812438964844 -85.74214172363281 443.6995544433594
v -131.5391387939453 -84.51914978027344 444.68548583984375
v -135.1980743408203 -87.52093505859375 442.1649169921875
v -131.1287078857422 -89.65153503417969 441.513671875
v -132.7165069580078 -93.60142517089844 444.51263427734375
v -144.4302520751953 -97.91902160644531 444.2901306152344
v -143.4462432861328 -105.44126892089844 442.0147399902344
v -146.17054748535156 -106.43919372558594 441.50616455078125
v -128.80979919433594 -87.00416564941406 445.6207275390625
v -136.40516662597656 -86.49359130859375 445.7283935546875
v -141.2556915283203 -92.55308532714844 445.5228576660156
v -135.6182098388672 -96.83648681640625 446.652587890625
v -145.40452575683594 -103.25772094726562 443.2736511230469
v -138.33140563964844 -100.23344421386719 445.4712219238281
v -140.83689880371094 -102.45932006835938 445.449462890625
v -129.1033172607422 -83.62525939941406 446.3525695800781
v -133.5870819091797 -84.06800842285156 446.81207275390625
v -137.3475799560547 -86.94146728515625 448.34912109375
v -142.6424102783203 -98.11579895019531 447.095458984375
v -143.47694396972656 -102.21525573730469 445.1684875488281
v -126.05601501464844 -82.79924011230469 449.5628662109375
v -126.63188171386719 -81.15623474121094 449.1193542480469
v -125.66740417480469 -83.97526550292969 452.54620361328125
v -140.8268585205078 -95.44068908691406 448.914794921875
v -138.96434020996094 -90.16676330566406 450.88482666015625
v -140.27574157714844 -97.95469665527344 448.1107482910156
v -124.03715515136719 -77.01530456542969 451.8206481933594
v -128.7345733642578 -79.5413818359375 450.2786865234375
v -123.59873962402344 -80.05274963378906 451.2331237792969
v -132.1109161376953 -81.358154296875 451.21112060546875
v -128.02903747558594 -86.39228820800781 452.39508056640625
v -135.70570373535156 -85.04676818847656 453.82403564453125
v -131.6587677001953 -90.73458862304688 451.5753173828125
v -134.93714904785156 -94.45211791992188 450.5444641113281
v -136.90940856933594 -95.05331420898438 451.05938720703125
v -121.14704895019531 -77.67762756347656 453.1343078613281
v -137.8742218017578 -90.26570129394531 452.87750244140625
v -138.11399841308594 -93.45408630371094 452.2532043457031
v -124.01057434082031 -73.88359069824219 454.67071533203125
v -121.07203674316406 -73.47500610351562 454.2870178222656
v -119.93983459472656 -74.82612609863281 453.8412780761719
v -126.83650207519531 -75.31739807128906 454.8770446777344
v -118.45457458496094 -75.36503601074219 455.3777770996094
v -129.45213317871094 -77.06777954101562 455.99896240234375
v -122.57310485839844 -80.86245727539062 455.6184387207031
v -130.2546844482422 -87.83219909667969 455.2203063964844
v -135.69004821777344 -86.68673706054688 456.2249755859375
v -133.97328186035156 -91.43251037597656 453.1217956542969
v -136.05384826660156 -90.69248962402344 453.9088439941406
v -118.31315612792969 -76.62689208984375 458.4620361328125
v -130.8582000732422 -78.6025390625 459.0093994140625
v -132.84983825683594 -88.11053466796875 456.7748107910156
v -116.07664489746094 -69.82002258300781 457.47802734375
v -115.03352355957031 -70.97187805175781 457.72711181640625
v -119.96113586425781 -70.65884399414062 456.9190368652344
v -124.15766906738281 -71.67668151855469 460.3836364746094
v -125.09846496582031 -82.36141967773438 460.2401123046875
v -131.74790954589844 -80.77822875976562 460.4344177246094
v -129.0847625732422 -86.03504943847656 457.29052734375
v -132.91859436035156 -83.43185424804688 459.3747253417969
v -133.3583526611328 -84.83514404296875 458.92120361328125
v -111.95262145996094 -65.81047058105469 462.0108642578125
v -116.52449035644531 -67.02005004882812 460.6182556152344
v -119.46049499511719 -67.93006896972656 460.4963073730469
v -111.88951110839844 -70.02735900878906 461.07147216796875
v -114.23405456542969 -72.58834838867188 460.8079528808594
v -126.04893493652344 -73.76589965820312 463.9381408691406
v -121.91929626464844 -79.78324890136719 461.413818359375
v -131.0608367919922 -84.89567565917969 459.5743103027344
v -110.01524353027344 -67.5751953125 462.701904296875
v -122.89897155761719 -69.639404296875 463.5534973144531
v -115.02787780761719 -73.59968566894531 464.0822448730469
v -119.89982604980469 -77.4432373046875 463.3609924316406
v -129.70301818847656 -78.85211181640625 463.434814453125
v -108.62126159667969 -63.74759292602539 463.7427978515625
v -111.08708190917969 -62.3012809753418 465.4283752441406
v -106.62687683105469 -65.41566467285156 464.53485107421875
v -117.18601989746094 -64.38906860351562 466.009521484375
v -114.60066223144531 -63.36470413208008 465.3442687988281
v -118.87388610839844 -66.41410827636719 463.9229431152344
v -110.47242736816406 -69.78211975097656 465.0058898925781
v -116.96778869628906 -74.5390625 466.1500244140625
v -125.46916198730469 -80.82015991210938 463.6369323730469
v -127.79798889160156 -79.81251525878906 464.390380859375
v -106.28517150878906 -59.74946212768555 466.67291259765625
v -104.37620544433594 -61.112369537353516 465.7154541015625
v -104.37507629394531 -64.57615661621094 465.6872863769531
v -101.78205871582031 -61.6218376159668 467.13104248046875
v -111.69050598144531 -61.02043533325195 468.034423828125
v -120.13539123535156 -67.168701171875 466.9577331542969
v -104.79673767089844 -65.86441040039062 469.2908630371094
v -126.43836975097656 -76.60237121582031 465.39849853515625
v -119.97837829589844 -75.88589477539062 465.9712829589844
v -123.84449768066406 -78.05552673339844 465.38641357421875
v -122.01658630371094 -75.20550537109375 467.1248779296875
v -99.87925720214844 -56.79021072387695 469.6743469238281
v -99.88179016113281 -59.58208084106445 468.33349609375
v -102.23680114746094 -63.53849411010742 468.7173156738281
v -115.91081237792969 -63.76643753051758 469.8897705078125
v -109.18775939941406 -68.60726928710938 471.4872131347656
v -119.91896057128906 -67.77438354492188 469.47869873046875
v -120.58137512207031 -69.61994934082031 469.77545166015625
v -111.68904113769531 -70.08399963378906 470.336669921875
v -114.07752990722656 -71.29425048828125 470.1409912109375
v -122.85426330566406 -73.50151062011719 467.64752197265625
v -96.48664855957031 -55.94831466674805 470.74395751953125
v -102.12696838378906 -55.4381217956543 472.44964599609375
v -106.87486267089844 -57.84799575805664 471.00897216796875
v -112.29331970214844 -60.6318473815918 472.2402038574219
v -117.82005310058594 -72.73809814453125 469.6656799316406
v -117.82508850097656 -70.49836730957031 471.5248718261719
v -87.61665344238281 -49.37343978881836 474.2139587402344
v -89.45765686035156 -51.4222412109375 472.30572509765625
v -92.55870056152344 -51.50978469848633 472.283935546875
v -88.99006652832031 -52.58279800415039 472.963623046875
v -94.76124572753906 -57.596675872802734 472.4076843261719
v -97.41835021972656 -60.25051498413086 471.9035949707031
v -99.29249572753906 -62.35274887084961 473.91937255859375
v -116.06758117675781 -65.96318054199219 472.8299560546875
v -105.02204895019531 -65.90286254882812 473.02215576171875
v -115.18141174316406 -68.01025390625 473.4117431640625
v -84.93183898925781 -49.58003616333008 475.1239318847656
v -96.71665954589844 -51.93128967285156 474.32177734375
v -104.95216369628906 -56.34474563598633 474.6716003417969
v -106.55189514160156 -57.7275276184082 477.62078857421875
v -113.86442565917969 -63.35271072387695 475.1912841796875
v -110.60029602050781 -67.32344055175781 474.84039306640625
v -89.43345642089844 -48.64550018310547 476.0756530761719
v -93.49858093261719 -48.96156692504883 479.1625671386719
v -99.05940246582031 -52.33488464355469 477.2462158203125
v -90.30265808105469 -56.60538864135742 477.3819885253906
v -92.80265808105469 -58.221492767333984 478.3962097167969
v -110.00679016113281 -59.784366607666016 475.6841125488281
v -102.14122009277344 -63.51176834106445 476.8992004394531
v -106.66282653808594 -65.40985107421875 476.1473388671875
v -111.74546813964844 -65.80047607421875 476.30975341796875
v -82.81446838378906 -47.9738655090332 477.9056396484375
v -84.59550476074219 -45.11494445800781 481.37109375
v -80.40376281738281 -50.14407730102539 480.15203857421875
v -82.97520446777344 -53.164459228515625 480.163330078125
v -99.63093566894531 -52.7294921875 480.05511474609375
v -88.19142150878906 -56.73649215698242 481.3300476074219
v -109.36228942871094 -61.41172409057617 477.78521728515625
v -98.35026550292969 -61.246517181396484 478.68609619140625
v -108.84138488769531 -63.48013687133789 477.981201171875
v -88.61006164550781 -46.446434020996094 481.1380615234375
v -95.29429626464844 -49.68124771118164 481.9241027832031
v -102.34492492675781 -55.642024993896484 480.77752685546875
v -93.92030334472656 -58.4840202331543 481.425048828125
v -103.42179870605469 -59.58688735961914 481.0144958496094
v -100.32850646972656 -60.162906646728516 481.25555419921875
v -80.86912536621094 -45.35071563720703 482.1354064941406
v -78.37968444824219 -46.95222473144531 482.357177734375
v -75.79930114746094 -47.964927673339844 483.7613830566406
v -76.67720031738281 -50.45942306518555 483.1947326660156
v -77.70259094238281 -52.076534271240234 483.7774963378906
v -84.58985900878906 -55.64555740356445 483.7477722167969
v -90.89067077636719 -57.03182601928711 483.7872314453125
v -102.01173400878906 -57.23386001586914 481.98046875
v -82.29350280761719 -43.36545181274414 486.6921081542969
v -87.63447570800781 -45.280860900878906 485.0828857421875
v -90.59486389160156 -47.33860397338867 486.1318359375
v -95.70219421386719 -50.80424880981445 484.6500244140625
v -77.95726013183594 -53.13138961791992 485.5107116699219
v -97.01637268066406 -53.56049728393555 485.13592529296875
v -97.04692077636719 -56.012332916259766 484.68560791015625
v -91.24757385253906 -55.26432418823242 486.1161804199219
v -78.49516296386719 -42.13705062866211 489.81622314453125
v -77.05012512207031 -44.397377014160156 485.8056640625
v -71.01490783691406 -48.8907585144043 486.7491760253906
v -71.95326232910156 -51.636444091796875 487.0026550292969
v -77.75877380371094 -53.39695739746094 488.8385009765625
v -84.94029235839844 -55.24460983276367 486.5831604003906
v -91.30186462402344 -49.31660461425781 487.5417175292969
v -87.16734313964844 -45.844993591308594 488.8260803222656
v -66.56175231933594 -49.344966888427734 488.490234375
v -67.44685363769531 -51.49346160888672 488.5230407714844
v -67.94114685058594 -52.754920959472656 490.3388977050781
v -91.12397766113281 -51.769893646240234 488.1361389160156
v -74.50782775878906 -53.048500061035156 489.1183166503906
v -86.64469909667969 -53.130821228027344 489.8360595703125
v -80.96376037597656 -53.863582611083984 489.618896484375
v -70.84571838378906 -43.10172653198242 491.91522216796875
v -75.77442932128906 -41.59627914428711 491.0078125
v -82.15394592285156 -43.32013702392578 489.3879699707031
v -64.15579223632812 -48.89105987548828 490.0621337890625
v -85.67179870605469 -49.92189407348633 492.11798095703125
v -59.61572265625 -49.76637268066406 492.7078857421875
v -76.21549987792969 -41.54570770263672 494.0263671875
v -81.15766906738281 -43.95928955078125 492.1065368652344
v -59.83245849609375 -47.744102478027344 493.5357360839844
v -84.80256652832031 -47.24018478393555 492.1240539550781
v -60.37318420410156 -51.51860046386719 493.10198974609375
v -83.54933166503906 -52.85048294067383 491.4529113769531
v -68.87059020996094 -42.136505126953125 495.4570617675781
v -61.69111633300781 -44.60881805419922 496.0424499511719
v -76.66593933105469 -43.60049057006836 496.9636535644531
v -81.19935607910156 -47.8222541809082 494.3669128417969
v -54.26332092285156 -49.39554214477539 494.37506103515625
v -80.00074768066406 -50.17253494262695 494.2362976074219
v -54.56135559082031 -51.61277770996094 494.47186279296875
v -78.16950988769531 -51.917049407958984 493.111083984375
v -56.76512145996094 -52.9680290222168 495.9165344238281
v -62.396820068359375 -52.99810028076172 495.1480407714844
v -68.29185485839844 -52.913719177246094 494.9292907714844
v -69.89295959472656 -41.751827239990234 497.17449951171875
v -76.86109924316406 -45.930259704589844 497.75836181640625
v -55.35423278808594 -45.628875732421875 498.0565185546875
v -51.78923034667969 -51.18799591064453 496.2428894042969
v -69.35194396972656 -43.34824752807617 499.9988708496094
v -57.45616149902344 -44.122222900390625 501.02239990234375
v -50.87994384765625 -48.32400894165039 498.0462646484375
v -75.01158142089844 -48.01290512084961 498.5693664550781
v -70.04228210449219 -50.63518524169922 498.6939392089844
v -48.634063720703125 -51.67226028442383 498.411865234375
v -49.86604309082031 -53.874961853027344 498.8447265625
v -56.827301025390625 -53.889400482177734 498.06378173828125
v -63.93995666503906 -52.94860076904297 498.3978576660156
v -51.936859130859375 -55.019588470458984 500.74163818359375
v -64.70819091796875 -43.00123977661133 500.2409973144531
v -71.10734558105469 -45.6800651550293 500.6715393066406
v -48.61695861816406 -47.200927734375 501.1119079589844
v -44.43852233886719 -50.51991271972656 501.30633544921875
v -69.21180725097656 -49.580833435058594 500.46502685546875
v -46.133514404296875 -55.86091995239258 500.0147705078125
v -52.28532409667969 -45.11414337158203 502.69464111328125
v -59.34339904785156 -45.000389099121094 504.25262451171875
v -64.87236022949219 -44.58348846435547 503.2855529785156
v -64.66203308105469 -50.26637649536133 503.3211669921875
v -42.12005615234375 -53.67197036743164 501.8685607910156
v -60.47210693359375 -52.15481185913086 503.9042053222656
v -57.35455322265625 -53.87712860107422 502.0818176269531
v -43.141693115234375 -55.920345306396484 501.1919250488281
v -44.674285888671875 -58.110172271728516 503.00628662109375
v -48.373382568359375 -56.42727279663086 503.2453918457031
v -41.088134765625 -59.45718002319336 503.7069396972656
v -54.492279052734375 -45.01801681518555 504.8808898925781
v -65.89567565917969 -47.098236083984375 504.0249328613281
v -48.78814697265625 -46.877262115478516 505.5750427246094
v -42.177093505859375 -50.2802619934082 504.4822692871094
v -37.12333679199219 -56.95400619506836 503.9014587402344
v -36.924652099609375 -59.14058303833008 503.78985595703125
v -36.61323547363281 -61.67868423461914 505.5038757324219
v -60.97340393066406 -46.86157989501953 505.5366516113281
v -45.58888244628906 -47.77086639404297 508.2217102050781
v -61.32643127441406 -48.72789001464844 505.7295227050781
v -40.0440673828125 -50.51411819458008 507.7874450683594
v -57.83445739746094 -51.888343811035156 506.3895568847656
v -36.721282958984375 -54.007686614990234 506.0823974609375
v -51.71669006347656 -53.455909729003906 508.13427734375
v -47.61439514160156 -55.957820892333984 507.3013610839844
v -34.118011474609375 -57.9322624206543 506.46630859375
v -41.495208740234375 -59.94033432006836 506.5393981933594
v -50.70298767089844 -47.989707946777344 508.5169677734375
v -54.786102294921875 -47.03510665893555 507.39892578125
v -56.82176208496094 -48.616722106933594 507.8268127441406
v -55.382537841796875 -51.12308883666992 508.41912841796875
v -34.48536682128906 -55.0860710144043 510.1605529785156
v -33.47792053222656 -56.90903091430664 508.4375305175781
v -35.123779296875 -61.42313003540039 508.97235107421875
v -36.4638671875 -62.03310012817383 508.5134582519531
v -40.508697509765625 -50.89087677001953 510.5267639160156
v -47.8648681640625 -49.272701263427734 510.5630798339844
v -51.21026611328125 -50.41697311401367 509.783203125
v -37.24388122558594 -52.72861099243164 510.76556396484375
v -45.88652038574219 -54.837764739990234 510.2862548828125
v -42.29560852050781 -58.33993148803711 509.56671142578125
v -44.52557373046875 -52.152252197265625 511.58612060546875
v -40.04194641113281 -53.27764129638672 512.6188354492188
v -41.38090515136719 -54.570064544677734 512.5877075195312
v -35.36988830566406 -56.67142105102539 512.2437744140625
v -39.57823181152344 -58.06452560424805 511.69659423828125
v -36.80230712890625 -57.62690353393555 512.4183349609375
vn 0.8454820513725281 0.3562522828578949 -0.39779967069625854
vn 0.4016477167606354 0.1005590632557869 -0.910256564617157
vn 0.2839122712612152 0.3993322551250458 -0.8717383146286011
vn -0.32394734025001526 0.26053470373153687 -0.9094942808151245
vn -0.2673850953578949 -0.12249961495399475 -0.9557714462280273
vn -0.7677075862884521 -0.0028881821781396866 -0.6407938003540039
vn 0.9069104194641113 -0.13120752573013306 -0.4003724753856659
vn -0.7763415575027466 -0.31333866715431213 -0.5469120144844055
vn 0.10767383128404617 -0.3438776433467865 -0.9328207969665527
vn -0.6992006301879883 -0.5825182795524597 -0.41447678208351135
vn 0.1276579201221466 -0.7050426602363586 -0.6975803971290588
vn 0.014521626755595207 0.5782366394996643 -0.8157399296760559
vn 0.4144342839717865 0.5022916793823242 -0.7589119672775269
vn 0.6148583889007568 0.5471344590187073 -0.5679727792739868
vn -0.5408398509025574 0.3709467947483063 -0.7549110651016235
vn 0.9632958173751831 0.20975539088249207 0.167522594332695
vn -0.8851393461227417 -0.26511767506599426 -0.38241472840309143
vn 0.2690669000148773 -0.7910500168800354 0.5494023561477661
vn -0.3034839332103729 0.4262963533401489 -0.8521554470062256
vn 0.8895388841629028 0.33955734968185425 -0.30564919114112854
vn -0.8039345741271973 0.14514483511447906 -0.5767340660095215
vn -0.9502309560775757 -0.11411687731742859 -0.2898939549922943
vn -0.8799563646316528 -0.474656343460083 0.019445598125457764
vn 0.8809856176376343 -0.04897400736808777 0.4706016778945923
vn -0.8437514901161194 -0.5363299250602722 0.02082645706832409
vn -0.3970804214477539 0.41357678174972534 -0.819317638874054
vn 0.3977471888065338 0.5004982948303223 -0.7689594626426697
vn -0.8576633930206299 0.1569984406232834 -0.4896581470966339
vn 0.9772858023643494 0.09920545667409897 0.18727180361747742
vn 0.7882516384124756 -0.045378830283880234 0.6136775612831116
vn 0.8767489790916443 -0.026176683604717255 0.48023542761802673
vn -0.906409740447998 -0.3923074007034302 0.15657681226730347
vn 0.6316302418708801 -0.16692642867565155 0.7570857405662537
vn 0.349928081035614 -0.3132447898387909 0.8828521966934204
vn -0.6205574870109558 -0.6494444012641907 0.43946605920791626
vn 0.1478370726108551 -0.49987417459487915 0.8533874154090881
vn -0.5442171692848206 -0.5409034490585327 0.6412887573242188
vn 0.32224833965301514 0.6160988211631775 -0.7187337875366211
vn 0.8289978504180908 0.4543631672859192 -0.32606241106987
vn 0.9439254403114319 0.2810591161251068 -0.17323549091815948
vn -0.9394006729125977 0.05853280797600746 -0.3377875089645386
vn -0.969135582447052 -0.10644489526748657 -0.22236400842666626
vn 0.5231666564941406 -0.33730149269104004 0.7826393246650696
vn -0.39233073592185974 -0.6318297386169434 0.6684817671775818
vn 0.1860545575618744 0.5109343528747559 -0.8392435908317566
vn -0.5305385589599609 0.3339764177799225 -0.7790948152542114
vn -0.9889475107192993 -0.13634389638900757 -0.05825116112828255
vn -0.8555309176445007 -0.3340426981449127 0.3955785632133484
vn 0.7968034744262695 -0.18833212554454803 0.5741387605667114
vn -0.707650363445282 -0.496551513671875 0.5026605129241943
vn 0.6635686755180359 0.5423595309257507 -0.5152889490127563
vn -0.008126087486743927 0.5368930101394653 -0.8436111807823181
vn 0.8728330135345459 0.39136651158332825 -0.29153871536254883
vn -0.6499162316322327 0.32733964920043945 -0.6858991384506226
vn -0.9033064842224121 0.04927618056535721 -0.4261563718318939
vn 0.9694356322288513 0.0728515163064003 0.2342802882194519
vn -0.9943178296089172 -0.09151256084442139 -0.05438254401087761
vn 0.2861557900905609 -0.44489580392837524 0.8486357927322388
vn 0.31305786967277527 -0.4642435908317566 0.8285364508628845
vn -0.3310101330280304 -0.5445089936256409 0.7706765532493591
vn 0.4842751622200012 0.5311055183410645 -0.6952729821205139
vn -0.303285151720047 0.5181986689567566 -0.7996801137924194
vn -0.933874249458313 0.10200414061546326 -0.3427450358867645
vn 0.7286827564239502 -0.19045044481754303 0.6578375101089478
vn -0.8178776502609253 0.2791972756385803 -0.5031152963638306
vn 0.9659091830253601 0.2549471855163574 0.04496036842465401
vn 0.9103100299835205 -0.0615791492164135 0.4093210995197296
vn -0.9704548716545105 -0.2382015436887741 0.038437921553850174
vn -0.8286107182502747 -0.3986704647541046 0.39302191138267517
vn 0.2203407734632492 -0.3307604491710663 0.9176314473152161
vn -0.3643510639667511 -0.43695268034935 0.8223872184753418
vn -0.10813368856906891 0.5143711566925049 -0.8507229089736938
vn -0.8290732502937317 0.26303452253341675 -0.49340692162513733
vn 0.5595892071723938 0.4208443760871887 -0.7139677405357361
vn 0.894824743270874 0.2133682668209076 -0.3921258747577667
vn 0.9446889162063599 0.2809312343597412 -0.1692350208759308
vn 0.8862336874008179 -0.08701522648334503 0.4549925625324249
vn -0.9972854256629944 0.0042174155823886395 -0.07351196557283401
vn 0.6151776313781738 -0.42380404472351074 0.664790689945221
vn 0.43724724650382996 -0.3462196886539459 0.8300281763076782
vn -0.4004748463630676 -0.45269832015037537 0.79667067527771
vn 0.9727394580841064 0.09418674558401108 0.21191222965717316
vn 0.5108187198638916 -0.45218291878700256 0.7311599254608154
vn -0.05072646215558052 -0.6450766324996948 0.762432336807251
vn -0.7196897864341736 -0.5169282555580139 0.46349960565567017
vn 0.2219109833240509 0.5419542789459229 -0.8105807304382324
vn -0.9999309182167053 0.00916989054530859 -0.0073528047651052475
vn 0.8000547885894775 -0.247639998793602 0.5464310050010681
vn -0.8269059658050537 -0.350673645734787 0.43960732221603394
vn -0.5542250275611877 0.45830315351486206 -0.694832980632782
vn 0.04819338023662567 0.5461719632148743 -0.8362855911254883
vn 0.8278500437736511 0.2884407639503479 -0.4811094105243683
vn -0.9406352639198303 0.1720518320798874 -0.2925809621810913
vn -0.7230371832847595 0.37777388095855713 -0.5783633589744568
vn 0.9324753880500793 -0.2040366679430008 0.29809173941612244
vn 0.45111140608787537 -0.5214464664459229 0.7242873311042786
vn 0.5792849659919739 -0.45324572920799255 0.6774934530258179
vn -0.25475215911865234 0.532545268535614 -0.807153582572937
vn 0.9931684136390686 0.050727274268865585 -0.10508695989847183
vn -0.017215024679899216 -0.5830320119857788 0.8122668266296387
vn 0.5070340633392334 0.44057995080947876 -0.7408143281936646
vn -0.9700719118118286 0.15213124454021454 -0.18925298750400543
vn -0.9101889729499817 -0.20562848448753357 0.35954558849334717
vn -0.7812086343765259 0.3896859288215637 -0.4877069890499115
vn -0.757954478263855 0.4218410849571228 -0.4975491166114807
vn 0.9099292159080505 0.1335550993680954 -0.39267268776893616
vn 0.9849837422370911 -0.16377553343772888 0.05463271960616112
vn -0.9963372945785522 -0.008698358200490475 0.08506689220666885
vn 0.4785674810409546 -0.5424458384513855 0.6904532313346863
vn -0.2608099579811096 -0.5017844438552856 0.8247366547584534
vn -0.5616546273231506 0.4544020891189575 -0.69142085313797
vn 0.15493729710578918 0.4224323034286499 -0.8930540084838867
vn 0.784005343914032 0.17499054968357086 -0.5955787301063538
vn 0.9878990054130554 -0.10033825784921646 -0.11826995760202408
vn -0.9750478267669678 0.2036309391260147 -0.088409423828125
vn 0.7913033366203308 -0.3333413302898407 0.5125648379325867
vn -0.902831494808197 -0.15431739389896393 0.4013494849205017
vn 0.3696475625038147 -0.4566017687320709 0.8092437982559204
vn -0.4552496075630188 -0.47281795740127563 0.7544475197792053
vn -0.946125328540802 0.28250062465667725 -0.1582411378622055
vn 0.9581570625305176 -0.013020891696214676 -0.2859467566013336
vn 0.6868950128555298 -0.4889872074127197 0.5376492738723755
vn -0.4603753983974457 -0.37684372067451477 0.8037682175636292
vn 0.271188884973526 -0.49384555220603943 0.8261798620223999
vn -0.334577739238739 0.48873046040534973 -0.8057296276092529
vn 0.3195730149745941 0.3694690763950348 -0.8725627660751343
vn 0.8139914274215698 0.04093825817108154 -0.579432487487793
vn -0.8142589926719666 0.44635942578315735 -0.3711409866809845
vn -0.9501916170120239 0.2690722346305847 -0.15727710723876953
vn -0.9767483472824097 0.04072067514061928 0.21048638224601746
vn 0.9548436999320984 -0.27946820855140686 0.10085174441337585
vn 0.8398972749710083 -0.42138755321502686 0.3420602083206177
vn 0.3946602940559387 0.4268725514411926 -0.813647985458374
vn 0.6693814992904663 0.20987568795681 -0.7126575112342834
vn -0.37611693143844604 0.6085726618766785 -0.6986955404281616
vn 0.9627857804298401 -0.16959267854690552 -0.2104324847459793
vn -0.22442160546779633 -0.5541398525238037 0.8016008734703064
vn 0.8999968767166138 -0.023733871057629585 -0.43524977564811707
vn 0.5901675820350647 -0.5620769262313843 0.5794582366943359
vn -0.7954099178314209 -0.2692851722240448 0.5429626703262329
vn 0.3127519190311432 0.5350440740585327 -0.7848020195960999
vn 0.7810564637184143 0.10981781035661697 -0.6147283315658569
vn -0.18281547725200653 0.6719298362731934 -0.7176969051361084
vn -0.7385057210922241 0.5992914438247681 -0.3089645206928253
vn -0.8080586194992065 0.5143505930900574 -0.28720173239707947
vn 0.9410115480422974 -0.3383370339870453 -0.005032224580645561
vn -0.9622468948364258 0.06637393683195114 0.2639610171318054
vn 0.879719078540802 -0.42091330885887146 0.22119326889514923
vn -0.8161881566047668 -0.18060405552387238 0.5488343238830566
vn 0.4221906065940857 -0.5847752094268799 0.692671000957489
vn -0.16767850518226624 -0.566780149936676 0.8066251873970032
vn -0.2906404435634613 0.7000611424446106 -0.6522595286369324
vn -0.9469484686851501 0.3161618411540985 0.05770878493785858
vn -0.26098883152008057 -0.5141578316688538 0.8170230388641357
vn 0.2810990810394287 0.4486519992351532 -0.8483482599258423
vn 0.6555737257003784 0.19135506451129913 -0.7304836511611938
vn 0.9316494464874268 -0.3213156461715698 -0.16966305673122406
vn 0.44744160771369934 -0.606963038444519 0.6568043231964111
vn 0.03197697550058365 0.5865508913993835 -0.8092808723449707
vn -0.5073103904724121 0.666803240776062 -0.545902669429779
vn -0.7559220194816589 0.5763241648674011 -0.310535728931427
vn 0.8786435723304749 -0.17774748802185059 -0.44316062331199646
vn 0.6009573936462402 0.2118583470582962 -0.7706920504570007
vn -0.9462453722953796 0.282915323972702 0.15677601099014282
vn 0.8069471120834351 -0.5549965500831604 0.20202793180942535
vn -0.9350724816322327 0.12110508233308792 0.3331262767314911
vn 0.6504198908805847 -0.5754538178443909 0.49578922986984253
vn -0.7481264472007751 -0.1717004030942917 0.6409569978713989
vn -0.3305084705352783 -0.46775224804878235 0.8197389841079712
vn -0.04597776383161545 0.6326749324798584 -0.7730514407157898
vn 0.88228839635849 -0.23501615226268768 -0.4078414738178253
vn -0.8223136067390442 0.535686731338501 -0.1919376254081726
vn -0.9026485085487366 0.4262472689151764 0.059489618986845016
vn -0.04269972816109657 -0.5562852621078491 0.8298937082290649
vn -0.36017006635665894 0.6888796091079712 -0.6290647983551025
vn 0.2913564145565033 0.5065804123878479 -0.8114726543426514
vn 0.7192473411560059 0.09838111698627472 -0.6877531409263611
vn 0.877574622631073 -0.4790002703666687 -0.02053387463092804
vn 0.8403648138046265 -0.5236191153526306 0.14003616571426392
vn -0.8971514701843262 0.025792274624109268 0.44096940755844116
vn -0.027072424069046974 0.6896910071372986 -0.7235976457595825
vn -0.3879324495792389 0.7469637393951416 -0.5399569869041443
vn 0.8016327023506165 0.011812698096036911 -0.5977002382278442
vn -0.7218753695487976 0.6520254611968994 -0.23185934126377106
vn 0.45583295822143555 -0.6715053915977478 0.5842061638832092
vn 0.2910112738609314 -0.7341476082801819 0.613465428352356
vn -0.7599025368690491 -0.21815858781337738 0.6123356819152832
vn -0.37703827023506165 -0.45533403754234314 0.8065438866615295
vn 0.5656405091285706 0.26920977234840393 -0.7794722318649292
vn -0.5426924824714661 0.7567140460014343 -0.3645116984844208
vn 0.8622204661369324 -0.2202996164560318 -0.4561184346675873
vn 0.9157347083091736 -0.299532413482666 -0.2677878141403198
vn -0.7378833293914795 0.6618298292160034 -0.13232330977916718
vn 0.8612224459648132 -0.49743586778640747 -0.10418028384447098
vn -0.8893756866455078 0.04952172562479973 0.4544872045516968
vn 0.7315664291381836 -0.6046701073646545 0.31493616104125977
vn -0.2602534890174866 -0.5416035056114197 0.7993333339691162
vn -0.8711837530136108 0.46748656034469604 0.14998425543308258
vn 0.6524726748466492 -0.6768199801445007 0.34087279438972473
vn 0.2942204773426056 0.45468106865882874 -0.840654194355011
vn -0.3433384895324707 0.7571337223052979 -0.5557583570480347
vn 0.862825334072113 -0.4220467805862427 -0.278224915266037
vn 0.7340449094772339 -0.05236830189824104 -0.6770788431167603
vn -0.8807161450386047 0.20258383452892303 0.4281342625617981
vn -0.5929978489875793 -0.32542911171913147 0.7365116477012634
vn 0.39349108934402466 -0.7018936276435852 0.5937256813049316
vn -0.08156432956457138 -0.5798304080963135 0.8106441497802734
vn -0.28810548782348633 0.7472121715545654 -0.5988900065422058
vn 0.13223212957382202 0.5919762849807739 -0.795033872127533
vn 0.8231296539306641 -0.17237071692943573 -0.5410600304603577
vn 0.5718500018119812 0.18958020210266113 -0.7981522679328918
vn -0.6954396367073059 0.6960572600364685 -0.1785161793231964
vn 0.7958028316497803 -0.6012661457061768 0.07195129245519638
vn -0.8595148921012878 0.4881021976470947 0.15162621438503265
vn 0.7945265173912048 -0.6012629866600037 0.0849151462316513
vn -0.6708694696426392 -0.16664008796215057 0.7226100564002991
vn -0.057848215103149414 -0.626904308795929 0.7769457101821899
vn -0.6291954517364502 0.7284078001976013 -0.2711736261844635
vn -0.8031966090202332 0.595424473285675 0.018570970743894577
vn -0.8609381318092346 0.2298324853181839 0.4538310170173645
vn 0.6451688408851624 -0.6891469359397888 0.32989951968193054
vn 0.526633083820343 0.452515184879303 -0.7196441292762756
vn -0.08625844120979309 0.8046926259994507 -0.5873919725418091
vn -0.37658461928367615 0.7667359709739685 -0.5199037790298462
vn 0.790883481502533 -0.021434534341096878 -0.6115912795066833
vn 0.8441447615623474 -0.5356754660606384 -0.021712936460971832
vn -0.8677101135253906 0.29300975799560547 0.40152764320373535
vn 0.12167061865329742 -0.6712939739227295 0.7311366200447083
vn -0.19711659848690033 -0.4490141272544861 0.8715110421180725
vn 0.9026307463645935 -0.24209469556808472 -0.3558763563632965
vn -0.609683096408844 0.7436251640319824 -0.2744234800338745
vn -0.8474393486976624 0.5145998597145081 0.13051298260688782
vn 0.6745131611824036 -0.6838393807411194 0.27820104360580444
vn -0.5974203944206238 -0.24483515322208405 0.7636390924453735
vn 0.5693913102149963 -0.684982419013977 0.45452478528022766
vn 0.24880877137184143 -0.6965811252593994 0.6729554533958435
vn 0.3456898033618927 0.5794534087181091 -0.7380598187446594
vn -0.4194597601890564 0.8113068342208862 -0.4072282910346985
vn -0.7597388029098511 0.6470103859901428 -0.06461074948310852
vn -0.6338934302330017 -0.14432942867279053 0.7598342895507812
vn -0.32174161076545715 -0.5014597177505493 0.8031316995620728
vn 0.7900710105895996 -0.1330081969499588 -0.5984117984771729
vn 0.4112081527709961 0.3307672441005707 -0.8494120836257935
vn 0.7854064702987671 -0.6083686351776123 -0.11412429064512253
vn -0.7907447218894958 0.020573632791638374 0.6118002533912659
vn -0.900242805480957 0.2610287666320801 0.34846368432044983
vn -0.16291533410549164 -0.5223093032836914 0.8370493650436401
vn 0.18675188720226288 0.43503931164741516 -0.8808317184448242
vn -0.3131296932697296 0.7123569250106812 -0.6280903220176697
vn 0.7349404096603394 -0.21991071105003357 -0.6414842009544373
vn -0.5679256916046143 0.7691153287887573 -0.29312482476234436
vn 0.7286503911018372 -0.6751341223716736 0.1151631623506546
vn -0.8511777520179749 0.4997726380825043 0.16038627922534943
vn 0.6738241314888 -0.6752995848655701 0.29988598823547363
vn 0.5003763437271118 -0.7143896222114563 0.4891534447669983
vn 0.222218856215477 -0.6918146014213562 0.6870308518409729
vn 0.7211766242980957 -0.2962786555290222 -0.6261975169181824
vn -0.735558807849884 -0.07961191236972809 0.6727668642997742
vn -0.41305220127105713 -0.3831999599933624 0.8261632323265076
vn -0.31305062770843506 0.7608974575996399 -0.5683611631393433
vn -0.003388518700376153 0.6101333498954773 -0.792291522026062
vn 0.4721777141094208 0.16496862471103668 -0.865929365158081
vn -0.5283846259117126 0.767401397228241 -0.36318710446357727
vn 0.7708190679550171 -0.390962690114975 -0.5029773116111755
vn -0.6794093251228333 0.7129707932472229 -0.17342357337474823
vn 0.7329859137535095 -0.6719843149185181 -0.10568273812532425
vn 0.5521491765975952 -0.740656316280365 0.38283106684684753
vn -0.8110597729682922 0.03231299668550491 0.5840702056884766
vn 0.3334037661552429 -0.7053362727165222 0.6255739331245422
vn -0.25175443291664124 -0.5014051795005798 0.8277757167816162
vn 0.7116249799728394 -0.6995693445205688 -0.06475108861923218
vn -0.8052369356155396 0.5864741206169128 0.08741666376590729
vn 0.10207700729370117 -0.7202119827270508 0.6862033009529114
vn 0.19815930724143982 0.5660226345062256 -0.8002195358276367
vn 0.6916856169700623 -0.057609379291534424 -0.7198973894119263
vn -0.2636379301548004 0.7642629146575928 -0.5885553359985352
vn -0.6112406253814697 0.7548208832740784 -0.23797138035297394
vn 0.5324904918670654 -0.7990662455558777 0.27918994426727295
vn -0.8736971020698547 0.36055153608322144 0.3265824317932129
vn 0.4606877565383911 -0.7750079035758972 0.43258482217788696
vn -0.7349089980125427 -0.011447439901530743 0.6780691146850586
vn -0.44209152460098267 -0.35415759682655334 0.8240919709205627
vn 0.29467710852622986 0.45615991950035095 -0.8396925330162048
vn -0.16914765536785126 0.7988535165786743 -0.5772539973258972
vn -0.45643720030784607 0.8029482960700989 -0.3833264410495758
vn 0.7757062911987305 -0.46798157691955566 -0.4234064221382141
vn 0.7370553612709045 -0.624663233757019 -0.2579636871814728
vn -0.7916115522384644 0.5185137391090393 0.3232564330101013
vn 0.5829249620437622 -0.7574531435966492 0.2940465211868286
vn -0.019043302163481712 -0.6533103585243225 0.7568506598472595
vn 0.7105740308761597 -0.1747528463602066 -0.681576132774353
vn -0.7115391492843628 0.7016642689704895 -0.03714055195450783
vn 0.5989382266998291 -0.7947807312011719 0.09796202182769775
vn 0.5065008997917175 -0.7879945039749146 0.3500308692455292
vn -0.7689679265022278 0.23548035323619843 0.5943377614021301
vn 0.19386683404445648 0.38063013553619385 -0.904177188873291
vn -0.16405266523361206 0.7659006118774414 -0.6216776371002197
vn 0.5900081992149353 -0.35694101452827454 -0.7242122888565063
vn -0.5602357387542725 0.8193292617797852 -0.12180095911026001
vn -0.3886852562427521 0.8554770946502686 -0.3421735167503357
vn -0.5160787105560303 0.8093917965888977 -0.28026360273361206
vn 0.6735188364982605 -0.7238994836807251 -0.14947248995304108
vn 0.4653893709182739 -0.8233041167259216 0.3249354958534241
vn 0.275052547454834 -0.7358501553535461 0.6187654733657837
vn -0.2825658619403839 -0.4025397300720215 0.870699942111969
vn -0.1669006645679474 0.7709718346595764 -0.614611029624939
vn 0.3213576674461365 0.30060678720474243 -0.8979781866073608
vn 0.6195989847183228 -0.38890358805656433 -0.6817998886108398
vn 0.6778656840324402 -0.2848320007324219 -0.6777675151824951
vn -0.4265424311161041 0.8529014587402344 -0.3010326623916626
vn -0.7030970454216003 0.7075194120407104 0.07121019810438156
vn 0.5834880471229553 -0.8021812438964844 -0.1266767680644989
vn -0.4485257565975189 -0.05452722683548927 0.8921050429344177
vn 0.27340397238731384 -0.7698185443878174 0.5767406225204468
vn 0.18309380114078522 -0.6162146329879761 0.7660001516342163
vn -0.08735284209251404 -0.5382280349731445 0.8382601737976074
vn 0.07598049193620682 0.5605940818786621 -0.8245976567268372
vn 0.5609971880912781 -0.01734815165400505 -0.8276360034942627
vn 0.6852248311042786 -0.6687304377555847 -0.2885594069957733
vn -0.6362823843955994 0.7610060572624207 0.12654893100261688
vn 0.4351034462451935 -0.8695370554924011 0.2336459755897522
vn -0.7523220777511597 0.5464214086532593 0.3680151700973511
vn -0.6952258348464966 0.13486960530281067 0.7060249447822571
vn 0.45069241523742676 -0.8532683253288269 0.2623158395290375
vn 0.22674082219600677 -0.7993062734603882 0.5565052628517151
vn -0.5059018731117249 -0.19398991763591766 0.8404946327209473
vn 0.34361520409584045 0.0051543088629841805 -0.9390963912010193
vn -0.35463640093803406 0.8467464447021484 -0.3965521454811096
vn -0.4424573481082916 0.8764459490776062 -0.18993163108825684
vn -0.6369348764419556 0.7648379802703857 0.09662740677595139
vn 0.057993557304143906 -0.7150188088417053 0.6966957449913025
vn -0.2977461516857147 -0.3888459801673889 0.8718635439872742
vn 0.08064265549182892 0.7649269104003906 -0.6390489935874939
vn 0.2877272367477417 0.21659864485263824 -0.9328977465629578
vn -0.1596466302871704 0.7143659591674805 -0.6813179850578308
vn 0.561034083366394 -0.48008042573928833 -0.6743615865707397
vn 0.6169816255569458 -0.5662207007408142 -0.5465599894523621
vn 0.6876681447029114 -0.6126165986061096 -0.38963258266448975
vn 0.5620664358139038 -0.8266032338142395 -0.02843540906906128
vn -0.7187495231628418 0.25152501463890076 0.6481776833534241
vn 0.46710434556007385 -0.8669106960296631 0.17400997877120972
vn -0.3348418176174164 -0.41225332021713257 0.8473064303398132
vn 0.5793613195419312 0.16451822221279144 -0.7982946038246155
vn -0.3811364769935608 0.857109785079956 -0.34655141830444336
vn -0.5406464338302612 0.8385534286499023 -0.0673028901219368
vn -0.6214171648025513 0.738174319267273 0.26256340742111206
vn -0.6882469654083252 0.2977442145347595 0.6615622043609619
vn 0.19137592613697052 -0.8053366541862488 0.5610777735710144
vn -0.25043338537216187 0.8795233964920044 -0.40462541580200195
vn -0.41235244274139404 0.889218807220459 -0.19813010096549988
vn -0.5045680999755859 0.8519453406333923 -0.14000104367733002
vn 0.5000431537628174 -0.7976301312446594 -0.3372580409049988
vn 0.5104488134384155 -0.8523445725440979 -0.11380169540643692
vn -0.631148636341095 0.6496775150299072 0.4237575829029083
vn 0.36665773391723633 -0.8694119453430176 0.3311874270439148
vn 0.207260861992836 -0.7965126633644104 0.5679880976676941
vn -0.2808443605899811 -0.4730801582336426 0.8350579142570496
vn 0.4610479176044464 0.574225127696991 -0.6765356063842773
vn -0.07186304032802582 0.913969099521637 -0.3993698060512543
vn 0.653311550617218 -0.2139134705066681 -0.7262403964996338
vn 0.5369724631309509 -0.6819978356361389 -0.4965275526046753
vn -0.6163142323493958 0.7715255618095398 0.15781383216381073
vn 0.34367215633392334 -0.9383636713027954 -0.03692016005516052
vn -0.5849394202232361 0.29717886447906494 0.7546725869178772
vn 0.3863433599472046 -0.8790072202682495 0.27943727374076843
vn -0.27554988861083984 -0.34156331419944763 0.8985581398010254
vn -0.324603796005249 0.9085234999656677 -0.2630922496318817
vn -0.547349214553833 0.8344822525978088 0.06362556666135788
vn -0.6804817318916321 0.460967093706131 0.5696086287498474
vn 0.2427029013633728 -0.912077784538269 0.33046868443489075
vn -0.4631079137325287 -0.12531712651252747 0.8773977160453796
vn 0.05954868346452713 -0.7281095385551453 0.6828693151473999
vn 0.2469712197780609 0.8208445310592651 -0.5149946212768555
vn 0.5627915859222412 0.4322955906391144 -0.7045468091964722
vn 0.5748156905174255 0.26893624663352966 -0.7728261947631836
vn 0.5507461428642273 -0.28917795419692993 -0.7829782366752625
vn 0.4550328850746155 -0.6873519420623779 -0.5661205649375916
vn 0.3611864447593689 -0.9225283265113831 -0.1359630674123764
vn 0.12340249866247177 -0.928803563117981 0.3494221568107605
vn -0.6208060383796692 0.09406521916389465 0.7783004641532898
vn -0.22035148739814758 0.966608464717865 -0.13081780076026917
vn -0.413606733083725 0.9101278781890869 -0.02442711777985096
vn -0.5693501830101013 0.7814954519271851 0.2551572620868683
vn -0.6382202506065369 0.6276059150695801 0.4458540081977844
vn 0.31030139327049255 -0.9112833142280579 -0.2706950902938843
vn -0.5702472925186157 0.18115687370300293 0.8012492060661316
vn -0.3018541932106018 -0.3466217815876007 0.8881089091300964
vn -0.09732312709093094 -0.7151243090629578 0.6921888589859009
vn -0.15868502855300903 0.9780320525169373 -0.13517525792121887
vn 0.37918880581855774 0.6908392906188965 -0.6155948042869568
vn 0.4646461308002472 0.1451902985572815 -0.873512327671051
vn 0.3496803641319275 -0.6893943548202515 -0.6343967318534851
vn 0.19768814742565155 -0.9697081446647644 0.14347665011882782
vn 0.046825092285871506 -0.9248820543289185 0.3773600161075592
vn -0.603698194026947 0.37855398654937744 0.7016021013259888
vn -0.5317303538322449 0.7609103322029114 0.3718579411506653
vn 0.454660564661026 0.1102270632982254 -0.883817732334137
vn 0.3872229754924774 -0.4642728269100189 -0.7965608239173889
vn 0.1634950041770935 -0.9319588541984558 -0.32360804080963135
vn -0.44278016686439514 -0.21180233359336853 0.871255099773407
vn 0.09110728651285172 -0.9942033290863037 -0.057089127600193024
vn -0.3032422959804535 -0.6364644765853882 0.7091947793960571
vn 0.09445302933454514 -0.9237761497497559 0.371101438999176
vn 0.3670216500759125 0.7598616480827332 -0.536568284034729
vn 0.12630708515644073 0.9528347253799438 -0.2759576141834259
vn -0.39079514145851135 0.9033797383308411 0.1765904426574707
vn 0.44177374243736267 0.4878994822502136 -0.7528546452522278
vn -0.48269641399383545 -0.15766865015029907 0.8614782691001892
vn 0.45915552973747253 -0.0040778787806630135 -0.8883465528488159
vn -0.2844429612159729 0.9187793135643005 0.27374598383903503
vn -0.5104970932006836 0.7064490914344788 0.49022698402404785
vn 0.3647422790527344 0.5977104902267456 -0.7139365077018738
vn -0.5406104326248169 0.38498586416244507 0.7480148673057556
vn 0.2814834415912628 -0.6433703899383545 -0.7119280695915222
vn -0.1809805929660797 -0.7237332463264465 0.6659250259399414
vn 0.2662343680858612 0.9369179010391235 -0.22650419175624847
vn 0.32459497451782227 0.8212924599647522 -0.469166100025177
vn -0.5094643831253052 0.5263620018959045 0.680726945400238
vn -0.5628206133842468 0.08430647104978561 0.8222684860229492
vn 0.4323381781578064 0.23723028600215912 -0.8699457049369812
vn -0.3326847553253174 -0.4760720431804657 0.8140493035316467
vn 0.29461944103240967 -0.6316053867340088 -0.717129111289978
vn -0.09960638731718063 -0.8576111793518066 0.5045608878135681
vn 0.14055916666984558 -0.8707079887390137 -0.4712863564491272
vn 0.043675199151039124 -0.9709153175354004 -0.2354060262441635
vn -0.10091795027256012 -0.981892466545105 0.1603209376335144
vn 0.030448531731963158 0.9841795563697815 0.17453794181346893
vn -0.5440650582313538 0.09886065125465393 0.8331985473632812
vn 0.3389221131801605 0.8052196502685547 -0.48657292127609253
vn 0.5905460119247437 -0.07499068975448608 -0.8035122156143188
vn -0.24211955070495605 0.7552483677864075 0.6090797185897827
vn 0.18208974599838257 0.9827700853347778 -0.03172196447849274
vn 0.5355091094970703 0.4778158366680145 -0.6963634490966797
vn -0.4354185461997986 -0.4222026765346527 0.795082151889801
vn -0.3396638333797455 -0.7773262858390808 0.5295209288597107
vn 0.46659785509109497 0.0024294767063111067 -0.884466290473938
vn 0.21972736716270447 -0.5750578045845032 -0.7880536317825317
vn -0.007794064003974199 -0.9723623394966125 -0.23334679007530212
vn -0.23949629068374634 -0.9468706846237183 0.2146567702293396
vn -0.1224847286939621 -0.9217739105224609 -0.36787283420562744
vn 0.05689817667007446 0.9526085257530212 0.29883041977882385
vn -0.4731076657772064 0.10538473725318909 0.874678909778595
vn 0.4638702869415283 0.8239119648933411 -0.32556647062301636
vn 0.5814409852027893 0.4556165933609009 -0.6740474104881287
vn -0.45417270064353943 -0.48267990350723267 0.7488306164741516
vn 0.07692848145961761 -0.5830867886543274 -0.8087594509124756
vn 0.3154293894767761 0.9468109011650085 -0.06366630643606186
vn -0.05097556859254837 0.8387606143951416 0.5421090126037598
vn -0.22822919487953186 0.6483285427093506 0.7263481020927429
vn -0.45971056818962097 -0.5752595067024231 0.6765669584274292
vn 0.5310657024383545 0.25703179836273193 -0.8074056506156921
vn -0.3971741795539856 -0.7502754330635071 0.5285257697105408
vn -0.28100916743278503 -0.9416893124580383 0.1850813925266266
vn 0.2637515962123871 -0.29329249262809753 -0.9189203381538391
vn -0.2064296305179596 -0.8591253757476807 -0.46828460693359375
vn -0.35207363963127136 -0.9297524094581604 -0.10772507637739182
vn -0.13713929057121277 -0.7711570262908936 -0.6216990351676941
vn 0.0955287292599678 0.9127949476242065 0.3970890939235687
vn -0.4310981035232544 0.043090786784887314 0.9012755155563354
vn 0.26303938031196594 0.9446657299995422 0.19600234925746918
vn 0.576087474822998 0.7105501890182495 -0.40403181314468384
vn 0.5630103349685669 0.22184568643569946 -0.7961180210113525
vn 0.4241523742675781 -0.2756095230579376 -0.862632155418396
vn 0.27734553813934326 -0.8462402820587158 -0.4549251198768616
vn -0.2615962028503418 0.43042200803756714 0.8638890981674194
vn 0.27811387181282043 0.9390103220939636 0.20226792991161346
vn -0.4310321807861328 -0.22559432685375214 0.8736810088157654
vn 0.5567147731781006 0.8283804059028625 -0.062086302787065506
vn -0.45097222924232483 -0.5919556617736816 0.6679913997650146
vn 0.6697638034820557 0.5710461139678955 -0.47468194365501404
vn -0.35896214842796326 -0.680268406867981 0.6390470266342163
vn -0.4417554438114166 -0.8198472261428833 0.36428382992744446
vn 0.8425694704055786 -0.03916036710143089 -0.5371621251106262
vn -0.42926132678985596 -0.9026415348052979 0.031193295493721962
vn -0.06602586060762405 0.7272186279296875 0.6832230687141418
vn -0.13068121671676636 0.6486131548881531 0.7498155832290649
vn -0.34267759323120117 0.18538957834243774 0.9209792613983154
vn -0.39134830236434937 -0.3162325620651245 0.8642010688781738
vn 0.7850188612937927 0.6036689877510071 0.13902930915355682
vn 0.9913513660430908 0.13074390590190887 0.011336898431181908
vn 0.7180836200714111 -0.6363809108734131 0.28173625469207764
vn -0.14948630332946777 -0.8994611501693726 0.4106379449367523
vn 0.26692017912864685 0.7543383240699768 0.5997727513313293
vn -0.07263778150081635 0.5554431676864624 0.8283759951591492
vn -0.30601540207862854 -0.004665769170969725 0.9520151615142822
vn 0.5210774540901184 0.7043946385383606 0.48198193311691284
vn -0.4277476668357849 -0.48875439167022705 0.760362446308136
vn -0.4687763452529907 -0.7386292219161987 0.48443329334259033
vn -0.19642291963100433 0.15054452419281006 0.9688934087753296
vn 0.11850360780954361 0.35235297679901123 0.92833411693573
vn -0.2468404769897461 -0.17058394849300385 0.9539240002632141
vn 0.628010630607605 0.0668017566204071 0.7753322720527649
vn -0.3074858784675598 -0.5669389367103577 0.7642202973365784
vn 0.054629210382699966 -0.3857358694076538 0.920990526676178
f 1//1 2//2 3//3
f 4//4 3//3 5//5
f 5//5 3//3 2//2
f 5//5 6//6 4//4
f 7//7 2//2 1//1
f 8//8 6//6 5//5
f 5//5 2//2 9//9
f 2//2 7//7 9//9
f 10//10 5//5 9//9
f 8//8 5//5 10//10
f 10//10 9//9 11//11
f 12//12 13//13 14//14
f 3//3 12//12 14//14
f 15//15 12//12 4//4
f 3//3 14//14 1//1
f 3//3 4//4 12//12
f 15//15 4//4 6//6
f 1//1 16//16 7//7
f 6//6 8//8 17//17
f 11//11 7//7 18//18
f 7//7 11//11 9//9
f 15//15 19//19 12//12
f 20//20 1//1 14//14
f 15//15 6//6 21//21
f 21//21 6//6 22//22
f 6//6 17//17 22//22
f 22//22 17//17 23//23
f 16//16 24//24 7//7
f 8//8 25//25 17//17
f 17//17 25//25 23//23
f 18//18 7//7 24//24
f 10//10 25//25 8//8
f 11//11 18//18 10//10
f 19//19 26//26 27//27
f 13//13 27//27 20//20
f 19//19 27//27 13//13
f 26//26 19//19 21//21
f 21//21 28//28 26//26
f 13//13 20//20 14//14
f 19//19 13//13 12//12
f 19//19 15//15 21//21
f 20//20 29//29 1//1
f 1//1 29//29 16//16
f 30//30 16//16 31//31
f 22//22 23//23 32//32
f 16//16 30//30 24//24
f 30//30 33//33 24//24
f 34//34 24//24 33//33
f 25//25 35//35 23//23
f 24//24 34//34 18//18
f 34//34 36//36 37//37
f 33//33 36//36 34//34
f 35//35 25//25 37//37
f 25//25 10//10 37//37
f 10//10 18//18 37//37
f 37//37 18//18 34//34
f 27//27 38//38 39//39
f 26//26 38//38 27//27
f 27//27 39//39 40//40
f 27//27 40//40 20//20
f 41//41 28//28 42//42
f 28//28 21//21 42//42
f 21//21 22//22 42//42
f 42//42 22//22 32//32
f 29//29 31//31 16//16
f 36//36 30//30 43//43
f 43//43 30//30 31//31
f 44//44 32//32 23//23
f 30//30 36//36 33//33
f 36//36 44//44 35//35
f 44//44 23//23 35//35
f 35//35 37//37 36//36
f 26//26 45//45 38//38
f 26//26 46//46 45//45
f 40//40 29//29 20//20
f 41//41 42//42 47//47
f 47//47 42//42 48//48
f 49//49 31//31 29//29
f 43//43 31//31 49//49
f 50//50 32//32 44//44
f 43//43 44//44 36//36
f 51//51 45//45 52//52
f 53//53 45//45 51//51
f 46//46 52//52 45//45
f 52//52 46//46 54//54
f 39//39 38//38 53//53
f 45//45 53//53 38//38
f 55//55 54//54 46//46
f 40//40 39//39 56//56
f 26//26 28//28 46//46
f 46//46 28//28 55//55
f 55//55 28//28 57//57
f 28//28 41//41 57//57
f 57//57 41//41 47//47
f 40//40 56//56 29//29
f 56//56 49//49 29//29
f 42//42 32//32 48//48
f 48//48 32//32 50//50
f 58//58 49//49 59//59
f 59//59 60//60 58//58
f 49//49 58//58 43//43
f 60//60 44//44 58//58
f 50//50 44//44 60//60
f 58//58 44//44 43//43
f 51//51 52//52 61//61
f 61//61 52//52 62//62
f 62//62 52//52 54//54
f 63//63 54//54 55//55
f 53//53 56//56 39//39
f 57//57 47//47 48//48
f 56//56 64//64 49//49
f 49//49 64//64 59//59
f 48//48 50//50 60//60
f 65//65 54//54 63//63
f 51//51 66//66 53//53
f 66//66 67//67 53//53
f 63//63 55//55 68//68
f 53//53 67//67 56//56
f 68//68 55//55 57//57
f 64//64 56//56 67//67
f 69//69 57//57 48//48
f 70//70 59//59 64//64
f 60//60 59//59 71//71
f 71//71 59//59 70//70
f 48//48 60//60 71//71
f 72//72 61//61 62//62
f 62//62 73//73 72//72
f 61//61 74//74 75//75
f 76//76 61//61 75//75
f 73//73 62//62 65//65
f 51//51 76//76 66//66
f 61//61 76//76 51//51
f 54//54 65//65 62//62
f 66//66 77//77 67//67
f 63//63 68//68 78//78
f 79//79 80//80 67//67
f 57//57 69//69 68//68
f 80//80 64//64 67//67
f 69//69 48//48 81//81
f 64//64 80//80 70//70
f 81//81 70//70 80//80
f 81//81 48//48 71//71
f 81//81 71//71 70//70
f 72//72 74//74 61//61
f 73//73 65//65 78//78
f 76//76 82//82 66//66
f 65//65 63//63 78//78
f 77//77 79//79 67//67
f 79//79 77//77 83//83
f 79//79 84//84 80//80
f 85//85 68//68 69//69
f 81//81 80//80 84//84
f 85//85 81//81 84//84
f 85//85 69//69 81//81
f 72//72 86//86 74//74
f 73//73 78//78 87//87
f 82//82 77//77 66//66
f 82//82 88//88 77//77
f 78//78 68//68 89//89
f 89//89 68//68 85//85
f 84//84 79//79 83//83
f 90//90 91//91 86//86
f 72//72 90//90 86//86
f 86//86 92//92 74//74
f 93//93 94//94 90//90
f 75//75 74//74 92//92
f 90//90 72//72 73//73
f 73//73 93//93 90//90
f 93//93 73//73 87//87
f 95//95 82//82 76//76
f 96//96 88//88 97//97
f 77//77 88//88 83//83
f 96//96 83//83 88//88
f 96//96 84//84 83//83
f 94//94 98//98 91//91
f 91//91 92//92 86//86
f 91//91 90//90 94//94
f 92//92 99//99 75//75
f 75//75 99//99 76//76
f 99//99 95//95 76//76
f 95//95 88//88 82//82
f 87//87 78//78 89//89
f 97//97 88//88 95//95
f 96//96 97//97 100//100
f 84//84 96//96 100//100
f 89//89 84//84 100//100
f 85//85 84//84 89//89
f 101//101 92//92 91//91
f 94//94 93//93 102//102
f 102//102 93//93 87//87
f 103//103 87//87 89//89
f 98//98 101//101 91//91
f 104//104 105//105 98//98
f 92//92 101//101 106//106
f 104//104 94//94 102//102
f 98//98 94//94 104//104
f 106//106 107//107 92//92
f 92//92 107//107 99//99
f 107//107 95//95 99//99
f 102//102 87//87 108//108
f 108//108 87//87 103//103
f 109//109 97//97 95//95
f 109//109 110//110 97//97
f 110//110 103//103 89//89
f 110//110 89//89 100//100
f 97//97 110//110 100//100
f 98//98 105//105 111//111
f 112//112 98//98 111//111
f 113//113 101//101 112//112
f 98//98 112//112 101//101
f 106//106 113//113 114//114
f 113//113 106//106 101//101
f 104//104 102//102 115//115
f 115//115 102//102 108//108
f 114//114 107//107 106//106
f 116//116 95//95 107//107
f 108//108 103//103 117//117
f 116//116 118//118 95//95
f 118//118 109//109 95//95
f 119//119 109//109 118//118
f 119//119 103//103 110//110
f 110//110 109//109 119//119
f 115//115 120//120 105//105
f 113//113 121//121 114//114
f 105//105 104//104 115//115
f 115//115 108//108 117//117
f 122//122 116//116 107//107
f 119//119 123//123 117//117
f 117//117 103//103 119//119
f 124//124 118//118 116//116
f 125//125 126//126 112//112
f 111//111 125//125 112//112
f 113//113 126//126 127//127
f 112//112 126//126 113//113
f 128//128 111//111 129//129
f 111//111 105//105 129//129
f 129//129 105//105 120//120
f 115//115 130//130 120//120
f 121//121 131//131 114//114
f 114//114 132//132 107//107
f 132//132 122//122 107//107
f 123//123 118//118 124//124
f 123//123 119//119 118//118
f 126//126 133//133 134//134
f 126//126 125//125 135//135
f 133//133 126//126 135//135
f 125//125 128//128 135//135
f 134//134 127//127 126//126
f 125//125 111//111 128//128
f 113//113 136//136 121//121
f 127//127 136//136 113//113
f 132//132 114//114 131//131
f 130//130 115//115 117//117
f 122//122 124//124 116//116
f 124//124 137//137 123//123
f 123//123 137//137 117//117
f 134//134 138//138 127//127
f 129//129 120//120 130//130
f 131//131 121//121 136//136
f 131//131 139//139 132//132
f 130//130 117//117 140//140
f 140//140 117//117 137//137
f 122//122 137//137 124//124
f 141//141 142//142 133//133
f 143//143 141//141 133//133
f 144//144 143//143 135//135
f 135//135 143//143 133//133
f 145//145 144//144 135//135
f 133//133 142//142 138//138
f 133//133 138//138 134//134
f 135//135 128//128 145//145
f 136//136 138//138 146//146
f 138//138 136//136 127//127
f 130//130 147//147 129//129
f 131//131 136//136 148//148
f 140//140 149//149 130//130
f 132//132 150//150 122//122
f 137//137 122//122 150//150
f 137//137 150//150 151//151
f 140//140 137//137 151//151
f 152//152 141//141 143//143
f 145//145 128//128 153//153
f 153//153 128//128 129//129
f 146//146 148//148 136//136
f 147//147 130//130 149//149
f 149//149 140//140 154//154
f 154//154 140//140 151//151
f 132//132 139//139 150//150
f 139//139 151//151 150//150
f 141//141 155//155 156//156
f 152//152 155//155 141//141
f 152//152 143//143 144//144
f 142//142 141//141 156//156
f 144//144 145//145 153//153
f 157//157 138//138 142//142
f 146//146 138//138 157//157
f 147//147 153//153 129//129
f 158//158 139//139 148//148
f 148//148 139//139 131//131
f 154//154 151//151 139//139
f 159//159 152//152 160//160
f 152//152 159//159 155//155
f 160//160 152//152 161//161
f 162//162 156//156 163//163
f 159//159 163//163 155//155
f 155//155 163//163 156//156
f 161//161 152//152 144//144
f 162//162 142//142 156//156
f 162//162 157//157 142//142
f 144//144 153//153 164//164
f 157//157 165//165 146//146
f 153//153 147//147 166//166
f 167//167 148//148 146//146
f 147//147 168//168 166//166
f 167//167 158//158 148//148
f 169//169 168//168 149//149
f 168//168 147//147 149//149
f 169//169 154//154 158//158
f 149//149 154//154 169//169
f 139//139 158//158 154//154
f 159//159 170//170 163//163
f 160//160 170//170 159//159
f 163//163 171//171 162//162
f 160//160 161//161 172//172
f 161//161 144//144 173//173
f 173//173 144//144 164//164
f 167//167 146//146 165//165
f 158//158 174//174 169//169
f 174//174 168//168 169//169
f 170//170 175//175 176//176
f 163//163 176//176 177//177
f 170//170 176//176 163//163
f 175//175 170//170 160//160
f 163//163 177//177 171//171
f 172//172 161//161 173//173
f 162//162 171//171 178//178
f 162//162 178//178 157//157
f 178//178 179//179 157//157
f 164//164 153//153 180//180
f 157//157 179//179 165//165
f 180//180 166//166 168//168
f 167//167 174//174 158//158
f 181//181 176//176 182//182
f 175//175 182//182 176//176
f 183//183 177//177 176//176
f 175//175 160//160 184//184
f 184//184 160//160 172//172
f 171//171 177//177 183//183
f 153//153 166//166 180//180
f 165//165 179//179 185//185
f 186//186 165//165 185//185
f 187//187 180//180 188//188
f 186//186 167//167 165//165
f 167//167 186//186 188//188
f 180//180 168//168 188//188
f 174//174 167//167 188//188
f 168//168 174//174 188//188
f 176//176 181//181 189//189
f 183//183 176//176 189//189
f 181//181 182//182 190//190
f 191//191 192//192 183//183
f 182//182 184//184 193//193
f 182//182 175//175 184//184
f 183//183 192//192 171//171
f 192//192 194//194 171//171
f 178//178 171//171 194//194
f 180//180 195//195 164//164
f 195//195 180//180 187//187
f 185//185 179//179 196//196
f 187//187 188//188 197//197
f 197//197 188//188 186//186
f 190//190 182//182 193//193
f 189//189 191//191 183//183
f 198//198 184//184 173//173
f 172//172 173//173 184//184
f 178//178 199//199 196//196
f 196//196 179//179 178//178
f 197//197 186//186 185//185
f 181//181 200//200 189//189
f 201//201 200//200 181//181
f 181//181 190//190 201//201
f 202//202 191//191 203//203
f 203//203 191//191 189//189
f 202//202 194//194 191//191
f 194//194 192//192 191//191
f 184//184 198//198 193//193
f 198//198 173//173 204//204
f 173//173 195//195 204//204
f 173//173 164//164 195//195
f 199//199 178//178 194//194
f 195//195 187//187 205//205
f 185//185 196//196 206//206
f 185//185 206//206 207//207
f 205//205 197//197 207//207
f 197//197 185//185 207//207
f 187//187 197//197 205//205
f 200//200 201//201 208//208
f 209//209 200//200 208//208
f 210//210 200//200 211//211
f 203//203 200//200 210//210
f 202//202 203//203 210//210
f 200//200 203//203 189//189
f 201//201 190//190 212//212
f 202//202 213//213 194//194
f 193//193 198//198 214//214
f 199//199 194//194 215//215
f 195//195 216//216 204//204
f 195//195 205//205 216//216
f 206//206 196//196 199//199
f 217//217 207//207 206//206
f 217//217 205//205 207//207
f 209//209 211//211 200//200
f 208//208 201//201 218//218
f 212//212 218//218 201//201
f 190//190 219//219 212//212
f 219//219 190//190 193//193
f 214//214 219//219 193//193
f 215//215 194//194 213//213
f 220//220 214//214 198//198
f 204//204 220//220 198//198
f 221//221 199//199 215//215
f 217//217 216//216 205//205
f 199//199 217//217 206//206
f 222//222 209//209 223//223
f 223//223 209//209 224//224
f 209//209 222//222 225//225
f 209//209 225//225 211//211
f 218//218 224//224 208//208
f 224//224 209//209 208//208
f 225//225 210//210 211//211
f 202//202 210//210 226//226
f 213//213 202//202 226//226
f 220//220 227//227 214//214
f 221//221 215//215 213//213
f 220//220 204//204 216//216
f 221//221 228//228 199//199
f 217//217 199//199 228//228
f 217//217 228//228 229//229
f 216//216 217//217 229//229
f 230//230 225//225 222//222
f 231//231 224//224 218//218
f 225//225 226//226 210//210
f 218//218 212//212 232//232
f 212//212 219//219 232//232
f 213//213 226//226 233//233
f 227//227 219//219 214//214
f 234//234 227//227 220//220
f 235//235 221//221 213//213
f 220//220 216//216 234//234
f 221//221 236//236 228//228
f 234//234 229//229 228//228
f 234//234 216//216 229//229
f 222//222 237//237 230//230
f 223//223 237//237 222//222
f 223//223 224//224 238//238
f 238//238 224//224 231//231
f 239//239 231//231 218//218
f 232//232 239//239 218//218
f 225//225 230//230 226//226
f 219//219 227//227 232//232
f 233//233 235//235 213//213
f 227//227 234//234 240//240
f 240//240 234//234 241//241
f 221//221 235//235 236//236
f 241//241 228//228 236//236
f 234//234 228//228 241//241
f 242//242 237//237 243//243
f 230//230 237//237 242//242
f 244//244 230//230 242//242
f 227//227 245//245 232//232
f 245//245 246//246 232//232
f 245//245 227//227 240//240
f 236//236 235//235 247//247
f 241//241 247//247 240//240
f 241//241 236//236 247//247
f 248//248 243//243 249//249
f 243//243 250//250 242//242
f 237//237 249//249 243//243
f 249//249 237//237 251//251
f 237//237 223//223 251//251
f 223//223 238//238 251//251
f 252//252 226//226 230//230
f 239//239 232//232 253//253
f 253//253 232//232 246//246
f 252//252 254//254 226//226
f 254//254 233//233 226//226
f 255//255 233//233 254//254
f 256//256 233//233 255//255
f 235//235 256//256 247//247
f 235//235 233//233 256//256
f 240//240 247//247 245//245
f 257//257 250//250 248//248
f 243//243 248//248 250//250
f 244//244 242//242 250//250
f 251//251 238//238 231//231
f 239//239 251//251 231//231
f 252//252 230//230 244//244
f 258//258 246//246 245//245
f 256//256 259//259 247//247
f 259//259 245//245 247//247
f 260//260 261//261 248//248
f 248//248 261//261 262//262
f 263//263 260//260 249//249
f 262//262 264//264 257//257
f 248//248 262//262 257//257
f 248//248 249//249 260//260
f 265//265 263//263 249//249
f 257//257 266//266 250//250
f 249//249 251//251 265//265
f 244//244 250//250 266//266
f 253//253 251//251 239//239
f 267//267 254//254 252//252
f 253//253 246//246 268//268
f 269//269 254//254 267//267
f 258//258 259//259 270//270
f 269//269 255//255 254//254
f 270//270 256//256 269//269
f 256//256 255//255 269//269
f 259//259 256//256 270//270
f 258//258 245//245 259//259
f 257//257 264//264 271//271
f 257//257 271//271 266//266
f 251//251 253//253 272//272
f 258//258 268//268 246//246
f 267//267 273//273 269//269
f 258//258 270//270 268//268
f 270//270 269//269 273//273
f 262//262 274//274 275//275
f 261//261 274//274 262//262
f 276//276 274//274 261//261
f 261//261 260//260 276//276
f 275//275 264//264 262//262
f 260//260 263//263 277//277
f 251//251 272//272 265//265
f 278//278 244//244 266//266
f 272//272 253//253 279//279
f 278//278 252//252 244//244
f 280//280 252//252 278//278
f 281//281 253//253 268//268
f 282//282 281//281 268//268
f 267//267 252//252 280//280
f 280//280 273//273 267//267
f 282//282 270//270 273//273
f 282//282 268//268 270//270
f 274//274 283//283 275//275
f 283//283 274//274 284//284
f 285//285 284//284 276//276
f 276//276 284//284 274//274
f 285//285 276//276 277//277
f 286//286 287//287 275//275
f 276//276 260//260 277//277
f 275//275 287//287 264//264
f 264//264 287//287 271//271
f 277//277 263//263 265//265
f 288//288 277//277 265//265
f 289//289 266//266 271//271
f 278//278 266//266 289//289
f 279//279 253//253 281//281
f 273//273 280//280 290//290
f 273//273 290//290 282//282
f 291//291 275//275 283//283
f 291//291 286//286 275//275
f 292//292 285//285 277//277
f 292//292 277//277 288//288
f 271//271 287//287 293//293
f 288//288 265//265 272//272
f 271//271 294//294 289//289
f 279//279 295//295 272//272
f 278//278 290//290 280//280
f 282//282 290//290 281//281
f 296//296 283//283 297//297
f 296//296 298//298 283//283
f 299//299 300//300 301//301
f 283//283 298//298 291//291
f 284//284 297//297 283//283
f 300//300 297//297 284//284
f 301//301 300//300 284//284
f 284//284 285//285 301//301
f 292//292 301//301 285//285
f 302//302 286//286 291//291
f 286//286 302//302 287//287
f 303//303 271//271 293//293
f 303//303 294//294 271//271
f 295//295 288//288 272//272
f 278//278 289//289 304//304
f 278//278 304//304 290//290
f 290//290 304//304 305//305
f 295//295 281//281 305//305
f 305//305 281//281 290//290
f 279//279 281//281 295//295
f 296//296 306//306 307//307
f 306//306 296//296 297//297
f 308//308 307//307 309//309
f 297//297 300//300 310//310
f 296//296 307//307 308//308
f 308//308 298//298 296//296
f 301//301 292//292 311//311
f 298//298 312//312 302//302
f 291//291 298//298 302//302
f 287//287 302//302 293//293
f 288//288 295//295 313//313
f 294//294 314//314 315//315
f 316//316 315//315 314//314
f 313//313 305//305 315//315
f 294//294 315//315 289//289
f 304//304 289//289 315//315
f 313//313 295//295 305//305
f 305//305 304//304 315//315
f 307//307 317//317 318//318
f 317//317 307//307 306//306
f 318//318 309//309 307//307
f 297//297 310//310 306//306
f 319//319 308//308 309//309
f 300//300 299//299 320//320
f 299//299 301//301 311//311
f 298//298 308//308 312//312
f 321//321 302//302 312//312
f 322//322 311//311 292//292
f 322//322 292//292 288//288
f 323//323 322//322 288//288
f 293//293 302//302 324//324
f 302//302 321//321 324//324
f 325//325 293//293 324//324
f 326//326 323//323 288//288
f 293//293 325//325 303//303
f 288//288 313//313 326//326
f 303//303 314//314 294//294
f 313//313 315//315 316//316
f 326//326 313//313 316//316
f 327//327 318//318 317//317
f 306//306 328//328 317//317
f 306//306 329//329 328//328
f 306//306 310//310 329//329
f 310//310 320//320 330//330
f 310//310 300//300 320//320
f 312//312 308//308 319//319
f 299//299 311//311 320//320
f 322//322 320//320 311//311
f 303//303 325//325 331//331
f 331//331 332//332 326//326
f 314//314 303//303 331//331
f 316//316 314//314 331//331
f 326//326 316//316 331//331
f 333//333 334//334 335//335
f 327//327 335//335 334//334
f 335//335 317//317 328//328
f 327//327 334//334 336//336
f 317//317 335//335 327//327
f 327//327 336//336 337//337
f 327//327 337//337 318//318
f 337//337 338//338 318//318
f 310//310 330//330 329//329
f 318//318 338//338 309//309
f 319//319 338//338 339//339
f 319//319 309//309 338//338
f 340//340 330//330 320//320
f 319//319 339//339 312//312
f 320//320 322//322 340//340
f 312//312 341//341 321//321
f 322//322 323//323 340//340
f 332//332 342//342 340//340
f 323//323 332//332 340//340
f 331//331 325//325 332//332
f 323//323 326//326 332//332
f 343//343 336//336 334//334
f 343//343 334//334 333//333
f 335//335 328//328 344//344
f 329//329 345//345 328//328
f 329//329 330//330 346//346
f 330//330 340//340 347//347
f 339//339 341//341 312//312
f 324//324 321//321 348//348
f 324//324 348//348 325//325
f 332//332 325//325 342//342
f 335//335 349//349 333//333
f 335//335 344//344 350//350
f 335//335 350//350 349//349
f 344//344 328//328 351//351
f 337//337 336//336 352//352
f 328//328 345//345 351//351
f 352//352 353//353 337//337
f 353//353 338//338 337//337
f 329//329 346//346 345//345
f 353//353 339//339 338//338
f 330//330 354//354 346//346
f 354//354 330//330 347//347
f 355//355 341//341 339//339
f 356//356 341//341 355//355
f 357//357 347//347 340//340
f 341//341 356//356 321//321
f 321//321 356//356 348//348
f 340//340 342//342 357//357
f 357//357 325//325 348//348
f 342//342 325//325 357//357
f 358//358 333//333 359//359
f 359//359 333//333 349//349
f 333//333 358//358 343//343
f 343//343 360//360 336//336
f 344//344 351//351 350//350
f 336//336 360//360 361//361
f 336//336 361//361 352//352
f 345//345 362//362 351//351
f 345//345 346//346 362//362
f 352//352 363//363 353//353
f 346//346 354//354 364//364
f 339//339 353//353 365//365
f 354//354 347//347 364//364
f 339//339 365//365 355//355
f 366//366 357//357 356//356
f 364//364 347//347 366//366
f 347//347 357//357 366//366
f 357//357 348//348 356//356
f 349//349 367//367 359//359
f 349//349 350//350 367//367
f 360//360 343//343 358//358
f 350//350 351//351 368//368
f 346//346 369//369 362//362
f 370//370 365//365 353//353
f 346//346 364//364 369//369
f 364//364 366//366 371//371
f 355//355 365//365 372//372
f 355//355 372//372 356//356
f 366//366 356//356 372//372
f 359//359 373//373 358//358
f 373//373 374//374 358//358
f 375//375 360//360 374//374
f 358//358 374//374 360//360
f 360//360 375//375 376//376
f 376//376 377//377 360//360
f 360//360 377//377 361//361
f 351//351 362//362 368//368
f 377//377 378//378 361//361
f 352//352 361//361 378//378
f 352//352 378//378 363//363
f 363//363 379//379 370//370
f 363//363 370//370 353//353
f 369//369 364//364 371//371
f 369//369 371//371 380//380
f 372//372 365//365 370//370
f 371//371 366//366 372//372
f 359//359 381//381 373//373
f 367//367 382//382 359//359
f 367//367 350//350 382//382
f 350//350 368//368 383//383
f 362//362 384//384 368//368
f 377//377 385//385 378//378
f 369//369 386//386 384//384
f 369//369 384//384 362//362
f 387//387 386//386 380//380
f 386//386 369//369 380//380
f 363//363 378//378 379//379
f 370//370 379//379 388//388
f 380//380 371//371 387//387
f 371//371 372//372 387//387
f 372//372 370//370 388//388
f 373//373 389//389 390//390
f 389//389 373//373 381//381
f 359//359 382//382 381//381
f 373//373 390//390 374//374
f 350//350 383//383 382//382
f 375//375 391//391 376//376
f 383//383 368//368 384//384
f 385//385 377//377 392//392
f 378//378 385//385 393//393
f 378//378 393//393 394//394
f 379//379 378//378 394//394
f 372//372 388//388 387//387
f 374//374 390//390 375//375
f 375//375 390//390 391//391
f 383//383 395//395 396//396
f 395//395 383//383 384//384
f 397//397 398//398 391//391
f 392//392 391//391 398//398
f 391//391 392//392 376//376
f 376//376 392//392 377//377
f 398//398 399//399 392//392
f 395//395 386//386 400//400
f 384//384 386//386 395//395
f 392//392 399//399 401//401
f 392//392 401//401 385//385
f 385//385 401//401 393//393
f 400//400 388//388 402//402
f 387//387 388//388 400//400
f 386//386 387//387 400//400
f 393//393 403//403 394//394
f 388//388 394//394 402//402
f 388//388 379//379 394//394
f 404//404 390//390 405//405
f 389//389 405//405 390//390
f 381//381 406//406 389//389
f 381//381 396//396 406//406
f 382//382 396//396 381//381
f 383//383 396//396 382//382
f 407//407 391//391 390//390
f 391//391 407//407 397//397
f 395//395 400//400 408//408
f 397//397 409//409 398//398
f 397//397 407//407 409//409
f 389//389 410//410 405//405
f 389//389 411//411 410//410
f 406//406 411//411 389//389
f 390//390 404//404 407//407
f 406//406 396//396 411//411
f 404//404 412//412 407//407
f 411//411 396//396 413//413
f 396//396 395//395 413//413
f 395//395 408//408 413//413
f 398//398 409//409 414//414
f 415//415 408//408 402//402
f 400//400 402//402 408//408
f 394//394 403//403 415//415
f 402//402 394//394 415//415
f 404//404 405//405 416//416
f 417//417 404//404 416//416
f 404//404 417//417 412//412
f 418//418 411//411 419//419
f 411//411 413//413 419//419
f 412//412 420//420 409//409
f 407//407 412//412 409//409
f 413//413 408//408 419//419
f 408//408 421//421 419//419
f 409//409 420//420 414//414
f 414//414 420//420 422//422
f 414//414 399//399 398//398
f 415//415 423//423 421//421
f 408//408 415//415 421//421
f 414//414 424//424 425//425
f 399//399 414//414 425//425
f 426//426 401//401 399//399
f 423//423 401//401 426//426
f 393//393 401//401 423//423
f 403//403 393//393 423//423
f 415//415 403//403 423//423
f 405//405 427//427 416//416
f 410//410 427//427 405//405
f 411//411 418//418 410//410
f 419//419 428//428 418//418
f 420//420 412//412 429//429
f 422//422 420//420 430//430
f 422//422 424//424 414//414
f 399//399 425//425 426//426
f 410//410 431//431 427//427
f 417//417 416//416 432//432
f 410//410 418//418 431//431
f 433//433 420//420 429//429
f 412//412 417//417 429//429
f 419//419 421//421 434//434
f 428//428 419//419 434//434
f 433//433 430//430 420//420
f 423//423 435//435 434//434
f 421//421 423//423 434//434
f 436//436 437//437 430//430
f 423//423 426//426 435//435
f 430//430 437//437 422//422
f 422//422 438//438 424//424
f 425//425 424//424 438//438
f 425//425 438//438 439//439
f 439//439 426//426 425//425
f 422//422 437//437 440//440
f 438//438 422//422 440//440
f 416//416 441//441 432//432
f 427//427 441//441 416//416
f 417//417 432//432 429//429
f 427//427 431//431 441//441
f 418//418 442//442 431//431
f 418//418 428//428 442//442
f 428//428 434//434 442//442
f 429//429 443//443 433//433
f 444//444 433//433 443//443
f 445//445 434//434 435//435
f 436//436 433//433 444//444
f 430//430 433//433 436//436
f 439//439 435//435 426//426
f 437//437 436//436 446//446
f 440//440 437//437 446//446
f 447//447 429//429 432//432
f 441//441 448//448 432//432
f 449//449 448//448 441//441
f 431//431 449//449 441//441
f 429//429 447//447 443//443
f 445//445 450//450 442//442
f 442//442 434//434 445//445
f 444//444 451//451 436//436
f 452//452 450//450 439//439
f 450//450 435//435 439//439
f 445//445 435//435 450//450
f 436//436 451//451 446//446
f 453//453 439//439 438//438
f 446//446 451//451 454//454
f 453//453 438//438 440//440
f 455//455 456//456 446//446
f 456//456 440//440 446//446
f 455//455 454//454 457//457
f 446//446 454//454 455//455
f 432//432 458//458 447//447
f 432//432 448//448 458//458
f 449//449 431//431 442//442
f 449//449 442//442 459//459
f 447//447 460//460 443//443
f 442//442 450//450 459//459
f 444//444 443//443 461//461
f 444//444 461//461 451//451
f 439//439 453//453 452//452
f 462//462 454//454 451//451
f 440//440 456//456 453//453
f 463//463 454//454 462//462
f 454//454 463//463 457//457
f 457//457 463//463 464//464
f 458//458 460//460 447//447
f 449//449 465//465 448//448
f 449//449 459//459 465//465
f 443//443 460//460 466//466
f 459//459 467//467 465//465
f 443//443 466//466 461//461
f 461//461 466//466 468//468
f 469//469 467//467 452//452
f 450//450 452//452 467//467
f 459//459 450//450 467//467
f 461//461 468//468 470//470
f 451//451 461//461 470//470
f 471//471 469//469 453//453
f 469//469 452//452 453//453
f 470//470 462//462 451//451
f 472//472 453//453 456//456
f 462//462 470//470 473//473
f 462//462 473//473 463//463
f 474//474 456//456 455//455
f 473//473 464//464 463//463
f 474//474 455//455 457//457
f 457//457 464//464 474//474
f 460//460 458//458 475//475
f 458//458 448//448 476//476
f 476//476 448//448 465//465
f 460//460 475//475 466//466
f 458//458 476//476 475//475
f 465//465 477//477 476//476
f 467//467 477//477 465//465
f 469//469 478//478 477//477
f 467//467 469//469 477//477
f 468//468 479//479 470//470
f 478//478 469//469 471//471
f 470//470 479//479 480//480
f 470//470 480//480 473//473
f 453//453 472//472 471//471
f 472//472 456//456 474//474
f 481//481 473//473 480//480
f 473//473 481//481 464//464
f 482//482 474//474 464//464
f 464//464 481//481 482//482
f 475//475 476//476 477//477
f 468//468 466//466 483//483
f 484//484 475//475 485//485
f 477//477 485//485 475//475
f 477//477 478//478 485//485
f 483//483 486//486 468//468
f 471//471 487//487 485//485
f 478//478 471//471 485//485
f 486//486 479//479 468//468
f 471//471 472//472 487//487
f 488//488 487//487 472//472
f 472//472 474//474 488//488
f 474//474 482//482 488//488
f 466//466 475//475 484//484
f 483//483 466//466 484//484
f 484//484 489//489 483//483
f 489//489 490//490 483//483
f 490//490 489//489 491//491
f 485//485 487//487 489//489
f 485//485 489//489 484//484
f 489//489 487//487 491//491
f 479//479 492//492 480//480
f 491//491 493//493 494//494
f 487//487 488//488 493//493
f 487//487 493//493 491//491
f 480//480 492//492 481//481
f 494//494 481//481 492//492
f 493//493 482//482 494//494
f 488//488 482//482 493//493
f 482//482 481//481 494//494
f 483//483 490//490 486//486
f 486//486 492//492 479//479
f 492//492 486//486 490//490
f 490//490 494//494 492//492
f 491//491 494//494 490//490
