# Generated by Visualization Toolkit
v -150.34715270996094 -216.2906036376953 401.52618408203125
v -148.2687530517578 -215.14854431152344 401.3421630859375
v -148.9280242919922 -218.62832641601562 401.25421142578125
v -147.3861846923828 -219.13319396972656 402.4618835449219
v -148.98426818847656 -222.01197814941406 403.2048034667969
v -150.3535614013672 -220.94212341308594 402.9234924316406
v -150.6152801513672 -211.9407196044922 404.18115234375
v -150.3626251220703 -206.8431396484375 405.92596435546875
v -151.4100799560547 -208.0733642578125 404.7952880859375
v -153.51295471191406 -203.22515869140625 405.3283996582031
v -153.6825408935547 -206.839111328125 405.1893005371094
v -149.6652069091797 -209.197265625 404.5047607421875
v -152.2291717529297 -212.2865447998047 404.8014221191406
v -149.1874237060547 -209.89418029785156 406.0368957519531
v -153.8274383544922 -213.3899383544922 406.8420104980469
v -148.8667755126953 -212.24327087402344 404.746337890625
v -148.49266052246094 -211.35023498535156 408.9779968261719
v -152.16331481933594 -218.83680725097656 405.8571472167969
v -150.3180389404297 -221.81056213378906 405.6602783203125
v -154.05039978027344 -199.34939575195312 408.3898010253906
v -155.3505096435547 -203.04541015625 407.4258117675781
v -152.1851348876953 -200.86575317382812 407.93829345703125
v -150.5127410888672 -203.3147735595703 407.9173583984375
v -153.6748504638672 -215.569580078125 408.2150573730469
v -148.7799835205078 -217.7765350341797 408.2892761230469
v -149.7958221435547 -215.87423706054688 411.42779541015625
v -151.3834686279297 -219.0114288330078 408.4969787597656
v -156.60899353027344 -201.0050048828125 411.6917724609375
v -155.6987762451172 -209.18238830566406 410.91424560546875
v -150.0608673095703 -203.3339385986328 411.2127685546875
v -148.86109924316406 -211.4473876953125 411.6192321777344
v -154.6651153564453 -197.70079040527344 410.322021484375
v -154.31492614746094 -194.25242614746094 412.92041015625
v -151.77195739746094 -198.7325897216797 412.00579833984375
v -155.82533264160156 -193.26055908203125 412.6574401855469
v -156.7693634033203 -195.21466064453125 412.4292907714844
v -156.79466247558594 -202.04510498046875 413.6015319824219
v -154.9904022216797 -209.14913940429688 414.83203125
v -152.7254180908203 -215.2406768798828 412.0229797363281
v -149.6601104736328 -211.93289184570312 414.1799621582031
v -151.32667541503906 -212.79396057128906 415.4076232910156
v -153.33546447753906 -192.4462127685547 416.6415710449219
v -158.1470489501953 -196.9764404296875 415.931640625
v -150.6605682373047 -201.71836853027344 414.82562255859375
v -150.27491760253906 -206.77305603027344 414.51007080078125
v -152.92335510253906 -212.02735900878906 415.3879699707031
v -157.1891632080078 -190.2346649169922 416.0544738769531
v -151.8645477294922 -195.49899291992188 418.8561706542969
v -151.4405975341797 -206.19190979003906 416.2635192871094
v -155.5714569091797 -204.4151611328125 416.55377197265625
v -157.58140563964844 -186.47425842285156 417.8621826171875
v -155.4059600830078 -188.28271484375 417.4300842285156
v -153.86585998535156 -188.62774658203125 420.05987548828125
v -159.24342346191406 -189.568359375 419.24334716796875
v -157.4078826904297 -200.13621520996094 417.7264709472656
v -152.1862030029297 -199.50814819335938 420.2464599609375
v -152.38429260253906 -202.5332489013672 418.76483154296875
v -153.36903381347656 -207.08485412597656 416.9232177734375
v -154.2817840576172 -203.49124145507812 418.8264465332031
v -157.0880584716797 -183.7194061279297 421.3072509765625
v -159.6088409423828 -184.4242706298828 421.97418212890625
v -153.0540313720703 -191.27603149414062 422.0250549316406
v -159.96873474121094 -190.2853546142578 421.7660217285156
v -158.58238220214844 -196.66595458984375 420.4767761230469
v -154.3000030517578 -201.05398559570312 421.1492919921875
v -156.5223846435547 -199.77578735351562 420.9150695800781
v -155.11570739746094 -184.41748046875 422.45733642578125
v -153.8091278076172 -195.57785034179688 422.98785400390625
v -156.7250213623047 -182.36927795410156 424.6004333496094
v -158.9819793701172 -178.93685913085938 427.7864685058594
v -161.2740936279297 -184.0812225341797 426.72412109375
v -155.2709197998047 -183.2422637939453 427.3836975097656
v -154.06324768066406 -189.9359130859375 425.2854309082031
v -160.01649475097656 -190.94398498535156 423.85882568359375
v -156.1024627685547 -193.79736328125 426.1337890625
v -155.3855743408203 -197.63954162597656 422.8882141113281
v -157.7488250732422 -194.89810180664062 424.73101806640625
v -155.6433563232422 -190.20510864257812 427.8509826660156
v -159.38670349121094 -191.9499053955078 425.4713439941406
v -160.7780303955078 -178.60577392578125 429.18927001953125
v -162.05076599121094 -179.32421875 431.4215087890625
v -155.73533630371094 -182.4513397216797 430.3189392089844
v -161.2439727783203 -185.0416717529297 429.8842468261719
v -158.7390899658203 -189.0897979736328 429.66558837890625
v -159.6616668701172 -174.7645721435547 430.2942810058594
v -157.94810485839844 -176.1895751953125 430.36767578125
v -156.6692657470703 -179.5168914794922 429.18426513671875
v -156.4783172607422 -182.6911163330078 433.72515869140625
v -157.5717010498047 -183.21644592285156 434.9799499511719
v -157.36061096191406 -188.6671600341797 430.15576171875
v -160.44606018066406 -171.63084411621094 431.5943603515625
v -156.20445251464844 -177.0963592529297 431.9974670410156
v -161.85499572753906 -167.77978515625 435.2826843261719
v -162.78404235839844 -172.01010131835938 433.7232971191406
v -158.39723205566406 -170.59690856933594 433.3403625488281
v -156.10557556152344 -177.85061645507812 437.6847839355469
v -162.7770233154297 -176.9642791748047 438.81231689453125
v -161.4727020263672 -182.23048400878906 434.9625549316406
v -159.05763244628906 -184.32337951660156 434.4209289550781
v -159.7699737548828 -167.44126892089844 435.1768493652344
v -158.3975067138672 -163.3916473388672 439.7037353515625
v -156.7485809326172 -170.0770263671875 436.11102294921875
v -163.3437957763672 -168.1187286376953 437.3430480957031
v -163.16822814941406 -176.18728637695312 435.69769287109375
v -163.98973083496094 -170.92758178710938 439.619873046875
v -155.85975646972656 -174.5466766357422 437.2414245605469
v -158.49205017089844 -181.21917724609375 438.3946838378906
v -160.8465118408203 -181.56295776367188 437.8049621582031
v -160.54029846191406 -161.81288146972656 439.84344482421875
v -162.6088104248047 -161.82090759277344 441.0246276855469
v -156.1858367919922 -164.79995727539062 442.6151123046875
v -157.2274627685547 -178.77586364746094 439.6251525878906
v -163.90089416503906 -162.83216857910156 444.0163269042969
v -159.6040496826172 -157.68856811523438 441.80828857421875
v -162.4739532470703 -156.9384307861328 442.2012023925781
v -157.06056213378906 -162.29774475097656 442.135009765625
v -156.02049255371094 -169.37742614746094 442.37420654296875
v -156.8638458251953 -171.49383544921875 444.298095703125
v -162.92213439941406 -173.35391235351562 443.2154541015625
v -161.3939666748047 -175.1524200439453 443.2835388183594
v -160.1702423095703 -178.63851928710938 440.4409484863281
v -158.9669647216797 -174.0743408203125 444.2931213378906
v -160.51036071777344 -153.38331604003906 444.1073303222656
v -158.3345184326172 -154.87713623046875 443.9179992675781
v -163.70799255371094 -157.4462127685547 445.27581787109375
v -156.1631317138672 -159.03173828125 446.4703369140625
v -163.52296447753906 -167.7509765625 445.1782531738281
v -158.7164764404297 -151.13755798339844 445.9117736816406
v -161.64207458496094 -150.7876434326172 446.6563415527344
v -163.3944549560547 -152.92041015625 448.2108154296875
v -156.8368682861328 -166.991943359375 445.96942138671875
v -163.69200134277344 -161.35984802246094 448.55755615234375
v -161.29957580566406 -170.7396240234375 446.3232727050781
v -160.72679138183594 -146.08673095703125 448.0356750488281
v -158.48362731933594 -146.46939086914062 447.7716064453125
v -162.9785919189453 -148.258544921875 449.5151672363281
v -156.85108947753906 -146.05076599121094 448.9178466796875
v -156.63246154785156 -151.50216674804688 447.87542724609375
v -155.99644470214844 -153.09552001953125 449.6694030761719
v -163.8346710205078 -155.3498992919922 449.9745788574219
v -156.9219207763672 -162.82557678222656 448.74090576171875
v -162.7688751220703 -164.72572326660156 449.245849609375
v -158.82325744628906 -168.53125 447.4686584472656
v -160.65452575683594 -164.80303955078125 450.3714294433594
v -157.63340759277344 -139.7157745361328 451.7325439453125
v -160.1706085205078 -142.28030395507812 450.4151611328125
v -156.47926330566406 -156.11566162109375 451.23175048828125
v -156.2615203857422 -140.23056030273438 452.1319274902344
v -155.41285705566406 -143.6726837158203 452.599609375
v -161.5132293701172 -142.52810668945312 452.8243103027344
v -162.61720275878906 -145.92518615722656 453.5577697753906
v -155.2002716064453 -145.6470489501953 454.3863525390625
v -162.95140075683594 -156.38446044921875 453.50042724609375
v -162.4989776611328 -159.21852111816406 452.39935302734375
v -158.23582458496094 -158.42774963378906 452.67633056640625
v -155.86561584472656 -133.94215393066406 453.7405700683594
v -154.7771759033203 -137.3569793701172 454.04119873046875
v -157.16160583496094 -132.61740112304688 454.0105285644531
v -160.1867218017578 -138.5030517578125 454.2356262207031
v -162.96995544433594 -149.68307495117188 455.2578430175781
v -155.5047149658203 -146.59083557128906 456.76885986328125
v -160.4374542236328 -158.69488525390625 453.6034851074219
v -154.82334899902344 -127.1669921875 457.33380126953125
v -158.14891052246094 -129.6855926513672 457.25042724609375
v -154.1364288330078 -140.68145751953125 456.1728820800781
v -161.8264617919922 -141.72425842285156 457.267333984375
v -156.6678009033203 -149.64659118652344 457.8121337890625
v -158.36183166503906 -152.01402282714844 457.9768371582031
v -161.84837341308594 -151.1731414794922 457.3477478027344
v -160.69435119628906 -155.8418426513672 456.2062683105469
v -155.48497009277344 -125.20973205566406 459.10308837890625
v -153.53843688964844 -130.0914306640625 456.9326477050781
v -151.8845977783203 -131.60440063476562 459.31427001953125
v -158.93125915527344 -129.82296752929688 461.50201416015625
v -160.77537536621094 -137.30722045898438 457.95989990234375
v -153.5796661376953 -139.32998657226562 462.0657653808594
v -154.85630798339844 -122.25184631347656 460.2955322265625
v -152.0604705810547 -122.98011779785156 459.2229919433594
v -151.20310974121094 -126.43519592285156 459.44000244140625
v -151.33876037597656 -133.64723205566406 462.458984375
v -160.87245178222656 -139.09364318847656 461.1036376953125
v -159.74427795410156 -140.13539123535156 463.4053955078125
v -160.2123260498047 -148.5415496826172 459.6205749511719
v -156.9239959716797 -146.58145141601562 460.55047607421875
v -158.2001190185547 -146.1342315673828 461.6488037109375
v -151.44432067871094 -116.813720703125 464.1835021972656
v -150.3298797607422 -120.9259033203125 461.864013671875
v -153.42811584472656 -118.30035400390625 463.6268310546875
v -147.9844207763672 -119.52540588378906 465.1550598144531
v -149.3919219970703 -124.35551452636719 462.2989196777344
v -156.9209747314453 -124.95758056640625 463.42010498046875
v -159.33262634277344 -132.36941528320312 464.3211975097656
v -155.0435028076172 -139.96536254882812 464.5622253417969
v -158.19178771972656 -143.00888061523438 463.5356750488281
v -149.17555236816406 -117.41253662109375 464.450439453125
v -154.7743682861328 -118.99699401855469 466.127197265625
v -159.2145538330078 -136.4844207763672 464.78167724609375
v -152.10227966308594 -135.3330535888672 465.766845703125
v -148.6090850830078 -114.96971130371094 465.5644226074219
v -151.20701599121094 -113.23463439941406 467.3299865722656
v -147.20423889160156 -121.15875244140625 466.9439697265625
v -148.86851501464844 -126.03155517578125 466.5447998046875
v -156.8109588623047 -124.85171508789062 468.3026428222656
v -157.9050750732422 -129.2415313720703 468.0133361816406
v -150.5543670654297 -131.445556640625 467.0955505371094
v -157.4132843017578 -138.3388214111328 465.82684326171875
v -148.8203887939453 -109.43202209472656 468.67578125
v -146.5310821533203 -107.87921142578125 469.7726135253906
v -144.7472381591797 -111.01768493652344 469.5394592285156
v -152.0127716064453 -112.90849304199219 470.0958557128906
v -145.3511199951172 -117.67388916015625 469.83038330078125
v -154.6250762939453 -118.56053161621094 472.330810546875
v -157.7595977783203 -133.224853515625 468.2420349121094
v -152.43235778808594 -134.0712127685547 469.0497741699219
v -154.89378356933594 -136.71694946289062 467.5959167480469
v -156.2695770263672 -132.95492553710938 469.75787353515625
v -144.2789764404297 -112.84886169433594 470.2094421386719
v -153.0124969482422 -114.45462036132812 472.60284423828125
v -146.92945861816406 -122.34529113769531 470.6221008300781
v -149.92933654785156 -127.49684143066406 469.9102783203125
v -154.71302795410156 -133.35345458984375 470.2011413574219
v -146.7140350341797 -104.40702819824219 472.4175109863281
v -144.55445861816406 -105.28359985351562 471.48870849609375
v -140.87489318847656 -102.91731262207031 475.63232421875
v -148.50010681152344 -105.55863952636719 476.04364013671875
v -144.06251525878906 -115.96122741699219 476.49346923828125
v -156.04493713378906 -125.4647216796875 471.7733459472656
v -153.15367126464844 -128.87530517578125 472.16259765625
v -154.35328674316406 -126.17085266113281 473.77972412109375
v -151.20240783691406 -128.24588012695312 471.38653564453125
v -142.2953643798828 -100.93280029296875 475.71099853515625
v -142.1718292236328 -102.54438781738281 474.5561218261719
v -141.26246643066406 -108.56620788574219 475.7801818847656
v -149.83079528808594 -108.25704956054688 477.2233581542969
v -142.4660186767578 -112.25408935546875 475.17767333984375
v -147.3512725830078 -122.50390625 473.92962646484375
v -154.13218688964844 -119.60920715332031 475.0523986816406
v -148.8422393798828 -123.52769470214844 475.232177734375
v -144.3738555908203 -100.47320556640625 477.1487121582031
v -146.38560485839844 -102.51583862304688 476.23736572265625
v -140.23875427246094 -104.457763671875 476.4595947265625
v -150.4353485107422 -111.15531921386719 479.60748291015625
v -145.73817443847656 -117.031494140625 479.4407043457031
v -153.29762268066406 -121.75666809082031 476.4033508300781
v -150.71910095214844 -123.36520385742188 476.4590759277344
v -140.03184509277344 -96.15658569335938 478.0492858886719
v -136.67958068847656 -94.42375183105469 479.52642822265625
v -137.07676696777344 -99.07893371582031 479.2593688964844
v -142.15846252441406 -96.73931884765625 478.6855163574219
v -136.47129821777344 -100.12507629394531 480.9898986816406
v -138.71827697753906 -104.33915710449219 479.2305908203125
v -141.9173126220703 -110.90057373046875 479.9172668457031
v -150.05369567871094 -113.64483642578125 480.7010192871094
v -150.38368225097656 -120.29782104492188 478.33782958984375
v -139.05064392089844 -93.26277160644531 480.82965087890625
v -134.5952606201172 -95.63246154785156 481.5357971191406
v -143.96678161621094 -98.38998413085938 480.513427734375
v -143.91966247558594 -98.30628967285156 483.6125183105469
v -147.1064910888672 -103.91641235351562 483.1932067871094
v -138.6282196044922 -104.94631958007812 483.417724609375
v -137.21946716308594 -90.41261291503906 482.58929443359375
v -132.8957061767578 -87.61808776855469 484.4740905761719
v -133.15757751464844 -91.17062377929688 482.8665771484375
v -140.52674865722656 -93.50312805175781 483.4541015625
v -137.43931579589844 -102.89944458007812 482.9212341308594
v -146.9954376220703 -107.65386962890625 484.94415283203125
v -144.5502166748047 -113.40086364746094 481.4388122558594
v -148.48109436035156 -112.65589904785156 482.03741455078125
v -146.82435607910156 -113.91302490234375 481.8963317871094
v -134.85740661621094 -87.61215209960938 485.2588195800781
v -131.39463806152344 -88.015380859375 484.5776062011719
v -134.6528778076172 -98.28526306152344 484.52691650390625
v -130.37791442871094 -90.62081909179688 486.7347717285156
v -145.1644744873047 -101.76029968261719 485.4097595214844
v -140.51121520996094 -107.31884765625 484.84014892578125
v -145.58009338378906 -108.58279418945312 485.6288757324219
v -128.30357360839844 -81.33480834960938 487.0635986328125
v -132.6702423095703 -83.90867614746094 488.37872314453125
v -129.94606018066406 -88.51490783691406 485.83697509765625
v -136.07447814941406 -87.34089660644531 487.74798583984375
v -139.8301544189453 -92.45355224609375 488.8212585449219
v -141.4474639892578 -95.70236206054688 487.748046875
v -136.5402069091797 -100.50433349609375 488.302978515625
v -143.1763153076172 -108.71650695800781 485.42572021484375
v -129.49107360839844 -80.23838806152344 489.2444763183594
v -126.83525085449219 -82.11799621582031 487.0334777832031
v -126.43815612792969 -85.55387878417969 488.18804931640625
v -137.46302795410156 -88.78996276855469 489.3119812011719
v -130.2638702392578 -91.52484130859375 489.9939880371094
v -132.94651794433594 -95.58535766601562 489.67181396484375
v -141.05165100097656 -97.74714660644531 489.8542785644531
v -143.74037170410156 -103.25408935546875 487.3100280761719
v -140.0165252685547 -104.51972961425781 486.9088439941406
v -139.4502716064453 -101.5657958984375 489.400146484375
v -142.22120666503906 -104.51924133300781 487.6627502441406
v -126.61607360839844 -78.06546020507812 489.47100830078125
v -125.16615295410156 -75.27108764648438 490.92755126953125
v -123.83589172363281 -76.532470703125 489.78326416015625
v -124.12458801269531 -79.5728759765625 488.99609375
v -123.94529724121094 -81.18354797363281 489.543212890625
v -123.23094177246094 -82.10281372070312 491.756591796875
v -125.72035217285156 -85.73942565917969 492.9847412109375
v -139.25218200683594 -93.35035705566406 492.0603332519531
v -136.2949676513672 -98.59217834472656 491.65216064453125
v -139.3233184814453 -99.10055541992188 491.32366943359375
v -121.22706604003906 -73.07977294921875 492.2662353515625
v -121.05183410644531 -76.21846008300781 491.4268798828125
v -120.64256286621094 -78.49441528320312 493.2679138183594
v -128.9857940673828 -78.15736389160156 494.3379821777344
v -133.5387420654297 -84.14208984375 493.4897766113281
v -136.8478546142578 -88.68275451660156 493.6144104003906
v -132.3388214111328 -93.05235290527344 493.1418762207031
v -139.15126037597656 -96.38836669921875 492.4362487792969
v -115.64775085449219 -68.04910278320312 493.25732421875
v -113.30116271972656 -62.62465286254883 496.57806396484375
v -111.86607360839844 -63.85635757446289 496.4566345214844
v -118.08088684082031 -66.46066284179688 494.04730224609375
v -119.13233947753906 -69.8638916015625 493.2357177734375
v -121.82627868652344 -70.22865295410156 495.1518859863281
v -116.72187805175781 -73.11338806152344 493.9874267578125
v -118.24418640136719 -72.10018920898438 492.70587158203125
v -124.41633605957031 -73.29978942871094 494.1786804199219
v -117.82115173339844 -75.69439697265625 494.43597412109375
v -126.87895202636719 -75.1807861328125 498.0619201660156
v -135.31724548339844 -87.30073547363281 495.7425537109375
v -127.67494201660156 -86.73573303222656 496.9053955078125
v -136.33985900878906 -90.70890808105469 495.0876770019531
v -134.8395233154297 -92.71200561523438 494.8186950683594
v -117.19740295410156 -64.26611328125 496.1667785644531
v -114.04240417480469 -70.028076171875 495.0975646972656
v -114.92631530761719 -73.14421081542969 497.9087219238281
v -120.57423400878906 -79.0699462890625 496.9422912597656
v -123.45658874511719 -81.80845642089844 498.1053466796875
v -131.37196350097656 -81.31753540039062 496.8082275390625
v -130.94932556152344 -89.01567077636719 497.00921630859375
v -133.78025817871094 -88.63595581054688 497.1960754394531
v -110.47789001464844 -59.84419631958008 496.8511657714844
v -107.95075988769531 -58.07502365112305 498.8127746582031
v -107.01518249511719 -59.28290939331055 498.9678649902344
v -114.23448181152344 -61.54291915893555 498.555908203125
v -112.34141540527344 -59.46391677856445 499.37371826171875
v -111.26457214355469 -65.77653503417969 497.1401672363281
v -120.86058044433594 -67.48243713378906 499.7758483886719
v -111.74284362792969 -68.43513488769531 498.0128173828125
v -123.26960754394531 -70.90142822265625 500.3794250488281
v -128.6659698486328 -79.38877868652344 499.6998291015625
v -125.33058166503906 -82.989990234375 498.9613037109375
v -132.7790985107422 -85.6494140625 498.0512390136719
v -109.35945129394531 -57.22175216674805 499.841796875
v -105.15220642089844 -54.006534576416016 500.9205017089844
v -103.30021667480469 -54.4993782043457 500.5941467285156
v -106.25978088378906 -61.778385162353516 500.805908203125
v -107.30763244628906 -64.17079162597656 501.3431396484375
v -108.96235656738281 -66.95603942871094 501.5188293457031
v -112.17173767089844 -70.20767211914062 500.8380432128906
v -115.19514465332031 -73.11448669433594 501.7343444824219
v -119.93013000488281 -77.44281005859375 501.5435791015625
v -129.6323699951172 -84.15168762207031 499.6556091308594
v -127.63566589355469 -80.89163208007812 501.14801025390625
v -125.18293762207031 -80.73574829101562 501.6040344238281
v -97.04252624511719 -51.09016036987305 503.7471618652344
v -101.41023254394531 -51.166236877441406 503.7027587890625
v -99.23817443847656 -53.17304992675781 502.39727783203125
v -107.53126525878906 -54.545814514160156 502.96649169921875
v -102.30326843261719 -58.62327194213867 502.5669250488281
v -114.21525573730469 -59.92720413208008 504.6158447265625
v -124.66908264160156 -73.97763061523438 503.2725524902344
v -121.63655090332031 -77.55253601074219 503.3334655761719
v -126.00172424316406 -78.25303649902344 502.8547668457031
v -98.41636657714844 -49.759803771972656 504.9820251464844
v -105.08067321777344 -52.40815734863281 506.2005920410156
v -96.81806945800781 -53.97506332397461 504.510498046875
v -103.06901550292969 -61.096126556396484 505.36090087890625
v -114.69157409667969 -60.92715835571289 508.97418212890625
v -104.17240905761719 -62.28425979614258 508.3366394042969
v -108.10517883300781 -65.98863220214844 505.8556213378906
v -111.27641296386719 -69.10914611816406 504.7926940917969
v -119.82374572753906 -67.38490295410156 505.2473449707031
v -116.43971252441406 -72.78668212890625 504.6895446777344
v -122.36659240722656 -75.05940246582031 504.9798278808594
v -92.42585754394531 -49.17778778076172 505.73968505859375
v -94.91111755371094 -47.82365798950195 507.35968017578125
v -92.34596252441406 -51.63161087036133 506.5146789550781
v -97.08973693847656 -56.598941802978516 507.0418701171875
v -117.12275695800781 -64.36428833007812 508.4522705078125
v -112.75636291503906 -68.87950134277344 507.9877014160156
v -121.07341003417969 -71.843017578125 506.0895080566406
v -117.69520568847656 -70.82208251953125 507.19989013671875
v -87.07176208496094 -49.33746337890625 509.2642517089844
v -88.40971374511719 -47.08412551879883 508.3741149902344
v -96.62214660644531 -47.59901428222656 509.85064697265625
v -90.72236633300781 -52.43384552001953 509.39202880859375
v -97.11970520019531 -57.008113861083984 508.5190734863281
v -110.51283264160156 -56.927310943603516 509.34552001953125
v -99.97828674316406 -59.06654739379883 510.5722961425781
v -108.87083435058594 -65.60267639160156 508.993896484375
v -119.04429626464844 -68.56332397460938 507.04803466796875
v -113.60603332519531 -67.07473754882812 510.2011413574219
v -116.78367614746094 -67.62605285644531 509.21417236328125
v -83.45713806152344 -44.07732009887695 511.0941162109375
v -87.12974548339844 -44.2679443359375 511.3416442871094
v -82.43342590332031 -45.754356384277344 510.4508361816406
v -83.26591491699219 -47.254066467285156 510.1856689453125
v -91.45079040527344 -45.15950393676758 511.2184143066406
v -98.36900329589844 -48.30440902709961 512.8064575195312
v -102.98478698730469 -51.03547668457031 511.5301513671875
v -90.53868103027344 -53.36138153076172 512.821533203125
v -106.54304504394531 -54.08030700683594 510.4477233886719
v -96.41459655761719 -56.49130630493164 512.289794921875
v -103.57826232910156 -60.90732192993164 511.0454406738281
v -115.75102233886719 -64.25425720214844 510.37176513671875
v -79.57948303222656 -43.10808563232422 512.0833740234375
v -76.53990173339844 -44.30719757080078 512.3223266601562
v -77.66191101074219 -46.614559173583984 512.5179443359375
v -83.77134704589844 -50.14143753051758 513.4775390625
v -107.21015930175781 -56.36037063598633 513.1314697265625
v -106.69758605957031 -60.287357330322266 513.2476806640625
v -109.02503967285156 -62.684688568115234 512.51416015625
v -103.86601257324219 -58.74724197387695 514.130615234375
v -111.71266174316406 -62.05855178833008 512.5386352539062
v -73.37586975097656 -42.3834228515625 514.4872436523438
v -75.47697448730469 -40.76218032836914 515.6068725585938
v -79.18132019042969 -40.34760665893555 516.3992309570312
v -83.98045349121094 -41.874263763427734 514.6843872070312
v -72.64784240722656 -44.605682373046875 514.7549438476562
v -89.12849426269531 -43.65044021606445 514.3434448242188
v -94.71968078613281 -45.99891662597656 515.2985229492188
v -76.22804260253906 -49.3045768737793 517.7782592773438
v -99.88621520996094 -50.06074523925781 515.5722045898438
v -85.62193298339844 -51.2879753112793 516.4217529296875
v -103.81394958496094 -53.38240051269531 515.6304321289062
v -91.65199279785156 -53.68574142456055 515.771240234375
v -98.41346740722656 -56.79012680053711 514.4329833984375
v -106.53190612792969 -57.90559768676758 514.006103515625
v -72.23551940917969 -47.304298400878906 517.2257690429688
v -81.19575500488281 -50.37108612060547 518.4686279296875
v -87.54420471191406 -51.35759735107422 518.6096801757812
v -96.09925842285156 -54.68717956542969 516.4412231445312
v -104.01991271972656 -55.84232711791992 515.9547729492188
v -101.02705383300781 -56.45798873901367 516.1826782226562
v -70.00685119628906 -42.03501892089844 516.4790649414062
v -69.84934997558594 -39.201026916503906 519.5497436523438
v -67.05741882324219 -40.995548248291016 518.3282470703125
v -72.72944641113281 -38.643070220947266 520.6964721679688
v -80.92912292480469 -40.15193176269531 519.2955932617188
v -87.22947692871094 -42.40140151977539 518.4863891601562
v -66.21046447753906 -42.76568603515625 518.863525390625
v -93.36958312988281 -45.77229309082031 518.3807983398438
v -71.75260925292969 -49.614227294921875 520.6806640625
v -98.90074157714844 -50.844886779785156 517.5831909179688
v -91.12599182128906 -51.7889404296875 519.1409912109375
v -93.58232116699219 -50.972694396972656 519.9253540039062
v -98.69523620605469 -52.831695556640625 517.7318725585938
v -73.74397277832031 -38.95586013793945 522.5997314453125
v -86.18565368652344 -42.40972137451172 521.2428588867188
v -66.72892761230469 -47.861419677734375 521.2450561523438
v -93.38447570800781 -48.6573486328125 520.6893920898438
v -90.22932434082031 -45.3346061706543 521.8320922851562
v -75.17857360839844 -50.437110900878906 523.2470092773438
v -84.61488342285156 -49.62904739379883 521.83837890625
v -62.70855712890625 -37.57515335083008 524.1937255859375
v -65.17457580566406 -39.64350128173828 521.239990234375
v -66.64634704589844 -38.36132049560547 523.4110717773438
v -60.77821350097656 -38.37165451049805 523.6406860351562
v -61.70649719238281 -42.10649490356445 522.6671142578125
v -75.89372253417969 -40.47501754760742 524.9649658203125
v -90.65248107910156 -47.25480651855469 522.557861328125
v -67.46464538574219 -49.58297348022461 522.6400756835938
v -88.64201354980469 -49.22491455078125 522.325927734375
v -63.71168518066406 -37.23433303833008 525.7594604492188
v -56.08326721191406 -41.307952880859375 524.2505493164062
v -82.18730163574219 -42.55533981323242 524.1151733398438
v -60.20814514160156 -43.86842727661133 523.8878784179688
v -63.433624267578125 -46.64120101928711 522.9569091796875
v -85.80192565917969 -45.198177337646484 523.8182373046875
v -86.41142272949219 -47.362159729003906 523.6626586914062
v -62.37025451660156 -49.88484191894531 524.7061767578125
v -80.71067810058594 -48.28962326049805 525.2255859375
v -65.37782287597656 -51.20041275024414 525.877685546875
v -69.22853088378906 -50.47978591918945 525.168212890625
v -77.90727233886719 -49.605445861816406 525.2979736328125
v -57.654937744140625 -37.24983596801758 527.5675659179688
v -52.69667053222656 -40.11268615722656 526.2691650390625
v -52.015289306640625 -39.38184356689453 527.8143310546875
v -67.44755554199219 -38.70107650756836 526.6592407226562
v -53.27153015136719 -42.373390197753906 525.6287841796875
v -81.86604309082031 -45.83576202392578 525.3775634765625
v -80.26274108886719 -43.20227813720703 525.513916015625
v -57.51979064941406 -47.01884078979492 527.5018920898438
v -58.221954345703125 -50.951419830322266 528.0034790039062
v -59.85935974121094 -37.939754486083984 529.7830200195312
v -67.40855407714844 -40.919898986816406 529.1288452148438
v -48.28620910644531 -42.05818176269531 528.5230712890625
v -74.74446105957031 -42.97706604003906 528.2671508789062
v -48.698486328125 -44.64456558227539 528.8336791992188
v -51.7099609375 -46.348289489746094 528.616455078125
v -76.56181335449219 -45.60044479370117 528.4622192382812
v -76.22102355957031 -48.6336784362793 527.9174194335938
v -55.43135070800781 -51.53929138183594 529.4554443359375
v -63.80570983886719 -50.31978988647461 531.139404296875
v -70.27467346191406 -49.76176834106445 528.0945434570312
v -57.38163757324219 -51.714393615722656 529.7349243164062
v -49.76206970214844 -38.98318862915039 530.1559448242188
v -54.568206787109375 -38.595401763916016 530.7191162109375
v -45.77325439453125 -40.14398956298828 530.2801513671875
v -60.30363464355469 -39.20024108886719 531.384521484375
v -43.251129150390625 -45.75920867919922 530.92822265625
v -70.84571838378906 -44.47164535522461 529.8864135742188
v -67.51805114746094 -45.23958969116211 531.7847900390625
v -45.97673034667969 -47.18792724609375 530.369384765625
v -72.16291809082031 -47.85338592529297 529.5807495117188
v -57.45057678222656 -51.39242172241211 531.5656127929688
v -50.577545166015625 -55.153011322021484 530.5706787109375
v -51.99070739746094 -54.79047775268555 531.6307373046875
v -46.012176513671875 -39.01927947998047 533.162841796875
v -42.85762023925781 -41.254966735839844 533.447265625
v -41.81394958496094 -43.36874008178711 532.3822021484375
v -61.06524658203125 -43.35859680175781 533.4813232421875
v -39.707550048828125 -49.37105941772461 532.0072631835938
v -68.49424743652344 -47.18162155151367 531.6185913085938
v -43.72526550292969 -51.50023651123047 530.9639892578125
v -41.695648193359375 -53.57666015625 531.9681396484375
v -41.63896179199219 -56.53721237182617 532.0115966796875
v -47.22352600097656 -55.57820510864258 531.4315185546875
v -53.54925537109375 -39.824649810791016 533.4314575195312
v -54.903839111328125 -42.43470764160156 534.1058349609375
v -51.07670593261719 -48.46739196777344 534.5384521484375
v -46.70283508300781 -41.10108947753906 534.1299438476562
v -40.674774169921875 -48.16207504272461 533.72705078125
v -44.315521240234375 -48.174964904785156 534.8081665039062
v -48.134185791015625 -50.33197784423828 534.8604736328125
v -60.76971435546875 -47.121795654296875 534.3086547851562
v -56.11802673339844 -49.56169509887695 534.208251953125
v -54.39869689941406 -51.398624420166016 533.6033325195312
v -43.50334167480469 -52.58846664428711 533.996337890625
v -47.975494384765625 -53.212303161621094 534.178955078125
vn -0.5617538690567017 0.12674950063228607 -0.8175373077392578
vn 0.5231770873069763 0.3886352777481079 -0.7584513425827026
vn 0.041470352560281754 -0.2786661386489868 -0.9594922661781311
vn 0.967517077922821 -0.1694084256887436 -0.1876472532749176
vn 0.397575318813324 -0.8457553386688232 -0.3558535575866699
vn -0.7200538516044617 -0.43582668900489807 -0.5399792194366455
vn 0.08638652414083481 0.44826367497444153 -0.8897174000740051
vn 0.6637991666793823 0.41421690583229065 -0.6227319836616516
vn 0.05943950265645981 0.2051430344581604 -0.9769254326820374
vn 0.08267024159431458 0.3987939655780792 -0.913306713104248
vn -0.5760406851768494 -0.025333037599921227 -0.8170284628868103
vn 0.40852075815200806 0.25004345178604126 -0.8778320550918579
vn -0.47141456604003906 0.1250167340040207 -0.8730058073997498
vn 0.9109311103820801 0.23841992020606995 -0.3366905152797699
vn -0.8905588984489441 -0.13536062836647034 -0.43426069617271423
vn 0.7178526520729065 0.5117243528366089 -0.47204434871673584
vn 0.9795677661895752 0.19838352501392365 -0.03303011134266853
vn -0.9035374522209167 -0.4196576178073883 -0.0866464376449585
vn -0.21242326498031616 -0.903693437576294 0.37177228927612305
vn -0.011070385575294495 0.7164666652679443 -0.6975334882736206
vn -0.8608245253562927 0.13190318644046783 -0.49151068925857544
vn 0.5674169063568115 0.5956780910491943 -0.5685119032859802
vn 0.8153606653213501 0.3921354413032532 -0.4259304404258728
vn -0.9156823754310608 -0.39640772342681885 0.06623346358537674
vn 0.8408584594726562 -0.37114208936691284 0.3939678370952606
vn 0.37663084268569946 -0.6459856629371643 0.6639666557312012
vn -0.5507573485374451 -0.6797760128974915 0.4843251705169678
vn -0.9364621639251709 0.04495934396982193 -0.3478754758834839
vn -0.9807337522506714 -0.18781377375125885 -0.05373398959636688
vn 0.9686591625213623 0.24733752012252808 -0.022884681820869446
vn 0.9725745916366577 0.03055977262556553 0.23057503998279572
vn -0.21220563352108002 0.5242304801940918 -0.8247128129005432
vn 0.6450402736663818 0.5098181962966919 -0.5692173838615417
vn 0.8023926019668579 0.5015727281570435 -0.32340529561042786
vn -0.08998658508062363 0.5732434391975403 -0.8144288659095764
vn -0.8191404342651367 0.16388976573944092 -0.5496810078620911
vn -0.9811652898788452 -0.17984993755817413 -0.0704895555973053
vn -0.8186752796173096 -0.36672016978263855 0.44191300868988037
vn -0.5243577361106873 -0.6655815839767456 0.5310840010643005
vn 0.8414349555969238 -0.1507934033870697 0.5188916921615601
vn 0.21245118975639343 -0.4675886332988739 0.8580358028411865
vn 0.8826637864112854 0.39390885829925537 -0.256399005651474
vn -0.9698468446731567 -0.1300159990787506 -0.20613811910152435
vn 0.9654338359832764 0.07562782615423203 0.24943536520004272
vn 0.8930178880691528 0.05921844020485878 0.4461078643798828
vn -0.49900051951408386 -0.4688912332057953 0.7287932634353638
vn -0.5010051727294922 0.4555515646934509 -0.7358441948890686
vn 0.9768818616867065 0.17096644639968872 0.12834443151950836
vn 0.6567781567573547 -0.1474345326423645 0.739530622959137
vn -0.8211177587509155 -0.41019192337989807 0.3968730568885803
vn -0.33441105484962463 0.5557628273963928 -0.7611156105995178
vn 0.468158483505249 0.6079810857772827 -0.6412384510040283
vn 0.8928389549255371 0.3802672326564789 -0.24132046103477478
vn -0.892269492149353 0.1385546773672104 -0.4297183156013489
vn -0.9191998243331909 -0.3794252872467041 0.10539540648460388
vn 0.8273108601570129 -0.1767195165157318 0.5332232117652893
vn 0.6596629023551941 -0.38867777585983276 0.6432530879974365
vn -0.22182697057724 -0.35263052582740784 0.9090899229049683
vn -0.10791613161563873 -0.6097002029418945 0.7852514386177063
vn 0.24885645508766174 0.7896043658256531 -0.5608880519866943
vn -0.7650776505470276 0.41000935435295105 -0.49653658270835876
vn 0.981534481048584 0.12219518423080444 0.1471680849790573
vn -0.9798008799552917 -0.07116927206516266 -0.18688280880451202
vn -0.9200255870819092 -0.3670977056026459 0.1370849907398224
vn 0.19665490090847015 -0.5221019387245178 0.8299015164375305
vn -0.5962997078895569 -0.5793132185935974 0.5557184219360352
vn 0.728518545627594 0.6088563203811646 -0.3139343857765198
vn 0.7521403431892395 -0.2308914065361023 0.617231011390686
vn 0.6327122449874878 0.697311282157898 -0.33679690957069397
vn 0.1348179280757904 0.6956940293312073 -0.7055734992027283
vn -0.9853358864784241 -0.03985832631587982 -0.16590516269207
vn 0.919369637966156 0.3889932632446289 -0.05868380516767502
vn 0.8795739412307739 -0.18794728815555573 0.4370647370815277
vn -0.9708335399627686 -0.2386694699525833 0.02278439700603485
vn 0.23618552088737488 -0.581974446773529 0.7781530618667603
vn 0.051349908113479614 -0.5609241724014282 0.8262730836868286
vn -0.499698281288147 -0.616166353225708 0.6088026165962219
vn 0.6745534539222717 -0.38065844774246216 0.6325162649154663
vn -0.8342634439468384 -0.4469718933105469 0.3228321969509125
vn -0.6262499094009399 0.36449921131134033 -0.6891672015190125
vn -0.9743953943252563 -0.012948595918715 -0.22446811199188232
vn 0.9951475858688354 0.09255103021860123 0.0334019660949707
vn -0.942071259021759 -0.31041833758354187 0.12705226242542267
vn -0.46287447214126587 -0.639215350151062 0.6141262650489807
vn 0.030164597555994987 0.45517879724502563 -0.8898890018463135
vn 0.5558205842971802 0.45387306809425354 -0.6964645385742188
vn 0.7907449007034302 0.4664553999900818 -0.3964112401008606
vn 0.9058902263641357 -0.24108827114105225 0.34819450974464417
vn 0.5887424945831299 -0.555542528629303 0.587158203125
vn 0.22017014026641846 -0.621384859085083 0.7519348859786987
vn -0.08313945680856705 0.5010736584663391 -0.8614017963409424
vn 0.8808347582817078 0.28528064489364624 -0.37781640887260437
vn -0.5091097354888916 0.5300694704055786 -0.6781104207038879
vn -0.8812726736068726 0.16441065073013306 -0.4430886507034302
vn 0.5904901027679443 0.47888052463531494 -0.6496113538742065
vn 0.9516745805740356 -0.19769728183746338 0.23501338064670563
vn -0.8917582631111145 -0.37821120023727417 0.2484421730041504
vn -0.7558150291442871 -0.5610930919647217 0.33751773834228516
vn -0.0929092988371849 -0.7691853046417236 0.6322356462478638
vn 0.19241468608379364 0.6361212730407715 -0.7472124099731445
vn 0.5524763464927673 0.49463313817977905 -0.6709009408950806
vn 0.8639754056930542 0.320755273103714 -0.38815268874168396
vn -0.9080429077148438 0.240594744682312 -0.342888206243515
vn -0.9844430685043335 -0.15279752016067505 -0.08674600720405579
vn -0.9974313378334045 -0.0709843710064888 -0.009586759842932224
vn 0.9997141361236572 0.02390379272401333 -0.0005996135878376663
vn 0.22385333478450775 -0.6950228810310364 0.6832517981529236
vn -0.48876309394836426 -0.663007915019989 0.5670372247695923
vn -0.07153484970331192 0.5140659809112549 -0.8547624945640564
vn -0.744304895401001 0.341948002576828 -0.5736564993858337
vn 0.9901039004325867 0.10658201575279236 -0.09129367023706436
vn 0.6201471090316772 -0.5134679079055786 0.5931005477905273
vn -0.9898996949195862 0.06471944600343704 -0.1261347085237503
vn 0.3204387128353119 0.42614519596099854 -0.846001923084259
vn -0.6293016076087952 0.37001854181289673 -0.6834222078323364
vn 0.8056835532188416 0.3197171092033386 -0.49865323305130005
vn 0.9820125699043274 -0.060165006667375565 0.1789737194776535
vn 0.8402202725410461 -0.268939346075058 0.47085195779800415
vn -0.8250893354415894 -0.35880035161972046 0.43645143508911133
vn -0.4351149797439575 -0.6000989675521851 0.6712347865104675
vn -0.19426368176937103 -0.6312203407287598 0.7508811354637146
vn 0.20572039484977722 -0.565971851348877 0.7983452677726746
vn 0.01748334802687168 0.5570247769355774 -0.8303118944168091
vn 0.6273767948150635 0.36177384853363037 -0.6895781755447388
vn -0.9690269231796265 0.14038683474063873 -0.2031710147857666
vn 0.9917374849319458 0.04488976299762726 -0.1201738640666008
vn -0.9315536022186279 -0.2031552642583847 0.3015556335449219
vn 0.27216240763664246 0.4187449812889099 -0.8663603663444519
vn -0.5336667895317078 0.451192170381546 -0.7152799963951111
vn -0.9255384802818298 0.2324322760105133 -0.29892104864120483
vn 0.9218955039978027 -0.15561243891716003 0.3548147976398468
vn -0.9579465985298157 -0.14235077798366547 0.24914789199829102
vn -0.37441694736480713 -0.5058925151824951 0.7771002650260925
vn -0.32714346051216125 0.44196996092796326 -0.8352483510971069
vn 0.23018041253089905 0.41192811727523804 -0.8816644549369812
vn -0.9203668236732483 0.26527494192123413 -0.28732240200042725
vn 0.6635679602622986 0.27127519249916077 -0.6971997022628784
vn 0.8889694809913635 0.14149640500545502 -0.43555954098701477
vn 0.9975625872612 -0.0398988202214241 -0.05724531039595604
vn -0.9983997344970703 0.03303122892975807 0.045901745557785034
vn 0.8058637380599976 -0.2911539077758789 0.5155705809593201
vn -0.7386518120765686 -0.3564037084579468 0.5721625089645386
vn 0.4629973769187927 -0.4311508238315582 0.7744303941726685
vn 0.05685775727033615 -0.49761635065078735 0.8655318021774292
vn 0.0324573777616024 0.450622022151947 -0.8921246528625488
vn -0.6785712242126465 0.4829503297805786 -0.5534439086914062
vn 0.9412522912025452 -0.21136538684368134 0.26337969303131104
vn 0.6259884238243103 0.21104896068572998 -0.7507308721542358
vn 0.9197123050689697 0.028756655752658844 -0.3915383517742157
vn -0.9103059768676758 0.30642983317375183 -0.2782873511314392
vn -0.9628337621688843 0.2334812432527542 -0.13578547537326813
vn 0.9866628050804138 -0.11904031038284302 -0.1110227108001709
vn -0.8716567158699036 -0.21235311031341553 0.4417247176170349
vn -0.6178672909736633 -0.4161734879016876 0.6671128869056702
vn 0.5947504043579102 -0.4685702621936798 0.6532334685325623
vn 0.520622968673706 0.23867912590503693 -0.8197463750839233
vn 0.8204667568206787 0.06374379247426987 -0.5681294798851013
vn -0.3165808618068695 0.43522772192955017 -0.8428246974945068
vn -0.7870700359344482 0.41034653782844543 -0.4605828821659088
vn -0.9792240262031555 0.03104732371866703 0.20039057731628418
vn 0.9364252686500549 -0.2824280261993408 0.20818783342838287
vn 0.03911719471216202 -0.5747221112251282 0.8174132704734802
vn 0.08435559272766113 0.45386093854904175 -0.8870707154273987
vn -0.7406004071235657 0.49263519048690796 -0.4569700360298157
vn 0.9632081389427185 -0.15779566764831543 -0.2175561636686325
vn -0.980479896068573 0.19536073505878448 0.022213038057088852
vn 0.8228620886802673 -0.3610650897026062 0.4387824237346649
vn 0.36544185876846313 -0.5181272625923157 0.7733023166656494
vn -0.7778027057647705 -0.20621994137763977 0.5937139391899109
vn -0.22220516204833984 -0.5296916365623474 0.8185667991638184
vn -0.5651745200157166 0.5174579620361328 -0.6425068974494934
vn 0.6659389138221741 0.13986603915691376 -0.7327775359153748
vn 0.8791581988334656 -0.06596878916025162 -0.471941739320755
vn -0.949368417263031 0.31214237213134766 -0.03559156879782677
vn -0.9606194496154785 0.269314706325531 -0.0684099942445755
vn 0.9178167581558228 -0.3811752498149872 0.11098580807447433
vn -0.6021489500999451 0.5495460629463196 -0.579150915145874
vn 0.29890286922454834 0.4111216068267822 -0.8611830472946167
vn 0.7010841965675354 0.06997336447238922 -0.7096369862556458
vn 0.9530847668647766 -0.28385427594184875 -0.1051487848162651
vn -0.9538083672523499 0.05354069545865059 0.2956061065196991
vn -0.7203546166419983 -0.20069922506809235 0.6639345288276672
vn -0.37402787804603577 -0.4082784950733185 0.8327136039733887
vn 0.6961647272109985 -0.4476943910121918 0.5611811876296997
vn 0.136396124958992 -0.5366893410682678 0.8326829075813293
vn 0.015194127336144447 0.6031519770622253 -0.7974815964698792
vn 0.628551185131073 0.3216136693954468 -0.7081582546234131
vn -0.6275909543037415 0.6207647323608398 -0.4698730707168579
vn 0.8084176182746887 0.04939911887049675 -0.5865328311920166
vn 0.8942447900772095 -0.05161237344145775 -0.4445924758911133
vn -0.9052169322967529 0.40206462144851685 -0.1375730186700821
vn -0.963807225227356 0.12059800326824188 0.23776395618915558
vn 0.5131084322929382 -0.5734468102455139 0.6386537551879883
vn -0.22763006389141083 -0.43823128938674927 0.8695619702339172
vn 0.4953572750091553 0.3324311077594757 -0.8025650978088379
vn -0.8831613063812256 0.4460005462169647 -0.14529190957546234
vn -0.8412868976593018 -0.10866307467222214 0.5295552015304565
vn 0.812900960445404 -0.52161705493927 0.25905168056488037
vn 0.2729312777519226 0.40700024366378784 -0.8716991543769836
vn -0.4653315246105194 0.6279895901679993 -0.6237753629684448
vn 0.9308520555496216 -0.2137375921010971 -0.2963625490665436
vn 0.945037841796875 -0.32018765807151794 -0.06620720028877258
vn -0.9547879099845886 0.2671218514442444 0.13048376142978668
vn -0.9520658850669861 0.1460789442062378 0.268759161233902
vn 0.9219146370887756 -0.355211079120636 0.15459173917770386
vn -0.4112273156642914 -0.43645179271698 0.8002511858940125
vn -0.4819967448711395 0.6134609580039978 -0.6255756616592407
vn 0.17211320996284485 0.4809025228023529 -0.8597149848937988
vn 0.72123122215271 0.11883170157670975 -0.6824254989624023
vn -0.8309430480003357 0.525264322757721 -0.18338797986507416
vn 0.9289901256561279 -0.25840306282043457 -0.2649628520011902
vn -0.9484049081802368 0.2869572639465332 0.1348467767238617
vn -0.8209670186042786 -0.15118783712387085 0.5505955219268799
vn 0.6196178793907166 -0.5205672383308411 0.5874380469322205
vn 0.14073531329631805 -0.673716127872467 0.7254654765129089
vn -0.45219841599464417 -0.3883892297744751 0.8029136657714844
vn 0.8937391042709351 -0.11392998695373535 -0.4338783919811249
vn -0.9145809412002563 0.40184393525123596 0.04542297124862671
vn 0.9081652164459229 -0.41696417331695557 -0.03710594028234482
vn 0.8394467234611511 -0.47796162962913513 0.25861552357673645
vn -0.05531269684433937 -0.5052344799041748 0.8612076640129089
vn -0.4062850773334503 0.7133510112762451 -0.5710191130638123
vn 0.34179025888442993 0.4650166630744934 -0.8166633248329163
vn 0.6677625179290771 0.16795624792575836 -0.725178599357605
vn -0.8450610637664795 0.5259078145027161 -0.09639949351549149
vn 0.8796235918998718 -0.45793166756629944 0.12868914008140564
vn -0.884774386882782 0.010026458650827408 0.46591177582740784
vn 0.15970824658870697 -0.5442754030227661 0.8235639929771423
vn -0.43660905957221985 -0.39387598633766174 0.8088474869728088
vn 0.6253418922424316 -0.5404549837112427 0.5628995299339294
vn 0.1366167813539505 0.5744405388832092 -0.8070650100708008
vn 0.5537313222885132 0.4360620975494385 -0.7093881964683533
vn 0.9163565039634705 -0.2109794318675995 -0.34026244282722473
vn -0.9065273404121399 0.41584014892578125 0.07269943505525589
vn 0.9288936257362366 -0.3421376645565033 -0.14176909625530243
vn 0.8041460514068604 -0.5480927228927612 0.23009461164474487
vn -0.8971965312957764 0.11311504989862442 0.4268997311592102
vn 0.5419766306877136 -0.6353145837783813 0.5501244068145752
vn -0.5097971558570862 0.6817715764045715 -0.5246850252151489
vn -0.7463648319244385 0.6359029412269592 -0.19638493657112122
vn 0.8433684706687927 -0.142911896109581 -0.5179824233055115
vn -0.8951531648635864 0.21420837938785553 0.3909164369106293
vn 0.5562349557876587 -0.5816291570663452 0.5935572385787964
vn -0.6203705072402954 -0.23728741705417633 0.7475528120994568
vn 0.00826946459710598 -0.5622522830963135 0.8269244432449341
vn -0.20090089738368988 0.5920562148094177 -0.7804539203643799
vn 0.34965217113494873 0.3417387306690216 -0.87232905626297
vn 0.7728626728057861 -0.1340819001197815 -0.6202462315559387
vn -0.6079150438308716 0.6645591259002686 -0.43451178073883057
vn 0.8759106993675232 -0.34112128615379333 -0.34119898080825806
vn 0.8931471109390259 -0.3687523901462555 -0.2575071454048157
vn 0.8283036351203918 -0.5346501469612122 0.1675182431936264
vn -0.6961541771888733 -0.04692010581493378 0.716357409954071
vn -0.08982750028371811 -0.47279036045074463 0.8765844702720642
vn -0.3986629247665405 0.7134483456611633 -0.5762459635734558
vn 0.8234514594078064 -0.1951431930065155 -0.5327727794647217
vn -0.7707700133323669 0.614932656288147 -0.16664759814739227
vn -0.8482358455657959 0.5210815668106079 0.09471046179533005
vn -0.8918400406837463 0.3665250241756439 0.2651051878929138
vn 0.8613844513893127 -0.5014850497245789 0.08080565184354782
vn -0.4169463515281677 0.7212532162666321 -0.5531271696090698
vn 0.03291958570480347 0.518446147441864 -0.8544764518737793
vn 0.6415917277336121 0.05262010917067528 -0.7652392983436584
vn -0.7799490094184875 0.6159154176712036 -0.11103050410747528
vn 0.8718657493591309 -0.4864479601383209 -0.056731417775154114
vn -0.696171224117279 -0.0116103021427989 0.7177819609642029
vn 0.5896083116531372 -0.6113846302032471 0.5277982354164124
vn -0.5477816462516785 -0.2343711405992508 0.803122341632843
vn 0.04974929615855217 -0.5551973581314087 0.8302294611930847
vn -0.4623088836669922 0.7155600786209106 -0.5236834287643433
vn 0.41998010873794556 0.12437646836042404 -0.8989700675010681
vn 0.8684497475624084 -0.4814210534095764 -0.11844360828399658
vn 0.8345788717269897 -0.4154738783836365 -0.3617452383041382
vn -0.8269920349121094 0.2875312268733978 0.483125239610672
vn 0.6858311891555786 -0.5878147482872009 0.4290798008441925
vn -0.26378506422042847 -0.3997224271297455 0.8778607249259949
vn -0.16280922293663025 0.5533811450004578 -0.8168613314628601
vn -0.6658821702003479 0.6788146495819092 -0.3095345199108124
vn 0.7127313017845154 -0.22054508328437805 -0.6658633351325989
vn -0.685715913772583 0.6990339159965515 -0.2028433084487915
vn -0.8817106485366821 0.45242008566856384 0.13380023837089539
vn -0.8835139274597168 0.3951299786567688 0.25154629349708557
vn 0.711468517780304 -0.643033504486084 0.28340885043144226
vn 0.2688048481941223 -0.5887448191642761 0.7623145580291748
vn -0.5769182443618774 0.6612119078636169 -0.47954586148262024
vn 0.5041868686676025 0.04745713248848915 -0.8622896075248718
vn 0.7676170468330383 -0.35999712347984314 -0.5302509069442749
vn -0.8042462468147278 0.5941522717475891 0.013079938478767872
vn 0.8137092590332031 -0.5790218114852905 0.05109825357794762
vn 0.7855299711227417 -0.5893847942352295 0.1885957419872284
vn -0.8048812747001648 0.067544125020504 0.5895794034004211
vn -0.6166155934333801 -0.06134868040680885 0.784870445728302
vn 0.5059493780136108 -0.6007273197174072 0.6189846396446228
vn 0.2754683196544647 -0.6759793162345886 0.6834977269172668
vn -0.08671422302722931 -0.43559154868125916 0.8959580063819885
vn -0.1896773874759674 0.5352931618690491 -0.8230939507484436
vn -0.4850158095359802 0.7058620452880859 -0.5162543058395386
vn 0.13701094686985016 0.3912550210952759 -0.9100261926651001
vn 0.48957309126853943 0.12813825905323029 -0.8624957203865051
vn 0.7709233164787292 -0.24474841356277466 -0.588026762008667
vn 0.8238903880119324 -0.5415329933166504 -0.1671725958585739
vn 0.7928919196128845 -0.6093444228172302 -0.0046770921908319
vn -0.8621261119842529 0.2124285250902176 0.46001389622688293
vn 0.42432692646980286 -0.6546777486801147 0.6255747079849243
vn -0.28978824615478516 -0.4067208766937256 0.8663723468780518
vn -0.12522050738334656 0.5303889513015747 -0.8384554386138916
vn 0.5687549710273743 -0.08567352592945099 -0.81803297996521
vn 0.7969534397125244 -0.4277999997138977 -0.42644158005714417
vn -0.7675299644470215 0.6391777992248535 -0.048471517860889435
vn -0.7852815985679626 0.6187512874603271 0.021901192143559456
vn -0.8558571934700012 0.4214039742946625 0.29987868666648865
vn 0.6105428338050842 -0.6437653303146362 0.46130645275115967
vn -0.5823837518692017 -0.16828574240207672 0.7953044176101685
vn 0.3049953281879425 0.1301041841506958 -0.9434250593185425
vn -0.12953437864780426 0.5643048882484436 -0.8153409361839294
vn 0.4764467477798462 0.022656450048089027 -0.8789113759994507
vn -0.34945961833000183 0.5351051092147827 -0.7691166996955872
vn -0.26884767413139343 0.3392409384250641 -0.9014635682106018
vn -0.6848364472389221 0.5876261591911316 -0.4309230446815491
vn 0.6816726922988892 -0.3378608524799347 -0.648978054523468
vn 0.24221393465995789 0.07087159156799316 -0.9676309823989868
vn -0.6272733211517334 0.7078444361686707 -0.3247838020324707
vn 0.7486286759376526 -0.533606767654419 -0.3934703767299652
vn -0.8068553805351257 0.5903814435005188 0.02083842270076275
vn -0.8097957372665405 0.3094036281108856 0.49849802255630493
vn 0.6405035853385925 -0.671660304069519 0.3723272383213043
vn -0.652127206325531 -0.038171760737895966 0.7571479678153992
vn -0.013298239558935165 -0.48984628915786743 0.8717073798179626
vn -0.5680878758430481 0.7392688393592834 -0.3616045117378235
vn 0.7480283975601196 -0.3045543432235718 -0.589661180973053
vn 0.7784909009933472 -0.5988953709602356 -0.1878196746110916
vn 0.7311214804649353 -0.6821210384368896 0.01312946155667305
vn 0.6612064838409424 -0.6899864673614502 0.29449042677879333
vn -0.7978624105453491 0.5393004417419434 0.2693895995616913
vn 0.26384642720222473 -0.6070989370346069 0.7495438456535339
vn -0.3811380863189697 -0.25448909401893616 0.8888020515441895
vn -0.0992715060710907 0.5255448222160339 -0.8449543118476868
vn 0.10255172103643417 0.46169835329055786 -0.8810889720916748
vn 0.5407145023345947 -0.13734249770641327 -0.829918622970581
vn -0.5343400239944458 0.7342879176139832 -0.4186907410621643
vn -0.5821968913078308 0.744127094745636 -0.3275998532772064
vn 0.7140015959739685 -0.2599634528160095 -0.6500928401947021
vn -0.7873135805130005 0.6161903738975525 -0.021138006821274757
vn 0.7865792512893677 -0.47749510407447815 -0.39152464270591736
vn -0.7947611212730408 0.6065164804458618 0.022193357348442078
vn -0.7959355711936951 0.3270852863788605 0.5094132423400879
vn 0.46070370078086853 -0.6410012245178223 0.6138970851898193
vn -0.6521464586257935 0.16228897869586945 0.74051833152771
vn -0.43311506509780884 0.7692723274230957 -0.46971407532691956
vn -0.28530630469322205 0.754786491394043 -0.5906756520271301
vn 0.1820618063211441 0.3831402361392975 -0.9055700898170471
vn 0.7061524391174316 -0.4344763457775116 -0.5590877532958984
vn 0.7734395861625671 -0.5392801761627197 -0.33311885595321655
vn 0.7664905786514282 -0.6261111497879028 -0.1430983692407608
vn 0.7360362410545349 -0.6725279092788696 -0.07718168199062347
vn 0.6497238874435425 -0.7372065782546997 0.18543295562267303
vn 0.6141645312309265 -0.7243412137031555 0.3132598400115967
vn -0.19771647453308105 -0.31874823570251465 0.9269885420799255
vn -0.49367302656173706 -0.16486726701259613 0.8538768887519836
vn 0.16289010643959045 -0.6042938232421875 0.7799332737922668
vn 0.24407267570495605 0.3843148648738861 -0.8903542160987854
vn -0.1731547713279724 0.8157181739807129 -0.5519251823425293
vn 0.4852355420589447 -0.08409121632575989 -0.8703305125236511
vn -0.5561937689781189 0.7983497381210327 -0.23083825409412384
vn 0.638990581035614 -0.5323835611343384 -0.5552107095718384
vn -0.6643894910812378 0.7425649166107178 -0.08475910127162933
vn -0.7799128293991089 0.32545414566993713 0.5346172451972961
vn 0.3530447781085968 -0.6774790287017822 0.6452763676643372
vn -0.5224566459655762 -0.13303661346435547 0.8422234058380127
vn -0.18690358102321625 0.8555422425270081 -0.4828193783760071
vn -0.523846447467804 0.8478585481643677 -0.08198083192110062
vn 0.5937615633010864 -0.4874931573867798 -0.6401543617248535
vn 0.6611464023590088 -0.7111713290214539 -0.23899957537651062
vn -0.738275408744812 0.5738648772239685 0.3544412851333618
vn 0.6160592436790466 -0.782538652420044 0.09002437442541122
vn 0.7146287560462952 -0.6966952085494995 0.062623031437397
vn 0.6494241952896118 -0.7426683306694031 0.16337715089321136
vn -0.8197580575942993 0.4576873183250427 0.3442659378051758
vn 0.4209175407886505 -0.7318735718727112 0.5359006524085999
vn -0.24326404929161072 -0.3064863383769989 0.9202655553817749
vn 0.31339263916015625 0.344253271818161 -0.8850281834602356
vn -0.12954574823379517 0.8561598658561707 -0.5002082586288452
vn 0.5504100322723389 -0.3777739107608795 -0.7445372343063354
vn 0.6243844628334045 -0.6814030408859253 -0.3818822205066681
vn -0.8132418394088745 0.28129467368125916 0.5094223022460938
vn 0.4536721110343933 -0.7589128017425537 0.4671541154384613
vn -0.5548897385597229 0.058258119970560074 0.8298816084861755
vn -0.0990007147192955 -0.46484804153442383 0.8798381686210632
vn 0.49666959047317505 -0.438098669052124 -0.7492588758468628
vn 0.16866664588451385 0.4746027886867523 -0.8638887405395508
vn -0.40186113119125366 0.8958648443222046 -0.18956248462200165
vn 0.5587887763977051 -0.723453164100647 -0.4054267108440399
vn 0.575490415096283 -0.8109577894210815 -0.10563245415687561
vn -0.6461310982704163 0.7301343083381653 0.22230297327041626
vn 0.5387307405471802 -0.8304957151412964 0.14158403873443604
vn 0.5112977623939514 -0.7449487447738647 0.4285160303115845
vn -0.6785805225372314 0.04632311686873436 0.7330639362335205
vn 0.09240488708019257 -0.6044052243232727 0.7912999987602234
vn -0.5133095979690552 -0.20971427857875824 0.8321858644485474
vn 0.0012504499172791839 0.7176741361618042 -0.6963779926300049
vn -0.15507997572422028 0.8434634804725647 -0.5143147110939026
vn 0.27810776233673096 0.15672294795513153 -0.9476782083511353
vn 0.3624359965324402 -0.1487683802843094 -0.9200587868690491
vn -0.2515270709991455 0.8971975445747375 -0.3630024492740631
vn -0.5273516178131104 0.8486185669898987 0.04179587587714195
vn -0.6054171919822693 0.7785468697547913 0.16533270478248596
vn 0.46451616287231445 -0.8826347589492798 -0.07197701930999756
vn -0.6644423007965088 0.7086093425750732 0.23746418952941895
vn 0.45697084069252014 -0.8692850470542908 0.18847057223320007
vn 0.3862510919570923 -0.7771626114845276 0.4968183636665344
vn -0.6783019304275513 0.20545262098312378 0.7054755687713623
vn 0.11804568022489548 0.6350702047348022 -0.76338130235672
vn 0.3909938931465149 0.0770552009344101 -0.9171621203422546
vn 0.4273492097854614 -0.5119910836219788 -0.7451428174972534
vn 0.386563777923584 -0.8659079670906067 -0.31744584441185
vn -0.6575298309326172 0.4265836775302887 0.621032178401947
vn 0.08853831142187119 -0.4691043496131897 0.8786934614181519
vn 0.21437609195709229 -0.5580941438674927 0.801607072353363
vn -0.009345591999590397 -0.6151696443557739 0.788339376449585
vn -0.3385613262653351 -0.043476104736328125 0.9399394392967224
vn 0.3736242651939392 0.4481770992279053 -0.8121220469474792
vn 0.12579038739204407 0.8233736753463745 -0.5533828735351562
vn -0.11123774945735931 0.9340149760246277 -0.3394734263420105
vn -0.22148315608501434 0.9193283915519714 -0.32523930072784424
vn 0.533453643321991 -0.24504564702510834 -0.8095553517341614
vn -0.3449661433696747 0.9258996844291687 -0.1539747267961502
vn -0.4851915240287781 0.8741944432258606 0.01931961067020893
vn 0.24706661701202393 -0.896946370601654 -0.36666780710220337
vn -0.5950904488563538 0.7340270280838013 0.32721808552742004
vn 0.3192732632160187 -0.947245717048645 0.028111327439546585
vn -0.6294214129447937 0.4699562191963196 0.6188455820083618
vn 0.31438779830932617 -0.9069807529449463 0.2802610695362091
vn 0.3878284990787506 -0.8258602619171143 0.40932127833366394
vn -0.32498422265052795 -0.15707392990589142 0.9325840473175049
vn 0.3910289406776428 -0.6954939365386963 -0.6028139591217041
vn 0.14574532210826874 -0.9893195629119873 0.0022646572906523943
vn 0.19682122766971588 -0.930191695690155 0.309846431016922
vn 0.19118864834308624 -0.7729563117027283 0.6049672961235046
vn -0.40537479519844055 -0.17126254737377167 0.897964596748352
vn 0.0978630781173706 -0.6452208161354065 0.7577024102210999
vn 0.4133358299732208 0.40987223386764526 -0.8131164312362671
vn 0.17520050704479218 0.8494247794151306 -0.49777752161026
vn 0.4850614070892334 0.4721224904060364 -0.7360813617706299
vn -0.0583745613694191 0.9874253273010254 -0.1469140201807022
vn -0.2695220708847046 0.9618450999259949 0.04703057184815407
vn -0.3921477794647217 0.919901430606842 -0.0012277092318981886
vn 0.6035130620002747 -0.0012652300065383315 -0.797352135181427
vn -0.5415903925895691 0.7964197397232056 0.2690642774105072
vn 0.20813977718353271 -0.8802197575569153 -0.4264868497848511
vn -0.5447874665260315 0.29306381940841675 0.785697340965271
vn 0.093842513859272 -0.8279816508293152 0.5528472065925598
vn -0.25322431325912476 -0.44879475235939026 0.857006847858429
vn -0.22854872047901154 -0.21507279574871063 0.9494784474372864
vn -0.21045775711536407 0.9685718417167664 0.13257524371147156
vn -0.4006035029888153 0.8444998264312744 0.3554389774799347
vn 0.4595492482185364 -0.5106459856033325 -0.7266741394996643
vn -0.5401403307914734 0.03556470200419426 0.8408231735229492
vn -0.519024670124054 0.5229724049568176 0.676101565361023
vn -0.013697871938347816 -0.9997096061706543 0.01982811838388443
vn -0.06536161154508591 -0.8675124645233154 0.49310240149497986
vn 0.04664457589387894 0.9030031561851501 -0.42709439992904663
vn 0.2937357425689697 0.7193573117256165 -0.6294795274734497
vn -0.05911269411444664 0.9685624837875366 -0.24164536595344543
vn 0.3437640368938446 0.5511098504066467 -0.7603316307067871
vn 0.4801516830921173 -0.1704283356666565 -0.8604699969291687
vn -0.29572373628616333 0.8192712664604187 0.49126583337783813
vn -0.40805864334106445 -0.036061666905879974 0.9122432470321655
vn 0.15315386652946472 -0.8376457095146179 -0.5243029594421387
vn -0.11198125034570694 -0.5981559157371521 0.7935172915458679
vn -0.15878035128116608 0.9866775870323181 0.035441379994153976
vn 0.353365421295166 0.00031376464175991714 -0.9354853630065918
vn -0.391318142414093 0.5396180748939514 0.7454410791397095
vn 0.38590025901794434 -0.3878772258758545 -0.8370378017425537
vn 0.5242666006088257 -0.2720947563648224 -0.8069133162498474
vn -0.344012588262558 0.24088959395885468 0.9075393080711365
vn -0.24811461567878723 -0.32754871249198914 0.9116747975349426
vn 0.4048214554786682 -0.5463734269142151 -0.7332091331481934
vn -0.3977523446083069 -0.4981820285320282 0.7704594731330872
vn -0.0228363536298275 -0.9797248840332031 -0.19904208183288574
vn -0.04063776880502701 -0.9937987923622131 -0.10350160300731659
vn -0.22894008457660675 -0.8727467656135559 0.43116071820259094
vn 0.19776618480682373 0.9683582186698914 -0.1522202044725418
vn 0.4506770372390747 0.5095982551574707 -0.7329391837120056
vn 0.35076287388801575 0.8188133835792542 -0.4544338583946228
vn -0.24952998757362366 0.910440981388092 0.3298969268798828
vn 0.3939582109451294 -0.28314685821533203 -0.8744283318519592
vn -0.41899001598358154 0.06998874992132187 0.9052894711494446
vn -0.46178892254829407 0.3402593433856964 0.8191304206848145
vn 0.4211273789405823 -0.35572633147239685 -0.8343323469161987
vn 0.3032102584838867 -0.670279860496521 -0.6773392558097839
vn -0.16453130543231964 0.867026686668396 0.4703128933906555
vn -0.3148021399974823 0.6254906058311462 0.7139055132865906
vn 0.4845263361930847 0.1459367871284485 -0.8625177145004272
vn -0.3294313848018646 0.49685242772102356 0.8028777241706848
vn 0.3448280692100525 -0.27443158626556396 -0.8976530432701111
vn 0.24868543446063995 -0.3894248306751251 -0.8868505954742432
vn -0.41159769892692566 0.029967185109853745 0.9108728766441345
vn -0.3346676230430603 -0.5910020470619202 0.7339715957641602
vn 0.16871465742588043 -0.39943718910217285 -0.9011023044586182
vn -0.24742542207241058 -0.8019487261772156 0.5437452793121338
vn -0.18224917352199554 -0.9100350737571716 0.37231892347335815
vn -0.1915597766637802 -0.9492944478988647 -0.24928894639015198
vn 0.16860376298427582 0.9504478573799133 -0.2611928880214691
vn 0.05921216681599617 0.9691444635391235 0.2392759472131729
vn 0.513643741607666 0.5850733518600464 -0.6275820732116699
vn -0.23363277316093445 0.6784664988517761 0.696490466594696
vn 0.3881455957889557 0.009453189559280872 -0.9215496182441711
vn -0.3182927072048187 0.2608981132507324 0.911384642124176
vn -0.38836708664894104 0.2940899431705475 0.8733167052268982
vn 0.20859873294830322 -0.17876023054122925 -0.961525559425354
vn -0.36757174134254456 -0.30459776520729065 0.8786985874176025
vn -0.36232373118400574 -0.8111853003501892 0.45902058482170105
vn -0.09148381650447845 -0.6878783106803894 -0.7200376391410828
vn -0.32414063811302185 -0.8912975788116455 0.31705132126808167
vn 0.21093973517417908 0.918231725692749 0.3351939618587494
vn 0.6441586017608643 0.523963987827301 0.5572445392608643
vn 0.8548619151115417 0.3716001510620117 -0.3621111810207367
vn -0.2304491102695465 0.3334503769874573 0.9141685366630554
vn 0.9439234733581543 -0.09738638997077942 -0.3154749572277069
vn -0.38042792677879333 -0.22768960893154144 0.8963437676429749
vn 0.2475268542766571 -0.0722396969795227 -0.9661841988563538
vn 0.9591627717018127 -0.19162943959236145 -0.2080504298210144
vn 0.27270686626434326 -0.9456080794334412 0.17735958099365234
vn -0.1721191704273224 -0.9776290655136108 0.1208987757563591
vn -0.09696583449840546 0.584856390953064 0.8053202629089355
vn -0.06987456232309341 0.18486398458480835 0.9802769422531128
vn -0.03871479257941246 0.04062650352716446 0.9984241127967834
vn 0.04041256383061409 0.230316162109375 0.9722763895988464
vn 0.6947513222694397 0.04989304021000862 0.7175175547599792
vn 0.12901169061660767 0.030507978051900864 0.9911737442016602
vn -0.03579147905111313 -0.14866183698177338 0.9882401823997498
vn -0.20446743071079254 -0.09930165112018585 0.9738235473632812
vn -0.19597581028938293 -0.42674025893211365 0.882885217666626
vn -0.2807181477546692 -0.5228434205055237 0.8048800826072693
vn 0.3955432176589966 -0.24144378304481506 0.8861435651779175
vn -0.07746002823114395 -0.45706936717033386 0.8860516548156738
f 1//1 2//2 3//3
f 3//3 2//2 4//4
f 4//4 5//5 3//3
f 6//6 3//3 5//5
f 1//1 3//3 6//6
f 1//1 7//7 2//2
f 8//8 9//9 10//10
f 11//11 10//10 9//9
f 12//12 9//9 8//8
f 11//11 9//9 13//13
f 14//14 7//7 12//12
f 9//9 12//12 13//13
f 13//13 12//12 7//7
f 15//15 11//11 13//13
f 14//14 16//16 7//7
f 7//7 16//16 2//2
f 17//17 2//2 16//16
f 4//4 2//2 17//17
f 7//7 1//1 13//13
f 1//1 15//15 13//13
f 15//15 6//6 18//18
f 1//1 6//6 15//15
f 18//18 6//6 19//19
f 5//5 19//19 6//6
f 20//20 10//10 21//21
f 10//10 20//20 22//22
f 10//10 22//22 23//23
f 8//8 10//10 23//23
f 10//10 11//11 21//21
f 12//12 8//8 14//14
f 8//8 23//23 14//14
f 21//21 11//11 15//15
f 16//16 14//14 17//17
f 15//15 18//18 24//24
f 25//25 19//19 5//5
f 4//4 25//25 5//5
f 19//19 25//25 26//26
f 18//18 19//19 27//27
f 28//28 21//21 29//29
f 23//23 30//30 14//14
f 30//30 17//17 14//14
f 21//21 15//15 29//29
f 15//15 24//24 29//29
f 17//17 31//31 4//4
f 31//31 25//25 4//4
f 24//24 18//18 27//27
f 26//26 27//27 19//19
f 32//32 33//33 34//34
f 33//33 32//32 35//35
f 36//36 35//35 32//32
f 32//32 34//34 20//20
f 20//20 34//34 22//22
f 28//28 36//36 32//32
f 28//28 32//32 21//21
f 20//20 21//21 32//32
f 34//34 30//30 23//23
f 34//34 23//23 22//22
f 28//28 29//29 37//37
f 30//30 31//31 17//17
f 29//29 24//24 38//38
f 38//38 24//24 39//39
f 31//31 40//40 25//25
f 40//40 26//26 25//25
f 26//26 41//41 39//39
f 27//27 26//26 39//39
f 39//39 24//24 27//27
f 33//33 42//42 34//34
f 28//28 37//37 36//36
f 36//36 37//37 43//43
f 30//30 34//34 44//44
f 45//45 40//40 31//31
f 40//40 41//41 26//26
f 41//41 46//46 39//39
f 39//39 46//46 38//38
f 35//35 36//36 47//47
f 34//34 48//48 44//44
f 44//44 45//45 31//31
f 30//30 44//44 31//31
f 45//45 44//44 49//49
f 37//37 29//29 50//50
f 50//50 29//29 38//38
f 51//51 52//52 47//47
f 52//52 53//53 33//33
f 52//52 33//33 35//35
f 47//47 52//52 35//35
f 54//54 51//51 47//47
f 53//53 42//42 33//33
f 36//36 54//54 47//47
f 43//43 54//54 36//36
f 42//42 48//48 34//34
f 43//43 37//37 55//55
f 48//48 56//56 44//44
f 56//56 57//57 44//44
f 37//37 50//50 55//55
f 44//44 57//57 49//49
f 50//50 58//58 59//59
f 49//49 59//59 58//58
f 50//50 38//38 58//58
f 45//45 49//49 40//40
f 58//58 41//41 49//49
f 49//49 41//41 40//40
f 38//38 46//46 58//58
f 58//58 46//46 41//41
f 51//51 60//60 52//52
f 61//61 51//51 54//54
f 53//53 62//62 42//42
f 48//48 42//42 62//62
f 54//54 43//43 63//63
f 63//63 43//43 64//64
f 64//64 43//43 55//55
f 56//56 65//65 57//57
f 59//59 57//57 65//65
f 66//66 59//59 65//65
f 66//66 50//50 59//59
f 66//66 55//55 50//50
f 59//59 49//49 57//57
f 60//60 51//51 61//61
f 67//67 52//52 60//60
f 52//52 67//67 53//53
f 63//63 61//61 54//54
f 68//68 48//48 62//62
f 56//56 48//48 68//68
f 55//55 66//66 64//64
f 60//60 69//69 67//67
f 70//70 69//69 60//60
f 61//61 63//63 71//71
f 53//53 72//72 62//62
f 73//73 68//68 62//62
f 63//63 64//64 74//74
f 75//75 76//76 68//68
f 76//76 77//77 66//66
f 68//68 65//65 56//56
f 76//76 65//65 68//68
f 64//64 66//66 77//77
f 66//66 65//65 76//76
f 60//60 61//61 70//70
f 67//67 69//69 72//72
f 67//67 72//72 53//53
f 71//71 63//63 74//74
f 73//73 78//78 68//68
f 78//78 75//75 68//68
f 77//77 79//79 64//64
f 64//64 79//79 74//74
f 77//77 76//76 75//75
f 61//61 80//80 70//70
f 80//80 61//61 81//81
f 81//81 61//61 71//71
f 82//82 62//62 72//72
f 83//83 74//74 79//79
f 84//84 77//77 75//75
f 79//79 77//77 84//84
f 70//70 85//85 86//86
f 80//80 85//85 70//70
f 86//86 87//87 70//70
f 70//70 87//87 69//69
f 69//69 87//87 72//72
f 72//72 87//87 82//82
f 81//81 71//71 83//83
f 62//62 82//82 88//88
f 73//73 62//62 88//88
f 71//71 74//74 83//83
f 78//78 73//73 89//89
f 90//90 78//78 89//89
f 79//79 84//84 83//83
f 90//90 75//75 78//78
f 84//84 75//75 90//90
f 91//91 86//86 85//85
f 91//91 85//85 80//80
f 87//87 86//86 92//92
f 92//92 82//82 87//87
f 88//88 89//89 73//73
f 93//93 91//91 94//94
f 95//95 86//86 91//91
f 94//94 91//91 80//80
f 86//86 95//95 92//92
f 94//94 80//80 81//81
f 96//96 88//88 82//82
f 81//81 83//83 97//97
f 97//97 83//83 98//98
f 90//90 99//99 84//84
f 84//84 99//99 98//98
f 84//84 98//98 83//83
f 95//95 100//100 101//101
f 102//102 95//95 101//101
f 91//91 100//100 95//95
f 93//93 100//100 91//91
f 94//94 103//103 93//93
f 95//95 102//102 92//92
f 94//94 104//104 105//105
f 92//92 102//102 106//106
f 94//94 81//81 104//104
f 92//92 106//106 82//82
f 106//106 96//96 82//82
f 104//104 81//81 97//97
f 107//107 99//99 89//89
f 107//107 108//108 99//99
f 99//99 108//108 98//98
f 89//89 99//99 90//90
f 101//101 100//100 109//109
f 100//100 93//93 109//109
f 103//103 110//110 93//93
f 102//102 111//111 106//106
f 103//103 94//94 105//105
f 112//112 89//89 88//88
f 112//112 88//88 96//96
f 110//110 109//109 93//93
f 110//110 103//103 113//113
f 105//105 104//104 97//97
f 97//97 98//98 108//108
f 112//112 107//107 89//89
f 114//114 109//109 115//115
f 115//115 109//109 110//110
f 101//101 114//114 116//116
f 109//109 114//114 101//101
f 101//101 116//116 102//102
f 116//116 111//111 102//102
f 103//103 105//105 113//113
f 111//111 117//117 106//106
f 117//117 118//118 106//106
f 118//118 96//96 106//106
f 97//97 119//119 105//105
f 118//118 112//112 96//96
f 97//97 120//120 119//119
f 97//97 121//121 120//120
f 121//121 112//112 122//122
f 97//97 108//108 121//121
f 107//107 112//112 121//121
f 108//108 107//107 121//121
f 115//115 123//123 114//114
f 123//123 124//124 114//114
f 114//114 124//124 116//116
f 125//125 115//115 113//113
f 115//115 110//110 113//113
f 111//111 116//116 126//126
f 113//113 105//105 127//127
f 127//127 105//105 119//119
f 118//118 122//122 112//112
f 120//120 121//121 122//122
f 123//123 128//128 124//124
f 123//123 115//115 129//129
f 130//130 115//115 125//125
f 126//126 131//131 111//111
f 132//132 113//113 127//127
f 111//111 131//131 117//117
f 118//118 117//117 131//131
f 119//119 133//133 127//127
f 119//119 120//120 133//133
f 120//120 122//122 133//133
f 134//134 135//135 128//128
f 129//129 134//134 128//128
f 129//129 136//136 134//134
f 135//135 137//137 128//128
f 128//128 137//137 138//138
f 129//129 128//128 123//123
f 130//130 136//136 129//129
f 128//128 138//138 124//124
f 129//129 115//115 130//130
f 126//126 138//138 139//139
f 124//124 126//126 116//116
f 138//138 126//126 124//124
f 130//130 125//125 140//140
f 125//125 113//113 140//140
f 140//140 113//113 132//132
f 141//141 131//131 126//126
f 132//132 127//127 142//142
f 143//143 131//131 141//141
f 143//143 118//118 131//131
f 142//142 127//127 133//133
f 143//143 144//144 133//133
f 122//122 118//118 143//143
f 143//143 133//133 122//122
f 137//137 135//135 145//145
f 146//146 145//145 134//134
f 134//134 145//145 135//135
f 146//146 134//134 136//136
f 139//139 147//147 126//126
f 141//141 126//126 147//147
f 142//142 133//133 144//144
f 137//137 148//148 149//149
f 148//148 137//137 145//145
f 137//137 149//149 138//138
f 150//150 146//146 151//151
f 136//136 151//151 146//146
f 149//149 152//152 138//138
f 138//138 152//152 139//139
f 136//136 130//130 140//140
f 140//140 132//132 153//153
f 153//153 132//132 154//154
f 155//155 141//141 147//147
f 154//154 132//132 142//142
f 142//142 144//144 154//154
f 141//141 144//144 143//143
f 141//141 155//155 144//144
f 148//148 156//156 157//157
f 158//158 156//156 145//145
f 145//145 156//156 148//148
f 145//145 159//159 158//158
f 145//145 146//146 159//159
f 149//149 148//148 157//157
f 146//146 150//150 159//159
f 151//151 136//136 160//160
f 152//152 161//161 139//139
f 136//136 140//140 160//160
f 161//161 147//147 139//139
f 160//160 140//140 153//153
f 144//144 155//155 162//162
f 154//154 144//144 162//162
f 163//163 158//158 164//164
f 158//158 163//163 156//156
f 158//158 159//159 164//164
f 157//157 165//165 149//149
f 150//150 151//151 166//166
f 152//152 149//149 165//165
f 166//166 151//151 160//160
f 161//161 167//167 147//147
f 167//167 155//155 147//147
f 167//167 168//168 155//155
f 160//160 153//153 169//169
f 170//170 169//169 153//153
f 170//170 162//162 155//155
f 170//170 155//155 168//168
f 153//153 154//154 170//170
f 154//154 162//162 170//170
f 163//163 164//164 171//171
f 156//156 163//163 172//172
f 156//156 173//173 157//157
f 172//172 173//173 156//156
f 164//164 159//159 174//174
f 165//165 157//157 173//173
f 175//175 159//159 150//150
f 175//175 150//150 166//166
f 165//165 176//176 152//152
f 176//176 161//161 152//152
f 177//177 178//178 171//171
f 163//163 178//178 179//179
f 171//171 178//178 163//163
f 163//163 179//179 172//172
f 172//172 179//179 173//173
f 159//159 175//175 174//174
f 173//173 180//180 165//165
f 166//166 181//181 175//175
f 166//166 160//160 181//181
f 169//169 182//182 181//181
f 183//183 182//182 169//169
f 181//181 160//160 169//169
f 161//161 184//184 167//167
f 167//167 184//184 168//168
f 168//168 185//185 183//183
f 169//169 170//170 183//183
f 183//183 170//170 168//168
f 186//186 187//187 178//178
f 177//177 186//186 178//178
f 177//177 188//188 186//186
f 187//187 189//189 190//190
f 178//178 187//187 190//190
f 178//178 190//190 179//179
f 177//177 171//171 191//191
f 171//171 164//164 191//191
f 191//191 164//164 174//174
f 179//179 190//190 173//173
f 190//190 180//180 173//173
f 174//174 175//175 192//192
f 165//165 180//180 176//176
f 193//193 161//161 176//176
f 193//193 184//184 161//161
f 183//183 185//185 194//194
f 168//168 184//184 185//185
f 186//186 195//195 187//187
f 177//177 196//196 188//188
f 177//177 191//191 196//196
f 181//181 192//192 175//175
f 181//181 197//197 192//192
f 180//180 198//198 176//176
f 184//184 193//193 185//185
f 193//193 194//194 185//185
f 182//182 183//183 194//194
f 195//195 199//199 189//189
f 199//199 195//195 186//186
f 186//186 188//188 200//200
f 187//187 195//195 189//189
f 189//189 201//201 190//190
f 201//201 202//202 190//190
f 190//190 202//202 180//180
f 191//191 174//174 203//203
f 203//203 174//174 204//204
f 202//202 205//205 180//180
f 180//180 205//205 198//198
f 198//198 193//193 176//176
f 181//181 182//182 197//197
f 182//182 206//206 197//197
f 206//206 194//194 193//193
f 206//206 182//182 194//194
f 199//199 207//207 208//208
f 209//209 199//199 208//208
f 200//200 207//207 199//199
f 186//186 200//200 199//199
f 199//199 209//209 189//189
f 188//188 210//210 200//200
f 210//210 188//188 196//196
f 211//211 201//201 189//189
f 196//196 191//191 212//212
f 212//212 191//191 203//203
f 174//174 192//192 204//204
f 204//204 192//192 213//213
f 205//205 214//214 198//198
f 197//197 213//213 192//192
f 198//198 214//214 215//215
f 216//216 206//206 215//215
f 213//213 206//206 216//216
f 213//213 197//197 206//206
f 198//198 215//215 193//193
f 206//206 193//193 215//215
f 189//189 209//209 217//217
f 217//217 211//211 189//189
f 210//210 196//196 218//218
f 218//218 196//196 212//212
f 211//211 219//219 201//201
f 219//219 202//202 201//201
f 219//219 220//220 202//202
f 220//220 205//205 202//202
f 220//220 214//214 205//205
f 214//214 221//221 215//215
f 221//221 216//216 215//215
f 222//222 223//223 208//208
f 209//209 223//223 224//224
f 208//208 207//207 222//222
f 208//208 223//223 209//209
f 225//225 207//207 210//210
f 200//200 210//210 207//207
f 219//219 211//211 226//226
f 212//212 203//203 227//227
f 204//204 227//227 203//203
f 228//228 229//229 216//216
f 229//229 227//227 216//216
f 227//227 213//213 216//216
f 227//227 204//204 213//213
f 214//214 220//220 230//230
f 214//214 230//230 228//228
f 221//221 214//214 228//228
f 216//216 221//221 228//228
f 231//231 232//232 223//223
f 222//222 231//231 223//223
f 224//224 223//223 232//232
f 207//207 225//225 222//222
f 209//209 233//233 217//217
f 225//225 210//210 234//234
f 235//235 217//217 233//233
f 210//210 218//218 234//234
f 235//235 211//211 217//217
f 226//226 211//211 235//235
f 219//219 226//226 236//236
f 212//212 227//227 237//237
f 236//236 220//220 219//219
f 236//236 238//238 220//220
f 220//220 238//238 230//230
f 230//230 238//238 228//228
f 239//239 231//231 222//222
f 240//240 239//239 222//222
f 225//225 240//240 222//222
f 224//224 241//241 209//209
f 241//241 233//233 209//209
f 218//218 212//212 242//242
f 242//242 212//212 237//237
f 243//243 236//236 226//226
f 243//243 238//238 236//236
f 244//244 237//237 227//227
f 245//245 244//244 229//229
f 244//244 227//227 229//229
f 228//228 238//238 245//245
f 228//228 245//245 229//229
f 231//231 246//246 247//247
f 248//248 224//224 247//247
f 231//231 247//247 224//224
f 249//249 246//246 239//239
f 239//239 246//246 231//231
f 241//241 224//224 248//248
f 250//250 241//241 248//248
f 232//232 231//231 224//224
f 241//241 251//251 233//233
f 234//234 218//218 242//242
f 226//226 235//235 252//252
f 253//253 242//242 237//237
f 244//244 253//253 237//237
f 254//254 253//253 244//244
f 244//244 245//245 254//254
f 245//245 238//238 254//254
f 246//246 249//249 255//255
f 248//248 247//247 256//256
f 249//249 239//239 257//257
f 239//239 240//240 257//257
f 241//241 250//250 251//251
f 240//240 225//225 258//258
f 258//258 225//225 259//259
f 251//251 260//260 233//233
f 225//225 234//234 259//259
f 259//259 234//234 242//242
f 233//233 260//260 235//235
f 260//260 252//252 235//235
f 238//238 243//243 254//254
f 247//247 261//261 262//262
f 263//263 247//247 262//262
f 255//255 261//261 247//247
f 247//247 263//263 256//256
f 255//255 247//247 246//246
f 255//255 249//249 264//264
f 250//250 248//248 256//256
f 265//265 251//251 250//250
f 240//240 258//258 257//257
f 260//260 251//251 265//265
f 266//266 259//259 242//242
f 267//267 226//226 252//252
f 268//268 242//242 253//253
f 243//243 226//226 267//267
f 243//243 267//267 269//269
f 253//253 254//254 268//268
f 269//269 254//254 243//243
f 268//268 254//254 269//269
f 262//262 261//261 270//270
f 271//271 263//263 262//262
f 261//261 255//255 264//264
f 272//272 256//256 273//273
f 264//264 249//249 257//257
f 258//258 264//264 257//257
f 272//272 250//250 256//256
f 265//265 250//250 272//272
f 274//274 258//258 259//259
f 275//275 252//252 260//260
f 275//275 267//267 252//252
f 269//269 276//276 268//268
f 266//266 268//268 276//276
f 266//266 242//242 268//268
f 271//271 262//262 277//277
f 278//278 277//277 270//270
f 270//270 277//277 262//262
f 263//263 271//271 279//279
f 261//261 280//280 270//270
f 263//263 279//279 273//273
f 261//261 264//264 280//280
f 263//263 273//273 256//256
f 281//281 264//264 282//282
f 264//264 258//258 282//282
f 283//283 265//265 272//272
f 283//283 260//260 265//265
f 266//266 274//274 259//259
f 275//275 284//284 267//267
f 269//269 267//267 284//284
f 276//276 269//269 284//284
f 278//278 285//285 277//277
f 286//286 287//287 271//271
f 277//277 286//286 271//271
f 287//287 273//273 279//279
f 287//287 279//279 271//271
f 278//278 270//270 280//280
f 264//264 288//288 280//280
f 281//281 288//288 264//264
f 273//273 289//289 272//272
f 289//289 290//290 272//272
f 258//258 274//274 282//282
f 290//290 283//283 272//272
f 274//274 291//291 282//282
f 292//292 291//291 274//274
f 293//293 260//260 283//283
f 293//293 294//294 295//295
f 275//275 260//260 293//293
f 274//274 266//266 292//292
f 292//292 266//266 295//295
f 284//284 275//275 293//293
f 284//284 293//293 295//295
f 276//276 284//284 295//295
f 266//266 276//276 295//295
f 296//296 297//297 298//298
f 277//277 299//299 286//286
f 277//277 296//296 299//299
f 296//296 298//298 299//299
f 296//296 277//277 285//285
f 299//299 300//300 286//286
f 286//286 300//300 287//287
f 287//287 300//300 301//301
f 287//287 302//302 273//273
f 281//281 282//282 303//303
f 303//303 282//282 291//291
f 304//304 294//294 283//283
f 291//291 292//292 305//305
f 305//305 295//295 294//294
f 305//305 292//292 295//295
f 283//283 294//294 293//293
f 306//306 298//298 297//297
f 306//306 307//307 298//298
f 308//308 299//299 307//307
f 298//298 307//307 299//299
f 296//296 285//285 297//297
f 297//297 285//285 309//309
f 300//300 299//299 308//308
f 301//301 300//300 308//308
f 285//285 278//278 309//309
f 302//302 287//287 301//301
f 278//278 280//280 310//310
f 280//280 288//288 310//310
f 302//302 289//289 273//273
f 288//288 281//281 311//311
f 311//311 281//281 303//303
f 312//312 290//290 289//289
f 283//283 290//290 304//304
f 313//313 291//291 305//305
f 305//305 294//294 304//304
f 314//314 315//315 316//316
f 317//317 315//315 314//314
f 318//318 317//317 314//314
f 318//318 319//319 317//317
f 320//320 321//321 314//314
f 318//318 314//314 321//321
f 319//319 318//318 306//306
f 318//318 321//321 306//306
f 306//306 297//297 322//322
f 306//306 322//322 319//319
f 321//321 320//320 307//307
f 307//307 320//320 323//323
f 306//306 321//321 307//307
f 324//324 322//322 297//297
f 323//323 308//308 307//307
f 297//297 309//309 324//324
f 278//278 310//310 309//309
f 310//310 311//311 325//325
f 288//288 311//311 310//310
f 326//326 289//289 302//302
f 326//326 312//312 289//289
f 327//327 313//313 328//328
f 327//327 303//303 313//313
f 328//328 304//304 312//312
f 303//303 291//291 313//313
f 312//312 304//304 290//290
f 313//313 305//305 328//328
f 305//305 304//304 328//328
f 315//315 317//317 329//329
f 330//330 314//314 316//316
f 314//314 330//330 320//320
f 330//330 331//331 320//320
f 331//331 323//323 320//320
f 332//332 308//308 323//323
f 301//301 308//308 332//332
f 333//333 301//301 332//332
f 333//333 302//302 301//301
f 309//309 310//310 334//334
f 333//333 326//326 302//302
f 327//327 325//325 311//311
f 312//312 326//326 335//335
f 312//312 335//335 328//328
f 328//328 336//336 327//327
f 311//311 303//303 327//327
f 337//337 338//338 339//339
f 337//337 339//339 316//316
f 337//337 315//315 340//340
f 337//337 340//340 341//341
f 337//337 316//316 315//315
f 315//315 329//329 340//340
f 316//316 342//342 330//330
f 329//329 317//317 319//319
f 329//329 319//319 343//343
f 342//342 344//344 330//330
f 331//331 330//330 344//344
f 345//345 343//343 319//319
f 345//345 319//319 322//322
f 345//345 322//322 324//324
f 331//331 332//332 323//323
f 309//309 334//334 346//346
f 347//347 326//326 333//333
f 334//334 310//310 325//325
f 348//348 334//334 325//325
f 348//348 325//325 336//336
f 325//325 327//327 336//336
f 336//336 328//328 335//335
f 349//349 350//350 338//338
f 338//338 350//350 351//351
f 339//339 338//338 351//351
f 338//338 337//337 349//349
f 337//337 341//341 349//349
f 316//316 339//339 342//342
f 339//339 352//352 342//342
f 342//342 352//352 353//353
f 344//344 353//353 354//354
f 342//342 353//353 344//344
f 354//354 355//355 344//344
f 355//355 331//331 344//344
f 356//356 332//332 331//331
f 357//357 332//332 356//356
f 309//309 346//346 324//324
f 332//332 357//357 333//333
f 358//358 359//359 346//346
f 347//347 360//360 358//358
f 359//359 358//358 360//360
f 346//346 348//348 358//358
f 334//334 348//348 346//346
f 326//326 347//347 335//335
f 335//335 347//347 358//358
f 348//348 336//336 358//358
f 336//336 335//335 358//358
f 361//361 351//351 362//362
f 362//362 351//351 350//350
f 361//361 363//363 351//351
f 363//363 339//339 351//351
f 364//364 350//350 349//349
f 365//365 352//352 339//339
f 340//340 366//366 341//341
f 366//366 340//340 329//329
f 366//366 329//329 343//343
f 356//356 331//331 355//355
f 367//367 345//345 324//324
f 346//346 367//367 324//324
f 357//357 368//368 333//333
f 360//360 333//333 368//368
f 359//359 369//369 346//346
f 369//369 359//359 360//360
f 347//347 333//333 360//360
f 361//361 362//362 370//370
f 350//350 364//364 371//371
f 363//363 372//372 339//339
f 339//339 372//372 365//365
f 349//349 366//366 364//364
f 366//366 349//349 341//341
f 352//352 373//373 353//353
f 352//352 365//365 373//373
f 366//366 343//343 374//374
f 353//353 375//375 376//376
f 376//376 354//354 353//353
f 377//377 355//355 354//354
f 378//378 343//343 345//345
f 377//377 356//356 355//355
f 367//367 378//378 345//345
f 379//379 357//357 356//356
f 357//357 379//379 368//368
f 369//369 367//367 346//346
f 380//380 360//360 368//368
f 380//380 369//369 360//360
f 381//381 361//361 370//370
f 381//381 370//370 382//382
f 381//381 383//383 361//361
f 361//361 383//383 363//363
f 362//362 350//350 371//371
f 383//383 372//372 363//363
f 365//365 372//372 384//384
f 371//371 364//364 366//366
f 365//365 384//384 373//373
f 353//353 373//373 375//375
f 374//374 378//378 385//385
f 343//343 378//378 374//374
f 354//354 376//376 377//377
f 377//377 386//386 356//356
f 356//356 386//386 379//379
f 378//378 367//367 387//387
f 368//368 388//388 380//380
f 387//387 380//380 388//388
f 387//387 367//367 380//380
f 367//367 369//369 380//380
f 389//389 381//381 390//390
f 370//370 391//391 382//382
f 381//381 389//389 383//383
f 362//362 371//371 370//370
f 370//370 371//371 391//391
f 372//372 383//383 392//392
f 384//384 392//392 393//393
f 384//384 372//372 392//392
f 394//394 371//371 366//366
f 374//374 394//394 366//366
f 373//373 384//384 393//393
f 373//373 393//393 395//395
f 373//373 395//395 375//375
f 376//376 396//396 377//377
f 386//386 377//377 396//396
f 397//397 385//385 378//378
f 379//379 398//398 388//388
f 399//399 397//397 388//388
f 397//397 387//387 388//388
f 378//378 387//387 397//397
f 368//368 379//379 388//388
f 400//400 390//390 401//401
f 390//390 402//402 403//403
f 400//400 402//402 390//390
f 390//390 382//382 404//404
f 382//382 390//390 381//381
f 382//382 391//391 404//404
f 390//390 403//403 389//389
f 371//371 405//405 391//391
f 406//406 405//405 371//371
f 393//393 392//392 407//407
f 371//371 408//408 406//406
f 408//408 371//371 394//394
f 395//395 393//393 409//409
f 375//375 395//395 410//410
f 411//411 374//374 385//385
f 375//375 396//396 376//376
f 399//399 411//411 385//385
f 385//385 397//397 399//399
f 386//386 398//398 379//379
f 388//388 398//398 399//399
f 412//412 413//413 402//402
f 400//400 412//412 402//402
f 413//413 414//414 402//402
f 401//401 390//390 404//404
f 403//403 402//402 414//414
f 389//389 414//414 415//415
f 403//403 414//414 389//389
f 389//389 392//392 383//383
f 389//389 415//415 392//392
f 392//392 415//415 407//407
f 394//394 416//416 408//408
f 393//393 407//407 409//409
f 394//394 374//374 416//416
f 410//410 417//417 418//418
f 419//419 417//417 410//410
f 416//416 374//374 420//420
f 375//375 410//410 396//396
f 396//396 410//410 418//418
f 374//374 411//411 420//420
f 398//398 396//396 418//418
f 420//420 398//398 418//418
f 396//396 398//398 386//386
f 411//411 399//399 420//420
f 399//399 398//398 420//420
f 421//421 412//412 422//422
f 412//412 400//400 423//423
f 423//423 400//400 424//424
f 413//413 421//421 425//425
f 412//412 421//421 413//413
f 401//401 424//424 400//400
f 401//401 426//426 424//424
f 404//404 426//426 401//401
f 414//414 413//413 425//425
f 391//391 427//427 404//404
f 391//391 405//405 427//427
f 414//414 428//428 415//415
f 429//429 405//405 406//406
f 430//430 407//407 415//415
f 406//406 431//431 429//429
f 408//408 431//431 406//406
f 408//408 416//416 431//431
f 407//407 432//432 409//409
f 409//409 433//433 395//395
f 395//395 433//433 410//410
f 434//434 420//420 417//417
f 416//416 420//420 434//434
f 418//418 417//417 420//420
f 412//412 423//423 422//422
f 404//404 427//427 426//426
f 428//428 414//414 435//435
f 405//405 429//429 427//427
f 415//415 436//436 430//430
f 430//430 437//437 432//432
f 407//407 430//430 432//432
f 409//409 432//432 438//438
f 431//431 416//416 439//439
f 433//433 409//409 438//438
f 439//439 416//416 434//434
f 433//433 440//440 410//410
f 410//410 440//440 419//419
f 439//439 434//434 419//419
f 434//434 417//417 419//419
f 441//441 422//422 442//442
f 443//443 441//441 442//442
f 422//422 423//423 444//444
f 421//421 422//422 441//441
f 424//424 445//445 423//423
f 424//424 446//446 445//445
f 441//441 443//443 447//447
f 421//421 441//441 425//425
f 426//426 446//446 424//424
f 441//441 447//447 425//425
f 426//426 448//448 446//446
f 427//427 448//448 426//426
f 425//425 435//435 414//414
f 428//428 435//435 449//449
f 428//428 436//436 415//415
f 429//429 450//450 448//448
f 429//429 448//448 427//427
f 451//451 452//452 438//438
f 450//450 453//453 452//452
f 429//429 431//431 450//450
f 450//450 431//431 453//453
f 438//438 432//432 451//451
f 453//453 438//438 452//452
f 453//453 440//440 438//438
f 431//431 439//439 453//453
f 439//439 440//440 453//453
f 440//440 433//433 438//438
f 439//439 419//419 440//440
f 444//444 442//442 422//422
f 444//444 423//423 454//454
f 423//423 445//445 454//454
f 455//455 445//445 446//446
f 446//446 448//448 455//455
f 425//425 456//456 435//435
f 425//425 447//447 456//456
f 450//450 457//457 458//458
f 448//448 450//450 458//458
f 435//435 456//456 449//449
f 459//459 428//428 449//449
f 428//428 459//459 436//436
f 430//430 436//436 437//437
f 460//460 451//451 437//437
f 437//437 451//451 432//432
f 450//450 452//452 457//457
f 461//461 462//462 463//463
f 462//462 442//442 463//463
f 463//463 442//442 444//444
f 442//442 462//462 443//443
f 447//447 462//462 464//464
f 465//465 447//447 464//464
f 443//443 462//462 447//447
f 445//445 455//455 466//466
f 465//465 456//456 447//447
f 448//448 458//458 455//455
f 467//467 458//458 457//457
f 456//456 468//468 449//449
f 452//452 467//467 457//457
f 469//469 467//467 452//452
f 436//436 459//459 460//460
f 437//437 436//436 460//460
f 451//451 460//460 469//469
f 451//451 469//469 452//452
f 461//461 463//463 470//470
f 462//462 461//461 464//464
f 454//454 445//445 466//466
f 464//464 471//471 465//465
f 455//455 472//472 466//466
f 465//465 471//471 473//473
f 472//472 455//455 458//458
f 465//465 473//473 474//474
f 458//458 475//475 472//472
f 465//465 474//474 456//456
f 458//458 467//467 475//475
f 467//467 476//476 475//475
f 456//456 477//477 468//468
f 474//474 477//477 456//456
f 476//476 460//460 478//478
f 469//469 460//460 476//476
f 467//467 469//469 476//476
f 468//468 479//479 480//480
f 449//449 468//468 480//480
f 449//449 480//480 459//459
f 459//459 481//481 460//460
f 464//464 461//461 482//482
f 482//482 461//461 470//470
f 483//483 464//464 482//482
f 484//484 483//483 482//482
f 463//463 485//485 470//470
f 454//454 485//485 444//444
f 444//444 485//485 463//463
f 464//464 483//483 471//471
f 454//454 466//466 485//485
f 471//471 483//483 486//486
f 486//486 473//473 471//471
f 472//472 487//487 488//488
f 487//487 472//472 475//475
f 473//473 486//486 489//489
f 475//475 476//476 487//487
f 476//476 478//478 487//487
f 477//477 479//479 468//468
f 478//478 460//460 481//481
f 479//479 477//477 490//490
f 485//485 491//491 470//470
f 466//466 492//492 485//485
f 483//483 493//493 486//486
f 494//494 492//492 466//466
f 466//466 472//472 494//494
f 494//494 472//472 488//488
f 486//486 493//493 495//495
f 495//495 496//496 486//486
f 496//496 489//489 486//486
f 494//494 488//488 497//497
f 488//488 487//487 497//497
f 474//474 473//473 489//489
f 489//489 477//477 474//474
f 478//478 498//498 497//497
f 487//487 478//478 497//497
f 489//489 499//499 490//490
f 477//477 489//489 490//490
f 478//478 481//481 498//498
f 479//479 500//500 501//501
f 480//480 479//479 501//501
f 459//459 480//480 501//501
f 498//498 481//481 501//501
f 501//501 481//481 459//459
f 479//479 490//490 502//502
f 482//482 470//470 491//491
f 503//503 484//484 504//504
f 482//482 504//504 484//484
f 505//505 484//484 503//503
f 492//492 506//506 491//491
f 491//491 485//485 492//492
f 505//505 493//493 484//484
f 483//483 484//484 493//493
f 507//507 493//493 505//505
f 492//492 494//494 508//508
f 493//493 507//507 495//495
f 508//508 509//509 492//492
f 494//494 497//497 508//508
f 507//507 510//510 495//495
f 508//508 511//511 509//509
f 497//497 511//511 508//508
f 497//497 498//498 511//511
f 496//496 495//495 510//510
f 510//510 499//499 496//496
f 496//496 499//499 489//489
f 500//500 511//511 501//501
f 498//498 501//501 511//511
f 502//502 512//512 500//500
f 499//499 502//502 490//490
f 500//500 479//479 502//502
f 499//499 513//513 502//502
f 514//514 502//502 513//513
f 505//505 503//503 515//515
f 503//503 504//504 515//515
f 482//482 491//491 504//504
f 515//515 516//516 505//505
f 516//516 517//517 505//505
f 505//505 517//517 507//507
f 518//518 506//506 509//509
f 506//506 492//492 509//509
f 507//507 517//517 519//519
f 509//509 511//511 520//520
f 521//521 507//507 519//519
f 510//510 507//507 521//521
f 500//500 520//520 511//511
f 521//521 519//519 522//522
f 510//510 521//521 513//513
f 499//499 510//510 513//513
f 514//514 512//512 502//502
f 513//513 521//521 523//523
f 521//521 522//522 523//523
f 513//513 523//523 524//524
f 513//513 524//524 514//514
f 515//515 504//504 525//525
f 504//504 491//491 506//506
f 525//525 504//504 506//506
f 506//506 518//518 525//525
f 518//518 526//526 525//525
f 526//526 527//527 528//528
f 517//517 516//516 529//529
f 528//528 527//527 530//530
f 527//527 531//531 530//530
f 532//532 527//527 526//526
f 518//518 532//532 526//526
f 509//509 532//532 518//518
f 520//520 532//532 509//509
f 519//519 517//517 529//529
f 532//532 500//500 533//533
f 520//520 500//500 532//532
f 512//512 534//534 533//533
f 500//500 512//512 533//533
f 522//522 519//519 535//535
f 535//535 519//519 529//529
f 512//512 514//514 534//534
f 522//522 535//535 523//523
f 534//534 514//514 536//536
f 536//536 523//523 535//535
f 514//514 523//523 536//536
f 514//514 524//524 523//523
f 515//515 525//525 528//528
f 516//516 515//515 528//528
f 526//526 528//528 525//525
f 528//528 530//530 516//516
f 530//530 529//529 516//516
f 532//532 533//533 527//527
f 533//533 531//531 527//527
f 530//530 535//535 529//529
f 531//531 535//535 530//530
f 536//536 535//535 531//531
f 534//534 536//536 531//531
f 533//533 534//534 531//531
