# Generated by Visualization Toolkit
v -79.23271179199219 -192.27191162109375 106.77949523925781
v -82.26472473144531 -190.14227294921875 108.69660949707031
v -78.61332702636719 -189.4688262939453 108.40480041503906
v -75.19596862792969 -192.36517333984375 107.87565612792969
v -82.61735534667969 -192.25894165039062 107.95907592773438
v -83.96931457519531 -191.67686462402344 109.97630310058594
v -76.38694763183594 -195.189453125 107.41842651367188
v -81.84547424316406 -195.280029296875 108.57026672363281
v -84.56773376464844 -193.7598876953125 110.3543701171875
v -72.28178405761719 -195.13279724121094 108.60794067382812
v -77.84754943847656 -187.55645751953125 113.71644592285156
v -74.77919006347656 -190.15530395507812 110.51174926757812
v -79.26072692871094 -188.03407287597656 110.66395568847656
v -73.18205261230469 -191.8999481201172 112.24911499023438
v -76.05021667480469 -197.53265380859375 109.81942749023438
v -72.59346008300781 -196.74595642089844 110.25971984863281
v -79.51295471191406 -197.5026092529297 110.28813171386719
v -73.96656799316406 -198.39132690429688 113.074951171875
v -81.92823791503906 -188.41671752929688 114.61355590820312
v -80.96629333496094 -186.71157836914062 117.15127563476562
v -72.05717468261719 -194.27651977539062 114.2396240234375
v -71.86317443847656 -196.38934326171875 112.89906311035156
v -81.83030700683594 -196.818603515625 112.35014343261719
v -78.22306823730469 -199.04171752929688 113.66059875488281
v -82.98146057128906 -190.55552673339844 115.38014221191406
v -82.72221374511719 -195.27322387695312 115.52975463867188
v -82.64009094238281 -193.073974609375 117.63050842285156
v 68.14662170410156 -197.8098907470703 116.18580627441406
v 71.34061431884766 -195.78457641601562 114.34088134765625
v 68.1488037109375 -198.73892211914062 114.74774169921875
v -81.67970275878906 -198.9552764892578 119.61161804199219
v 69.59986114501953 -201.5725555419922 113.81277465820312
v 71.68412017822266 -201.00091552734375 114.30856323242188
v -76.95762634277344 -200.28652954101562 119.29090881347656
v 66.04546356201172 -203.33023071289062 117.00697326660156
v 68.80886840820312 -204.3314971923828 115.31416320800781
v -76.59294128417969 -187.7718505859375 121.70736694335938
v 71.29467010498047 -195.57968139648438 116.84384155273438
v -82.58406066894531 -196.5033721923828 117.28515625
v 72.47035217285156 -199.81736755371094 115.94432067871094
v -74.26188659667969 -198.7112579345703 122.32130432128906
v 69.87679290771484 -206.2529754638672 117.95631408691406
v -84.13914489746094 -189.8651123046875 117.26849365234375
v -84.24986267089844 -186.56710815429688 120.31251525878906
v -86.00013732910156 -188.4234619140625 119.38632202148438
v -86.61106872558594 -191.9495849609375 118.50489807128906
v -87.39567565917969 -190.63209533691406 119.86752319335938
v -73.20109558105469 -193.4636688232422 122.34565734863281
v -83.71522521972656 -197.08689880371094 119.18666076660156
v -72.63267517089844 -196.09661865234375 119.47538757324219
v 69.15704345703125 -198.57540893554688 121.81513977050781
v 70.87559509277344 -201.5957794189453 121.25238037109375
v 67.02952575683594 -200.6814727783203 119.92193603515625
v -80.92012023925781 -200.05323791503906 122.27030944824219
v 70.502197265625 -204.11212158203125 120.72972106933594
v 67.91735076904297 -204.90609741210938 118.71464538574219
v -80.20750427246094 -186.0937042236328 123.07073974609375
v -82.78974914550781 -185.96237182617188 122.01615905761719
v -86.91954040527344 -189.3512420654297 122.35096740722656
v -74.11503601074219 -191.6086883544922 125.77703857421875
v -89.34971618652344 -195.47390747070312 123.17961120605469
v -87.35346984863281 -196.2377471923828 120.68197631835938
v 70.34300994873047 -199.83082580566406 121.89137268066406
v -86.84855651855469 -199.503662109375 122.5911865234375
v -75.74195861816406 -199.88990783691406 123.46630859375
v 68.64784240722656 -204.7638702392578 122.67776489257812
v -78.16575622558594 -186.93099975585938 124.26290893554688
v -89.53736877441406 -194.87269592285156 124.58836364746094
v -72.95820617675781 -196.50108337402344 123.89512634277344
v -78.29771423339844 -200.5030975341797 124.24118041992188
v -84.95942687988281 -187.67149353027344 124.29960632324219
v -76.25679016113281 -189.73948669433594 127.91490173339844
v -72.67875671386719 -193.92288208007812 125.20101928710938
v 69.1417007446289 -203.70216369628906 123.937744140625
v -84.14616394042969 -202.08956909179688 128.19944763183594
v -83.67982482910156 -189.04861450195312 130.02444458007812
v -80.16502380371094 -188.8748779296875 130.62783813476562
v -87.42753601074219 -190.90650939941406 127.17642211914062
v -72.05607604980469 -193.04849243164062 128.94998168945312
v -69.64588928222656 -195.23114013671875 128.44236755371094
v -69.94627380371094 -198.0342254638672 127.4559326171875
v -73.47126770019531 -199.15609741210938 125.42562866210938
v -87.37382507324219 -200.12205505371094 127.13529968261719
v -89.27131652832031 -197.44720458984375 129.27911376953125
v -70.09544372558594 -199.7498779296875 128.4203338623047
v -70.78230285644531 -200.26039123535156 129.03407287597656
v -73.58418273925781 -200.42681884765625 128.82205200195312
v -80.75874328613281 -201.10643005371094 127.51429748535156
v -89.07359313964844 -194.86859130859375 130.4278106689453
v -77.48817443847656 -189.85780334472656 132.4198455810547
v -69.36665344238281 -194.51815795898438 133.26528930664062
v -68.20680236816406 -195.68907165527344 132.49119567871094
v -82.49858093261719 -201.2100830078125 130.8232879638672
v -87.19017028808594 -199.81027221679688 132.9427947998047
v -86.12586975097656 -191.79348754882812 136.2617645263672
v -70.30253601074219 -196.3489990234375 135.41392517089844
v -75.59892272949219 -199.3867950439453 133.54257202148438
v -78.00502014160156 -189.94091796875 141.46640014648438
v -81.01136779785156 -190.1938018798828 141.4345703125
v -75.66813659667969 -190.6681365966797 137.97586059570312
v -87.20106506347656 -196.17205810546875 137.26654052734375
v -87.29948425292969 -198.06785583496094 135.9745635986328
v -79.69548034667969 -199.2928924560547 138.31346130371094
v -83.08537292480469 -199.01206970214844 138.69381713867188
v -71.48847961425781 -194.40103149414062 138.11427307128906
v -72.70314025878906 -192.30508422851562 138.9920654296875
v -83.83274841308594 -192.24295043945312 141.92001342773438
v -84.06962585449219 -194.02716064453125 143.65184020996094
v -73.00541687011719 -196.20884704589844 139.5967559814453
v -85.25727844238281 -197.61192321777344 139.61610412597656
v -74.10816955566406 -190.08990478515625 142.07882690429688
v -71.47737121582031 -194.3028564453125 141.57269287109375
v -83.97431945800781 -195.57037353515625 144.25491333007812
v -76.60252380371094 -197.3197784423828 142.7290496826172
v -80.84303283691406 -198.1038818359375 143.76165771484375
v -71.91673278808594 -190.63601684570312 142.71192932128906
v -81.98606872558594 -190.83885192871094 144.38055419921875
v -72.60200500488281 -195.85211181640625 146.55430603027344
v -82.26023864746094 -196.62692260742188 147.58132934570312
v -71.18196105957031 -188.68983459472656 144.92845153808594
v -76.02915954589844 -188.54806518554688 144.7239227294922
v -79.64839172363281 -189.08815002441406 146.4833221435547
v -83.15980529785156 -191.85462951660156 146.900146484375
v -69.75703430175781 -192.99270629882812 148.14857482910156
v -68.82255554199219 -190.74803161621094 148.4730682373047
v 70.69025421142578 -203.168212890625 144.55548095703125
v 70.69026184082031 -203.168212890625 144.55548095703125
v 70.69025421142578 -203.168212890625 144.55548095703125
v 70.69024658203125 -203.168212890625 144.55548095703125
v -69.83522033691406 -186.30218505859375 150.50164794921875
v -73.69981384277344 -186.00271606445312 148.06333923339844
v -69.19926452636719 -188.8772735595703 148.13409423828125
v -83.32286071777344 -195.12681579589844 149.59747314453125
v 70.69025421142578 -203.168212890625 144.55548095703125
v -71.23258972167969 -194.2622833251953 150.27755737304688
v -79.42182922363281 -196.777099609375 149.26309204101562
v 70.69025421142578 -200.1564483642578 148.57113647460938
v 70.69025421142578 -200.1564483642578 148.57115173339844
v 70.69026184082031 -200.1564483642578 148.57115173339844
v 70.69024658203125 -200.1564483642578 148.57115173339844
v 70.69025421142578 -200.1564483642578 148.57115173339844
v -67.43269348144531 -187.24447631835938 153.12179565429688
v -77.27845764160156 -185.2747039794922 152.10891723632812
v -80.48756408691406 -186.53224182128906 155.22027587890625
v -67.21824645996094 -189.04104614257812 156.01112365722656
v -69.34507751464844 -192.25514221191406 153.1988067626953
v -83.64973449707031 -192.38514709472656 154.72105407714844
v 70.69025421142578 -200.1564483642578 148.57115173339844
v -69.02265930175781 -184.34510803222656 155.08767700195312
v -72.56898498535156 -183.47555541992188 155.57998657226562
v -83.05101013183594 -189.83631896972656 154.8013916015625
v -74.80155944824219 -194.3252716064453 157.16661071777344
v -78.52388000488281 -195.9729766845703 155.5477294921875
v -74.97920227050781 -183.13656616210938 157.59478759765625
v -65.82615661621094 -186.43386840820312 156.37945556640625
v -77.43620300292969 -183.88662719726562 158.08216857910156
v -81.14549255371094 -195.50413513183594 156.16246032714844
v -82.57606506347656 -193.71664428710938 159.03453063964844
v -67.74067687988281 -183.05023193359375 159.36703491210938
v -65.34541320800781 -184.68312072753906 157.89462280273438
v -81.54307556152344 -187.5708465576172 159.24464416503906
v -66.20448303222656 -188.56753540039062 159.51962280273438
v -71.19584655761719 -182.29747009277344 161.95318603515625
v -60.13600158691406 -186.4593505859375 158.90626525878906
v -64.16929626464844 -186.9051055908203 157.78439331054688
v -59.28221130371094 -187.68551635742188 159.58741760253906
v -82.79832458496094 -191.4748992919922 159.32901000976562
v -69.91841125488281 -189.69540405273438 161.2101593017578
v -78.64320373535156 -193.90176391601562 160.58792114257812
v -59.607940673828125 -184.01324462890625 161.97164916992188
v -78.87556457519531 -184.62550354003906 163.0919952392578
v -59.99168395996094 -189.9475860595703 163.6231689453125
v -63.38124084472656 -188.73416137695312 161.58453369140625
v -80.39860534667969 -187.03196716308594 163.98495483398438
v -76.30604553222656 -191.3983917236328 164.64517211914062
v -67.46244812011719 -181.34896850585938 164.310546875
v -62.09657287597656 -182.38803100585938 163.59974670410156
v -74.91526794433594 -182.47557067871094 165.2300567626953
v -76.81932067871094 -183.32681274414062 168.1276092529297
v -56.25123596191406 -184.3644561767578 163.76919555664062
v -57.726531982421875 -188.25608825683594 163.5636749267578
v -55.47821044921875 -186.26055908203125 165.86517333984375
v -80.19294738769531 -189.88613891601562 164.4632568359375
v -73.01469421386719 -189.64755249023438 165.47543334960938
v -79.11451721191406 -190.9808349609375 164.49017333984375
v -71.92878723144531 -180.8990478515625 166.86703491210938
v -55.5369873046875 -181.90281677246094 166.88812255859375
v -64.71786499023438 -188.85325622558594 165.0737762451172
v -68.62208557128906 -188.27223205566406 166.6961212158203
v -54.905059814453125 -180.02865600585938 168.84213256835938
v -75.40882873535156 -181.16966247558594 171.0570526123047
v -54.66371154785156 -183.1840057373047 167.36517333984375
v -54.378662109375 -184.1752471923828 169.53562927246094
v -57.431915283203125 -187.97674560546875 169.2537841796875
v -78.09889221191406 -185.7359619140625 168.15750122070312
v -61.109954833984375 -189.68246459960938 166.40133666992188
v -75.42832946777344 -189.11778259277344 167.52108764648438
v -76.85960388183594 -187.5966339111328 168.7349853515625
v -72.11875915527344 -178.059814453125 172.15560913085938
v -68.82997131347656 -174.9818878173828 175.92149353027344
v -61.53912353515625 -179.7467498779297 168.8828887939453
v -52.19779968261719 -180.4529266357422 170.43136596679688
v -65.75386047363281 -178.71905517578125 169.6482391357422
v -76.49076843261719 -185.08058166503906 171.68533325195312
v -72.38716125488281 -187.2299346923828 170.99876403808594
v -55.37785339355469 -178.11178588867188 172.77279663085938
v -51.24818420410156 -180.8729705810547 173.1668701171875
v -67.24171447753906 -187.1287078857422 172.57342529296875
v -60.92955017089844 -188.43841552734375 171.1595001220703
v -66.92146301269531 -175.822509765625 174.67564392089844
v -61.621185302734375 -178.238525390625 173.4652099609375
v -58.13908386230469 -177.5714111328125 174.909423828125
v -74.21241760253906 -178.5604248046875 174.84259033203125
v -55.2882080078125 -184.5236358642578 173.26116943359375
v -75.23246765136719 -180.63426208496094 175.6140899658203
v -75.05931091308594 -184.8306427001953 173.69573974609375
v -56.51063537597656 -178.19137573242188 178.2659149169922
v -59.64195251464844 -184.4329071044922 177.16017150878906
v -64.17066955566406 -185.9429931640625 175.67825317382812
v -72.05390930175781 -184.731201171875 176.5921173095703
v -58.68431091308594 -174.44613647460938 178.3579864501953
v -63.96246337890625 -173.1529083251953 177.77008056640625
v -59.86334228515625 -176.70582580566406 176.059814453125
v -57.668304443359375 -177.0042724609375 177.42076110839844
v -72.04808044433594 -175.28379821777344 177.31271362304688
v -74.10523986816406 -176.67276000976562 179.12608337402344
v -73.54032897949219 -181.071044921875 179.52914428710938
v -54.74079895019531 -181.4990997314453 177.70721435546875
v -65.58937072753906 -170.9133758544922 179.35057067871094
v -70.13389587402344 -173.31129455566406 178.7383575439453
v -56.391143798828125 -179.42645263671875 179.1816864013672
v -73.93678283691406 -178.73651123046875 180.79119873046875
v -65.17234802246094 -180.50205993652344 183.3201446533203
v -59.42829895019531 -167.65402221679688 180.75836181640625
v -62.46229553222656 -166.22576904296875 182.4960174560547
v -67.35478210449219 -169.0717315673828 182.1713409423828
v -55.8173828125 -168.50125122070312 181.17376708984375
v -55.30815124511719 -172.04873657226562 181.05181884765625
v -71.39506530761719 -172.45559692382812 182.7859344482422
v -56.64569091796875 -176.2119903564453 180.26199340820312
v -57.42742919921875 -178.27264404296875 181.58543395996094
v -58.50221252441406 -180.3560028076172 180.94029235839844
v -61.198272705078125 -180.87298583984375 182.04995727539062
v -70.23371887207031 -180.04164123535156 182.75379943847656
v -56.87788391113281 -161.83314514160156 185.4996795654297
v -56.50288391113281 -164.788818359375 183.1588134765625
v -53.264678955078125 -168.97918701171875 183.69058227539062
v -54.30812072753906 -173.00808715820312 183.25503540039062
v -54.653289794921875 -173.87673950195312 185.7191619873047
v -73.51438903808594 -175.41000366210938 184.80557250976562
v -73.62330627441406 -177.19004821777344 184.17066955566406
v -52.977813720703125 -165.03567504882812 184.63746643066406
v -60.107940673828125 -163.0201873779297 185.32281494140625
v -63.937042236328125 -165.99655151367188 184.01002502441406
v -52.420989990234375 -169.68309020996094 186.2938232421875
v -70.16920471191406 -171.03733825683594 189.39694213867188
v -58.563018798828125 -177.99197387695312 184.849853515625
v -62.14361572265625 -176.62086486816406 190.23341369628906
v -56.12937927246094 -157.21482849121094 187.90716552734375
v -55.44001770019531 -156.337158203125 186.9190673828125
v -55.60377502441406 -160.5382843017578 185.83778381347656
v -58.51591491699219 -160.8893585205078 188.1080780029297
v -52.4315185546875 -159.9824981689453 186.35797119140625
v -62.92005920410156 -163.83274841308594 187.04087829589844
v -50.70079040527344 -160.06716918945312 187.62774658203125
v -51.18330383300781 -165.57125854492188 187.1343994140625
v -66.93379211425781 -167.6648406982422 186.98306274414062
v -52.64176940917969 -169.9501953125 189.36688232421875
v -56.361541748046875 -175.10891723632812 188.15081787109375
v -67.98970031738281 -177.26206970214844 189.35044860839844
v -70.64414978027344 -175.31942749023438 190.3980712890625
v -51.88446044921875 -156.8292999267578 190.61572265625
v -50.08941650390625 -160.7494354248047 188.2937469482422
v -51.04826354980469 -165.3199920654297 189.03517150878906
v -63.72227478027344 -164.58836364746094 189.74378967285156
v -65.80186462402344 -167.23556518554688 190.4222869873047
v -54.06056213378906 -171.3147735595703 190.5361328125
v -70.98527526855469 -173.30654907226562 189.993408203125
v -58.54719543457031 -175.79063415527344 189.98974609375
v -50.748260498046875 -156.52464294433594 191.93959045410156
v -50.2271728515625 -160.11463928222656 190.2034912109375
v -53.79350280761719 -156.9583282470703 189.6232147216797
v -52.534820556640625 -155.73086547851562 192.25186157226562
v -59.02394104003906 -161.3343963623047 191.9027862548828
v -51.784515380859375 -164.0581512451172 191.41017150878906
v -51.82115173339844 -152.83242797851562 194.11729431152344
v -50.15977478027344 -153.49224853515625 194.35484313964844
v -51.20179748535156 -159.0315704345703 192.9345703125
v -54.506256103515625 -157.97715759277344 192.57199096679688
v -53.091217041015625 -156.5214385986328 194.300537109375
v -61.64830017089844 -165.6732940673828 192.21066284179688
v -59.781158447265625 -167.91143798828125 192.88778686523438
v -56.976806640625 -162.75927734375 193.64712524414062
v -54.261474609375 -163.9100799560547 193.43487548828125
v -56.87757873535156 -171.2680206298828 192.03147888183594
v -64.82669067382812 -172.4020233154297 193.11973571777344
v -69.32838439941406 -172.90866088867188 191.66250610351562
v -61.98561096191406 -173.41796875 192.82962036132812
v -67.26158142089844 -175.1529083251953 191.8063507080078
v -50.554718017578125 -155.0642547607422 196.01014709472656
v -52.85154724121094 -159.29238891601562 193.7193145751953
v -52.018890380859375 -153.13247680664062 197.6967315673828
v -51.493865966796875 -150.70530700683594 198.22325134277344
v -52.30055236816406 -147.59471130371094 202.65147399902344
v -37.53407287597656 -159.52792358398438 221.44566345214844
v -35.938751220703125 -158.3655548095703 221.87571716308594
v -38.88798522949219 -160.44749450683594 220.09310913085938
v -34.87614440917969 -158.69955444335938 223.14727783203125
v -36.70661926269531 -160.5334014892578 221.82398986816406
v -37.39942932128906 -162.5146026611328 220.33624267578125
v -36.378387451171875 -163.52938842773438 221.72218322753906
v -37.90802001953125 -167.9583282470703 219.2674560546875
v -40.59281921386719 -166.8784942626953 219.7217559814453
v -34.88116455078125 -165.35101318359375 221.92550659179688
v -35.94154357910156 -166.63136291503906 219.95387268066406
v -31.693435668945312 -168.85980224609375 221.28587341308594
v -42.78680419921875 -170.27713012695312 221.9216766357422
v -41.60319519042969 -165.32786560058594 222.6298065185547
v -32.91912841796875 -170.7064666748047 219.7759552001953
v -40.582427978515625 -170.55694580078125 219.9925079345703
v -34.45599365234375 -173.38113403320312 219.50933837890625
v -26.770797729492188 -173.96981811523438 220.66798400878906
v -38.44854736328125 -175.68380737304688 221.86363220214844
v -32.12451171875 -176.2538299560547 220.5000457763672
v -26.488739013671875 -176.7581787109375 221.32760620117188
v -35.48626708984375 -177.55718994140625 222.92123413085938
v -35.541229248046875 -156.71835327148438 224.1236572265625
v -38.42704772949219 -162.4384765625 222.04632568359375
v -32.87239074707031 -167.21348571777344 224.55612182617188
v -31.09130859375 -167.9846954345703 223.7438201904297
v -26.238800048828125 -170.87635803222656 221.67822265625
v -26.183914184570312 -168.88116455078125 223.35678100585938
v -20.185928344726562 -169.37840270996094 223.16876220703125
v -18.908828735351562 -171.26956176757812 222.84710693359375
v -20.377716064453125 -176.29013061523438 222.54998779296875
v -41.280242919921875 -172.91273498535156 223.96827697753906
v -27.095352172851562 -179.164794921875 222.98072814941406
v -20.32562255859375 -180.34652709960938 224.3075714111328
v -27.661453247070312 -180.27053833007812 224.7091827392578
v -36.86878967285156 -158.18356323242188 226.1396026611328
v -35.48719787597656 -158.5809783935547 226.2562255859375
v -35.68565368652344 -166.38851928710938 225.23019409179688
v -40.10173034667969 -165.6428985595703 224.4755096435547
v -16.144943237304688 -167.98362731933594 224.87490844726562
v -22.479598999023438 -167.25428771972656 224.9356689453125
v -18.836883544921875 -165.51181030273438 228.073486328125
v -42.16850280761719 -168.55154418945312 223.96005249023438
v -27.396087646484375 -167.76409912109375 226.02870178222656
v -13.300506591796875 -172.00575256347656 225.0056915283203
v -15.44219970703125 -177.91629028320312 224.68075561523438
v -39.12579345703125 -175.00148010253906 224.50033569335938
v -28.564651489257812 -180.4001922607422 226.2667694091797
v -31.41119384765625 -178.8575897216797 226.20867919921875
v -23.872665405273438 -182.3345184326172 226.69497680664062
v -14.113632202148438 -166.74313354492188 228.76583862304688
v -36.508148193359375 -168.65792846679688 227.0574951171875
v -11.087478637695312 -169.6364288330078 227.15660095214844
v -31.809280395507812 -168.44772338867188 226.27645874023438
v -37.9384765625 -171.39248657226562 227.22421264648438
v -8.739944458007812 -172.8053436279297 228.2773895263672
v -10.347381591796875 -177.80917358398438 226.9497833251953
v -32.73414611816406 -176.5665283203125 227.8955841064453
v -33.33154296875 -177.6365509033203 226.20614624023438
v -12.092422485351562 -180.31643676757812 227.63906860351562
v -18.680465698242188 -181.98089599609375 226.95391845703125
v -21.331954956054688 -182.99893188476562 229.28887939453125
v -19.909149169921875 -165.2481689453125 229.41091918945312
v -9.842910766601562 -168.83132934570312 230.33648681640625
v -28.130218505859375 -168.34352111816406 228.7114715576172
v -32.12547302246094 -170.1270294189453 228.00343322753906
v -28.323074340820312 -170.19424438476562 231.35940551757812
v -34.615325927734375 -171.95729064941406 228.02268981933594
v -32.834320068359375 -173.65969848632812 228.76109313964844
v -28.452651977539062 -180.35137939453125 229.52491760253906
v -7.8424530029296875 -180.7549591064453 231.27952575683594
v -10.583908081054688 -181.8134765625 231.17535400390625
v -23.153091430664062 -166.85337829589844 232.98008728027344
v -20.788986206054688 -165.60409545898438 231.07662963867188
v -6.597808837890625 -170.94680786132812 232.29354858398438
v -25.0980224609375 -168.21571350097656 233.23085021972656
v -27.92657470703125 -173.4713134765625 233.31451416015625
v -4.5972900390625 -178.69955444335938 232.9074249267578
v -24.359268188476562 -182.0608673095703 231.4626922607422
v -14.832794189453125 -183.2062530517578 234.59616088867188
v -11.908615112304688 -167.28416442871094 237.5165557861328
v -9.441314697265625 -168.14768981933594 234.5350341796875
v -5.2841644287109375 -170.01168823242188 236.74014282226562
v -3.0431365966796875 -176.64337158203125 235.07131958007812
v -27.7840576171875 -177.20811462402344 232.9763641357422
v -26.452560424804688 -179.82191467285156 232.6896209716797
v -4.162567138671875 -180.64903259277344 234.0630340576172
v -4.135894775390625 -181.76353454589844 235.29583740234375
v -21.42230224609375 -168.90892028808594 238.82701110839844
v -24.507293701171875 -177.59375 237.36968994140625
v -0.91943359375 -179.2610626220703 239.8890838623047
v -23.7109375 -180.2799835205078 237.3434600830078
v -11.704132080078125 -183.84051513671875 237.15365600585938
v -19.053817749023438 -182.60691833496094 239.84396362304688
v -14.512252807617188 -167.24386596679688 239.92613220214844
v -18.059417724609375 -167.38011169433594 239.12660217285156
v -6.9229888916015625 -168.4818878173828 239.14710998535156
v -22.795639038085938 -171.05987548828125 238.8136444091797
v -1.7322235107421875 -173.1370391845703 240.28285217285156
v -23.741729736328125 -174.86656188964844 238.67868041992188
v -5.146575927734375 -184.04229736328125 239.19873046875
v -8.251129150390625 -167.9411163330078 243.6433868408203
v 0.564788818359375 -182.0365753173828 244.6021270751953
v -15.5723876953125 -183.53961181640625 241.12069702148438
v -20.6514892578125 -181.3212127685547 241.53958129882812
v -6.5514678955078125 -185.3043975830078 241.86866760253906
v -2.633819580078125 -170.81410217285156 243.36947631835938
v 0.1669921875 -176.34519958496094 243.54197692871094
v -1.0127716064453125 -183.98971557617188 244.98065185546875
v -9.880050659179688 -185.57044982910156 243.2556610107422
v -16.174774169921875 -168.24716186523438 245.15487670898438
v -3.1109771728515625 -170.49655151367188 247.0432586669922
v -17.877456665039062 -169.95458984375 247.29568481445312
v -0.27886962890625 -174.27328491210938 245.3928985595703
v -18.539230346679688 -172.4634552001953 248.21034240722656
v -20.7493896484375 -178.8828887939453 243.43161010742188
v -10.645339965820312 -168.3997802734375 247.28121948242188
v -31.247604370117188 -167.12599182128906 245.333251953125
v -25.292312622070312 -167.54888916015625 245.012451171875
v -26.754058837890625 -169.6973419189453 243.5887451171875
v -23.695114135742188 -169.400634765625 245.1290740966797
v -28.445297241210938 -171.5850372314453 243.68125915527344
v -33.13801574707031 -169.6221466064453 246.7030029296875
v -22.945144653320312 -171.52674865722656 246.02520751953125
v -31.875823974609375 -172.70594787597656 246.01651000976562
v -26.062210083007812 -174.2399444580078 244.68142700195312
v -29.934982299804688 -175.0773468017578 245.948486328125
v 3.291595458984375 -178.02101135253906 250.03663635253906
v 2.917236328125 -180.86434936523438 248.6022186279297
v -17.807846069335938 -181.09368896484375 244.69773864746094
v -15.79681396484375 -181.47447204589844 247.48629760742188
v -1.2495574951171875 -185.36973571777344 249.4477081298828
v -4.570281982421875 -185.7652587890625 248.322998046875
v -24.100067138671875 -166.99459838867188 248.3509521484375
v -22.58111572265625 -168.0861358642578 247.80264282226562
v -28.00885009765625 -166.45278930664062 247.9703826904297
v -4.911224365234375 -170.0714111328125 247.91244506835938
v -24.934356689453125 -176.4353485107422 247.14984130859375
v -22.953994750976562 -176.9162139892578 249.69187927246094
v 2.1797027587890625 -177.2660675048828 248.53573608398438
v -17.950363159179688 -177.2082977294922 248.46646118164062
v -8.979949951171875 -185.12220764160156 251.34320068359375
v -31.409378051757812 -167.45132446289062 248.056640625
v -14.572158813476562 -171.08401489257812 250.7320098876953
v -22.224899291992188 -173.9221954345703 249.82460021972656
v -0.838134765625 -173.54620361328125 247.97952270507812
v -31.811492919921875 -172.71240234375 248.17210388183594
v -30.230026245117188 -175.24114990234375 247.76657104492188
v 0.7837371826171875 -175.75706481933594 252.33033752441406
v -26.926193237304688 -177.98809814453125 249.6622314453125
v 2.088958740234375 -184.53688049316406 251.67042541503906
v -4.0473175048828125 -186.45106506347656 254.89004516601562
v -27.76702880859375 -169.66339111328125 251.53387451171875
v -24.458892822265625 -170.6031951904297 251.46389770507812
v -29.659347534179688 -172.01316833496094 251.17433166503906
v -11.256256103515625 -172.9873504638672 254.71139526367188
v -8.355300903320312 -172.54299926757812 253.81822204589844
v -23.392440795898438 -173.41639709472656 252.04327392578125
v -1.5294342041015625 -174.153564453125 250.79107666015625
v -16.678314208984375 -173.25294494628906 250.3207550048828
v -16.759262084960938 -175.49603271484375 251.41897583007812
v -28.20526123046875 -176.2881317138672 250.42913818359375
v -21.123184204101562 -176.6490020751953 251.54049682617188
v -17.477890014648438 -177.87461853027344 250.33815002441406
v -21.216506958007812 -178.58409118652344 251.7552947998047
v -23.722671508789062 -179.3410186767578 252.66317749023438
v 4.356048583984375 -181.830078125 255.4413604736328
v -15.541671752929688 -181.101318359375 250.22885131835938
v -25.523025512695312 -174.5069122314453 252.5915985107422
v -14.113388061523438 -174.00137329101562 254.5290069580078
v -4.582183837890625 -175.08529663085938 255.5960235595703
v -20.848907470703125 -176.1875457763672 253.2523193359375
v -26.68572998046875 -175.4291229248047 252.16612243652344
v -17.47674560546875 -176.56130981445312 254.1239471435547
v -18.62060546875 -177.67532348632812 252.07916259765625
v -22.871185302734375 -176.53887939453125 254.4724578857422
v 2.5266571044921875 -177.8916015625 255.3939208984375
v -25.2388916015625 -178.15728759765625 253.01637268066406
v -17.756301879882812 -180.34559631347656 252.72303771972656
v -15.106277465820312 -181.9918670654297 254.312255859375
v -7.599090576171875 -174.00489807128906 257.1496276855469
v -20.4051513671875 -179.757568359375 256.2744445800781
v -18.65985107421875 -181.10568237304688 256.5381164550781
v -9.90325927734375 -184.79440307617188 256.9574890136719
v 3.2244110107421875 -184.9070281982422 260.05517578125
v -0.4933624267578125 -186.82809448242188 256.9452209472656
v -7.2618865966796875 -186.03768920898438 255.87533569335938
v 0.3936920166015625 -178.0487518310547 258.6516418457031
v -16.096664428710938 -177.3906707763672 257.1707458496094
v -9.727340698242188 -175.30410766601562 261.4940490722656
v -19.474533081054688 -177.64483642578125 255.79444885253906
v 3.230682373046875 -180.1096954345703 257.3497314453125
v -13.801116943359375 -182.6154327392578 258.28570556640625
v 1.70343017578125 -186.85072326660156 261.576416015625
v -8.961578369140625 -174.2596893310547 260.1603698730469
v -3.8958892822265625 -175.4070587158203 259.172119140625
v -10.799285888671875 -177.13148498535156 262.15423583984375
v -0.834320068359375 -177.8206024169922 260.9622802734375
v -16.17950439453125 -179.9510498046875 258.6844482421875
v -10.005722045898438 -184.81748962402344 260.2364807128906
v -3.703369140625 -188.90505981445312 261.567138671875
v -6.8306121826171875 -188.1653289794922 261.4314880371094
v -4.0856170654296875 -174.29632568359375 264.52142333984375
v 2.523223876953125 -182.7267608642578 261.6317443847656
v -11.107711791992188 -182.5229034423828 262.3353576660156
v -0.199859619140625 -188.37228393554688 262.5959167480469
v -2.1654052734375 -175.6874542236328 265.11663818359375
v -11.484161376953125 -179.73497009277344 262.5136413574219
v -0.7654876708984375 -179.14727783203125 263.7794494628906
v -1.5029754638671875 -180.9061279296875 266.3061828613281
v -9.102996826171875 -185.77401733398438 264.2847595214844
v -4.45794677734375 -190.06686401367188 264.9266052246094
v -3.59735107421875 -174.6262969970703 269.8394775390625
v 0.8995361328125 -185.55357360839844 265.8922424316406
v 0.9423370361328125 -187.50062561035156 265.38916015625
v -6.732330322265625 -188.91976928710938 266.4651184082031
v -5.1714324951171875 -176.37306213378906 270.89471435546875
v -7.490814208984375 -178.96499633789062 268.1736755371094
v -3.03399658203125 -180.9042510986328 267.8232421875
v -9.068328857421875 -183.69911193847656 266.0905456542969
v -3.9188232421875 -189.5597381591797 267.06378173828125
v -4.31707763671875 -176.32723999023438 270.6731262207031
v -4.78790283203125 -181.93283081054688 268.6564025878906
v -6.1470947265625 -182.29258728027344 268.5806884765625
v -3.5553436279296875 -186.236328125 269.2613220214844
v -5.8304595947265625 -186.27708435058594 269.3236389160156
v -4.12176513671875 -188.05902099609375 268.8937683105469
vn -0.0857112780213356 0.13372287154197693 -0.9873053431510925
vn -0.4725167155265808 0.6492326855659485 -0.5960075259208679
vn 0.21537235379219055 0.7316201329231262 -0.6467973589897156
vn 0.4007854163646698 0.36394041776657104 -0.8407844305038452
vn -0.6065566539764404 0.052429698407649994 -0.7933096885681152
vn -0.8811343908309937 0.40417271852493286 -0.24545183777809143
vn 0.0601058155298233 -0.4360433518886566 -0.8979161977767944
vn -0.4337713122367859 -0.5727509260177612 -0.6955565810203552
vn -0.9609400629997253 -0.2348083257675171 -0.14649003744125366
vn 0.8234350681304932 -0.034234751015901566 -0.566376805305481
vn 0.32383573055267334 0.928654670715332 -0.1809171438217163
vn 0.6334448456764221 0.7017266154289246 -0.3260788023471832
vn -0.141427680850029 0.9226571917533875 -0.3587505519390106
vn 0.866905927658081 0.4975045323371887 -0.031039195135235786
vn 0.11146785318851471 -0.8348467946052551 -0.5390787124633789
vn 0.5684571862220764 -0.7374786734580994 -0.36466649174690247
vn -0.2972927689552307 -0.8422031402587891 -0.4497898519039154
vn 0.41201433539390564 -0.8923181295394897 -0.18442495167255402
vn -0.7025291323661804 0.6386981010437012 -0.313875287771225
vn -0.17894652485847473 0.9509275555610657 -0.2524183690547943
vn 0.9758502840995789 0.2155725657939911 0.03528166189789772
vn 0.9255706667900085 -0.37803423404693604 -0.02022632211446762
vn -0.7363125085830688 -0.6534071564674377 -0.17579257488250732
vn -0.15246878564357758 -0.9498364925384521 -0.2730639576911926
vn -0.9848312735557556 0.1351081281900406 -0.10887226462364197
vn -0.9501122832298279 -0.3022937774658203 0.07684524357318878
vn -0.9604426622390747 -0.15704815089702606 -0.22996924817562103
vn -0.7844128012657166 0.6183207631111145 -0.04874349385499954
vn 0.1640186756849289 0.55863356590271 -0.8130353689193726
vn -0.6980628967285156 0.2947276830673218 -0.6525670886039734
vn -0.48716649413108826 -0.7912756204605103 -0.36952894926071167
vn -0.21303966641426086 -0.15250316262245178 -0.9650683403015137
vn 0.6457250118255615 -0.3328280448913574 -0.6872152090072632
vn 0.20076309144496918 -0.9745948910713196 -0.09929301589727402
vn -0.9113355875015259 -0.3181242346763611 -0.26127463579177856
vn -0.07931744307279587 -0.6441220641136169 -0.7607992887496948
vn 0.6437926888465881 0.7645546793937683 0.031417056918144226
vn 0.5824976563453674 0.728984534740448 0.3595525026321411
vn -0.9175323247909546 -0.30164873600006104 -0.25911879539489746
vn 0.9969035387039185 -0.07858305424451828 0.0028615675400942564
vn 0.73506098985672 -0.674066424369812 -0.07293736934661865
vn 0.28171753883361816 -0.9490858316421509 -0.14096574485301971
vn -0.6437103152275085 0.09227272868156433 -0.7596859931945801
vn -0.5566444396972656 0.7934406399726868 -0.24616855382919312
vn -0.6952732801437378 0.5293262600898743 -0.4862188696861267
vn -0.6475310921669006 -0.034164756536483765 -0.7612727880477905
vn -0.8954878449440002 0.30520522594451904 -0.32396188378334045
vn 0.9638646245002747 0.26584145426750183 0.017126623541116714
vn -0.48151034116744995 -0.3917318880558014 -0.784024178981781
vn 0.9834410548210144 -0.15232108533382416 0.09819415956735611
vn -0.3306916654109955 0.6751587986946106 0.6593964099884033
vn 0.9256096482276917 -0.0019659644458442926 0.37847453355789185
vn -0.9138615727424622 0.21641241014003754 0.3435443937778473
vn -0.10608717799186707 -0.966277003288269 -0.23463645577430725
vn 0.8431660532951355 -0.4477003812789917 0.2977171242237091
vn -0.6180235147476196 -0.783588707447052 0.06352761387825012
vn 0.15642403066158295 0.9774651527404785 0.14175140857696533
vn -0.1545388251543045 0.9859095811843872 0.06403213739395142
vn -0.8107746839523315 0.58503258228302 0.01952812448143959
vn 0.8082439303398132 0.5885336399078369 -0.01923397183418274
vn -0.9166039228439331 -0.2291673868894577 -0.3275967538356781
vn -0.6248730421066284 -0.3676336109638214 -0.6887519359588623
vn 0.7125840187072754 0.3076014518737793 0.6305595636367798
vn -0.48356011509895325 -0.7342864871025085 -0.47643783688545227
vn 0.39580661058425903 -0.9162408113479614 -0.06196717545390129
vn -0.45211848616600037 -0.7665314078330994 0.45609050989151
vn 0.4440631866455078 0.8677802681922913 0.2230815291404724
vn -0.9714176654815674 0.23656374216079712 -0.019630588591098785
vn 0.9231563210487366 -0.13950340449810028 -0.3582194745540619
vn 0.1355883926153183 -0.9854925870895386 -0.10207947343587875
vn -0.5908973217010498 0.7824517488479614 0.19649341702461243
vn 0.5735624432563782 0.8022128343582153 0.16577312350273132
vn 0.8487216830253601 0.4367770850658417 -0.2981565296649933
vn 0.2911522686481476 -0.10245204716920853 0.9511750340461731
vn -0.07586076855659485 -0.9968874454498291 0.021461548283696175
vn -0.3310810625553131 0.9069856405258179 0.2603122293949127
vn 0.14474265277385712 0.9666823148727417 0.2111276388168335
vn -0.7703895568847656 0.6186239719390869 0.15428638458251953
vn 0.6391224265098572 0.7629057765007019 -0.09745465964078903
vn 0.7939850687980652 0.47129788994789124 -0.38401302695274353
vn 0.8086962699890137 -0.21567289531230927 -0.5472619533538818
vn 0.4630033075809479 -0.7891990542411804 -0.40347597002983093
vn -0.7249319553375244 -0.684634804725647 -0.07582210004329681
vn -0.9557263851165771 -0.27616071701049805 0.10159926116466522
vn 0.7391449213027954 -0.651520311832428 -0.17083954811096191
vn 0.31568968296051025 -0.9473533630371094 0.053494591265916824
vn 0.17543445527553558 -0.9844764471054077 0.005381416529417038
vn 0.14583106338977814 -0.9867862462997437 -0.07061363011598587
vn -0.9508641362190247 0.25091731548309326 0.18137796223163605
vn 0.42533406615257263 0.9037760496139526 0.047746747732162476
vn 0.6355113983154297 0.7710275650024414 0.04051947593688965
vn 0.9941369295120239 0.04235864803195 0.09948666393756866
vn 0.20572145283222198 -0.9712311625480652 0.1199532225728035
vn -0.5896129012107849 -0.7683817744255066 0.2488899677991867
vn -0.7484564185142517 0.605176568031311 0.271246075630188
vn 0.620293140411377 -0.6582573652267456 0.42653688788414
vn 0.28215211629867554 -0.8903273940086365 0.35736164450645447
vn 0.06050065904855728 0.9897134304046631 -0.12964178621768951
vn -0.3598863482475281 0.9302880167961121 0.07103593647480011
vn 0.4664033055305481 0.8712607026100159 -0.15288172662258148
vn -0.9290228486061096 -0.029472772032022476 0.3688468039035797
vn -0.8346847295761108 -0.4160752296447754 0.3608085513114929
vn 0.23560550808906555 -0.9405525326728821 0.24464479088783264
vn -0.22835339605808258 -0.9246295690536499 0.3048195242881775
vn 0.9558329582214355 0.2265811264514923 0.1872013658285141
vn 0.6910499334335327 0.6237726211547852 -0.3651818335056305
vn -0.7423776984214783 0.6504849195480347 0.16045157611370087
vn -0.9426720142364502 0.21469654142856598 0.25548967719078064
vn 0.6205195188522339 -0.7649859189987183 0.17248806357383728
vn -0.6352261900901794 -0.6605710983276367 0.40016689896583557
vn 0.21618600189685822 0.8556944131851196 -0.4701603651046753
vn 0.9616285562515259 -0.1237776130437851 -0.24484622478485107
vn -0.9104802012443542 -0.27631571888923645 0.3076937794685364
vn 0.2469402700662613 -0.9587123990058899 0.14103545248508453
vn -0.09472084790468216 -0.9622658491134644 0.25509294867515564
vn 0.6711132526397705 0.5265054702758789 -0.5219186544418335
vn -0.6052100658416748 0.7960538864135742 0.00436513964086771
vn 0.5188714861869812 -0.850710391998291 0.0840488076210022
vn -0.47533518075942993 -0.8488020896911621 0.23149843513965607
vn 0.5792236924171448 0.5987951159477234 -0.5531224608421326
vn -0.18430212140083313 0.884615957736969 -0.428354412317276
vn -0.453567236661911 0.866533100605011 -0.20831987261772156
vn -0.8775601387023926 0.47863560914993286 -0.028217144310474396
vn 0.8128049373626709 -0.5813489556312561 -0.037170447409152985
vn 0.9580614566802979 -0.13530145585536957 -0.2526099681854248
vn 0 -0 0
vn 0 -0 0
vn 0 -0 0
vn 0 -0 0
vn 0.5836052894592285 0.681623637676239 -0.4413549602031708
vn 0.042314060032367706 0.9006016254425049 -0.43258100748062134
vn 0.8375239968299866 0.33101868629455566 -0.4347185492515564
vn -0.9206066727638245 -0.3684806227684021 0.12924924492835999
vn 0 -0 0
vn 0.5860545635223389 -0.7974687814712524 0.1434699445962906
vn -0.014382081106305122 -0.9831368327140808 0.18230505287647247
vn 0 -0 0
vn 0 1 0
vn 0 -0 0
vn 0 -0 0
vn 0 -1 0
vn 0.9118537902832031 0.13614864647388458 -0.38728073239326477
vn -0.37570685148239136 0.8710373640060425 -0.31644633412361145
vn -0.6686233282089233 0.7283912897109985 -0.1496298760175705
vn 0.8336271643638611 -0.5474932789802551 -0.07291749119758606
vn 0.6554205417633057 -0.7339432835578918 0.17818878591060638
vn -0.9973058700561523 -0.00358023215085268 0.07326887547969818
vn 0 -0 0
vn 0.38563334941864014 0.8101420998573303 -0.44153892993927
vn 0.06006361171603203 0.9604558944702148 -0.2718765437602997
vn -0.9121744632720947 0.4096314609050751 0.01182751078158617
vn 0.3887784481048584 -0.8664067387580872 0.313353955745697
vn 0.07366330921649933 -0.9731011390686035 0.21828415989875793
vn -0.22113260626792908 0.9596238136291504 -0.17384615540504456
vn 0.8081938624382019 0.060821596533060074 -0.5857674479484558
vn -0.4600624144077301 0.881040632724762 -0.11004555225372314
vn -0.36163291335105896 -0.8913430571556091 0.27336665987968445
vn -0.7173651456832886 -0.5761849880218506 0.3916608393192291
vn 0.16476574540138245 0.9244362115859985 -0.34390413761138916
vn 0.41045212745666504 0.6440269947052002 -0.6455682516098022
vn -0.8587155938148499 0.5051069855690002 0.08645524084568024
vn 0.24916955828666687 -0.9474570751190186 -0.2005983144044876
vn -0.12360775470733643 0.9646486639976501 -0.23275330662727356
vn 0.4521865248680115 0.31263452768325806 -0.835336446762085
vn 0.36153000593185425 -0.32109054923057556 -0.8753268122673035
vn 0.5086103677749634 -0.6129110455513 -0.604694664478302
vn -0.939717173576355 -0.005606992170214653 0.34190672636032104
vn 0.43827953934669495 -0.8712561130523682 0.22096110880374908
vn -0.03574363887310028 -0.8838430047035217 0.46641600131988525
vn 0.3542892634868622 0.7137097716331482 -0.6042329668998718
vn -0.7066748738288879 0.7061687707901001 0.04400298744440079
vn 0.1717843860387802 -0.9756878614425659 -0.13610044121742249
vn -0.04624221473932266 -0.9708845019340515 -0.23504255712032318
vn -0.8930410146713257 0.3321767747402191 0.3035396635532379
vn 0.12200068682432175 -0.8401737809181213 0.5284164547920227
vn -0.0031045442447066307 0.909222424030304 -0.4162992238998413
vn 0.15830707550048828 0.8713425397872925 -0.464436411857605
vn -0.3918887972831726 0.9067128300666809 -0.15586858987808228
vn -0.6734872460365295 0.738324761390686 0.03593926504254341
vn 0.7509417533874512 0.2984773814678192 -0.5890651345252991
vn 0.6754449605941772 -0.7151949405670166 -0.17963971197605133
vn 0.8868553638458252 -0.39783570170402527 -0.23497739434242249
vn -0.7602550983428955 -0.2794439494609833 0.5864496827125549
vn 0.2801588773727417 -0.8817165493965149 0.37958788871765137
vn -0.407575398683548 -0.6529080867767334 0.6384304165840149
vn -0.3159312605857849 0.87083500623703 -0.37660840153694153
vn 0.596580982208252 0.4715544283390045 -0.6494055390357971
vn -0.17128288745880127 -0.9835419654846191 -0.05751021206378937
vn 0.009918679483234882 -0.9860165119171143 0.16635246574878693
vn 0.2787055969238281 0.7851927280426025 -0.5529878735542297
vn -0.7398781776428223 0.6601090431213379 -0.12975500524044037
vn 0.8963614702224731 -0.016279058530926704 -0.44302502274513245
vn 0.8491671085357666 -0.5205358266830444 -0.08920659869909286
vn 0.5510091185569763 -0.8154904246330261 0.17709997296333313
vn -0.899689793586731 0.10547640919685364 0.4235953986644745
vn -0.01032126322388649 -0.9923065304756165 0.12337473034858704
vn -0.037619419395923615 -0.806280791759491 0.5903355479240417
vn -0.5016458630561829 -0.596465528011322 0.626562237739563
vn -0.4182775020599365 0.8017966151237488 -0.42680928111076355
vn -0.1220896765589714 0.8094760775566101 -0.5743192434310913
vn 0.05392132326960564 0.917650580406189 -0.3937130868434906
vn 0.7860439419746399 0.3319280445575714 -0.5214967131614685
vn 0.15507233142852783 0.8876975178718567 -0.4335271418094635
vn -0.892975389957428 -0.183272123336792 0.4111037850379944
vn -0.09655261039733887 -0.897606372833252 0.43009352684020996
vn 0.2951645255088806 0.9390421509742737 -0.17628875374794006
vn 0.9594998359680176 0.09280543029308319 0.26598358154296875
vn -0.09620494395494461 -0.9349753856658936 0.34141725301742554
vn 0.10442899167537689 -0.915744423866272 0.3879520893096924
vn 0.16542695462703705 0.7700813412666321 -0.6161238551139832
vn 0.1405031830072403 0.8850305676460266 -0.4438241124153137
vn 0.22555601596832275 0.9292365312576294 -0.29265010356903076
vn -0.7651777267456055 0.60067218542099 -0.23172393441200256
vn 0.5536360740661621 -0.7569968104362488 0.34704890847206116
vn -0.9810249209403992 0.1360534280538559 0.13812892138957977
vn -0.4868146479129791 -0.6998117566108704 0.5227572321891785
vn 0.8225186467170715 0.5617251396179199 0.08903924375772476
vn 0.2650642693042755 -0.7791903018951416 0.5679819583892822
vn -0.011174403131008148 -0.8571903109550476 0.5148786306381226
vn -0.24402344226837158 -0.8123528361320496 0.5296559929847717
vn 0.4470946788787842 0.3889157474040985 -0.8055127859115601
vn 0.07070934772491455 0.5904104709625244 -0.8039997816085815
vn 0.2704838216304779 0.7563580870628357 -0.5956181287765503
vn 0.6622941493988037 0.6076662540435791 -0.4383014440536499
vn -0.5381988286972046 0.7479265928268433 -0.3885200321674347
vn -0.9286149144172668 0.3676348328590393 -0.05019012466073036
vn -0.7092940807342529 -0.5017066597938538 0.4951689839363098
vn 0.6228774189949036 -0.44582420587539673 0.6428565979003906
vn -0.18945711851119995 0.6589955687522888 -0.7278949022293091
vn -0.42916813492774963 0.7460664510726929 -0.5091164112091064
vn 0.8091937899589539 0.08013749122619629 0.5820510387420654
vn -0.9664275050163269 -0.13350039720535278 0.2195347100496292
vn -0.005531093571335077 -0.8402034044265747 0.542243242263794
vn 0.03816313296556473 0.5265853404998779 -0.8492652773857117
vn -0.2814675569534302 0.7082537412643433 -0.6474200487136841
vn -0.504244327545166 0.7496985793113708 -0.4285903871059418
vn 0.47886016964912415 0.29189231991767883 -0.8279443979263306
vn 0.7513705492019653 -0.03915322571992874 -0.6587179899215698
vn -0.7079591155052185 0.6867660880088806 -0.164761021733284
vn 0.9409751296043396 -0.07958856970071793 -0.32898542284965515
vn 0.8862462043762207 -0.3720841407775879 0.27590039372444153
vn 0.5458143949508667 -0.606996476650238 0.5776175856590271
vn 0.2339075654745102 -0.803090512752533 0.5480263233184814
vn -0.2991698384284973 -0.7747607231140137 0.5569948554039001
vn -0.2849618196487427 0.638002872467041 -0.7153664231300354
vn 0.12998057901859283 0.5402485728263855 -0.8314063549041748
vn 0.8432027101516724 -0.04400397092103958 -0.5357919335365295
vn 0.9050977230072021 -0.35277268290519714 -0.23738065361976624
vn 0.8060845732688904 -0.5843400359153748 0.09367180615663528
vn -0.9414708614349365 0.2505488395690918 0.22551710903644562
vn -0.8170305490493774 -0.4296460747718811 0.38453271985054016
vn 0.5124085545539856 0.2478158175945282 -0.8222072720527649
vn -0.3742895722389221 0.7916176319122314 -0.48295846581459045
vn -0.5188488364219666 0.7653487324714661 -0.3808373808860779
vn 0.9407421350479126 -0.3097441494464874 -0.1380680799484253
vn -0.7632128596305847 0.5792255401611328 0.28636348247528076
vn 0.5737066268920898 -0.7479076981544495 0.3339083790779114
vn 0.1698860079050064 -0.8026272654533386 0.5717764496803284
vn -0.6883761882781982 0.7069622874259949 -0.16230429708957672
vn -0.054190266877412796 0.7949910759925842 -0.6041958332061768
vn -0.25656160712242126 0.42285770177841187 -0.869118869304657
vn -0.6041185259819031 0.7340243458747864 -0.31024035811424255
vn 0.44398757815361023 0.35535991191864014 -0.8225536346435547
vn -0.5843205451965332 0.7945786714553833 -0.16496782004833221
vn 0.6885548830032349 0.3753332197666168 -0.6204975247383118
vn 0.9117393493652344 -0.11226434260606766 -0.3951304852962494
vn -0.6884099841117859 0.7237523198127747 -0.04769071936607361
vn 0.880797266960144 -0.43386921286582947 0.18961480259895325
vn 0.6555197834968567 -0.6946846842765808 0.29615363478660583
vn -0.2088531106710434 -0.8178725242614746 0.5361575484275818
vn -0.6498714089393616 -0.3559264540672302 0.6715530753135681
vn 0.2433507740497589 0.8039515614509583 -0.5426254272460938
vn 0.9802285432815552 0.03361758962273598 -0.19499202072620392
vn 0.9370481967926025 -0.2596244215965271 0.2335292398929596
vn -0.6650820970535278 0.6680953502655029 0.3336382508277893
vn -0.6275590062141418 0.6068322062492371 0.48777487874031067
vn 0.6777454018592834 -0.45821845531463623 0.5750625729560852
vn -0.8268148899078369 0.19681277871131897 0.5269173979759216
vn 0.39650800824165344 -0.6846532821655273 0.611581027507782
vn 0.9352039098739624 0.2718634307384491 -0.2269008606672287
vn 0.9570832848548889 -0.11044970154762268 0.26794111728668213
vn -0.3348845839500427 0.9326180815696716 0.13444635272026062
vn -0.7995602488517761 0.5648305416107178 -0.2041323333978653
vn -0.6405333876609802 0.6414840817451477 0.42215532064437866
vn 0.781110405921936 -0.275813490152359 0.5601727366447449
vn -0.05429636687040329 0.7801522612571716 -0.6232289671897888
vn 0.8980475068092346 0.31218045949935913 -0.3099258244037628
vn 0.8288334608078003 -0.2717607617378235 0.48906153440475464
vn -0.6264145374298096 0.5871922373771667 0.512650191783905
vn -0.925990104675293 0.19472980499267578 0.32345420122146606
vn -0.414714515209198 0.3351101875305176 0.8459982872009277
vn -0.01636817306280136 -0.04579551890492439 0.9988167881965637
vn -0.25433093309402466 0.1577184647321701 0.9541701674461365
vn 0.3254324793815613 -0.22504055500030518 0.9183955788612366
vn 0.2905426323413849 -0.32698696851730347 0.8992577791213989
vn -0.14474472403526306 -0.03629264235496521 0.9888032674789429
vn -0.5291357636451721 0.18404333293437958 0.8283377885818481
vn 0.14076527953147888 -0.39377275109291077 0.9083656668663025
vn -0.15518973767757416 -0.5136821866035461 0.8438286185264587
vn 0.7118154168128967 -0.36135655641555786 0.6022792458534241
vn -0.13196778297424316 -0.2535055875778198 0.9582898616790771
vn -0.3759694993495941 -0.37720754742622375 0.846381425857544
vn 0.940522313117981 0.2997584044933319 0.15988335013389587
vn -0.5148953199386597 0.8290948867797852 -0.2179095447063446
vn -0.808290421962738 0.5114138126373291 0.2917575538158417
vn 0.2569316029548645 0.6463258266448975 -0.718504786491394
vn -0.6230179667472839 0.5838537216186523 -0.5205416083335876
vn 0.9776042103767395 -0.21045120060443878 -0.0005938210524618626
vn 0.11268401145935059 -0.6141170263290405 0.7811291217803955
vn 0.6987081170082092 0.0634998232126236 -0.7125831842422485
vn 0.8044348359107971 0.5903444290161133 0.06616785377264023
vn 0.06426534056663513 0.0627722218632698 -0.9959566593170166
vn -0.5004463791847229 0.05836410075426102 -0.8637980222702026
vn 0.651868999004364 0.6774154305458069 -0.34084492921829224
vn 0.5078352689743042 0.3705032467842102 -0.7777086496353149
vn 0.39613693952560425 0.6377235651016235 -0.6605938076972961
vn -0.9404299259185791 -0.09937192499637604 -0.32514137029647827
vn -0.7953920960426331 0.489719033241272 0.3571089208126068
vn 0.24586206674575806 0.2341586798429489 -0.9405964016914368
vn -0.3940693438053131 -0.24666514992713928 -0.8853618502616882
vn -0.040270786732435226 -0.21111749112606049 -0.9766308069229126
vn 0.19273822009563446 -0.018314003944396973 -0.9810792803764343
vn -0.5311232209205627 -0.6802162528038025 -0.5051871538162231
vn -0.045423246920108795 -0.5204929709434509 -0.8526569604873657
vn 0.13573168218135834 -0.3991619050502777 -0.9067782163619995
vn -0.38395845890045166 -0.9087993502616882 -0.16327787935733795
vn 0.2179393619298935 0.9733685255050659 -0.07110662758350372
vn -0.20689953863620758 0.5242874622344971 0.8260238170623779
vn 0.5091055631637573 0.8152569532394409 0.27598482370376587
vn 0.3198310136795044 0.9444373250007629 -0.07580433785915375
vn 0.1973852813243866 0.43861404061317444 -0.8767307996749878
vn 0.07532995939254761 0.8050629496574402 -0.5883867740631104
vn 0.11563697457313538 0.5310081243515015 -0.8394394516944885
vn 0.2711102366447449 0.17811766266822815 -0.9459246397018433
vn 0.28276827931404114 -0.19070228934288025 -0.9400397539138794
vn -0.8040513396263123 -0.4560927450656891 0.38141965866088867
vn -0.05405839905142784 -0.7297027707099915 -0.6816242933273315
vn 0.19730043411254883 -0.6058497428894043 -0.7707260847091675
vn -0.23186521232128143 -0.8783412575721741 -0.4180372953414917
vn -0.7933039665222168 -0.01525118201971054 0.6086347103118896
vn 0.6870577335357666 -0.2890048027038574 0.6666542887687683
vn 0.20989981293678284 0.7235725522041321 0.657559871673584
vn -0.38303089141845703 0.4900108873844147 0.7830560207366943
vn 0.3077229857444763 0.6070969104766846 -0.7326253652572632
vn -0.03428662568330765 0.8153015375137329 -0.5780206918716431
vn 0.06018064171075821 0.939835786819458 -0.33628419041633606
vn -0.8006055951118469 0.10582400113344193 0.5897728204727173
vn -0.2027052640914917 0.9741390943527222 -0.09981837868690491
vn 0.45950210094451904 0.07312747091054916 -0.8851611614227295
vn 0.3537304997444153 -0.2918585538864136 -0.8886469006538391
vn -0.580070436000824 -0.6861019730567932 0.43907004594802856
vn -0.3968859314918518 -0.9168495535850525 -0.04322689026594162
vn -0.529163658618927 -0.7907204031944275 0.3078102171421051
vn -0.18364156782627106 -0.9343759417533875 -0.30531519651412964
vn 0.3769005835056305 0.8997272253036499 -0.22008392214775085
vn -0.10241422802209854 0.44955727458000183 0.8873610496520996
vn 0.603699803352356 0.5173706412315369 -0.6065263152122498
vn 0.05049877613782883 0.8755666017532349 0.48045092821121216
vn -0.45013532042503357 -0.04520255699753761 0.8918155431747437
vn 0.7182339429855347 0.1356399655342102 -0.6824527978897095
vn 0.5232805013656616 -0.31829336285591125 -0.7904852032661438
vn -0.5717024803161621 -0.5014654397964478 0.6493756771087646
vn -0.4769435524940491 -0.7556931972503662 0.4488348066806793
vn 0.34748375415802 -0.6970071792602539 -0.627244770526886
vn 0.1682746559381485 -0.8768564462661743 -0.4503403902053833
vn -0.03728361800312996 -0.9937045574188232 -0.10564650595188141
vn 0.007117976434528828 0.9991174340248108 0.04139809310436249
vn 0.5653983354568481 0.7654416561126709 -0.30728471279144287
vn -0.4306259751319885 0.8268610239028931 0.36174869537353516
vn -0.3604091703891754 0.49648013710975647 0.7896915674209595
vn -0.6462652683258057 0.5196183919906616 0.5588721632957458
vn -0.17692863941192627 0.2049136757850647 0.9626560807228088
vn -0.49616891145706177 0.025385960936546326 0.8678548336029053
vn -0.5810285210609436 -0.7583407163619995 0.29550856351852417
vn 0.48510923981666565 -0.6099963784217834 -0.6265568733215332
vn 0.194301575422287 -0.9064204692840576 -0.37503182888031006
vn -0.4079992175102234 0.8692088723182678 0.27930742502212524
vn -0.24523602426052094 0.955376148223877 0.16466882824897766
vn 0.764651358127594 0.4650018513202667 -0.4461856186389923
vn -0.5754268765449524 0.7053579092025757 0.41394948959350586
vn -0.7381203174591064 0.11866239458322525 0.6641518473625183
vn 0.7595383524894714 -0.16926772892475128 -0.6280525326728821
vn -0.4439164400100708 -0.8735913038253784 0.1994403451681137
vn -0.05032756179571152 -0.9908796548843384 -0.12499889731407166
vn 0.21137462556362152 0.9773699641227722 0.008295886218547821
vn 0.4080214202404022 0.903050422668457 -0.13423295319080353
vn 0.635420024394989 0.73306804895401 -0.2425956428050995
vn 0.8736965656280518 0.12595923244953156 -0.4698813855648041
vn -0.7320458889007568 -0.29775166511535645 0.6127421259880066
vn -0.7087571024894714 -0.5309889316558838 0.46445032954216003
vn 0.7255802750587463 -0.3781237006187439 -0.5749398469924927
vn 0.5922296047210693 -0.6632148623466492 -0.45761358737945557
vn -0.5724623203277588 0.7069974541664124 0.41526079177856445
vn -0.8335844874382019 -0.16805629432201385 0.5262072086334229
vn 0.8992165923118591 -0.10975024849176407 -0.4235145151615143
vn -0.7267813682556152 -0.5727611780166626 0.37912213802337646
vn -0.07332809269428253 -0.9699510931968689 -0.23198716342449188
vn -0.3364199995994568 -0.9239367842674255 0.18210545182228088
vn 0.007048462983220816 0.988031268119812 0.15409284830093384
vn -0.21009162068367004 0.9410302639007568 0.2651861011981964
vn 0.4183928668498993 0.9052364826202393 -0.0741237923502922
vn -0.7930437922477722 0.32780587673187256 0.513444185256958
vn 0.8621470332145691 0.4206661880016327 -0.2823871076107025
vn -0.8370141386985779 0.0812823474407196 0.5411105155944824
vn 0.3208822011947632 -0.8814737200737 -0.34646621346473694
vn 0.18882431089878082 0.9745826125144958 0.12055762857198715
vn 0.7933060526847839 -0.4630981981754303 -0.3952285945415497
vn -0.3586185574531555 -0.9291479587554932 0.0898713618516922
vn -0.5923082232475281 -0.6878451108932495 0.4195713996887207
vn 0.1520320028066635 -0.9592337608337402 -0.23823708295822144
vn 0.7146904468536377 0.6933480501174927 -0.09212043136358261
vn 0.8961101770401001 0.33456483483314514 -0.29163849353790283
vn 0.5033718347549438 -0.8060550689697266 -0.3112747371196747
vn -0.14709773659706116 -0.9860929250717163 -0.07735083252191544
vn -0.20014193654060364 0.9348587393760681 0.2932276129722595
vn 0.5808460116386414 0.7833532691001892 0.22130435705184937
vn -0.6090130805969238 0.6253977417945862 0.4878326654434204
vn 0.8474144339561462 0.5233513712882996 -0.08939928561449051
vn -0.8096218705177307 0.17909125983715057 0.5589621663093567
vn -0.7874081134796143 -0.3169582784175873 0.5287021398544312
vn 0.027859827503561974 0.9124452471733093 0.4082494080066681
vn -0.3953202962875366 0.6940820813179016 -0.601641058921814
vn 0.321487158536911 0.7602226734161377 -0.5645419359207153
vn 0.22895604372024536 0.09009918570518494 -0.9692581295967102
vn 0.6516456007957458 0.2041575014591217 -0.7305325865745544
vn -0.3220207393169403 -0.16372253000736237 -0.932468593120575
vn -0.9948810338973999 0.05846601352095604 -0.08242228627204895
vn 0.775571346282959 -0.19111932814121246 -0.6016332507133484
vn -0.8029810786247253 -0.43647319078445435 -0.40584802627563477
vn 0.23453831672668457 -0.433136522769928 -0.8702784180641174
vn -0.3854246139526367 -0.7029197216033936 -0.5977890491485596
vn 0.8856058716773987 0.4373711347579956 -0.15623289346694946
vn 0.9165972471237183 -0.2232782244682312 -0.33165693283081055
vn -0.5530848503112793 -0.7044594287872314 0.4447855055332184
vn -0.7661106586456299 -0.6137984395027161 0.19059377908706665
vn 0.24215178191661835 -0.9506532549858093 -0.1939612329006195
vn -0.019517894834280014 -0.9968535304069519 -0.07682518661022186
vn 0.34431007504463196 0.8653501272201538 0.36417001485824585
vn 0.8953917622566223 0.4437786340713501 0.03652579337358475
vn -0.05173474922776222 0.9774579405784607 0.20469380915164948
vn 0.30365926027297974 0.8715623617172241 0.384928822517395
vn 0.30736634135246277 -0.7214921712875366 -0.6204635500907898
vn 0.6411412954330444 -0.4412878453731537 -0.6278558373451233
vn 0.7567154765129089 0.6469451785087585 -0.09404116123914719
vn -0.8765848278999329 -0.2650916874408722 0.4016534388065338
vn -0.3786325752735138 -0.9249950647354126 0.03196213021874428
vn -0.5807150602340698 0.6359732151031494 0.5082403421401978
vn -0.4363178610801697 0.6566146612167358 0.6152104139328003
vn 0.9771570563316345 0.15073856711387634 -0.14980696141719818
vn 0.7135003805160522 0.6886905431747437 0.12892867624759674
vn -0.854745626449585 -0.39311981201171875 0.33892005681991577
vn -0.7555575966835022 -0.6516276001930237 0.06718763709068298
vn 0.5348919034004211 0.819904088973999 0.2040785253047943
vn -0.44748613238334656 -0.8851643204689026 -0.12743738293647766
vn 0.6684701442718506 -0.7020260095596313 -0.24557523429393768
vn -0.05320138856768608 -0.9696509838104248 -0.2386348694562912
vn -0.12514089047908783 0.49462366104125977 0.8600506782531738
vn 0.3556517958641052 0.42486482858657837 0.832467257976532
vn -0.6103668808937073 -0.029320742934942245 0.7915760278701782
vn -0.1516011506319046 0.8867954015731812 0.4365902841091156
vn 0.2753923535346985 0.841947615146637 0.463986337184906
vn 0.48995745182037354 0.5197120904922485 0.6998864412307739
vn 0.4581225514411926 0.7981100678443909 0.3913364112377167
vn -0.5865712761878967 0.3955939710140228 0.7067103981971741
vn -0.8341037631034851 0.44784417748451233 0.3220351040363312
vn -0.7111942768096924 -0.5220563411712646 0.47080764174461365
vn 0.7056137323379517 0.17514082789421082 -0.6866112947463989
vn -0.9537734985351562 -0.2250683605670929 -0.1991492062807083
vn 0.21350440382957458 -0.39589035511016846 -0.8931331038475037
vn -0.2821912467479706 -0.9361298084259033 -0.2098311185836792
vn 0.9982649683952332 0.038443297147750854 0.04459943622350693
vn -0.847811222076416 -0.5170472264289856 -0.11780676990747452
vn -0.16895638406276703 0.2358839362859726 0.9569809436798096
vn -0.5403856635093689 0.7249377965927124 0.42713993787765503
vn 0.398233562707901 0.8863847255706787 0.23607660830020905
vn 0.5325654149055481 0.8458452820777893 0.03032909892499447
vn -0.5440805554389954 -0.06721021234989166 0.8363367319107056
vn -0.305665522813797 0.9265325665473938 0.21933084726333618
vn -0.28312256932258606 0.46894294023513794 -0.8366206884384155
vn -0.2134493738412857 0.5030838847160339 0.8374640345573425
vn 0.7482275366783142 0.6196933388710022 0.236929789185524
vn -0.653896689414978 -0.3823654055595398 0.6528520584106445
vn -0.3913671374320984 -0.6265285611152649 -0.6740131974220276
vn -0.4897150993347168 -0.8648497462272644 -0.11051739752292633
vn 0.18804916739463806 0.9746702313423157 0.12105966359376907
vn -0.5303428173065186 -0.11489653587341309 0.8399614691734314
vn -0.5365110635757446 -0.6898473501205444 0.4860726296901703
vn -0.4611581265926361 -0.8872271776199341 -0.01269562542438507
vn 0.9383825063705444 -0.31170815229415894 0.14925266802310944
vn 0.2744969427585602 -0.928875744342804 -0.2486792504787445
vn -0.36363551020622253 -0.9215213656425476 -0.13626272976398468
vn 0.5898040533065796 0.7479071021080017 0.3045756220817566
vn -0.4987555742263794 0.608738362789154 0.6169931292533875
vn -0.5400528907775879 0.7283018827438354 0.42180484533309937
vn -0.21513499319553375 0.6515198349952698 0.7274880409240723
vn 0.7998033761978149 0.4829593002796173 0.35646167397499084
vn -0.45954272150993347 -0.878722071647644 0.12910526990890503
vn 0.6305872201919556 -0.7687677145004272 -0.10656476020812988
vn -0.22466158866882324 0.9437628984451294 0.24256716668605804
vn 0.526049792766571 0.849186897277832 -0.04640341177582741
vn -0.7116930484771729 0.3877808749675751 0.5857636332511902
vn 0.7364055514335632 0.6652922034263611 0.12285469472408295
vn -0.5912190675735474 0.13035979866981506 0.7959060072898865
vn -0.6809002161026001 -0.7318469285964966 0.02783934958279133
vn 0.029022637754678726 -0.9463496804237366 -0.3218384087085724
vn -0.432752400636673 -0.8659481406211853 -0.25071731209754944
vn 0.41028979420661926 0.909673810005188 -0.06446608155965805
vn 0.8492341637611389 0.3347563147544861 0.40833765268325806
vn -0.766755223274231 -0.4798438549041748 0.4264228343963623
vn 0.41204947233200073 -0.9000014662742615 -0.1421710103750229
vn 0.7855360507965088 0.6187467575073242 0.00924250390380621
vn -0.7519329786300659 0.033593688160181046 0.6583831310272217
vn 0.8318814635276794 0.4120182991027832 0.3717717230319977
vn 0.7040379643440247 0.4120408296585083 0.578405499458313
vn -0.8664910197257996 -0.44155293703079224 0.23286138474941254
vn 0.014947984367609024 -0.9988519549369812 -0.04551204293966293
vn 0.3723137676715851 0.7925817370414734 0.48290446400642395
vn 0.7840666770935059 0.09932918846607208 0.6126770973205566
vn 0.6822106242179871 -0.6204058527946472 0.3868918716907501
vn -0.6416566967964172 -0.6961595416069031 0.32192960381507874
vn -0.42215418815612793 0.17972315847873688 0.888529896736145
vn -0.6718553900718689 0.08531977981328964 0.7357519865036011
vn 0.6765080094337463 0.11718375980854034 0.7270522117614746
vn -0.8362275958061218 -0.1962602287530899 0.5120599269866943
vn 0.09202105551958084 -0.8956302404403687 0.4351765513420105
vn 0.5107403993606567 -0.11233052611351013 0.8523650169372559
vn 0.1934944987297058 -0.08887168020009995 0.9770679473876953
vn -0.14374852180480957 -0.04888653755187988 0.9884060621261597
vn 0.37576988339424133 -0.03478362411260605 0.9260600209236145
vn -0.29548773169517517 -0.1058894544839859 0.9494600892066956
vn 0.07603687793016434 -0.5737422108650208 0.8154987692832947
f 1//1 2//2 3//3
f 1//1 3//3 4//4
f 5//5 2//2 1//1
f 6//6 2//2 5//5
f 1//1 4//4 7//7
f 5//5 1//1 8//8
f 6//6 5//5 9//9
f 7//7 4//4 10//10
f 7//7 8//8 1//1
f 9//9 5//5 8//8
f 3//3 11//11 12//12
f 13//13 11//11 3//3
f 3//3 2//2 13//13
f 3//3 12//12 4//4
f 12//12 14//14 10//10
f 12//12 10//10 4//4
f 10//10 15//15 7//7
f 16//16 15//15 10//10
f 7//7 17//17 8//8
f 15//15 17//17 7//7
f 15//15 16//16 18//18
f 13//13 19//19 20//20
f 19//19 13//13 2//2
f 2//2 6//6 19//19
f 14//14 21//21 10//10
f 16//16 10//10 22//22
f 17//17 23//23 8//8
f 23//23 9//9 8//8
f 15//15 18//18 24//24
f 15//15 24//24 17//17
f 6//6 25//25 19//19
f 6//6 9//9 25//25
f 10//10 21//21 22//22
f 26//26 27//27 9//9
f 28//28 29//29 30//30
f 26//26 9//9 23//23
f 18//18 16//16 22//22
f 31//31 23//23 17//17
f 32//32 29//29 33//33
f 30//30 29//29 32//32
f 24//24 18//18 34//34
f 32//32 35//35 30//30
f 36//36 32//32 33//33
f 35//35 32//32 36//36
f 13//13 20//20 11//11
f 11//11 37//37 12//12
f 27//27 25//25 9//9
f 29//29 28//28 38//38
f 23//23 39//39 26//26
f 29//29 40//40 33//33
f 18//18 22//22 41//41
f 39//39 23//23 31//31
f 28//28 30//30 35//35
f 31//31 17//17 24//24
f 42//42 33//33 40//40
f 42//42 36//36 33//33
f 35//35 36//36 42//42
f 19//19 43//43 44//44
f 20//20 19//19 44//44
f 43//43 45//45 44//44
f 19//19 25//25 43//43
f 46//46 45//45 43//43
f 45//45 46//46 47//47
f 21//21 14//14 48//48
f 43//43 25//25 27//27
f 39//39 27//27 26//26
f 43//43 27//27 49//49
f 49//49 46//46 43//43
f 21//21 50//50 22//22
f 38//38 40//40 29//29
f 51//51 38//38 28//28
f 52//52 40//40 38//38
f 22//22 50//50 41//41
f 28//28 53//53 51//51
f 53//53 28//28 35//35
f 18//18 41//41 34//34
f 54//54 24//24 34//34
f 31//31 24//24 54//54
f 42//42 40//40 55//55
f 56//56 35//35 42//42
f 11//11 57//57 37//37
f 20//20 58//58 11//11
f 11//11 58//58 57//57
f 20//20 44//44 58//58
f 45//45 47//47 59//59
f 12//12 37//37 14//14
f 14//14 60//60 48//48
f 39//39 49//49 27//27
f 61//61 47//47 46//46
f 62//62 61//61 46//46
f 21//21 48//48 50//50
f 62//62 46//46 49//49
f 38//38 63//63 52//52
f 51//51 63//63 38//38
f 49//49 39//39 31//31
f 62//62 49//49 64//64
f 41//41 65//65 34//34
f 40//40 52//52 55//55
f 55//55 66//66 42//42
f 56//56 66//66 35//35
f 42//42 66//66 56//56
f 57//57 67//67 37//37
f 59//59 44//44 45//45
f 68//68 47//47 61//61
f 48//48 69//69 50//50
f 69//69 41//41 50//50
f 49//49 31//31 64//64
f 64//64 61//61 62//62
f 34//34 70//70 54//54
f 64//64 31//31 54//54
f 53//53 35//35 66//66
f 44//44 71//71 58//58
f 44//44 59//59 71//71
f 37//37 72//72 60//60
f 72//72 37//37 67//67
f 37//37 60//60 14//14
f 47//47 68//68 59//59
f 48//48 73//73 69//69
f 63//63 51//51 74//74
f 51//51 53//53 74//74
f 70//70 34//34 65//65
f 64//64 54//54 75//75
f 63//63 74//74 52//52
f 53//53 66//66 74//74
f 52//52 74//74 55//55
f 55//55 74//74 66//66
f 58//58 76//76 57//57
f 71//71 76//76 58//58
f 77//77 72//72 67//67
f 71//71 78//78 76//76
f 71//71 59//59 78//78
f 48//48 60//60 73//73
f 78//78 59//59 68//68
f 73//73 79//79 80//80
f 73//73 80//80 69//69
f 69//69 80//80 81//81
f 69//69 81//81 82//82
f 69//69 82//82 41//41
f 61//61 83//83 84//84
f 61//61 64//64 83//83
f 68//68 61//61 84//84
f 81//81 85//85 82//82
f 41//41 82//82 65//65
f 82//82 70//70 65//65
f 82//82 85//85 86//86
f 87//87 82//82 86//86
f 70//70 82//82 87//87
f 70//70 88//88 54//54
f 75//75 54//54 88//88
f 83//83 64//64 75//75
f 57//57 77//77 67//67
f 77//77 57//57 76//76
f 73//73 60//60 79//79
f 79//79 60//60 72//72
f 89//89 78//78 68//68
f 88//88 70//70 87//87
f 90//90 72//72 77//77
f 79//79 72//72 90//90
f 80//80 79//79 91//91
f 80//80 92//92 81//81
f 92//92 85//85 81//81
f 68//68 84//84 89//89
f 88//88 87//87 93//93
f 75//75 88//88 93//93
f 83//83 75//75 94//94
f 90//90 91//91 79//79
f 89//89 95//95 78//78
f 80//80 91//91 92//92
f 96//96 86//86 85//85
f 96//96 85//85 92//92
f 86//86 96//96 97//97
f 83//83 94//94 84//84
f 87//87 86//86 97//97
f 90//90 77//77 98//98
f 76//76 95//95 99//99
f 78//78 95//95 76//76
f 100//100 91//91 90//90
f 89//89 84//84 101//101
f 101//101 84//84 102//102
f 94//94 102//102 84//84
f 103//103 75//75 93//93
f 75//75 104//104 94//94
f 93//93 87//87 103//103
f 99//99 77//77 76//76
f 105//105 100//100 106//106
f 105//105 91//91 100//100
f 101//101 95//95 89//89
f 105//105 92//92 91//91
f 97//97 96//96 103//103
f 87//87 97//97 103//103
f 75//75 103//103 104//104
f 99//99 98//98 77//77
f 98//98 100//100 90//90
f 95//95 107//107 99//99
f 95//95 101//101 108//108
f 96//96 92//92 105//105
f 105//105 109//109 96//96
f 103//103 96//96 109//109
f 101//101 102//102 110//110
f 110//110 94//94 104//104
f 102//102 94//94 110//110
f 106//106 100//100 111//111
f 105//105 106//106 112//112
f 95//95 108//108 107//107
f 113//113 108//108 101//101
f 105//105 112//112 109//109
f 110//110 113//113 101//101
f 109//109 114//114 103//103
f 114//114 115//115 103//103
f 111//111 116//116 106//106
f 100//100 98//98 111//111
f 99//99 107//107 117//117
f 106//106 116//116 112//112
f 112//112 118//118 109//109
f 110//110 119//119 113//113
f 110//110 115//115 119//119
f 115//115 110//110 104//104
f 115//115 104//104 103//103
f 111//111 120//120 116//116
f 111//111 98//98 121//121
f 121//121 98//98 122//122
f 112//112 116//116 120//120
f 99//99 122//122 98//98
f 122//122 99//99 117//117
f 123//123 117//117 107//107
f 124//124 112//112 125//125
f 108//108 123//123 107//107
f 126//126 127//127 128//128
f 129//129 126//126 128//128
f 130//130 120//120 131//131
f 120//120 111//111 131//131
f 120//120 132//132 112//112
f 132//132 125//125 112//112
f 112//112 124//124 118//118
f 114//114 109//109 118//118
f 113//113 119//119 133//133
f 134//134 127//127 126//126
f 129//129 134//134 126//126
f 127//127 134//134 128//128
f 129//129 128//128 134//134
f 120//120 130//130 132//132
f 111//111 121//121 131//131
f 117//117 123//123 122//122
f 123//123 108//108 133//133
f 118//118 124//124 135//135
f 108//108 113//113 133//133
f 115//115 114//114 136//136
f 136//136 119//119 115//115
f 137//137 138//138 139//139
f 138//138 137//137 140//140
f 137//137 139//139 141//141
f 141//141 140//140 137//137
f 132//132 130//130 142//142
f 143//143 131//131 121//121
f 122//122 143//143 121//121
f 142//142 125//125 132//132
f 122//122 123//123 144//144
f 125//125 145//145 124//124
f 124//124 146//146 135//135
f 123//123 133//133 147//147
f 138//138 148//148 139//139
f 138//138 140//140 148//148
f 139//139 148//148 141//141
f 140//140 141//141 148//148
f 130//130 131//131 149//149
f 149//149 131//131 150//150
f 122//122 144//144 143//143
f 125//125 142//142 145//145
f 151//151 144//144 123//123
f 124//124 145//145 146//146
f 135//135 152//152 118//118
f 153//153 118//118 152//152
f 114//114 118//118 153//153
f 136//136 114//114 153//153
f 136//136 153//153 119//119
f 131//131 154//154 150//150
f 131//131 143//143 154//154
f 130//130 155//155 142//142
f 156//156 143//143 144//144
f 155//155 145//145 142//142
f 151//151 123//123 147//147
f 135//135 146//146 152//152
f 133//133 157//157 158//158
f 119//119 157//157 133//133
f 159//159 149//149 150//150
f 149//149 160//160 155//155
f 130//130 149//149 155//155
f 161//161 144//144 151//151
f 155//155 162//162 145//145
f 147//147 133//133 158//158
f 157//157 119//119 153//153
f 160//160 149//149 159//159
f 150//150 163//163 159//159
f 150//150 154//154 163//163
f 154//154 143//143 156//156
f 164//164 165//165 160//160
f 160//160 165//165 155//155
f 165//165 164//164 166//166
f 165//165 162//162 155//155
f 161//161 151//151 167//167
f 146//146 145//145 168//168
f 167//167 151//151 147//147
f 152//152 146//146 168//168
f 167//167 147//147 158//158
f 153//153 169//169 157//157
f 169//169 158//158 157//157
f 164//164 160//160 170//170
f 171//171 156//156 144//144
f 171//171 144//144 161//161
f 166//166 172//172 173//173
f 162//162 165//165 166//166
f 173//173 162//162 166//166
f 145//145 162//162 168//168
f 161//161 167//167 174//174
f 152//152 175//175 169//169
f 152//152 169//169 153//153
f 159//159 176//176 177//177
f 170//170 160//160 177//177
f 176//176 159//159 163//163
f 154//154 178//178 163//163
f 156//156 179//179 154//154
f 154//154 179//179 178//178
f 171//171 179//179 156//156
f 170//170 180//180 164//164
f 159//159 177//177 160//160
f 164//164 180//180 166//166
f 174//174 171//171 161//161
f 181//181 166//166 182//182
f 166//166 181//181 172//172
f 167//167 183//183 174//174
f 152//152 168//168 184//184
f 152//152 184//184 175//175
f 183//183 167//167 185//185
f 167//167 158//158 185//185
f 185//185 158//158 169//169
f 163//163 186//186 176//176
f 180//180 170//170 187//187
f 180//180 182//182 166//166
f 172//172 188//188 173//173
f 162//162 173//173 188//188
f 162//162 188//188 189//189
f 168//168 162//162 189//189
f 175//175 185//185 169//169
f 170//170 190//190 187//187
f 190//190 170//170 177//177
f 186//186 163//163 191//191
f 180//180 187//187 192//192
f 163//163 178//178 191//191
f 180//180 192//192 182//182
f 192//192 193//193 182//182
f 179//179 171//171 174//174
f 194//194 181//181 182//182
f 183//183 195//195 174//174
f 181//181 194//194 172//172
f 196//196 188//188 172//172
f 168//168 189//189 184//184
f 197//197 185//185 175//175
f 183//183 185//185 198//198
f 176//176 199//199 200//200
f 190//190 177//177 201//201
f 186//186 199//199 176//176
f 190//190 202//202 187//187
f 176//176 201//201 177//177
f 203//203 201//201 176//176
f 202//202 193//193 192//192
f 202//202 192//192 187//187
f 174//174 195//195 179//179
f 204//204 195//195 198//198
f 195//195 183//183 198//198
f 172//172 194//194 196//196
f 196//196 189//189 188//188
f 205//205 184//184 189//189
f 184//184 205//205 197//197
f 198//198 185//185 197//197
f 175//175 184//184 197//197
f 202//202 190//190 206//206
f 190//190 201//201 206//206
f 203//203 176//176 200//200
f 186//186 191//191 199//199
f 191//191 178//178 179//179
f 202//202 207//207 193//193
f 194//194 182//182 193//193
f 189//189 208//208 205//205
f 205//205 198//198 197//197
f 194//194 209//209 196//196
f 209//209 189//189 196//196
f 200//200 210//210 203//203
f 207//207 202//202 206//206
f 211//211 212//212 201//201
f 201//201 212//212 206//206
f 201//201 203//203 211//211
f 199//199 191//191 213//213
f 193//193 207//207 214//214
f 195//195 191//191 179//179
f 195//195 204//204 191//191
f 204//204 215//215 191//191
f 193//193 214//214 194//194
f 204//204 198//198 216//216
f 189//189 209//209 208//208
f 210//210 211//211 203//203
f 217//217 207//207 206//206
f 194//194 214//214 209//209
f 209//209 214//214 218//218
f 209//209 218//218 219//219
f 219//219 220//220 208//208
f 208//208 220//220 205//205
f 208//208 209//209 219//219
f 216//216 205//205 220//220
f 198//198 205//205 216//216
f 221//221 210//210 222//222
f 222//222 210//210 200//200
f 221//221 223//223 210//210
f 212//212 223//223 224//224
f 210//210 223//223 211//211
f 200//200 199//199 225//225
f 199//199 213//213 225//225
f 224//224 217//217 212//212
f 217//217 206//206 212//212
f 211//211 223//223 212//212
f 215//215 213//213 191//191
f 215//215 226//226 213//213
f 227//227 215//215 204//204
f 207//207 228//228 214//214
f 214//214 228//228 218//218
f 204//204 216//216 227//227
f 227//227 216//216 220//220
f 200//200 229//229 222//222
f 225//225 230//230 200//200
f 221//221 224//224 223//223
f 213//213 226//226 225//225
f 231//231 228//228 207//207
f 217//217 231//231 207//207
f 226//226 215//215 232//232
f 232//232 215//215 227//227
f 219//219 233//233 220//220
f 234//234 229//229 235//235
f 235//235 229//229 236//236
f 229//229 230//230 236//236
f 229//229 234//234 222//222
f 237//237 238//238 221//221
f 234//234 237//237 221//221
f 222//222 234//234 221//221
f 230//230 229//229 200//200
f 239//239 236//236 230//230
f 221//221 238//238 240//240
f 221//221 240//240 224//224
f 230//230 225//225 239//239
f 225//225 226//226 239//239
f 224//224 240//240 217//217
f 217//217 240//240 241//241
f 241//241 231//231 217//217
f 241//241 242//242 231//231
f 242//242 228//228 231//231
f 218//218 228//228 242//242
f 218//218 242//242 243//243
f 243//243 233//233 218//218
f 233//233 219//219 218//218
f 220//220 233//233 244//244
f 227//227 220//220 244//244
f 234//234 245//245 246//246
f 245//245 234//234 235//235
f 234//234 246//246 237//237
f 237//237 247//247 238//238
f 248//248 238//238 247//247
f 248//248 240//240 238//238
f 240//240 248//248 249//249
f 226//226 250//250 239//239
f 249//249 241//241 240//240
f 226//226 232//232 251//251
f 227//227 244//244 251//251
f 227//227 251//251 232//232
f 246//246 252//252 237//237
f 253//253 245//245 235//235
f 235//235 254//254 253//253
f 237//237 252//252 247//247
f 235//235 236//236 254//254
f 255//255 248//248 247//247
f 239//239 250//250 256//256
f 251//251 250//250 226//226
f 249//249 257//257 241//241
f 241//241 257//257 242//242
f 242//242 257//257 258//258
f 243//243 242//242 258//258
f 259//259 260//260 261//261
f 259//259 261//261 245//245
f 259//259 245//245 262//262
f 260//260 263//263 252//252
f 261//261 260//260 252//252
f 245//245 253//253 262//262
f 262//262 253//253 264//264
f 263//263 265//265 252//252
f 246//246 261//261 252//252
f 245//245 261//261 246//246
f 252//252 265//265 266//266
f 254//254 264//264 253//253
f 252//252 266//266 247//247
f 266//266 255//255 247//247
f 254//254 267//267 264//264
f 236//236 267//267 254//254
f 239//239 267//267 236//236
f 256//256 267//267 239//239
f 249//249 248//248 268//268
f 268//268 248//248 255//255
f 269//269 257//257 249//249
f 251//251 270//270 271//271
f 233//233 270//270 244//244
f 251//251 244//244 270//270
f 233//233 243//243 258//258
f 265//265 260//260 272//272
f 260//260 265//265 263//263
f 265//265 273//273 266//266
f 273//273 274//274 266//266
f 275//275 264//264 267//267
f 266//266 274//274 255//255
f 274//274 268//268 255//255
f 267//267 256//256 276//276
f 277//277 269//269 249//249
f 278//278 256//256 250//250
f 271//271 278//278 250//250
f 269//269 279//279 257//257
f 257//257 279//279 258//258
f 271//271 250//250 251//251
f 270//270 233//233 258//258
f 280//280 281//281 273//273
f 272//272 280//280 265//265
f 272//272 282//282 283//283
f 260//260 282//282 272//272
f 282//282 260//260 259//259
f 265//265 280//280 273//273
f 284//284 259//259 262//262
f 284//284 262//262 264//264
f 275//275 284//284 264//264
f 273//273 281//281 274//274
f 281//281 285//285 274//274
f 267//267 276//276 275//275
f 249//249 268//268 277//277
f 269//269 277//277 279//279
f 272//272 286//286 287//287
f 287//287 280//280 272//272
f 286//286 272//272 283//283
f 281//281 280//280 288//288
f 283//283 289//289 290//290
f 282//282 289//289 283//283
f 289//289 282//282 259//259
f 284//284 289//289 259//259
f 288//288 285//285 281//281
f 275//275 291//291 284//284
f 292//292 293//293 291//291
f 276//276 291//291 275//275
f 285//285 277//277 274//274
f 294//294 277//277 285//285
f 295//295 277//277 294//294
f 295//295 294//294 292//292
f 294//294 293//293 292//292
f 274//274 277//277 268//268
f 296//296 292//292 291//291
f 276//276 297//297 291//291
f 297//297 296//296 291//291
f 256//256 297//297 276//276
f 298//298 292//292 296//296
f 298//298 295//295 292//292
f 256//256 278//278 297//297
f 295//295 279//279 277//277
f 279//279 295//295 298//298
f 298//298 296//296 299//299
f 297//297 299//299 296//296
f 278//278 271//271 297//297
f 258//258 279//279 298//298
f 299//299 258//258 298//298
f 271//271 299//299 297//297
f 270//270 258//258 299//299
f 271//271 270//270 299//299
f 288//288 280//280 287//287
f 288//288 300//300 301//301
f 290//290 289//289 301//301
f 289//289 293//293 301//301
f 301//301 294//294 288//288
f 289//289 284//284 293//293
f 288//288 294//294 285//285
f 293//293 294//294 301//301
f 284//284 291//291 293//293
f 283//283 290//290 302//302
f 288//288 287//287 300//300
f 301//301 302//302 290//290
f 303//303 286//286 304//304
f 304//304 286//286 283//283
f 286//286 303//303 287//287
f 303//303 300//300 287//287
f 302//302 300//300 303//303
f 300//300 302//302 301//301
f 304//304 302//302 303//303
f 302//302 304//304 283//283
f 305//305 306//306 307//307
f 308//308 309//309 310//310
f 308//308 310//310 306//306
f 306//306 310//310 307//307
f 311//311 310//310 309//309
f 307//307 310//310 312//312
f 313//313 307//307 312//312
f 311//311 314//314 315//315
f 311//311 315//315 310//310
f 312//312 310//310 315//315
f 315//315 314//314 316//316
f 317//317 318//318 307//307
f 313//313 317//317 307//307
f 319//319 315//315 316//316
f 312//312 315//315 319//319
f 313//313 312//312 320//320
f 320//320 312//312 321//321
f 320//320 317//317 313//313
f 312//312 319//319 321//321
f 319//319 322//322 321//321
f 320//320 321//321 323//323
f 317//317 320//320 323//323
f 321//321 322//322 324//324
f 324//324 322//322 325//325
f 324//324 323//323 321//321
f 323//323 324//324 326//326
f 306//306 327//327 308//308
f 306//306 305//305 327//327
f 305//305 328//328 309//309
f 328//328 311//311 309//309
f 305//305 307//307 328//328
f 307//307 318//318 328//328
f 314//314 329//329 330//330
f 316//316 314//314 330//330
f 331//331 316//316 332//332
f 331//331 333//333 334//334
f 319//319 316//316 331//331
f 331//331 334//334 322//322
f 319//319 331//331 322//322
f 322//322 334//334 335//335
f 336//336 317//317 323//323
f 322//322 335//335 325//325
f 325//325 337//337 324//324
f 337//337 326//326 324//324
f 325//325 335//335 338//338
f 326//326 337//337 339//339
f 305//305 340//340 327//327
f 308//308 341//341 309//309
f 305//305 309//309 340//340
f 340//340 309//309 341//341
f 328//328 342//342 311//311
f 328//328 343//343 342//342
f 318//318 343//343 328//328
f 344//344 345//345 346//346
f 311//311 329//329 314//314
f 311//311 342//342 329//329
f 318//318 347//347 343//343
f 318//318 317//317 347//347
f 345//345 344//344 333//333
f 345//345 332//332 348//348
f 348//348 332//332 330//330
f 332//332 316//316 330//330
f 334//334 344//344 349//349
f 333//333 344//344 334//334
f 332//332 345//345 333//333
f 331//331 332//332 333//333
f 317//317 336//336 347//347
f 334//334 349//349 335//335
f 335//335 349//349 350//350
f 323//323 351//351 336//336
f 326//326 351//351 323//323
f 338//338 335//335 350//350
f 338//338 337//337 325//325
f 339//339 352//352 326//326
f 353//353 326//326 352//352
f 337//337 338//338 354//354
f 339//339 337//337 354//354
f 327//327 341//341 308//308
f 340//340 341//341 327//327
f 355//355 344//344 346//346
f 345//345 348//348 346//346
f 342//342 343//343 356//356
f 355//355 357//357 344//344
f 358//358 348//348 330//330
f 329//329 358//358 330//330
f 342//342 358//358 329//329
f 356//356 358//358 342//342
f 343//343 359//359 356//356
f 343//343 347//347 359//359
f 344//344 357//357 349//349
f 347//347 336//336 359//359
f 360//360 349//349 357//357
f 361//361 349//349 360//360
f 351//351 362//362 359//359
f 336//336 351//351 359//359
f 349//349 361//361 350//350
f 326//326 363//363 351//351
f 351//351 363//363 362//362
f 326//326 353//353 363//363
f 350//350 361//361 338//338
f 338//338 361//361 364//364
f 338//338 364//364 365//365
f 338//338 365//365 354//354
f 352//352 339//339 354//354
f 354//354 365//365 366//366
f 348//348 367//367 346//346
f 357//357 355//355 368//368
f 348//348 358//358 369//369
f 370//370 358//358 356//356
f 370//370 371//371 369//369
f 358//358 370//370 369//369
f 356//356 372//372 370//370
f 356//356 359//359 372//372
f 370//370 372//372 373//373
f 359//359 362//362 373//373
f 359//359 373//373 372//372
f 353//353 374//374 362//362
f 363//363 353//353 362//362
f 364//364 361//361 375//375
f 353//353 352//352 374//374
f 364//364 376//376 365//365
f 352//352 354//354 374//374
f 365//365 376//376 366//366
f 355//355 346//346 367//367
f 348//348 377//377 378//378
f 348//348 378//378 367//367
f 348//348 369//369 377//377
f 368//368 379//379 357//357
f 371//371 380//380 369//369
f 357//357 379//379 360//360
f 370//370 381//381 371//371
f 373//373 381//381 370//370
f 360//360 382//382 361//361
f 375//375 361//361 382//382
f 376//376 364//364 375//375
f 354//354 383//383 374//374
f 376//376 384//384 366//366
f 354//354 366//366 383//383
f 367//367 385//385 355//355
f 368//368 386//386 387//387
f 355//355 386//386 368//368
f 377//377 369//369 380//380
f 368//368 387//387 379//379
f 379//379 388//388 360//360
f 360//360 388//388 382//382
f 373//373 362//362 389//389
f 381//381 373//373 389//389
f 389//389 374//374 390//390
f 389//389 362//362 374//374
f 382//382 391//391 375//375
f 391//391 392//392 375//375
f 374//374 383//383 390//390
f 375//375 392//392 376//376
f 385//385 386//386 355//355
f 380//380 371//371 393//393
f 389//389 394//394 381//381
f 395//395 382//382 388//388
f 389//389 390//390 394//394
f 382//382 395//395 391//391
f 396//396 390//390 383//383
f 384//384 376//376 397//397
f 366//366 398//398 383//383
f 385//385 367//367 399//399
f 377//377 400//400 378//378
f 380//380 393//393 377//377
f 401//401 387//387 386//386
f 371//371 381//381 402//402
f 379//379 387//387 403//403
f 404//404 402//402 381//381
f 379//379 403//403 388//388
f 394//394 404//404 381//381
f 390//390 396//396 394//394
f 392//392 405//405 376//376
f 367//367 378//378 400//400
f 399//399 367//367 400//400
f 401//401 386//386 385//385
f 401//401 385//385 406//406
f 393//393 371//371 402//402
f 395//395 407//407 392//392
f 391//391 395//395 392//392
f 366//366 384//384 398//398
f 384//384 408//408 398//398
f 409//409 396//396 398//398
f 383//383 398//398 396//396
f 376//376 405//405 410//410
f 397//397 376//376 410//410
f 384//384 397//397 408//408
f 385//385 399//399 406//406
f 393//393 400//400 377//377
f 403//403 387//387 411//411
f 403//403 412//412 388//388
f 412//412 395//395 388//388
f 405//405 392//392 413//413
f 410//410 414//414 397//397
f 414//414 408//408 397//397
f 399//399 400//400 415//415
f 415//415 400//400 393//393
f 401//401 416//416 411//411
f 387//387 401//401 411//411
f 401//401 406//406 416//416
f 393//393 417//417 415//415
f 417//417 393//393 402//402
f 403//403 418//418 412//412
f 404//404 394//394 419//419
f 396//396 420//420 394//394
f 420//420 396//396 409//409
f 392//392 407//407 413//413
f 399//399 415//415 406//406
f 406//406 415//415 421//421
f 422//422 423//423 424//424
f 424//424 423//423 425//425
f 426//426 422//422 424//424
f 427//427 422//422 426//426
f 419//419 417//417 402//402
f 425//425 428//428 424//424
f 427//427 426//426 429//429
f 403//403 411//411 418//418
f 402//402 404//404 419//419
f 430//430 424//424 428//428
f 426//426 424//424 430//430
f 429//429 426//426 431//431
f 431//431 426//426 430//430
f 420//420 419//419 394//394
f 395//395 412//412 432//432
f 433//433 395//395 432//432
f 420//420 409//409 434//434
f 395//395 433//433 407//407
f 434//434 408//408 435//435
f 434//434 398//398 408//408
f 409//409 398//398 434//434
f 410//410 413//413 436//436
f 405//405 413//413 410//410
f 410//410 436//436 437//437
f 423//423 438//438 439//439
f 423//423 440//440 438//438
f 422//422 440//440 423//423
f 423//423 439//439 425//425
f 406//406 441//441 416//416
f 421//421 441//441 406//406
f 428//428 425//425 439//439
f 411//411 416//416 418//418
f 442//442 428//428 443//443
f 428//428 442//442 430//430
f 442//442 431//431 430//430
f 444//444 412//412 418//418
f 420//420 445//445 419//419
f 412//412 444//444 432//432
f 420//420 434//434 445//445
f 446//446 408//408 414//414
f 410//410 437//437 414//414
f 447//447 440//440 422//422
f 422//422 427//427 447//447
f 415//415 448//448 421//421
f 417//417 448//448 415//415
f 449//449 428//428 439//439
f 416//416 450//450 418//418
f 428//428 449//449 443//443
f 427//427 429//429 451//451
f 429//429 452//452 451//451
f 431//431 452//452 429//429
f 450//450 453//453 444//444
f 450//450 444//444 418//418
f 442//442 454//454 431//431
f 454//454 452//452 431//431
f 434//434 435//435 445//445
f 413//413 407//407 455//455
f 408//408 446//446 435//435
f 413//413 455//455 436//436
f 437//437 436//436 456//456
f 440//440 457//457 438//438
f 447//447 457//457 440//440
f 439//439 438//438 458//458
f 458//458 438//438 457//457
f 457//457 447//447 459//459
f 460//460 461//461 421//421
f 448//448 460//460 421//421
f 417//417 419//419 448//448
f 439//439 462//462 449//449
f 462//462 439//439 458//458
f 427//427 451//451 459//459
f 447//447 427//427 459//459
f 463//463 416//416 461//461
f 461//461 416//416 441//441
f 421//421 461//461 441//441
f 419//419 464//464 448//448
f 450//450 416//416 463//463
f 465//465 448//448 464//464
f 451//451 452//452 466//466
f 451//451 466//466 459//459
f 444//444 453//453 432//432
f 450//450 463//463 453//453
f 419//419 445//445 465//465
f 464//464 419//419 465//465
f 443//443 449//449 467//467
f 445//445 468//468 465//465
f 443//443 467//467 469//469
f 452//452 454//454 466//466
f 435//435 468//468 445//445
f 442//442 470//470 454//454
f 442//442 443//443 470//470
f 443//443 469//469 470//470
f 432//432 471//471 433//433
f 435//435 472//472 468//468
f 433//433 471//471 455//455
f 407//407 433//433 455//455
f 414//414 437//437 446//446
f 462//462 458//458 473//473
f 457//457 473//473 458//458
f 474//474 460//460 448//448
f 459//459 473//473 457//457
f 475//475 463//463 461//461
f 474//474 448//448 465//465
f 449//449 462//462 476//476
f 459//459 477//477 473//473
f 459//459 466//466 477//477
f 474//474 465//465 478//478
f 476//476 467//467 449//449
f 467//467 476//476 479//479
f 462//462 480//480 476//476
f 473//473 480//480 462//462
f 481//481 432//432 453//453
f 468//468 479//479 465//465
f 465//465 479//479 478//478
f 479//479 469//469 467//467
f 466//466 482//482 477//477
f 468//468 472//472 483//483
f 468//468 483//483 479//479
f 469//469 479//479 483//483
f 466//466 470//470 482//482
f 454//454 470//470 466//466
f 469//469 483//483 470//470
f 484//484 483//483 472//472
f 470//470 483//483 484//484
f 435//435 446//446 484//484
f 484//484 472//472 435//435
f 461//461 460//460 485//485
f 485//485 475//475 461//461
f 463//463 475//475 453//453
f 478//478 476//476 480//480
f 480//480 473//473 477//477
f 478//478 479//479 476//476
f 482//482 480//480 477//477
f 482//482 486//486 480//480
f 470//470 484//484 487//487
f 446//446 488//488 484//484
f 455//455 471//471 489//489
f 436//436 455//455 490//490
f 436//436 490//490 456//456
f 437//437 456//456 491//491
f 446//446 437//437 491//491
f 491//491 488//488 446//446
f 453//453 475//475 492//492
f 474//474 493//493 494//494
f 478//478 480//480 495//495
f 481//481 453//453 492//492
f 474//474 478//478 493//493
f 478//478 495//495 493//493
f 432//432 481//481 471//471
f 481//481 496//496 471//471
f 486//486 493//493 495//495
f 480//480 486//486 495//495
f 482//482 470//470 486//486
f 470//470 487//487 486//486
f 488//488 497//497 484//484
f 487//487 484//484 497//497
f 455//455 489//489 498//498
f 455//455 498//498 490//490
f 460//460 499//499 485//485
f 460//460 474//474 494//494
f 499//499 460//460 494//494
f 500//500 475//475 485//485
f 493//493 501//501 494//494
f 500//500 492//492 475//475
f 481//481 492//492 496//496
f 502//502 492//492 500//500
f 493//493 503//503 501//501
f 503//503 493//493 486//486
f 486//486 487//487 503//503
f 488//488 504//504 497//497
f 504//504 488//488 491//491
f 456//456 490//490 505//505
f 491//491 456//456 506//506
f 507//507 500//500 485//485
f 496//496 508//508 471//471
f 508//508 489//489 471//471
f 497//497 504//504 509//509
f 487//487 497//497 509//509
f 490//490 498//498 510//510
f 490//490 510//510 505//505
f 505//505 506//506 456//456
f 506//506 504//504 491//491
f 500//500 507//507 511//511
f 511//511 502//502 500//500
f 501//501 503//503 512//512
f 492//492 508//508 496//496
f 492//492 513//513 508//508
f 492//492 502//502 513//513
f 503//503 487//487 512//512
f 514//514 508//508 513//513
f 512//512 487//487 509//509
f 504//504 515//515 509//509
f 516//516 505//505 510//510
f 516//516 506//506 505//505
f 485//485 517//517 507//507
f 499//499 517//517 485//485
f 511//511 513//513 502//502
f 518//518 508//508 514//514
f 508//508 518//518 489//489
f 518//518 519//519 489//489
f 489//489 519//519 498//498
f 515//515 504//504 520//520
f 510//510 498//498 519//519
f 510//510 519//519 516//516
f 520//520 506//506 516//516
f 520//520 504//504 506//506
f 511//511 507//507 517//517
f 499//499 494//494 517//517
f 501//501 521//521 494//494
f 522//522 521//521 501//501
f 514//514 513//513 523//523
f 501//501 512//512 522//522
f 522//522 512//512 524//524
f 512//512 509//509 524//524
f 509//509 515//515 524//524
f 515//515 520//520 524//524
f 519//519 525//525 516//516
f 525//525 520//520 516//516
f 521//521 517//517 494//494
f 517//517 523//523 513//513
f 511//511 517//517 513//513
f 523//523 517//517 526//526
f 527//527 523//523 526//526
f 528//528 527//527 521//521
f 521//521 522//522 528//528
f 514//514 523//523 518//518
f 527//527 529//529 523//523
f 524//524 530//530 522//522
f 529//529 518//518 523//523
f 529//529 527//527 530//530
f 528//528 530//530 527//527
f 528//528 522//522 530//530
f 524//524 520//520 530//530
f 518//518 529//529 519//519
f 519//519 529//529 531//531
f 531//531 530//530 520//520
f 519//519 531//531 525//525
f 520//520 525//525 531//531
f 526//526 521//521 527//527
f 530//530 531//531 529//529
f 517//517 521//521 526//526
