# Generated by Visualization Toolkit
v -196.6511688232422 -304.3588562011719 478.0967712402344
v -195.33009338378906 -304.9115295410156 477.8414611816406
v -196.9348602294922 -304.7630615234375 478.1971740722656
v -195.21568298339844 -307.0408020019531 479.82373046875
v -186.89247131347656 -304.5310363769531 480.42584228515625
v -189.17982482910156 -304.86334228515625 479.64593505859375
v -193.2811737060547 -303.5939636230469 479.710693359375
v -193.3585205078125 -304.29571533203125 478.9429931640625
v -186.02088928222656 -305.38134765625 479.86773681640625
v -189.11549377441406 -306.14532470703125 479.0774841308594
v -192.95394897460938 -305.4676513671875 478.7263488769531
v -197.07852172851562 -303.6934814453125 481.4538269042969
v -187.15283203125 -307.5283203125 479.1381530761719
v -190.39801025390625 -307.1275329589844 479.0637512207031
v -192.05345153808594 -307.30133056640625 479.1968078613281
v -193.95765686035156 -306.9800109863281 479.2974853515625
v -196.3328399658203 -306.58984375 480.3729553222656
v -189.71742248535156 -308.60089111328125 479.357421875
v -184.64625549316406 -311.49627685546875 480.3361511230469
v -185.68394470214844 -311.98822021484375 480.26727294921875
v -185.9687042236328 -311.0089111328125 479.8187255859375
v -187.50267028808594 -312.0002746582031 480.2425537109375
v -193.82333374023438 -302.53326416015625 481.7405090332031
v -196.38563537597656 -302.95452880859375 481.4375915527344
v -195.32266235351562 -302.3799743652344 482.68670654296875
v -185.1667938232422 -304.66265869140625 481.8499755859375
v -187.84654235839844 -303.6009521484375 481.793212890625
v -184.98458862304688 -304.22015380859375 483.581298828125
v -191.6820831298828 -302.9747314453125 481.4385070800781
v -182.21133422851562 -306.68109130859375 482.0907287597656
v -184.53126525878906 -305.7610168457031 481.0531005859375
v -181.46099853515625 -306.2513122558594 483.6966552734375
v -197.70884704589844 -305.55096435546875 485.3178405761719
v -181.33999633789062 -308.4180908203125 481.75750732421875
v -183.08978271484375 -307.4501037597656 480.9231872558594
v -185.3299102783203 -306.9435729980469 479.9346618652344
v -197.2113494873047 -306.6495361328125 483.2909240722656
v -182.4891357421875 -309.3357238769531 480.7394714355469
v -184.05294799804688 -309.4180603027344 480.1364440917969
v -186.441650390625 -308.3768615722656 479.5029602050781
v -189.26763916015625 -311 480.4227600097656
v -191.43214416503906 -310.6954650878906 481.0033264160156
v -192.8672332763672 -311.11004638671875 482.068603515625
v -194.5814666748047 -310.60076904296875 483.1124267578125
v -181.50094604492188 -310.9657897949219 481.8138427734375
v -187.84063720703125 -309.9798583984375 479.7068176269531
v -193.4717254638672 -311.46099853515625 482.8593444824219
v -182.23568725585938 -311.9607849121094 482.2731018066406
v -184.24160766601562 -312.5269470214844 481.6527099609375
v -185.7592315673828 -313.4078674316406 482.3992919921875
v -187.5228271484375 -312.9841613769531 481.4832458496094
v -191.02853393554688 -312.6356201171875 482.655029296875
v -190.75233459472656 -302.3900146484375 483.94464111328125
v -193.0702362060547 -301.9625244140625 484.8401184082031
v -194.18386840820312 -301.57855224609375 487.42889404296875
v -187.33848571777344 -303.3539123535156 484.0382995605469
v -182.98336791992188 -305.01837158203125 485.3477783203125
v -197.7364044189453 -304.04052734375 486.967529296875
v -180.82798767089844 -306.92254638671875 483.5357971191406
v -196.84121704101562 -307.78082275390625 483.3949890136719
v -180.432373046875 -308.4875183105469 483.1510925292969
v -180.3516845703125 -309.6533203125 483.3023376464844
v -195.70240783691406 -310.9801940917969 485.4217224121094
v -180.47528076171875 -312.4025573730469 485.26068115234375
v -181.02830505371094 -311.478759765625 483.0705261230469
v -181.86886596679688 -313.0075378417969 483.8442077636719
v -189.02853393554688 -313.64306640625 483.4978332519531
v -193.28746032714844 -312.6533508300781 485.0296630859375
v -183.0559539794922 -313.59228515625 484.6903991699219
v -186.6020965576172 -313.8947448730469 484.11151123046875
v -192.48214721679688 -313.266845703125 485.40142822265625
v -195.84129333496094 -302.0039367675781 486.9189453125
v -196.77841186523438 -302.32025146484375 487.93865966796875
v -185.32269287109375 -303.9765625 485.406494140625
v -189.9781951904297 -302.4237365722656 485.05645751953125
v -197.4228515625 -302.89483642578125 488.34857177734375
v -181.62852478027344 -305.86834716796875 488.1268615722656
v -180.12149047851562 -307.9979553222656 485.1366271972656
v -179.72520446777344 -309.3790283203125 486.1056213378906
v -179.64956665039062 -311.5399475097656 487.18255615234375
v -197.49562072753906 -309.974365234375 488.0802307128906
v -181.08468627929688 -313.20379638671875 486.56512451171875
v -182.87928771972656 -313.779052734375 486.66461181640625
v -186.46942138671875 -314.04779052734375 486.43536376953125
v -190.29327392578125 -313.95501708984375 486.3753967285156
v -191.90380859375 -301.5274963378906 488.6417236328125
v -189.97344970703125 -302.1149597167969 489.4707946777344
v -185.8074951171875 -303.9144287109375 489.6202392578125
v -180.6094207763672 -306.9359436035156 488.2096862792969
v -198.545654296875 -305.49578857421875 488.8171691894531
v -198.11260986328125 -308.5632629394531 488.3569030761719
v -198.41357421875 -307.0138244628906 488.4335632324219
v -179.51780700683594 -310.67205810546875 488.1054992675781
v -179.33131408691406 -311.67559814453125 488.4099426269531
v -196.8948211669922 -311.1174011230469 488.70892333984375
v -193.2541961669922 -313.2328186035156 488.5417175292969
v -196.71070861816406 -311.700439453125 490.0956726074219
v -181.84954833984375 -313.3926696777344 487.893798828125
v -193.8590087890625 -300.9051818847656 490.72650146484375
v -195.50881958007812 -300.92352294921875 491.0038757324219
v -198.7064208984375 -303.86322021484375 490.3338623046875
v -183.2841033935547 -304.8768615722656 490.6136474609375
v -180.18121337890625 -307.72027587890625 492.06787109375
v -181.19117736816406 -306.20794677734375 491.3411865234375
v -199.7410888671875 -307.0148010253906 491.4349365234375
v -199.84449768066406 -305.071044921875 491.7981872558594
v -179.81536865234375 -308.8612060546875 490.5796203613281
v -199.6515655517578 -308.63311767578125 492.20281982421875
v -198.3047332763672 -309.6503601074219 490.0726013183594
v -179.90597534179688 -311.3016662597656 490.1343688964844
v -180.78030395507812 -312.4014587402344 489.5409851074219
v -191.72886657714844 -313.4833679199219 489.9625549316406
v -193.65052795410156 -312.9606628417969 491.59521484375
v -195.5502471923828 -312.4625549316406 491.0987243652344
v -184.4308624267578 -313.569091796875 489.593505859375
v -189.01931762695312 -313.6816711425781 489.5262756347656
v -192.0670928955078 -300.8250427246094 494.16552734375
v -195.17840576171875 -300.3463134765625 494.75860595703125
v -197.26853942871094 -300.93145751953125 493.039794921875
v -199.85169982910156 -302.42755126953125 494.5195617675781
v -187.02944946289062 -303.1868896484375 492.0124816894531
v -179.9169464111328 -309.9990234375 491.9539489746094
v -198.81312561035156 -310.2572021484375 492.650146484375
v -181.33250427246094 -311.63458251953125 493.7016906738281
v -191.4948272705078 -312.33154296875 495.0042419433594
v -187.81668090820312 -302.50665283203125 494.49981689453125
v -198.11936950683594 -301.02276611328125 494.20501708984375
v -184.3346710205078 -303.9515075683594 493.4331970214844
v -201.23728942871094 -304.5495300292969 494.7143249511719
v -181.8892364501953 -305.0270690917969 494.0520324707031
v -201.3551483154297 -306.11077880859375 494.3014831542969
v -180.330810546875 -306.57086181640625 494.65618896484375
v -200.73793029785156 -307.8920593261719 493.6403503417969
v -180.00294494628906 -308.28253173828125 493.8945617675781
v -180.43211364746094 -309.9267883300781 494.97265625
v -201.25152587890625 -308.5541687011719 495.64984130859375
v -181.14271545410156 -310.7585754394531 495.3629150390625
v -198.18038940429688 -311.1075439453125 494.0212097167969
v -184.2709503173828 -311.8744812011719 495.40802001953125
v -197.3505096435547 -311.61376953125 495.6604919433594
v -195.21888732910156 -300.2096252441406 498.72076416015625
v -192.1305389404297 -300.7585754394531 496.05657958984375
v -197.57725524902344 -300.4157409667969 497.5821228027344
v -188.85813903808594 -301.9397277832031 496.6378173828125
v -199.4371795654297 -301.3890380859375 497.2332458496094
v -181.82151794433594 -303.34930419921875 498.6383056640625
v -183.36744689941406 -302.7331237792969 498.42578125
v -186.14564514160156 -302.6377868652344 496.2620849609375
v -201.96002197265625 -304.71038818359375 496.27490234375
v -201.45066833496094 -303.3350830078125 497.69012451171875
v -180.79905700683594 -304.3982849121094 498.6073913574219
v -202.11708068847656 -306.9627380371094 496.473388671875
v -180.41477966308594 -307.9743347167969 499.0982360839844
v -200.6772003173828 -310.1212463378906 497.567626953125
v -182.31509399414062 -311.4442443847656 495.48529052734375
v -200.0347442626953 -310.74267578125 499.0664978027344
v -189.5851287841797 -311.0609130859375 499.5390319824219
v -195.85755920410156 -311.8385925292969 496.9564208984375
v -192.42401123046875 -300.75982666015625 498.5340576171875
v -188.61082458496094 -301.96484375 498.51123046875
v -180.4469451904297 -305.2244873046875 498.7501220703125
v -180.29116821289062 -306.69970703125 498.9424743652344
v -181.2347412109375 -309.9606628417969 498.2564392089844
v -202.83489990234375 -307.8489990234375 500.0828552246094
v -181.99349975585938 -310.1288757324219 499.21722412109375
v -182.98806762695312 -310.3117370605469 499.84234619140625
v -184.60675048828125 -310.5577697753906 500.1006774902344
v -195.78067016601562 -311.176025390625 501.2825012207031
v -192.07582092285156 -311.4755859375 498.8266906738281
v -198.55079650878906 -311.244140625 498.4927978515625
v -193.42904663085938 -300.7789611816406 501.09246826171875
v -196.8387451171875 -300.3890686035156 500.6065979003906
v -198.86427307128906 -301.0426940917969 501.5964660644531
v -183.82371520996094 -302.573974609375 499.75311279296875
v -182.57078552246094 -302.8814697265625 500.8409729003906
v -189.04443359375 -302.0418701171875 500.4192810058594
v -191.310791015625 -301.4227600097656 500.226806640625
v -200.67372131347656 -302.33111572265625 499.8507080078125
v -181.15245056152344 -304.2332763671875 500.53216552734375
v -202.99412536621094 -305.93115234375 500.3714599609375
v -181.0452117919922 -308.49456787109375 500.384765625
v -201.52638244628906 -309.6727294921875 501.7482604980469
v -202.8870849609375 -308.44110107421875 502.2823486328125
v -198.00308227539062 -310.989013671875 501.56536865234375
v -195.28932189941406 -300.68212890625 501.7552795410156
v -188.4851531982422 -302.3524475097656 501.4429931640625
v -191.86807250976562 -301.8757019042969 502.0731201171875
v -200.7674560546875 -302.6888427734375 502.4716491699219
v -180.95529174804688 -305.31439208984375 501.064208984375
v -182.89193725585938 -304.49078369140625 503.391357421875
v -184.46617126464844 -303.24444580078125 502.6007995605469
v -189.05587768554688 -302.8221130371094 502.66015625
v -202.46144104003906 -304.54681396484375 501.1609191894531
v -181.04434204101562 -306.64044189453125 501.4074401855469
v -202.98910522460938 -305.14105224609375 503.36297607421875
v -203.92333984375 -306.2911071777344 503.30853271484375
v -182.08555603027344 -306.7167053222656 502.94189453125
v -183.8328094482422 -308.4927673339844 503.4255676269531
v -185.35804748535156 -309.3923034667969 502.85565185546875
v -190.0443115234375 -310.430908203125 501.55792236328125
v -191.5776824951172 -310.00067138671875 502.928466796875
v -194.62550354003906 -310.40594482421875 503.7735290527344
v -194.52154541015625 -301.3764953613281 503.09222412109375
v -196.9201202392578 -301.063232421875 502.8232727050781
v -198.6591796875 -301.8693542480469 503.7425842285156
v -191.4443817138672 -302.9714050292969 503.4836730957031
v -200.37547302246094 -302.699462890625 503.4131164550781
v -200.22708129882812 -303.4415588378906 504.34246826171875
v -184.4115447998047 -304.2745056152344 504.0231018066406
v -186.8108673095703 -304.1036376953125 504.22296142578125
v -182.3031463623047 -305.5290832519531 503.1806945800781
v -201.8180389404297 -304.5445861816406 503.9834899902344
v -204.0221405029297 -306.04998779296875 503.91839599609375
v -203.0869903564453 -307.8904113769531 503.34271240234375
v -183.49232482910156 -307.6340637207031 503.75933837890625
v -190.029052734375 -309.18341064453125 503.8700866699219
v -192.5410919189453 -309.2774963378906 504.2952575683594
v -200.1284637451172 -310.2220153808594 503.0467529296875
v -200.7339324951172 -309.5866394042969 503.7210693359375
v -197.43309020996094 -310.5216064453125 503.69073486328125
v -196.35244750976562 -301.8463134765625 503.931884765625
v -193.88772583007812 -303.3212585449219 504.4869079589844
v -196.8224334716797 -303.12213134765625 504.93194580078125
v -189.00900268554688 -304.5906066894531 504.6241760253906
v -191.9722137451172 -304.6204528808594 504.8672180175781
v -195.63470458984375 -305.056396484375 505.6661071777344
v -198.24603271484375 -303.90185546875 505.1875915527344
v -184.3331298828125 -306.01824951171875 504.81304931640625
v -185.6871795654297 -306.2754211425781 506.00885009765625
v -186.59841918945312 -305.9267883300781 506.16754150390625
v -188.70654296875 -305.74395751953125 505.3480529785156
v -187.53659057617188 -306.6312255859375 506.2522888183594
v -191.94444274902344 -305.6064453125 505.21710205078125
v -196.9269561767578 -306.3659973144531 506.0558166503906
v -199.83245849609375 -305.068359375 505.1962585449219
v -185.4292755126953 -307.12335205078125 505.3047790527344
v -189.22874450683594 -307.0851135253906 505.4296875
v -192.0229949951172 -306.6992492675781 505.34149169921875
v -195.7646484375 -307.7891845703125 506.1047668457031
v -198.7389373779297 -307.2677307128906 505.88946533203125
v -186.78546142578125 -307.3794250488281 505.73638916015625
v -188.5457000732422 -308.166259765625 504.87127685546875
v -190.92575073242188 -308.09954833984375 504.9107971191406
v -192.7819061279297 -307.92462158203125 505.2273254394531
v -198.32858276367188 -308.7995910644531 506.1727294921875
v -199.58743286132812 -308.4358215332031 505.3901062011719
v -202.17843627929688 -307.77734375 504.1824645996094
v -195.58676147460938 -309.2696533203125 505.596923828125
v -197.26998901367188 -309.8211364746094 505.3072509765625
v -198.88746643066406 -309.6475524902344 504.83892822265625
vn -0.3399437665939331 0.7320919632911682 -0.5903216600418091
vn 0.040104880928993225 -0.02850896678864956 -0.9987887144088745
vn -0.8147305846214294 -0.28163212537765503 -0.50685054063797
vn -0.39833319187164307 -0.6584181785583496 -0.6386048793792725
vn 0.26941534876823425 0.7725832462310791 -0.5749179124832153
vn 0.17355965077877045 0.5141077637672424 -0.8399823307991028
vn 0.1531645655632019 0.7938377261161804 -0.5885255932807922
vn 0.24615994095802307 0.5122902393341064 -0.8227782845497131
vn 0.3797311782836914 0.4728756248950958 -0.7951056361198425
vn 0.11682432144880295 0.1928512305021286 -0.9742487072944641
vn 0.13426288962364197 -0.02560887485742569 -0.9906148314476013
vn -0.8921781778335571 0.4279199242591858 -0.14457741379737854
vn 0.17123907804489136 -0.0595405176281929 -0.9834287762641907
vn -0.001764236600138247 -0.1579885631799698 -0.9874393343925476
vn -0.13431888818740845 -0.3680810332298279 -0.9200407266616821
vn -0.16035230457782745 -0.5279562473297119 -0.833996057510376
vn -0.7231882214546204 -0.5654519200325012 -0.3965640962123871
vn -0.07388780266046524 -0.3020307421684265 -0.9504304528236389
vn 0.3694850206375122 -0.43746083974838257 -0.8198224902153015
vn 0.15877246856689453 -0.671825110912323 -0.723493218421936
vn 0.11378569155931473 -0.2386259287595749 -0.9644224047660828
vn -0.17250482738018036 -0.5355405807495117 -0.8267033696174622
vn 0.02385460026562214 0.9446877241134644 -0.32710278034210205
vn -0.4700377881526947 0.8574573993682861 -0.20935943722724915
vn -0.14661544561386108 0.9719483256340027 -0.18390320241451263
vn 0.4680759310722351 0.7854578495025635 -0.40492087602615356
vn 0.26533350348472595 0.9113092422485352 -0.3148232698440552
vn 0.4017776548862457 0.9004834890365601 -0.16644589602947235
vn 0.16164478659629822 0.9143971800804138 -0.3711453080177307
vn 0.5733840465545654 0.5806668400764465 -0.5779765248298645
vn 0.5438159108161926 0.5181714296340942 -0.6601232290267944
vn 0.5828266143798828 0.776055097579956 -0.2409391701221466
vn -0.9842618703842163 0.039514586329460144 -0.1722414642572403
vn 0.7277987003326416 0.19379426538944244 -0.6578395366668701
vn 0.47694772481918335 0.3287128806114197 -0.8151494860649109
vn 0.43794146180152893 0.16741812229156494 -0.8832771182060242
vn -0.932710587978363 -0.27090513706207275 -0.23803676664829254
vn 0.4891916811466217 -0.019186601042747498 -0.8719652891159058
vn 0.3282906115055084 -0.004845018498599529 -0.9445643424987793
vn 0.21975049376487732 -0.08966852724552155 -0.9714264273643494
vn -0.26074209809303284 -0.48153579235076904 -0.8367418646812439
vn -0.27996760606765747 -0.5779281854629517 -0.7665619850158691
vn -0.38744279742240906 -0.6709557771682739 -0.6322234869003296
vn -0.5878602862358093 -0.6379550099372864 -0.4974270761013031
vn 0.6715372800827026 -0.3427601158618927 -0.6569270491600037
vn -0.05396788939833641 -0.2699986398220062 -0.9613471031188965
vn -0.4486857056617737 -0.7340672612190247 -0.5097317099571228
vn 0.475717157125473 -0.6569038033485413 -0.5849536061286926
vn 0.3226453363895416 -0.7513659596443176 -0.5756293535232544
vn 0.11860901862382889 -0.9105491638183594 -0.39602047204971313
vn -0.09390483051538467 -0.8468074202537537 -0.5235448479652405
vn -0.3443097770214081 -0.75361567735672 -0.5599234104156494
vn 0.18992722034454346 0.9619495868682861 -0.19641980528831482
vn 0.0455084852874279 0.9853878021240234 -0.16413362324237823
vn -0.05475865676999092 0.9830804467201233 -0.17479801177978516
vn 0.3122001886367798 0.9457350969314575 -0.09008955955505371
vn 0.48822805285453796 0.8710814714431763 -0.053390130400657654
vn -0.9380878210067749 0.28466376662254333 -0.1973772644996643
vn 0.7939445972442627 0.5410597920417786 -0.27731990814208984
vn -0.8652041554450989 -0.3974745273590088 -0.3056727647781372
vn 0.9250948429107666 0.16138285398483276 -0.3437369763851166
vn 0.9149882793426514 -0.1321042776107788 -0.38124144077301025
vn -0.6919791102409363 -0.6412485837936401 -0.3316101133823395
vn 0.7998353838920593 -0.5338248610496521 -0.2743983864784241
vn 0.741929292678833 -0.49126800894737244 -0.4562857747077942
vn 0.45033806562423706 -0.7975856065750122 -0.4013139009475708
vn -0.14988796412944794 -0.9419841170310974 -0.3003323972225189
vn -0.4848702549934387 -0.8098391890525818 -0.3302445411682129
vn 0.1932162046432495 -0.9666205048561096 -0.16826291382312775
vn 0.019370706751942635 -0.9875541925430298 -0.15608148276805878
vn -0.361152708530426 -0.9023243188858032 -0.2353285402059555
vn -0.33425477147102356 0.9293729662895203 -0.1566513329744339
vn -0.5446761846542358 0.8167833685874939 -0.19024403393268585
vn 0.356024831533432 0.9343796968460083 -0.013452695682644844
vn 0.2797769606113434 0.954348087310791 -0.1046164408326149
vn -0.7781702876091003 0.5901036262512207 -0.21500897407531738
vn 0.6416867971420288 0.7667337656021118 -0.018906887620687485
vn 0.9402743577957153 0.331058531999588 -0.07927446812391281
vn 0.9881302714347839 0.08738061040639877 -0.12634548544883728
vn 0.945644199848175 -0.2540819048881531 -0.20297643542289734
vn -0.8362771272659302 -0.46080559492111206 -0.2971510887145996
vn 0.5333753824234009 -0.844095766544342 -0.05489140376448631
vn 0.18716087937355042 -0.9821522831916809 0.01865067332983017
vn 0.03652055189013481 -0.9991837739944458 0.017263337969779968
vn -0.124944306910038 -0.9917253255844116 -0.02949386276304722
vn 0.188271164894104 0.9734964966773987 -0.12984032928943634
vn 0.364542692899704 0.9280505776405334 -0.07635987550020218
vn 0.3626148998737335 0.9315704107284546 -0.026211073622107506
vn 0.8127573132514954 0.5823585987091064 -0.016856728121638298
vn -0.9354460835456848 0.1226554736495018 -0.3315061628818512
vn -0.905819296836853 -0.27854466438293457 -0.31922447681427
vn -0.950581431388855 -0.07081613689661026 -0.30229130387306213
vn 0.9979894757270813 0.05932943895459175 0.022294964641332626
vn 0.9100505709648132 -0.4092060327529907 0.06601861119270325
vn -0.7399753928184509 -0.6229625344276428 -0.2536812722682953
vn -0.3522971272468567 -0.9347847700119019 -0.045434094965457916
vn -0.5707846879959106 -0.8035795092582703 -0.168715238571167
vn 0.34161072969436646 -0.9235993027687073 0.17397280037403107
vn 0.0657411590218544 0.9859562516212463 -0.15352052450180054
vn -0.20781417191028595 0.957485556602478 -0.2000868320465088
vn -0.8601452112197876 0.3577776849269867 -0.36351799964904785
vn 0.4466441571712494 0.8921326398849487 -0.06788402050733566
vn 0.9204362034797668 0.38954704999923706 -0.03240891546010971
vn 0.7188760638237 0.6906427145004272 -0.07892939448356628
vn -0.895290732383728 -0.10024385154247284 -0.4340572655200958
vn -0.8787916302680969 0.16450493037700653 -0.4479547142982483
vn 0.9837955832481384 0.17765584588050842 0.02418017014861107
vn -0.8393479585647583 -0.3995106518268585 -0.36862754821777344
vn -0.8380887508392334 -0.4609622359275818 -0.291755348443985
vn 0.8765057325363159 -0.41277724504470825 0.2476946860551834
vn 0.5738922357559204 -0.7860724329948425 0.2296469360589981
vn -0.11093888431787491 -0.984551727771759 0.13546398282051086
vn -0.2263207882642746 -0.9701732397079468 0.08684933930635452
vn -0.4002821445465088 -0.9161322116851807 -0.02182016521692276
vn 0.12852808833122253 -0.9682335257530212 0.214486226439476
vn -0.014752829447388649 -0.9865226745605469 0.16295848786830902
vn 0.25571590662002563 0.9642094373703003 -0.07006893306970596
vn -0.02702050656080246 0.9950569868087769 -0.09555921703577042
vn -0.4279118776321411 0.8720571398735046 -0.23750339448451996
vn -0.7300102114677429 0.6151285767555237 -0.297828733921051
vn 0.37987473607063293 0.9175214767456055 -0.11768417805433273
vn 0.9861218929290771 -0.10763666033744812 0.12640391290187836
vn -0.7422307133674622 -0.6222658753395081 -0.2487545609474182
vn 0.4983128607273102 -0.8256310820579529 0.26460859179496765
vn 0.02396758273243904 -0.9729117155075073 0.22993125021457672
vn 0.34264981746673584 0.9303010106086731 -0.1308865249156952
vn -0.5084285736083984 0.8361920118331909 -0.20562930405139923
vn 0.3608556091785431 0.9054825305938721 -0.223348930478096
vn -0.8473042845726013 0.3706893026828766 -0.3803485035896301
vn 0.6067705750465393 0.7649176120758057 -0.21617236733436584
vn -0.9060125350952148 0.022922880947589874 -0.4226296544075012
vn 0.8878189325332642 0.443705677986145 -0.12207729369401932
vn -0.8704026937484741 -0.277130663394928 -0.4069371223449707
vn 0.9978445768356323 0.04790317639708519 0.04484976828098297
vn 0.9119707942008972 -0.3678250014781952 0.1816977858543396
vn -0.8305760622024536 -0.46946513652801514 -0.29957616329193115
vn 0.6497533321380615 -0.71477872133255 0.2586737275123596
vn -0.5333291292190552 -0.8389621376991272 -0.10817894339561462
vn 0.12345480918884277 -0.9544552564620972 0.2716139256954193
vn -0.3192526400089264 -0.9475123286247253 0.01727123185992241
vn 0.08854613453149796 0.9951722025871277 0.04233089089393616
vn 0.2561887204647064 0.9666219353675842 0.003076844848692417
vn -0.26128536462783813 0.9642287492752075 -0.04464215412735939
vn 0.3047163784503937 0.951617956161499 -0.039638690650463104
vn -0.5974677205085754 0.7973418235778809 -0.08531410247087479
vn 0.5020985007286072 0.8525702953338623 -0.14498618245124817
vn 0.260987788438797 0.9531173706054688 -0.15314283967018127
vn 0.2361769825220108 0.9581363201141357 -0.1618495136499405
vn -0.9244546890258789 0.2629046142101288 -0.2761608362197876
vn -0.8056240677833557 0.5738229155540466 -0.14729931950569153
vn 0.7975823879241943 0.6006413102149963 -0.05561021715402603
vn -0.9462295770645142 -0.13541315495967865 -0.2937905788421631
vn 0.944987416267395 -0.24513950943946838 0.21657653152942657
vn -0.6953991651535034 -0.7012133598327637 -0.15722550451755524
vn 0.3378441035747528 -0.8976520299911499 0.28298816084861755
vn -0.41468653082847595 -0.9098862409591675 0.011919466778635979
vn 0.08502935618162155 -0.9577897787094116 0.2746066451072693
vn -0.12042844295501709 -0.9836061000823975 0.13422447443008423
vn 0.2785899341106415 0.9576587080955505 0.07264672964811325
vn 0.21514920890331268 0.9765139222145081 0.011463967151939869
vn 0.9640875458717346 0.2544117271900177 0.0762220248579979
vn 0.9827548861503601 0.021611595526337624 0.1836460530757904
vn 0.7488198280334473 -0.6095241904258728 0.26028671860694885
vn -0.9178144931793213 -0.33128300309181213 -0.21878798305988312
vn 0.5037873387336731 -0.7830219864845276 0.3647944927215576
vn 0.28245285153388977 -0.8818311095237732 0.3776165843009949
vn 0.1215338185429573 -0.9321382641792297 0.3410980999469757
vn 0.005937471985816956 -0.976154088973999 0.21699784696102142
vn 0.08681339770555496 -0.9663441777229309 0.24216210842132568
vn -0.23633973300457 -0.9692984819412231 0.06785272806882858
vn 0.26103705167770386 0.9309065937995911 0.25548481941223145
vn -0.10212413221597672 0.9814568161964417 0.16221334040164948
vn -0.4217296242713928 0.8908848762512207 0.16872569918632507
vn 0.19674891233444214 0.9791573882102966 0.05040528625249863
vn 0.4509294331073761 0.8612712025642395 0.23425328731536865
vn 0.1793893426656723 0.9677329659461975 0.17695298790931702
vn 0.3051687479019165 0.9292165637016296 0.20839561522006989
vn -0.6966615319252014 0.717256486415863 0.01434835884720087
vn 0.8221497535705566 0.49294495582580566 0.2847368121147156
vn -0.9549582600593567 0.21752730011940002 -0.20183336734771729
vn 0.7573187351226807 -0.47323375940322876 0.4500199854373932
vn -0.5891563296318054 -0.8010170459747314 0.10614459216594696
vn -0.772163987159729 -0.6337651014328003 0.04587472975254059
vn -0.16302533447742462 -0.9725672006607056 0.16593928635120392
vn 0.0793546587228775 0.956045389175415 0.2822763919830322
vn 0.13662832975387573 0.9472101926803589 0.29004424810409546
vn 0.263042688369751 0.8772187829017639 0.40161648392677307
vn -0.6397716403007507 0.7394344210624695 0.2095927894115448
vn 0.8954927921295166 0.20925688743591309 0.3928157389163971
vn 0.5836754441261292 0.5145357251167297 0.6281527876853943
vn 0.1817777007818222 0.8498474955558777 0.4946880042552948
vn 0.13076885044574738 0.857100248336792 0.49827566742897034
vn -0.8124961853027344 0.5808444023132324 -0.04969615861773491
vn 0.8962664008140564 -0.07055038958787918 0.43786895275115967
vn -0.7035692930221558 0.7069074511528015 0.0726102888584137
vn -0.9871906638145447 0.057363104075193405 -0.148875892162323
vn 0.7119054794311523 -0.2503202259540558 0.6561481952667236
vn 0.46309927105903625 -0.6444295048713684 0.6084814667701721
vn 0.15505626797676086 -0.8483423590660095 0.5062339305877686
vn 0.1312902569770813 -0.908015251159668 0.39783328771591187
vn 0.16572491824626923 -0.8333489894866943 0.52731853723526
vn 0.1502845734357834 -0.8886973261833191 0.43316471576690674
vn 0.20160941779613495 0.804441511631012 0.5587732195854187
vn -0.06202012300491333 0.9021472334861755 0.4269472062587738
vn -0.2810150384902954 0.7534703016281128 0.5944014191627502
vn 0.1676272749900818 0.7068610191345215 0.6872035264968872
vn -0.5518119931221008 0.7144827246665955 0.4301372766494751
vn -0.3928561806678772 0.5194905996322632 0.7588106989860535
vn 0.3231663703918457 0.6223698854446411 0.7128950357437134
vn 0.03912203013896942 0.7341704964637756 0.6778371334075928
vn 0.748212993144989 0.12086443603038788 0.6523565649986267
vn -0.5507451295852661 0.6183838248252869 0.5606080293655396
vn -0.7500381469726562 0.15431742370128632 0.6431399583816528
vn -0.7285342216491699 -0.5826240181922913 0.3602599799633026
vn 0.5796352028846741 -0.35066455602645874 0.7355660796165466
vn 0.056247178465127945 -0.7381687760353088 0.6722671389579773
vn 0.20834477245807648 -0.6821544170379639 0.7008979320526123
vn -0.33102840185165405 -0.901447594165802 0.27894893288612366
vn -0.5094190835952759 -0.70918869972229 0.48738452792167664
vn -0.0965469554066658 -0.9375488758087158 0.33418673276901245
vn 0.05561210960149765 0.7003146409988403 0.7116647958755493
vn 0.18678556382656097 0.5479753017425537 0.8153737187385559
vn 0.016293037682771683 0.514769434928894 0.8571738600730896
vn 0.034158606082201004 0.5288370251655579 0.8480357527732849
vn 0.13522560894489288 0.4732833504676819 0.8704693913459778
vn 0.1001395732164383 0.3161279261112213 0.9434167742729187
vn -0.15004122257232666 0.4016897678375244 0.9034007787704468
vn 0.59975266456604 0.016575884073972702 0.8000137805938721
vn 0.4239308834075928 -0.0890379324555397 0.9013073444366455
vn 0.023292744532227516 0.5168892741203308 0.8557353615760803
vn -0.1491197794675827 0.3993976414203644 0.9045688509941101
vn -0.14260552823543549 -0.1831112951040268 0.9726941585540771
vn 0.0850503221154213 0.26503869891166687 0.9604795575141907
vn -0.06826663762331009 0.18494021892547607 0.9803758263587952
vn -0.2949846386909485 0.3048771917819977 0.9055573344230652
vn 0.48622509837150574 -0.4432588815689087 0.7530649304389954
vn -0.1737237125635147 -0.2275276482105255 0.9581499099731445
vn 0.07657134532928467 -0.0848722904920578 0.9934452772140503
vn 0.16549897193908691 -0.058241959661245346 0.9844886660575867
vn -0.34470778703689575 0.02523869462311268 0.9383707046508789
vn 0.14325913786888123 -0.6347512006759644 0.7593206167221069
vn -0.09192707389593124 -0.5946204662322998 0.7987339496612549
vn 0.052538562566041946 -0.4866306483745575 0.8720265030860901
vn 0.22373151779174805 -0.3586549460887909 0.9062620401382446
vn -0.20214983820915222 -0.3309304416179657 0.9217486381530762
vn -0.5032145977020264 -0.3670335114002228 0.7823435068130493
vn -0.48572131991386414 -0.40393897891044617 0.7751826643943787
vn 0.21145214140415192 -0.559195876121521 0.8016158938407898
vn -0.04474262520670891 -0.8198037147521973 0.5708941221237183
vn -0.3351650536060333 -0.7685797214508057 0.5449308156967163
f 1//1 2//2 3//3
f 3//3 2//2 4//4
f 5//5 6//6 7//7
f 6//6 8//8 7//7
f 8//8 2//2 7//7
f 2//2 1//1 7//7
f 5//5 9//9 6//6
f 6//6 9//9 10//10
f 8//8 6//6 11//11
f 11//11 6//6 10//10
f 2//2 8//8 11//11
f 1//1 3//3 12//12
f 13//13 10//10 9//9
f 11//11 10//10 14//14
f 15//15 11//11 14//14
f 2//2 16//16 4//4
f 2//2 11//11 16//16
f 11//11 15//15 16//16
f 17//17 3//3 4//4
f 14//14 10//10 13//13
f 18//18 15//15 14//14
f 14//14 13//13 18//18
f 19//19 20//20 21//21
f 20//20 22//22 21//21
f 23//23 24//24 25//25
f 26//26 5//5 27//27
f 28//28 26//26 27//27
f 7//7 27//27 5//5
f 7//7 29//29 27//27
f 23//23 29//29 7//7
f 1//1 23//23 7//7
f 24//24 23//23 1//1
f 24//24 1//1 12//12
f 30//30 31//31 26//26
f 32//32 30//30 26//26
f 26//26 31//31 9//9
f 5//5 26//26 9//9
f 12//12 3//3 33//33
f 34//34 35//35 30//30
f 31//31 30//30 35//35
f 9//9 31//31 36//36
f 31//31 35//35 36//36
f 36//36 13//13 9//9
f 37//37 3//3 17//17
f 37//37 33//33 3//3
f 38//38 35//35 34//34
f 36//36 35//35 39//39
f 39//39 35//35 38//38
f 13//13 36//36 40//40
f 40//40 36//36 39//39
f 15//15 18//18 41//41
f 15//15 42//42 16//16
f 41//41 42//42 15//15
f 16//16 43//43 4//4
f 42//42 43//43 16//16
f 4//4 43//43 44//44
f 4//4 44//44 17//17
f 45//45 38//38 34//34
f 40//40 39//39 21//21
f 13//13 46//46 18//18
f 13//13 40//40 46//46
f 40//40 21//21 46//46
f 46//46 41//41 18//18
f 44//44 43//43 47//47
f 19//19 38//38 45//45
f 39//39 38//38 19//19
f 21//21 39//39 19//19
f 22//22 46//46 21//21
f 22//22 41//41 46//46
f 19//19 45//45 48//48
f 49//49 19//19 48//48
f 19//19 49//49 20//20
f 20//20 49//49 50//50
f 22//22 20//20 51//51
f 20//20 50//50 51//51
f 41//41 22//22 52//52
f 52//52 22//22 51//51
f 42//42 41//41 52//52
f 43//43 42//42 52//52
f 53//53 23//23 54//54
f 23//23 25//25 54//54
f 54//54 25//25 55//55
f 27//27 56//56 28//28
f 27//27 53//53 56//56
f 53//53 29//29 23//23
f 53//53 27//27 29//29
f 26//26 28//28 32//32
f 32//32 28//28 57//57
f 12//12 33//33 58//58
f 30//30 59//59 34//34
f 32//32 59//59 30//30
f 17//17 60//60 37//37
f 59//59 61//61 34//34
f 34//34 62//62 45//45
f 61//61 62//62 34//34
f 44//44 63//63 17//17
f 60//60 17//17 63//63
f 64//64 65//65 62//62
f 62//62 65//65 45//45
f 48//48 65//65 66//66
f 48//48 45//45 65//65
f 48//48 66//66 49//49
f 66//66 50//50 49//49
f 50//50 67//67 51//51
f 51//51 67//67 52//52
f 43//43 52//52 68//68
f 43//43 68//68 47//47
f 44//44 47//47 68//68
f 50//50 66//66 69//69
f 70//70 50//50 69//69
f 67//67 50//50 70//70
f 71//71 52//52 67//67
f 25//25 72//72 55//55
f 24//24 73//73 72//72
f 24//24 72//72 25//25
f 74//74 28//28 56//56
f 75//75 56//56 53//53
f 24//24 76//76 73//73
f 76//76 24//24 12//12
f 76//76 12//12 58//58
f 32//32 77//77 59//59
f 32//32 57//57 77//77
f 74//74 57//57 28//28
f 59//59 78//78 61//61
f 78//78 79//79 61//61
f 61//61 79//79 62//62
f 79//79 80//80 62//62
f 60//60 63//63 81//81
f 62//62 80//80 64//64
f 65//65 64//64 66//66
f 68//68 52//52 71//71
f 63//63 44//44 68//68
f 66//66 64//64 82//82
f 66//66 82//82 69//69
f 69//69 82//82 83//83
f 70//70 69//69 84//84
f 69//69 83//83 84//84
f 67//67 70//70 85//85
f 70//70 84//84 85//85
f 71//71 67//67 85//85
f 53//53 86//86 75//75
f 75//75 86//86 87//87
f 54//54 86//86 53//53
f 54//54 55//55 86//86
f 88//88 74//74 56//56
f 87//87 56//56 75//75
f 77//77 89//89 59//59
f 58//58 33//33 90//90
f 89//89 78//78 59//59
f 37//37 60//60 91//91
f 37//37 91//91 92//92
f 37//37 92//92 33//33
f 33//33 92//92 90//90
f 60//60 81//81 91//91
f 79//79 93//93 80//80
f 94//94 80//80 93//93
f 63//63 95//95 81//81
f 94//94 82//82 80//80
f 82//82 64//64 80//80
f 68//68 71//71 96//96
f 63//63 68//68 97//97
f 97//97 68//68 96//96
f 95//95 63//63 97//97
f 83//83 82//82 98//98
f 71//71 85//85 96//96
f 55//55 99//99 86//86
f 100//100 99//99 55//55
f 55//55 72//72 100//100
f 72//72 73//73 100//100
f 88//88 56//56 87//87
f 76//76 58//58 101//101
f 102//102 77//77 57//57
f 74//74 102//102 57//57
f 102//102 74//74 88//88
f 101//101 58//58 90//90
f 89//89 103//103 78//78
f 77//77 104//104 89//89
f 90//90 92//92 105//105
f 106//106 90//90 105//105
f 103//103 107//107 78//78
f 78//78 107//107 79//79
f 105//105 91//91 108//108
f 105//105 92//92 91//91
f 79//79 107//107 93//93
f 91//91 81//81 109//109
f 91//91 109//109 108//108
f 94//94 93//93 110//110
f 95//95 109//109 81//81
f 82//82 111//111 98//98
f 94//94 111//111 82//82
f 94//94 110//110 111//111
f 96//96 112//112 113//113
f 113//113 114//114 96//96
f 97//97 96//96 114//114
f 115//115 83//83 98//98
f 83//83 115//115 84//84
f 84//84 115//115 116//116
f 85//85 84//84 116//116
f 85//85 116//116 112//112
f 112//112 96//96 85//85
f 86//86 99//99 117//117
f 99//99 118//118 117//117
f 99//99 100//100 118//118
f 86//86 117//117 87//87
f 100//100 73//73 119//119
f 119//119 73//73 76//76
f 120//120 119//119 76//76
f 121//121 88//88 87//87
f 120//120 76//76 101//101
f 101//101 90//90 106//106
f 102//102 104//104 77//77
f 104//104 103//103 89//89
f 107//107 122//122 93//93
f 123//123 108//108 109//109
f 93//93 122//122 110//110
f 109//109 95//95 123//123
f 123//123 95//95 97//97
f 111//111 110//110 124//124
f 98//98 111//111 124//124
f 98//98 124//124 115//115
f 115//115 125//125 116//116
f 125//125 112//112 116//116
f 100//100 119//119 118//118
f 121//121 87//87 126//126
f 126//126 87//87 117//117
f 119//119 120//120 127//127
f 128//128 121//121 126//126
f 101//101 106//106 129//129
f 101//101 129//129 120//120
f 128//128 130//130 102//102
f 121//121 128//128 102//102
f 88//88 121//121 102//102
f 131//131 129//129 106//106
f 104//104 130//130 132//132
f 102//102 130//130 104//104
f 131//131 105//105 133//133
f 106//106 105//105 131//131
f 107//107 103//103 134//134
f 132//132 103//103 104//104
f 105//105 108//108 133//133
f 107//107 134//134 122//122
f 134//134 135//135 122//122
f 108//108 123//123 136//136
f 108//108 136//136 133//133
f 137//137 124//124 110//110
f 137//137 110//110 135//135
f 135//135 110//110 122//122
f 123//123 97//97 138//138
f 125//125 115//115 139//139
f 114//114 113//113 140//140
f 138//138 97//97 114//114
f 140//140 138//138 114//114
f 118//118 141//141 117//117
f 117//117 141//141 142//142
f 119//119 143//143 118//118
f 119//119 127//127 143//143
f 117//117 144//144 126//126
f 142//142 144//144 117//117
f 127//127 120//120 145//145
f 130//130 128//128 146//146
f 146//146 128//128 147//147
f 126//126 148//148 128//128
f 129//129 149//149 150//150
f 129//129 150//150 120//120
f 131//131 149//149 129//129
f 132//132 130//130 151//151
f 152//152 149//149 131//131
f 103//103 132//132 134//134
f 152//152 133//133 136//136
f 131//131 133//133 152//152
f 134//134 153//153 135//135
f 123//123 154//154 136//136
f 124//124 137//137 155//155
f 140//140 156//156 138//138
f 154//154 123//123 138//138
f 156//156 154//154 138//138
f 115//115 124//124 155//155
f 139//139 115//115 155//155
f 139//139 157//157 125//125
f 113//113 112//112 158//158
f 112//112 125//125 158//158
f 158//158 140//140 113//113
f 142//142 141//141 159//159
f 118//118 143//143 141//141
f 143//143 127//127 145//145
f 148//148 126//126 144//144
f 148//148 144//144 160//160
f 142//142 159//159 144//144
f 144//144 159//159 160//160
f 145//145 120//120 150//150
f 128//128 148//148 147//147
f 146//146 151//151 130//130
f 132//132 151//151 161//161
f 132//132 161//161 134//134
f 134//134 161//161 162//162
f 134//134 162//162 153//153
f 163//163 135//135 153//153
f 164//164 152//152 136//136
f 154//154 164//164 136//136
f 135//135 163//163 137//137
f 163//163 165//165 137//137
f 137//137 165//165 155//155
f 139//139 155//155 166//166
f 155//155 165//165 166//166
f 139//139 166//166 167//167
f 125//125 168//168 158//158
f 169//169 168//168 125//125
f 158//158 170//170 140//140
f 156//156 140//140 170//170
f 169//169 125//125 157//157
f 141//141 171//171 159//159
f 143//143 172//172 141//141
f 173//173 143//143 145//145
f 147//147 174//174 146//146
f 146//146 174//174 175//175
f 147//147 148//148 160//160
f 147//147 160//160 174//174
f 174//174 160//160 176//176
f 159//159 177//177 160//160
f 160//160 177//177 176//176
f 145//145 178//178 173//173
f 178//178 145//145 150//150
f 151//151 179//179 161//161
f 175//175 151//151 146//146
f 179//179 151//151 175//175
f 180//180 150//150 149//149
f 149//149 152//152 180//180
f 180//180 152//152 164//164
f 163//163 153//153 181//181
f 163//163 181//181 165//165
f 154//154 156//156 182//182
f 182//182 183//183 154//154
f 183//183 164//164 154//154
f 139//139 167//167 157//157
f 170//170 158//158 184//184
f 158//158 168//168 184//184
f 141//141 185//185 171//171
f 141//141 172//172 185//185
f 143//143 173//173 172//172
f 174//174 176//176 186//186
f 175//175 174//174 186//186
f 186//186 176//176 187//187
f 187//187 176//176 177//177
f 171//171 177//177 159//159
f 171//171 187//187 177//177
f 178//178 188//188 173//173
f 179//179 189//189 161//161
f 175//175 190//190 179//179
f 191//191 190//190 175//175
f 186//186 191//191 175//175
f 192//192 191//191 186//186
f 193//193 178//178 150//150
f 193//193 188//188 178//178
f 150//150 180//180 193//193
f 189//189 194//194 162//162
f 161//161 189//189 162//162
f 193//193 195//195 188//188
f 193//193 180//180 196//196
f 193//193 196//196 195//195
f 162//162 194//194 153//153
f 196//196 180//180 164//164
f 194//194 181//181 153//153
f 197//197 181//181 194//194
f 197//197 198//198 181//181
f 165//165 198//198 166//166
f 165//165 181//181 198//198
f 166//166 199//199 167//167
f 167//167 199//199 200//200
f 199//199 201//201 200//200
f 157//157 167//167 200//200
f 200//200 201//201 202//202
f 200//200 202//202 157//157
f 157//157 202//202 169//169
f 168//168 169//169 202//202
f 184//184 156//156 170//170
f 185//185 203//203 171//171
f 203//203 185//185 204//204
f 172//172 204//204 185//185
f 173//173 205//205 204//204
f 173//173 204//204 172//172
f 187//187 192//192 186//186
f 206//206 192//192 187//187
f 203//203 187//187 171//171
f 203//203 206//206 187//187
f 207//207 208//208 205//205
f 188//188 207//207 205//205
f 188//188 205//205 173//173
f 209//209 190//190 191//191
f 192//192 210//210 191//191
f 191//191 210//210 209//209
f 192//192 206//206 210//210
f 190//190 211//211 189//189
f 179//179 190//190 189//189
f 207//207 212//212 208//208
f 188//188 212//212 207//207
f 188//188 195//195 212//212
f 196//196 213//213 195//195
f 211//211 197//197 194//194
f 189//189 211//211 194//194
f 196//196 164//164 183//183
f 196//196 183//183 214//214
f 196//196 214//214 213//213
f 197//197 215//215 198//198
f 198//198 199//199 166//166
f 201//201 199//199 216//216
f 201//201 216//216 217//217
f 217//217 202//202 201//201
f 182//182 156//156 218//218
f 219//219 182//182 218//218
f 219//219 183//183 182//182
f 214//214 183//183 219//219
f 184//184 168//168 220//220
f 168//168 202//202 220//220
f 218//218 156//156 184//184
f 218//218 184//184 220//220
f 204//204 221//221 203//203
f 204//204 205//205 221//221
f 206//206 203//203 222//222
f 203//203 221//221 222//222
f 222//222 221//221 223//223
f 221//221 205//205 223//223
f 210//210 206//206 224//224
f 224//224 206//206 225//225
f 206//206 222//222 225//225
f 223//223 226//226 222//222
f 226//226 225//225 222//222
f 227//227 226//226 223//223
f 205//205 227//227 223//223
f 205//205 208//208 227//227
f 190//190 228//228 211//211
f 229//229 209//209 230//230
f 229//229 228//228 209//209
f 228//228 190//190 209//209
f 210//210 230//230 209//209
f 230//230 231//231 232//232
f 230//230 210//210 231//231
f 210//210 224//224 231//231
f 225//225 233//233 224//224
f 233//233 231//231 224//224
f 226//226 233//233 225//225
f 227//227 234//234 226//226
f 235//235 234//234 227//227
f 208//208 212//212 235//235
f 208//208 235//235 227//227
f 235//235 212//212 213//213
f 212//212 195//195 213//213
f 228//228 215//215 197//197
f 211//211 228//228 197//197
f 229//229 236//236 228//228
f 236//236 215//215 228//228
f 232//232 231//231 237//237
f 233//233 238//238 231//231
f 238//238 237//237 231//231
f 226//226 239//239 233//233
f 239//239 238//238 233//233
f 234//234 239//239 226//226
f 235//235 240//240 234//234
f 213//213 240//240 235//235
f 198//198 215//215 236//236
f 241//241 236//236 229//229
f 241//241 198//198 236//236
f 232//232 242//242 241//241
f 232//232 237//237 242//242
f 238//238 243//243 237//237
f 243//243 242//242 237//237
f 244//244 243//243 238//238
f 244//244 238//238 239//239
f 245//245 239//239 234//234
f 240//240 245//245 234//234
f 245//245 240//240 246//246
f 213//213 247//247 240//240
f 247//247 246//246 240//240
f 213//213 214//214 247//247
f 241//241 199//199 198//198
f 216//216 199//199 241//241
f 242//242 216//216 241//241
f 243//243 216//216 242//242
f 217//217 216//216 243//243
f 244//244 217//217 243//243
f 217//217 248//248 202//202
f 217//217 244//244 248//248
f 202//202 248//248 249//249
f 245//245 250//250 249//249
f 245//245 246//246 250//250
f 246//246 219//219 250//250
f 247//247 219//219 246//246
f 214//214 219//219 247//247
f 220//220 202//202 249//249
f 250//250 220//220 249//249
f 218//218 220//220 250//250
f 219//219 218//218 250//250
f 229//229 230//230 232//232
f 229//229 232//232 241//241
f 239//239 248//248 244//244
f 248//248 239//239 245//245
f 245//245 249//249 248//248
