# Generated by Visualization Toolkit
v -194.05287170410156 -179.16929626464844 218.93885803222656
v -197.24581909179688 -178.78187561035156 220.70924377441406
v -194.71755981445312 -178.63018798828125 220.1954345703125
v -193.75120544433594 -180.1904754638672 219.4075927734375
v -192.4615936279297 -180.5971221923828 221.30917358398438
v -194.1416778564453 -181.03012084960938 219.93287658691406
v -198.3405303955078 -179.5878448486328 221.5913543701172
v -192.87356567382812 -182.52749633789062 222.53880310058594
v -194.80039978027344 -178.51039123535156 225.37828063964844
v -192.9032745361328 -179.4004364013672 223.33204650878906
v -196.5974884033203 -178.14117431640625 223.2450714111328
v -198.89842224121094 -178.8156280517578 222.4806365966797
v -202.21774291992188 -179.17613220214844 223.0070037841797
v -198.01693725585938 -180.8702850341797 222.4671173095703
v -192.24095153808594 -181.89041137695312 222.95651245117188
v -195.3441162109375 -182.57872009277344 222.79539489746094
v -200.0556182861328 -178.8917694091797 223.92373657226562
v -201.49722290039062 -179.8372344970703 224.12937927246094
v -191.95407104492188 -181.470703125 224.6851806640625
v -202.23712158203125 -180.73822021484375 225.311767578125
v -202.5306396484375 -180.53805541992188 225.9181671142578
v -203.20620727539062 -180.698974609375 225.40391540527344
v -195.8069610595703 -183.79354858398438 225.56686401367188
v -198.1666717529297 -182.23565673828125 225.49549865722656
v -191.22140502929688 -183.74652099609375 223.01800537109375
v -192.0767822265625 -183.2329559326172 223.55601501464844
v -191.2807159423828 -182.99501037597656 225.42440795898438
v -192.98536682128906 -184.22767639160156 224.76925659179688
v -191.41297912597656 -184.51742553710938 224.9347686767578
v -193.92562866210938 -179.39065551757812 227.45718383789062
v -197.63108825683594 -178.7415313720703 226.9997100830078
v -199.53741455078125 -179.2703094482422 226.82330322265625
v -192.9678192138672 -180.59007263183594 229.0081787109375
v -191.89984130859375 -181.9004364013672 227.82025146484375
v -200.1788787841797 -181.90086364746094 227.16632080078125
v -190.65711975097656 -183.97398376464844 226.11427307128906
v -198.3766632080078 -183.18995666503906 228.54031372070312
v -189.1660614013672 -185.95465087890625 228.06201171875
v -193.5734405517578 -186.4970703125 228.99301147460938
v -196.1612548828125 -179.3470916748047 230.4112548828125
v -200.39642333984375 -180.44223022460938 228.65269470214844
v -201.0992431640625 -181.36790466308594 227.97897338867188
v -192.39974975585938 -182.13291931152344 230.68112182617188
v -201.6538848876953 -182.25538635253906 229.42037963867188
v -191.2582244873047 -183.1238555908203 230.1532745361328
v -189.7733154296875 -184.1796112060547 229.70774841308594
v -188.7325439453125 -185.4768524169922 229.2329864501953
v -195.10446166992188 -185.6522674560547 229.23980712890625
v -196.88369750976562 -184.30062866210938 230.24075317382812
v -189.80921936035156 -187.296142578125 229.09762573242188
v -191.6003875732422 -187.5717010498047 229.47705078125
v -194.7514190673828 -179.8300018310547 231.2645721435547
v -195.59800720214844 -179.29286193847656 230.84109497070312
v -198.3052215576172 -180.5443572998047 232.55520629882812
v -200.82208251953125 -182.0048065185547 231.1385040283203
v -199.88629150390625 -182.68698120117188 231.19212341308594
v -187.9188995361328 -185.23965454101562 230.4508056640625
v -189.693359375 -184.44549560546875 232.41873168945312
v -194.1190643310547 -186.29129028320312 230.67710876464844
v -189.05496215820312 -187.34413146972656 231.2052001953125
v -190.73780822753906 -188.89532470703125 231.1339874267578
v -192.666015625 -187.67440795898438 231.22413635253906
v -193.97657775878906 -181.4397735595703 234.9407501220703
v -193.6278839111328 -182.09475708007812 233.04795837402344
v -193.1175994873047 -182.84214782714844 232.4733123779297
v -198.94590759277344 -182.3273162841797 233.67294311523438
v -198.474853515625 -181.5100860595703 233.7970428466797
v -192.02162170410156 -183.55958557128906 232.50531005859375
v -194.25181579589844 -183.46812438964844 232.88101196289062
v -192.84799194335938 -184.72000122070312 233.3040008544922
v -194.3863983154297 -182.76719665527344 234.13255310058594
v -195.5532684326172 -183.14151000976562 234.16751098632812
v -196.1248016357422 -184.0002899169922 232.0817413330078
v -197.35000610351562 -183.2095489501953 233.3897705078125
v -194.30511474609375 -185.18768310546875 231.94189453125
v -189.31878662109375 -187.22987365722656 232.9570770263672
v -193.00466918945312 -187.0407257080078 232.74609375
v -191.09005737304688 -188.57028198242188 233.0131378173828
v -190.2779083251953 -188.57469177246094 232.93336486816406
v -195.0580596923828 -181.81997680664062 236.8284149169922
v -196.1107635498047 -182.3535919189453 236.63555908203125
v -190.3819580078125 -186.29312133789062 235.1644744873047
v -190.91294860839844 -185.5032958984375 235.31072998046875
v -191.35357666015625 -186.38873291015625 235.83981323242188
v -194.37242126464844 -182.19602966308594 237.1843719482422
vn 0.2100343406200409 0.295549601316452 -0.9319527745246887
vn -0.41495567560195923 0.6973495483398438 -0.5843932628631592
vn 0.19086234271526337 0.9671170711517334 -0.16809596121311188
vn 0.5124598741531372 -0.4471682906150818 -0.7330930829048157
vn 0.9304991364479065 -0.0022652829065918922 -0.3662872016429901
vn -0.18624578416347504 -0.6635817289352417 -0.7245494723320007
vn -0.5060978531837463 -0.16997860372066498 -0.8455603122711182
vn 0.40776389837265015 -0.6646213531494141 -0.6261046528816223
vn 0.26213595271110535 0.9582402110099792 0.1142825111746788
vn 0.7218704223632812 0.6917662024497986 0.019042499363422394
vn -0.08787618577480316 0.9948314428329468 -0.05087420344352722
vn -0.328906774520874 0.8609020113945007 -0.38816002011299133
vn -0.6944512724876404 0.4477638304233551 -0.5632450580596924
vn -0.4258667826652527 -0.7329133749008179 -0.5305426716804504
vn 0.9029645919799805 -0.1767781376838684 -0.39166879653930664
vn -0.24999263882637024 -0.8255290389060974 -0.5059698820114136
vn -0.29592934250831604 0.9412018656730652 0.1629875749349594
vn -0.9270837306976318 0.34463396668434143 -0.14745566248893738
vn 0.9604082703590393 0.25256627798080444 -0.11758510023355484
vn -0.64151531457901 -0.6294654607772827 -0.4384419322013855
vn -0.8201821446418762 0.5666751265525818 0.0786173865199089
vn 0.009080721996724606 0.950864851474762 -0.30947303771972656
vn -0.4785500466823578 -0.8031604886054993 -0.3548564016819
vn -0.4123891294002533 -0.8535922169685364 -0.31830111145973206
vn 0.5749211311340332 -0.23173576593399048 -0.7847064733505249
vn 0.6358904242515564 -0.05063798651099205 -0.7701163291931152
vn 0.8164135813713074 0.5602771043777466 -0.13985177874565125
vn -0.20203810930252075 -0.793261706829071 -0.5743836164474487
vn 0.3498820662498474 -0.7502527236938477 -0.5609843730926514
vn 0.48154476284980774 0.8564141392707825 0.1861974149942398
vn -0.14616799354553223 0.9727804064750671 0.17981424927711487
vn -0.3890119791030884 0.8902384042739868 0.23695018887519836
vn 0.7740945219993591 0.596299946308136 0.2126125693321228
vn 0.8466362953186035 0.5229198932647705 0.09880221635103226
vn -0.4789375364780426 -0.8269393444061279 -0.29460182785987854
vn 0.9248244166374207 0.22777314484119415 -0.3046625256538391
vn -0.460059255361557 -0.8664740324020386 -0.19382540881633759
vn 0.8402194380760193 -0.28909701108932495 -0.45875290036201477
vn -0.4266965091228485 -0.846538782119751 -0.31828004121780396
vn 0.056705936789512634 0.9935365319252014 0.09833426773548126
vn -0.6821179389953613 0.6532717347145081 0.3285594582557678
vn -0.9209250807762146 -0.3877897560596466 0.0389382466673851
vn 0.729651689529419 0.5932988524436951 0.34000712633132935
vn -0.8864085078239441 -0.4605362117290497 -0.04675942286849022
vn 0.6526721715927124 0.742013156414032 0.15308697521686554
vn 0.6690112352371216 0.7334060668945312 -0.12058012187480927
vn 0.9078933596611023 0.15016111731529236 -0.3913837969303131
vn -0.5490369200706482 -0.8264937996864319 -0.12436457723379135
vn -0.505641758441925 -0.8418611884117126 0.18866930902004242
vn 0.3958604335784912 -0.7697753310203552 -0.5007400512695312
vn -0.2281109094619751 -0.8400352001190186 -0.49224627017974854
vn 0.502295970916748 0.8598344326019287 0.09156197309494019
vn 0.1672910451889038 0.9838281273841858 0.06399959325790405
vn -0.4139939546585083 0.834185004234314 0.364341139793396
vn -0.8400592803955078 0.18356148898601532 0.5104954242706299
vn -0.4639086425304413 -0.8639771342277527 0.19578653573989868
vn 0.9745838642120361 0.21504773199558258 0.06277602165937424
vn 0.5732407569885254 0.7537253499031067 0.32139256596565247
vn -0.6649824380874634 -0.7345172166824341 0.13521374762058258
vn 0.8052250742912292 -0.5797405242919922 -0.12455333769321442
vn 0.059726983308792114 -0.9752629995346069 -0.21282584965229034
vn -0.5904808640480042 -0.8037717342376709 -0.07268689572811127
vn 0.8620856404304504 0.3970642685890198 0.31487828493118286
vn 0.8870581388473511 -0.05216584354639053 0.45870107412338257
vn 0.48876452445983887 0.3433358371257782 0.8020160794258118
vn -0.6989182233810425 -0.45205584168434143 0.554219126701355
vn -0.597443699836731 0.5605416297912598 0.5734580159187317
vn 0.3176932632923126 0.7679418325424194 0.5561801195144653
vn 0.18482911586761475 -0.5357601642608643 0.8238927125930786
vn -0.4362587630748749 0.267753541469574 0.8590613603591919
vn 0.7023669481277466 -0.6467400789260864 0.29733484983444214
vn 0.07817679643630981 -0.9360936284065247 0.34295356273651123
vn -0.22533491253852844 -0.8516413569450378 0.47321364283561707
vn -0.2946526110172272 -0.9019271731376648 0.31576457619667053
vn -0.5951381921768188 -0.5179938077926636 0.6144046187400818
vn 0.8492369651794434 -0.4031256139278412 0.34100785851478577
vn -0.7683509588241577 -0.4950578808784485 0.405653178691864
vn -0.2320280224084854 -0.8833038806915283 0.4073539972305298
vn 0.5067395567893982 -0.7884086966514587 0.3487502336502075
vn -0.05908877030014992 0.8369696736335754 0.5440499186515808
vn -0.49219635128974915 -0.37477585673332214 0.7856754064559937
vn 0.708329975605011 -0.14250144362449646 0.6913480758666992
vn 0.20048733055591583 0.663004457950592 0.7212696671485901
vn -0.28491660952568054 -0.18140330910682678 0.9412307739257812
vn 0.5110425353050232 -0.4322451651096344 0.7429667711257935
f 1//1 2//2 3//3
f 4//4 1//1 5//5
f 1//1 4//4 6//6
f 1//1 6//6 7//7
f 1//1 7//7 2//2
f 4//4 5//5 8//8
f 6//6 4//4 8//8
f 3//3 9//9 10//10
f 1//1 3//3 10//10
f 3//3 11//11 9//9
f 2//2 11//11 3//3
f 2//2 7//7 12//12
f 2//2 12//12 11//11
f 7//7 13//13 12//12
f 10//10 5//5 1//1
f 6//6 14//14 7//7
f 14//14 13//13 7//7
f 8//8 5//5 15//15
f 16//16 14//14 6//6
f 16//16 6//6 8//8
f 12//12 17//17 11//11
f 13//13 18//18 17//17
f 13//13 17//17 12//12
f 5//5 10//10 19//19
f 20//20 21//21 18//18
f 22//22 21//21 20//20
f 5//5 19//19 15//15
f 14//14 16//16 23//23
f 24//24 14//14 23//23
f 18//18 13//13 14//14
f 18//18 14//14 20//20
f 20//20 14//14 24//24
f 25//25 26//26 27//27
f 27//27 26//26 19//19
f 8//8 15//15 26//26
f 19//19 26//26 15//15
f 8//8 28//28 16//16
f 26//26 28//28 8//8
f 26//26 25//25 28//28
f 28//28 25//25 29//29
f 10//10 9//9 30//30
f 11//11 31//31 9//9
f 17//17 31//31 11//11
f 31//31 17//17 32//32
f 17//17 18//18 32//32
f 10//10 33//33 34//34
f 19//19 10//10 34//34
f 33//33 10//10 30//30
f 18//18 21//21 32//32
f 34//34 27//27 19//19
f 20//20 24//24 35//35
f 25//25 27//27 36//36
f 37//37 24//24 23//23
f 29//29 36//36 38//38
f 29//29 25//25 36//36
f 16//16 28//28 39//39
f 23//23 16//16 39//39
f 40//40 30//30 9//9
f 31//31 40//40 9//9
f 31//31 32//32 40//40
f 21//21 41//41 32//32
f 21//21 42//42 41//41
f 33//33 43//43 34//34
f 44//44 42//42 35//35
f 21//21 20//20 42//42
f 35//35 42//42 20//20
f 27//27 45//45 46//46
f 36//36 27//27 46//46
f 45//45 27//27 34//34
f 24//24 37//37 35//35
f 44//44 35//35 37//37
f 36//36 46//46 47//47
f 38//38 36//36 47//47
f 39//39 48//48 23//23
f 37//37 23//23 48//48
f 37//37 48//48 49//49
f 50//50 29//29 38//38
f 29//29 51//51 28//28
f 51//51 39//39 28//28
f 51//51 29//29 50//50
f 30//30 52//52 33//33
f 53//53 52//52 40//40
f 52//52 30//30 40//40
f 32//32 54//54 40//40
f 41//41 54//54 32//32
f 41//41 55//55 54//54
f 44//44 55//55 41//41
f 44//44 41//41 42//42
f 34//34 43//43 45//45
f 37//37 49//49 56//56
f 44//44 37//37 56//56
f 44//44 56//56 55//55
f 57//57 47//47 46//46
f 57//57 46//46 58//58
f 45//45 58//58 46//46
f 48//48 59//59 49//49
f 57//57 60//60 47//47
f 60//60 38//38 47//47
f 39//39 59//59 48//48
f 38//38 60//60 50//50
f 61//61 51//51 50//50
f 61//61 62//62 51//51
f 62//62 39//39 51//51
f 62//62 59//59 39//39
f 33//33 52//52 63//63
f 40//40 54//54 53//53
f 43//43 64//64 65//65
f 43//43 33//33 64//64
f 33//33 63//63 64//64
f 55//55 66//66 67//67
f 55//55 67//67 54//54
f 65//65 68//68 43//43
f 43//43 68//68 45//45
f 65//65 69//69 70//70
f 71//71 69//69 64//64
f 64//64 69//69 65//65
f 69//69 72//72 73//73
f 71//71 72//72 69//69
f 73//73 74//74 49//49
f 72//72 74//74 73//73
f 49//49 74//74 56//56
f 74//74 66//66 56//56
f 66//66 55//55 56//56
f 58//58 45//45 68//68
f 75//75 70//70 69//69
f 49//49 59//59 75//75
f 49//49 75//75 73//73
f 73//73 75//75 69//69
f 57//57 76//76 60//60
f 59//59 77//77 75//75
f 50//50 60//60 61//61
f 62//62 78//78 77//77
f 61//61 78//78 62//62
f 77//77 59//59 62//62
f 60//60 76//76 79//79
f 61//61 60//60 79//79
f 61//61 79//79 78//78
f 52//52 53//53 80//80
f 63//63 52//52 80//80
f 80//80 53//53 54//54
f 67//67 80//80 54//54
f 66//66 81//81 67//67
f 64//64 63//63 71//71
f 81//81 66//66 74//74
f 58//58 82//82 57//57
f 83//83 82//82 58//58
f 68//68 83//83 58//58
f 68//68 70//70 83//83
f 68//68 65//65 70//70
f 84//84 83//83 70//70
f 57//57 82//82 76//76
f 77//77 84//84 70//70
f 70//70 75//75 77//77
f 82//82 79//79 76//76
f 84//84 78//78 82//82
f 78//78 79//79 82//82
f 77//77 78//78 84//84
f 63//63 80//80 85//85
f 81//81 80//80 67//67
f 71//71 63//63 85//85
f 71//71 85//85 72//72
f 81//81 74//74 72//72
f 83//83 84//84 82//82
f 85//85 80//80 81//81
f 81//81 72//72 85//85
