# Generated by Visualization Toolkit
v 2.4421844482421875 -30.29277801513672 517.9697875976562
v 5.1389617919921875 -33.13567352294922 522.26953125
v 1.906158447265625 -31.013931274414062 515.6129760742188
v 2.7708892822265625 -33.36624526977539 519.255126953125
v 4.7589569091796875 -31.689189910888672 524.0794067382812
v 4.0011749267578125 -35.11598205566406 522.2706298828125
v 1.84222412109375 -34.25519561767578 523.3887329101562
v 2.8652191162109375 -31.713699340820312 526.9723510742188
v 1.4311065673828125 -32.89374542236328 525.9312133789062
v 8.15118408203125 -36.55424499511719 525.4137573242188
v 7.1170654296875 -38.065433502197266 524.0708618164062
v 4.1795196533203125 -38.117061614990234 524.811279296875
v 6.5418548583984375 -34.85257339477539 529.109375
v 1.307403564453125 -35.69379806518555 526.6727294921875
v 7.2524871826171875 -39.23668670654297 528.5498046875
v 6.086639404296875 -41.27927017211914 530.4103393554688
v 2.9669647216796875 -40.465431213378906 532.0430908203125
v 4.124298095703125 -35.66594314575195 532.1574096679688
v 2.4307861328125 -34.18041229248047 530.3396606445312
v 1.86517333984375 -38.45725631713867 533.2471923828125
v 5.8260650634765625 -42.6702880859375 532.8529052734375
v 2.717376708984375 -37.92177963256836 534.0200805664062
v 5.24102783203125 -40.88331985473633 533.9300537109375
v 5.9375762939453125 -29.991844177246094 534.076904296875
v 5.9375762939453125 -29.991844177246094 534.076904296875
v 5.937591552734375 -29.991844177246094 534.076904296875
v 5.9375762939453125 -29.991844177246094 534.076904296875
v 5.9375762939453125 -29.99184799194336 534.076904296875
v 5.9375762939453125 -29.991844177246094 534.076904296875
vn 0.4163195490837097 0.9019142389297485 -0.11501612514257431
vn 0.8720667362213135 0.11921408772468567 -0.47464480996131897
vn -0.86179119348526 0.03823822736740112 -0.5058199763298035
vn 0.09698306024074554 -0.831573486328125 -0.546881914138794
vn 0.6853031516075134 0.7268221974372864 0.04570822790265083
vn -0.03160509467124939 -0.6475897431373596 -0.7613334655761719
vn -0.7936297655105591 -0.5120415091514587 -0.32858091592788696
vn -0.21420878171920776 0.9006693959236145 0.37803348898887634
vn -0.9528403878211975 0.2820712924003601 0.11194176971912384
vn 0.9761365056037903 0.18814557790756226 0.10843812674283981
vn 0.5118762254714966 -0.5665702819824219 -0.6457405686378479
vn -0.47043588757514954 -0.7244218587875366 -0.5038878917694092
vn 0.7608811259269714 0.5636730790138245 0.32145369052886963
vn -0.9264895915985107 -0.3304530382156372 -0.18004950881004333
vn 0.9210762977600098 -0.38921433687210083 -0.011432592757046223
vn 0.11979680508375168 -0.8978986740112305 -0.42358773946762085
vn -0.6872631907463074 -0.7260624766349792 -0.022419355809688568
vn 0.30633920431137085 0.6460026502609253 0.6991687417030334
vn -0.5492957234382629 0.6330675482749939 0.5454354286193848
vn -0.8973979353904724 -0.12513703107833862 0.4231049120426178
vn 0.6013242602348328 -0.7000062465667725 0.38522788882255554
vn -0.2831134498119354 0.3466271162033081 0.8942574858665466
vn 0.31949037313461304 -0.15611059963703156 0.9346418380737305
vn -0 0 -1
vn 0 -0 0
vn 0 -0 0
vn 0 -0 0
vn 0 -0 0
vn 0 -0 1
f 1//1 2//2 3//3
f 4//4 3//3 2//2
f 2//2 1//1 5//5
f 4//4 2//2 6//6
f 7//7 3//3 4//4
f 5//5 1//1 8//8
f 8//8 1//1 3//3
f 9//9 8//8 3//3
f 3//3 7//7 9//9
f 2//2 10//10 11//11
f 11//11 6//6 2//2
f 6//6 7//7 4//4
f 6//6 11//11 12//12
f 12//12 7//7 6//6
f 2//2 13//13 10//10
f 2//2 5//5 13//13
f 9//9 7//7 14//14
f 7//7 12//12 14//14
f 11//11 10//10 15//15
f 8//8 13//13 5//5
f 11//11 15//15 16//16
f 12//12 11//11 16//16
f 16//16 17//17 12//12
f 8//8 18//18 13//13
f 19//19 18//18 8//8
f 8//8 9//9 19//19
f 19//19 9//9 20//20
f 20//20 9//9 14//14
f 14//14 12//12 17//17
f 20//20 14//14 17//17
f 17//17 16//16 21//21
f 19//19 20//20 22//22
f 13//13 23//23 10//10
f 23//23 21//21 10//10
f 10//10 21//21 15//15
f 16//16 15//15 21//21
f 24//24 25//25 26//26
f 25//25 24//24 27//27
f 24//24 26//26 28//28
f 27//27 24//24 28//28
f 18//18 19//19 22//22
f 13//13 18//18 23//23
f 25//25 29//29 26//26
f 25//25 27//27 29//29
f 26//26 29//29 28//28
f 27//27 28//28 29//29
f 18//18 22//22 23//23
f 20//20 17//17 23//23
f 22//22 20//20 23//23
f 17//17 21//21 23//23
