# Generated by Visualization Toolkit
v -48.91727828979492 -200.572509765625 479.86688232421875
v -48.341617584228516 -200.53477478027344 480.16815185546875
v -49.079505920410156 -203.4995574951172 480.197265625
v -48.094608306884766 -202.6175994873047 480.668701171875
v -50.56119918823242 -202.99224853515625 479.9898376464844
v -49.59912109375 -206.0423583984375 480.8806457519531
v -50.66325759887695 -204.88140869140625 480.4831237792969
v -49.39179992675781 -191.94622802734375 480.6314697265625
v -49.306949615478516 -191.46871948242188 481.2691955566406
v -48.98736572265625 -193.54244995117188 481.8727722167969
v -48.89372253417969 -191.84738159179688 482.6274108886719
v -49.53417205810547 -193.8751220703125 481.0191955566406
v -50.482784271240234 -193.97586059570312 481.0242919921875
v -49.22126007080078 -195.99949645996094 481.1788635253906
v -48.699886322021484 -195.80355834960938 482.513671875
v -48.76688003540039 -197.38442993164062 481.2676696777344
v -48.151004791259766 -198.71934509277344 481.75384521484375
v -50.35859680175781 -196.98329162597656 480.8009948730469
v -47.98944091796875 -201.79388427734375 481.6951599121094
v -51.29476547241211 -200.4237060546875 479.99444580078125
v -52.94419479370117 -199.93984985351562 480.4995422363281
v -52.920040130615234 -201.06175231933594 480.40020751953125
v -54.24764633178711 -200.91058349609375 482.10894775390625
v -48.27651596069336 -203.01141357421875 481.90093994140625
v -52.643577575683594 -202.9314422607422 480.68572998046875
v -53.74348068237305 -204.4517822265625 481.7900695800781
v -54.37405014038086 -202.4336395263672 482.3710632324219
v -50.02280044555664 -206.430908203125 481.5123596191406
v -53.18913269042969 -205.38763427734375 481.3796081542969
v -50.736114501953125 -207.00863647460938 481.3303527832031
v -52.33485412597656 -206.08482360839844 482.4184875488281
v -53.544925689697266 -205.05804443359375 483.27105712890625
v -51.136749267578125 -185.56434631347656 484.9873046875
v -50.3518180847168 -184.82501220703125 484.82037353515625
v -51.505149841308594 -187.36920166015625 484.06610107421875
v -50.331092834472656 -189.73768615722656 482.7308349609375
v -49.8766975402832 -187.82640075683594 483.9766540527344
v -52.230140686035156 -187.3522186279297 485.489990234375
v -49.37671661376953 -189.94052124023438 483.2230529785156
v -54.36795425415039 -190.30050659179688 485.26898193359375
v -52.90138626098633 -190.7569580078125 483.4786071777344
v -51.322689056396484 -191.61495971679688 482.0943603515625
v -54.20219039916992 -192.03834533691406 484.15789794921875
v -51.822330474853516 -193.6525115966797 481.78363037109375
v -48.73067092895508 -192.4753875732422 484.5535888671875
v -53.75267791748047 -196.41546630859375 483.1207275390625
v -52.63816833496094 -197.55029296875 481.7229309082031
v -48.67383575439453 -196.05435180664062 484.2363586425781
v -51.4840202331543 -197.75341796875 480.9551086425781
v -54.68566131591797 -197.51205444335938 484.43499755859375
v -48.35177993774414 -199.30316162109375 483.08642578125
v -54.01655197143555 -199.07286071777344 482.6866149902344
v -48.96003341674805 -199.2464141845703 484.6932067871094
v -54.69049072265625 -200.01307678222656 484.09320068359375
v -50.20878601074219 -199.95162963867188 486.22723388671875
v -54.574432373046875 -202.0580291748047 483.9802551269531
v -49.59170913696289 -203.69728088378906 483.18902587890625
v -51.10811233520508 -204.68716430664062 483.87603759765625
v -51.43233108520508 -205.98831176757812 482.7958984375
v -52.65953826904297 -206.0207977294922 483.3636779785156
v -49.86644744873047 -182.6235809326172 486.08697509765625
v -49.54532241821289 -187.74880981445312 484.94244384765625
v -51.22776794433594 -185.21041870117188 486.37066650390625
v -53.5434455871582 -188.4415283203125 486.4040832519531
v -55.19355010986328 -193.4886932373047 485.61199951171875
v -55.306461334228516 -196.251220703125 486.0433044433594
v -49.0942497253418 -195.18113708496094 486.2770690917969
v -54.921634674072266 -199.2087860107422 485.8848571777344
v -51.47146987915039 -199.9205780029297 487.6631774902344
v -54.11515426635742 -202.91078186035156 485.1724853515625
v -52.27964782714844 -201.6585235595703 486.9264831542969
v -52.93650817871094 -203.24517822265625 486.01361083984375
v -53.61034393310547 -203.4046173095703 485.6267395019531
v -49.69330978393555 -187.31764221191406 486.2311096191406
v -51.52150344848633 -184.8213348388672 488.8443908691406
v -50.60098648071289 -184.14878845214844 487.9425964355469
v -51.108158111572266 -185.96388244628906 487.8629455566406
v -50.88451385498047 -185.78350830078125 488.4487609863281
v -51.150840759277344 -186.7765350341797 487.90936279296875
v -52.66828918457031 -187.31207275390625 487.3202819824219
v -49.19358444213867 -190.80345153808594 487.06805419921875
v -54.773983001708984 -188.4884796142578 487.9600830078125
v -49.26616668701172 -192.5839385986328 487.68603515625
v -55.732391357421875 -191.57359313964844 487.2732849121094
v -55.89996337890625 -195.36326599121094 487.9349365234375
v -56.13666915893555 -193.13351440429688 488.73858642578125
v -50.087547302246094 -196.1457977294922 487.9277038574219
v -55.29804611206055 -197.3111572265625 487.2030334472656
v -55.52324295043945 -196.07667541503906 489.5598449707031
v -54.58955764770508 -199.05299377441406 487.3918151855469
v -53.74364471435547 -198.62188720703125 488.5177001953125
v -50.73944854736328 -173.95440673828125 491.6808166503906
v -49.92948913574219 -176.64149475097656 490.4758605957031
v -50.116607666015625 -177.25865173339844 489.77728271484375
v -51.27320098876953 -174.92733764648438 490.4593811035156
v -51.477569580078125 -176.740234375 489.74810791015625
v -50.9074592590332 -179.73353576660156 490.0242614746094
v -49.92671203613281 -178.80006408691406 489.9881896972656
v -50.44701385498047 -181.1475372314453 490.9719543457031
v -50.967952728271484 -181.72174072265625 490.38702392578125
v -51.89884567260742 -181.66873168945312 490.70574951171875
v -54.94088363647461 -182.41639709472656 491.3431091308594
v -55.79304504394531 -184.9143829345703 490.8471984863281
v -55.41242980957031 -180.4091033935547 491.3495178222656
v -51.043094635009766 -183.17701721191406 489.7431335449219
v -50.508602142333984 -183.25804138183594 490.37432861328125
v -54.85146713256836 -184.12010192871094 491.1349182128906
v -56.56325149536133 -185.65757751464844 491.0605773925781
v -50.193721771240234 -185.3341522216797 487.5506286621094
v -50.52445983886719 -184.74171447753906 489.7094421386719
v -53.389469146728516 -184.31272888183594 491.29541015625
v -54.937705993652344 -186.4708709716797 489.74371337890625
v -50.282073974609375 -186.8003387451172 487.5307922363281
v -50.8249397277832 -186.09861755371094 489.81134033203125
v -51.93202590942383 -186.2095184326172 488.6441955566406
v -52.89368438720703 -185.4545135498047 489.69305419921875
v -53.61359405517578 -186.90957641601562 488.6168212890625
v -55.76650619506836 -188.3818359375 489.3617248535156
v -49.99826431274414 -188.39865112304688 488.2319641113281
v -50.475440979003906 -187.51637268066406 490.0963439941406
v -56.468326568603516 -188.67059326171875 490.4845886230469
v -49.972782135009766 -189.59280395507812 489.6592712402344
v -50.31105041503906 -190.67958068847656 490.9190979003906
v -56.726863861083984 -189.27870178222656 491.6654357910156
v -50.68079376220703 -192.27224731445312 490.82720947265625
v -49.6865348815918 -193.7138671875 488.46258544921875
v -56.309810638427734 -192.1484375 490.9739990234375
v -50.76538848876953 -194.490966796875 489.63848876953125
v -55.940521240234375 -193.63287353515625 490.99212646484375
v -51.69123458862305 -197.3726043701172 488.84423828125
v -51.73613357543945 -193.92044067382812 491.00958251953125
v -52.85621643066406 -197.95106506347656 489.0314025878906
v -54.81866455078125 -197.3202667236328 488.83197021484375
v -53.20756912231445 -195.03823852539062 491.14556884765625
v -52.272857666015625 -172.78988647460938 492.0949401855469
v -51.459781646728516 -171.59706115722656 492.9912109375
v -53.66394805908203 -174.18511962890625 491.546142578125
v -50.400596618652344 -172.26451110839844 494.5094299316406
v -54.32441329956055 -177.1526641845703 490.86590576171875
v -55.462562561035156 -175.90325927734375 491.872314453125
v -49.825218200683594 -177.9172821044922 491.0446472167969
v -54.04781723022461 -180.91729736328125 491.2151794433594
v -56.33387756347656 -176.68597412109375 492.56927490234375
v -50.3023681640625 -181.4175567626953 492.21246337890625
v -52.88990783691406 -180.73167419433594 490.98931884765625
v -56.6694221496582 -180.84120178222656 492.1191711425781
v -53.84248733520508 -182.81838989257812 492.2155456542969
v -52.895599365234375 -182.87591552734375 491.52386474609375
v -50.577537536621094 -185.8345489501953 491.9668884277344
v -57.38644790649414 -184.14588928222656 492.3943786621094
v -50.737876892089844 -187.2754669189453 493.3130798339844
v -51.004676818847656 -189.35916137695312 493.2185974121094
v -51.84192657470703 -191.8389892578125 492.86822509765625
v -52.993247985839844 -192.35769653320312 493.594970703125
v -54.399803161621094 -193.8160400390625 492.7742614746094
v -54.466461181640625 -195.54299926757812 490.79345703125
v -55.4153938293457 -193.65574645996094 492.2363586425781
v -51.57436752319336 -168.35617065429688 494.2659912109375
v -50.924659729003906 -168.3192901611328 494.9733581542969
v -50.72004318237305 -171.6168212890625 493.8128356933594
v -53.17759323120117 -171.69332885742188 492.9081115722656
v -54.30647659301758 -171.1153106689453 493.84161376953125
v -55.808353424072266 -172.866943359375 494.13427734375
v -50.26549530029297 -173.528076171875 495.1114501953125
v -50.13922882080078 -178.2759246826172 493.591064453125
v -57.36362075805664 -180.07237243652344 493.3084411621094
v -57.924171447753906 -180.75746154785156 494.63726806640625
v -57.60422134399414 -185.822021484375 493.49066162109375
v -57.24479293823242 -188.22930908203125 493.7833251953125
v -52.15976333618164 -189.5426483154297 494.58856201171875
v -51.347991943359375 -187.6770782470703 494.8666687011719
v -56.511932373046875 -189.88082885742188 493.18798828125
v -55.29027557373047 -191.06185913085938 494.0323486328125
v -51.71811294555664 -165.04139709472656 496.4154968261719
v -52.79608154296875 -164.64430236816406 496.26953125
v -52.58586120605469 -163.17405700683594 497.9552917480469
v -54.191810607910156 -164.23599243164062 496.9689025878906
v -51.91645050048828 -167.22927856445312 494.99676513671875
v -54.00533676147461 -165.32156372070312 495.7720642089844
v -52.968875885009766 -168.45140075683594 494.4312744140625
v -54.72724533081055 -165.65672302246094 495.8961486816406
v -55.7672233581543 -168.2051239013672 495.8892822265625
v -55.20754623413086 -164.9229278564453 496.9705810546875
v -56.878013610839844 -168.73309326171875 497.0111999511719
v -50.51795196533203 -167.67176818847656 496.8092956542969
v -56.955657958984375 -173.83236694335938 495.1484680175781
v -57.824012756347656 -174.88771057128906 496.42047119140625
v -57.343631744384766 -176.6275634765625 494.4295959472656
v -50.52031326293945 -174.41273498535156 496.7311706542969
v -57.97002410888672 -177.40379333496094 496.11053466796875
v -50.74393081665039 -183.2588348388672 495.3367004394531
v -58.2247314453125 -179.33969116210938 496.6737365722656
v -57.90080642700195 -182.3939971923828 496.0243835449219
v -51.134883880615234 -184.6776885986328 496.14013671875
v -57.250953674316406 -186.77853393554688 495.2914123535156
v -52.36276626586914 -186.20065307617188 497.13482666015625
v -51.7220344543457 -184.5431671142578 497.2680358886719
v -56.60009765625 -188.01829528808594 495.6488342285156
v -53.39469528198242 -190.19473266601562 494.91729736328125
v -54.59814453125 -187.78976440429688 496.8930969238281
v -54.47433853149414 -190.54611206054688 494.76324462890625
v -52.20953369140625 -160.0803985595703 500.07159423828125
v -52.652774810791016 -158.90020751953125 501.05792236328125
v -51.77323532104492 -163.1695556640625 498.91131591796875
v -53.19926452636719 -162.22564697265625 498.9915466308594
v -50.989322662353516 -165.8792724609375 496.9532165527344
v -56.3181037902832 -166.98292541503906 498.0042724609375
v -50.46661376953125 -168.38589477539062 498.02398681640625
v -50.72109603881836 -169.87686157226562 499.6991271972656
v -57.503963470458984 -170.21957397460938 498.34869384765625
v -58.160640716552734 -173.78338623046875 498.2281494140625
v -58.349754333496094 -175.21458435058594 498.8919982910156
v -58.224525451660156 -178.03623962402344 498.4976501464844
v -51.094512939453125 -179.4173126220703 497.5240783691406
v -58.757755279541016 -179.43516540527344 498.5438232421875
v -58.02409362792969 -180.5753936767578 497.84014892578125
v -52.11670684814453 -179.82342529296875 499.5917663574219
v -57.37110900878906 -183.4597930908203 497.26153564453125
v -56.7000732421875 -184.8261260986328 497.9635925292969
v -55.96065139770508 -186.84913635253906 497.1328430175781
v -54.83031463623047 -186.5607147216797 498.0624084472656
v -53.429786682128906 -186.6263427734375 497.6767272949219
v -51.423133850097656 -163.2230987548828 500.5960998535156
v -53.2625617980957 -159.95370483398438 501.6385498046875
v -53.856632232666016 -162.6301727294922 500.6899719238281
v -54.2822265625 -163.74267578125 498.79388427734375
v -50.98828887939453 -165.25579833984375 500.5127868652344
v -55.444549560546875 -165.65225219726562 498.8977966308594
v -56.017608642578125 -166.6891326904297 499.3735656738281
v -54.56304168701172 -167.03721618652344 501.78668212890625
v -56.79820251464844 -167.43438720703125 499.8188171386719
v -57.34640884399414 -167.94187927246094 500.8386535644531
v -55.37200927734375 -168.24484252929688 501.8865966796875
v -57.639034271240234 -171.03207397460938 499.68670654296875
v -51.456356048583984 -175.04405212402344 499.9401550292969
v -58.3836669921875 -173.70516967773438 499.6457214355469
v -52.29792404174805 -177.17709350585938 501.0672607421875
v -58.33106231689453 -176.0464630126953 499.8157043457031
v -57.46452713012695 -177.95223999023438 500.53564453125
v -58.01319885253906 -179.31234741210938 499.11090087890625
v -57.00785827636719 -180.16531372070312 499.8692626953125
v -55.7958984375 -180.05850219726562 501.0349426269531
v -56.260501861572266 -183.2118682861328 499.1036071777344
v -53.18767166137695 -183.44383239746094 499.6390686035156
v -54.021461486816406 -183.7649383544922 499.8529968261719
v -55.087039947509766 -183.87130737304688 499.6356506347656
v -52.52088165283203 -157.77235412597656 502.7297058105469
v -53.388851165771484 -155.8338165283203 503.5384521484375
v -53.32182312011719 -157.09693908691406 503.1305847167969
v -51.94798278808594 -160.43820190429688 503.0565185546875
v -53.570648193359375 -160.309814453125 503.24615478515625
v -53.702816009521484 -161.60702514648438 503.9352111816406
v -51.1904411315918 -165.89808654785156 501.8998718261719
v -54.629432678222656 -164.6439971923828 499.9796142578125
v -54.17625427246094 -164.1339874267578 501.83477783203125
v -51.74289321899414 -167.3321075439453 503.7388000488281
v -56.3985481262207 -168.1250762939453 500.8711242675781
v -57.265316009521484 -167.06370544433594 501.3008117675781
v -54.5636100769043 -168.20729064941406 504.2089538574219
v -56.07244110107422 -169.73309326171875 502.1947937011719
v -57.00312423706055 -169.95896911621094 500.9996337890625
v -52.385467529296875 -170.8074188232422 504.2703857421875
v -55.951168060302734 -171.93028259277344 504.1247253417969
v -57.49213790893555 -174.3065948486328 501.77685546875
v -53.765869140625 -176.4232177734375 503.9287109375
v -53.13227081298828 -174.3707733154297 504.1368103027344
v -53.4674072265625 -179.40296936035156 501.32733154296875
v -54.863746643066406 -177.30372619628906 504.0150451660156
v -55.497154235839844 -175.76828002929688 504.45367431640625
v -53.478248596191406 -181.40771484375 500.3846740722656
v -54.543155670166016 -178.88645935058594 502.32989501953125
v -54.737667083740234 -180.58258056640625 501.073486328125
v -54.37577438354492 -154.48699951171875 504.3572082519531
v -53.63866424560547 -157.34498596191406 504.2730712890625
v -51.96461868286133 -162.50628662109375 504.0541687011719
v -53.93440628051758 -165.86923217773438 504.699951171875
v -53.072811126708984 -169.88124084472656 505.7579345703125
v -55.29768753051758 -174.3699188232422 505.29339599609375
v -53.21506881713867 -156.09835815429688 504.39453125
v -53.644187927246094 -156.18873596191406 504.8660583496094
v -52.85662841796875 -158.02760314941406 505.0506286621094
v -53.44416809082031 -158.06736755371094 505.7073974609375
v -53.4716682434082 -159.47096252441406 505.2194519042969
v -52.618133544921875 -161.37203979492188 505.42572021484375
v -53.519344329833984 -161.4129638671875 505.90631103515625
v -53.552955627441406 -162.7577362060547 505.2764892578125
v -52.48799133300781 -166.05137634277344 505.2984313964844
v -54.069942474365234 -168.17689514160156 505.4324645996094
v -55.27583694458008 -172.52822875976562 505.30633544921875
v -54.514892578125 -174.96815490722656 505.5031433105469
v -53.01863098144531 -159.5597686767578 505.56793212890625
v -52.9693717956543 -163.23243713378906 505.7153015136719
v -53.81276321411133 -169.4013671875 505.907958984375
vn 0.2686246931552887 0.1276063472032547 -0.9547551274299622
vn 0.7165101766586304 0.09060655534267426 -0.6916672587394714
vn 0.3165178596973419 -0.21221791207790375 -0.9245431423187256
vn 0.9256893396377563 -0.17628739774227142 -0.3346969783306122
vn -0.12873625755310059 -0.14581267535686493 -0.9809004664421082
vn 0.6536990404129028 -0.5595278143882751 -0.5095157027244568
vn -0.135365828871727 -0.2821109890937805 -0.9497839212417603
vn 0.1485450565814972 0.26412391662597656 -0.9529811143875122
vn 0.8147355318069458 0.4198076128959656 -0.3999594748020172
vn 0.9516004920005798 0.024364816024899483 -0.30637049674987793
vn 0.9669809341430664 0.17305836081504822 -0.18707937002182007
vn 0.4528813362121582 -0.05124647542834282 -0.8900968432426453
vn -0.23021958768367767 0.0342082679271698 -0.9725372791290283
vn 0.7022117376327515 0.1533641219139099 -0.6952540874481201
vn 0.9659971594810486 0.14225487411022186 -0.2159004956483841
vn 0.795394778251648 0.28129979968070984 -0.5368589758872986
vn 0.9840689301490784 0.13534237444400787 -0.11528578400611877
vn -0.02554318867623806 0.16032734513282776 -0.9867333769798279
vn 0.9624244570732117 -0.10431436449289322 0.2507144510746002
vn -0.18647004663944244 0.14620345830917358 -0.971521258354187
vn -0.5827535390853882 0.2702513039112091 -0.7663958072662354
vn -0.510647177696228 -0.06903795897960663 -0.8570141196250916
vn -0.8634547591209412 0.076059490442276 -0.49865907430648804
vn 0.8779391050338745 -0.3429124355316162 0.33411675691604614
vn -0.4313125014305115 -0.17890992760658264 -0.8842855095863342
vn -0.8580811619758606 -0.22748591005802155 -0.4603770077228546
vn -0.9576884508132935 -0.08931810408830643 -0.27359673380851746
vn 0.6336230039596558 -0.6111748814582825 0.4743282198905945
vn -0.6468139886856079 -0.5328447818756104 -0.5456264019012451
vn 0.007278904784470797 -0.9780570268630981 -0.20821015536785126
vn -0.4305678606033325 -0.8997389674186707 0.07128297537565231
vn -0.8311504125595093 -0.5494612455368042 0.08533062785863876
vn -0.7730645537376404 0.4671856164932251 -0.4290790259838104
vn 0.2028682380914688 0.4623921811580658 -0.8631558418273926
vn -0.5614163875579834 0.4372548758983612 -0.7025808691978455
vn 0.16523630917072296 0.5459858179092407 -0.8213382363319397
vn 0.7637816071510315 0.3270106613636017 -0.556508481502533
vn -0.7748271226882935 0.599399745464325 -0.20090533792972565
vn 0.769505500793457 0.43830248713493347 -0.46449142694473267
vn -0.7421364784240723 0.44716915488243103 -0.49927276372909546
vn -0.6069136261940002 0.3124726414680481 -0.7307645082473755
vn -0.4627895653247833 0.3573456108570099 -0.8112520575523376
vn -0.7820703387260437 0.16296328604221344 -0.6015056371688843
vn -0.574570894241333 0.1694316267967224 -0.8007254600524902
vn 0.9977018237113953 0.0641745775938034 0.021742219105362892
vn -0.7586400508880615 0.1327151507139206 -0.6378495693206787
vn -0.6413703560829163 0.2628801167011261 -0.7207900285720825
vn 0.9863497614860535 0.013417511247098446 0.1641162782907486
vn -0.36259925365448 0.2386123687028885 -0.9008806943893433
vn -0.918108344078064 0.03030756115913391 -0.3951689600944519
vn 0.9648324847221375 -0.0020601784344762564 0.262857586145401
vn -0.8445152044296265 0.21054194867610931 -0.49240854382514954
vn 0.900278627872467 -0.14529892802238464 0.41034942865371704
vn -0.9752413630485535 0.03852880001068115 -0.21776112914085388
vn 0.7752549052238464 -0.28911471366882324 0.5615982413291931
vn -0.9756203889846802 -0.219416543841362 0.0046109408140182495
vn 0.6769769191741943 -0.42516636848449707 0.6007793545722961
vn 0.4496377110481262 -0.5740739107131958 0.6842990517616272
vn 0.22132277488708496 -0.8047874569892883 0.5507572293281555
vn -0.18651436269283295 -0.8575678467750549 0.4793640971183777
vn 0.5430173277854919 0.8075593113899231 -0.23017415404319763
vn 0.9608109593391418 0.20901629328727722 -0.18208400905132294
vn -0.9446277022361755 0.327523410320282 -0.020173922181129456
vn -0.6295037269592285 0.6554551720619202 -0.41725727915763855
vn -0.9210572242736816 0.03240285441279411 -0.38807693123817444
vn -0.964140772819519 -0.09601210057735443 -0.2474152147769928
vn 0.9367902874946594 -0.12293610721826553 0.32758310437202454
vn -0.9868850708007812 -0.16136252880096436 0.004465796519070864
vn 0.5327734351158142 -0.4096742272377014 0.7404860854148865
vn -0.8962212800979614 -0.34910908341407776 0.27369749546051025
vn 0.18708962202072144 -0.5253106355667114 0.8300881385803223
vn 0.01629447378218174 -0.6041703820228577 0.7966886162757874
vn -0.6120039224624634 -0.5337772965431213 0.5835521817207336
vn 0.963438093662262 0.11296289414167404 0.24295350909233093
vn -0.8208107948303223 0.2862210273742676 -0.49431484937667847
vn 0.31487730145454407 0.9391040802001953 -0.13760793209075928
vn -0.7565333843231201 -0.41941916942596436 0.5017418265342712
vn 0.42626240849494934 -0.8925991654396057 0.1468573361635208
vn 0.1448795199394226 0.9715307950973511 0.18745091557502747
vn -0.3714672029018402 0.8354678153991699 -0.40497612953186035
vn 0.9763041138648987 0.13757731020450592 0.16704107820987701
vn -0.6108552813529968 0.5732568502426147 -0.5461066961288452
vn 0.9566845893859863 -0.04414217546582222 0.28776049613952637
vn -0.9274009466171265 0.11629122495651245 -0.3555333614349365
vn -0.9837843775749207 -0.13539619743824005 -0.11762736737728119
vn -0.9913403391838074 -0.097776859998703 -0.08765921741724014
vn 0.7766924500465393 -0.2707427740097046 0.5687242746353149
vn -0.9399499297142029 -0.33017122745513916 0.0864936038851738
vn -0.7843630909919739 -0.49950411915779114 0.3677910566329956
vn -0.8135993480682373 -0.3956151008605957 0.42608073353767395
vn -0.2880389988422394 -0.5504438877105713 0.7836103439331055
vn 0.6357142925262451 0.49557796120643616 -0.5918360352516174
vn 0.9498698711395264 0.20408280193805695 -0.23684900999069214
vn 0.46565020084381104 0.2202267199754715 -0.8571289777755737
vn 0.12403836101293564 0.5163214802742004 -0.8473645448684692
vn -0.20152950286865234 0.1327413022518158 -0.9704461097717285
vn 0.0016245015431195498 -0.26845699548721313 -0.9632903337478638
vn 0.829430341720581 -0.157628133893013 -0.5359092354774475
vn 0.8708798289299011 -0.07289855182170868 -0.48605990409851074
vn 0.22092221677303314 0.1309473067522049 -0.966460645198822
vn -0.47596415877342224 -0.023229073733091354 -0.8791579008102417
vn 0.3271605670452118 -0.01078684814274311 -0.9449071884155273
vn -0.17993725836277008 0.273473858833313 -0.944899320602417
vn -0.2761167585849762 -0.011344557628035545 -0.961057186126709
vn -0.1992103010416031 0.5067139267921448 -0.8387826681137085
vn 0.9639595150947571 0.16518843173980713 -0.20855407416820526
vn 0.2090945839881897 0.3841888904571533 -0.899265468120575
vn -0.6700217723846436 0.15582630038261414 -0.7258023023605347
vn 0.9259151816368103 -0.03853890672326088 0.37576037645339966
vn 0.9911136031150818 -0.13082654774188995 0.024046219885349274
vn -0.37840649485588074 0.5299890637397766 -0.7588940262794495
vn -0.34072595834732056 0.5586594343185425 -0.7561782002449036
vn 0.6304222345352173 -0.018086375668644905 0.7760416865348816
vn 0.9692538976669312 -0.016719795763492584 -0.24549417197704315
vn -0.17004512250423431 0.5409314036369324 -0.8236976861953735
vn -0.4455268383026123 0.5834426879882812 -0.6790438294410706
vn -0.39818599820137024 0.6926664710044861 -0.6013826727867126
vn -0.7237895727157593 0.3440420925617218 -0.5981335639953613
vn 0.8914831876754761 0.34447261691093445 0.2942727208137512
vn 0.9721737504005432 0.23320776224136353 -0.022189157083630562
vn -0.9163344502449036 0.04548300802707672 -0.3978223204612732
vn 0.9730759859085083 0.11907946318387985 0.19734039902687073
vn 0.9323830604553223 -0.11989856511354446 0.3410075604915619
vn -0.9830215573310852 -0.1370331346988678 -0.12202709913253784
vn 0.8219456076622009 -0.2815795838832855 0.495094358921051
vn 0.8715224266052246 -0.1957680732011795 0.4495815932750702
vn -0.964260458946228 -0.22104181349277496 0.14608988165855408
vn 0.7223009467124939 -0.3431013822555542 0.6004688739776611
vn -0.9518697261810303 -0.23930716514587402 0.19151020050048828
vn 0.5407069325447083 -0.3918960392475128 0.7443477511405945
vn 0.5847444534301758 -0.47389256954193115 0.6584069728851318
vn 0.20523995161056519 -0.496822327375412 0.8432343602180481
vn -0.6609786748886108 -0.5639322996139526 0.4950632154941559
vn 0.22982604801654816 -0.6311212778091431 0.7408548593521118
vn 0.0552121140062809 0.5241370797157288 -0.8498423099517822
vn 0.5486212968826294 0.3995346128940582 -0.7344295978546143
vn -0.3475464880466461 0.421720415353775 -0.8374744057655334
vn 0.9831649661064148 0.14221978187561035 -0.11471804976463318
vn -0.504603922367096 0.1322373002767563 -0.8531636595726013
vn -0.6398311257362366 0.31379401683807373 -0.7015336751937866
vn 0.9980466961860657 -0.06219486519694328 0.005882034543901682
vn 0.006628813687711954 -0.391550213098526 -0.9201328754425049
vn -0.7722796201705933 0.17514730989933014 -0.6106616258621216
vn 0.9960273504257202 -0.08081994205713272 -0.03738643229007721
vn -0.2630768120288849 -0.39326217770576477 -0.8809855580329895
vn -0.6986450552940369 0.12339232861995697 -0.70474773645401
vn -0.07428324967622757 -0.029268374666571617 -0.9968075752258301
vn -0.6221640706062317 0.16670167446136475 -0.7649329900741577
vn 0.9992357492446899 -0.03621649742126465 -0.014705278910696507
vn -0.8929733037948608 0.057468704879283905 -0.4464259743690491
vn 0.9767700433731079 -0.06514700502157211 0.20414747297763824
vn 0.8451136946678162 -0.2651728689670563 0.4641834795475006
vn 0.7042365074157715 -0.4066656529903412 0.5819571018218994
vn 0.37452396750450134 -0.5379328727722168 0.7552218437194824
vn -0.15005342662334442 -0.6301256418228149 0.7618566751480103
vn -0.284151554107666 -0.6735401153564453 0.6823500990867615
vn -0.7074295282363892 -0.4670335054397583 0.5304933786392212
vn 0.22334735095500946 0.4705590009689331 -0.8536335825920105
vn 0.7637545466423035 0.35116738080978394 -0.5416275262832642
vn 0.8700586557388306 0.27073949575424194 -0.41194432973861694
vn -0.27392181754112244 0.4614231288433075 -0.8438338041305542
vn -0.484778493642807 0.38036033511161804 -0.7876013517379761
vn -0.6696245670318604 0.3272276520729065 -0.6667270660400391
vn 0.9967600107192993 0.038494277745485306 0.07062318921089172
vn 0.9923014640808105 -0.055320460349321365 0.1108039990067482
vn -0.8795869946479797 0.12385937571525574 -0.4593316316604614
vn -0.9749479293823242 0.03399403765797615 -0.21982039511203766
vn -0.9889724254608154 -0.10122986882925034 -0.10810256749391556
vn -0.9401819109916687 -0.3162133991718292 0.12675555050373077
vn 0.612901508808136 -0.43148255348205566 0.6619476079940796
vn 0.833024263381958 -0.2879502773284912 0.4723931550979614
vn -0.8814027905464172 -0.38703683018684387 0.2707982063293457
vn -0.5577005743980408 -0.4967533349990845 0.6649859547615051
vn 0.5697019696235657 0.5521441102027893 -0.6087499856948853
vn 0.10420561581850052 0.6472764611244202 -0.7550989389419556
vn 0.1272396743297577 0.6735506057739258 -0.7281069159507751
vn -0.37129101157188416 0.7370600700378418 -0.5646994113922119
vn 0.2359180599451065 0.5008536577224731 -0.8327594995498657
vn -0.14622831344604492 0.5258629322052002 -0.8379054069519043
vn -0.20857810974121094 0.39923951029777527 -0.8928062915802002
vn -0.47578075528144836 0.4271223843097687 -0.7688947916030884
vn -0.6915484666824341 0.2799302339553833 -0.6658827662467957
vn -0.7834306359291077 0.5378057360649109 -0.31145063042640686
vn -0.8887963891029358 0.3110795021057129 -0.3365570902824402
vn 0.9753829836845398 0.1767071634531021 -0.13191911578178406
vn -0.8077762126922607 0.2575186789035797 -0.5302656888961792
vn -0.9423335790634155 0.1393749713897705 -0.30427300930023193
vn -0.9089287519454956 0.1595432013273239 -0.3852201998233795
vn 0.9756950736045837 -0.06289447844028473 0.20991282165050507
vn -0.9770979285240173 0.07437986135482788 -0.1993672400712967
vn 0.9695158004760742 -0.08075506240129471 0.23133887350559235
vn -0.989820122718811 -0.014009871520102024 -0.1416328400373459
vn -0.9865814447402954 -0.14364804327487946 0.07760327309370041
vn 0.8966137766838074 -0.1913055032491684 0.3993569016456604
vn -0.9328506588935852 -0.2384098619222641 0.2700933814048767
vn 0.6964011192321777 -0.3916603922843933 0.6013548970222473
vn 0.8019098043441772 -0.2674970030784607 0.5342153310775757
vn -0.6938645243644714 -0.49407732486724854 0.5238698720932007
vn 0.22667574882507324 -0.5477734804153442 0.80533367395401
vn -0.06181001663208008 -0.6466779708862305 0.7602546811103821
vn -0.18757571280002594 -0.5680172443389893 0.8013562560081482
vn 0.7928988337516785 0.42964091897010803 -0.43211129307746887
vn -0.39402854442596436 0.5781485438346863 -0.7144829630851746
vn 0.8209254145622253 0.4302654266357422 -0.37543734908103943
vn -0.7045936584472656 0.5600165128707886 -0.43580886721611023
vn 0.8904100656509399 0.3632594645023346 -0.27424901723861694
vn -0.8592680096626282 0.5103321671485901 -0.0349230132997036
vn 0.9955613017082214 0.032925061881542206 0.08816831558942795
vn 0.9833295941352844 -0.03629925101995468 0.17817209661006927
vn -0.9724524021148682 0.17984096705913544 -0.1483020782470703
vn -0.975986897945404 0.145789235830307 -0.1618492603302002
vn -0.9995959997177124 0.019424723461270332 -0.02075032889842987
vn -0.9863227605819702 0.05756350979208946 0.15444719791412354
vn 0.931398332118988 -0.10935426503419876 0.3471870422363281
vn -0.9416956901550293 -0.15300947427749634 0.29966220259666443
vn -0.873304545879364 -0.3952086567878723 0.28486722707748413
vn 0.7989477515220642 -0.2329130917787552 0.5544672608375549
vn -0.8872219324111938 -0.24245531857013702 0.3924955129623413
vn -0.6941723823547363 -0.3742324411869049 0.6148779392242432
vn -0.4357726573944092 -0.5731467604637146 0.6939777135848999
vn -0.18833889067173004 -0.5895415544509888 0.7854739427566528
vn 0.34751278162002563 -0.5591722726821899 0.7527025938034058
vn 0.9718518257141113 0.2336280643939972 -0.03036426194012165
vn -0.9374433159828186 0.21561095118522644 -0.2733350694179535
vn -0.9489666819572449 0.30899521708488464 -0.0631202831864357
vn -0.8130800724029541 0.5787435173988342 -0.06290250271558762
vn 0.9838996529579163 0.14503245055675507 0.10443675518035889
vn -0.8399496674537659 0.49656811356544495 0.21887142956256866
vn -0.64975506067276 0.6549438834190369 0.3858327567577362
vn -0.8796244263648987 0.3574315309524536 0.313852995634079
vn -0.6729146838188171 0.7397185564041138 -0.0015467535704374313
vn -0.9866057634353638 0.16121934354305267 0.024847278371453285
vn -0.699770987033844 0.5420680046081543 0.46527737379074097
vn -0.9823417663574219 0.14692339301109314 0.11583683639764786
vn 0.9387990236282349 -0.1255437433719635 0.32077285647392273
vn -0.9733778834342957 0.1285586804151535 0.18975830078125
vn 0.8792771100997925 -0.20080097019672394 0.43191516399383545
vn -0.9581539630889893 -0.07417052239179611 0.27647730708122253
vn -0.8421973586082458 -0.21483036875724792 0.4945216178894043
vn -0.7460160255432129 -0.25712764263153076 0.6142845153808594
vn -0.7207376956939697 -0.3795212507247925 0.580086886882782
vn -0.3657681941986084 -0.48192349076271057 0.7962181568145752
vn -0.6847215294837952 -0.3153558373451233 0.6570442318916321
vn 0.5858306884765625 -0.3404669761657715 0.7354486584663391
vn 0.10953006148338318 -0.43022188544273376 0.896053671836853
vn -0.3796469569206238 -0.43090569972991943 0.8186504244804382
vn 0.91257643699646 0.3920116722583771 -0.11632342636585236
vn 0.4234871566295624 0.6700494885444641 -0.6096658110618591
vn -0.8678048253059387 0.094868965446949 -0.48776495456695557
vn 0.976922869682312 0.16286957263946533 0.1381855309009552
vn -0.994659960269928 0.0933891013264656 -0.04393312707543373
vn -0.9936230778694153 0.08721841871738434 0.0714573860168457
vn 0.9771493673324585 0.0658152773976326 0.2021077275276184
vn -0.9283063411712646 0.3241131603717804 0.182203471660614
vn -0.9777395725250244 0.16845597326755524 0.12509147822856903
vn 0.9275087714195251 -0.05828370526432991 0.36922967433929443
vn -0.23064610362052917 0.6035186648368835 0.7632611989974976
vn -0.44898855686187744 0.48498380184173584 0.7504665851593018
vn -0.8883907794952393 0.3456954061985016 0.3020869195461273
vn -0.7809435725212097 0.38474416732788086 0.49203553795814514
vn -0.793853223323822 0.14187370240688324 0.5913281440734863
vn 0.894782543182373 -0.15690714120864868 0.418024480342865
vn -0.8568801283836365 0.23608219623565674 0.45828112959861755
vn -0.8956226706504822 -0.017186233773827553 0.4444825053215027
vn 0.6809682846069336 -0.39917293190956116 0.6139570474624634
vn 0.8050240278244019 -0.24660538136959076 0.5395574569702148
vn 0.47331565618515015 -0.508076012134552 0.7196048498153687
vn -0.07009851932525635 -0.621395468711853 0.7803549766540527
vn -0.6535754203796387 -0.36181730031967163 0.6647762656211853
vn 0.45786765217781067 -0.29975104331970215 0.8369626998901367
vn 0.10150457173585892 -0.6562764048576355 0.747661828994751
vn 0.08242669701576233 -0.46535834670066833 0.8812760710716248
vn -0.6544913649559021 0.7524627447128296 -0.07376306504011154
vn -0.9977907538414001 -0.06637389957904816 0.0028515339363366365
vn 0.9397277235984802 0.05859143286943436 0.33686625957489014
vn -0.9286633133888245 0.1644745171070099 0.33246439695358276
vn 0.6620693802833557 -0.10663234442472458 0.741817831993103
vn -0.6494502425193787 -0.1414465308189392 0.7471326589584351
vn 0.8441095948219299 0.43871912360191345 0.30822816491127014
vn 0.03890473395586014 0.3276961147785187 0.9439818263053894
vn 0.8487970232963562 0.2284262776374817 0.4768281579017639
vn -0.46228885650634766 0.06835386902093887 0.8840909600257874
vn -0.9427785277366638 0.02449452504515648 0.33251869678497314
vn 0.7735843658447266 0.07041527330875397 0.629768967628479
vn -0.5650928020477295 0.031140310689806938 0.824439525604248
vn -0.8991969227790833 -0.010996329598128796 0.4374060034751892
vn 0.8117029070854187 -0.011413338594138622 0.5839590430259705
vn -0.7400941848754883 0.2462053894996643 0.6258142590522766
vn -0.7292324304580688 0.08568555116653442 0.6788800358772278
vn 0.13897375762462616 -0.33891406655311584 0.9304964542388916
vn 0.21472050249576569 0.09229253232479095 0.9723051190376282
vn 0.14111840724945068 -0.028062695637345314 0.9895949363708496
vn -0.3761972188949585 0.07030553370714188 0.9238684177398682
f 1//1 2//2 3//3
f 3//3 2//2 4//4
f 3//3 5//5 1//1
f 4//4 6//6 3//3
f 7//7 5//5 3//3
f 6//6 7//7 3//3
f 8//8 9//9 10//10
f 9//9 11//11 10//10
f 12//12 8//8 10//10
f 8//8 12//12 13//13
f 14//14 12//12 10//10
f 14//14 10//10 15//15
f 16//16 15//15 17//17
f 14//14 15//15 16//16
f 14//14 18//18 12//12
f 12//12 18//18 13//13
f 2//2 16//16 17//17
f 14//14 16//16 1//1
f 1//1 16//16 2//2
f 1//1 18//18 14//14
f 2//2 17//17 4//4
f 4//4 17//17 19//19
f 18//18 1//1 20//20
f 21//21 20//20 22//22
f 20//20 1//1 5//5
f 5//5 22//22 20//20
f 23//23 21//21 22//22
f 19//19 24//24 4//4
f 22//22 5//5 25//25
f 22//22 25//25 26//26
f 22//22 26//26 23//23
f 27//27 23//23 26//26
f 24//24 6//6 4//4
f 28//28 6//6 24//24
f 29//29 25//25 7//7
f 25//25 5//5 7//7
f 29//29 26//26 25//25
f 29//29 7//7 30//30
f 29//29 30//30 31//31
f 32//32 29//29 31//31
f 26//26 29//29 32//32
f 7//7 6//6 30//30
f 33//33 34//34 35//35
f 36//36 34//34 37//37
f 35//35 34//34 36//36
f 38//38 33//33 35//35
f 39//39 36//36 37//37
f 40//40 38//38 35//35
f 41//41 40//40 35//35
f 9//9 36//36 39//39
f 9//9 39//39 11//11
f 8//8 36//36 9//9
f 8//8 42//42 36//36
f 42//42 35//35 36//36
f 41//41 35//35 42//42
f 43//43 40//40 41//41
f 42//42 8//8 44//44
f 41//41 42//42 44//44
f 43//43 41//41 44//44
f 11//11 45//45 10//10
f 8//8 13//13 44//44
f 43//43 44//44 46//46
f 46//46 44//44 47//47
f 10//10 45//45 15//15
f 45//45 48//48 15//15
f 44//44 13//13 49//49
f 47//47 44//44 49//49
f 50//50 43//43 46//46
f 15//15 48//48 17//17
f 13//13 18//18 49//49
f 51//51 17//17 48//48
f 21//21 47//47 49//49
f 21//21 52//52 47//47
f 52//52 46//46 47//47
f 52//52 50//50 46//46
f 17//17 51//51 19//19
f 19//19 51//51 53//53
f 49//49 20//20 21//21
f 18//18 20//20 49//49
f 21//21 23//23 52//52
f 54//54 50//50 52//52
f 23//23 54//54 52//52
f 55//55 19//19 53//53
f 24//24 19//19 55//55
f 23//23 27//27 54//54
f 54//54 27//27 56//56
f 57//57 24//24 55//55
f 24//24 57//57 28//28
f 57//57 58//58 28//28
f 27//27 26//26 56//56
f 56//56 26//26 32//32
f 59//59 28//28 58//58
f 59//59 31//31 30//30
f 60//60 31//31 59//59
f 60//60 32//32 31//31
f 30//30 6//6 28//28
f 30//30 28//28 59//59
f 34//34 61//61 62//62
f 61//61 34//34 33//33
f 33//33 63//63 61//61
f 34//34 62//62 37//37
f 33//33 38//38 63//63
f 37//37 62//62 39//39
f 64//64 38//38 40//40
f 39//39 62//62 11//11
f 62//62 45//45 11//11
f 43//43 50//50 65//65
f 65//65 50//50 66//66
f 67//67 53//53 48//48
f 53//53 51//51 48//48
f 66//66 50//50 68//68
f 50//50 54//54 68//68
f 69//69 57//57 55//55
f 54//54 56//56 68//68
f 68//68 56//56 70//70
f 69//69 58//58 57//57
f 58//58 69//69 71//71
f 72//72 58//58 71//71
f 73//73 70//70 32//32
f 32//32 70//70 56//56
f 60//60 59//59 58//58
f 60//60 58//58 72//72
f 32//32 60//60 73//73
f 73//73 60//60 72//72
f 61//61 74//74 62//62
f 63//63 75//75 76//76
f 63//63 76//76 61//61
f 75//75 77//77 78//78
f 63//63 77//77 75//75
f 63//63 79//79 77//77
f 63//63 38//38 79//79
f 38//38 80//80 79//79
f 80//80 38//38 64//64
f 74//74 81//81 62//62
f 40//40 82//82 64//64
f 62//62 81//81 45//45
f 81//81 83//83 45//45
f 40//40 43//43 84//84
f 65//65 84//84 43//43
f 45//45 83//83 48//48
f 83//83 67//67 48//48
f 84//84 65//65 85//85
f 85//85 86//86 84//84
f 65//65 66//66 85//85
f 67//67 87//87 53//53
f 85//85 88//88 89//89
f 85//85 66//66 88//88
f 87//87 55//55 53//53
f 87//87 69//69 55//55
f 66//66 68//68 88//88
f 88//88 68//68 90//90
f 72//72 91//91 73//73
f 71//71 91//91 72//72
f 73//73 91//91 90//90
f 73//73 90//90 70//70
f 70//70 90//90 68//68
f 92//92 93//93 94//94
f 92//92 94//94 95//95
f 95//95 94//94 96//96
f 96//96 94//94 97//97
f 97//97 94//94 98//98
f 98//98 99//99 97//97
f 100//100 97//97 99//99
f 100//100 101//101 97//97
f 102//102 103//103 104//104
f 99//99 105//105 100//100
f 99//99 106//106 105//105
f 105//105 101//101 100//100
f 107//107 103//103 102//102
f 108//108 104//104 103//103
f 61//61 109//109 74//74
f 109//109 61//61 76//76
f 109//109 76//76 110//110
f 105//105 106//106 76//76
f 110//110 76//76 106//106
f 105//105 76//76 75//75
f 105//105 75//75 111//111
f 112//112 103//103 107//107
f 109//109 113//113 74//74
f 114//114 78//78 110//110
f 114//114 115//115 78//78
f 110//110 78//78 109//109
f 77//77 113//113 78//78
f 109//109 78//78 113//113
f 116//116 111//111 75//75
f 116//116 75//75 115//115
f 116//116 115//115 117//117
f 115//115 75//75 78//78
f 116//116 117//117 112//112
f 103//103 112//112 118//118
f 118//118 108//108 103//103
f 113//113 119//119 74//74
f 113//113 79//79 119//119
f 113//113 77//77 79//79
f 119//119 79//79 120//120
f 115//115 114//114 79//79
f 120//120 79//79 114//114
f 80//80 115//115 79//79
f 117//117 115//115 80//80
f 64//64 117//117 80//80
f 64//64 82//82 117//117
f 82//82 112//112 117//117
f 118//118 112//112 82//82
f 121//121 108//108 118//118
f 119//119 122//122 81//81
f 74//74 119//119 81//81
f 122//122 119//119 120//120
f 40//40 118//118 82//82
f 122//122 83//83 81//81
f 83//83 122//122 123//123
f 40//40 84//84 118//118
f 118//118 84//84 121//121
f 121//121 84//84 124//124
f 125//125 83//83 123//123
f 126//126 83//83 125//125
f 84//84 86//86 124//124
f 124//124 86//86 127//127
f 83//83 126//126 67//67
f 128//128 126//126 125//125
f 127//127 86//86 129//129
f 67//67 126//126 87//87
f 87//87 128//128 130//130
f 87//87 126//126 128//128
f 128//128 131//131 130//130
f 86//86 85//85 129//129
f 129//129 85//85 89//89
f 132//132 130//130 131//131
f 88//88 133//133 89//89
f 87//87 130//130 69//69
f 132//132 69//69 130//130
f 91//91 132//132 134//134
f 91//91 133//133 90//90
f 90//90 133//133 88//88
f 69//69 132//132 71//71
f 91//91 71//71 132//132
f 135//135 136//136 92//92
f 95//95 135//135 92//92
f 95//95 137//137 135//135
f 92//92 138//138 93//93
f 137//137 96//96 139//139
f 95//95 96//96 137//137
f 140//140 137//137 139//139
f 93//93 141//141 98//98
f 94//94 93//93 98//98
f 139//139 96//96 104//104
f 104//104 97//97 142//142
f 96//96 97//97 104//104
f 139//139 143//143 140//140
f 98//98 141//141 99//99
f 141//141 144//144 99//99
f 142//142 97//97 145//145
f 146//146 143//143 139//139
f 104//104 146//146 139//139
f 147//147 101//101 148//148
f 147//147 145//145 101//101
f 145//145 97//97 101//101
f 102//102 104//104 142//142
f 99//99 144//144 106//106
f 144//144 149//149 106//106
f 101//101 105//105 148//148
f 147//147 107//107 102//102
f 104//104 108//108 146//146
f 146//146 108//108 150//150
f 106//106 149//149 110//110
f 148//148 105//105 111//111
f 147//147 111//111 107//107
f 111//111 112//112 107//107
f 110//110 149//149 114//114
f 116//116 112//112 111//111
f 150//150 108//108 121//121
f 114//114 149//149 120//120
f 149//149 151//151 120//120
f 120//120 151//151 122//122
f 151//151 123//123 122//122
f 152//152 125//125 123//123
f 152//152 153//153 125//125
f 131//131 125//125 153//153
f 125//125 131//131 128//128
f 154//154 131//131 153//153
f 154//154 134//134 131//131
f 154//154 155//155 134//134
f 155//155 156//156 134//134
f 155//155 157//157 156//156
f 157//157 89//89 156//156
f 157//157 129//129 89//89
f 131//131 134//134 132//132
f 89//89 133//133 156//156
f 134//134 156//156 91//91
f 133//133 91//91 156//156
f 136//136 158//158 159//159
f 160//160 136//136 159//159
f 158//158 136//136 135//135
f 158//158 135//135 161//161
f 136//136 160//160 92//92
f 92//92 160//160 138//138
f 135//135 137//137 161//161
f 161//161 137//137 162//162
f 137//137 140//140 162//162
f 162//162 140//140 163//163
f 138//138 164//164 93//93
f 93//93 164//164 141//141
f 164//164 165//165 141//141
f 141//141 165//165 144//144
f 143//143 146//146 166//166
f 142//142 145//145 147//147
f 147//147 102//102 142//142
f 166//166 146//146 150//150
f 150//150 167//167 166//166
f 144//144 165//165 149//149
f 165//165 151//151 149//149
f 147//147 148//148 111//111
f 168//168 167//167 150//150
f 150//150 121//121 168//168
f 168//168 124//124 169//169
f 121//121 124//124 168//168
f 151//151 152//152 123//123
f 170//170 152//152 171//171
f 169//169 124//124 172//172
f 152//152 170//170 153//153
f 170//170 154//154 153//153
f 124//124 127//127 172//172
f 172//172 127//127 157//157
f 157//157 155//155 173//173
f 129//129 157//157 127//127
f 174//174 175//175 176//176
f 176//176 175//175 177//177
f 178//178 175//175 174//174
f 179//179 175//175 178//178
f 179//179 177//177 175//175
f 159//159 178//178 174//174
f 179//179 178//178 180//180
f 181//181 179//179 180//180
f 181//181 182//182 183//183
f 158//158 178//178 159//159
f 158//158 180//180 178//178
f 181//181 180//180 162//162
f 182//182 181//181 162//162
f 184//184 183//183 182//182
f 180//180 158//158 161//161
f 162//162 180//180 161//161
f 159//159 185//185 160//160
f 185//185 138//138 160//160
f 182//182 162//162 163//163
f 184//184 182//182 186//186
f 186//186 182//182 163//163
f 187//187 184//184 186//186
f 163//163 140//140 186//186
f 143//143 186//186 140//140
f 143//143 188//188 186//186
f 188//188 187//187 186//186
f 164//164 189//189 165//165
f 190//190 187//187 188//188
f 189//189 191//191 165//165
f 143//143 166//166 188//188
f 188//188 166//166 167//167
f 188//188 167//167 190//190
f 190//190 167//167 192//192
f 192//192 167//167 193//193
f 165//165 191//191 151//151
f 167//167 168//168 193//193
f 194//194 151//151 191//191
f 193//193 168//168 195//195
f 194//194 171//171 151//151
f 196//196 194//194 197//197
f 171//171 194//194 196//196
f 168//168 169//169 195//195
f 151//151 171//171 152//152
f 196//196 170//170 171//171
f 198//198 195//195 169//169
f 199//199 200//200 201//201
f 198//198 169//169 172//172
f 170//170 199//199 154//154
f 201//201 154//154 199//199
f 198//198 173//173 201//201
f 172//172 157//157 173//173
f 198//198 172//172 173//173
f 173//173 155//155 201//201
f 154//154 201//201 155//155
f 202//202 176//176 203//203
f 204//204 176//176 202//202
f 205//205 203//203 176//176
f 174//174 204//204 206//206
f 204//204 174//174 176//176
f 176//176 177//177 205//205
f 177//177 179//179 181//181
f 183//183 177//177 181//181
f 174//174 206//206 159//159
f 206//206 185//185 159//159
f 207//207 183//183 184//184
f 185//185 208//208 138//138
f 208//208 209//209 138//138
f 138//138 209//209 164//164
f 209//209 189//189 164//164
f 184//184 187//187 210//210
f 210//210 187//187 211//211
f 211//211 187//187 212//212
f 187//187 190//190 212//212
f 212//212 190//190 213//213
f 189//189 214//214 191//191
f 215//215 213//213 192//192
f 213//213 190//190 192//192
f 215//215 192//192 216//216
f 214//214 194//194 191//191
f 194//194 214//214 217//217
f 192//192 193//193 216//216
f 216//216 193//193 218//218
f 197//197 194//194 217//217
f 219//219 218//218 195//195
f 195//195 218//218 193//193
f 219//219 220//220 221//221
f 219//219 198//198 220//220
f 219//219 195//195 198//198
f 196//196 222//222 170//170
f 221//221 200//200 222//222
f 221//221 220//220 200//200
f 170//170 222//222 199//199
f 200//200 199//199 222//222
f 220//220 201//201 200//200
f 198//198 201//201 220//220
f 202//202 223//223 204//204
f 203//203 205//205 224//224
f 224//224 205//205 225//225
f 204//204 223//223 206//206
f 205//205 226//226 225//225
f 177//177 226//226 205//205
f 177//177 183//183 226//226
f 223//223 227//227 185//185
f 223//223 185//185 206//206
f 183//183 207//207 228//228
f 228//228 207//207 229//229
f 229//229 230//230 228//228
f 207//207 231//231 229//229
f 231//231 207//207 184//184
f 232//232 231//231 184//184
f 229//229 233//233 230//230
f 184//184 210//210 232//232
f 232//232 210//210 234//234
f 209//209 235//235 189//189
f 236//236 234//234 211//211
f 234//234 210//210 211//211
f 236//236 211//211 212//212
f 189//189 235//235 214//214
f 235//235 237//237 214//214
f 238//238 213//213 239//239
f 238//238 212//212 213//213
f 237//237 217//217 214//214
f 239//239 240//240 241//241
f 213//213 240//240 239//239
f 213//213 215//215 240//240
f 242//242 241//241 243//243
f 216//216 240//240 215//215
f 216//216 241//241 240//240
f 216//216 218//218 241//241
f 244//244 197//197 217//217
f 241//241 218//218 243//243
f 244//244 222//222 196//196
f 197//197 244//244 196//196
f 245//245 222//222 244//244
f 243//243 219//219 246//246
f 218//218 219//219 243//243
f 221//221 222//222 245//245
f 246//246 221//221 245//245
f 219//219 221//221 246//246
f 247//247 203//203 248//248
f 203//203 249//249 248//248
f 203//203 247//247 202//202
f 249//249 203//203 224//224
f 247//247 250//250 202//202
f 202//202 250//250 223//223
f 224//224 225//225 251//251
f 251//251 225//225 252//252
f 250//250 253//253 223//223
f 254//254 225//225 226//226
f 254//254 255//255 225//225
f 255//255 252//252 225//225
f 228//228 254//254 226//226
f 228//228 226//226 183//183
f 227//227 223//223 253//253
f 254//254 230//230 255//255
f 230//230 254//254 228//228
f 227//227 253//253 208//208
f 185//185 227//227 208//208
f 208//208 253//253 209//209
f 209//209 253//253 256//256
f 229//229 231//231 257//257
f 257//257 231//231 258//258
f 258//258 231//231 232//232
f 259//259 233//233 260//260
f 259//259 230//230 233//233
f 229//229 257//257 233//233
f 260//260 233//233 257//257
f 258//258 261//261 257//257
f 261//261 260//260 257//257
f 261//261 258//258 232//232
f 261//261 232//232 234//234
f 209//209 256//256 235//235
f 256//256 262//262 235//235
f 263//263 260//260 261//261
f 236//236 263//263 261//261
f 264//264 263//263 236//236
f 234//234 236//236 261//261
f 236//236 212//212 264//264
f 237//237 235//235 262//262
f 239//239 264//264 238//238
f 212//212 238//238 264//264
f 265//265 237//237 266//266
f 265//265 267//267 217//217
f 237//237 265//265 217//217
f 241//241 242//242 268//268
f 269//269 239//239 241//241
f 268//268 269//269 241//241
f 267//267 270//270 217//217
f 271//271 272//272 267//267
f 272//272 270//270 267//267
f 271//271 242//242 272//272
f 217//217 270//270 244//244
f 272//272 245//245 270//270
f 245//245 244//244 270//270
f 242//242 245//245 272//272
f 242//242 246//246 245//245
f 242//242 243//243 246//246
f 249//249 273//273 248//248
f 273//273 249//249 274//274
f 249//249 224//224 274//274
f 274//274 224//224 251//251
f 250//250 275//275 253//253
f 252//252 255//255 276//276
f 275//275 256//256 253//253
f 276//276 255//255 230//230
f 230//230 259//259 276//276
f 259//259 260//260 263//263
f 266//266 262//262 277//277
f 262//262 266//266 237//237
f 264//264 239//239 278//278
f 278//278 239//239 269//269
f 268//268 271//271 267//267
f 268//268 267//267 265//265
f 268//268 242//242 271//271
f 273//273 279//279 248//248
f 273//273 280//280 279//279
f 248//248 279//279 247//247
f 279//279 281//281 247//247
f 282//282 280//280 274//274
f 273//273 274//274 280//280
f 247//247 281//281 250//250
f 282//282 274//274 283//283
f 274//274 251//251 283//283
f 281//281 284//284 250//250
f 285//285 283//283 252//252
f 283//283 251//251 252//252
f 250//250 284//284 275//275
f 285//285 252//252 286//286
f 284//284 287//287 275//275
f 286//286 252//252 276//276
f 275//275 287//287 256//256
f 276//276 259//259 288//288
f 287//287 277//277 256//256
f 277//277 262//262 256//256
f 259//259 263//263 288//288
f 288//288 263//263 289//289
f 277//277 290//290 266//266
f 289//289 263//263 264//264
f 278//278 289//289 264//264
f 290//290 265//265 266//266
f 268//268 290//290 269//269
f 290//290 268//268 265//265
f 279//279 280//280 281//281
f 280//280 282//282 281//281
f 282//282 283//283 291//291
f 282//282 291//291 281//281
f 281//281 291//291 284//284
f 283//283 285//285 291//291
f 291//291 285//285 284//284
f 285//285 286//286 292//292
f 285//285 292//292 284//284
f 284//284 292//292 287//287
f 286//286 293//293 292//292
f 276//276 288//288 293//293
f 286//286 276//276 293//293
f 287//287 292//292 277//277
f 293//293 277//277 292//292
f 288//288 289//289 293//293
f 277//277 293//293 290//290
f 289//289 278//278 293//293
f 293//293 278//278 290//290
f 269//269 290//290 278//278
