# https://github.com/mikedh/trimesh
v 0.03710507 0.04769844 -0.09113014
v 0.03567285 0.04902492 -0.09391425
v 0.03694279 0.04719981 -0.09236660
v 0.03353401 0.04957724 -0.09174658
v 0.03746592 0.05135778 -0.09921513
v 0.03508495 0.04827304 -0.10732046
v 0.01320346 0.06835568 -0.09661364
v 0.01397616 0.06415732 -0.09307910
v 0.01234460 0.01731715 -0.09562354
v -0.00196531 0.04650474 -0.09825783
v -0.01393449 0.06864911 -0.09387847
v -0.00005109 0.04299039 -0.08883168
v 0.00847047 0.06214862 -0.08879035
v 0.00048686 0.04290089 -0.08879035
v 0.00916798 0.06168256 -0.08879035
v 0.00999075 0.06151890 -0.08879035
v 0.00104308 0.04252924 -0.08879035
v 0.00141474 0.04197301 -0.08879035
v 0.01081352 0.06168256 -0.08879035
v 0.00162669 0.04085520 -0.08896440
v -0.01146853 0.01820916 -0.09438678
v -0.02040001 0.02565792 -0.11224188
v -0.01597443 0.02590824 -0.11326745
v -0.02017457 0.02174449 -0.10813814
v -0.01645801 0.02447042 -0.10521488
v -0.01513727 0.02498756 -0.10926677
v -0.01692887 0.02057884 -0.11176651
v -0.02040001 0.06101326 -0.11224188
v -0.01597443 0.06126358 -0.11326745
v -0.02017457 0.05709982 -0.10813814
v -0.01645801 0.05982576 -0.10521488
v -0.01513727 0.06034290 -0.10926677
v -0.01692887 0.05593418 -0.11176651
v -0.05016925 0.04131690 -0.06479035
v -0.04335568 0.04131690 0.02203893
v -0.04380788 0.04131690 0.00421454
v -0.04391925 0.04131690 0.02320965
v -0.04425867 0.04113254 -0.00063865
v -0.04326006 0.02162409 -0.07956835
v 0.04092103 0.01544663 -0.07485256
v -0.01887298 -0.00728730 -0.07316997
v 0.04983075 0.04131690 -0.06479035
v -0.04848701 0.03489146 0.02949262
v -0.04974144 0.03806303 0.04487631
v -0.04988987 0.03867775 -0.06042949
v -0.04735163 0.03304310 -0.00179036
v -0.04735307 0.03304516 -0.04079035
v -0.04354455 0.03003316 -0.04793978
v 0.00006095 0.01509592 0.02401273
v -0.04084062 0.03189502 0.01588361
v 0.02591758 0.02700419 0.07050934
v -0.02959186 0.02737463 0.06992170
v 0.03914677 0.03178862 -0.05808135
v 0.03813489 0.03688060 0.02611397
v -0.04624154 0.03169516 0.00485435
v -0.04688104 0.03256947 -0.00179036
v -0.04628353 0.03227578 -0.04079035
v -0.05006211 0.03926387 -0.06371707
v -0.04842986 0.03379169 -0.05946675
v 0.01894733 -0.00526556 -0.07768791
v -0.00017099 -0.01776092 -0.06893128
v 0.02215488 -0.00904292 -0.08475861
v 0.02723042 -0.00533506 -0.06446884
v 0.02832550 -0.00545986 -0.08462144
v 0.02831158 -0.00573280 -0.06529649
v 0.02868276 -0.00550574 -0.08412984
v 0.02868380 -0.00550506 -0.06545208
v 0.02903814 -0.00528491 -0.08393421
v 0.02903955 -0.00528398 -0.06564814
v 0.02909123 -0.00419430 -0.06522563
v 0.03272777 -0.00041096 -0.07669503
v 0.02937402 -0.00507316 -0.08369983
v 0.02083075 -0.03225667 -0.07771087
v 0.02083075 -0.05088314 -0.07093139
v 0.02124300 -0.02225169 -0.07623573
v -0.01926607 -0.08729242 -0.05484961
v 0.00491198 -0.01532713 -0.06480315
v 0.02053075 -0.08823870 -0.05765434
v 0.01963883 -0.08989051 -0.05494314
v 0.00042913 -0.07216466 -0.06025617
v 0.02053075 -0.05096089 -0.07122235
v -0.02087065 -0.02502387 -0.08066513
v 0.01781249 -0.01063632 -0.08331330
v 0.00755848 0.05473170 -0.10633139
v -0.03331761 0.01876803 -0.09569444
v 0.03491747 0.04872692 -0.10134212
v 0.02409848 0.02174331 -0.10285221
v -0.00546186 0.02830693 -0.10834387
v -0.02329513 0.05404052 -0.10466595
v 0.01672578 0.06189645 -0.11059620
v 0.01595375 0.05634620 -0.10867252
v 0.01938090 0.06126358 -0.11326745
v 0.01402819 0.05854584 -0.10730246
v 0.01889733 0.05982576 -0.10521488
v 0.02021807 0.06034290 -0.10926677
v 0.01709203 0.05585266 -0.11167591
v 0.01448677 0.06003683 -0.11336334
v 0.02033581 0.05819651 -0.11199449
v 0.03820410 0.05960409 -0.10517335
v 0.03742186 0.05966058 -0.10517335
v 0.03672733 0.06027401 -0.10517335
v 0.03704438 0.05993309 -0.10517335
v 0.03648288 0.06067023 -0.10517335
v 0.03624620 0.06156613 -0.10517335
v 0.03632042 0.06110652 -0.10517335
v 0.03626308 0.06203139 -0.10517335
v 0.03637040 0.06248441 -0.10517335
v 0.03683654 0.06328527 -0.10517335
v 0.03656403 0.06290780 -0.10517335
v 0.03717746 0.06360232 -0.10517335
v 0.03757367 0.06384677 -0.10517335
v 0.03846958 0.06408345 -0.10517335
v 0.03800997 0.06400923 -0.10517335
v 0.03893483 0.06406658 -0.10517335
v 0.03938786 0.06395926 -0.10517335
v 0.04018871 0.06349311 -0.10517335
v 0.03981125 0.06376563 -0.10517335
v 0.04050577 0.06315220 -0.10517335
v 0.04075023 0.06275598 -0.10517335
v 0.04098690 0.06186007 -0.10517335
v 0.04091268 0.06231968 -0.10517335
v 0.04097003 0.06139482 -0.10517335
v 0.04086271 0.06094179 -0.10517335
v 0.04039656 0.06014094 -0.10517335
v 0.04066908 0.06051841 -0.10517335
v 0.04005565 0.05982388 -0.10517335
v 0.03965942 0.05957943 -0.10517335
v 0.03876352 0.05934275 -0.10517335
v 0.03922313 0.05941697 -0.10517335
v 0.03829826 0.05935963 -0.10517335
v 0.03867452 0.06182957 -0.10704660
v 0.03742186 0.05966058 -0.09399735
v 0.03861700 0.06184320 -0.09256860
v 0.03704438 0.05993309 -0.09399735
v 0.03672733 0.06027401 -0.09399735
v 0.03648288 0.06067023 -0.09399735
v 0.03624620 0.06156613 -0.09399735
v 0.03632042 0.06110652 -0.09399735
v 0.03626308 0.06203139 -0.09399735
v 0.03637040 0.06248441 -0.09399735
v 0.03656403 0.06290780 -0.09399735
v 0.03683654 0.06328527 -0.09399735
v 0.03717746 0.06360232 -0.09399735
v 0.03757367 0.06384677 -0.09399735
v 0.03800997 0.06400923 -0.09399735
v 0.03846958 0.06408345 -0.09399735
v 0.03893483 0.06406658 -0.09399735
v 0.03938786 0.06395926 -0.09399735
v 0.03981125 0.06376563 -0.09399735
v 0.04018871 0.06349311 -0.09399735
v 0.04050577 0.06315220 -0.09399735
v 0.04075023 0.06275598 -0.09399735
v 0.04091268 0.06231968 -0.09399735
v 0.04098690 0.06186007 -0.09399735
v 0.04097003 0.06139482 -0.09399735
v 0.04086271 0.06094179 -0.09399735
v 0.04066908 0.06051841 -0.09399735
v 0.04039656 0.06014094 -0.09399735
v 0.04005565 0.05982388 -0.09399735
v 0.03965942 0.05957943 -0.09399735
v 0.03803907 0.05964318 -0.09399735
v 0.03922313 0.05941697 -0.09399735
v 0.03876352 0.05934275 -0.09399735
v 0.03784524 0.05946694 -0.09399735
v 0.01529374 0.06077040 -0.08616123
v 0.01755705 0.06134571 -0.08629035
v 0.01755705 0.06134571 -0.08641535
v 0.01824764 0.06203145 -0.08605292
v 0.01812483 0.05597862 -0.08198602
v 0.02020800 0.05702707 -0.07852810
v 0.01602067 0.06223402 -0.08176794
v 0.02040413 0.05855714 -0.08231107
v 0.01750842 0.06199457 -0.08678774
v 0.01755705 0.06199418 -0.08678975
v 0.01589546 0.06048724 -0.07797549
v 0.01650166 0.06182803 -0.08675269
v 0.01627078 0.05634673 -0.08460841
v 0.01821473 0.06224203 -0.08396183
v 0.01538824 0.05691311 -0.08174060
v 0.02287003 0.05815189 -0.07578595
v 0.01679034 0.06210227 -0.08026973
v 0.01488400 0.06065006 -0.08545876
v 0.01440020 0.05838208 -0.08005492
v 0.01755705 0.06199418 -0.08678785
v -0.02017343 0.06070325 -0.08610480
v -0.01507476 0.05779626 -0.08353297
v -0.01664255 0.05624656 -0.08182452
v -0.01779828 0.06134571 -0.08641535
v -0.01551445 0.06169038 -0.08603730
v -0.01726296 0.05595243 -0.08033915
v -0.02126898 0.05879078 -0.07931738
v -0.01541069 0.06174074 -0.07934107
v -0.01784692 0.06199457 -0.08678774
v -0.01779828 0.06199418 -0.08678975
v -0.02064797 0.06013618 -0.08214787
v -0.01885368 0.06182803 -0.08675269
v -0.01974859 0.05665157 -0.08608865
v -0.02088332 0.05807395 -0.08107411
v -0.01967719 0.06014389 -0.07781724
v -0.02027977 0.05649141 -0.08303341
v -0.01936742 0.06186945 -0.08409134
v -0.01861650 0.05564698 -0.08518383
v -0.01779828 0.06199418 -0.08678785
v -0.02006160 0.02541506 -0.08616123
v -0.01779828 0.02599037 -0.08629035
v -0.01950652 0.02237215 -0.07678334
v -0.01779828 0.02599037 -0.08641535
v -0.01710770 0.02667611 -0.08605292
v -0.01833173 0.02689999 -0.07792309
v -0.01540798 0.02594309 -0.08025262
v -0.01500996 0.02258464 -0.08225289
v -0.01784692 0.02663923 -0.08678774
v -0.01779828 0.02663884 -0.08678975
v -0.01445123 0.02234133 -0.07711217
v -0.01885368 0.02647269 -0.08675269
v -0.01784335 0.02008090 -0.08561591
v -0.01714061 0.02688670 -0.08396183
v -0.01998608 0.02158531 -0.08170838
v -0.01997459 0.02099493 -0.07914132
v -0.01832970 0.02061574 -0.08292080
v -0.01944101 0.02131123 -0.08411538
v -0.02047134 0.02529472 -0.08545876
v -0.02081834 0.02444293 -0.08217599
v -0.02040808 0.02565498 -0.07998554
v -0.01779828 0.02663884 -0.08678785
v 0.01456939 0.02444642 -0.08462422
v 0.01643328 0.02686242 -0.08163155
v 0.02045036 0.02286508 -0.08432928
v 0.01979733 0.02551880 -0.07690900
v 0.01983732 0.02553069 -0.07692806
v 0.02015665 0.02508506 -0.07700309
v 0.01941730 0.02595105 -0.07690070
v 0.01959855 0.02575956 -0.07690879
v 0.01957504 0.02578386 -0.07690766
v 0.01969259 0.02566236 -0.07691332
v 0.01966908 0.02568666 -0.07691218
v 0.01964557 0.02571096 -0.07691105
v 0.01962206 0.02573526 -0.07690992
v 0.01938695 0.02597827 -0.07689861
v 0.01796269 0.02054997 -0.08003252
v 0.01813142 0.02655076 -0.07708020
v 0.01951486 0.02590253 -0.07695623
v -0.01572560 0.02576055 -0.08679035
v -0.01785140 0.02663834 -0.08679035
v -0.01996824 0.02576055 -0.08679035
v -0.01842094 0.02652505 -0.08679035
v -0.01948161 0.02608571 -0.08679035
v -0.01899497 0.02641087 -0.08679035
v -0.01790973 0.02663616 -0.08678656
v -0.01572560 0.06111589 -0.08679035
v -0.01785140 0.06199368 -0.08679035
v -0.01996824 0.06111589 -0.08679035
v -0.01842094 0.06188039 -0.08679035
v -0.01948161 0.06144105 -0.08679035
v -0.01899497 0.06176621 -0.08679035
v -0.01790976 0.06199149 -0.08678656
v 0.01962974 0.06111589 -0.08679035
v 0.01750394 0.06199368 -0.08679035
v 0.01538710 0.06111589 -0.08679035
v 0.01693439 0.06188039 -0.08679035
v 0.01587374 0.06144105 -0.08679035
v 0.01636037 0.06176621 -0.08679035
v 0.01744558 0.06199149 -0.08678656
v 0.01660173 0.05169300 -0.08314392
v 0.00605657 0.06932546 -0.08299605
v -0.01017373 0.06486463 -0.08879035
v -0.01120956 0.06224162 -0.08879035
v -0.00523714 0.05246410 -0.08879035
v -0.00129178 0.04243943 -0.08879035
v -0.01032925 0.06201890 -0.08879035
v -0.00163591 0.04192441 -0.08879035
v -0.00036373 0.04322332 -0.08415877
v -0.01789616 0.02075500 -0.08774960
v -0.02577989 0.06498049 -0.08713630
v 0.01996417 0.01642243 -0.08742111
v -0.01562426 0.05611116 -0.07773521
v 0.02421461 0.02270013 -0.07678965
v -0.00433057 0.01900365 -0.08125471
v -0.01033113 0.06367049 -0.07791795
v 0.01952525 0.02582522 -0.07687537
v 0.01964744 0.02568268 -0.07689860
v 0.02014398 0.02510748 -0.07683651
v 0.01578991 0.02655056 -0.07825905
v 0.02050094 0.02249248 -0.07788184
v 0.01345580 0.05697849 -0.07624474
v 0.01178210 0.01967761 -0.09462519
v 0.00987041 0.01694829 -0.09326440
v 0.01158765 0.01767862 -0.09045931
v 0.01058668 0.01704575 -0.08840947
v 0.00949158 0.01699820 -0.08585895
v 0.01198630 0.01888212 -0.08608742
v 0.00885897 0.02063770 -0.08582479
v 0.00985269 0.01907288 -0.09659247
v 0.00855459 0.02034671 -0.09538934
v 0.01012967 0.01680453 -0.09515919
v 0.01000481 0.02092238 -0.09378099
v 0.01090088 0.01729848 -0.09202426
v 0.01180735 0.02005241 -0.09279873
v 0.00816669 0.01935014 -0.09280117
v 0.01156454 0.02024671 -0.09009316
v 0.00838054 0.02018485 -0.09056744
v 0.00812322 0.01809111 -0.08787217
v 0.00811088 0.01821994 -0.09443744
v 0.00819827 0.01856419 -0.09249286
v 0.00930055 0.01714195 -0.09117345
v 0.00882424 0.02067050 -0.08845072
v 0.01060732 0.01720548 -0.08913384
v 0.01107676 0.02070692 -0.08586604
v 0.00545432 0.05165402 -0.11324538
v 0.02600613 0.06459220 -0.09132369
v 0.02540515 0.06670299 -0.09345515
v 0.02853925 0.06691475 -0.09285572
v 0.02475887 0.06546406 -0.09206271
v 0.02544838 0.06473836 -0.09731005
v 0.02794470 0.06397528 -0.09275482
v 0.01673956 0.02653811 -0.11059620
v 0.01596752 0.02098786 -0.10867252
v 0.01939468 0.02590524 -0.11326745
v 0.01404196 0.02318750 -0.10730246
v 0.01891110 0.02446742 -0.10521488
v 0.02023184 0.02498456 -0.10926677
v 0.01710580 0.02049432 -0.11167591
v 0.01450054 0.02467850 -0.11336334
v 0.02034958 0.02283817 -0.11199449
v -0.02549591 0.01446151 -0.07741467
v 0.02924372 0.06595006 -0.07942459
v -0.02288461 0.07323231 -0.08024415
v 0.02360679 0.01542273 -0.07730534
v -0.01497785 0.05941965 -0.07312397
v -0.04436925 0.04131690 0.02320965
v -0.04266925 0.04131690 0.02111394
v -0.04781226 0.04154161 0.04840159
v -0.04589890 0.04875499 -0.07884897
v 0.04310558 0.05383965 0.05979639
v 0.04188359 0.05484052 0.05973819
v 0.04250275 0.05434668 0.05971387
v 0.04126207 0.05531195 0.05987679
v 0.04065492 0.05575101 0.06013708
v 0.04008670 0.05614473 0.06052370
v 0.03958576 0.05647877 0.06103793
v 0.03918746 0.05673645 0.06167026
v 0.03892688 0.05690145 0.06240182
v 0.04464748 0.04974676 0.06414347
v -0.03908506 0.05701263 0.06356658
v -0.03991306 0.05648610 0.06105286
v -0.03951616 0.05674270 0.06169042
v -0.04098372 0.05575787 0.06014219
v -0.04159217 0.05531817 0.05987950
v -0.04283568 0.05435124 0.05971360
v -0.04344017 0.05384299 0.05979562
v -0.04530313 0.04989414 0.06429763
v -0.04221502 0.05484603 0.05973910
v -0.04041443 0.05615204 0.06053275
v 0.04498383 0.05022157 0.01935430
v 0.03877127 0.05699713 0.02319474
v 0.03916883 0.05674833 0.02471040
v 0.03956374 0.05649317 0.02535226
v 0.04006420 0.05615999 0.02587663
v 0.04063278 0.05576667 0.02627043
v 0.04309176 0.05385158 0.02662614
v 0.04124101 0.05532752 0.02653568
v 0.04440823 0.04592845 0.02480931
v 0.04248621 0.05436021 0.02670619
v 0.04186450 0.05485534 0.02667844
v -0.04501944 0.05008873 0.02227998
v -0.04343426 0.05384807 0.02662496
v -0.04221418 0.05484674 0.02668031
v -0.04283113 0.05435496 0.02670591
v -0.04159508 0.05531602 0.02654074
v -0.04041855 0.05614925 0.02589001
v -0.03991595 0.05648421 0.02537039
v -0.04098817 0.05575469 0.02627936
v -0.03926030 0.05690466 0.02399637
v -0.03951771 0.05674171 0.02473207
v 0.04509098 0.04941132 -0.00054602
v 0.04711059 0.04940781 -0.00472032
v 0.04583455 0.05070207 0.00225792
v -0.04770603 0.04897494 -0.01384081
v -0.04023415 0.05323336 0.01588244
v -0.02115554 0.05701123 -0.06426259
v 0.00056360 0.08989051 -0.08136119
v -0.02504134 0.08593327 -0.06491964
v 0.04321146 0.05257736 -0.04696666
v -0.00751950 0.06583277 0.01790202
v 0.03612266 0.05850394 0.01764669
v 0.03724427 0.05791020 0.01809579
v -0.01884189 0.06072781 0.07398520
v -0.03789952 0.03833230 0.01912756
v 0.05016925 0.04318778 0.07232553
v 0.03718095 0.05677154 0.07248804
v -0.04869107 0.04154471 0.07274378
v 0.01984321 0.05804493 0.07423628
v 0.04911172 0.04589195 -0.05071084
v 0.04943672 0.04443981 0.04487631
v 0.04558843 0.05413223 -0.06856009
v 0.00888711 0.06563216 -0.09471198
v 0.01063183 0.06179610 -0.09473676
v 0.01093479 0.06187362 -0.09240967
v 0.01102681 0.06523631 -0.09066345
v 0.01145242 0.06198721 -0.09086263
v 0.01066003 0.06562806 -0.08826196
v 0.01155173 0.06254683 -0.08638590
v 0.00789318 0.06326526 -0.08656036
v 0.01085792 0.06200121 -0.09613068
v 0.00821537 0.06254963 -0.09580022
v 0.01175335 0.06279633 -0.09499478
v 0.01158017 0.06441001 -0.09559621
v 0.01116405 0.06389633 -0.09375523
v 0.01192706 0.06391123 -0.09284670
v 0.00873128 0.06512826 -0.09122333
v 0.00854803 0.06203019 -0.09107773
v 0.01136283 0.06536980 -0.08675767
v 0.00988429 0.06158370 -0.08524874
v 0.00876817 0.06636735 -0.09672447
v 0.00973590 0.06558422 -0.09314335
v 0.00994260 0.06157976 -0.08879879
v 0.00817793 0.06435630 -0.08928861
v 0.01128777 0.06487451 -0.08474927
v 0.01127493 0.06460506 -0.09707343
v -0.02616950 0.02688194 -0.02508965
v -0.02547686 0.02786482 -0.02206830
v -0.02437979 0.02647417 -0.00360196
v -0.02611344 0.02674467 -0.02857587
v -0.02451449 0.02649716 -0.02191472
v -0.02605861 0.02693699 -0.02644829
v 0.00049291 0.01819256 -0.03154620
v -0.00083305 0.01819999 -0.03237139
v -0.02145221 0.02299881 -0.03406148
v -0.00689125 0.02239151 0.01290715
v 0.00665995 0.01773050 -0.03110648
v 0.00866557 0.01613374 -0.00418439
v 0.02412177 0.02437798 -0.03553369
v 0.00379816 0.01897565 -0.01641252
v -0.01861360 0.01720042 -0.00931410
v 0.00903999 0.02046005 0.00827154
v -0.02513413 0.02633814 -0.01795728
v 0.02245461 0.02053452 0.00116973
v 0.02231216 0.02184562 -0.02395937
v -0.01800002 0.03266992 -0.03337737
v -0.00211402 0.04704992 -0.03094993
v -0.00892466 0.04868410 -0.03332192
v 0.01837018 0.04663521 -0.03329831
v 0.00597730 0.03922682 -0.03334432
v -0.00611386 0.03932556 -0.03234953
v -0.00524928 0.04405690 -0.03319546
v -0.00559784 0.04410408 -0.03319546
v -0.00705018 0.03942278 -0.03341924
v -0.00684113 0.04420384 -0.03327879
v -0.00615009 0.04530919 -0.03355781
v 0.02511856 0.03722166 -0.03276211
v 0.00698134 0.04404690 -0.03358190
v -0.00658686 0.03805663 -0.03376769
v 0.00544074 0.04430189 -0.03319546
v 0.01240528 0.02817105 -0.03272733
v -0.02482028 0.04363707 -0.03338001
v -0.02407352 0.03086502 -0.03376128
v -0.02479173 0.03840201 -0.03426199
v -0.02836888 0.04519561 -0.03368434
v 0.03602250 0.03508352 -0.02395941
v 0.03316154 0.03981404 -0.02941096
v 0.02473086 0.03090235 -0.02627851
v 0.03697439 0.03610914 -0.01922918
v -0.03736014 0.03605007 -0.01928592
v 0.03597673 0.04205488 -0.02161320
v 0.02438348 0.03840332 -0.03433784
v 0.01919062 0.02865275 -0.03554094
v -0.00457397 0.03894964 -0.04158778
v 0.03665288 0.04655461 -0.01933926
v -0.03042951 0.03378052 -0.03412770
v 0.02026491 0.03405013 -0.03864989
v -0.03468605 0.04448591 -0.02623593
v -0.03549063 0.04295900 -0.02515316
v -0.03617258 0.04495503 -0.02142309
v 0.03443433 0.04395647 -0.02625455
v 0.03797015 0.04842618 -0.02371373
v 0.03589283 0.04454386 -0.02115466
v 0.03582764 0.03760875 -0.02145289
v -0.03618261 0.03717620 -0.02116563
v -0.03148780 0.05632231 -0.02208499
v 0.01824334 0.03699383 -0.04428642
v 0.02215086 0.04524690 -0.03653798
v -0.01437044 0.04575145 -0.03989282
v 0.02566029 0.02688495 -0.01949088
v -0.02515255 0.03092735 -0.02626670
v -0.02559232 0.02682408 -0.01924903
v -0.02412779 0.02675337 -0.02646247
v -0.01051156 0.01682407 -0.09275631
v -0.00902923 0.02049313 -0.09297628
v -0.01178808 0.02040441 -0.09273961
v -0.01027903 0.01676891 -0.08764932
v -0.00922289 0.02068013 -0.08932141
v -0.01031364 0.02091392 -0.08632670
v -0.01149967 0.01726313 -0.08628860
v -0.01051602 0.01682912 -0.08544100
v -0.01204388 0.02001610 -0.08701045
v -0.00967984 0.02084039 -0.09550900
v -0.01224228 0.01849756 -0.09495120
v -0.00824573 0.01878460 -0.09221036
v -0.00964091 0.01695068 -0.09058706
v -0.01215943 0.01970954 -0.08453363
v -0.01058969 0.01701362 -0.09493494
v -0.00887050 0.02047893 -0.09443981
v -0.01197647 0.02014285 -0.08985647
v -0.00933949 0.01735614 -0.08908437
v -0.00858111 0.01990842 -0.08664848
v -0.00984125 0.01864888 -0.09660073
v -0.01002065 0.06366025 -0.09662791
v -0.00971996 0.06554940 -0.09049406
v -0.01241143 0.06334325 -0.08892316
v -0.01221951 0.06437227 -0.08696817
v -0.01221288 0.06431736 -0.09609179
v -0.00857342 0.06417295 -0.09555206
v -0.01204136 0.06298674 -0.09531279
v -0.00976904 0.06558584 -0.09452044
v -0.00841214 0.06409353 -0.09245913
v -0.01227856 0.06346961 -0.09147308
v -0.01201873 0.06464787 -0.08979289
v -0.01009905 0.06175798 -0.08727157
v -0.00932154 0.06540489 -0.08662676
v -0.01153749 0.06225763 -0.08602744
v -0.00865097 0.06294400 -0.08511171
v -0.01227104 0.06384092 -0.08456250
v -0.00856382 0.06275382 -0.09382693
v -0.01043067 0.06580059 -0.09368144
v -0.01005767 0.06163536 -0.09469773
v -0.01217018 0.06339781 -0.09356441
v -0.00849893 0.06288119 -0.09036151
v -0.00850337 0.06398906 -0.09083011
v -0.01047520 0.06178046 -0.09150987
v -0.00866093 0.06233640 -0.08702622
v 0.03045919 0.03875793 0.00317353
v 0.03036595 0.03331505 0.00315508
v 0.02913960 0.03603690 0.00287776
v 0.03403931 0.03644125 0.00697433
v 0.03429667 0.03645374 0.00517814
v 0.03430201 0.03651849 0.00521888
v 0.03347090 0.03637918 0.01031880
v 0.03295792 0.03646981 0.01303762
v 0.03293742 0.03640326 0.01307385
v 0.03304646 0.03539117 0.01141127
v 0.03268989 0.03536978 0.01312339
v 0.03267667 0.03529498 0.01309180
v 0.03266508 0.03522528 0.01305734
v 0.03374868 0.03570114 0.00790680
v 0.03413219 0.03550549 0.00503278
v 0.03416666 0.03564855 0.00500731
v 0.03419823 0.03579407 0.00499815
v 0.03430546 0.03691876 0.00565305
v 0.03424275 0.03708016 0.00626819
v 0.03431179 0.03679245 0.00546844
v 0.03431192 0.03674361 0.00541227
v 0.03430909 0.03663671 0.00530897
v 0.03431103 0.03669165 0.00535905
v 0.03429019 0.03638666 0.00514132
v 0.03428261 0.03631761 0.00510852
v 0.03427394 0.03624694 0.00507978
v 0.03426377 0.03617171 0.00505419
v 0.03306089 0.03676334 0.01279995
v 0.03304038 0.03671072 0.01285464
v 0.03347877 0.03708182 0.01092498
v 0.03328095 0.03708231 0.01196261
v 0.03312125 0.03689954 0.01261774
v 0.03315991 0.03697058 0.01248401
v 0.03314076 0.03693710 0.01255196
v 0.03319701 0.03702499 0.01234232
v 0.03317868 0.03699990 0.01241407
v 0.03323107 0.03706104 0.01219949
v 0.03326268 0.03707949 0.01205371
v 0.03324723 0.03707256 0.01212677
v 0.03310138 0.03685792 0.01268122
v 0.03308124 0.03681246 0.01274206
v 0.03299915 0.03659584 0.01295352
v 0.03301979 0.03665481 0.01290588
v 0.03297851 0.03653409 0.01299748
v 0.03425245 0.03609533 0.00503326
v 0.03423999 0.03601804 0.00501710
v 0.03388286 0.03708063 0.00863986
v 0.03289689 0.03626424 0.01313409
v 0.03291706 0.03633466 0.01310605
v 0.03287694 0.03619221 0.01315786
v 0.03422641 0.03594009 0.00500585
v 0.03280233 0.03590046 0.01320827
v 0.03283889 0.03604801 0.01319157
v 0.03276772 0.03575148 0.01320767
v 0.03275129 0.03567705 0.01320081
v 0.03293472 0.03454639 0.01076023
v 0.03325060 0.03454726 0.00907369
v 0.03273553 0.03560299 0.01318950
v 0.03271939 0.03552411 0.01317240
v 0.03270415 0.03544627 0.01315031
v 0.03262188 0.03485977 0.01276726
v 0.03265460 0.03515767 0.01301879
v 0.03264533 0.03509239 0.01297617
v 0.03263734 0.03502968 0.01292951
v 0.03263074 0.03496990 0.01287904
v 0.03262557 0.03491318 0.01282486
v 0.03262754 0.03465070 0.01243635
v 0.03263383 0.03462174 0.01236288
v 0.03269974 0.03454583 0.01193008
v 0.03264177 0.03459734 0.01228806
v 0.03265120 0.03457757 0.01221281
v 0.03266196 0.03456248 0.01213802
v 0.03267541 0.03455171 0.01205675
v 0.03261972 0.03480995 0.01270652
v 0.03261916 0.03476395 0.01264289
v 0.03262301 0.03468416 0.01250766
v 0.03262024 0.03472197 0.01257657
v 0.03354490 0.03454796 0.00733323
v 0.03397230 0.03498590 0.00529307
v 0.03395124 0.03493102 0.00534202
v 0.03390947 0.03483049 0.00544953
v 0.03393026 0.03487914 0.00539422
v 0.03388895 0.03478523 0.00550781
v 0.03384915 0.03470553 0.00563254
v 0.03386881 0.03474352 0.00556886
v 0.03372294 0.03454920 0.00618841
v 0.03383006 0.03467141 0.00569862
v 0.03377748 0.03459311 0.00590645
v 0.03381167 0.03464124 0.00576665
v 0.03376178 0.03457526 0.00597808
v 0.03374680 0.03456191 0.00605308
v 0.03401430 0.03510385 0.00520538
v 0.03405551 0.03523131 0.00513209
v 0.03409531 0.03536689 0.00507402
v 0.03430609 0.03657894 0.00526218
v 0.03431066 0.03683802 0.00552742
v 0.03430854 0.03688017 0.00558902
v 0.03430111 0.03695604 0.00572436
v 0.03429568 0.03698867 0.00579779
v 0.03428924 0.03701627 0.00587289
v 0.03426391 0.03706707 0.00610569
v 0.03428178 0.03703846 0.00594918
v 0.03427330 0.03705520 0.00602688
v 0.02846666 0.03331505 0.01428290
v 0.02709123 0.03667779 0.01471054
v 0.02869444 0.03875793 0.01351300
v 0.02854939 0.03798701 0.01428290
v 0.02998527 0.03455538 0.00551418
v 0.02997251 0.03453162 0.00558645
v 0.02995958 0.03451233 0.00566018
v 0.02896579 0.03716164 0.01175760
v 0.02972268 0.03719742 0.00732664
v 0.02875412 0.03639500 0.01291820
v 0.02876138 0.03646476 0.01288292
v 0.02890213 0.03447771 0.01185213
v 0.02887664 0.03450411 0.01200423
v 0.02997378 0.03715439 0.00585111
v 0.02999926 0.03712730 0.00569901
v 0.03002380 0.03708626 0.00555101
v 0.03003560 0.03705977 0.00547911
v 0.03004703 0.03702890 0.00540891
v 0.03005806 0.03699343 0.00534067
v 0.03006863 0.03695353 0.00527456
v 0.03007872 0.03690943 0.00521086
v 0.03008829 0.03686139 0.00514978
v 0.03009732 0.03680965 0.00509156
v 0.03010575 0.03675445 0.00503641
v 0.03011357 0.03669604 0.00498457
v 0.03012072 0.03663467 0.00493628
v 0.03012719 0.03657057 0.00489172
v 0.03013296 0.03650400 0.00485100
v 0.03013803 0.03643519 0.00481415
v 0.03014240 0.03636439 0.00478123
v 0.03014899 0.03621779 0.00472741
v 0.03015269 0.03606613 0.00468998
v 0.03015347 0.03591135 0.00466937
v 0.03015275 0.03583340 0.00466551
v 0.03015128 0.03575540 0.00466602
v 0.03014906 0.03567759 0.00467095
v 0.03014609 0.03560022 0.00468035
v 0.03014235 0.03552353 0.00469430
v 0.03013784 0.03544775 0.00471282
v 0.03013258 0.03537314 0.00473595
v 0.03012657 0.03529993 0.00476353
v 0.03010450 0.03509109 0.00487116
v 0.03011250 0.03515867 0.00483131
v 0.03011987 0.03522836 0.00479537
v 0.03009592 0.03502586 0.00491472
v 0.03008677 0.03496323 0.00496180
v 0.03007710 0.03490342 0.00501224
v 0.03006694 0.03484668 0.00506586
v 0.03005634 0.03479325 0.00512244
v 0.03004532 0.03474336 0.00518182
v 0.03003393 0.03469725 0.00524381
v 0.03002218 0.03465516 0.00530823
v 0.03001014 0.03461732 0.00537488
v 0.02999782 0.03458398 0.00544359
v 0.02989144 0.03446334 0.00605436
v 0.02993334 0.03448517 0.00581111
v 0.02885206 0.03454433 0.01215237
v 0.02892818 0.03446264 0.01169792
v 0.02884024 0.03457041 0.01222438
v 0.02882877 0.03460088 0.01229468
v 0.02881772 0.03463596 0.01236306
v 0.02880712 0.03467549 0.01242931
v 0.02879699 0.03471924 0.01249316
v 0.02878738 0.03476694 0.01255441
v 0.02877833 0.03481836 0.01261284
v 0.02876985 0.03487324 0.01266818
v 0.02876199 0.03493134 0.01272023
v 0.02875479 0.03499240 0.01276876
v 0.02874827 0.03505618 0.01281357
v 0.02874245 0.03512244 0.01285458
v 0.02873732 0.03519094 0.01289173
v 0.02873290 0.03526144 0.01292497
v 0.02872617 0.03540746 0.01297948
v 0.02872233 0.03555858 0.01301770
v 0.02872140 0.03571289 0.01303917
v 0.02872203 0.03579063 0.01304351
v 0.02872341 0.03586844 0.01304349
v 0.02872554 0.03594609 0.01303907
v 0.02872842 0.03602333 0.01303020
v 0.02873647 0.03617562 0.01299888
v 0.02874163 0.03625020 0.01297636
v 0.02874753 0.03632340 0.01294942
v 0.02877774 0.03659782 0.01280084
v 0.02879634 0.03672068 0.01270463
v 0.02876926 0.03653245 0.01284374
v 0.02880639 0.03677769 0.01265167
v 0.02881689 0.03683144 0.01259570
v 0.02882782 0.03688170 0.01253693
v 0.02883912 0.03692822 0.01247552
v 0.02885077 0.03697077 0.01241165
v 0.02886274 0.03700911 0.01234551
v 0.02887499 0.03704301 0.01227728
v 0.02888748 0.03707223 0.01220712
v 0.02890018 0.03709665 0.01213525
v 0.02891306 0.03711662 0.01206186
v 0.02893924 0.03714516 0.01191142
v 0.02873206 0.03609992 0.01301682
v -0.00497925 0.04545690 -0.03133035
v -0.00922839 0.04545690 -0.03008035
v 0.00464075 0.04545690 -0.03133035
v 0.00348489 0.04545690 -0.03008035
v 0.00339910 0.04545690 -0.03008035
v -0.00918550 0.04545690 -0.03008035
v 0.00888989 0.04545690 -0.03008035
v -0.00373760 0.04545690 -0.03008035
v 0.00683085 0.04545690 -0.03008035
v 0.00614450 0.04545690 -0.03008035
v 0.00768878 0.04545690 -0.03008035
v 0.00854672 0.04545690 -0.03008035
v 0.00820354 0.04545690 -0.03008035
v 0.00871830 0.04545690 -0.03008035
v 0.00511497 0.04545690 -0.03008035
v 0.00477180 0.04545690 -0.03008035
v 0.00545815 0.04545690 -0.03008035
v 0.00442862 0.04545690 -0.03008035
v 0.00408545 0.04545690 -0.03008035
v 0.00391386 0.04545690 -0.03008035
v 0.00374227 0.04545690 -0.03008035
v 0.00357069 0.04545690 -0.03008035
v -0.00579665 0.04545690 -0.03008035
v -0.00648300 0.04545690 -0.03008035
v -0.00493871 0.04545690 -0.03008035
v -0.00408077 0.04545690 -0.03008035
v -0.00442395 0.04545690 -0.03008035
v -0.00390919 0.04545690 -0.03008035
v -0.00382339 0.04545690 -0.03008035
v -0.00751252 0.04545690 -0.03008035
v -0.00785569 0.04545690 -0.03008035
v -0.00716935 0.04545690 -0.03008035
v -0.00819887 0.04545690 -0.03008035
v -0.00854204 0.04545690 -0.03008035
v -0.00871363 0.04545690 -0.03008035
v -0.00888522 0.04545690 -0.03008035
v -0.00905680 0.04545690 -0.03008035
v -0.00914260 0.04545690 -0.03008035
v 0.00758308 0.04792821 -0.02906447
v 0.00614450 0.04547999 -0.03008035
v 0.00705963 0.04548768 -0.03008035
v 0.03192074 0.04046169 -0.02905429
v -0.00016925 0.04734511 -0.02938640
v 0.00866111 0.04546075 -0.03008035
v -0.00016925 0.04536098 -0.03044780
v 0.00477180 0.04546844 -0.03008035
v 0.00522936 0.04547229 -0.03008035
v 0.00568693 0.04547614 -0.03008035
v 0.00803383 0.04547133 -0.03008033
v 0.00843233 0.04546460 -0.03008035
v 0.00408545 0.04546267 -0.03008035
v 0.00431423 0.04546460 -0.03008035
v 0.00454301 0.04546652 -0.03008035
v 0.00374227 0.04545979 -0.03008035
v 0.00385667 0.04546075 -0.03008035
v 0.00351349 0.04545786 -0.03008035
v 0.00362788 0.04545883 -0.03008035
v -0.01063503 0.04801072 -0.02897369
v -0.02915178 0.04591753 -0.02985578
v -0.00385199 0.04545881 -0.03008035
v -0.00556786 0.04548740 -0.03008035
v -0.00648300 0.04547977 -0.03008035
v -0.00785569 0.04546834 -0.03008035
v -0.00739813 0.04547215 -0.03008035
v -0.00694056 0.04547596 -0.03008035
v -0.00466337 0.04547243 -0.03008032
v -0.00442395 0.04546834 -0.03008035
v -0.00419517 0.04546453 -0.03008035
v -0.00396638 0.04546071 -0.03008035
v -0.00854204 0.04546262 -0.03008035
v -0.00831326 0.04546453 -0.03008035
v -0.00808448 0.04546643 -0.03008035
v -0.00888522 0.04545976 -0.03008035
v -0.00877083 0.04546071 -0.03008035
v -0.00911400 0.04545785 -0.03008035
v -0.00899961 0.04545881 -0.03008035
v -0.00917120 0.04545738 -0.03008035
v 0.00425254 0.06331474 -0.00324302
v 0.02063031 0.04881895 -0.03062156
v -0.01997784 0.05569939 0.09219598
v -0.03516513 0.04461498 -0.02544016
v 0.00464075 0.03717690 -0.03133035
v 0.00888989 0.03717690 -0.03008035
v -0.00497925 0.03717690 -0.03133035
v -0.00382339 0.03717690 -0.03008035
v -0.00373760 0.03717690 -0.03008035
v 0.00884700 0.03717690 -0.03008035
v -0.00922839 0.03717690 -0.03008035
v -0.01464834 0.03804609 -0.03091159
v -0.00016924 0.03723672 -0.03073168
v 0.00339910 0.03717690 -0.03008035
v -0.00716935 0.03717690 -0.03008035
v -0.00648300 0.03717690 -0.03008035
v -0.00802728 0.03717690 -0.03008035
v -0.00888522 0.03717690 -0.03008035
v -0.00854204 0.03717690 -0.03008035
v -0.00905680 0.03717690 -0.03008035
v -0.00545347 0.03717690 -0.03008035
v -0.00511030 0.03717690 -0.03008035
v -0.00579665 0.03717690 -0.03008035
v -0.00476712 0.03717690 -0.03008035
v -0.00442395 0.03717690 -0.03008035
v -0.00425236 0.03717690 -0.03008035
v -0.00408077 0.03717690 -0.03008035
v -0.00390919 0.03717690 -0.03008035
v 0.00545815 0.03717690 -0.03008035
v 0.00614450 0.03717690 -0.03008035
v 0.00460021 0.03717690 -0.03008035
v 0.00374227 0.03717690 -0.03008035
v 0.00408545 0.03717690 -0.03008035
v 0.00357069 0.03717690 -0.03008035
v 0.00348489 0.03717690 -0.03008035
v 0.00717402 0.03717690 -0.03008035
v 0.00751719 0.03717690 -0.03008035
v 0.00683085 0.03717690 -0.03008035
v 0.00786037 0.03717690 -0.03008035
v 0.00820354 0.03717690 -0.03008035
v 0.00837513 0.03717690 -0.03008035
v 0.00854672 0.03717690 -0.03008035
v 0.00871830 0.03717690 -0.03008035
v 0.00880410 0.03717690 -0.03008035
v 0.03073456 0.02965214 -0.00315704
v -0.02961509 0.03264154 0.09636057
v 0.03566123 0.03884021 0.09569265
v 0.03708435 0.04319458 0.09078506
v -0.00010024 0.02568405 0.08238422
v 0.03574852 0.04778430 -0.00998169
v -0.00385199 0.03717594 -0.03008035
v -0.00396638 0.03717498 -0.03008035
v -0.00408077 0.03717402 -0.03008035
v -0.00419517 0.03717305 -0.03008035
v -0.00442395 0.03717113 -0.03008035
v -0.00465273 0.03716921 -0.03008035
v -0.00488151 0.03716728 -0.03008035
v -0.00511030 0.03716536 -0.03008035
v -0.00556786 0.03716151 -0.03008035
v -0.00602543 0.03715766 -0.03008035
v -0.00899961 0.03717305 -0.03008035
v -0.00877083 0.03716921 -0.03008035
v -0.00837342 0.03716260 -0.03008033
v -0.00739813 0.03714612 -0.03008035
v -0.00648300 0.03715381 -0.03008035
v 0.00883270 0.03717642 -0.03008035
v 0.00877550 0.03717595 -0.03008035
v 0.00866111 0.03717500 -0.03008035
v 0.00854672 0.03717404 -0.03008035
v 0.00843233 0.03717309 -0.03008035
v 0.00820354 0.03717118 -0.03008035
v 0.00797476 0.03716928 -0.03008035
v 0.00774598 0.03716737 -0.03008035
v 0.00751719 0.03716547 -0.03008035
v 0.00705963 0.03716165 -0.03008035
v 0.00660206 0.03715784 -0.03008035
v 0.00351349 0.03717500 -0.03008035
v 0.00362788 0.03717309 -0.03008035
v 0.00385667 0.03716928 -0.03008035
v 0.00408545 0.03716547 -0.03008035
v 0.00431834 0.03716173 -0.03008035
v 0.00522936 0.03714641 -0.03008035
v 0.00614450 0.03715403 -0.03008035
v 0.01525769 0.03492663 -0.02900465
v 0.02731449 0.03292384 -0.02758897
v -0.00016925 0.03528869 -0.02938640
v -0.00016925 0.03634827 -0.02981292
v -0.03337622 0.02770553 -0.01191217
v -0.00696278 0.03431036 -0.02882990
v -0.01057722 0.03459114 -0.02895516
v 0.03579470 0.02955870 -0.01141394
v -0.00143925 0.04258690 -0.02579036
v -0.01472243 0.04189481 -0.02697511
v -0.01283711 0.04162885 -0.02774068
v -0.00191651 0.04283555 -0.02674355
v -0.00465750 0.04050427 -0.02762371
v 0.01333256 0.04043358 -0.02865574
v -0.00016925 0.02775672 0.04453625
v -0.00009295 0.02775870 0.04454610
v -0.00001116 0.02776082 0.04455666
v -0.00012203 0.02775715 0.04454100
v -0.00002747 0.02775800 0.04455048
v 0.00010980 0.02775923 0.04456428
v 0.00004153 0.02776218 0.04456347
v 0.00034618 0.02776784 0.04461413
v 0.00195492 0.02814946 0.04708912
v -0.00025095 0.02775884 0.04454686
v -0.00032741 0.02776083 0.04455678
v -0.00057737 0.02776562 0.04458651
v -0.02394842 0.02959298 0.03496831
v -0.00029953 0.02775789 0.04454935
v 0.00071893 0.02878787 0.05598784
v -0.00236984 0.02906683 0.05798784
v -0.00034623 0.02898891 0.05622848
v -0.00016925 0.02726855 0.05378635
v 0.00440575 0.02712912 0.05389407
v -0.00016925 0.02716885 0.05389407
v 0.00447464 0.02718257 0.05387546
v 0.00450575 0.02713875 0.05399408
v 0.00459336 0.02723296 0.05390978
v 0.00460879 0.02723841 0.05398637
v 0.00455024 0.02722924 0.05384503
v 0.00448538 0.02722779 0.05380184
v -0.00474705 0.02722879 0.05378634
v -0.00474425 0.02712912 0.05389407
v 0.00450575 0.02751523 0.05914748
v -0.00494729 0.02723841 0.05398637
v -0.00484425 0.02713875 0.05399408
v -0.00488864 0.02722923 0.05384493
v -0.00493182 0.02723295 0.05390970
v -0.00482382 0.02722779 0.05380181
v 0.00447238 0.02764051 0.06005695
v -0.00484425 0.02751523 0.05914748
v -0.00480937 0.02767108 0.06027521
v 0.00447421 0.02700857 0.05394271
v 0.00450575 0.02742144 0.05915733
v -0.00016925 0.02708399 0.05389407
v -0.00479187 0.02699675 0.05396158
v -0.00484425 0.02742144 0.05915733
v -0.00016925 0.02704650 0.05098599
v -0.00474425 0.02690660 0.05089407
v -0.00016925 0.02694683 0.05089407
v -0.00474706 0.02700623 0.05098598
v -0.00493947 0.02698929 0.05084969
v -0.00488877 0.02699734 0.05092727
v -0.00482395 0.02700277 0.05097047
v -0.00484425 0.02688443 0.05079408
v 0.00440856 0.02700623 0.05098598
v 0.00440575 0.02690660 0.05089407
v -0.00484425 0.02644110 0.04553518
v -0.00494733 0.02654068 0.04552655
v -0.00481170 0.02688069 0.05086735
v -0.00474425 0.02678995 0.05089407
v -0.00484425 0.02678995 0.05079408
v 0.00460880 0.02698406 0.05078594
v 0.00455017 0.02699735 0.05092737
v 0.00459333 0.02699078 0.05086264
v 0.00448539 0.02700277 0.05097050
v -0.00460432 0.02630299 0.04367929
v -0.00481396 0.02671849 0.05079991
v -0.00474144 0.02669032 0.05080220
v 0.00446787 0.02687244 0.05086880
v 0.00450575 0.02678995 0.05079408
v 0.00450575 0.02644110 0.04553518
v -0.00484425 0.02634748 0.04554503
v -0.00474141 0.02624789 0.04555366
v -0.00016925 0.02673059 0.05080219
v -0.00016925 0.02683026 0.05089407
v 0.00447546 0.02671849 0.05079991
v 0.00440294 0.02669032 0.05080220
v 0.00020203 0.02576815 0.04016584
v 0.00440291 0.02624789 0.04555366
v 0.00450575 0.02634748 0.04554503
v 0.00447029 0.02640014 0.04458978
v -0.00055181 0.02708959 0.05669756
v -0.03333715 0.04973206 0.09783144
v 0.03938605 0.04150281 0.09326638
v -0.03398117 0.02614383 -0.01063392
v 0.02332190 0.03015450 0.05319485
v -0.03509795 0.04528234 0.08634604
v -0.01150374 0.02662811 0.05361496
v -0.00843940 0.02568399 0.03832673
v 0.01115313 0.02662442 0.05354227
v 0.01038687 0.02638050 0.04908133
v 0.02063138 0.05593554 0.00310542
v -0.03437703 0.04819649 -0.00063515
v 0.03277257 0.03265353 0.00271454
v 0.00034128 0.02715100 0.06299390
v 0.00106809 0.02922818 0.05977890
v -0.00016925 0.02740150 0.04050313
v 0.03247645 0.03608653 0.10068105
v 0.03415989 0.03553659 0.09673210
v 0.02027066 0.02930670 0.09545282
v 0.00002393 0.02948108 0.10438760
v 0.03141735 0.03282324 0.09639401
v 0.00508671 0.05236058 0.09688804
v 0.03065219 0.03318262 0.10071478
v -0.02128734 0.03295848 0.09358895
v 0.01341210 0.05675365 0.11336334
v 0.03535583 0.04118534 0.09904752
f 3 2 1
f 2 4 1
f 2 3 1
f 4 2 1
f 2 6 5
f 6 2 5
f 21 11 10
f 7 10 11
f 10 7 9
f 9 21 10
f 7 8 9
f 21 12 11
f 11 12 13
f 13 12 14
f 15 13 14
f 16 15 17
f 17 18 16
f 18 20 19
f 9 8 20
f 8 19 20
f 16 18 19
f 14 17 15
f 7 11 13
f 20 21 9
f 12 21 10
f 20 17 14
f 20 18 17
f 21 20 10
f 14 12 20
f 20 12 10
f 13 15 7
f 19 7 16
f 8 7 19
f 7 15 16
f 23 22 26
f 26 22 25
f 22 27 24
f 23 26 27
f 26 24 27
f 22 24 25
f 26 25 24
f 23 27 22
f 29 28 32
f 32 28 31
f 28 33 30
f 29 32 33
f 32 30 33
f 28 30 31
f 32 31 30
f 29 33 28
f 34 38 380
f 35 36 37
f 38 34 332
f 332 37 38
f 380 333 34
f 36 38 37
f 50 36 35
f 37 332 388
f 52 388 391
f 388 332 391
f 50 35 388
f 41 40 60
f 39 34 333
f 40 395 42
f 43 52 44
f 44 52 332
f 52 55 50
f 55 52 43
f 44 332 34
f 45 44 58
f 59 46 45
f 59 47 46
f 59 48 47
f 43 46 55
f 46 43 45
f 43 44 45
f 58 44 34
f 54 53 389
f 42 389 53
f 49 388 52
f 388 49 50
f 51 54 49
f 389 51 54
f 52 391 332
f 333 380 53
f 41 333 53
f 395 40 53
f 39 333 41
f 40 41 53
f 60 40 41
f 50 38 36
f 49 54 51
f 56 55 46
f 52 50 49
f 380 38 50
f 55 48 50
f 46 47 56
f 56 47 57
f 55 56 57
f 48 55 57
f 380 50 48
f 48 57 47
f 41 380 48
f 40 53 41
f 40 42 53
f 59 39 48
f 39 41 48
f 39 59 58
f 45 58 59
f 39 58 34
f 41 53 380
f 53 389 42
f 53 54 389
f 389 54 51
f 42 395 53
f 37 388 35
f 70 71 60
f 60 62 63
f 63 64 65
f 65 66 67
f 67 68 69
f 71 70 72
f 67 66 68
f 72 69 68
f 65 64 66
f 63 62 64
f 70 69 72
f 75 74 73
f 75 79 74
f 76 80 41
f 75 80 79
f 62 60 64
f 41 60 83
f 60 62 83
f 77 60 41
f 80 76 41
f 80 83 79
f 79 76 80
f 83 80 41
f 78 79 81
f 81 79 83
f 80 82 41
f 60 83 62
f 41 80 61
f 83 61 80
f 75 83 80
f 60 61 83
f 60 63 70
f 60 71 64
f 76 79 80
f 68 66 64
f 71 72 64
f 64 72 68
f 41 61 77
f 67 69 70
f 70 63 65
f 67 70 65
f 60 77 61
f 78 81 74
f 78 74 79
f 81 83 73
f 81 73 74
f 83 75 73
f 80 41 82
f 84 89 88
f 87 84 88
f 87 88 85
f 84 86 309
f 84 88 89
f 88 85 89
f 86 84 87
f 89 85 88
f 88 87 85
f 84 309 88
f 87 309 86
f 88 309 87
f 93 91 94
f 90 97 96
f 96 98 95
f 92 90 95
f 95 90 94
f 90 91 93
f 97 90 92
f 90 96 91
f 92 95 98
f 95 91 96
f 90 93 94
f 95 94 91
f 92 96 97
f 98 96 92
f 99 100 102
f 108 131 109
f 116 131 117
f 124 131 125
f 131 130 99
f 131 128 130
f 131 129 128
f 131 127 129
f 131 126 127
f 131 124 126
f 131 122 123
f 123 125 131
f 131 120 122
f 131 121 120
f 131 119 121
f 131 118 119
f 131 114 115
f 115 117 131
f 131 112 114
f 131 113 112
f 131 111 113
f 131 110 111
f 108 110 131
f 131 106 107
f 107 109 131
f 131 104 106
f 131 105 104
f 131 103 105
f 131 101 103
f 102 101 131
f 116 118 131
f 99 102 131
f 133 135 134
f 136 135 133
f 137 138 133
f 139 137 133
f 140 139 133
f 141 140 133
f 142 141 133
f 143 142 133
f 144 143 133
f 145 144 133
f 146 145 133
f 147 146 133
f 148 147 133
f 149 148 133
f 150 149 133
f 151 150 133
f 152 151 133
f 153 152 133
f 154 153 133
f 155 154 133
f 156 155 133
f 157 156 133
f 158 157 133
f 159 158 133
f 160 159 133
f 161 162 133
f 162 160 133
f 163 162 161
f 133 164 161
f 133 132 164
f 138 136 133
f 133 134 132
f 161 164 130
f 163 161 130
f 162 163 128
f 129 162 128
f 127 160 129
f 127 159 160
f 126 158 159
f 126 124 158
f 124 125 157
f 157 125 156
f 156 123 155
f 155 123 122
f 154 122 120
f 153 154 120
f 152 153 121
f 148 117 115
f 147 115 114
f 146 114 112
f 145 112 113
f 144 145 113
f 143 144 111
f 110 143 111
f 108 142 110
f 108 141 142
f 109 140 141
f 109 107 140
f 107 106 139
f 106 104 137
f 137 104 138
f 138 105 136
f 136 105 103
f 164 99 130
f 100 164 132
f 102 100 132
f 134 102 132
f 134 101 102
f 134 135 101
f 101 135 103
f 103 135 136
f 105 138 104
f 137 139 106
f 139 140 107
f 141 108 109
f 143 110 142
f 113 111 144
f 112 145 146
f 114 146 147
f 100 99 164
f 115 147 148
f 117 148 149
f 116 117 149
f 150 116 149
f 150 118 116
f 150 151 118
f 118 151 119
f 119 151 152
f 121 119 152
f 120 121 153
f 122 154 155
f 123 156 125
f 157 158 124
f 159 127 126
f 162 129 160
f 130 128 163
f 165 167 166
f 165 263 167
f 173 167 263
f 174 167 173
f 176 263 165
f 165 166 168
f 182 177 165
f 172 177 169
f 179 169 177
f 165 168 182
f 181 171 170
f 175 183 181
f 167 174 166
f 166 174 184
f 166 184 168
f 185 188 189
f 185 256 188
f 193 188 256
f 194 188 193
f 196 256 185
f 191 192 199
f 185 189 201
f 187 186 200
f 192 191 198
f 188 194 203
f 188 203 189
f 204 207 205
f 204 249 207
f 212 207 249
f 213 207 212
f 215 249 204
f 204 205 208
f 222 216 204
f 206 214 210
f 204 208 222
f 220 221 218
f 207 213 205
f 205 213 225
f 205 225 208
f 230 232 242
f 231 229 230
f 233 234 232
f 235 236 232
f 230 235 232
f 237 238 232
f 236 237 232
f 238 233 232
f 280 239 232
f 234 280 232
f 284 283 240
f 226 228 227
f 242 241 231
f 216 243 244
f 244 245 204
f 216 244 204
f 246 215 245
f 249 246 247
f 215 248 245
f 249 247 245
f 243 225 244
f 243 208 225
f 244 249 245
f 197 250 251
f 251 252 185
f 197 251 185
f 253 196 252
f 256 253 254
f 196 255 252
f 256 254 252
f 250 203 251
f 250 189 203
f 251 256 252
f 177 257 258
f 258 259 165
f 177 258 165
f 260 176 259
f 263 260 261
f 176 262 259
f 263 261 259
f 257 184 258
f 257 168 184
f 258 263 259
f 272 278 264
f 264 276 272
f 278 272 276
f 272 265 278
f 278 265 175
f 268 269 270
f 271 267 270
f 268 266 272
f 266 265 272
f 267 271 274
f 273 274 271
f 271 270 269
f 267 274 266
f 266 274 265
f 278 175 275
f 209 276 206
f 278 240 283
f 280 282 277
f 241 280 180
f 180 280 277
f 241 180 283
f 284 240 277
f 285 283 180
f 285 265 192
f 276 209 214
f 282 284 277
f 175 265 285
f 272 273 271
f 269 268 272
f 271 269 272
f 278 273 272
f 192 265 274
f 240 278 275
f 274 273 206
f 192 274 199
f 275 175 180
f 264 283 285
f 283 264 278
f 278 206 273
f 277 275 180
f 240 275 277
f 278 214 206
f 274 206 199
f 264 285 192
f 264 192 276
f 276 214 278
f 279 270 267
f 266 268 279
f 279 267 266
f 270 279 268
f 232 239 242
f 281 229 280
f 240 228 226
f 240 227 228
f 242 231 230
f 229 282 280
f 239 280 241
f 242 239 241
f 240 227 283
f 283 227 240
f 240 226 227
f 258 173 263
f 184 173 174
f 261 165 259
f 260 263 176
f 178 182 168
f 171 179 177
f 183 169 179
f 169 183 175
f 181 183 171
f 178 172 171
f 177 182 178
f 257 178 168
f 176 165 261
f 178 257 177
f 170 171 172
f 175 170 169
f 175 181 170
f 170 172 169
f 179 171 183
f 177 178 171
f 172 178 177
f 176 261 262
f 251 193 256
f 203 193 194
f 254 185 252
f 253 256 196
f 186 201 189
f 201 202 197
f 201 200 202
f 192 195 201
f 198 191 190
f 276 191 199
f 190 191 276
f 192 198 195
f 201 186 192
f 186 202 200
f 202 186 197
f 196 185 254
f 189 250 197
f 276 192 190
f 192 186 190
f 187 200 190
f 190 200 198
f 186 187 190
f 200 201 195
f 198 200 195
f 197 186 189
f 185 201 197
f 196 254 255
f 244 212 249
f 225 212 213
f 247 204 245
f 246 249 215
f 217 222 208
f 221 216 222
f 220 211 221
f 210 223 217
f 223 218 221
f 210 224 223
f 219 218 224
f 217 211 210
f 221 222 217
f 243 217 208
f 215 204 247
f 217 243 216
f 224 209 219
f 206 210 219
f 214 209 210
f 224 210 209
f 210 211 219
f 211 220 219
f 219 220 218
f 218 223 224
f 221 217 223
f 217 216 221
f 211 217 221
f 215 247 248
f 233 238 280
f 237 236 281
f 235 230 281
f 236 235 281
f 234 233 280
f 229 231 282
f 231 241 283
f 231 283 284
f 229 281 230
f 284 282 231
f 237 281 238
f 238 281 280
f 219 209 206
f 199 206 276
f 285 170 175
f 170 285 180
f 170 180 175
f 298 288 297
f 302 307 289
f 306 302 292
f 291 306 308
f 290 302 289
f 288 300 291
f 307 288 289
f 307 302 288
f 302 306 301
f 305 302 301
f 301 296 299
f 300 298 296
f 287 305 304
f 298 295 286
f 287 303 295
f 295 293 286
f 294 296 293
f 293 296 286
f 308 290 291
f 287 295 298
f 297 287 298
f 288 298 300
f 290 292 302
f 306 292 308
f 290 289 291
f 306 291 300
f 291 289 288
f 288 302 305
f 300 301 306
f 301 300 296
f 305 297 288
f 305 299 304
f 297 305 287
f 305 301 299
f 298 286 296
f 299 287 304
f 303 287 299
f 299 296 303
f 296 294 303
f 294 295 303
f 295 294 293
f 308 292 290
f 88 309 84
f 309 88 84
f 313 311 315
f 311 312 314
f 314 312 315
f 315 311 314
f 313 315 310
f 312 311 313
f 312 310 315
f 312 313 310
f 319 317 320
f 316 323 322
f 322 324 321
f 318 316 321
f 321 316 320
f 316 317 319
f 323 316 318
f 316 322 317
f 318 321 324
f 321 317 322
f 316 319 320
f 321 320 317
f 318 322 323
f 324 322 318
f 328 326 329
f 329 325 328
f 329 327 325
f 329 326 327
f 326 329 327
f 325 329 328
f 326 328 329
f 329 325 327
f 333 380 34
f 330 332 38
f 36 330 38
f 36 331 330
f 391 332 52
f 50 388 331
f 34 380 38
f 52 332 388
f 36 50 331
f 34 38 332
f 388 332 331
f 334 336 343
f 343 335 337
f 343 337 338
f 343 339 340
f 340 341 343
f 341 342 343
f 338 339 343
f 343 336 335
f 345 351 346
f 351 344 346
f 347 348 351
f 349 350 351
f 348 352 351
f 353 351 345
f 347 351 353
f 351 352 349
f 362 355 356
f 362 356 357
f 362 358 359
f 359 361 362
f 362 363 360
f 364 363 362
f 364 362 361
f 358 362 357
f 354 355 362
f 366 368 365
f 365 367 369
f 370 371 365
f 370 365 372
f 373 365 374
f 365 371 374
f 372 365 369
f 365 368 367
f 38 380 379
f 395 53 380
f 382 333 34
f 381 333 382
f 381 395 380
f 381 380 333
f 382 395 381
f 382 378 380
f 382 383 395
f 383 375 376
f 53 375 383
f 380 378 379
f 384 379 365
f 385 377 375
f 376 375 377
f 354 377 385
f 379 388 50
f 379 50 36
f 379 36 38
f 384 51 392
f 51 384 54
f 384 392 387
f 388 384 387
f 388 387 52
f 391 52 387
f 387 351 391
f 51 390 392
f 51 389 390
f 53 54 375
f 385 375 54
f 54 384 385
f 384 388 379
f 382 380 53
f 53 383 382
f 393 362 394
f 378 34 332
f 362 343 394
f 378 382 34
f 351 387 344
f 394 389 42
f 393 42 395
f 393 383 376
f 383 393 395
f 362 393 376
f 355 354 386
f 386 342 355
f 393 394 42
f 390 342 386
f 342 390 343
f 385 392 390
f 385 384 392
f 392 384 387
f 332 391 365
f 365 391 351
f 365 378 332
f 378 365 379
f 389 343 390
f 339 359 358
f 339 358 340
f 338 359 339
f 361 359 338
f 357 341 340
f 361 338 337
f 361 337 364
f 337 335 364
f 335 363 364
f 360 336 334
f 356 341 357
f 362 360 334
f 356 355 342
f 362 334 343
f 344 387 384
f 365 351 350
f 365 350 366
f 349 366 350
f 370 372 347
f 373 346 344
f 368 366 349
f 376 377 362
f 343 389 394
f 356 342 341
f 336 363 335
f 384 365 373
f 363 336 360
f 357 340 358
f 373 344 384
f 386 354 385
f 362 377 354
f 385 390 386
f 373 374 346
f 374 345 346
f 371 353 345
f 370 353 371
f 347 353 370
f 348 347 372
f 348 372 369
f 348 369 352
f 369 367 352
f 367 368 352
f 368 349 352
f 374 371 345
f 395 42 53
f 389 51 362
f 362 53 389
f 54 53 362
f 389 53 42
f 54 362 51
f 332 351 52
f 332 52 351
f 330 365 332
f 331 365 330
f 331 332 365
f 405 419 414
f 411 417 410
f 402 412 418
f 402 413 403
f 402 416 412
f 416 401 412
f 417 416 403
f 403 401 417
f 401 400 399
f 401 399 417
f 400 416 411
f 415 399 409
f 396 408 398
f 409 398 408
f 415 408 396
f 405 406 397
f 404 405 419
f 406 404 419
f 396 419 405
f 405 397 408
f 408 397 406
f 411 415 396
f 410 415 411
f 398 411 396
f 399 415 410
f 411 398 400
f 412 401 403
f 418 412 403
f 402 403 416
f 401 416 400
f 416 417 411
f 410 417 399
f 399 398 409
f 399 400 398
f 408 396 405
f 408 415 409
f 408 407 396
f 406 407 408
f 407 406 419
f 406 405 404
f 419 396 407
f 403 413 418
f 413 402 418
f 405 414 419
f 425 420 428
f 424 420 421
f 424 428 420
f 436 424 421
f 423 420 425
f 434 427 426
f 426 430 434
f 436 421 420
f 427 428 432
f 427 434 428
f 438 434 430
f 434 436 428
f 438 430 432
f 430 426 427
f 432 430 427
f 425 428 423
f 431 438 437
f 434 438 431
f 428 434 438
f 434 435 431
f 431 435 434
f 431 434 435
f 438 433 431
f 438 432 428
f 431 433 434
f 438 434 433
f 431 437 438
f 437 431 435
f 435 434 429
f 424 436 428
f 428 436 434
f 422 434 436
f 420 423 428
f 436 420 428
f 422 436 434
f 437 435 431
f 429 434 431
f 435 429 431
f 440 450 441
f 441 450 442
f 443 450 440
f 440 444 446
f 446 445 440
f 446 444 449
f 444 452 449
f 447 452 443
f 449 451 446
f 453 446 451
f 443 453 451
f 449 447 448
f 447 449 452
f 443 451 454
f 449 455 441
f 449 448 455
f 455 448 447
f 451 449 442
f 449 441 442
f 443 445 453
f 445 446 453
f 444 443 452
f 455 447 439
f 451 442 454
f 450 454 442
f 443 454 439
f 443 439 447
f 440 445 443
f 444 440 441
f 454 444 455
f 455 439 454
f 441 455 444
f 450 444 454
f 443 444 450
f 482 457 456
f 456 457 458
f 481 465 460
f 466 461 459
f 459 460 466
f 466 460 465
f 461 466 483
f 466 465 481
f 458 457 482
f 478 472 463
f 469 472 478
f 477 459 462
f 460 459 477
f 464 460 477
f 456 466 467
f 467 466 470
f 468 462 475
f 475 480 479
f 468 477 462
f 463 469 478
f 480 466 469
f 456 469 466
f 458 472 469
f 471 472 458
f 471 479 472
f 472 479 473
f 473 463 472
f 464 477 468
f 468 460 476
f 468 474 460
f 464 476 460
f 481 474 468
f 474 481 460
f 475 481 468
f 476 464 468
f 479 463 473
f 469 479 480
f 467 482 456
f 471 458 479
f 481 475 482
f 481 470 466
f 481 467 470
f 479 482 475
f 458 482 479
f 459 461 483
f 480 475 459
f 480 459 483
f 462 459 475
f 484 485 456
f 469 484 456
f 485 484 469
f 469 456 458
f 479 469 463
f 485 469 486
f 456 485 486
f 469 456 486
f 483 466 480
f 467 481 482
f 489 506 497
f 503 489 487
f 500 492 495
f 490 494 493
f 492 491 495
f 503 490 495
f 504 490 499
f 503 499 490
f 503 498 489
f 491 498 503
f 498 499 487
f 488 502 489
f 506 502 487
f 506 487 501
f 502 506 496
f 506 489 496
f 497 506 501
f 497 501 487
f 503 487 499
f 505 491 492
f 493 495 490
f 505 492 500
f 505 494 490
f 493 494 495
f 504 505 490
f 503 495 491
f 505 504 491
f 491 504 499
f 491 499 498
f 489 498 488
f 487 489 497
f 502 488 498
f 487 502 498
f 489 502 496
f 500 495 494
f 505 500 494
f 511 507 513
f 520 510 518
f 510 519 509
f 518 509 530
f 509 519 508
f 519 530 508
f 527 508 530
f 516 529 509
f 517 508 516
f 528 527 508
f 527 529 515
f 516 524 526
f 524 508 515
f 516 525 529
f 526 525 516
f 524 515 523
f 525 514 523
f 513 525 526
f 513 526 524
f 507 512 525
f 511 524 507
f 508 527 515
f 518 530 520
f 510 520 522
f 522 519 510
f 519 521 530
f 518 510 509
f 509 508 517
f 530 509 529
f 509 517 516
f 530 529 527
f 528 508 527
f 516 508 524
f 515 529 523
f 529 525 523
f 523 514 524
f 524 514 507
f 525 513 507
f 513 524 511
f 514 525 512
f 514 512 507
f 522 520 530
f 522 530 521
f 521 519 522
f 531 532 533
f 534 535 536
f 534 577 537
f 537 538 539
f 540 541 542
f 540 542 543
f 544 545 546
f 544 546 547
f 548 549 534
f 550 534 551
f 534 552 553
f 554 534 555
f 534 556 555
f 557 556 534
f 537 558 559
f 560 561 562
f 561 563 564
f 565 566 561
f 565 561 567
f 561 568 569
f 561 566 563
f 561 569 567
f 562 561 564
f 570 560 562
f 537 560 570
f 537 570 571
f 537 571 558
f 572 537 573
f 537 559 573
f 574 537 572
f 575 557 534
f 576 575 534
f 574 538 537
f 549 577 534
f 540 544 537
f 578 537 579
f 537 539 579
f 580 537 578
f 581 576 544
f 537 582 540
f 547 581 544
f 583 582 537
f 582 584 540
f 584 585 540
f 540 586 587
f 588 589 540
f 589 590 540
f 591 586 540
f 592 540 543
f 593 594 540
f 540 595 596
f 540 596 591
f 597 598 599
f 599 600 601
f 598 600 599
f 599 601 602
f 599 602 603
f 604 605 586
f 606 599 607
f 607 586 605
f 608 609 544
f 608 610 609
f 611 612 608
f 611 608 613
f 608 614 615
f 616 617 608
f 618 619 616
f 620 616 621
f 618 616 620
f 616 619 617
f 608 617 614
f 613 608 615
f 608 612 610
f 544 587 608
f 544 609 622
f 544 622 623
f 544 623 624
f 544 540 587
f 594 595 540
f 591 604 586
f 586 607 599
f 599 606 597
f 593 540 592
f 590 541 540
f 585 588 540
f 545 544 624
f 580 583 537
f 534 544 576
f 560 537 577
f 534 554 535
f 536 625 534
f 625 552 534
f 534 553 551
f 626 534 550
f 627 548 534
f 548 628 549
f 628 629 549
f 629 630 549
f 631 632 633
f 549 632 631
f 549 630 632
f 627 534 626
f 544 534 537
f 634 635 533
f 634 533 532
f 635 636 533
f 533 636 531
f 635 637 636
f 637 635 634
f 532 638 639
f 532 639 640
f 531 636 642
f 636 641 642
f 637 643 644
f 634 645 646
f 647 648 531
f 647 531 642
f 648 649 531
f 649 650 531
f 650 651 531
f 651 652 531
f 652 653 531
f 653 654 531
f 654 655 531
f 655 656 531
f 656 657 531
f 657 658 531
f 658 659 531
f 659 660 531
f 660 661 531
f 661 662 531
f 662 663 531
f 663 664 531
f 664 665 531
f 665 666 531
f 531 666 532
f 666 667 532
f 667 668 532
f 668 669 532
f 669 670 532
f 670 671 532
f 671 672 532
f 672 673 532
f 673 674 532
f 675 532 676
f 532 677 676
f 678 532 675
f 679 532 678
f 680 532 679
f 681 532 680
f 682 532 681
f 683 532 682
f 684 532 683
f 685 532 684
f 686 532 685
f 687 532 686
f 638 532 687
f 674 677 532
f 688 532 689
f 532 688 634
f 646 690 634
f 634 691 645
f 690 692 634
f 692 693 634
f 693 694 634
f 694 695 634
f 695 696 634
f 696 697 634
f 697 698 634
f 698 699 634
f 699 700 634
f 700 701 634
f 701 702 634
f 702 703 634
f 703 704 634
f 704 705 634
f 705 706 634
f 707 634 706
f 708 634 707
f 709 634 708
f 637 634 709
f 709 710 637
f 710 711 637
f 711 712 637
f 688 691 634
f 713 714 637
f 714 715 637
f 715 643 637
f 716 717 637
f 716 637 718
f 717 719 637
f 719 720 637
f 720 721 637
f 721 636 637
f 722 636 721
f 723 636 722
f 724 636 723
f 725 636 724
f 726 636 725
f 727 636 726
f 728 636 727
f 636 728 729
f 637 644 718
f 636 729 641
f 730 713 637
f 712 730 637
f 689 532 640
f 642 577 549
f 577 642 560
f 561 560 642
f 641 561 642
f 641 568 561
f 641 569 568
f 641 729 569
f 569 729 567
f 567 729 728
f 565 567 728
f 727 565 728
f 727 566 565
f 727 726 566
f 566 726 563
f 563 726 725
f 564 563 725
f 724 564 725
f 724 562 564
f 724 723 562
f 562 723 570
f 723 722 570
f 570 722 571
f 571 722 721
f 558 571 721
f 720 558 721
f 720 559 558
f 720 719 559
f 559 719 573
f 573 719 717
f 572 717 716
f 574 572 716
f 538 574 716
f 718 538 716
f 718 644 538
f 643 579 539
f 644 643 539
f 643 715 579
f 579 715 578
f 578 715 714
f 580 578 714
f 713 580 714
f 713 583 580
f 713 730 583
f 583 730 712
f 582 583 712
f 711 582 712
f 711 710 582
f 582 710 584
f 584 709 708
f 706 589 707
f 592 703 702
f 596 595 699
f 607 605 695
f 606 607 694
f 693 606 694
f 693 597 606
f 692 598 597
f 692 690 598
f 598 690 600
f 600 646 601
f 601 646 602
f 602 646 645
f 603 645 691
f 599 603 691
f 586 599 691
f 587 586 688
f 587 688 608
f 616 689 621
f 689 640 620
f 640 639 618
f 639 638 619
f 619 638 687
f 617 687 686
f 614 686 685
f 615 614 685
f 613 615 684
f 611 613 683
f 682 611 683
f 681 612 682
f 681 610 612
f 681 680 610
f 680 679 609
f 609 679 678
f 622 609 678
f 675 622 678
f 676 623 622
f 676 677 623
f 623 677 674
f 624 674 673
f 538 644 539
f 673 672 624
f 672 671 545
f 545 671 670
f 655 551 656
f 546 668 547
f 647 549 631
f 647 642 549
f 633 647 631
f 633 648 647
f 633 632 648
f 648 632 630
f 649 648 630
f 629 649 630
f 629 650 649
f 629 628 650
f 650 628 651
f 651 628 548
f 652 651 548
f 627 652 548
f 627 653 652
f 627 626 653
f 653 626 654
f 654 626 550
f 655 654 550
f 551 655 550
f 553 656 551
f 553 657 656
f 553 552 657
f 657 552 658
f 658 552 625
f 659 658 625
f 536 659 625
f 536 660 659
f 536 535 660
f 660 535 661
f 661 535 554
f 662 661 554
f 555 662 554
f 555 663 662
f 556 663 555
f 556 664 663
f 556 557 664
f 664 557 575
f 665 664 575
f 576 665 575
f 576 581 665
f 665 581 666
f 666 581 547
f 667 666 547
f 668 667 547
f 669 668 546
f 670 669 546
f 545 670 546
f 672 545 624
f 674 624 623
f 622 675 676
f 609 610 680
f 611 682 612
f 684 683 613
f 685 684 615
f 686 614 617
f 618 639 619
f 687 617 619
f 620 640 618
f 621 689 620
f 616 688 689
f 608 688 616
f 688 586 691
f 603 602 645
f 600 690 646
f 693 692 597
f 694 607 695
f 695 605 696
f 696 605 604
f 697 696 604
f 591 697 604
f 591 698 697
f 591 596 698
f 698 596 699
f 699 595 700
f 700 595 594
f 594 701 700
f 594 593 701
f 701 593 702
f 702 593 592
f 703 592 543
f 704 703 543
f 542 704 543
f 542 705 704
f 542 541 705
f 705 541 706
f 706 541 590
f 589 706 590
f 588 707 589
f 584 708 585
f 585 708 707
f 710 709 584
f 588 585 707
f 572 573 717
f 731 732 789
f 733 734 735
f 731 736 732
f 735 775 733
f 731 775 738
f 737 733 772
f 733 739 740
f 733 741 739
f 733 742 743
f 733 743 741
f 733 744 742
f 733 737 744
f 733 745 746
f 733 740 747
f 733 747 745
f 733 748 749
f 733 746 748
f 733 750 751
f 733 749 750
f 733 751 752
f 733 752 734
f 731 753 754
f 731 755 753
f 731 756 757
f 731 757 755
f 731 758 756
f 731 759 758
f 731 738 759
f 731 760 761
f 731 754 762
f 731 762 760
f 731 763 764
f 731 761 763
f 731 765 766
f 731 764 765
f 731 766 767
f 731 767 768
f 731 768 736
f 769 770 771
f 808 773 735
f 737 772 769
f 769 772 808
f 774 737 769
f 772 857 808
f 735 769 808
f 735 773 775
f 769 776 777
f 769 778 770
f 771 779 769
f 779 780 769
f 780 774 769
f 769 777 778
f 769 781 782
f 769 783 776
f 769 782 783
f 769 784 785
f 769 785 781
f 769 786 787
f 769 787 784
f 769 735 786
f 788 789 732
f 811 789 808
f 788 808 789
f 775 773 738
f 773 790 738
f 788 791 773
f 792 791 788
f 773 808 788
f 793 794 788
f 795 792 788
f 773 791 796
f 773 797 798
f 773 796 797
f 773 798 799
f 773 799 790
f 794 795 788
f 800 801 788
f 802 793 788
f 801 802 788
f 803 804 788
f 804 800 788
f 805 806 788
f 806 803 788
f 807 805 788
f 732 807 788
f 855 808 857
f 772 733 809
f 809 775 731
f 809 731 789
f 809 733 775
f 811 808 993
f 810 993 808
f 855 810 808
f 810 857 993
f 857 810 855
f 734 752 786
f 786 735 734
f 752 751 787
f 784 751 785
f 787 786 752
f 751 750 785
f 781 749 782
f 784 787 751
f 783 782 748
f 749 748 782
f 776 745 777
f 746 776 783
f 781 750 749
f 778 777 747
f 745 747 777
f 785 750 781
f 746 745 776
f 774 780 742
f 742 744 774
f 744 737 774
f 780 779 743
f 741 743 779
f 743 742 780
f 779 771 741
f 778 747 740
f 740 770 778
f 783 748 746
f 739 741 771
f 740 739 770
f 771 770 739
f 736 768 807
f 807 732 736
f 768 767 805
f 805 807 768
f 767 766 806
f 803 766 804
f 806 805 767
f 766 765 804
f 800 764 801
f 803 806 766
f 802 801 763
f 764 763 801
f 793 760 794
f 761 793 802
f 800 765 764
f 795 794 762
f 760 762 794
f 804 765 800
f 761 760 793
f 790 799 758
f 758 759 790
f 759 738 790
f 799 798 756
f 756 758 799
f 797 796 757
f 798 797 757
f 755 757 796
f 757 756 798
f 796 791 755
f 795 762 754
f 754 792 795
f 802 763 761
f 753 755 791
f 754 753 792
f 791 792 753
f 857 772 809
f 857 809 811
f 811 809 789
f 811 993 857
f 812 813 892
f 814 815 816
f 812 817 813
f 816 820 814
f 812 820 821
f 818 814 819
f 814 822 823
f 814 824 822
f 814 825 826
f 814 826 824
f 814 827 825
f 814 818 827
f 814 828 829
f 814 823 830
f 814 830 828
f 814 831 832
f 814 829 831
f 814 833 834
f 814 832 833
f 814 834 835
f 814 835 815
f 812 836 837
f 812 838 836
f 812 839 840
f 812 840 838
f 812 841 839
f 812 842 841
f 812 821 842
f 812 843 844
f 812 837 845
f 812 845 843
f 812 846 847
f 812 844 846
f 812 848 849
f 812 847 848
f 812 849 850
f 812 850 851
f 812 851 817
f 993 895 811
f 895 993 853
f 855 857 852
f 852 895 853
f 855 852 853
f 892 985 812
f 820 985 814
f 814 985 819
f 812 985 820
f 892 857 772
f 985 856 993
f 853 993 856
f 993 811 985
f 898 857 856
f 855 853 856
f 857 855 856
f 985 898 856
f 815 835 858
f 858 816 815
f 835 834 859
f 860 834 861
f 859 858 835
f 834 833 861
f 862 832 863
f 860 859 834
f 864 863 831
f 832 831 863
f 865 828 866
f 829 865 864
f 862 833 832
f 867 866 830
f 828 830 866
f 861 833 862
f 829 828 865
f 868 869 825
f 825 827 868
f 827 818 868
f 869 870 826
f 824 826 870
f 826 825 869
f 870 871 824
f 823 872 867
f 864 831 829
f 822 824 871
f 823 822 872
f 871 872 822
f 867 830 823
f 817 851 873
f 873 813 817
f 851 850 874
f 874 873 851
f 850 849 875
f 876 849 877
f 875 874 850
f 849 848 877
f 878 847 879
f 876 875 849
f 880 879 846
f 847 846 879
f 881 843 882
f 844 881 880
f 878 848 847
f 883 882 845
f 843 845 882
f 877 848 878
f 844 843 881
f 884 885 841
f 841 842 884
f 842 821 884
f 885 886 839
f 839 841 885
f 887 888 840
f 886 887 840
f 838 840 888
f 840 839 886
f 888 889 838
f 837 890 883
f 880 846 844
f 836 838 889
f 837 836 890
f 889 890 836
f 883 845 837
f 891 895 892
f 892 852 857
f 875 876 891
f 892 813 891
f 813 873 891
f 873 874 891
f 875 891 874
f 876 877 891
f 877 878 891
f 878 879 891
f 879 880 891
f 880 881 891
f 881 882 891
f 890 895 891
f 883 890 891
f 890 893 895
f 889 893 890
f 888 893 889
f 887 893 888
f 821 820 894
f 894 884 821
f 893 887 886
f 884 894 893
f 884 893 885
f 893 886 885
f 891 882 883
f 897 895 896
f 897 869 868
f 896 865 866
f 868 818 897
f 852 892 895
f 895 897 819
f 870 869 897
f 870 897 871
f 871 897 872
f 894 820 816
f 816 893 894
f 895 893 896
f 893 816 896
f 816 858 896
f 858 859 896
f 859 860 896
f 861 896 860
f 864 896 863
f 896 861 862
f 896 862 863
f 864 865 896
f 872 896 867
f 867 896 866
f 896 872 897
f 811 895 819
f 897 818 819
f 892 772 898
f 857 898 772
f 898 985 892
f 985 811 819
f 902 904 903
f 903 904 902
f 901 900 903
f 900 901 903
f 902 903 899
f 903 902 899
f 908 905 906
f 909 906 907
f 912 910 911
f 906 909 908
f 911 909 907
f 911 910 909
f 918 914 905
f 918 915 914
f 918 916 915
f 913 912 916
f 912 911 916
f 911 915 916
f 907 915 911
f 914 906 905
f 906 914 907
f 914 915 907
f 917 913 916
f 921 920 996
f 996 919 921
f 920 921 919
f 922 923 924
f 923 922 925
f 926 927 928
f 925 929 927
f 929 925 930
f 927 926 925
f 931 924 932
f 924 931 922
f 933 928 939
f 928 933 926
f 923 925 942
f 925 926 942
f 934 945 935
f 936 945 937
f 945 934 937
f 938 945 936
f 931 932 938
f 932 945 938
f 941 934 940
f 934 935 940
f 942 943 995
f 995 982 942
f 942 982 944
f 945 944 982
f 945 995 946
f 947 948 949
f 948 947 950
f 959 952 951
f 959 948 953
f 948 950 953
f 959 953 952
f 954 959 951
f 955 949 956
f 949 955 947
f 957 954 958
f 954 951 958
f 961 959 954
f 960 948 959
f 963 969 964
f 969 962 964
f 965 969 963
f 965 955 956
f 965 956 969
f 957 958 966
f 959 967 960
f 967 959 961
f 968 960 967
f 981 962 971
f 962 969 971
f 961 972 967
f 967 972 973
f 968 967 973
f 968 974 960
f 960 974 975
f 976 970 969
f 976 969 977
f 972 966 973
f 969 975 977
f 977 975 974
f 977 979 976
f 976 979 980
f 970 976 980
f 979 981 980
f 957 961 954
f 972 961 957
f 971 980 981
f 957 966 972
f 970 980 971
f 969 970 971
f 956 949 975
f 960 975 948
f 956 975 969
f 948 975 949
f 974 968 978
f 978 968 973
f 978 973 966
f 974 978 977
f 979 977 978
f 979 978 981
f 932 924 944
f 942 944 923
f 924 923 944
f 944 945 932
f 926 933 943
f 942 926 943
f 946 935 945
f 935 946 940
f 992 1003 983
f 983 917 993
f 992 983 993
f 917 983 853
f 917 853 1000
f 992 994 986
f 1003 992 984
f 984 992 986
f 1000 984 986
f 917 985 993
f 986 994 985
f 951 937 988
f 952 953 936
f 953 938 936
f 950 947 931
f 931 947 922
f 938 953 950
f 936 937 952
f 951 952 937
f 941 987 934
f 987 988 934
f 995 987 941
f 938 950 931
f 934 988 937
f 1000 987 995
f 951 988 989
f 951 989 958
f 989 966 958
f 966 989 978
f 989 994 978
f 939 928 1000
f 939 1000 995
f 928 990 1000
f 928 927 990
f 990 927 964
f 991 962 981
f 978 991 981
f 964 991 990
f 964 962 991
f 963 964 927
f 929 963 927
f 955 930 925
f 947 925 922
f 947 955 925
f 955 965 930
f 930 965 929
f 965 963 929
f 983 987 853
f 993 987 992
f 983 1003 987
f 992 987 1003
f 992 1003 984
f 984 994 992
f 989 987 985
f 853 987 1000
f 987 989 988
f 994 989 985
f 987 993 985
f 994 991 978
f 994 1000 990
f 1000 994 984
f 994 990 991
f 945 982 995
f 905 908 997
f 909 997 908
f 910 997 909
f 912 997 910
f 913 997 912
f 986 997 913
f 996 986 919
f 986 996 1000
f 913 919 986
f 997 986 985
f 920 917 1000
f 913 917 919
f 917 920 919
f 916 997 917
f 985 917 997
f 997 916 918
f 997 918 905
f 996 920 1000
f 995 941 946
f 940 946 941
f 943 933 939
f 995 943 939
f 854 999 1002
f 1006 998 1007
f 1007 1002 999
f 999 854 1007
f 853 987 983
f 1000 1007 1002
f 998 1006 1004
f 1007 998 1004
f 1007 1004 1002
f 983 987 853
f 1001 1004 1000
f 1004 1006 1003
f 1006 853 983
f 1001 1005 853
f 983 853 1005
f 983 1003 1006
f 853 983 1005
f 1002 1007 854
f 1006 1007 1003
f 1004 1007 1000
f 1003 1007 1004
f 853 1005 1001
f 1000 1002 1004
f 1001 1000 1004
f 983 1006 1003
f 983 853 1006

